M48
; DRILL file {KiCad 7.0.10} date Tue Apr 22 22:54:14 2025
; FORMAT={-:-/ absolute / inch / decimal}
; #@! TF.CreationDate,2025-04-22T22:54:14-04:00
; #@! TF.GenerationSoftware,Kicad,Pcbnew,7.0.10
; #@! TF.FileFunction,Plated,1,6,PTH
FMAT,2
INCH
; #@! TA.AperFunction,Plated,PTH,ViaDrill
T1C0.0138
; #@! TA.AperFunction,Plated,PTH,ComponentDrill
T2C0.0138
; #@! TA.AperFunction,Plated,PTH,ViaDrill
T3C0.0157
; #@! TA.AperFunction,Plated,PTH,ComponentDrill
T4C0.0197
; #@! TA.AperFunction,Plated,PTH,ComponentDrill
T5C0.0236
; #@! TA.AperFunction,Plated,PTH,ComponentDrill
T6C0.0335
; #@! TA.AperFunction,Plated,PTH,ComponentDrill
T7C0.0354
; #@! TA.AperFunction,Plated,PTH,ComponentDrill
T8C0.0394
; #@! TA.AperFunction,Plated,PTH,ComponentDrill
T9C0.0402
; #@! TA.AperFunction,Plated,PTH,ComponentDrill
T10C0.0472
; #@! TA.AperFunction,Plated,PTH,ComponentDrill
T11C0.0490
; #@! TA.AperFunction,Plated,PTH,ComponentDrill
T12C0.0709
; #@! TA.AperFunction,Plated,PTH,ComponentDrill
T13C0.1063
; #@! TA.AperFunction,Plated,PTH,ComponentDrill
T14C0.1260
; #@! TA.AperFunction,Plated,PTH,ComponentDrill
T15C0.1732
%
G90
G05
T1
X1.9961Y-4.2598
X2.3386Y-4.248
X2.5236Y-4.2559
X2.5236Y-4.3937
X2.6142Y-4.4331
X2.6457Y-4.3976
X2.6969Y-4.4646
X2.7913Y-4.4685
X2.8189Y-5.0472
X2.8504Y-5.0827
X2.8819Y-5.0472
X2.9016Y-4.2598
X2.9134Y-5.0827
X2.9449Y-5.0472
X2.9764Y-5.0827
X3.0079Y-5.0472
X3.0394Y-5.0827
X3.0709Y-5.0472
X3.3425Y-4.249
X3.3425Y-4.2963
X3.3425Y-4.3435
X3.3425Y-4.3888
X3.3602Y-4.2254
X3.3622Y-4.2717
X3.3622Y-4.3189
X3.3622Y-4.3661
X3.3622Y-4.4134
X3.374Y-4.4567
X3.3898Y-4.3898
X3.4173Y-4.4882
X3.4252Y-4.1969
X3.4764Y-4.5157
X3.4764Y-4.5472
X3.5787Y-1.3504
X3.5787Y-1.4134
X3.5787Y-1.4764
X3.5787Y-1.5394
X3.5787Y-1.6024
X3.5787Y-1.6732
X3.5787Y-1.7362
X3.5787Y-1.7992
X3.5787Y-1.8622
X3.5787Y-1.9252
X3.5787Y-1.9882
X3.5787Y-2.0512
X3.5787Y-2.2756
X3.5787Y-2.3386
X3.5787Y-2.4016
X3.6024Y-4.2943
X3.6417Y-1.3504
X3.6417Y-1.4134
X3.6417Y-1.4764
X3.6417Y-1.5394
X3.6417Y-1.6024
X3.6417Y-1.6732
X3.6417Y-1.7362
X3.6417Y-1.7992
X3.6417Y-1.8622
X3.6417Y-1.9252
X3.6417Y-1.9882
X3.6417Y-2.0512
X3.6417Y-2.2756
X3.6417Y-2.3386
X3.6614Y-4.2022
X3.6988Y-4.2923
X3.7008Y-4.4134
X3.7047Y-1.3504
X3.7047Y-1.4134
X3.7047Y-1.4764
X3.7047Y-1.5394
X3.7047Y-1.6024
X3.7047Y-1.6732
X3.7047Y-1.7362
X3.7047Y-1.7992
X3.7047Y-1.8622
X3.7047Y-1.9252
X3.7047Y-1.9882
X3.7047Y-2.0512
X3.7047Y-2.2756
X3.7047Y-2.3386
X3.7047Y-3.5709
X3.7205Y-3.4331
X3.7227Y-4.3129
X3.7244Y-3.0512
X3.7332Y-4.4143
X3.7677Y-1.3504
X3.7677Y-1.4134
X3.7677Y-1.4764
X3.7677Y-1.5394
X3.7677Y-1.6024
X3.7677Y-1.6732
X3.7677Y-1.7362
X3.7677Y-1.7992
X3.7677Y-1.8622
X3.7677Y-1.9252
X3.7677Y-1.9882
X3.7677Y-2.0512
X3.7677Y-2.2756
X3.7677Y-2.3386
X3.811Y-3.4961
X3.811Y-3.5591
X3.811Y-3.622
X3.8307Y-1.3504
X3.8307Y-1.4134
X3.8307Y-1.4764
X3.8307Y-1.5394
X3.8307Y-1.6024
X3.8307Y-1.6732
X3.8307Y-1.7362
X3.8307Y-1.7992
X3.8307Y-1.8622
X3.8307Y-1.9252
X3.8307Y-1.9882
X3.8307Y-2.0512
X3.8307Y-2.2756
X3.8307Y-2.3386
X3.8307Y-2.4016
X3.8307Y-2.7165
X3.8307Y-2.7795
X3.874Y-3.4331
X3.874Y-3.4961
X3.874Y-3.5591
X3.874Y-3.622
X3.874Y-3.685
X3.874Y-3.748
X3.874Y-3.811
X3.877Y-4.3907
X3.8864Y-4.2923
X3.8937Y-1.3504
X3.8937Y-1.4134
X3.8937Y-1.4764
X3.8937Y-1.6024
X3.8937Y-1.6732
X3.8937Y-1.7992
X3.8937Y-1.8622
X3.8937Y-1.9252
X3.8937Y-1.9882
X3.8937Y-2.0512
X3.8937Y-2.2756
X3.8937Y-2.3386
X3.8937Y-2.4016
X3.8937Y-2.4646
X3.8937Y-2.5276
X3.8937Y-2.5906
X3.8937Y-2.6535
X3.8937Y-2.7165
X3.8937Y-2.7795
X3.8937Y-2.8425
X3.8937Y-3.9803
X3.9016Y-4.3701
X3.9055Y-3.8543
X3.9134Y-4.2677
X3.9276Y-4.4205
X3.937Y-3.4331
X3.937Y-3.4961
X3.937Y-3.5591
X3.937Y-3.622
X3.937Y-3.685
X3.937Y-3.748
X3.937Y-3.811
X3.9528Y-4.4016
X3.9567Y-1.3504
X3.9567Y-1.4134
X3.9567Y-1.4764
X3.9567Y-1.6024
X3.9567Y-1.6732
X3.9567Y-1.7992
X3.9567Y-1.8622
X3.9567Y-2.6535
X3.9567Y-2.7165
X3.9567Y-2.7795
X3.9567Y-2.8425
X3.958Y-4.4813
X3.9764Y-4.5101
X3.9803Y-4.4567
X4.0Y-3.4331
X4.0Y-3.4961
X4.0Y-3.5591
X4.0Y-3.622
X4.0Y-3.685
X4.0Y-3.748
X4.0Y-3.811
X4.0197Y-1.3504
X4.0197Y-1.4134
X4.0197Y-1.4764
X4.0197Y-1.5394
X4.0197Y-1.7362
X4.0197Y-1.7992
X4.0197Y-1.8622
X4.0197Y-2.6535
X4.0197Y-2.7165
X4.0197Y-2.7795
X4.0197Y-2.8425
X4.0197Y-4.5118
X4.063Y-3.4331
X4.063Y-3.4961
X4.063Y-3.5591
X4.063Y-3.622
X4.063Y-3.685
X4.063Y-3.748
X4.063Y-3.811
X4.0827Y-1.3504
X4.0827Y-1.4134
X4.0827Y-1.4764
X4.0827Y-1.5394
X4.0827Y-1.7362
X4.0827Y-1.7992
X4.0827Y-2.6535
X4.0827Y-2.7165
X4.0827Y-2.7795
X4.0827Y-2.8425
X4.126Y-3.4331
X4.126Y-3.4961
X4.126Y-3.5591
X4.126Y-3.622
X4.1457Y-1.4134
X4.1457Y-1.4764
X4.1457Y-1.5394
X4.1457Y-1.7362
X4.1457Y-1.7992
X4.1457Y-2.6535
X4.1457Y-2.7165
X4.1457Y-2.7795
X4.1457Y-2.8425
X4.189Y-4.0039
X4.2008Y-4.0295
X4.2067Y-3.4868
X4.2087Y-1.4134
X4.2087Y-1.4764
X4.2087Y-1.5394
X4.2087Y-1.7362
X4.2087Y-1.7992
X4.2087Y-2.6535
X4.2087Y-2.7165
X4.2087Y-2.7795
X4.2087Y-2.8425
X4.2323Y-3.4646
X4.248Y-4.2598
X4.2657Y-3.4868
X4.2717Y-1.3504
X4.2717Y-1.4134
X4.2717Y-1.4764
X4.2717Y-1.5394
X4.2717Y-1.7362
X4.2717Y-2.6535
X4.2717Y-2.7165
X4.2717Y-2.7795
X4.2717Y-2.8425
X4.2913Y-3.4646
X4.3189Y-4.0157
X4.3248Y-3.4868
X4.3268Y-4.2244
X4.3346Y-1.4134
X4.3346Y-1.4764
X4.3346Y-1.5394
X4.3346Y-1.7362
X4.3346Y-2.6535
X4.3346Y-2.7165
X4.3346Y-2.7795
X4.3346Y-2.8425
X4.3504Y-3.4646
X4.3831Y-3.4876
X4.3976Y-1.4764
X4.3976Y-1.5394
X4.3976Y-2.6535
X4.3976Y-2.7165
X4.3976Y-2.7795
X4.3976Y-2.8425
X4.3976Y-4.1693
X4.4016Y-4.3386
X4.4016Y-4.374
X4.4087Y-3.4654
X4.4183Y-4.2018
X4.4331Y-4.1639
X4.4331Y-4.3228
X4.4331Y-4.3583
X4.4331Y-4.3937
X4.4606Y-2.6535
X4.4606Y-2.7165
X4.4606Y-2.7795
X4.4606Y-2.8425
X4.4646Y-4.3425
X4.4646Y-4.378
X4.4681Y-4.2962
X4.4695Y-4.2647
X4.4921Y-3.4685
X4.4921Y-4.0236
X4.4961Y-3.5669
X4.5079Y-4.2638
X4.5079Y-4.2953
X4.5236Y-2.6535
X4.5236Y-2.7165
X4.5236Y-2.7795
X4.5236Y-2.8425
X4.5509Y-4.0221
X4.5551Y-3.4685
X4.5551Y-4.2756
X4.5611Y-3.6752
X4.5866Y-2.6535
X4.5866Y-2.7165
X4.5866Y-2.7795
X4.5866Y-2.8425
X4.6063Y-3.7441
X4.6132Y-4.3691
X4.6181Y-3.4685
X4.6496Y-2.6535
X4.6496Y-2.7165
X4.6496Y-2.7795
X4.6496Y-2.8425
X4.6706Y-4.2473
X4.6732Y-3.7441
X4.6899Y-3.9046
X4.6941Y-4.045
X4.7164Y-1.8338
X4.7205Y-4.2382
X4.7717Y-4.0591
X4.7717Y-4.0906
X4.7717Y-4.122
X4.7717Y-4.1535
X4.7717Y-4.185
X4.7766Y-4.4832
X4.8113Y-4.4289
X4.8238Y-1.902
X4.8291Y-3.9005
X4.8346Y-3.9567
X4.8346Y-4.0118
X4.8587Y-4.0379
X4.8622Y-1.3898
X4.8622Y-1.4528
X4.8622Y-1.5157
X4.8622Y-1.5787
X4.8622Y-1.6417
X4.8622Y-1.7047
X4.871Y-4.8691
X4.8858Y-4.3031
X4.8863Y-4.2003
X4.8898Y-4.9321
X4.8976Y-4.9016
X4.9094Y-4.8543
X4.9094Y-4.9567
X4.9108Y-5.0197
X4.9134Y-1.4213
X4.9134Y-1.4843
X4.9134Y-1.5472
X4.9134Y-1.6102
X4.9269Y-3.9908
X4.9331Y-4.9961
X4.9518Y-5.0384
X4.9672Y-3.9055
X4.9724Y-4.1166
X4.9833Y-5.0394
X5.0098Y-4.126
X5.0098Y-4.1575
X5.0098Y-4.189
X5.0098Y-4.2205
X5.0098Y-4.252
X5.0098Y-4.2835
X5.0098Y-4.315
X5.0236Y-5.0669
X5.0413Y-4.1102
X5.0413Y-4.1417
X5.0413Y-4.1732
X5.0413Y-4.2047
X5.0413Y-4.2362
X5.0413Y-4.2677
X5.0413Y-4.2992
X5.0413Y-4.3307
X5.0589Y-5.0651
X5.1065Y-4.4296
X5.1091Y-5.0669
X5.1092Y-5.0354
X5.1102Y-4.9686
X5.1102Y-5.0001
X5.1103Y-4.4698
T2
X4.6363Y-4.0979
X4.6363Y-4.1481
X4.6363Y-4.1983
X4.6865Y-4.0979
X4.6865Y-4.1481
X4.6865Y-4.1983
X4.7367Y-4.0979
X4.7367Y-4.1481
X4.7367Y-4.1983
T3
X3.0888Y-3.4943
X3.1211Y-3.462
X3.3986Y-3.4961
X3.8189Y-1.2933
X4.8031Y-2.7087
X6.1102Y-3.7677
X6.1102Y-3.8268
X6.187Y-4.1531
X6.2244Y-4.1409
X6.2283Y-3.8323
X6.2621Y-4.1525
X6.3091Y-4.3894
X6.3366Y-3.8276
X6.3465Y-2.3701
X6.3504Y-2.4606
X6.3508Y-3.7016
X6.3594Y-3.9543
X6.3622Y-2.2493
X6.4886Y-3.8953
X6.4961Y-3.7772
X6.5122Y-3.6591
X6.5669Y-4.2378
X6.5669Y-4.6039
X6.5787Y-2.4291
X6.5787Y-2.4783
X6.6224Y-3.798
X6.6224Y-3.848
X6.6339Y-2.311
X6.6339Y-2.374
T4
X1.2283Y-2.8189
X1.2283Y-2.874
X1.2283Y-2.9291
X1.2283Y-2.9843
X1.2283Y-3.0394
X1.2283Y-3.2598
X1.2283Y-3.315
X1.2283Y-3.3701
X1.2283Y-3.4252
X1.2283Y-3.4803
X1.2835Y-2.8189
X1.2835Y-2.874
X1.2835Y-2.9291
X1.2835Y-2.9843
X1.2835Y-3.0394
X1.2835Y-3.2598
X1.2835Y-3.315
X1.2835Y-3.3701
X1.2835Y-3.4252
X1.2835Y-3.4803
X1.3386Y-2.8189
X1.3386Y-2.874
X1.3386Y-2.9291
X1.3386Y-2.9843
X1.3386Y-3.0394
X1.3386Y-3.2598
X1.3386Y-3.315
X1.3386Y-3.3701
X1.3386Y-3.4252
X1.3386Y-3.4803
X1.3937Y-2.8465
X1.3937Y-2.9016
X1.3937Y-2.9567
X1.3937Y-3.0118
X1.3937Y-3.2874
X1.3937Y-3.3425
X1.3937Y-3.3976
X1.3937Y-3.4528
X1.4488Y-2.9016
X1.4488Y-2.9567
X1.4488Y-3.3425
X1.4488Y-3.3976
X6.4291Y-2.8661
X6.4291Y-2.9213
X6.4291Y-3.378
X6.4291Y-3.4331
X6.4843Y-2.811
X6.4843Y-2.8661
X6.4843Y-2.9213
X6.4843Y-2.9764
X6.4843Y-3.3228
X6.4843Y-3.378
X6.4843Y-3.4331
X6.4843Y-3.4882
X6.5394Y-2.7835
X6.5394Y-2.8386
X6.5394Y-2.8937
X6.5394Y-2.9488
X6.5394Y-3.0039
X6.5394Y-3.2953
X6.5394Y-3.3504
X6.5394Y-3.4055
X6.5394Y-3.4606
X6.5394Y-3.5157
X6.5945Y-2.7835
X6.5945Y-2.8386
X6.5945Y-2.8937
X6.5945Y-2.9488
X6.5945Y-3.0039
X6.5945Y-3.2953
X6.5945Y-3.3504
X6.5945Y-3.4055
X6.5945Y-3.4606
X6.5945Y-3.5157
X6.6496Y-2.7835
X6.6496Y-2.8386
X6.6496Y-2.8937
X6.6496Y-2.9488
X6.6496Y-3.0039
X6.6496Y-3.2953
X6.6496Y-3.3504
X6.6496Y-3.4055
X6.6496Y-3.4606
X6.6496Y-3.5157
T6
X3.9449Y-1.5397
X3.9449Y-1.7366
T7
X1.5512Y-1.3956
X1.5512Y-1.494
X1.5512Y-1.5924
X1.5512Y-1.6909
X1.5512Y-1.7893
X1.5512Y-1.8877
X1.5512Y-1.9861
X1.5512Y-2.0846
X1.5512Y-2.183
X1.5512Y-2.2814
X1.5512Y-2.3798
X1.5512Y-2.4783
X1.5512Y-2.5767
T8
X3.3685Y-4.9472
X3.3685Y-5.0472
X3.4685Y-4.9472
X3.4685Y-5.0472
X3.5685Y-4.9472
X3.5685Y-5.0472
X3.6685Y-4.9472
X3.6685Y-5.0472
X3.7685Y-4.9472
X3.7685Y-5.0472
X3.8685Y-4.9472
X3.8685Y-5.0472
X3.9685Y-4.9472
X3.9685Y-5.0472
X4.0685Y-4.9472
X4.0685Y-5.0472
X4.1685Y-4.9472
X4.1685Y-5.0472
X4.2685Y-4.9472
X4.2685Y-5.0472
X4.3685Y-4.9472
X4.3685Y-5.0472
X4.4685Y-4.9472
X4.4685Y-5.0472
X4.5685Y-4.9472
X4.5685Y-5.0472
X4.6685Y-4.9472
X4.6685Y-5.0472
T9
X1.9295Y0.206
X1.9295Y-0.1161
X2.1772Y0.2244
X2.1772Y0.0634
X2.3898Y-0.0386
T10
X2.7126Y-1.5937
X2.7126Y-4.7055
X2.811Y-1.5937
X2.811Y-4.7055
X5.1772Y-1.5945
X5.1811Y-4.7063
X5.2756Y-1.5945
X5.2795Y-4.7063
X6.2803Y-1.7795
X6.2803Y-1.878
X6.2803Y-1.9764
T11
X1.5928Y-4.0427
X1.5928Y-4.1411
X1.5928Y-4.2395
X1.5928Y-4.3379
X1.6913Y-4.0427
X1.6913Y-4.1411
X1.6913Y-4.2395
X1.6913Y-4.3379
T12
X1.6102Y-2.8839
X1.6102Y-3.4154
X1.8563Y-1.2874
X1.8563Y-5.0118
X2.3878Y-1.2874
X2.3878Y-5.0118
X5.6004Y-1.2882
X5.6043Y-5.0101
X6.1319Y-1.2882
X6.1358Y-5.0101
X6.3031Y-2.8839
X6.3031Y-3.4154
T13
X1.8465Y-3.0079
X1.8465Y-3.2913
X1.9803Y-1.5236
X1.9803Y-4.7756
X2.2638Y-1.5236
X2.2638Y-4.7756
X5.7244Y-1.5244
X5.7283Y-4.7739
X6.0079Y-1.5244
X6.0118Y-4.7739
X6.0669Y-3.0079
X6.0669Y-3.2913
T14
X1.3819Y-4.9173
X2.3386Y-2.0472
X6.4921Y-1.3819
X6.4921Y-4.9173
T15
X3.7008Y-2.5512
X3.7008Y-3.752
X4.9016Y-2.5512
X4.9016Y-3.752
T5
G00X6.4516Y-3.6575
M15
G01X6.4083Y-3.6575
M16
G05
G00X6.4516Y-3.9976
M15
G01X6.4083Y-3.9976
M16
G05
G00X6.6102Y-3.6575
M15
G01X6.5787Y-3.6575
M16
G05
G00X6.6102Y-3.9976
M15
G01X6.5787Y-3.9976
M16
G05
M30
