%TF.GenerationSoftware,KiCad,Pcbnew,7.0.10*%
%TF.CreationDate,2025-04-22T22:54:08-04:00*%
%TF.ProjectId,bms-board,626d732d-626f-4617-9264-2e6b69636164,rev?*%
%TF.SameCoordinates,Original*%
%TF.FileFunction,Copper,L1,Top*%
%TF.FilePolarity,Positive*%
%FSLAX46Y46*%
G04 Gerber Fmt 4.6, Leading zero omitted, Abs format (unit mm)*
G04 Created by KiCad (PCBNEW 7.0.10) date 2025-04-22 22:54:08*
%MOMM*%
%LPD*%
G01*
G04 APERTURE LIST*
G04 Aperture macros list*
%AMRoundRect*
0 Rectangle with rounded corners*
0 $1 Rounding radius*
0 $2 $3 $4 $5 $6 $7 $8 $9 X,Y pos of 4 corners*
0 Add a 4 corners polygon primitive as box body*
4,1,4,$2,$3,$4,$5,$6,$7,$8,$9,$2,$3,0*
0 Add four circle primitives for the rounded corners*
1,1,$1+$1,$2,$3*
1,1,$1+$1,$4,$5*
1,1,$1+$1,$6,$7*
1,1,$1+$1,$8,$9*
0 Add four rect primitives between the rounded corners*
20,1,$1+$1,$2,$3,$4,$5,0*
20,1,$1+$1,$4,$5,$6,$7,0*
20,1,$1+$1,$6,$7,$8,$9,0*
20,1,$1+$1,$8,$9,$2,$3,0*%
%AMFreePoly0*
4,1,34,-3.500000,0.000000,-3.488454,0.284056,-3.437293,0.659559,-3.345832,1.027329,-3.215145,1.383055,-3.046763,1.722566,-2.842661,2.041881,-2.605231,2.337257,-2.337257,2.605231,-2.041881,2.842661,-1.722566,3.046763,-1.383055,3.215145,-1.027329,3.345832,-0.659559,3.437293,-0.284056,3.488454,0.000000,3.500000,0.284056,3.488454,0.659559,3.437293,1.027329,3.345832,1.383055,3.215145,
1.722566,3.046763,2.041881,2.842661,2.337257,2.605231,2.605231,2.337257,2.842661,2.041881,3.046763,1.722566,3.215145,1.383055,3.345832,1.027329,3.437293,0.659559,3.488454,0.284056,3.500000,0.000000,3.500000,-3.500000,-3.500000,-3.500000,-3.500000,0.000000,-3.500000,0.000000,$1*%
G04 Aperture macros list end*
%TA.AperFunction,SMDPad,CuDef*%
%ADD10R,1.450000X0.950000*%
%TD*%
%TA.AperFunction,ComponentPad*%
%ADD11C,5.500000*%
%TD*%
%TA.AperFunction,SMDPad,CuDef*%
%ADD12R,0.890000X0.930000*%
%TD*%
%TA.AperFunction,SMDPad,CuDef*%
%ADD13R,1.397000X0.863600*%
%TD*%
%TA.AperFunction,SMDPad,CuDef*%
%ADD14R,1.300000X0.700000*%
%TD*%
%TA.AperFunction,SMDPad,CuDef*%
%ADD15R,0.863600X1.397000*%
%TD*%
%TA.AperFunction,ComponentPad*%
%ADD16C,1.530000*%
%TD*%
%TA.AperFunction,SMDPad,CuDef*%
%ADD17R,0.950000X1.450000*%
%TD*%
%TA.AperFunction,SMDPad,CuDef*%
%ADD18R,3.352800X0.903200*%
%TD*%
%TA.AperFunction,SMDPad,CuDef*%
%ADD19R,1.193800X1.016000*%
%TD*%
%TA.AperFunction,SMDPad,CuDef*%
%ADD20R,0.700000X0.600000*%
%TD*%
%TA.AperFunction,SMDPad,CuDef*%
%ADD21R,1.016000X1.193800*%
%TD*%
%TA.AperFunction,SMDPad,CuDef*%
%ADD22R,1.600000X0.855600*%
%TD*%
%TA.AperFunction,SMDPad,CuDef*%
%ADD23R,0.300000X1.475000*%
%TD*%
%TA.AperFunction,SMDPad,CuDef*%
%ADD24R,1.475000X0.300000*%
%TD*%
%TA.AperFunction,SMDPad,CuDef*%
%ADD25C,1.000000*%
%TD*%
%TA.AperFunction,SMDPad,CuDef*%
%ADD26R,12.192000X3.022600*%
%TD*%
%TA.AperFunction,SMDPad,CuDef*%
%ADD27R,0.863600X1.244600*%
%TD*%
%TA.AperFunction,SMDPad,CuDef*%
%ADD28R,0.889000X0.863600*%
%TD*%
%TA.AperFunction,SMDPad,CuDef*%
%ADD29R,1.524000X0.533400*%
%TD*%
%TA.AperFunction,SMDPad,CuDef*%
%ADD30R,0.965200X1.346200*%
%TD*%
%TA.AperFunction,SMDPad,CuDef*%
%ADD31R,0.863600X0.889000*%
%TD*%
%TA.AperFunction,SMDPad,CuDef*%
%ADD32R,0.800000X0.900000*%
%TD*%
%TA.AperFunction,SMDPad,CuDef*%
%ADD33R,1.244600X0.863600*%
%TD*%
%TA.AperFunction,SMDPad,CuDef*%
%ADD34R,1.000000X1.400000*%
%TD*%
%TA.AperFunction,SMDPad,CuDef*%
%ADD35R,0.920000X1.380000*%
%TD*%
%TA.AperFunction,SMDPad,CuDef*%
%ADD36R,2.489200X1.066800*%
%TD*%
%TA.AperFunction,SMDPad,CuDef*%
%ADD37R,0.700000X1.300000*%
%TD*%
%TA.AperFunction,SMDPad,CuDef*%
%ADD38RoundRect,0.242500X-0.242500X-0.367500X0.242500X-0.367500X0.242500X0.367500X-0.242500X0.367500X0*%
%TD*%
%TA.AperFunction,SMDPad,CuDef*%
%ADD39R,1.470000X1.160000*%
%TD*%
%TA.AperFunction,ComponentPad*%
%ADD40R,1.700000X1.700000*%
%TD*%
%TA.AperFunction,ComponentPad*%
%ADD41O,1.700000X1.700000*%
%TD*%
%TA.AperFunction,SMDPad,CuDef*%
%ADD42O,1.649999X0.449999*%
%TD*%
%TA.AperFunction,SMDPad,CuDef*%
%ADD43R,1.110000X1.470000*%
%TD*%
%TA.AperFunction,SMDPad,CuDef*%
%ADD44R,1.549400X0.609600*%
%TD*%
%TA.AperFunction,SMDPad,CuDef*%
%ADD45R,1.549400X3.251200*%
%TD*%
%TA.AperFunction,SMDPad,CuDef*%
%ADD46R,1.380000X0.920000*%
%TD*%
%TA.AperFunction,SMDPad,CuDef*%
%ADD47R,1.066800X2.489200*%
%TD*%
%TA.AperFunction,SMDPad,CuDef*%
%ADD48R,1.300000X1.500000*%
%TD*%
%TA.AperFunction,SMDPad,CuDef*%
%ADD49R,1.066800X1.397000*%
%TD*%
%TA.AperFunction,SMDPad,CuDef*%
%ADD50R,1.447800X1.117600*%
%TD*%
%TA.AperFunction,SMDPad,CuDef*%
%ADD51R,1.397000X1.066800*%
%TD*%
%TA.AperFunction,SMDPad,CuDef*%
%ADD52R,0.609600X1.320800*%
%TD*%
%TA.AperFunction,SMDPad,CuDef*%
%ADD53R,1.346200X0.965200*%
%TD*%
%TA.AperFunction,SMDPad,CuDef*%
%ADD54R,0.930000X0.890000*%
%TD*%
%TA.AperFunction,SMDPad,CuDef*%
%ADD55R,1.449997X1.305598*%
%TD*%
%TA.AperFunction,SMDPad,CuDef*%
%ADD56R,1.400000X1.100000*%
%TD*%
%TA.AperFunction,SMDPad,CuDef*%
%ADD57R,1.244600X0.939800*%
%TD*%
%TA.AperFunction,SMDPad,CuDef*%
%ADD58R,1.150000X0.600000*%
%TD*%
%TA.AperFunction,SMDPad,CuDef*%
%ADD59RoundRect,0.050000X-0.387500X-0.050000X0.387500X-0.050000X0.387500X0.050000X-0.387500X0.050000X0*%
%TD*%
%TA.AperFunction,SMDPad,CuDef*%
%ADD60RoundRect,0.050000X-0.050000X-0.387500X0.050000X-0.387500X0.050000X0.387500X-0.050000X0.387500X0*%
%TD*%
%TA.AperFunction,ComponentPad*%
%ADD61C,0.600000*%
%TD*%
%TA.AperFunction,SMDPad,CuDef*%
%ADD62RoundRect,0.144000X-1.456000X-1.456000X1.456000X-1.456000X1.456000X1.456000X-1.456000X1.456000X0*%
%TD*%
%TA.AperFunction,SMDPad,CuDef*%
%ADD63R,0.889000X0.990600*%
%TD*%
%TA.AperFunction,SMDPad,CuDef*%
%ADD64R,1.701800X0.558800*%
%TD*%
%TA.AperFunction,SMDPad,CuDef*%
%ADD65R,1.005599X1.199998*%
%TD*%
%TA.AperFunction,SMDPad,CuDef*%
%ADD66R,0.855600X1.600000*%
%TD*%
%TA.AperFunction,SMDPad,CuDef*%
%ADD67R,1.320800X0.558800*%
%TD*%
%TA.AperFunction,SMDPad,CuDef*%
%ADD68R,1.305598X1.449997*%
%TD*%
%TA.AperFunction,SMDPad,CuDef*%
%ADD69R,0.350000X0.950000*%
%TD*%
%TA.AperFunction,SMDPad,CuDef*%
%ADD70R,0.950000X0.350000*%
%TD*%
%TA.AperFunction,SMDPad,CuDef*%
%ADD71R,1.350000X0.300000*%
%TD*%
%TA.AperFunction,SMDPad,CuDef*%
%ADD72R,1.100000X3.400000*%
%TD*%
%TA.AperFunction,SMDPad,CuDef*%
%ADD73R,2.700000X1.100000*%
%TD*%
%TA.AperFunction,SMDPad,CuDef*%
%ADD74R,2.700000X1.520000*%
%TD*%
%TA.AperFunction,SMDPad,CuDef*%
%ADD75R,1.730000X2.100000*%
%TD*%
%TA.AperFunction,ComponentPad*%
%ADD76C,4.400000*%
%TD*%
%TA.AperFunction,ComponentPad*%
%ADD77C,0.800000*%
%TD*%
%TA.AperFunction,SMDPad,CuDef*%
%ADD78FreePoly0,270.000000*%
%TD*%
%TA.AperFunction,ComponentPad*%
%ADD79R,4.050000X4.050000*%
%TD*%
%TA.AperFunction,ComponentPad*%
%ADD80C,4.050000*%
%TD*%
%TA.AperFunction,ComponentPad*%
%ADD81C,2.700000*%
%TD*%
%TA.AperFunction,ComponentPad*%
%ADD82R,1.400000X1.400000*%
%TD*%
%TA.AperFunction,ComponentPad*%
%ADD83C,1.400000*%
%TD*%
%TA.AperFunction,ComponentPad*%
%ADD84C,1.700000*%
%TD*%
%TA.AperFunction,ComponentPad*%
%ADD85R,1.200000X1.200000*%
%TD*%
%TA.AperFunction,ComponentPad*%
%ADD86C,1.200000*%
%TD*%
%TA.AperFunction,ComponentPad*%
%ADD87C,1.752600*%
%TD*%
%TA.AperFunction,ComponentPad*%
%ADD88O,2.100000X1.050000*%
%TD*%
%TA.AperFunction,ComponentPad*%
%ADD89O,1.800000X0.900000*%
%TD*%
%TA.AperFunction,SMDPad,CuDef*%
%ADD90FreePoly0,90.000000*%
%TD*%
%TA.AperFunction,ViaPad*%
%ADD91C,0.600000*%
%TD*%
%TA.AperFunction,ViaPad*%
%ADD92C,0.800000*%
%TD*%
%TA.AperFunction,ViaPad*%
%ADD93C,0.500000*%
%TD*%
%TA.AperFunction,Conductor*%
%ADD94C,0.200000*%
%TD*%
%TA.AperFunction,Conductor*%
%ADD95C,0.300000*%
%TD*%
%TA.AperFunction,Conductor*%
%ADD96C,0.250000*%
%TD*%
%TA.AperFunction,Conductor*%
%ADD97C,2.000000*%
%TD*%
%TA.AperFunction,Conductor*%
%ADD98C,1.000000*%
%TD*%
%TA.AperFunction,Conductor*%
%ADD99C,0.500000*%
%TD*%
%TA.AperFunction,Conductor*%
%ADD100C,0.800000*%
%TD*%
G04 APERTURE END LIST*
D10*
%TO.P,R1,1*%
%TO.N,GND*%
X60500000Y-106900000D03*
%TO.P,R1,2*%
%TO.N,/Battery Stack Monitor/C0*%
X60500000Y-108900000D03*
%TD*%
D11*
%TO.P,H4,1,1*%
%TO.N,GND*%
X164900000Y-124900000D03*
%TD*%
D12*
%TO.P,C88,1*%
%TO.N,GND*%
X178859998Y-66200000D03*
%TO.P,C88,2*%
%TO.N,Net-(U9-VDD)*%
X180399998Y-66200000D03*
%TD*%
D13*
%TO.P,R78,1*%
%TO.N,/Battery Stack Monitor/C4*%
X71338850Y-93200000D03*
%TO.P,R78,2*%
%TO.N,Net-(U2-VC4)*%
X71338850Y-95257400D03*
%TD*%
D14*
%TO.P,R91,1*%
%TO.N,Net-(U2-PACK)*%
X89700000Y-113900000D03*
%TO.P,R91,2*%
%TO.N,+BATT*%
X89700000Y-115800000D03*
%TD*%
%TO.P,R117,1*%
%TO.N,+3V3*%
X136700000Y-111500000D03*
%TO.P,R117,2*%
%TO.N,/Microcontroller/RUN*%
X136700000Y-113400000D03*
%TD*%
D15*
%TO.P,R82,1*%
%TO.N,Net-(U2-VC9)*%
X84081450Y-99728700D03*
%TO.P,R82,2*%
%TO.N,Net-(U2-VC10)*%
X86138850Y-99728700D03*
%TD*%
D16*
%TO.P,TP17,TP*%
%TO.N,GND*%
X60700000Y-980000D03*
%TD*%
D17*
%TO.P,R46,1*%
%TO.N,Net-(Q10-E)*%
X84400000Y-65000000D03*
%TO.P,R46,2*%
%TO.N,/Battery Stack Monitor/C9*%
X82400000Y-65000000D03*
%TD*%
D10*
%TO.P,R30,1*%
%TO.N,Net-(LED6-A)*%
X67850000Y-74900000D03*
%TO.P,R30,2*%
%TO.N,Net-(Q7-E)*%
X67850000Y-72900000D03*
%TD*%
D18*
%TO.P,R3,1*%
%TO.N,Net-(LED1-K)*%
X44000000Y-70147771D03*
%TO.P,R3,2*%
%TO.N,Net-(Q2-E)*%
X44000000Y-68891971D03*
%TD*%
D19*
%TO.P,R108,1*%
%TO.N,Net-(U3-SW)*%
X121625000Y-52500300D03*
%TO.P,R108,2*%
%TO.N,Net-(C39-Pad2)*%
X121625000Y-54202100D03*
%TD*%
D10*
%TO.P,R6,1*%
%TO.N,Net-(Q2-E)*%
X60500000Y-103200000D03*
%TO.P,R6,2*%
%TO.N,/Battery Stack Monitor/C1*%
X60500000Y-105200000D03*
%TD*%
D20*
%TO.P,Z3,1,K*%
%TO.N,Net-(Q3-B)*%
X55800000Y-97100000D03*
%TO.P,Z3,2,A*%
%TO.N,Net-(Q3-E)*%
X55800000Y-95700000D03*
%TD*%
D21*
%TO.P,R37,1*%
%TO.N,/Battery Stack Monitor/C7*%
X68801800Y-63949000D03*
%TO.P,R37,2*%
%TO.N,Net-(Q8-B)*%
X67100000Y-63949000D03*
%TD*%
D22*
%TO.P,C30,1*%
%TO.N,GND*%
X104800000Y-43108400D03*
%TO.P,C30,2*%
%TO.N,+BATT*%
X104800000Y-40052798D03*
%TD*%
D23*
%TO.P,U2,1,VC15*%
%TO.N,Net-(U2-VC11)*%
X86000000Y-106024000D03*
%TO.P,U2,2,VC14*%
X85500000Y-106024000D03*
%TO.P,U2,3,VC13*%
X85000000Y-106024000D03*
%TO.P,U2,4,VC12*%
X84500000Y-106024000D03*
%TO.P,U2,5,VC11*%
X84000000Y-106024000D03*
%TO.P,U2,6,VC10*%
%TO.N,Net-(U2-VC10)*%
X83500000Y-106024000D03*
%TO.P,U2,7,VC9*%
%TO.N,Net-(U2-VC9)*%
X83000000Y-106024000D03*
%TO.P,U2,8,VC8*%
%TO.N,Net-(U2-VC8)*%
X82500000Y-106024000D03*
%TO.P,U2,9,VC7*%
%TO.N,Net-(U2-VC7)*%
X82000000Y-106024000D03*
%TO.P,U2,10,VC6*%
%TO.N,Net-(U2-VC6)*%
X81500000Y-106024000D03*
%TO.P,U2,11,VC5*%
%TO.N,Net-(U2-VC5)*%
X81000000Y-106024000D03*
%TO.P,U2,12,VC4*%
%TO.N,Net-(U2-VC4)*%
X80500000Y-106024000D03*
D24*
%TO.P,U2,13,VC3*%
%TO.N,Net-(U2-VC3)*%
X79012000Y-107512000D03*
%TO.P,U2,14,VC2*%
%TO.N,/Battery Stack Monitor/C2*%
X79012000Y-108012000D03*
%TO.P,U2,15,VC1*%
%TO.N,/Battery Stack Monitor/C1*%
X79012000Y-108512000D03*
%TO.P,U2,16,VC0*%
%TO.N,/Battery Stack Monitor/C0*%
X79012000Y-109012000D03*
%TO.P,U2,17,VSS*%
%TO.N,GND*%
X79012000Y-109512000D03*
%TO.P,U2,18,SRP*%
%TO.N,Net-(U2-SRP)*%
X79012000Y-110012000D03*
%TO.P,U2,19,NC_1*%
%TO.N,unconnected-(U2-NC_1-Pad19)*%
X79012000Y-110512000D03*
%TO.P,U2,20,SRN*%
%TO.N,Net-(U2-SRN)*%
X79012000Y-111012000D03*
%TO.P,U2,21,TS1*%
%TO.N,/Battery Stack Monitor/THERM1*%
X79012000Y-111512000D03*
%TO.P,U2,22,TS2*%
%TO.N,/Battery Stack Monitor/THERM2*%
X79012000Y-112012000D03*
%TO.P,U2,23,TS3*%
%TO.N,/Battery Stack Monitor/THERM3*%
X79012000Y-112512000D03*
%TO.P,U2,24,REG18*%
%TO.N,Net-(U2-REG18)*%
X79012000Y-113012000D03*
D23*
%TO.P,U2,25,ALERT*%
%TO.N,/Battery Stack Monitor/ALERT*%
X80500000Y-114500000D03*
%TO.P,U2,26,SCL*%
%TO.N,/Battery Stack Monitor/SPI_SCLK*%
X81000000Y-114500000D03*
%TO.P,U2,27,SDA*%
%TO.N,/Battery Stack Monitor/SPI_TX*%
X81500000Y-114500000D03*
%TO.P,U2,28,HDQ*%
%TO.N,/Battery Stack Monitor/SPI_RX*%
X82000000Y-114500000D03*
%TO.P,U2,29,CFETOFF*%
%TO.N,/Battery Stack Monitor/SPI_CS*%
X82500000Y-114500000D03*
%TO.P,U2,30,DFETOFF*%
%TO.N,/Battery Stack Monitor/THERM4*%
X83000000Y-114500000D03*
%TO.P,U2,31,DCHG*%
%TO.N,/Battery Stack Monitor/THERM5*%
X83500000Y-114500000D03*
%TO.P,U2,32,DDSG*%
%TO.N,/Battery Stack Monitor/THERM6*%
X84000000Y-114500000D03*
%TO.P,U2,33,RST_SHUT*%
%TO.N,/Battery Stack Monitor/RST_SHUT*%
X84500000Y-114500000D03*
%TO.P,U2,34,REG2*%
%TO.N,GND*%
X85000000Y-114500000D03*
%TO.P,U2,35,REG1*%
X85500000Y-114500000D03*
%TO.P,U2,36,REGIN*%
X86000000Y-114500000D03*
D24*
%TO.P,U2,37,BREG*%
X87488000Y-113012000D03*
%TO.P,U2,38,FUSE*%
X87488000Y-112512000D03*
%TO.P,U2,39,PDSG*%
%TO.N,unconnected-(U2-PDSG-Pad39)*%
X87488000Y-112012000D03*
%TO.P,U2,40,PCHG*%
%TO.N,unconnected-(U2-PCHG-Pad40)*%
X87488000Y-111512000D03*
%TO.P,U2,41,LD*%
%TO.N,GND*%
X87488000Y-111012000D03*
%TO.P,U2,42,PACK*%
%TO.N,Net-(U2-PACK)*%
X87488000Y-110512000D03*
%TO.P,U2,43,DSG*%
%TO.N,unconnected-(U2-DSG-Pad43)*%
X87488000Y-110012000D03*
%TO.P,U2,44,NC_2*%
%TO.N,unconnected-(U2-NC_2-Pad44)*%
X87488000Y-109512000D03*
%TO.P,U2,45,CHG*%
%TO.N,unconnected-(U2-CHG-Pad45)*%
X87488000Y-109012000D03*
%TO.P,U2,46,CP1*%
%TO.N,Net-(U2-BAT)*%
X87488000Y-108512000D03*
%TO.P,U2,47,BAT*%
X87488000Y-108012000D03*
%TO.P,U2,48,VC16*%
%TO.N,Net-(U1-COM)*%
X87488000Y-107512000D03*
%TD*%
D25*
%TO.P,TP3,1,1*%
%TO.N,Net-(U2-BAT)*%
X60600000Y1450000D03*
%TD*%
D26*
%TO.P,L1,1,1*%
%TO.N,Net-(U3-SW)*%
X109700000Y-50555200D03*
%TO.P,L1,2,2*%
%TO.N,+5V*%
X109700000Y-65109400D03*
%TD*%
D27*
%TO.P,C27,1*%
%TO.N,GND*%
X86754200Y-119200000D03*
%TO.P,C27,2*%
%TO.N,/Battery Stack Monitor/THERM6*%
X84900000Y-119200000D03*
%TD*%
D17*
%TO.P,R93,1*%
%TO.N,Net-(U2-SRN)*%
X70512000Y-111788000D03*
%TO.P,R93,2*%
%TO.N,GND*%
X68512000Y-111788000D03*
%TD*%
D14*
%TO.P,R116,1*%
%TO.N,/Microcontroller/QSPI_SS*%
X107600000Y-100100000D03*
%TO.P,R116,2*%
%TO.N,+3V3*%
X107600000Y-102000000D03*
%TD*%
D17*
%TO.P,R61,1*%
%TO.N,Net-(J1-Pad13)*%
X93400000Y-74600000D03*
%TO.P,R61,2*%
%TO.N,/Battery Stack Monitor/C12*%
X91400000Y-74600000D03*
%TD*%
D25*
%TO.P,TP13,1,1*%
%TO.N,+3V3*%
X72810800Y-171999200D03*
%TD*%
D18*
%TO.P,R43,1*%
%TO.N,Net-(LED9-K)*%
X44000000Y-45155800D03*
%TO.P,R43,2*%
%TO.N,Net-(Q10-E)*%
X44000000Y-43900000D03*
%TD*%
%TO.P,R28,1*%
%TO.N,Net-(LED6-K)*%
X44000000Y-54443743D03*
%TO.P,R28,2*%
%TO.N,Net-(Q7-E)*%
X44000000Y-53187943D03*
%TD*%
%TO.P,R58,1*%
%TO.N,Net-(LED12-K)*%
X32400000Y-35408038D03*
%TO.P,R58,2*%
%TO.N,Net-(J1-Pad13)*%
X32400000Y-34152238D03*
%TD*%
D25*
%TO.P,TP9,1,1*%
%TO.N,/5V Regulator/PGOOD*%
X205556500Y-76331000D03*
%TD*%
D28*
%TO.P,C34,1*%
%TO.N,GND*%
X111500000Y-42300000D03*
%TO.P,C34,2*%
%TO.N,+BATT*%
X111500000Y-40649000D03*
%TD*%
D25*
%TO.P,TP8,1,1*%
%TO.N,Net-(U3-EN)*%
X205556500Y-72781000D03*
%TD*%
D29*
%TO.P,U4,1,~{CS}*%
%TO.N,/Microcontroller/QSPI_SS*%
X106555100Y-93895000D03*
%TO.P,U4,2,DO(IO1)*%
%TO.N,/Microcontroller/QSPI_SD1*%
X106555100Y-95165000D03*
%TO.P,U4,3,IO2*%
%TO.N,/Microcontroller/QSPI_SD2*%
X106555100Y-96435000D03*
%TO.P,U4,4,GND*%
%TO.N,GND*%
X106555100Y-97705000D03*
%TO.P,U4,5,DI(IO0)*%
%TO.N,/Microcontroller/QSPI_SD0*%
X113844900Y-97705000D03*
%TO.P,U4,6,CLK*%
%TO.N,/Microcontroller/QSPI_SCLK*%
X113844900Y-96435000D03*
%TO.P,U4,7,IO3*%
%TO.N,/Microcontroller/QSPI_SD3*%
X113844900Y-95165000D03*
%TO.P,U4,8,VCC*%
%TO.N,+3V3*%
X113844900Y-93895000D03*
%TD*%
D30*
%TO.P,LED14,1,K*%
%TO.N,GND*%
X112554200Y-140000000D03*
%TO.P,LED14,2,A*%
%TO.N,Net-(LED14-A)*%
X110700000Y-140000000D03*
%TD*%
D31*
%TO.P,C61,1*%
%TO.N,+3V3*%
X114200000Y-92100000D03*
%TO.P,C61,2*%
%TO.N,GND*%
X115851000Y-92100000D03*
%TD*%
D32*
%TO.P,Q2,1,B*%
%TO.N,Net-(Q2-B)*%
X49849800Y-102100000D03*
%TO.P,Q2,2,E*%
%TO.N,Net-(Q2-E)*%
X51750200Y-102100000D03*
%TO.P,Q2,3,C*%
%TO.N,Net-(LED2-K)*%
X50800000Y-100100000D03*
%TD*%
D33*
%TO.P,C25,1*%
%TO.N,GND*%
X78300000Y-120900000D03*
%TO.P,C25,2*%
%TO.N,/Battery Stack Monitor/THERM4*%
X78300000Y-119045800D03*
%TD*%
D34*
%TO.P,LED3,1,K*%
%TO.N,Net-(LED3-K)*%
X58000000Y-93900000D03*
%TO.P,LED3,2,A*%
%TO.N,Net-(LED3-A)*%
X59800000Y-93900000D03*
%TD*%
D28*
%TO.P,C1,1*%
%TO.N,GND*%
X62700000Y-107249000D03*
%TO.P,C1,2*%
%TO.N,/Battery Stack Monitor/C0*%
X62700000Y-108900000D03*
%TD*%
D35*
%TO.P,R129,1*%
%TO.N,/External Connections and Sensing/DAC_CLK*%
X197810000Y-47410000D03*
%TO.P,R129,2*%
%TO.N,+3V3*%
X199720000Y-47410000D03*
%TD*%
D31*
%TO.P,C76,1*%
%TO.N,+3V3*%
X124400000Y-102200000D03*
%TO.P,C76,2*%
%TO.N,GND*%
X126051000Y-102200000D03*
%TD*%
D18*
%TO.P,R14,1*%
%TO.N,Net-(LED3-K)*%
X48000000Y-63955800D03*
%TO.P,R14,2*%
%TO.N,Net-(Q4-E)*%
X48000000Y-62700000D03*
%TD*%
D35*
%TO.P,R112,1*%
%TO.N,GND*%
X168210000Y-94840000D03*
%TO.P,R112,2*%
%TO.N,Net-(J3-CC1_A)*%
X166300000Y-94840000D03*
%TD*%
D36*
%TO.P,C46,1*%
%TO.N,GND*%
X95400000Y-53655200D03*
%TO.P,C46,2*%
%TO.N,+5V*%
X95400000Y-56500000D03*
%TD*%
D37*
%TO.P,R70,1*%
%TO.N,Net-(U1-S3)*%
X90600000Y-90700000D03*
%TO.P,R70,2*%
%TO.N,GND*%
X92500000Y-90700000D03*
%TD*%
%TO.P,R62,1*%
%TO.N,GND*%
X94500000Y-81500000D03*
%TO.P,R62,2*%
%TO.N,Net-(U1-~{E})*%
X92600000Y-81500000D03*
%TD*%
%TO.P,R123,1*%
%TO.N,GND*%
X135440000Y-91900000D03*
%TO.P,R123,2*%
%TO.N,/Microcontroller/GPIO27_ADC1*%
X133540000Y-91900000D03*
%TD*%
D10*
%TO.P,R15,1*%
%TO.N,Net-(LED3-A)*%
X62400000Y-94700000D03*
%TO.P,R15,2*%
%TO.N,Net-(Q4-E)*%
X62400000Y-92700000D03*
%TD*%
D38*
%TO.P,D1,1*%
%TO.N,Net-(D1-Pad1)*%
X91800000Y-114600000D03*
%TO.P,D1,2*%
%TO.N,+BATT*%
X95080000Y-114600000D03*
%TD*%
D39*
%TO.P,C37,1*%
%TO.N,GND*%
X120500000Y-49600000D03*
%TO.P,C37,2*%
%TO.N,Net-(U3-SS)*%
X120500000Y-47840000D03*
%TD*%
D40*
%TO.P,J4,1,Pin_1*%
%TO.N,+5V*%
X85560000Y-128200000D03*
D41*
%TO.P,J4,2,Pin_2*%
%TO.N,+3V3*%
X85560000Y-125660000D03*
%TO.P,J4,3,Pin_3*%
%TO.N,+5V*%
X88100000Y-128200000D03*
%TO.P,J4,4,Pin_4*%
%TO.N,+3V3*%
X88100000Y-125660000D03*
%TO.P,J4,5,Pin_5*%
%TO.N,GND*%
X90640000Y-128200000D03*
%TO.P,J4,6,Pin_6*%
X90640000Y-125660000D03*
%TO.P,J4,7,Pin_7*%
%TO.N,/Microcontroller/GPIO12*%
X93180000Y-128200000D03*
%TO.P,J4,8,Pin_8*%
%TO.N,/Microcontroller/GPIO13*%
X93180000Y-125660000D03*
%TO.P,J4,9,Pin_9*%
%TO.N,/Microcontroller/GPIO14*%
X95720000Y-128200000D03*
%TO.P,J4,10,Pin_10*%
%TO.N,/Microcontroller/GPIO15*%
X95720000Y-125660000D03*
%TO.P,J4,11,Pin_11*%
%TO.N,/Microcontroller/SWCLK*%
X98260000Y-128200000D03*
%TO.P,J4,12,Pin_12*%
%TO.N,/Microcontroller/SWD*%
X98260000Y-125660000D03*
%TO.P,J4,13,Pin_13*%
%TO.N,/Microcontroller/GPIO16*%
X100800000Y-128200000D03*
%TO.P,J4,14,Pin_14*%
%TO.N,/Microcontroller/GPIO17*%
X100800000Y-125660000D03*
%TO.P,J4,15,Pin_15*%
%TO.N,GND*%
X103340000Y-128200000D03*
%TO.P,J4,16,Pin_16*%
X103340000Y-125660000D03*
%TO.P,J4,17,Pin_17*%
%TO.N,/Microcontroller/GPIO18*%
X105880000Y-128200000D03*
%TO.P,J4,18,Pin_18*%
%TO.N,/Microcontroller/GPIO19*%
X105880000Y-125660000D03*
%TO.P,J4,19,Pin_19*%
%TO.N,/Microcontroller/GPIO20*%
X108420000Y-128200000D03*
%TO.P,J4,20,Pin_20*%
%TO.N,/Microcontroller/GPIO21*%
X108420000Y-125660000D03*
%TO.P,J4,21,Pin_21*%
%TO.N,/Microcontroller/GPIO22*%
X110960000Y-128200000D03*
%TO.P,J4,22,Pin_22*%
%TO.N,/Microcontroller/GPIO23*%
X110960000Y-125660000D03*
%TO.P,J4,23,Pin_23*%
%TO.N,/Microcontroller/GPIO24*%
X113500000Y-128200000D03*
%TO.P,J4,24,Pin_24*%
%TO.N,/Microcontroller/GPIO25*%
X113500000Y-125660000D03*
%TO.P,J4,25,Pin_25*%
%TO.N,/Microcontroller/GPIO26_ADC0*%
X116040000Y-128200000D03*
%TO.P,J4,26,Pin_26*%
%TO.N,GND*%
X116040000Y-125660000D03*
%TO.P,J4,27,Pin_27*%
X118580000Y-128200000D03*
%TO.P,J4,28,Pin_28*%
X118580000Y-125660000D03*
%TD*%
D19*
%TO.P,R130,1*%
%TO.N,+BATT*%
X156400000Y-65201800D03*
%TO.P,R130,2*%
%TO.N,Net-(CR3-Pad4)*%
X156400000Y-63500000D03*
%TD*%
D17*
%TO.P,R51,1*%
%TO.N,Net-(Q11-E)*%
X88300000Y-65800000D03*
%TO.P,R51,2*%
%TO.N,/Battery Stack Monitor/C10*%
X86300000Y-65800000D03*
%TD*%
D33*
%TO.P,C22,1*%
%TO.N,GND*%
X64100000Y-112772900D03*
%TO.P,C22,2*%
%TO.N,/Battery Stack Monitor/THERM1*%
X64100000Y-114627100D03*
%TD*%
D18*
%TO.P,R13,1*%
%TO.N,Net-(LED3-K)*%
X44000000Y-63955800D03*
%TO.P,R13,2*%
%TO.N,Net-(Q4-E)*%
X44000000Y-62700000D03*
%TD*%
D15*
%TO.P,R88,1*%
%TO.N,Net-(U2-VC3)*%
X69138850Y-99728700D03*
%TO.P,R88,2*%
%TO.N,Net-(U2-VC4)*%
X71196250Y-99728700D03*
%TD*%
D36*
%TO.P,C47,1*%
%TO.N,GND*%
X91900000Y-53655200D03*
%TO.P,C47,2*%
%TO.N,+5V*%
X91900000Y-56500000D03*
%TD*%
D42*
%TO.P,U1,1,COM*%
%TO.N,Net-(U1-COM)*%
X79549999Y-80000000D03*
%TO.P,U1,2,I7*%
%TO.N,/Battery Stack Monitor/C7*%
X79549999Y-80650001D03*
%TO.P,U1,3,I6*%
%TO.N,/Battery Stack Monitor/C6*%
X79549999Y-81300000D03*
%TO.P,U1,4,I5*%
%TO.N,/Battery Stack Monitor/C5*%
X79549999Y-81950001D03*
%TO.P,U1,5,I4*%
%TO.N,/Battery Stack Monitor/C4*%
X79549999Y-82600000D03*
%TO.P,U1,6,I3*%
%TO.N,/Battery Stack Monitor/C3*%
X79549999Y-83250001D03*
%TO.P,U1,7,I2*%
%TO.N,unconnected-(U1-I2-Pad7)*%
X79549999Y-83900000D03*
%TO.P,U1,8,I1*%
%TO.N,unconnected-(U1-I1-Pad8)*%
X79549999Y-84550001D03*
%TO.P,U1,9,I0*%
%TO.N,unconnected-(U1-I0-Pad9)*%
X79549999Y-85200000D03*
%TO.P,U1,10,S0*%
%TO.N,Net-(U1-S0)*%
X79549999Y-85850001D03*
%TO.P,U1,11,S1*%
%TO.N,Net-(U1-S1)*%
X79549999Y-86499999D03*
%TO.P,U1,12,GND*%
%TO.N,GND*%
X79549999Y-87150001D03*
%TO.P,U1,13,S3*%
%TO.N,Net-(U1-S3)*%
X86800000Y-87150001D03*
%TO.P,U1,14,S2*%
%TO.N,Net-(U1-S2)*%
X86800000Y-86499999D03*
%TO.P,U1,15,~{E}*%
%TO.N,Net-(U1-~{E})*%
X86800000Y-85850001D03*
%TO.P,U1,16,I15*%
%TO.N,unconnected-(U1-I15-Pad16)*%
X86800000Y-85200000D03*
%TO.P,U1,17,I14*%
%TO.N,unconnected-(U1-I14-Pad17)*%
X86800000Y-84550001D03*
%TO.P,U1,18,I13*%
%TO.N,unconnected-(U1-I13-Pad18)*%
X86800000Y-83900000D03*
%TO.P,U1,19,I12*%
%TO.N,/Battery Stack Monitor/C12*%
X86800000Y-83250001D03*
%TO.P,U1,20,I11*%
%TO.N,/Battery Stack Monitor/C11*%
X86800000Y-82600000D03*
%TO.P,U1,21,I10*%
%TO.N,/Battery Stack Monitor/C10*%
X86800000Y-81950001D03*
%TO.P,U1,22,I9*%
%TO.N,/Battery Stack Monitor/C9*%
X86800000Y-81300000D03*
%TO.P,U1,23,I8*%
%TO.N,/Battery Stack Monitor/C8*%
X86800000Y-80650001D03*
%TO.P,U1,24,VCC*%
%TO.N,+5V*%
X86800000Y-80000000D03*
%TD*%
D34*
%TO.P,LED2,1,K*%
%TO.N,Net-(LED2-K)*%
X55700000Y-100500000D03*
%TO.P,LED2,2,A*%
%TO.N,Net-(LED2-A)*%
X57500000Y-100500000D03*
%TD*%
D10*
%TO.P,R35,1*%
%TO.N,Net-(LED7-A)*%
X69600000Y-68300000D03*
%TO.P,R35,2*%
%TO.N,Net-(Q8-E)*%
X69600000Y-66300000D03*
%TD*%
D30*
%TO.P,LED13,1,K*%
%TO.N,GND*%
X230174300Y-82129300D03*
%TO.P,LED13,2,A*%
%TO.N,Net-(LED13-A)*%
X232028500Y-82129300D03*
%TD*%
D28*
%TO.P,C5,1*%
%TO.N,/Battery Stack Monitor/C3*%
X71300000Y-84200000D03*
%TO.P,C5,2*%
%TO.N,/Battery Stack Monitor/C4*%
X71300000Y-82549000D03*
%TD*%
D13*
%TO.P,R77,1*%
%TO.N,/Battery Stack Monitor/C5*%
X73838850Y-93200000D03*
%TO.P,R77,2*%
%TO.N,Net-(U2-VC5)*%
X73838850Y-95257400D03*
%TD*%
D28*
%TO.P,C6,1*%
%TO.N,/Battery Stack Monitor/C4*%
X73300000Y-77600000D03*
%TO.P,C6,2*%
%TO.N,/Battery Stack Monitor/C5*%
X73300000Y-75949000D03*
%TD*%
D17*
%TO.P,R41,1*%
%TO.N,Net-(Q9-E)*%
X80500000Y-65000000D03*
%TO.P,R41,2*%
%TO.N,/Battery Stack Monitor/C8*%
X78500000Y-65000000D03*
%TD*%
D43*
%TO.P,C21,1*%
%TO.N,Net-(U2-REG18)*%
X76500000Y-115200000D03*
%TO.P,C21,2*%
%TO.N,GND*%
X74700000Y-115200000D03*
%TD*%
D20*
%TO.P,Z2,1,K*%
%TO.N,Net-(Q2-B)*%
X53600000Y-103700000D03*
%TO.P,Z2,2,A*%
%TO.N,Net-(Q2-E)*%
X53600000Y-102300000D03*
%TD*%
D27*
%TO.P,C24,1*%
%TO.N,GND*%
X78654200Y-117100000D03*
%TO.P,C24,2*%
%TO.N,/Battery Stack Monitor/THERM3*%
X76800000Y-117100000D03*
%TD*%
D10*
%TO.P,R10,1*%
%TO.N,Net-(LED2-A)*%
X60100000Y-101300000D03*
%TO.P,R10,2*%
%TO.N,Net-(Q3-E)*%
X60100000Y-99300000D03*
%TD*%
D25*
%TO.P,TP15,1,1*%
%TO.N,+1V1*%
X162900000Y-156400000D03*
%TD*%
D21*
%TO.P,R2,1*%
%TO.N,/Battery Stack Monitor/C0*%
X55201800Y-110100000D03*
%TO.P,R2,2*%
%TO.N,Net-(Q1-B)*%
X53500000Y-110100000D03*
%TD*%
D25*
%TO.P,TP22,1,1*%
%TO.N,/Battery Stack Monitor/ALERT*%
X106200000Y-106300000D03*
%TD*%
D44*
%TO.P,U5,1,GND*%
%TO.N,GND*%
X144025800Y-108198700D03*
D45*
%TO.P,U5,2,VO*%
%TO.N,+3V3*%
X137574200Y-105900000D03*
D44*
X144025800Y-105900000D03*
%TO.P,U5,3,VI*%
%TO.N,Net-(Q13-S)*%
X144025800Y-103601300D03*
%TD*%
D28*
%TO.P,C7,1*%
%TO.N,/Battery Stack Monitor/C5*%
X75000000Y-71000000D03*
%TO.P,C7,2*%
%TO.N,/Battery Stack Monitor/C6*%
X75000000Y-69349000D03*
%TD*%
D18*
%TO.P,R4,1*%
%TO.N,Net-(LED1-K)*%
X48000000Y-70149914D03*
%TO.P,R4,2*%
%TO.N,Net-(Q2-E)*%
X48000000Y-68894114D03*
%TD*%
D16*
%TO.P,TP5,TP*%
%TO.N,GND*%
X55300000Y5700000D03*
%TD*%
D34*
%TO.P,LED8,1,K*%
%TO.N,Net-(LED8-K)*%
X67100000Y-61100000D03*
%TO.P,LED8,2,A*%
%TO.N,Net-(LED8-A)*%
X68900000Y-61100000D03*
%TD*%
D15*
%TO.P,R81,1*%
%TO.N,Net-(U2-VC10)*%
X86581450Y-97328700D03*
%TO.P,R81,2*%
%TO.N,Net-(U2-VC11)*%
X88638850Y-97328700D03*
%TD*%
D17*
%TO.P,R56,1*%
%TO.N,Net-(Q12-E)*%
X90800000Y-70200000D03*
%TO.P,R56,2*%
%TO.N,/Battery Stack Monitor/C11*%
X88800000Y-70200000D03*
%TD*%
D25*
%TO.P,TP11,1,1*%
%TO.N,/Microcontroller/VBUS*%
X157825800Y-152551300D03*
%TD*%
D21*
%TO.P,R32,1*%
%TO.N,/Battery Stack Monitor/C6*%
X66901800Y-70449000D03*
%TO.P,R32,2*%
%TO.N,Net-(Q7-B)*%
X65200000Y-70449000D03*
%TD*%
D34*
%TO.P,LED12,1,K*%
%TO.N,Net-(LED12-K)*%
X82649100Y-34700000D03*
%TO.P,LED12,2,A*%
%TO.N,Net-(LED12-A)*%
X84449100Y-34700000D03*
%TD*%
D46*
%TO.P,R95,1*%
%TO.N,Net-(U3-EN)*%
X106400000Y-32690000D03*
%TO.P,R95,2*%
%TO.N,+BATT*%
X106400000Y-34600000D03*
%TD*%
D35*
%TO.P,R111,1*%
%TO.N,GND*%
X168210000Y-99440000D03*
%TO.P,R111,2*%
%TO.N,Net-(J3-CC1_B)*%
X166300000Y-99440000D03*
%TD*%
D18*
%TO.P,R33,1*%
%TO.N,Net-(LED7-K)*%
X44000000Y-51347762D03*
%TO.P,R33,2*%
%TO.N,Net-(Q8-E)*%
X44000000Y-50091962D03*
%TD*%
D15*
%TO.P,R87,1*%
%TO.N,Net-(U2-VC4)*%
X71581450Y-97328700D03*
%TO.P,R87,2*%
%TO.N,Net-(U2-VC5)*%
X73638850Y-97328700D03*
%TD*%
D33*
%TO.P,C41,1*%
%TO.N,Net-(C39-Pad2)*%
X121625000Y-55975000D03*
%TO.P,C41,2*%
%TO.N,+5V*%
X121625000Y-57829200D03*
%TD*%
D20*
%TO.P,Z1,1,K*%
%TO.N,Net-(Q1-B)*%
X51500000Y-110400000D03*
%TO.P,Z1,2,A*%
%TO.N,GND*%
X51500000Y-109000000D03*
%TD*%
D28*
%TO.P,C65,1*%
%TO.N,GND*%
X117000000Y-96249000D03*
%TO.P,C65,2*%
%TO.N,+1V1*%
X117000000Y-97900000D03*
%TD*%
D13*
%TO.P,R74,1*%
%TO.N,/Battery Stack Monitor/C8*%
X81338850Y-93200000D03*
%TO.P,R74,2*%
%TO.N,Net-(U2-VC8)*%
X81338850Y-95257400D03*
%TD*%
D10*
%TO.P,R31,1*%
%TO.N,Net-(Q7-E)*%
X72800000Y-69000000D03*
%TO.P,R31,2*%
%TO.N,/Battery Stack Monitor/C6*%
X72800000Y-71000000D03*
%TD*%
D18*
%TO.P,R23,1*%
%TO.N,Net-(LED5-K)*%
X44000000Y-57539724D03*
%TO.P,R23,2*%
%TO.N,Net-(Q6-E)*%
X44000000Y-56283924D03*
%TD*%
D10*
%TO.P,R50,1*%
%TO.N,Net-(LED10-A)*%
X78500000Y-48651000D03*
%TO.P,R50,2*%
%TO.N,Net-(Q11-E)*%
X78500000Y-46651000D03*
%TD*%
D31*
%TO.P,C77,1*%
%TO.N,GND*%
X135400000Y-97600000D03*
%TO.P,C77,2*%
%TO.N,/Microcontroller/GPIO27_ADC1*%
X133749000Y-97600000D03*
%TD*%
D21*
%TO.P,R7,1*%
%TO.N,/Battery Stack Monitor/C1*%
X57301800Y-103400000D03*
%TO.P,R7,2*%
%TO.N,Net-(Q2-B)*%
X55600000Y-103400000D03*
%TD*%
D47*
%TO.P,C44,1*%
%TO.N,GND*%
X71600000Y-122500000D03*
%TO.P,C44,2*%
%TO.N,+5V*%
X68755200Y-122500000D03*
%TD*%
D48*
%TO.P,C59,1*%
%TO.N,GND*%
X115000000Y-115600000D03*
%TO.P,C59,2*%
%TO.N,/Microcontroller/XIN*%
X116900000Y-115600000D03*
%TD*%
D49*
%TO.P,C62,1*%
%TO.N,Net-(Q13-S)*%
X146400000Y-103200000D03*
%TO.P,C62,2*%
%TO.N,GND*%
X148203400Y-103200000D03*
%TD*%
D37*
%TO.P,R69,1*%
%TO.N,Net-(U1-S3)*%
X91100000Y-88400000D03*
%TO.P,R69,2*%
%TO.N,+5V*%
X93000000Y-88400000D03*
%TD*%
D13*
%TO.P,R76,1*%
%TO.N,/Battery Stack Monitor/C6*%
X76338850Y-93200000D03*
%TO.P,R76,2*%
%TO.N,Net-(U2-VC6)*%
X76338850Y-95257400D03*
%TD*%
D18*
%TO.P,R53,1*%
%TO.N,Net-(LED11-K)*%
X32400000Y-38504019D03*
%TO.P,R53,2*%
%TO.N,Net-(Q12-E)*%
X32400000Y-37248219D03*
%TD*%
D25*
%TO.P,TP33,1,1*%
%TO.N,/External Connections and Sensing/RGB_DOUT*%
X154200000Y-47600000D03*
%TD*%
D32*
%TO.P,Q1,1,B*%
%TO.N,Net-(Q1-B)*%
X47749800Y-108900000D03*
%TO.P,Q1,2,E*%
%TO.N,GND*%
X49650200Y-108900000D03*
%TO.P,Q1,3,C*%
%TO.N,Net-(LED1-K)*%
X48700000Y-106900000D03*
%TD*%
D33*
%TO.P,C26,1*%
%TO.N,GND*%
X81500000Y-117300000D03*
%TO.P,C26,2*%
%TO.N,/Battery Stack Monitor/THERM5*%
X81500000Y-119154200D03*
%TD*%
D11*
%TO.P,H1,1,1*%
%TO.N,GND*%
X59400000Y-52000000D03*
%TD*%
D18*
%TO.P,R44,1*%
%TO.N,Net-(LED9-K)*%
X48000000Y-45155800D03*
%TO.P,R44,2*%
%TO.N,Net-(Q10-E)*%
X48000000Y-43900000D03*
%TD*%
D22*
%TO.P,C29,1*%
%TO.N,GND*%
X102400000Y-43108400D03*
%TO.P,C29,2*%
%TO.N,+BATT*%
X102400000Y-40052798D03*
%TD*%
D33*
%TO.P,C39,1*%
%TO.N,Net-(U3-VSNS)*%
X123700000Y-52418700D03*
%TO.P,C39,2*%
%TO.N,Net-(C39-Pad2)*%
X123700000Y-54272900D03*
%TD*%
D28*
%TO.P,C18,1*%
%TO.N,Net-(U2-SRP)*%
X74112000Y-109788000D03*
%TO.P,C18,2*%
%TO.N,Net-(U2-SRN)*%
X74112000Y-111439000D03*
%TD*%
D19*
%TO.P,R100,1*%
%TO.N,GND*%
X122390000Y-34931300D03*
%TO.P,R100,2*%
%TO.N,Net-(R100-Pad2)*%
X122390000Y-33229500D03*
%TD*%
D34*
%TO.P,LED7,1,K*%
%TO.N,Net-(LED7-K)*%
X65200000Y-67600000D03*
%TO.P,LED7,2,A*%
%TO.N,Net-(LED7-A)*%
X67000000Y-67600000D03*
%TD*%
D13*
%TO.P,R79,1*%
%TO.N,/Battery Stack Monitor/C3*%
X68838850Y-93200000D03*
%TO.P,R79,2*%
%TO.N,Net-(U2-VC3)*%
X68838850Y-95257400D03*
%TD*%
D50*
%TO.P,C35,1*%
%TO.N,GND*%
X128070200Y-45279600D03*
%TO.P,C35,2*%
%TO.N,Net-(C35-Pad2)*%
X128070200Y-47073200D03*
%TD*%
D14*
%TO.P,R120,1*%
%TO.N,/Battery Stack Monitor/SPI_CS*%
X102800000Y-103600000D03*
%TO.P,R120,2*%
%TO.N,+3V3*%
X102800000Y-101700000D03*
%TD*%
D51*
%TO.P,C86,1*%
%TO.N,GND*%
X159400000Y-56800000D03*
%TO.P,C86,2*%
%TO.N,+5V*%
X159400000Y-54996600D03*
%TD*%
D47*
%TO.P,C52,1*%
%TO.N,GND*%
X68655200Y-37900000D03*
%TO.P,C52,2*%
%TO.N,+5V*%
X71500000Y-37900000D03*
%TD*%
D37*
%TO.P,R67,1*%
%TO.N,Net-(U1-S2)*%
X92100000Y-83800000D03*
%TO.P,R67,2*%
%TO.N,+5V*%
X94000000Y-83800000D03*
%TD*%
D25*
%TO.P,TP14,1,1*%
%TO.N,/Microcontroller/RUN*%
X162900000Y-152850000D03*
%TD*%
D34*
%TO.P,LED1,1,K*%
%TO.N,Net-(LED1-K)*%
X53600000Y-107200000D03*
%TO.P,LED1,2,A*%
%TO.N,Net-(LED1-A)*%
X55400000Y-107200000D03*
%TD*%
D12*
%TO.P,C78,1*%
%TO.N,GND*%
X135040000Y-90100000D03*
%TO.P,C78,2*%
%TO.N,/Microcontroller/GPIO27_ADC1*%
X133500000Y-90100000D03*
%TD*%
D34*
%TO.P,LED9,1,K*%
%TO.N,Net-(LED9-K)*%
X71000000Y-54300000D03*
%TO.P,LED9,2,A*%
%TO.N,Net-(LED9-A)*%
X72800000Y-54300000D03*
%TD*%
D25*
%TO.P,TP1,1,1*%
%TO.N,Net-(U1-COM)*%
X60600000Y5000000D03*
%TD*%
D11*
%TO.P,H2,1,1*%
%TO.N,GND*%
X164900000Y-35100000D03*
%TD*%
D32*
%TO.P,Q11,1,B*%
%TO.N,Net-(Q11-B)*%
X75149800Y-42800000D03*
%TO.P,Q11,2,E*%
%TO.N,Net-(Q11-E)*%
X77050200Y-42800000D03*
%TO.P,Q11,3,C*%
%TO.N,Net-(LED11-K)*%
X76100000Y-40800000D03*
%TD*%
D21*
%TO.P,R17,1*%
%TO.N,/Battery Stack Monitor/C3*%
X61151800Y-90200000D03*
%TO.P,R17,2*%
%TO.N,Net-(Q4-B)*%
X59450000Y-90200000D03*
%TD*%
D19*
%TO.P,R98,1*%
%TO.N,Net-(C35-Pad2)*%
X125970200Y-47171400D03*
%TO.P,R98,2*%
%TO.N,Net-(U3-COMP)*%
X125970200Y-48873200D03*
%TD*%
D10*
%TO.P,R45,1*%
%TO.N,Net-(LED9-A)*%
X75400000Y-55100000D03*
%TO.P,R45,2*%
%TO.N,Net-(Q10-E)*%
X75400000Y-53100000D03*
%TD*%
D21*
%TO.P,R115,1*%
%TO.N,/Microcontroller/~{USB_BOOT}*%
X103398200Y-99700000D03*
%TO.P,R115,2*%
%TO.N,/Microcontroller/QSPI_SS*%
X105100000Y-99700000D03*
%TD*%
D15*
%TO.P,R84,1*%
%TO.N,Net-(U2-VC7)*%
X79181450Y-99728700D03*
%TO.P,R84,2*%
%TO.N,Net-(U2-VC8)*%
X81238850Y-99728700D03*
%TD*%
D43*
%TO.P,C38,1*%
%TO.N,GND*%
X118400000Y-47100000D03*
%TO.P,C38,2*%
%TO.N,Net-(U3-VDRV)*%
X116600000Y-47100000D03*
%TD*%
D17*
%TO.P,R80,1*%
%TO.N,Net-(D1-Pad1)*%
X91800000Y-111900000D03*
%TO.P,R80,2*%
%TO.N,Net-(U2-BAT)*%
X89800000Y-111900000D03*
%TD*%
D28*
%TO.P,C3,1*%
%TO.N,/Battery Stack Monitor/C1*%
X64900000Y-101300000D03*
%TO.P,C3,2*%
%TO.N,/Battery Stack Monitor/C2*%
X64900000Y-99649000D03*
%TD*%
D52*
%TO.P,U9,1,VDD*%
%TO.N,Net-(U9-VDD)*%
X182999998Y-64600000D03*
%TO.P,U9,2,VOUT*%
%TO.N,/External Connections and Sensing/TEMP_CORE*%
X184900000Y-64600000D03*
%TO.P,U9,3,GND*%
%TO.N,GND*%
X183949999Y-62569600D03*
%TD*%
D10*
%TO.P,R20,1*%
%TO.N,Net-(LED4-A)*%
X64050000Y-88100000D03*
%TO.P,R20,2*%
%TO.N,Net-(Q5-E)*%
X64050000Y-86100000D03*
%TD*%
D53*
%TO.P,LED15,1,K*%
%TO.N,GND*%
X120200000Y-140300000D03*
%TO.P,LED15,2,A*%
%TO.N,Net-(LED15-A)*%
X120200000Y-138445800D03*
%TD*%
D54*
%TO.P,C67,1*%
%TO.N,GND*%
X121700000Y-98060000D03*
%TO.P,C67,2*%
%TO.N,+1V1*%
X121700000Y-99600000D03*
%TD*%
D25*
%TO.P,TP18,1,1*%
%TO.N,/Battery Stack Monitor/SPI_TX*%
X96600000Y-106300000D03*
%TD*%
D21*
%TO.P,R57,1*%
%TO.N,/Battery Stack Monitor/C11*%
X84150900Y-37800000D03*
%TO.P,R57,2*%
%TO.N,Net-(Q12-B)*%
X82449100Y-37800000D03*
%TD*%
D31*
%TO.P,C73,1*%
%TO.N,+3V3*%
X110751000Y-108200000D03*
%TO.P,C73,2*%
%TO.N,GND*%
X109100000Y-108200000D03*
%TD*%
D17*
%TO.P,R36,1*%
%TO.N,Net-(Q8-E)*%
X76600000Y-65000000D03*
%TO.P,R36,2*%
%TO.N,/Battery Stack Monitor/C7*%
X74600000Y-65000000D03*
%TD*%
D15*
%TO.P,R85,1*%
%TO.N,Net-(U2-VC6)*%
X76581450Y-97328700D03*
%TO.P,R85,2*%
%TO.N,Net-(U2-VC7)*%
X78638850Y-97328700D03*
%TD*%
D32*
%TO.P,Q3,1,B*%
%TO.N,Net-(Q3-B)*%
X52049800Y-95500000D03*
%TO.P,Q3,2,E*%
%TO.N,Net-(Q3-E)*%
X53950200Y-95500000D03*
%TO.P,Q3,3,C*%
%TO.N,Net-(LED3-K)*%
X53000000Y-93500000D03*
%TD*%
D31*
%TO.P,C12,1*%
%TO.N,/Battery Stack Monitor/C10*%
X88900000Y-72400000D03*
%TO.P,C12,2*%
%TO.N,/Battery Stack Monitor/C11*%
X90551000Y-72400000D03*
%TD*%
D19*
%TO.P,R103,1*%
%TO.N,Net-(R100-Pad2)*%
X120221800Y-33229500D03*
%TO.P,R103,2*%
%TO.N,Net-(U3-MODE)*%
X120221800Y-34931300D03*
%TD*%
D31*
%TO.P,C85,1*%
%TO.N,GND*%
X153449000Y-58900000D03*
%TO.P,C85,2*%
%TO.N,Net-(U7-VOUT)*%
X155100000Y-58900000D03*
%TD*%
D10*
%TO.P,R26,1*%
%TO.N,Net-(Q6-E)*%
X71150000Y-75600000D03*
%TO.P,R26,2*%
%TO.N,/Battery Stack Monitor/C5*%
X71150000Y-77600000D03*
%TD*%
D31*
%TO.P,C79,1*%
%TO.N,GND*%
X134451000Y-99300000D03*
%TO.P,C79,2*%
%TO.N,/Microcontroller/GPIO28_ADC2*%
X132800000Y-99300000D03*
%TD*%
D21*
%TO.P,R47,1*%
%TO.N,/Battery Stack Monitor/C9*%
X75801800Y-50900000D03*
%TO.P,R47,2*%
%TO.N,Net-(Q10-B)*%
X74100000Y-50900000D03*
%TD*%
D35*
%TO.P,R97,1*%
%TO.N,GND*%
X98632400Y-32823700D03*
%TO.P,R97,2*%
%TO.N,Net-(R96-Pad1)*%
X100542400Y-32823700D03*
%TD*%
D10*
%TO.P,R133,2*%
%TO.N,Net-(R133-Pad2)*%
X180699998Y-60600000D03*
%TO.P,R133,1*%
%TO.N,+5V*%
X180699998Y-58600000D03*
%TD*%
D25*
%TO.P,TP25,1,1*%
%TO.N,/5V Regulator/PGOOD*%
X136000000Y-68300000D03*
%TD*%
D22*
%TO.P,C31,1*%
%TO.N,GND*%
X107200000Y-43100000D03*
%TO.P,C31,2*%
%TO.N,+BATT*%
X107200000Y-40044398D03*
%TD*%
D21*
%TO.P,R12,1*%
%TO.N,/Battery Stack Monitor/C2*%
X59401800Y-96800000D03*
%TO.P,R12,2*%
%TO.N,Net-(Q3-B)*%
X57700000Y-96800000D03*
%TD*%
D32*
%TO.P,Q5,1,B*%
%TO.N,Net-(Q5-B)*%
X55700000Y-82300000D03*
%TO.P,Q5,2,E*%
%TO.N,Net-(Q5-E)*%
X57600400Y-82300000D03*
%TO.P,Q5,3,C*%
%TO.N,Net-(LED5-K)*%
X56650200Y-80300000D03*
%TD*%
D31*
%TO.P,C10,1*%
%TO.N,/Battery Stack Monitor/C8*%
X82400000Y-67200000D03*
%TO.P,C10,2*%
%TO.N,/Battery Stack Monitor/C9*%
X84051000Y-67200000D03*
%TD*%
D35*
%TO.P,R114,1*%
%TO.N,+3V3*%
X107190000Y-140000000D03*
%TO.P,R114,2*%
%TO.N,Net-(LED14-A)*%
X109100000Y-140000000D03*
%TD*%
D28*
%TO.P,C75,1*%
%TO.N,+3V3*%
X118700000Y-97900000D03*
%TO.P,C75,2*%
%TO.N,GND*%
X118700000Y-96249000D03*
%TD*%
D36*
%TO.P,C45,1*%
%TO.N,GND*%
X98900000Y-53655200D03*
%TO.P,C45,2*%
%TO.N,+5V*%
X98900000Y-56500000D03*
%TD*%
D25*
%TO.P,TP29,1,1*%
%TO.N,/External Connections and Sensing/DAC_CLK*%
X141000000Y-59400000D03*
%TD*%
D19*
%TO.P,R119,1*%
%TO.N,Net-(U6-USB_DM)*%
X120800000Y-93800000D03*
%TO.P,R119,2*%
%TO.N,/Microcontroller/USB_D-*%
X120800000Y-92098200D03*
%TD*%
D37*
%TO.P,R107,1*%
%TO.N,GND*%
X122600000Y-43400000D03*
%TO.P,R107,2*%
%TO.N,Net-(U3-VFB)*%
X120700000Y-43400000D03*
%TD*%
D14*
%TO.P,R64,1*%
%TO.N,Net-(U1-S0)*%
X75000000Y-86300000D03*
%TO.P,R64,2*%
%TO.N,GND*%
X75000000Y-84400000D03*
%TD*%
D18*
%TO.P,R9,1*%
%TO.N,Net-(LED2-K)*%
X48000000Y-67051781D03*
%TO.P,R9,2*%
%TO.N,Net-(Q3-E)*%
X48000000Y-65795981D03*
%TD*%
D31*
%TO.P,C11,1*%
%TO.N,/Battery Stack Monitor/C9*%
X86300000Y-68000000D03*
%TO.P,C11,2*%
%TO.N,/Battery Stack Monitor/C10*%
X87951000Y-68000000D03*
%TD*%
D32*
%TO.P,Q9,1,B*%
%TO.N,Net-(Q9-B)*%
X65099600Y-55800000D03*
%TO.P,Q9,2,E*%
%TO.N,Net-(Q9-E)*%
X67000000Y-55800000D03*
%TO.P,Q9,3,C*%
%TO.N,Net-(LED9-K)*%
X66049800Y-53800000D03*
%TD*%
D25*
%TO.P,TP27,1,1*%
%TO.N,/External Connections and Sensing/PIX_CLK*%
X144300000Y-114700000D03*
%TD*%
D32*
%TO.P,Q8,1,B*%
%TO.N,Net-(Q8-B)*%
X61300000Y-62500000D03*
%TO.P,Q8,2,E*%
%TO.N,Net-(Q8-E)*%
X63200400Y-62500000D03*
%TO.P,Q8,3,C*%
%TO.N,Net-(LED8-K)*%
X62250200Y-60500000D03*
%TD*%
D25*
%TO.P,TP12,1,1*%
%TO.N,Net-(Q13-S)*%
X157825800Y-163201300D03*
%TD*%
D12*
%TO.P,C87,1*%
%TO.N,GND*%
X180359998Y-80200000D03*
%TO.P,C87,2*%
%TO.N,Net-(U8-VDD)*%
X181899998Y-80200000D03*
%TD*%
D35*
%TO.P,R96,1*%
%TO.N,Net-(R96-Pad1)*%
X102232400Y-32823700D03*
%TO.P,R96,2*%
%TO.N,Net-(U3-EN)*%
X104142400Y-32823700D03*
%TD*%
D21*
%TO.P,R22,1*%
%TO.N,/Battery Stack Monitor/C4*%
X63201800Y-83600000D03*
%TO.P,R22,2*%
%TO.N,Net-(Q5-B)*%
X61500000Y-83600000D03*
%TD*%
D18*
%TO.P,R19,1*%
%TO.N,Net-(LED4-K)*%
X48000000Y-60635705D03*
%TO.P,R19,2*%
%TO.N,Net-(Q5-E)*%
X48000000Y-59379905D03*
%TD*%
D25*
%TO.P,TP21,1,1*%
%TO.N,/Battery Stack Monitor/SPI_RX*%
X100500000Y-109500000D03*
%TD*%
D18*
%TO.P,R18,1*%
%TO.N,Net-(LED4-K)*%
X44000000Y-60635705D03*
%TO.P,R18,2*%
%TO.N,Net-(Q5-E)*%
X44000000Y-59379905D03*
%TD*%
D34*
%TO.P,LED5,1,K*%
%TO.N,Net-(LED5-K)*%
X61600000Y-80600000D03*
%TO.P,LED5,2,A*%
%TO.N,Net-(LED5-A)*%
X63400000Y-80600000D03*
%TD*%
D15*
%TO.P,R89,1*%
%TO.N,/Battery Stack Monitor/C2*%
X66581450Y-97328700D03*
%TO.P,R89,2*%
%TO.N,Net-(U2-VC3)*%
X68638850Y-97328700D03*
%TD*%
D51*
%TO.P,C82,1*%
%TO.N,GND*%
X148200000Y-58900000D03*
%TO.P,C82,2*%
%TO.N,+3V3*%
X148200000Y-57096600D03*
%TD*%
D12*
%TO.P,C80,1*%
%TO.N,GND*%
X134340000Y-93600000D03*
%TO.P,C80,2*%
%TO.N,/Microcontroller/GPIO28_ADC2*%
X132800000Y-93600000D03*
%TD*%
D37*
%TO.P,R68,1*%
%TO.N,Net-(U1-S2)*%
X91600000Y-86100000D03*
%TO.P,R68,2*%
%TO.N,GND*%
X93500000Y-86100000D03*
%TD*%
D31*
%TO.P,C74,1*%
%TO.N,+3V3*%
X112400000Y-102200000D03*
%TO.P,C74,2*%
%TO.N,GND*%
X110749000Y-102200000D03*
%TD*%
D28*
%TO.P,C83,1*%
%TO.N,GND*%
X150400000Y-58651000D03*
%TO.P,C83,2*%
%TO.N,+3V3*%
X150400000Y-57000000D03*
%TD*%
D18*
%TO.P,R29,1*%
%TO.N,Net-(LED6-K)*%
X48000000Y-54443743D03*
%TO.P,R29,2*%
%TO.N,Net-(Q7-E)*%
X48000000Y-53187943D03*
%TD*%
D10*
%TO.P,R40,1*%
%TO.N,Net-(LED8-A)*%
X71500000Y-61700000D03*
%TO.P,R40,2*%
%TO.N,Net-(Q9-E)*%
X71500000Y-59700000D03*
%TD*%
%TO.P,R11,1*%
%TO.N,Net-(Q3-E)*%
X62600000Y-99300000D03*
%TO.P,R11,2*%
%TO.N,/Battery Stack Monitor/C2*%
X62600000Y-101300000D03*
%TD*%
D34*
%TO.P,LED10,1,K*%
%TO.N,Net-(LED10-K)*%
X74200000Y-47851000D03*
%TO.P,LED10,2,A*%
%TO.N,Net-(LED10-A)*%
X76000000Y-47851000D03*
%TD*%
D20*
%TO.P,Z9,1,K*%
%TO.N,Net-(Q9-B)*%
X69000000Y-57500000D03*
%TO.P,Z9,2,A*%
%TO.N,Net-(Q9-E)*%
X69000000Y-56100000D03*
%TD*%
D55*
%TO.P,C32,1*%
%TO.N,GND*%
X109600000Y-42254598D03*
%TO.P,C32,2*%
%TO.N,+BATT*%
X109600000Y-40649000D03*
%TD*%
D17*
%TO.P,R125,1*%
%TO.N,GND*%
X134800000Y-95600000D03*
%TO.P,R125,2*%
%TO.N,/Microcontroller/GPIO28_ADC2*%
X132800000Y-95600000D03*
%TD*%
D28*
%TO.P,C17,1*%
%TO.N,Net-(U2-SRP)*%
X72312000Y-109888000D03*
%TO.P,C17,2*%
%TO.N,GND*%
X72312000Y-108237000D03*
%TD*%
D21*
%TO.P,R124,1*%
%TO.N,+BATT*%
X129298200Y-95560900D03*
%TO.P,R124,2*%
%TO.N,/Microcontroller/GPIO28_ADC2*%
X131000000Y-95560900D03*
%TD*%
D25*
%TO.P,TP4,1,1*%
%TO.N,GND*%
X60335000Y-181897900D03*
%TD*%
D31*
%TO.P,C43,1*%
%TO.N,GND*%
X121000000Y-68200000D03*
%TO.P,C43,2*%
%TO.N,+5V*%
X119349000Y-68200000D03*
%TD*%
D28*
%TO.P,C33,1*%
%TO.N,GND*%
X117487400Y-35866100D03*
%TO.P,C33,2*%
%TO.N,+BATT*%
X117487400Y-37517100D03*
%TD*%
%TO.P,C81,1*%
%TO.N,GND*%
X161600000Y-46900000D03*
%TO.P,C81,2*%
%TO.N,+5V*%
X161600000Y-48551000D03*
%TD*%
D56*
%TO.P,X1,1,1*%
%TO.N,/Microcontroller/XIN*%
X116900000Y-119300000D03*
%TO.P,X1,2,2*%
%TO.N,GND*%
X119100000Y-119300000D03*
%TO.P,X1,3,3*%
%TO.N,Net-(C60-Pad2)*%
X119100000Y-117699998D03*
%TO.P,X1,4,4*%
%TO.N,GND*%
X116900000Y-117699998D03*
%TD*%
D18*
%TO.P,R39,1*%
%TO.N,Net-(LED8-K)*%
X48000000Y-48251781D03*
%TO.P,R39,2*%
%TO.N,Net-(Q9-E)*%
X48000000Y-46995981D03*
%TD*%
D11*
%TO.P,H3,1,1*%
%TO.N,GND*%
X35100000Y-124900000D03*
%TD*%
D57*
%TO.P,LED16,1,VDD*%
%TO.N,+5V*%
X149900000Y-50900000D03*
%TO.P,LED16,2,DOUT*%
%TO.N,/External Connections and Sensing/RGB_DOUT*%
X149900000Y-47600002D03*
%TO.P,LED16,3,VSS*%
%TO.N,GND*%
X145023200Y-47600002D03*
%TO.P,LED16,4,DIN*%
%TO.N,/External Connections and Sensing/RGB_DIN*%
X145023200Y-50900000D03*
%TD*%
D25*
%TO.P,TP28,1,1*%
%TO.N,/External Connections and Sensing/DAC_DAT*%
X143500000Y-55000000D03*
%TD*%
D55*
%TO.P,C19,1*%
%TO.N,Net-(U2-SRN)*%
X76212000Y-111293598D03*
%TO.P,C19,2*%
%TO.N,Net-(U2-SRP)*%
X76212000Y-109688000D03*
%TD*%
D35*
%TO.P,R104,1*%
%TO.N,GND*%
X122400000Y-40600000D03*
%TO.P,R104,2*%
%TO.N,Net-(U3-FSW)*%
X120490000Y-40600000D03*
%TD*%
D14*
%TO.P,R66,1*%
%TO.N,Net-(U1-S1)*%
X77100000Y-86300000D03*
%TO.P,R66,2*%
%TO.N,GND*%
X77100000Y-84400000D03*
%TD*%
D32*
%TO.P,Q6,1,B*%
%TO.N,Net-(Q6-B)*%
X57650000Y-75700000D03*
%TO.P,Q6,2,E*%
%TO.N,Net-(Q6-E)*%
X59550400Y-75700000D03*
%TO.P,Q6,3,C*%
%TO.N,Net-(LED6-K)*%
X58600200Y-73700000D03*
%TD*%
D37*
%TO.P,R122,1*%
%TO.N,/Microcontroller/GPIO27_ADC1*%
X132200000Y-91900000D03*
%TO.P,R122,2*%
%TO.N,+5V*%
X130300000Y-91900000D03*
%TD*%
D12*
%TO.P,C36,1*%
%TO.N,Net-(U3-VDD)*%
X120780000Y-36700000D03*
%TO.P,C36,2*%
%TO.N,GND*%
X122320000Y-36700000D03*
%TD*%
D31*
%TO.P,C9,1*%
%TO.N,/Battery Stack Monitor/C7*%
X78500000Y-67200000D03*
%TO.P,C9,2*%
%TO.N,/Battery Stack Monitor/C8*%
X80151000Y-67200000D03*
%TD*%
D10*
%TO.P,R60,1*%
%TO.N,Net-(LED12-A)*%
X87000000Y-35500000D03*
%TO.P,R60,2*%
%TO.N,Net-(J1-Pad13)*%
X87000000Y-33500000D03*
%TD*%
D28*
%TO.P,C84,1*%
%TO.N,GND*%
X157200000Y-56796600D03*
%TO.P,C84,2*%
%TO.N,+5V*%
X157200000Y-55145600D03*
%TD*%
D16*
%TO.P,TP6,TP*%
%TO.N,GND*%
X49010000Y-2948700D03*
%TD*%
D49*
%TO.P,C64,1*%
%TO.N,GND*%
X141600000Y-110900000D03*
%TO.P,C64,2*%
%TO.N,+3V3*%
X139796600Y-110900000D03*
%TD*%
D58*
%TO.P,Q13,1,G*%
%TO.N,/Microcontroller/VBUS*%
X142329200Y-99050000D03*
%TO.P,Q13,2,S*%
%TO.N,Net-(Q13-S)*%
X142329200Y-100950000D03*
%TO.P,Q13,3,D*%
%TO.N,+5V*%
X144629200Y-100000000D03*
%TD*%
D59*
%TO.P,U6,1,IOVDD*%
%TO.N,+3V3*%
X115600000Y-102762500D03*
%TO.P,U6,2,GPIO0*%
%TO.N,/Battery Stack Monitor/SPI_TX*%
X115600000Y-103162500D03*
%TO.P,U6,3,GPIO1*%
%TO.N,/Battery Stack Monitor/SPI_CS*%
X115600000Y-103562500D03*
%TO.P,U6,4,GPIO2*%
%TO.N,/Battery Stack Monitor/SPI_SCLK*%
X115600000Y-103962500D03*
%TO.P,U6,5,GPIO3*%
%TO.N,/Battery Stack Monitor/SPI_RX*%
X115600000Y-104362500D03*
%TO.P,U6,6,GPIO4*%
%TO.N,/Battery Stack Monitor/ALERT*%
X115600000Y-104762500D03*
%TO.P,U6,7,GPIO5*%
%TO.N,/Battery Stack Monitor/RST_SHUT*%
X115600000Y-105162500D03*
%TO.P,U6,8,GPIO6*%
%TO.N,/External Connections and Sensing/RGB_DIN*%
X115600000Y-105562500D03*
%TO.P,U6,9,GPIO7*%
%TO.N,/5V Regulator/PGOOD*%
X115600000Y-105962500D03*
%TO.P,U6,10,IOVDD*%
%TO.N,+3V3*%
X115600000Y-106362500D03*
%TO.P,U6,11,GPIO8*%
%TO.N,/External Connections and Sensing/PIX_DAT*%
X115600000Y-106762500D03*
%TO.P,U6,12,GPIO9*%
%TO.N,/External Connections and Sensing/PIX_CLK*%
X115600000Y-107162500D03*
%TO.P,U6,13,GPIO10*%
%TO.N,/External Connections and Sensing/DAC_DAT*%
X115600000Y-107562500D03*
%TO.P,U6,14,GPIO11*%
%TO.N,/External Connections and Sensing/DAC_CLK*%
X115600000Y-107962500D03*
D60*
%TO.P,U6,15,GPIO12*%
%TO.N,/Microcontroller/GPIO12*%
X116437500Y-108800000D03*
%TO.P,U6,16,GPIO13*%
%TO.N,/Microcontroller/GPIO13*%
X116837500Y-108800000D03*
%TO.P,U6,17,GPIO14*%
%TO.N,/Microcontroller/GPIO14*%
X117237500Y-108800000D03*
%TO.P,U6,18,GPIO15*%
%TO.N,/Microcontroller/GPIO15*%
X117637500Y-108800000D03*
%TO.P,U6,19,TESTEN*%
%TO.N,GND*%
X118037500Y-108800000D03*
%TO.P,U6,20,XIN*%
%TO.N,/Microcontroller/XIN*%
X118437500Y-108800000D03*
%TO.P,U6,21,XOUT*%
%TO.N,/Microcontroller/XOUT*%
X118837500Y-108800000D03*
%TO.P,U6,22,IOVDD*%
%TO.N,+3V3*%
X119237500Y-108800000D03*
%TO.P,U6,23,DVDD*%
%TO.N,+1V1*%
X119637500Y-108800000D03*
%TO.P,U6,24,SWCLK*%
%TO.N,/Microcontroller/SWCLK*%
X120037500Y-108800000D03*
%TO.P,U6,25,SWD*%
%TO.N,/Microcontroller/SWD*%
X120437500Y-108800000D03*
%TO.P,U6,26,RUN*%
%TO.N,/Microcontroller/RUN*%
X120837500Y-108800000D03*
%TO.P,U6,27,GPIO16*%
%TO.N,/Microcontroller/GPIO16*%
X121237500Y-108800000D03*
%TO.P,U6,28,GPIO17*%
%TO.N,/Microcontroller/GPIO17*%
X121637500Y-108800000D03*
D59*
%TO.P,U6,29,GPIO18*%
%TO.N,/Microcontroller/GPIO18*%
X122475000Y-107962500D03*
%TO.P,U6,30,GPIO19*%
%TO.N,/Microcontroller/GPIO19*%
X122475000Y-107562500D03*
%TO.P,U6,31,GPIO20*%
%TO.N,/Microcontroller/GPIO20*%
X122475000Y-107162500D03*
%TO.P,U6,32,GPIO21*%
%TO.N,/Microcontroller/GPIO21*%
X122475000Y-106762500D03*
%TO.P,U6,33,IOVDD*%
%TO.N,+3V3*%
X122475000Y-106362500D03*
%TO.P,U6,34,GPIO22*%
%TO.N,/Microcontroller/GPIO22*%
X122475000Y-105962500D03*
%TO.P,U6,35,GPIO23*%
%TO.N,/Microcontroller/GPIO23*%
X122475000Y-105562500D03*
%TO.P,U6,36,GPIO24*%
%TO.N,/Microcontroller/GPIO24*%
X122475000Y-105162500D03*
%TO.P,U6,37,GPIO25*%
%TO.N,/Microcontroller/GPIO25*%
X122475000Y-104762500D03*
%TO.P,U6,38,GPIO26_ADC0*%
%TO.N,/Microcontroller/GPIO26_ADC0*%
X122475000Y-104362500D03*
%TO.P,U6,39,GPIO27_ADC1*%
%TO.N,/Microcontroller/GPIO27_ADC1*%
X122475000Y-103962500D03*
%TO.P,U6,40,GPIO28_ADC2*%
%TO.N,/Microcontroller/GPIO28_ADC2*%
X122475000Y-103562500D03*
%TO.P,U6,41,GPIO29_ADC3*%
%TO.N,/External Connections and Sensing/TEMP_CORE*%
X122475000Y-103162500D03*
%TO.P,U6,42,IOVDD*%
%TO.N,+3V3*%
X122475000Y-102762500D03*
D60*
%TO.P,U6,43,ADC_AVDD*%
X121637500Y-101925000D03*
%TO.P,U6,44,VREG_IN*%
X121237500Y-101925000D03*
%TO.P,U6,45,VREG_VOUT*%
%TO.N,+1V1*%
X120837500Y-101925000D03*
%TO.P,U6,46,USB_DM*%
%TO.N,Net-(U6-USB_DM)*%
X120437500Y-101925000D03*
%TO.P,U6,47,USB_DP*%
%TO.N,Net-(U6-USB_DP)*%
X120037500Y-101925000D03*
%TO.P,U6,48,USB_VDD*%
%TO.N,+3V3*%
X119637500Y-101925000D03*
%TO.P,U6,49,IOVDD*%
X119237500Y-101925000D03*
%TO.P,U6,50,DVDD*%
%TO.N,+1V1*%
X118837500Y-101925000D03*
%TO.P,U6,51,QSPI_SD3*%
%TO.N,/Microcontroller/QSPI_SD3*%
X118437500Y-101925000D03*
%TO.P,U6,52,QSPI_SCLK*%
%TO.N,/Microcontroller/QSPI_SCLK*%
X118037500Y-101925000D03*
%TO.P,U6,53,QSPI_SD0*%
%TO.N,/Microcontroller/QSPI_SD0*%
X117637500Y-101925000D03*
%TO.P,U6,54,QSPI_SD2*%
%TO.N,/Microcontroller/QSPI_SD2*%
X117237500Y-101925000D03*
%TO.P,U6,55,QSPI_SD1*%
%TO.N,/Microcontroller/QSPI_SD1*%
X116837500Y-101925000D03*
%TO.P,U6,56,QSPI_SS*%
%TO.N,/Microcontroller/QSPI_SS*%
X116437500Y-101925000D03*
D61*
%TO.P,U6,57,GND*%
%TO.N,GND*%
X117762500Y-104087500D03*
X117762500Y-105362500D03*
X117762500Y-106637500D03*
X119037500Y-104087500D03*
X119037500Y-105362500D03*
D62*
X119037500Y-105362500D03*
D61*
X119037500Y-106637500D03*
X120312500Y-104087500D03*
X120312500Y-105362500D03*
X120312500Y-106637500D03*
%TD*%
D35*
%TO.P,R99,1*%
%TO.N,/5V Regulator/PGOOD*%
X125890000Y-145568700D03*
%TO.P,R99,2*%
%TO.N,+3V3*%
X127800000Y-145568700D03*
%TD*%
D16*
%TO.P,TP7,TP*%
%TO.N,GND*%
X49010000Y5231300D03*
%TD*%
D32*
%TO.P,Q4,1,B*%
%TO.N,Net-(Q4-B)*%
X53699800Y-88900000D03*
%TO.P,Q4,2,E*%
%TO.N,Net-(Q4-E)*%
X55600200Y-88900000D03*
%TO.P,Q4,3,C*%
%TO.N,Net-(LED4-K)*%
X54650000Y-86900000D03*
%TD*%
D10*
%TO.P,R55,1*%
%TO.N,Net-(LED11-A)*%
X85400000Y-42100000D03*
%TO.P,R55,2*%
%TO.N,Net-(Q12-E)*%
X85400000Y-40100000D03*
%TD*%
D21*
%TO.P,R42,1*%
%TO.N,/Battery Stack Monitor/C8*%
X72701800Y-57249000D03*
%TO.P,R42,2*%
%TO.N,Net-(Q9-B)*%
X71000000Y-57249000D03*
%TD*%
D18*
%TO.P,R54,1*%
%TO.N,Net-(LED11-K)*%
X36400000Y-38504019D03*
%TO.P,R54,2*%
%TO.N,Net-(Q12-E)*%
X36400000Y-37248219D03*
%TD*%
D52*
%TO.P,U8,1,VDD*%
%TO.N,Net-(U8-VDD)*%
X184399998Y-78700000D03*
%TO.P,U8,2,VOUT*%
%TO.N,/External Connections and Sensing/TEMP_ESC*%
X186300000Y-78700000D03*
%TO.P,U8,3,GND*%
%TO.N,GND*%
X185349999Y-76669600D03*
%TD*%
D49*
%TO.P,C63,1*%
%TO.N,GND*%
X148200000Y-105900000D03*
%TO.P,C63,2*%
%TO.N,+3V3*%
X146396600Y-105900000D03*
%TD*%
D28*
%TO.P,C4,1*%
%TO.N,/Battery Stack Monitor/C2*%
X64600000Y-97525500D03*
%TO.P,C4,2*%
%TO.N,/Battery Stack Monitor/C3*%
X64600000Y-95874500D03*
%TD*%
D25*
%TO.P,TP23,1,1*%
%TO.N,/Battery Stack Monitor/RST_SHUT*%
X104800000Y-109500000D03*
%TD*%
D21*
%TO.P,R94,1*%
%TO.N,GND*%
X86701800Y-116900000D03*
%TO.P,R94,2*%
%TO.N,/Battery Stack Monitor/RST_SHUT*%
X85000000Y-116900000D03*
%TD*%
D10*
%TO.P,R16,1*%
%TO.N,Net-(Q4-E)*%
X64900000Y-92000000D03*
%TO.P,R16,2*%
%TO.N,/Battery Stack Monitor/C3*%
X64900000Y-94000000D03*
%TD*%
D25*
%TO.P,TP31,1,1*%
%TO.N,/External Connections and Sensing/TEMP_CORE*%
X82985000Y-178397900D03*
%TD*%
D10*
%TO.P,R132,1*%
%TO.N,+5V*%
X182198197Y-72800000D03*
%TO.P,R132,2*%
%TO.N,Net-(R132-Pad2)*%
X182198197Y-74800000D03*
%TD*%
D18*
%TO.P,R49,1*%
%TO.N,Net-(LED10-K)*%
X32400000Y-41600000D03*
%TO.P,R49,2*%
%TO.N,Net-(Q11-E)*%
X32400000Y-40344200D03*
%TD*%
D35*
%TO.P,R128,1*%
%TO.N,/External Connections and Sensing/DAC_DAT*%
X197810000Y-44480000D03*
%TO.P,R128,2*%
%TO.N,+3V3*%
X199720000Y-44480000D03*
%TD*%
D19*
%TO.P,R113,1*%
%TO.N,Net-(C60-Pad2)*%
X118800000Y-113600000D03*
%TO.P,R113,2*%
%TO.N,/Microcontroller/XOUT*%
X118800000Y-111898200D03*
%TD*%
D18*
%TO.P,R59,1*%
%TO.N,Net-(LED12-K)*%
X36400000Y-35408038D03*
%TO.P,R59,2*%
%TO.N,Net-(J1-Pad13)*%
X36400000Y-34152238D03*
%TD*%
D14*
%TO.P,R63,1*%
%TO.N,Net-(U1-S0)*%
X75000000Y-87600000D03*
%TO.P,R63,2*%
%TO.N,+5V*%
X75000000Y-89500000D03*
%TD*%
D33*
%TO.P,C23,1*%
%TO.N,GND*%
X66400000Y-113700000D03*
%TO.P,C23,2*%
%TO.N,/Battery Stack Monitor/THERM2*%
X66400000Y-115554200D03*
%TD*%
D63*
%TO.P,SW2,1,1*%
%TO.N,/Microcontroller/RUN*%
X130900000Y-113400000D03*
%TO.P,SW2,2,2*%
X134999996Y-113400000D03*
%TO.P,SW2,3,3*%
%TO.N,GND*%
X130900000Y-115000002D03*
%TO.P,SW2,4,4*%
X134999996Y-115000002D03*
D64*
%TO.P,SW2,5,5*%
X132949998Y-112775000D03*
%TD*%
D65*
%TO.P,R101,1*%
%TO.N,GND*%
X122395598Y-38531300D03*
%TO.P,R101,2*%
%TO.N,Net-(U3-ILIMIT)*%
X120690000Y-38531300D03*
%TD*%
D15*
%TO.P,R86,1*%
%TO.N,Net-(U2-VC5)*%
X74181450Y-99728700D03*
%TO.P,R86,2*%
%TO.N,Net-(U2-VC6)*%
X76238850Y-99728700D03*
%TD*%
D25*
%TO.P,TP19,1,1*%
%TO.N,/Battery Stack Monitor/SPI_CS*%
X96600000Y-109500000D03*
%TD*%
D34*
%TO.P,LED6,1,K*%
%TO.N,Net-(LED6-K)*%
X63450000Y-74100000D03*
%TO.P,LED6,2,A*%
%TO.N,Net-(LED6-A)*%
X65250000Y-74100000D03*
%TD*%
D25*
%TO.P,TP30,1,1*%
%TO.N,/External Connections and Sensing/TEMP_ESC*%
X82985000Y-175347900D03*
%TD*%
D47*
%TO.P,C58,1*%
%TO.N,GND*%
X131355200Y-37600000D03*
%TO.P,C58,2*%
%TO.N,+5V*%
X134200000Y-37600000D03*
%TD*%
D20*
%TO.P,Z6,1,K*%
%TO.N,Net-(Q6-B)*%
X61450000Y-77300000D03*
%TO.P,Z6,2,A*%
%TO.N,Net-(Q6-E)*%
X61450000Y-75900000D03*
%TD*%
D17*
%TO.P,R90,1*%
%TO.N,Net-(U2-SRP)*%
X70512000Y-109388000D03*
%TO.P,R90,2*%
%TO.N,/Battery Stack Monitor/-BATT*%
X68512000Y-109388000D03*
%TD*%
D13*
%TO.P,R102,1*%
%TO.N,Net-(U3-VDD)*%
X126100000Y-54457400D03*
%TO.P,R102,2*%
%TO.N,Net-(U3-ULTRASONIC)*%
X126100000Y-52400000D03*
%TD*%
D35*
%TO.P,R127,1*%
%TO.N,/External Connections and Sensing/PIX_DAT*%
X197810000Y-38620000D03*
%TO.P,R127,2*%
%TO.N,+3V3*%
X199720000Y-38620000D03*
%TD*%
D19*
%TO.P,R118,1*%
%TO.N,Net-(U6-USB_DP)*%
X118700000Y-93800000D03*
%TO.P,R118,2*%
%TO.N,/Microcontroller/USB_D+*%
X118700000Y-92098200D03*
%TD*%
D28*
%TO.P,C20,1*%
%TO.N,Net-(U2-SRN)*%
X72312000Y-111288000D03*
%TO.P,C20,2*%
%TO.N,GND*%
X72312000Y-112939000D03*
%TD*%
D18*
%TO.P,R48,1*%
%TO.N,Net-(LED10-K)*%
X36400000Y-41600000D03*
%TO.P,R48,2*%
%TO.N,Net-(Q11-E)*%
X36400000Y-40344200D03*
%TD*%
D20*
%TO.P,Z11,1,K*%
%TO.N,Net-(Q11-B)*%
X79000000Y-44500000D03*
%TO.P,Z11,2,A*%
%TO.N,Net-(Q11-E)*%
X79000000Y-43100000D03*
%TD*%
D48*
%TO.P,C60,1*%
%TO.N,GND*%
X121000000Y-115600000D03*
%TO.P,C60,2*%
%TO.N,Net-(C60-Pad2)*%
X119100000Y-115600000D03*
%TD*%
D19*
%TO.P,R110,1*%
%TO.N,Net-(U3-VFB)*%
X124025000Y-47173200D03*
%TO.P,R110,2*%
%TO.N,+5V*%
X124025000Y-48875000D03*
%TD*%
D32*
%TO.P,Q7,1,B*%
%TO.N,Net-(Q7-B)*%
X59400000Y-69100000D03*
%TO.P,Q7,2,E*%
%TO.N,Net-(Q7-E)*%
X61300400Y-69100000D03*
%TO.P,Q7,3,C*%
%TO.N,Net-(LED7-K)*%
X60350200Y-67100000D03*
%TD*%
D28*
%TO.P,C14,1*%
%TO.N,GND*%
X86800000Y-76649000D03*
%TO.P,C14,2*%
%TO.N,+5V*%
X86800000Y-78300000D03*
%TD*%
D10*
%TO.P,R5,1*%
%TO.N,Net-(LED1-A)*%
X58000000Y-108000000D03*
%TO.P,R5,2*%
%TO.N,Net-(Q2-E)*%
X58000000Y-106000000D03*
%TD*%
D21*
%TO.P,R52,1*%
%TO.N,/Battery Stack Monitor/C10*%
X82701800Y-44349000D03*
%TO.P,R52,2*%
%TO.N,Net-(Q11-B)*%
X81000000Y-44349000D03*
%TD*%
D66*
%TO.P,C15,1*%
%TO.N,GND*%
X92855602Y-109300000D03*
%TO.P,C15,2*%
%TO.N,Net-(U2-BAT)*%
X89800000Y-109300000D03*
%TD*%
D18*
%TO.P,R38,1*%
%TO.N,Net-(LED8-K)*%
X44000000Y-48251781D03*
%TO.P,R38,2*%
%TO.N,Net-(Q9-E)*%
X44000000Y-46995981D03*
%TD*%
D16*
%TO.P,TP2,TP*%
%TO.N,/Battery Stack Monitor/-BATT*%
X55300000Y1610000D03*
%TD*%
D35*
%TO.P,R126,1*%
%TO.N,/External Connections and Sensing/PIX_CLK*%
X197810000Y-41550000D03*
%TO.P,R126,2*%
%TO.N,+3V3*%
X199720000Y-41550000D03*
%TD*%
D25*
%TO.P,TP20,1,1*%
%TO.N,/Battery Stack Monitor/SPI_SCLK*%
X101600000Y-106300000D03*
%TD*%
D67*
%TO.P,U7,1,VOUT*%
%TO.N,Net-(U7-VOUT)*%
X155100000Y-56850001D03*
%TO.P,U7,2,VSS*%
%TO.N,GND*%
X155100000Y-55900000D03*
%TO.P,U7,3,VDD*%
%TO.N,+5V*%
X155100000Y-54949999D03*
%TO.P,U7,4,SDA*%
%TO.N,/External Connections and Sensing/DAC_DAT*%
X152509200Y-54949999D03*
%TO.P,U7,5,SCL*%
%TO.N,/External Connections and Sensing/DAC_CLK*%
X152509200Y-55900000D03*
%TO.P,U7,6,VREF*%
%TO.N,+3V3*%
X152509200Y-56850001D03*
%TD*%
D25*
%TO.P,TP24,1,1*%
%TO.N,/External Connections and Sensing/RGB_DIN*%
X137600000Y-58200000D03*
%TD*%
%TO.P,TP32,1,1*%
%TO.N,+BATT*%
X320200000Y-162200000D03*
%TD*%
D68*
%TO.P,C16,1*%
%TO.N,GND*%
X91605598Y-106800000D03*
%TO.P,C16,2*%
%TO.N,Net-(U2-BAT)*%
X90000000Y-106800000D03*
%TD*%
D28*
%TO.P,C40,1*%
%TO.N,Net-(C40-Pad1)*%
X113597400Y-36140600D03*
%TO.P,C40,2*%
%TO.N,Net-(U3-PHASE)*%
X113597400Y-37791600D03*
%TD*%
D13*
%TO.P,R75,1*%
%TO.N,/Battery Stack Monitor/C7*%
X78838850Y-93200000D03*
%TO.P,R75,2*%
%TO.N,Net-(U2-VC7)*%
X78838850Y-95257400D03*
%TD*%
D32*
%TO.P,Q10,1,B*%
%TO.N,Net-(Q10-B)*%
X68300000Y-49351000D03*
%TO.P,Q10,2,E*%
%TO.N,Net-(Q10-E)*%
X70200400Y-49351000D03*
%TO.P,Q10,3,C*%
%TO.N,Net-(LED10-K)*%
X69250200Y-47351000D03*
%TD*%
D13*
%TO.P,R71,1*%
%TO.N,/Battery Stack Monitor/C11*%
X88838850Y-93200000D03*
%TO.P,R71,2*%
%TO.N,Net-(U2-VC11)*%
X88838850Y-95257400D03*
%TD*%
D35*
%TO.P,R106,1*%
%TO.N,Net-(LED13-A)*%
X221426500Y-78916000D03*
%TO.P,R106,2*%
%TO.N,+5V*%
X223336500Y-78916000D03*
%TD*%
D18*
%TO.P,R34,1*%
%TO.N,Net-(LED7-K)*%
X48000000Y-51347762D03*
%TO.P,R34,2*%
%TO.N,Net-(Q8-E)*%
X48000000Y-50091962D03*
%TD*%
D12*
%TO.P,C72,1*%
%TO.N,GND*%
X125940000Y-100500000D03*
%TO.P,C72,2*%
%TO.N,+3V3*%
X124400000Y-100500000D03*
%TD*%
D10*
%TO.P,R134,1*%
%TO.N,Net-(R132-Pad2)*%
X182199996Y-76500000D03*
%TO.P,R134,2*%
%TO.N,Net-(U8-VDD)*%
X182199996Y-78500000D03*
%TD*%
%TO.P,R21,1*%
%TO.N,Net-(Q5-E)*%
X69100000Y-82200000D03*
%TO.P,R21,2*%
%TO.N,/Battery Stack Monitor/C4*%
X69100000Y-84200000D03*
%TD*%
D18*
%TO.P,R8,1*%
%TO.N,Net-(LED2-K)*%
X44000000Y-67051781D03*
%TO.P,R8,2*%
%TO.N,Net-(Q3-E)*%
X44000000Y-65795981D03*
%TD*%
D47*
%TO.P,C48,1*%
%TO.N,GND*%
X134222400Y-122300000D03*
%TO.P,C48,2*%
%TO.N,+5V*%
X131377600Y-122300000D03*
%TD*%
D20*
%TO.P,Z10,1,K*%
%TO.N,Net-(Q10-B)*%
X72100000Y-51051000D03*
%TO.P,Z10,2,A*%
%TO.N,Net-(Q10-E)*%
X72100000Y-49651000D03*
%TD*%
D17*
%TO.P,R131,1*%
%TO.N,GND*%
X154400000Y-61200000D03*
%TO.P,R131,2*%
%TO.N,Net-(CR3-Pad4)*%
X156400000Y-61200000D03*
%TD*%
D63*
%TO.P,SW1,1,1*%
%TO.N,/Microcontroller/~{USB_BOOT}*%
X96900004Y-99499998D03*
%TO.P,SW1,2,2*%
X101000000Y-99499998D03*
%TO.P,SW1,3,3*%
%TO.N,GND*%
X96900004Y-101100000D03*
%TO.P,SW1,4,4*%
X101000000Y-101100000D03*
D64*
%TO.P,SW1,5,5*%
X98950002Y-98874998D03*
%TD*%
D69*
%TO.P,U3,1,VCIN*%
%TO.N,+BATT*%
X117272400Y-39266600D03*
%TO.P,U3,2,PGOOD*%
%TO.N,/5V Regulator/PGOOD*%
X116622400Y-39266600D03*
%TO.P,U3,3,EN*%
%TO.N,Net-(U3-EN)*%
X115972400Y-39266600D03*
%TO.P,U3,4,BOOT*%
%TO.N,Net-(U3-BOOT)*%
X115322400Y-39266600D03*
%TO.P,U3,5,PHASE*%
%TO.N,Net-(U3-PHASE)*%
X114322400Y-39266600D03*
%TO.P,U3,6,PHASE__1*%
X113822400Y-39266600D03*
D70*
%TO.P,U3,7,VIN*%
%TO.N,+BATT*%
X113047400Y-40271600D03*
%TO.P,U3,8,VIN__1*%
X113047400Y-40921600D03*
%TO.P,U3,9,PGND*%
%TO.N,GND*%
X113047400Y-42051600D03*
%TO.P,U3,10,PGND__1*%
X113047400Y-42551600D03*
%TO.P,U3,11,PGND__2*%
X113047400Y-43051600D03*
D69*
%TO.P,U3,12,SW*%
%TO.N,Net-(U3-SW)*%
X113672400Y-44316600D03*
%TO.P,U3,13,SW__1*%
X114172400Y-44316600D03*
%TO.P,U3,14,SW__2*%
X114672400Y-44316600D03*
D71*
%TO.P,U3,14.1,SW__3*%
X114172400Y-43991600D03*
D69*
%TO.P,U3,15,GL*%
%TO.N,unconnected-(U3-GL-Pad15)*%
X115322400Y-44316600D03*
%TO.P,U3,16,VDRV*%
%TO.N,Net-(U3-VDRV)*%
X115822400Y-44316600D03*
%TO.P,U3,17,PGND__3*%
%TO.N,GND*%
X116322400Y-44316600D03*
%TO.P,U3,18,ULTRASONIC*%
%TO.N,Net-(U3-ULTRASONIC)*%
X116822400Y-44316600D03*
%TO.P,U3,19,SS*%
%TO.N,Net-(U3-SS)*%
X117322400Y-44316600D03*
D70*
%TO.P,U3,20,VSNS*%
%TO.N,Net-(U3-VSNS)*%
X118097400Y-43541600D03*
%TO.P,U3,21,COMP*%
%TO.N,Net-(U3-COMP)*%
X118097400Y-43041600D03*
%TO.P,U3,22,VFB*%
%TO.N,Net-(U3-VFB)*%
X118097400Y-42541600D03*
%TO.P,U3,23,AGND*%
%TO.N,GND*%
X118097400Y-42041600D03*
%TO.P,U3,24,FSW*%
%TO.N,Net-(U3-FSW)*%
X118097400Y-41541600D03*
%TO.P,U3,25,ILIMIT*%
%TO.N,Net-(U3-ILIMIT)*%
X118097400Y-41041600D03*
%TO.P,U3,26,VDD*%
%TO.N,Net-(U3-VDD)*%
X118097400Y-40541600D03*
%TO.P,U3,27,MODE*%
%TO.N,Net-(U3-MODE)*%
X118097400Y-40041600D03*
D72*
%TO.P,U3,28,AGND__1*%
%TO.N,GND*%
X116772400Y-41791600D03*
D73*
%TO.P,U3,29,VIN__2*%
%TO.N,+BATT*%
X114572400Y-40591600D03*
D74*
%TO.P,U3,30.1,PGND__4*%
%TO.N,GND*%
X114572400Y-42201600D03*
D75*
%TO.P,U3,30.2,PGND__5*%
X114087400Y-42491600D03*
%TD*%
D28*
%TO.P,C2,1*%
%TO.N,/Battery Stack Monitor/C1*%
X62800000Y-103549000D03*
%TO.P,C2,2*%
%TO.N,/Battery Stack Monitor/C0*%
X62800000Y-105200000D03*
%TD*%
D10*
%TO.P,R25,1*%
%TO.N,Net-(LED5-A)*%
X66000000Y-81500000D03*
%TO.P,R25,2*%
%TO.N,Net-(Q6-E)*%
X66000000Y-79500000D03*
%TD*%
D31*
%TO.P,C13,1*%
%TO.N,/Battery Stack Monitor/C11*%
X91400000Y-76800000D03*
%TO.P,C13,2*%
%TO.N,/Battery Stack Monitor/C12*%
X93051000Y-76800000D03*
%TD*%
D10*
%TO.P,R135,1*%
%TO.N,Net-(R133-Pad2)*%
X180699998Y-62400000D03*
%TO.P,R135,2*%
%TO.N,Net-(U9-VDD)*%
X180699998Y-64400000D03*
%TD*%
D25*
%TO.P,TP10,1,1*%
%TO.N,+5V*%
X205556500Y-79881000D03*
%TD*%
D32*
%TO.P,Q12,1,B*%
%TO.N,Net-(Q12-B)*%
X76548700Y-36175300D03*
%TO.P,Q12,2,E*%
%TO.N,Net-(Q12-E)*%
X78449100Y-36175300D03*
%TO.P,Q12,3,C*%
%TO.N,Net-(LED12-K)*%
X77498900Y-34175300D03*
%TD*%
D25*
%TO.P,TP26,1,1*%
%TO.N,/External Connections and Sensing/PIX_DAT*%
X147800000Y-113500000D03*
%TD*%
D18*
%TO.P,R24,1*%
%TO.N,Net-(LED5-K)*%
X48000000Y-57539724D03*
%TO.P,R24,2*%
%TO.N,Net-(Q6-E)*%
X48000000Y-56283924D03*
%TD*%
D34*
%TO.P,LED11,1,K*%
%TO.N,Net-(LED11-K)*%
X81000000Y-41300000D03*
%TO.P,LED11,2,A*%
%TO.N,Net-(LED11-A)*%
X82800000Y-41300000D03*
%TD*%
D13*
%TO.P,R72,1*%
%TO.N,/Battery Stack Monitor/C10*%
X86338850Y-93200000D03*
%TO.P,R72,2*%
%TO.N,Net-(U2-VC10)*%
X86338850Y-95257400D03*
%TD*%
D20*
%TO.P,Z7,1,K*%
%TO.N,Net-(Q7-B)*%
X63200000Y-70800000D03*
%TO.P,Z7,2,A*%
%TO.N,Net-(Q7-E)*%
X63200000Y-69400000D03*
%TD*%
%TO.P,Z8,1,K*%
%TO.N,Net-(Q8-B)*%
X65100000Y-64300000D03*
%TO.P,Z8,2,A*%
%TO.N,Net-(Q8-E)*%
X65100000Y-62900000D03*
%TD*%
D54*
%TO.P,R105,1*%
%TO.N,Net-(U3-BOOT)*%
X115097400Y-37791600D03*
%TO.P,R105,2*%
%TO.N,Net-(C40-Pad1)*%
X115097400Y-36163600D03*
%TD*%
D15*
%TO.P,R83,1*%
%TO.N,Net-(U2-VC8)*%
X81581450Y-97328700D03*
%TO.P,R83,2*%
%TO.N,Net-(U2-VC9)*%
X83638850Y-97328700D03*
%TD*%
D21*
%TO.P,R27,1*%
%TO.N,/Battery Stack Monitor/C5*%
X65151800Y-77000000D03*
%TO.P,R27,2*%
%TO.N,Net-(Q6-B)*%
X63450000Y-77000000D03*
%TD*%
D14*
%TO.P,R65,1*%
%TO.N,Net-(U1-S1)*%
X77100000Y-87600000D03*
%TO.P,R65,2*%
%TO.N,+5V*%
X77100000Y-89500000D03*
%TD*%
D31*
%TO.P,C8,1*%
%TO.N,/Battery Stack Monitor/C6*%
X74600000Y-67200000D03*
%TO.P,C8,2*%
%TO.N,/Battery Stack Monitor/C7*%
X76251000Y-67200000D03*
%TD*%
D13*
%TO.P,R73,1*%
%TO.N,/Battery Stack Monitor/C9*%
X83838850Y-93200000D03*
%TO.P,R73,2*%
%TO.N,Net-(U2-VC9)*%
X83838850Y-95257400D03*
%TD*%
D34*
%TO.P,LED4,1,K*%
%TO.N,Net-(LED4-K)*%
X59650000Y-87300000D03*
%TO.P,LED4,2,A*%
%TO.N,Net-(LED4-A)*%
X61450000Y-87300000D03*
%TD*%
D20*
%TO.P,Z12,1,K*%
%TO.N,Net-(Q12-B)*%
X80500000Y-37900000D03*
%TO.P,Z12,2,A*%
%TO.N,Net-(Q12-E)*%
X80500000Y-36500000D03*
%TD*%
D25*
%TO.P,TP16,1,1*%
%TO.N,+3V3*%
X162900000Y-159950000D03*
%TD*%
D20*
%TO.P,Z5,1,K*%
%TO.N,Net-(Q5-B)*%
X59500000Y-83800000D03*
%TO.P,Z5,2,A*%
%TO.N,Net-(Q5-E)*%
X59500000Y-82400000D03*
%TD*%
%TO.P,Z4,1,K*%
%TO.N,Net-(Q4-B)*%
X57450000Y-90500000D03*
%TO.P,Z4,2,A*%
%TO.N,Net-(Q4-E)*%
X57450000Y-89100000D03*
%TD*%
D17*
%TO.P,R121,1*%
%TO.N,/Microcontroller/GPIO25*%
X115900000Y-137445800D03*
%TO.P,R121,2*%
%TO.N,Net-(LED15-A)*%
X117900000Y-137445800D03*
%TD*%
D38*
%TO.P,D2,1*%
%TO.N,Net-(Q13-S)*%
X139760000Y-96200000D03*
%TO.P,D2,2*%
%TO.N,/Microcontroller/VBUS*%
X143040000Y-96200000D03*
%TD*%
D76*
%TO.P,MP3,*%
%TO.N,*%
X94000000Y-95300000D03*
%TD*%
D77*
%TO.P,J6,1,1*%
%TO.N,/Battery Stack Monitor/-BATT*%
X34000000Y-71600000D03*
X32600000Y-71600000D03*
X31200000Y-71600000D03*
X35400000Y-72300000D03*
X34000000Y-73000000D03*
X32600000Y-73000000D03*
X31200000Y-73000000D03*
X36800000Y-73700000D03*
X35400000Y-73700000D03*
X34000000Y-74400000D03*
D78*
X33950000Y-74400000D03*
D77*
X32600000Y-74400000D03*
X31200000Y-74400000D03*
X36800000Y-75100000D03*
X35400000Y-75100000D03*
X34000000Y-75800000D03*
X32600000Y-75800000D03*
X31200000Y-75800000D03*
D79*
X46900000Y-76400000D03*
D77*
X35400000Y-76500000D03*
X34000000Y-77200000D03*
X32600000Y-77200000D03*
X31200000Y-77200000D03*
%TO.P,J6,2,2*%
%TO.N,+BATT*%
X34000000Y-82800000D03*
X32600000Y-82800000D03*
X31200000Y-82800000D03*
X35400000Y-83500000D03*
D80*
X46900000Y-83600000D03*
D77*
X34000000Y-84200000D03*
X32600000Y-84200000D03*
X31200000Y-84200000D03*
X36800000Y-84900000D03*
X35400000Y-84900000D03*
X34000000Y-85600000D03*
D78*
X33950000Y-85600000D03*
D77*
X32600000Y-85600000D03*
X31200000Y-85600000D03*
X36800000Y-86300000D03*
X35400000Y-86300000D03*
X34000000Y-87000000D03*
X32600000Y-87000000D03*
X31200000Y-87000000D03*
X35400000Y-87700000D03*
X34000000Y-88400000D03*
X32600000Y-88400000D03*
X31200000Y-88400000D03*
D81*
%TO.P,J6,3,3*%
%TO.N,unconnected-(J6-Pad3)*%
X40900000Y-86750000D03*
%TO.P,J6,4,4*%
%TO.N,unconnected-(J6-Pad4)*%
X40900000Y-73250000D03*
%TD*%
D79*
%TO.P,J9,1,1*%
%TO.N,+BATT*%
X145500000Y-121257500D03*
D80*
%TO.P,J9,2,2*%
%TO.N,GND*%
X152700000Y-121257500D03*
D81*
%TO.P,J9,3,MH1*%
%TO.N,unconnected-(J9-MH1-Pad3)*%
X142350000Y-127257500D03*
%TO.P,J9,4,MH2*%
%TO.N,unconnected-(J9-MH2-Pad4)*%
X155850000Y-127257500D03*
%TD*%
D82*
%TO.P,J1,1,1*%
%TO.N,GND*%
X39400000Y-65447762D03*
D83*
%TO.P,J1,2,2*%
%TO.N,Net-(Q2-E)*%
X39400000Y-62947762D03*
%TO.P,J1,3,3*%
%TO.N,Net-(Q3-E)*%
X39400000Y-60447762D03*
%TO.P,J1,4,4*%
%TO.N,Net-(Q4-E)*%
X39400000Y-57947762D03*
%TO.P,J1,5,5*%
%TO.N,Net-(Q5-E)*%
X39400000Y-55447762D03*
%TO.P,J1,6,6*%
%TO.N,Net-(Q6-E)*%
X39400000Y-52947762D03*
%TO.P,J1,7,7*%
%TO.N,Net-(Q7-E)*%
X39400000Y-50447762D03*
%TO.P,J1,8,8*%
%TO.N,Net-(Q8-E)*%
X39400000Y-47947762D03*
%TO.P,J1,9,9*%
%TO.N,Net-(Q9-E)*%
X39400000Y-45447762D03*
%TO.P,J1,10,10*%
%TO.N,Net-(Q10-E)*%
X39400000Y-42947762D03*
%TO.P,J1,11,11*%
%TO.N,Net-(Q11-E)*%
X39400000Y-40447762D03*
%TO.P,J1,12,12*%
%TO.N,Net-(Q12-E)*%
X39400000Y-37947762D03*
%TO.P,J1,13,13*%
%TO.N,Net-(J1-Pad13)*%
X39400000Y-35447762D03*
%TD*%
D76*
%TO.P,MP4,*%
%TO.N,*%
X124500000Y-95300000D03*
%TD*%
D40*
%TO.P,J10,1,1*%
%TO.N,+5V*%
X159520000Y-50200000D03*
D84*
%TO.P,J10,2,2*%
%TO.N,/External Connections and Sensing/RGB_DOUT*%
X159520000Y-47700000D03*
%TO.P,J10,3,3*%
%TO.N,GND*%
X159520000Y-45200000D03*
%TD*%
D85*
%TO.P,C28,1,P*%
%TO.N,+BATT*%
X100200000Y-39108400D03*
D86*
%TO.P,C28,2,N*%
%TO.N,GND*%
X100200000Y-44108400D03*
%TD*%
D87*
%TO.P,J2,1,1*%
%TO.N,/Battery Stack Monitor/THERM1*%
X42958098Y-102683400D03*
%TO.P,J2,2,2*%
%TO.N,/Battery Stack Monitor/THERM2*%
X42958098Y-105183400D03*
%TO.P,J2,3,3*%
%TO.N,/Battery Stack Monitor/THERM3*%
X42958098Y-107683400D03*
%TO.P,J2,4,4*%
%TO.N,/Battery Stack Monitor/THERM4*%
X42958098Y-110183400D03*
%TO.P,J2,5,5*%
%TO.N,/Battery Stack Monitor/THERM5*%
X40458098Y-102683400D03*
%TO.P,J2,6,6*%
%TO.N,/Battery Stack Monitor/THERM6*%
X40458098Y-105183400D03*
%TO.P,J2,7,7*%
%TO.N,GND*%
X40458098Y-107683400D03*
%TO.P,J2,8,8*%
X40458098Y-110183400D03*
%TD*%
D40*
%TO.P,J15,1,1*%
%TO.N,+5V*%
X68900000Y-119520000D03*
D84*
%TO.P,J15,2,2*%
%TO.N,GND*%
X71400000Y-119520000D03*
%TD*%
D76*
%TO.P,MP2,*%
%TO.N,*%
X124500000Y-64800000D03*
%TD*%
D40*
%TO.P,J13,1,1*%
%TO.N,+5V*%
X71400000Y-40480000D03*
D84*
%TO.P,J13,2,2*%
%TO.N,GND*%
X68900000Y-40480000D03*
%TD*%
D76*
%TO.P,MP1,*%
%TO.N,*%
X94000000Y-64800000D03*
%TD*%
D88*
%TO.P,J3,SH1,SHIELD*%
%TO.N,GND*%
X163320000Y-92900000D03*
%TO.P,J3,SH2,SHIELD__1*%
X163320000Y-101540000D03*
D89*
%TO.P,J3,SH3,SHIELD__2*%
X167500000Y-92900000D03*
%TO.P,J3,SH4,SHIELD__3*%
X167500000Y-101540000D03*
%TD*%
D79*
%TO.P,J7,1,1*%
%TO.N,+BATT*%
X152600000Y-38720000D03*
D80*
%TO.P,J7,2,2*%
%TO.N,GND*%
X145400000Y-38720000D03*
D81*
%TO.P,J7,3,MH1*%
%TO.N,unconnected-(J7-MH1-Pad3)*%
X155750000Y-32720000D03*
%TO.P,J7,4,MH2*%
%TO.N,unconnected-(J7-MH2-Pad4)*%
X142250000Y-32720000D03*
%TD*%
D79*
%TO.P,J5,1,1*%
%TO.N,+BATT*%
X57500000Y-38700000D03*
D80*
%TO.P,J5,2,2*%
%TO.N,GND*%
X50300000Y-38700000D03*
D81*
%TO.P,J5,3,MH1*%
%TO.N,unconnected-(J5-MH1-Pad3)*%
X60650000Y-32700000D03*
%TO.P,J5,4,MH2*%
%TO.N,unconnected-(J5-MH2-Pad4)*%
X47150000Y-32700000D03*
%TD*%
D40*
%TO.P,J16,1,1*%
%TO.N,+5V*%
X131600000Y-119540000D03*
D84*
%TO.P,J16,2,2*%
%TO.N,GND*%
X134100000Y-119540000D03*
%TD*%
D40*
%TO.P,J14,1,1*%
%TO.N,+5V*%
X134000000Y-40500000D03*
D84*
%TO.P,J14,2,2*%
%TO.N,GND*%
X131500000Y-40500000D03*
%TD*%
D77*
%TO.P,J11,1,1*%
%TO.N,+BATT*%
X166100000Y-89300000D03*
X167500000Y-89300000D03*
X168900000Y-89300000D03*
X164700000Y-88600000D03*
X166100000Y-87900000D03*
X167500000Y-87900000D03*
X168900000Y-87900000D03*
X163300000Y-87200000D03*
X164700000Y-87200000D03*
X166100000Y-86500000D03*
D90*
X166150000Y-86500000D03*
D77*
X167500000Y-86500000D03*
X168900000Y-86500000D03*
X163300000Y-85800000D03*
X164700000Y-85800000D03*
X166100000Y-85100000D03*
X167500000Y-85100000D03*
X168900000Y-85100000D03*
X164700000Y-84400000D03*
X166100000Y-83700000D03*
X167500000Y-83700000D03*
X168900000Y-83700000D03*
D79*
X154100000Y-83600000D03*
D80*
%TO.P,J11,2,2*%
%TO.N,GND*%
X154100000Y-76400000D03*
D77*
X166100000Y-76300000D03*
X167500000Y-76300000D03*
X168900000Y-76300000D03*
X164700000Y-75600000D03*
X166100000Y-74900000D03*
X167500000Y-74900000D03*
X168900000Y-74900000D03*
X163300000Y-74200000D03*
X164700000Y-74200000D03*
X166100000Y-73500000D03*
D90*
X166150000Y-73500000D03*
D77*
X167500000Y-73500000D03*
X168900000Y-73500000D03*
X163300000Y-72800000D03*
X164700000Y-72800000D03*
X166100000Y-72100000D03*
X167500000Y-72100000D03*
X168900000Y-72100000D03*
X164700000Y-71400000D03*
X166100000Y-70700000D03*
X167500000Y-70700000D03*
X168900000Y-70700000D03*
D81*
%TO.P,J11,3,MH1*%
%TO.N,unconnected-(J11-MH1-Pad3)*%
X160100000Y-86750000D03*
%TO.P,J11,4,MH2*%
%TO.N,unconnected-(J11-MH2-Pad4)*%
X160100000Y-73250000D03*
%TD*%
D79*
%TO.P,J8,1,1*%
%TO.N,+BATT*%
X50300000Y-121300000D03*
D80*
%TO.P,J8,2,2*%
%TO.N,GND*%
X57500000Y-121300000D03*
D81*
%TO.P,J8,3,MH1*%
%TO.N,unconnected-(J8-MH1-Pad3)*%
X47150000Y-127300000D03*
%TO.P,J8,4,MH2*%
%TO.N,unconnected-(J8-MH2-Pad4)*%
X60650000Y-127300000D03*
%TD*%
D91*
%TO.N,GND*%
X99200000Y-97900000D03*
X98900000Y-101100000D03*
X67200000Y-111700000D03*
X64100000Y-111600000D03*
X66400000Y-112600000D03*
X68500000Y-113400000D03*
X70900000Y-113500000D03*
X73700000Y-108200000D03*
X50700000Y-108200000D03*
X59400000Y-107900000D03*
X64100000Y-108100000D03*
D92*
%TO.N,/Microcontroller/USB_D-*%
X155200000Y-95700000D03*
%TO.N,/Microcontroller/USB_D+*%
X155200000Y-97200000D03*
D91*
%TO.N,+3V3*%
X117300000Y-88100000D03*
X115700000Y-88100000D03*
X114100000Y-88100000D03*
D92*
%TO.N,GND*%
X168210000Y-96470000D03*
D91*
X109850000Y-88565687D03*
D92*
X97000000Y-32850000D03*
D91*
X93000000Y-106736336D03*
X100500000Y-45700000D03*
X92500000Y-42500000D03*
X121325735Y-113874265D03*
X124800000Y-37700000D03*
X94100000Y-45700000D03*
D92*
X168500000Y-60300000D03*
D91*
X129801073Y-113532797D03*
X123500000Y-36900000D03*
D92*
X160249999Y-111489999D03*
D91*
X124800000Y-36100000D03*
D92*
X166800000Y-116940000D03*
D91*
X98714003Y-109025000D03*
X90900000Y-45700000D03*
X103700000Y-45700000D03*
X124800000Y-40900000D03*
X124100000Y-109300000D03*
X125144247Y-101365565D03*
X94100000Y-48900000D03*
X95700000Y-48900000D03*
X94600000Y-77500000D03*
X122658379Y-99073895D03*
X129770604Y-128700000D03*
D93*
X84900000Y-109125000D03*
D91*
X92500000Y-50500000D03*
X91500000Y-109075000D03*
D92*
X160950000Y-97220000D03*
D91*
X98900000Y-52100000D03*
X88300000Y-115500000D03*
X124800000Y-39300000D03*
X129800000Y-126202938D03*
X92500000Y-52100000D03*
D92*
X167100000Y-61700000D03*
D91*
X94500000Y-87200000D03*
X95700000Y-52100000D03*
X123500000Y-43300000D03*
D93*
X84900000Y-110325000D03*
D91*
X123500000Y-38500000D03*
X94100000Y-50500000D03*
X95700000Y-45700000D03*
X113490578Y-109123558D03*
X117000000Y-95100000D03*
X109700000Y-102000000D03*
X94100000Y-90700000D03*
X98900000Y-47300000D03*
X128494945Y-128653585D03*
X124700000Y-123300000D03*
D93*
X84900000Y-107925000D03*
D91*
X92500000Y-44100000D03*
X97300000Y-50500000D03*
X97300000Y-45700000D03*
X124201610Y-125274211D03*
X106900000Y-44100000D03*
X90900000Y-44100000D03*
X114500000Y-109100003D03*
X102100000Y-44100000D03*
X115700000Y-108600000D03*
X126575360Y-128000304D03*
X97300000Y-42500000D03*
X102100000Y-47300000D03*
D93*
X86800000Y-114000000D03*
D92*
X161310000Y-94020000D03*
X79276753Y-87933886D03*
D91*
X92500000Y-48900000D03*
X115591841Y-102162500D03*
X111330000Y-88585687D03*
X94824266Y-112124263D03*
X92500000Y-45700000D03*
X97300000Y-52100000D03*
X97300000Y-47300000D03*
X105300000Y-45700000D03*
X102100000Y-45700000D03*
D92*
X122000000Y-68800000D03*
X168210000Y-97740000D03*
X161200000Y-60200000D03*
X167100000Y-62950000D03*
D91*
X95700000Y-42500000D03*
X126167028Y-99200000D03*
X106900000Y-45700000D03*
X94100000Y-44100000D03*
X123500000Y-35300000D03*
X100534313Y-113825000D03*
X111700000Y-105900000D03*
X107900000Y-108200000D03*
X94100000Y-42500000D03*
X124734313Y-127500000D03*
X97300000Y-44100000D03*
X88299999Y-114700000D03*
X95700000Y-50500000D03*
X92500000Y-47300000D03*
X98900000Y-50500000D03*
D93*
X84900000Y-111475000D03*
D91*
X115851000Y-93349000D03*
X100500000Y-47300000D03*
X99759998Y-112280002D03*
X117175630Y-110975630D03*
X98900000Y-48900000D03*
X98475303Y-111525000D03*
X95700000Y-44100000D03*
X126300000Y-104562500D03*
D93*
X87000000Y-106602216D03*
D91*
X90900000Y-42500000D03*
X94100000Y-47300000D03*
D92*
X161529998Y-100440000D03*
D91*
X94100000Y-52100000D03*
X90900000Y-50500000D03*
X108350000Y-88565687D03*
X110100000Y-44100000D03*
D92*
X168500000Y-58700000D03*
D91*
X103700000Y-44100000D03*
D92*
X166800000Y-107640000D03*
D91*
X90900000Y-48900000D03*
X123500000Y-40100000D03*
X90900000Y-52100000D03*
X118700000Y-95100000D03*
X94555460Y-109547897D03*
X105300000Y-44100000D03*
X98900000Y-42500000D03*
D92*
X165410000Y-92940000D03*
D91*
X108500000Y-44100000D03*
D93*
X86100000Y-111500000D03*
D91*
X106850000Y-88565687D03*
X90900000Y-47300000D03*
X95700000Y-47300000D03*
X98900000Y-45700000D03*
X100500000Y-42500000D03*
X123500000Y-41700000D03*
X97300000Y-48900000D03*
%TO.N,+3V3*%
X123412238Y-102562500D03*
X121200000Y-104700000D03*
X118633680Y-107881712D03*
X124113130Y-106686870D03*
X127250000Y-104800000D03*
X114200000Y-90600000D03*
X127250000Y-106400000D03*
X127250000Y-108800000D03*
X121200000Y-105500000D03*
X128050000Y-104400000D03*
X122800000Y-100500000D03*
X111800000Y-111100000D03*
X128050000Y-107600000D03*
X128050000Y-106000000D03*
X127250000Y-107200000D03*
X112600000Y-110700000D03*
X112600000Y-109800000D03*
X122800000Y-101900000D03*
X111800000Y-110200000D03*
X114100000Y-102200000D03*
X128050000Y-105200000D03*
X113400000Y-110300000D03*
X106700000Y-102350000D03*
X121200000Y-103900000D03*
X109900000Y-107300000D03*
X128050000Y-110000000D03*
X121200000Y-106300000D03*
X112600000Y-111600000D03*
X128050000Y-106800000D03*
X127250000Y-105600000D03*
X119230446Y-102743282D03*
X127250000Y-108000000D03*
X121200000Y-103100000D03*
X119124265Y-99175735D03*
X106400000Y-101700000D03*
X128050000Y-108400000D03*
X128050000Y-109200000D03*
X127250000Y-109600000D03*
X113400000Y-111200000D03*
%TO.N,+1V1*%
X119900000Y-107650000D03*
%TO.N,+BATT*%
X102100000Y-34300000D03*
X76400000Y-128200000D03*
X105300000Y-37500000D03*
X103700000Y-39100000D03*
X95700000Y-40700000D03*
X105300000Y-35900000D03*
X94100000Y-40700000D03*
X95700000Y-35900000D03*
X100500000Y-40700000D03*
X75600000Y-129100000D03*
X73200000Y-128200000D03*
X102100000Y-35900000D03*
X106900000Y-37500000D03*
X98900000Y-34300000D03*
X92500000Y-40700000D03*
X92500000Y-34300000D03*
X108500000Y-35900000D03*
X110100000Y-35900000D03*
X97300000Y-40700000D03*
X94100000Y-34300000D03*
X106900000Y-35900000D03*
X90900000Y-35900000D03*
X98900000Y-35900000D03*
X97300000Y-39100000D03*
X94100000Y-39100000D03*
X100500000Y-37500000D03*
X72400000Y-129100000D03*
X71600000Y-128200000D03*
X103700000Y-34300000D03*
X98900000Y-37500000D03*
X97300000Y-35900000D03*
X92500000Y-39100000D03*
X106900000Y-39100000D03*
X108500000Y-37500000D03*
X100500000Y-34300000D03*
X111700000Y-37500000D03*
X95700000Y-37500000D03*
X94100000Y-37500000D03*
X95700000Y-34300000D03*
X108500000Y-39100000D03*
X90900000Y-34300000D03*
X105300000Y-39100000D03*
X103700000Y-35900000D03*
X103700000Y-37500000D03*
X108500000Y-34300000D03*
X92500000Y-37500000D03*
X90900000Y-39100000D03*
X111700000Y-39100000D03*
X90900000Y-37500000D03*
X95700000Y-39100000D03*
X74800000Y-128200000D03*
X110100000Y-39100000D03*
X74000000Y-129100000D03*
X110100000Y-37500000D03*
X78000000Y-128200000D03*
X97300000Y-34300000D03*
X77200000Y-129100000D03*
X100500000Y-35900000D03*
X98900000Y-40700000D03*
X94100000Y-35900000D03*
X92500000Y-35900000D03*
X97300000Y-37500000D03*
X102100000Y-39100000D03*
X90900000Y-40700000D03*
X102100000Y-37500000D03*
%TO.N,+5V*%
X103200000Y-88800000D03*
X98400000Y-90400000D03*
X98900000Y-67400000D03*
X111700000Y-67400000D03*
X101600000Y-92000000D03*
X97300000Y-61000000D03*
X100000000Y-95200000D03*
X103200000Y-95200000D03*
X104800000Y-92000000D03*
X108500000Y-67400000D03*
D92*
X86325000Y-88800000D03*
D91*
X105300000Y-67400000D03*
X111700000Y-69000000D03*
X101600000Y-93600000D03*
X114900000Y-67400000D03*
X106900000Y-72200000D03*
X103200000Y-87200000D03*
X103200000Y-93600000D03*
X94100000Y-59400000D03*
X118100000Y-72200000D03*
X103200000Y-92000000D03*
X103200000Y-90400000D03*
X114900000Y-70600000D03*
X94100000Y-57800000D03*
X106900000Y-69000000D03*
X100500000Y-69000000D03*
X98900000Y-61000000D03*
X108500000Y-72200000D03*
X105300000Y-70600000D03*
X101600000Y-87200000D03*
X97300000Y-59400000D03*
X102100000Y-70600000D03*
X100500000Y-72200000D03*
X113300000Y-67400000D03*
X110100000Y-70600000D03*
X113300000Y-72200000D03*
X103700000Y-69000000D03*
X114900000Y-72200000D03*
X100000000Y-88800000D03*
X98900000Y-70600000D03*
X116500000Y-70600000D03*
X100500000Y-67400000D03*
X113300000Y-69000000D03*
X118100000Y-69000000D03*
X90900000Y-57800000D03*
X105300000Y-72200000D03*
X100000000Y-93600000D03*
X100000000Y-90400000D03*
X118100000Y-67400000D03*
X103700000Y-72200000D03*
X97300000Y-69000000D03*
X100000000Y-92000000D03*
X92500000Y-57800000D03*
X106900000Y-67400000D03*
X98900000Y-69000000D03*
X104800000Y-87200000D03*
X100500000Y-70600000D03*
X100000000Y-96800000D03*
X100000000Y-87200000D03*
X101600000Y-88800000D03*
X105300000Y-69000000D03*
X96800000Y-88800000D03*
X95700000Y-59400000D03*
X95700000Y-57800000D03*
X103700000Y-70600000D03*
X96800000Y-90400000D03*
X113300000Y-70600000D03*
X98900000Y-62600000D03*
X111700000Y-70600000D03*
X103200000Y-96800000D03*
X98900000Y-59400000D03*
X98400000Y-87200000D03*
X103700000Y-67400000D03*
X104800000Y-88800000D03*
X98400000Y-93600000D03*
X108500000Y-70600000D03*
X98400000Y-92000000D03*
X110100000Y-69000000D03*
X97300000Y-57800000D03*
X98400000Y-95200000D03*
X110100000Y-67400000D03*
X97300000Y-70600000D03*
X102100000Y-72200000D03*
X102100000Y-69000000D03*
X98900000Y-64200000D03*
X98900000Y-65800000D03*
D92*
X158100458Y-105179139D03*
D91*
X106900000Y-70600000D03*
X101600000Y-96800000D03*
X111700000Y-72200000D03*
X114900000Y-69000000D03*
X116500000Y-72200000D03*
X110100000Y-72200000D03*
X96800000Y-92000000D03*
D92*
X78455319Y-88755319D03*
D91*
X108500000Y-69000000D03*
X90900000Y-61000000D03*
X118100000Y-70600000D03*
X90900000Y-59400000D03*
X116500000Y-69000000D03*
X116500000Y-67400000D03*
X104800000Y-90400000D03*
X98900000Y-57800000D03*
X98900000Y-72200000D03*
X102100000Y-67400000D03*
X98400000Y-96800000D03*
X98400000Y-88800000D03*
X92500000Y-59400000D03*
X101600000Y-90400000D03*
X101600000Y-95200000D03*
D92*
%TO.N,/Microcontroller/VBUS*%
X158200000Y-97340000D03*
D91*
%TO.N,/Battery Stack Monitor/SPI_TX*%
X93950000Y-109025000D03*
D93*
X85400000Y-109700000D03*
D91*
%TO.N,/Battery Stack Monitor/SPI_CS*%
X94000000Y-112100000D03*
D93*
X85400000Y-112100000D03*
D91*
%TO.N,/Battery Stack Monitor/SPI_SCLK*%
X99400000Y-108400000D03*
D93*
X85400000Y-108500000D03*
D92*
%TO.N,Net-(J3-CC1_A)*%
X165000000Y-95940000D03*
D93*
%TO.N,/Battery Stack Monitor/SPI_RX*%
X85400000Y-110900000D03*
D91*
X99100000Y-111000000D03*
D92*
%TO.N,Net-(U7-VOUT)*%
X161600000Y-57132998D03*
D93*
%TO.N,/Battery Stack Monitor/ALERT*%
X85349993Y-107325000D03*
D91*
X100400000Y-111800000D03*
D92*
%TO.N,Net-(J3-CC1_B)*%
X164810000Y-98940000D03*
D93*
%TO.N,/Battery Stack Monitor/RST_SHUT*%
X85700000Y-113200000D03*
D91*
X101100000Y-113200000D03*
%TO.N,/External Connections and Sensing/RGB_DIN*%
X112600000Y-105762500D03*
X109000000Y-88000000D03*
%TO.N,/Microcontroller/GPIO25*%
X125775735Y-127975735D03*
%TO.N,/Microcontroller/GPIO24*%
X125300000Y-126900000D03*
%TO.N,/Microcontroller/GPIO23*%
X124700000Y-125900000D03*
%TO.N,/Microcontroller/GPIO22*%
X124400000Y-124500000D03*
%TO.N,/Microcontroller/GPIO21*%
X123724265Y-123675735D03*
%TO.N,/Microcontroller/RUN*%
X129706134Y-112512089D03*
X122207108Y-112492892D03*
D92*
%TO.N,/External Connections and Sensing/PIX_CLK*%
X159056409Y-105472674D03*
D91*
X129800000Y-127002941D03*
X102100000Y-114600000D03*
D92*
%TO.N,/External Connections and Sensing/PIX_DAT*%
X157149999Y-105489999D03*
D91*
X129772872Y-127900000D03*
X101000000Y-114556494D03*
%TO.N,/External Connections and Sensing/DAC_DAT*%
X110500000Y-88000000D03*
X113524265Y-108324265D03*
%TO.N,/External Connections and Sensing/DAC_CLK*%
X111980000Y-88020000D03*
X114500000Y-108300000D03*
%TO.N,/5V Regulator/PGOOD*%
X107500000Y-88000000D03*
X112225735Y-106725735D03*
%TO.N,Net-(U3-ULTRASONIC)*%
X119795558Y-46579442D03*
X122524251Y-48311235D03*
D92*
%TO.N,Net-(CR3-Pad4)*%
X161300000Y-62500000D03*
D91*
%TO.N,/Microcontroller/GPIO26_ADC0*%
X127600000Y-128700000D03*
%TD*%
D94*
%TO.N,+3V3*%
X106400000Y-101700000D02*
X102800000Y-101700000D01*
D95*
%TO.N,GND*%
X92936336Y-106800000D02*
X91605598Y-106800000D01*
X93000000Y-106736336D02*
X92936336Y-106800000D01*
X91500000Y-109075000D02*
X92630602Y-109075000D01*
X92630602Y-109075000D02*
X92855602Y-109300000D01*
X86100000Y-111500000D02*
X84925000Y-111500000D01*
X84925000Y-111500000D02*
X84900000Y-111475000D01*
D96*
%TO.N,/Battery Stack Monitor/RST_SHUT*%
X84900000Y-113100000D02*
X84500000Y-113500000D01*
X85600000Y-113100000D02*
X84900000Y-113100000D01*
X85700000Y-113200000D02*
X85600000Y-113100000D01*
X84500000Y-113500000D02*
X84500000Y-114500000D01*
D95*
%TO.N,Net-(U2-PACK)*%
X88900000Y-113100000D02*
X89700000Y-113900000D01*
X88900000Y-110886500D02*
X88900000Y-113100000D01*
X88525500Y-110512000D02*
X88900000Y-110886500D01*
X87488000Y-110512000D02*
X88525500Y-110512000D01*
%TO.N,Net-(D1-Pad1)*%
X91800000Y-114600000D02*
X91800000Y-111900000D01*
%TO.N,GND*%
X98950002Y-98149998D02*
X99200000Y-97900000D01*
X98950002Y-98874998D02*
X98950002Y-98149998D01*
X101000000Y-101100000D02*
X98900000Y-101100000D01*
X96900004Y-101100000D02*
X98900000Y-101100000D01*
D97*
X68900000Y-40480000D02*
X68900000Y-38144800D01*
D95*
%TO.N,Net-(U2-BAT)*%
X89800000Y-111900000D02*
X89800000Y-109300000D01*
X89800000Y-109300000D02*
X89012000Y-108512000D01*
X89012000Y-108512000D02*
X87488000Y-108512000D01*
X88788000Y-108012000D02*
X87488000Y-108012000D01*
X90000000Y-106800000D02*
X88788000Y-108012000D01*
%TO.N,GND*%
X73663000Y-108237000D02*
X73700000Y-108200000D01*
X72312000Y-108237000D02*
X73663000Y-108237000D01*
X50350200Y-108200000D02*
X49650200Y-108900000D01*
X50700000Y-108200000D02*
X50350200Y-108200000D01*
X51500000Y-109000000D02*
X50700000Y-108200000D01*
X60400000Y-106900000D02*
X59400000Y-107900000D01*
X60500000Y-106900000D02*
X60400000Y-106900000D01*
X63551000Y-108100000D02*
X62700000Y-107249000D01*
X64100000Y-108100000D02*
X63551000Y-108100000D01*
D94*
%TO.N,/Microcontroller/GPIO21*%
X124012500Y-107434768D02*
X123340232Y-106762500D01*
X124012500Y-108490230D02*
X124012500Y-107434768D01*
X123500000Y-109002730D02*
X124012500Y-108490230D01*
X123500000Y-110002942D02*
X123500000Y-109002730D01*
X126700000Y-113202942D02*
X123500000Y-110002942D01*
X126700000Y-120400000D02*
X126700000Y-113202942D01*
X123340232Y-106762500D02*
X122475000Y-106762500D01*
X123724265Y-123675735D02*
X123724265Y-123375735D01*
X123724265Y-123375735D02*
X126700000Y-120400000D01*
%TO.N,/Microcontroller/GPIO22*%
X124900000Y-106600000D02*
X124262500Y-105962500D01*
X124262500Y-105962500D02*
X122475000Y-105962500D01*
X124900000Y-110799998D02*
X124900000Y-106600000D01*
X127200000Y-121700000D02*
X127200000Y-113100000D01*
X124400000Y-124500000D02*
X127200000Y-121700000D01*
X127200000Y-113100000D02*
X124900000Y-110799998D01*
%TO.N,/Microcontroller/GPIO23*%
X124428186Y-105562500D02*
X122475000Y-105562500D01*
X125300000Y-110634313D02*
X125300000Y-106434314D01*
X127700000Y-113034314D02*
X125300000Y-110634313D01*
X127700000Y-122900000D02*
X127700000Y-113034314D01*
X124700000Y-125900000D02*
X127700000Y-122900000D01*
X125300000Y-106434314D02*
X124428186Y-105562500D01*
%TO.N,/Microcontroller/GPIO24*%
X128200000Y-112968628D02*
X125700000Y-110468628D01*
X128200000Y-124000000D02*
X128200000Y-112968628D01*
X125700000Y-106268628D02*
X124593872Y-105162500D01*
X125300000Y-126900000D02*
X128200000Y-124000000D01*
X125700000Y-110468628D02*
X125700000Y-106268628D01*
X124593872Y-105162500D02*
X122475000Y-105162500D01*
%TO.N,/Microcontroller/GPIO25*%
X124762500Y-104762500D02*
X122475000Y-104762500D01*
X126100000Y-110299999D02*
X126100000Y-106100000D01*
X128700000Y-112900000D02*
X126100000Y-110299999D01*
X128700000Y-125000000D02*
X128700000Y-112900000D01*
X125775735Y-127924265D02*
X128700000Y-125000000D01*
X126100000Y-106100000D02*
X124762500Y-104762500D01*
X125775735Y-127975735D02*
X125775735Y-127924265D01*
%TO.N,/Microcontroller/GPIO26_ADC0*%
X124928185Y-104362500D02*
X122475000Y-104362500D01*
X126500000Y-110134314D02*
X126500000Y-105934315D01*
X129200000Y-112834314D02*
X126500000Y-110134314D01*
X129200000Y-127100000D02*
X129200000Y-112834314D01*
X126500000Y-105934315D02*
X124928185Y-104362500D01*
X127600000Y-128700000D02*
X129200000Y-127100000D01*
D98*
%TO.N,+3V3*%
X152292000Y-57096600D02*
X152509200Y-56879400D01*
X148200000Y-57096600D02*
X152292000Y-57096600D01*
X143300000Y-71000000D02*
X132700000Y-81600000D01*
X143300000Y-60700000D02*
X143300000Y-71000000D01*
X124000000Y-81600000D02*
X117500000Y-88100000D01*
X146903400Y-57096600D02*
X143300000Y-60700000D01*
X117500000Y-88100000D02*
X117300000Y-88100000D01*
X148200000Y-57096600D02*
X146903400Y-57096600D01*
X132700000Y-81600000D02*
X124000000Y-81600000D01*
X117300000Y-88100000D02*
X114100000Y-88100000D01*
D95*
%TO.N,/External Connections and Sensing/DAC_CLK*%
X140900000Y-59400000D02*
X144400000Y-55900000D01*
X134800000Y-76200000D02*
X140900000Y-70100000D01*
X123800000Y-76200000D02*
X134800000Y-76200000D01*
X144400000Y-55900000D02*
X152509200Y-55900000D01*
X111980000Y-88020000D02*
X123800000Y-76200000D01*
X140900000Y-70100000D02*
X140900000Y-59400000D01*
%TO.N,/External Connections and Sensing/DAC_DAT*%
X123600000Y-74900000D02*
X110500000Y-88000000D01*
X134100000Y-74900000D02*
X123600000Y-74900000D01*
X139200000Y-69800000D02*
X134100000Y-74900000D01*
X139200000Y-59100000D02*
X139200000Y-69800000D01*
X143350001Y-54949999D02*
X139200000Y-59100000D01*
X152509200Y-54949999D02*
X143350001Y-54949999D01*
%TO.N,/External Connections and Sensing/RGB_DIN*%
X137600000Y-68800000D02*
X132600000Y-73800000D01*
X137600000Y-58200000D02*
X137600000Y-68800000D01*
X123200000Y-73800000D02*
X109000000Y-88000000D01*
X144900000Y-50900000D02*
X137600000Y-58200000D01*
X132600000Y-73800000D02*
X123200000Y-73800000D01*
X145023200Y-50900000D02*
X144900000Y-50900000D01*
%TO.N,/5V Regulator/PGOOD*%
X122800000Y-72700000D02*
X107500000Y-88000000D01*
X131700000Y-72700000D02*
X122800000Y-72700000D01*
X136100000Y-68300000D02*
X131700000Y-72700000D01*
D97*
%TO.N,+5V*%
X131377600Y-119762400D02*
X131600000Y-119540000D01*
X131377600Y-123900000D02*
X131377600Y-119762400D01*
%TO.N,GND*%
X134100000Y-119540000D02*
X134100000Y-123900000D01*
D98*
%TO.N,+5V*%
X149534315Y-101899015D02*
X149534315Y-107197585D01*
X147635300Y-100000000D02*
X149534315Y-101899015D01*
X149534315Y-107197585D02*
X139531900Y-117200000D01*
X144629200Y-100000000D02*
X147635300Y-100000000D01*
X139531900Y-117200000D02*
X133940000Y-117200000D01*
X133940000Y-117200000D02*
X131600000Y-119540000D01*
D97*
%TO.N,GND*%
X71400000Y-119520000D02*
X71400000Y-124000000D01*
%TO.N,+5V*%
X68900000Y-119520000D02*
X68900000Y-124000000D01*
X71400000Y-38000000D02*
X71500000Y-37900000D01*
X71400000Y-40480000D02*
X71400000Y-38000000D01*
D99*
%TO.N,Net-(LED11-K)*%
X73910000Y-40800000D02*
X76100000Y-40800000D01*
X67785735Y-43200000D02*
X71510000Y-43200000D01*
X66034135Y-41448400D02*
X67785735Y-43200000D01*
X44047762Y-39147762D02*
X46348400Y-41448400D01*
X46348400Y-41448400D02*
X66034135Y-41448400D01*
X37043743Y-39147762D02*
X44047762Y-39147762D01*
X36400000Y-38504019D02*
X37043743Y-39147762D01*
X71510000Y-43200000D02*
X73910000Y-40800000D01*
%TO.N,Net-(Q11-E)*%
X71570660Y-44200000D02*
X73190660Y-42580000D01*
X67725075Y-44200000D02*
X71570660Y-44200000D01*
X50688660Y-42400000D02*
X65925075Y-42400000D01*
X50487060Y-42198400D02*
X50688660Y-42400000D01*
X43458400Y-42198400D02*
X50487060Y-42198400D01*
X41700000Y-40440000D02*
X43458400Y-42198400D01*
X65925075Y-42400000D02*
X67725075Y-44200000D01*
X39407762Y-40440000D02*
X41700000Y-40440000D01*
X39400000Y-40447762D02*
X39407762Y-40440000D01*
D97*
%TO.N,GND*%
X131355200Y-40355200D02*
X131500000Y-40500000D01*
X131355200Y-36200000D02*
X131355200Y-40355200D01*
%TO.N,+5V*%
X134200000Y-40300000D02*
X134000000Y-40500000D01*
X134200000Y-36200000D02*
X134200000Y-40300000D01*
D95*
%TO.N,/5V Regulator/PGOOD*%
X128000000Y-36400000D02*
X128000000Y-42600000D01*
X136100000Y-50700000D02*
X136100000Y-68300000D01*
X119300000Y-31500000D02*
X123100000Y-31500000D01*
X123100000Y-31500000D02*
X128000000Y-36400000D01*
X128000000Y-42600000D02*
X136100000Y-50700000D01*
X116622400Y-34177600D02*
X119300000Y-31500000D01*
X116622400Y-39266600D02*
X116622400Y-34177600D01*
D98*
%TO.N,+5V*%
X159951000Y-50200000D02*
X161600000Y-48551000D01*
X159520000Y-50200000D02*
X159951000Y-50200000D01*
%TO.N,GND*%
X159900000Y-45200000D02*
X161600000Y-46900000D01*
X159520000Y-45200000D02*
X159900000Y-45200000D01*
%TO.N,+5V*%
X159400000Y-50320000D02*
X159520000Y-50200000D01*
X159400000Y-54996600D02*
X159400000Y-50320000D01*
X151079400Y-50900000D02*
X149900000Y-50900000D01*
X154979400Y-54800000D02*
X151079400Y-50900000D01*
X159203400Y-54800000D02*
X154979400Y-54800000D01*
X159400000Y-54996600D02*
X159203400Y-54800000D01*
X148400000Y-49400000D02*
X149900000Y-50900000D01*
X142900000Y-49400000D02*
X148400000Y-49400000D01*
X134000000Y-40500000D02*
X142900000Y-49400000D01*
D94*
%TO.N,/Microcontroller/RUN*%
X134999996Y-113400000D02*
X136700000Y-113400000D01*
D98*
%TO.N,/Microcontroller/VBUS*%
X142329200Y-96910800D02*
X143040000Y-96200000D01*
X142329200Y-99050000D02*
X142329200Y-96910800D01*
X157240000Y-98300000D02*
X158200000Y-97340000D01*
X145140000Y-98300000D02*
X157240000Y-98300000D01*
X143040000Y-96200000D02*
X145140000Y-98300000D01*
D94*
%TO.N,GND*%
X118700000Y-96249000D02*
X118700000Y-95100000D01*
D95*
X93500000Y-86100000D02*
X93500000Y-86200000D01*
X87488000Y-111012000D02*
X86588000Y-111012000D01*
D94*
X109900000Y-102200000D02*
X109700000Y-102000000D01*
X125940000Y-99427028D02*
X125940000Y-100500000D01*
D99*
X156303400Y-55900000D02*
X157200000Y-56796600D01*
D95*
X92500000Y-90700000D02*
X94100000Y-90700000D01*
D94*
X118037500Y-110113760D02*
X118037500Y-108800000D01*
D96*
X168210000Y-96470000D02*
X168210000Y-94840000D01*
D94*
X110749000Y-102200000D02*
X109900000Y-102200000D01*
D99*
X121400000Y-68200000D02*
X121000000Y-68200000D01*
X153449000Y-58900000D02*
X153449000Y-60249000D01*
D94*
X122658379Y-99073895D02*
X122658379Y-99018379D01*
D96*
X118400000Y-47100000D02*
X118400000Y-47650000D01*
D95*
X86588000Y-111012000D02*
X86100000Y-111500000D01*
D96*
X168210000Y-99440000D02*
X168210000Y-97740000D01*
D99*
X165370000Y-92900000D02*
X165410000Y-92940000D01*
D94*
X117000000Y-96249000D02*
X117000000Y-95100000D01*
X115851000Y-93349000D02*
X115851000Y-92100000D01*
D99*
X97026300Y-32823700D02*
X98632400Y-32823700D01*
X97000000Y-32850000D02*
X97026300Y-32823700D01*
X165450000Y-92900000D02*
X165410000Y-92940000D01*
X157203400Y-56800000D02*
X157200000Y-56796600D01*
D96*
X116500000Y-45840000D02*
X117140000Y-45840000D01*
D99*
X153449000Y-60249000D02*
X154400000Y-61200000D01*
X159400000Y-56800000D02*
X157203400Y-56800000D01*
D96*
X120350000Y-49600000D02*
X120600000Y-49600000D01*
X118400000Y-47650000D02*
X120350000Y-49600000D01*
D99*
X163320000Y-92900000D02*
X165370000Y-92900000D01*
D94*
X125978682Y-102200000D02*
X126051000Y-102200000D01*
D95*
X93500000Y-86200000D02*
X94500000Y-87200000D01*
D99*
X148200000Y-58900000D02*
X153449000Y-58900000D01*
D94*
X126167028Y-99200000D02*
X125940000Y-99427028D01*
D95*
X79276753Y-87933886D02*
X79549999Y-87660640D01*
D94*
X109100000Y-108200000D02*
X107900000Y-108200000D01*
D95*
X94500000Y-77600000D02*
X94600000Y-77500000D01*
D94*
X117175630Y-110975630D02*
X118037500Y-110113760D01*
D95*
X79549999Y-87660640D02*
X79549999Y-87150001D01*
D94*
X125144247Y-101365565D02*
X125978682Y-102200000D01*
D96*
X116322400Y-44316600D02*
X116322400Y-45662400D01*
D95*
X94500000Y-81500000D02*
X94500000Y-77600000D01*
D99*
X167500000Y-92900000D02*
X165450000Y-92900000D01*
D96*
X117140000Y-45840000D02*
X118400000Y-47100000D01*
D99*
X155100000Y-55900000D02*
X156303400Y-55900000D01*
X122000000Y-68800000D02*
X121400000Y-68200000D01*
D96*
X116322400Y-45662400D02*
X116500000Y-45840000D01*
D94*
X122658379Y-99018379D02*
X121700000Y-98060000D01*
D95*
%TO.N,Net-(U2-BAT)*%
X87488000Y-108512000D02*
X87488000Y-108012000D01*
D94*
%TO.N,+3V3*%
X121662500Y-101900000D02*
X121637500Y-101925000D01*
X123788760Y-106362500D02*
X122475000Y-106362500D01*
X121237500Y-101925000D02*
X121237500Y-101462500D01*
X109900000Y-107300000D02*
X110751000Y-108151000D01*
X118853072Y-107881712D02*
X119237500Y-108266140D01*
X121637500Y-102762500D02*
X121637500Y-101925000D01*
X124400000Y-102200000D02*
X124100000Y-101900000D01*
X123212238Y-102762500D02*
X122475000Y-102762500D01*
X113844900Y-93895000D02*
X113844900Y-92455100D01*
X123412238Y-102562500D02*
X123212238Y-102762500D01*
X110751000Y-108151000D02*
X110751000Y-108200000D01*
X119637500Y-101925000D02*
X119637500Y-99688971D01*
X118700000Y-98751471D02*
X118700000Y-97900000D01*
X114662500Y-102762500D02*
X115600000Y-102762500D01*
X113844900Y-92455100D02*
X114200000Y-92100000D01*
X106700000Y-102350000D02*
X107050000Y-102000000D01*
X111600000Y-108200000D02*
X113437500Y-106362500D01*
X119237500Y-102736228D02*
X119237500Y-101925000D01*
X124100000Y-101900000D02*
X121662500Y-101900000D01*
X122200000Y-100500000D02*
X124400000Y-100500000D01*
X114100000Y-102200000D02*
X112400000Y-102200000D01*
X110751000Y-108200000D02*
X111600000Y-108200000D01*
X124113130Y-106686870D02*
X123788760Y-106362500D01*
X121237500Y-101462500D02*
X122200000Y-100500000D01*
X114100000Y-102200000D02*
X114662500Y-102762500D01*
X114200000Y-90600000D02*
X114200000Y-92100000D01*
X118633680Y-107881712D02*
X118853072Y-107881712D01*
X107050000Y-102000000D02*
X107600000Y-102000000D01*
X121237500Y-103062500D02*
X121237500Y-101925000D01*
X119637500Y-99688971D02*
X118700000Y-98751471D01*
X121300000Y-103100000D02*
X121637500Y-102762500D01*
X113437500Y-106362500D02*
X115600000Y-106362500D01*
X119230446Y-102743282D02*
X119237500Y-102736228D01*
X121200000Y-103100000D02*
X121300000Y-103100000D01*
X119237500Y-108266140D02*
X119237500Y-108800000D01*
X121200000Y-103100000D02*
X121237500Y-103062500D01*
%TO.N,+1V1*%
X119637500Y-107912500D02*
X119637500Y-108800000D01*
X118837500Y-99737500D02*
X118837500Y-101925000D01*
X120837500Y-101925000D02*
X120837500Y-100362500D01*
X117000000Y-97900000D02*
X118837500Y-99737500D01*
X119900000Y-103400000D02*
X119900000Y-103396360D01*
X119900000Y-107650000D02*
X119637500Y-107912500D01*
X120837500Y-100362500D02*
X121600000Y-99600000D01*
X120837500Y-102458860D02*
X120837500Y-101925000D01*
X119900000Y-103396360D02*
X120837500Y-102458860D01*
D96*
%TO.N,+BATT*%
X117487400Y-37517100D02*
X117487400Y-39051600D01*
X117487400Y-39051600D02*
X117272400Y-39266600D01*
D95*
%TO.N,Net-(U2-SRP)*%
X74112000Y-109788000D02*
X76112000Y-109788000D01*
X72312000Y-109888000D02*
X74012000Y-109888000D01*
X70512000Y-109388000D02*
X71012000Y-109888000D01*
X74012000Y-109888000D02*
X74112000Y-109788000D01*
X76536000Y-110012000D02*
X79012000Y-110012000D01*
X71012000Y-109888000D02*
X72312000Y-109888000D01*
%TO.N,Net-(U2-SRN)*%
X72312000Y-111288000D02*
X73961000Y-111288000D01*
X76493598Y-111012000D02*
X79012000Y-111012000D01*
X74112000Y-111439000D02*
X76066598Y-111439000D01*
X73961000Y-111288000D02*
X74112000Y-111439000D01*
X70512000Y-111788000D02*
X71012000Y-111288000D01*
X71012000Y-111288000D02*
X72312000Y-111288000D01*
D96*
%TO.N,Net-(U2-REG18)*%
X79012000Y-113012000D02*
X76824000Y-115200000D01*
X76824000Y-115200000D02*
X76500000Y-115200000D01*
D94*
%TO.N,/Microcontroller/XIN*%
X118437500Y-110562500D02*
X118437500Y-108800000D01*
X116900000Y-115600000D02*
X118000000Y-116700000D01*
X116900000Y-112100000D02*
X118437500Y-110562500D01*
X116900000Y-115600000D02*
X116900000Y-112100000D01*
X118000000Y-116700000D02*
X118000000Y-118350000D01*
X118000000Y-118350000D02*
X117050000Y-119300000D01*
D95*
%TO.N,+5V*%
X161600000Y-48551000D02*
X161169000Y-48551000D01*
X93000000Y-88400000D02*
X96300000Y-88400000D01*
X94000000Y-83800000D02*
X95900000Y-83800000D01*
X75000000Y-89500000D02*
X77710638Y-89500000D01*
X77710638Y-89500000D02*
X78455319Y-88755319D01*
D99*
%TO.N,Net-(Q13-S)*%
X144127100Y-103500000D02*
X144025800Y-103601300D01*
X144025800Y-103601300D02*
X144025800Y-102646600D01*
X146400000Y-103200000D02*
X146100000Y-103500000D01*
X140650000Y-100950000D02*
X142329200Y-100950000D01*
X144025800Y-102646600D02*
X142329200Y-100950000D01*
X139760000Y-96200000D02*
X139760000Y-100060000D01*
X139760000Y-100060000D02*
X140650000Y-100950000D01*
X146100000Y-103500000D02*
X144127100Y-103500000D01*
%TO.N,Net-(Q2-E)*%
X50590000Y-78867261D02*
X50500000Y-78957261D01*
X50590000Y-69611914D02*
X50590000Y-78867261D01*
X50230000Y-101150000D02*
X50800200Y-101150000D01*
D95*
X49100000Y-103900000D02*
X49100000Y-101419600D01*
X53700000Y-102200000D02*
X53600000Y-102300000D01*
D99*
X49799800Y-100719800D02*
X50230000Y-101150000D01*
D95*
X51950200Y-102300000D02*
X51750200Y-102100000D01*
D99*
X49799800Y-86447560D02*
X49799800Y-100719800D01*
X41073600Y-64621362D02*
X41073600Y-67190371D01*
D95*
X60500000Y-103200000D02*
X59500000Y-102200000D01*
D99*
X49872200Y-68894114D02*
X50590000Y-69611914D01*
D95*
X51200000Y-106000000D02*
X49100000Y-103900000D01*
D99*
X50800200Y-101150000D02*
X51750200Y-102100000D01*
X50500000Y-85747360D02*
X49799800Y-86447560D01*
D95*
X49100000Y-101419600D02*
X49799800Y-100719800D01*
X53600000Y-102300000D02*
X51950200Y-102300000D01*
X58000000Y-106000000D02*
X51200000Y-106000000D01*
X59500000Y-102200000D02*
X53700000Y-102200000D01*
D99*
X48000000Y-68894114D02*
X49872200Y-68894114D01*
X42775200Y-68891971D02*
X44000000Y-68891971D01*
X50500000Y-78957261D02*
X50500000Y-85747360D01*
X39400000Y-62947762D02*
X41073600Y-64621362D01*
X41073600Y-67190371D02*
X42775200Y-68891971D01*
%TO.N,Net-(Q3-E)*%
X52000000Y-79578581D02*
X52090000Y-79488581D01*
X52140000Y-94490000D02*
X52940200Y-94490000D01*
X41823600Y-64844381D02*
X42775200Y-65795981D01*
X39400000Y-60447762D02*
X41823600Y-62871362D01*
D95*
X55800000Y-95700000D02*
X54150200Y-95700000D01*
D99*
X52000000Y-86510102D02*
X52000000Y-79578581D01*
D95*
X51249800Y-96350000D02*
X51249800Y-93699800D01*
X62600000Y-99300000D02*
X60100000Y-99300000D01*
D99*
X52090000Y-79488581D02*
X52090000Y-66490000D01*
D95*
X60100000Y-99300000D02*
X54199800Y-99300000D01*
D99*
X42775200Y-65795981D02*
X44000000Y-65795981D01*
X52940200Y-94490000D02*
X53950200Y-95500000D01*
D95*
X54150200Y-95700000D02*
X53950200Y-95500000D01*
D99*
X51299800Y-93649800D02*
X51299800Y-87210302D01*
X51299800Y-93649800D02*
X52140000Y-94490000D01*
D95*
X54199800Y-99300000D02*
X51249800Y-96350000D01*
D99*
X51299800Y-87210302D02*
X52000000Y-86510102D01*
X52090000Y-66490000D02*
X51395981Y-65795981D01*
D95*
X51249800Y-93699800D02*
X51299800Y-93649800D01*
D99*
X51395981Y-65795981D02*
X48000000Y-65795981D01*
X41823600Y-62871362D02*
X41823600Y-64844381D01*
D95*
%TO.N,Net-(Q4-E)*%
X64900000Y-92000000D02*
X64900000Y-91400000D01*
D99*
X53750000Y-87850000D02*
X53500000Y-87600000D01*
X52300000Y-62700000D02*
X53590000Y-63990000D01*
D95*
X53500000Y-86990000D02*
X52899800Y-87590200D01*
D99*
X41823600Y-60371362D02*
X41823600Y-61587305D01*
D95*
X64900000Y-91400000D02*
X62600000Y-89100000D01*
D99*
X54600200Y-87850000D02*
X53750000Y-87850000D01*
D95*
X62600000Y-89100000D02*
X57450000Y-89100000D01*
X55800200Y-89100000D02*
X55600200Y-88900000D01*
D99*
X55600200Y-88900000D02*
X55600200Y-88850000D01*
X53590000Y-63990000D02*
X53590000Y-80109900D01*
X53590000Y-80109900D02*
X53500000Y-80199901D01*
D95*
X52899800Y-87590200D02*
X52899800Y-89750000D01*
D99*
X55600200Y-88850000D02*
X54600200Y-87850000D01*
D95*
X57450000Y-89100000D02*
X55800200Y-89100000D01*
D99*
X41823600Y-61587305D02*
X42936295Y-62700000D01*
D95*
X52899800Y-89750000D02*
X55849800Y-92700000D01*
X55849800Y-92700000D02*
X62400000Y-92700000D01*
D99*
X48000000Y-62700000D02*
X52300000Y-62700000D01*
X53500000Y-87600000D02*
X53500000Y-86990000D01*
X39400000Y-57947762D02*
X41823600Y-60371362D01*
X53500000Y-80199901D02*
X53500000Y-86990000D01*
X42936295Y-62700000D02*
X44000000Y-62700000D01*
D95*
%TO.N,Net-(Q5-E)*%
X69100000Y-82200000D02*
X68900000Y-82400000D01*
D99*
X55090000Y-80589800D02*
X55760200Y-81260000D01*
D95*
X59500000Y-82400000D02*
X57700400Y-82400000D01*
D99*
X51101225Y-59379905D02*
X48000000Y-59379905D01*
D95*
X54900000Y-80779800D02*
X54900000Y-82925000D01*
X55090000Y-80589800D02*
X54900000Y-80779800D01*
D99*
X55760200Y-81260000D02*
X56560400Y-81260000D01*
X56560400Y-81260000D02*
X57600400Y-82300000D01*
X55090000Y-63368680D02*
X51101225Y-59379905D01*
D95*
X57700400Y-82400000D02*
X57600400Y-82300000D01*
D99*
X39400000Y-56067724D02*
X42712181Y-59379905D01*
X42712181Y-59379905D02*
X44000000Y-59379905D01*
D95*
X58075000Y-86100000D02*
X64050000Y-86100000D01*
X54900000Y-82925000D02*
X58075000Y-86100000D01*
X68900000Y-82400000D02*
X59500000Y-82400000D01*
D99*
X39400000Y-55447762D02*
X39400000Y-56067724D01*
X55090000Y-80589800D02*
X55090000Y-63368680D01*
D95*
%TO.N,Net-(Q6-E)*%
X66000000Y-79500000D02*
X59800000Y-79500000D01*
D99*
X42736162Y-56283924D02*
X44000000Y-56283924D01*
X56900000Y-73849800D02*
X56900000Y-63057360D01*
X59550400Y-75700000D02*
X58590400Y-74740000D01*
D95*
X59800000Y-79500000D02*
X56850000Y-76550000D01*
D99*
X57790200Y-74740000D02*
X56900000Y-73849800D01*
X56900000Y-63057360D02*
X50126564Y-56283924D01*
D95*
X61450000Y-75900000D02*
X59750400Y-75900000D01*
D99*
X58590400Y-74740000D02*
X57790200Y-74740000D01*
X50126564Y-56283924D02*
X48000000Y-56283924D01*
X39400000Y-52947762D02*
X42736162Y-56283924D01*
D95*
X56850000Y-76550000D02*
X56850000Y-72879800D01*
X59750400Y-75900000D02*
X59550400Y-75700000D01*
X71150000Y-75600000D02*
X70850000Y-75900000D01*
X70850000Y-75900000D02*
X61450000Y-75900000D01*
D99*
%TO.N,Net-(Q7-E)*%
X50176400Y-54212440D02*
X50176400Y-53492143D01*
D95*
X58600000Y-67300000D02*
X58700000Y-67200000D01*
D99*
X42140181Y-53187943D02*
X44000000Y-53187943D01*
D95*
X72800000Y-69000000D02*
X72400000Y-69400000D01*
D99*
X58700000Y-67200000D02*
X58700000Y-62736040D01*
X50176400Y-53492143D02*
X49872200Y-53187943D01*
D95*
X61550000Y-72900000D02*
X58600000Y-69950000D01*
D99*
X59550000Y-68050000D02*
X58700000Y-67200000D01*
D95*
X58600000Y-69950000D02*
X58600000Y-67300000D01*
D99*
X61300400Y-69100000D02*
X60250400Y-68050000D01*
D95*
X63200000Y-69400000D02*
X61600400Y-69400000D01*
X67850000Y-72900000D02*
X61550000Y-72900000D01*
D99*
X60250400Y-68050000D02*
X59550000Y-68050000D01*
X49872200Y-53187943D02*
X48000000Y-53187943D01*
X58700000Y-62736040D02*
X50176400Y-54212440D01*
X39400000Y-50447762D02*
X42140181Y-53187943D01*
D95*
X72400000Y-69400000D02*
X63200000Y-69400000D01*
%TO.N,Net-(Q8-E)*%
X69600000Y-66300000D02*
X63450000Y-66300000D01*
X76600000Y-65000000D02*
X75475000Y-63875000D01*
D99*
X59635280Y-61550000D02*
X62250400Y-61550000D01*
D95*
X64700000Y-62900000D02*
X63600400Y-62900000D01*
X72025000Y-63875000D02*
X69600000Y-66300000D01*
D99*
X41544200Y-50091962D02*
X44000000Y-50091962D01*
D95*
X60450000Y-63300000D02*
X60450000Y-62364720D01*
D99*
X49872200Y-50091962D02*
X51676400Y-51896162D01*
D95*
X63600400Y-62900000D02*
X63200400Y-62500000D01*
D99*
X51676400Y-53591120D02*
X59635280Y-61550000D01*
D95*
X75475000Y-63875000D02*
X72025000Y-63875000D01*
X65100000Y-62900000D02*
X64700000Y-62900000D01*
D99*
X48000000Y-50091962D02*
X49872200Y-50091962D01*
X39400000Y-47947762D02*
X41544200Y-50091962D01*
X51676400Y-51896162D02*
X51676400Y-53591120D01*
D95*
X63450000Y-66300000D02*
X60450000Y-63300000D01*
D99*
X62250400Y-61550000D02*
X63200400Y-62500000D01*
D95*
X60450000Y-62364720D02*
X59635280Y-61550000D01*
%TO.N,Net-(Q9-E)*%
X80500000Y-65000000D02*
X80500000Y-63142300D01*
D99*
X58106600Y-57900000D02*
X61149600Y-57900000D01*
D95*
X61149600Y-57900000D02*
X62899600Y-59650000D01*
X73457700Y-56100000D02*
X69000000Y-56100000D01*
D99*
X40948219Y-46995981D02*
X44000000Y-46995981D01*
D95*
X67300000Y-56100000D02*
X67000000Y-55800000D01*
X62899600Y-59650000D02*
X71450000Y-59650000D01*
D99*
X48000000Y-46995981D02*
X49872200Y-46995981D01*
X61149600Y-57900000D02*
X64199600Y-54850000D01*
X53176400Y-50300181D02*
X53176400Y-52969800D01*
D95*
X69000000Y-56100000D02*
X67300000Y-56100000D01*
X71450000Y-59650000D02*
X71500000Y-59700000D01*
D99*
X39400000Y-45447762D02*
X40948219Y-46995981D01*
X64199600Y-54850000D02*
X66050000Y-54850000D01*
X49872200Y-46995981D02*
X53176400Y-50300181D01*
D95*
X80500000Y-63142300D02*
X73457700Y-56100000D01*
D99*
X66050000Y-54850000D02*
X67000000Y-55800000D01*
X53176400Y-52969800D02*
X58106600Y-57900000D01*
D95*
%TO.N,Net-(Q10-E)*%
X70500400Y-49651000D02*
X70200400Y-49351000D01*
X84400000Y-57593300D02*
X76457700Y-49651000D01*
D99*
X64174600Y-43900000D02*
X67487300Y-47212700D01*
X61010660Y-43900000D02*
X60600000Y-43900000D01*
X39400000Y-42947762D02*
X40352238Y-43900000D01*
X48000000Y-43900000D02*
X64174600Y-43900000D01*
D95*
X67487300Y-50188300D02*
X67487300Y-47212700D01*
X84400000Y-65000000D02*
X84400000Y-57593300D01*
D99*
X68675600Y-48401000D02*
X69250400Y-48401000D01*
X69250400Y-48401000D02*
X70200400Y-49351000D01*
X67487300Y-47212700D02*
X68675600Y-48401000D01*
D95*
X75400000Y-53100000D02*
X70399000Y-53100000D01*
D99*
X40352238Y-43900000D02*
X48000000Y-43900000D01*
D95*
X70399000Y-53100000D02*
X67487300Y-50188300D01*
X72100000Y-49651000D02*
X70500400Y-49651000D01*
X76457700Y-49651000D02*
X72100000Y-49651000D01*
D99*
%TO.N,Net-(Q11-E)*%
X73190660Y-42580000D02*
X73920660Y-41850000D01*
D96*
X79000000Y-43100000D02*
X77350200Y-43100000D01*
D95*
X86600000Y-64025000D02*
X86600000Y-46342300D01*
D99*
X36400000Y-40344200D02*
X39296438Y-40344200D01*
D95*
X88300000Y-65800000D02*
X88300000Y-65725000D01*
D96*
X77350200Y-43100000D02*
X77050200Y-42800000D01*
D95*
X78500000Y-46651000D02*
X77261660Y-46651000D01*
D99*
X76100200Y-41850000D02*
X77050200Y-42800000D01*
D95*
X86600000Y-46342300D02*
X83357700Y-43100000D01*
X83357700Y-43100000D02*
X79000000Y-43100000D01*
D99*
X39296438Y-40344200D02*
X39400000Y-40447762D01*
X73920660Y-41850000D02*
X76100200Y-41850000D01*
D95*
X77261660Y-46651000D02*
X73190660Y-42580000D01*
X88300000Y-65725000D02*
X86600000Y-64025000D01*
%TO.N,Net-(Q12-E)*%
X88550000Y-62600000D02*
X88550000Y-40294200D01*
D99*
X38850000Y-37397762D02*
X39400000Y-37947762D01*
D95*
X88550000Y-40294200D02*
X84755800Y-36500000D01*
X78773800Y-36500000D02*
X78449100Y-36175300D01*
X85400000Y-40100000D02*
X77790660Y-40100000D01*
D99*
X78449100Y-36175300D02*
X77499100Y-35225300D01*
X74915360Y-35225300D02*
X73915660Y-36225000D01*
D95*
X90550000Y-69950000D02*
X90550000Y-64600000D01*
X90800000Y-70200000D02*
X90550000Y-69950000D01*
D99*
X73915660Y-36225000D02*
X73896060Y-36205400D01*
X42494600Y-36205400D02*
X40752238Y-37947762D01*
X40752238Y-37947762D02*
X39400000Y-37947762D01*
X77499100Y-35225300D02*
X74915360Y-35225300D01*
D95*
X84755800Y-36500000D02*
X80500000Y-36500000D01*
X80500000Y-36500000D02*
X78773800Y-36500000D01*
D99*
X36549543Y-37397762D02*
X38850000Y-37397762D01*
D95*
X77790660Y-40100000D02*
X73915660Y-36225000D01*
D99*
X36400000Y-37248219D02*
X36549543Y-37397762D01*
X73896060Y-36205400D02*
X42494600Y-36205400D01*
D95*
X90550000Y-64600000D02*
X88550000Y-62600000D01*
D100*
%TO.N,/Microcontroller/USB_D+*%
X155211236Y-95764551D02*
X154294551Y-95764551D01*
X118700000Y-89600000D02*
X118700000Y-92098200D01*
X121900000Y-86400000D02*
X118700000Y-89600000D01*
X144930000Y-86400000D02*
X121900000Y-86400000D01*
X154294551Y-95764551D02*
X144930000Y-86400000D01*
%TO.N,/Microcontroller/USB_D-*%
X122600000Y-87900000D02*
X120800000Y-89700000D01*
X144600000Y-87900000D02*
X122600000Y-87900000D01*
X155190001Y-97200000D02*
X153900000Y-97200000D01*
X155200000Y-97190001D02*
X155190001Y-97200000D01*
X120800000Y-89700000D02*
X120800000Y-92098200D01*
X153900000Y-97200000D02*
X144600000Y-87900000D01*
D94*
%TO.N,/Microcontroller/SWCLK*%
X123200000Y-118900000D02*
X123200000Y-114900000D01*
X97000000Y-124900000D02*
X100800000Y-121100000D01*
X123200000Y-114900000D02*
X120037500Y-111737500D01*
X120037500Y-111737500D02*
X120037500Y-108800000D01*
X121000000Y-121100000D02*
X123200000Y-118900000D01*
X97000000Y-126940000D02*
X97000000Y-124900000D01*
X98260000Y-128200000D02*
X97000000Y-126940000D01*
X100800000Y-121100000D02*
X121000000Y-121100000D01*
%TO.N,/Microcontroller/SWD*%
X123700000Y-114834314D02*
X120437500Y-111571814D01*
X120437500Y-111571814D02*
X120437500Y-108800000D01*
X121200000Y-121600000D02*
X123700000Y-119100000D01*
X123700000Y-119100000D02*
X123700000Y-114834314D01*
X101500000Y-121600000D02*
X121200000Y-121600000D01*
X98260000Y-125660000D02*
X98260000Y-124840000D01*
X98260000Y-124840000D02*
X101500000Y-121600000D01*
%TO.N,/Battery Stack Monitor/SPI_TX*%
X99950000Y-102950000D02*
X114284315Y-102950000D01*
X93950000Y-108950000D02*
X99950000Y-102950000D01*
X93950000Y-109025000D02*
X93950000Y-108950000D01*
X114496815Y-103162500D02*
X115600000Y-103162500D01*
D96*
X85400000Y-109700000D02*
X82300000Y-109700000D01*
X81500000Y-110500000D02*
X81500000Y-114500000D01*
X82300000Y-109700000D02*
X81500000Y-110500000D01*
D94*
X114284315Y-102950000D02*
X114496815Y-103162500D01*
%TO.N,/Battery Stack Monitor/SPI_CS*%
X94000000Y-112100000D02*
X102537500Y-103562500D01*
X102537500Y-103562500D02*
X115600000Y-103562500D01*
D96*
X83600000Y-112100000D02*
X82500000Y-113200000D01*
X82500000Y-113200000D02*
X82500000Y-114500000D01*
X85400000Y-112100000D02*
X83600000Y-112100000D01*
D94*
%TO.N,/Battery Stack Monitor/SPI_SCLK*%
X99500000Y-108400000D02*
X103937500Y-103962500D01*
X103937500Y-103962500D02*
X115600000Y-103962500D01*
D96*
X81000000Y-109100000D02*
X81000000Y-114500000D01*
D94*
X99400000Y-108400000D02*
X99500000Y-108400000D01*
D96*
X81600000Y-108500000D02*
X81000000Y-109100000D01*
X85400000Y-108500000D02*
X81600000Y-108500000D01*
D99*
%TO.N,Net-(J1-Pad13)*%
X36400000Y-34152238D02*
X38104476Y-34152238D01*
D95*
X93400000Y-73400000D02*
X92300000Y-72300000D01*
X93400000Y-74600000D02*
X93400000Y-73400000D01*
X48024874Y-34300000D02*
X59775126Y-34300000D01*
X86820000Y-33320000D02*
X87000000Y-33500000D01*
D99*
X86725300Y-33225300D02*
X87000000Y-33500000D01*
D95*
X60100126Y-34625000D02*
X73535762Y-34625000D01*
X89600000Y-61950000D02*
X89600000Y-36100000D01*
X91450000Y-67950000D02*
X91450000Y-63800000D01*
X46425126Y-34450000D02*
X47874874Y-34450000D01*
D99*
X38104476Y-34152238D02*
X39400000Y-35447762D01*
D95*
X74840762Y-33320000D02*
X86820000Y-33320000D01*
X39400000Y-35447762D02*
X40547762Y-34300000D01*
X59775126Y-34300000D02*
X60100126Y-34625000D01*
X89600000Y-36100000D02*
X87000000Y-33500000D01*
X40547762Y-34300000D02*
X46275126Y-34300000D01*
X92300000Y-68800000D02*
X91450000Y-67950000D01*
X91450000Y-63800000D02*
X89600000Y-61950000D01*
X73535762Y-34625000D02*
X74840762Y-33320000D01*
X47874874Y-34450000D02*
X48024874Y-34300000D01*
X92300000Y-72300000D02*
X92300000Y-68800000D01*
X46275126Y-34300000D02*
X46425126Y-34450000D01*
D99*
%TO.N,Net-(LED1-K)*%
X49750000Y-78646601D02*
X49750000Y-85436700D01*
X49750000Y-85436700D02*
X49049800Y-86136900D01*
X49049800Y-100621272D02*
X47900000Y-101771072D01*
X49049800Y-86136900D02*
X49049800Y-100621272D01*
D95*
X53600000Y-107200000D02*
X49000000Y-107200000D01*
D99*
X48000000Y-70149914D02*
X49299914Y-70149914D01*
X49840000Y-70690000D02*
X49840000Y-78556601D01*
D95*
X49000000Y-107200000D02*
X48700000Y-106900000D01*
D99*
X49840000Y-78556601D02*
X49750000Y-78646601D01*
X49299914Y-70149914D02*
X49840000Y-70690000D01*
X47900000Y-106100000D02*
X48700000Y-106900000D01*
X47900000Y-101771072D02*
X47900000Y-106100000D01*
D95*
%TO.N,Net-(LED1-A)*%
X56200000Y-108000000D02*
X55400000Y-107200000D01*
X58000000Y-108000000D02*
X56200000Y-108000000D01*
D99*
%TO.N,Net-(LED2-K)*%
X51250000Y-86199442D02*
X51250000Y-79267921D01*
X50549800Y-86899642D02*
X51250000Y-86199442D01*
X51250000Y-79267921D02*
X51340000Y-79177921D01*
X50800000Y-100100000D02*
X50549800Y-99849800D01*
X51340000Y-79177921D02*
X51340000Y-67791781D01*
X51340000Y-67791781D02*
X50600000Y-67051781D01*
D95*
X55700000Y-100500000D02*
X51200000Y-100500000D01*
X51200000Y-100500000D02*
X50800000Y-100100000D01*
D99*
X50600000Y-67051781D02*
X48000000Y-67051781D01*
X50549800Y-99849800D02*
X50549800Y-86899642D01*
D95*
%TO.N,Net-(LED2-A)*%
X57500000Y-100500000D02*
X59300000Y-100500000D01*
X59300000Y-100500000D02*
X60100000Y-101300000D01*
D99*
%TO.N,Net-(LED3-K)*%
X53000000Y-93500000D02*
X53000000Y-90769438D01*
X52249800Y-87320962D02*
X52550000Y-87020762D01*
X52840000Y-79799240D02*
X52840000Y-65240000D01*
D95*
X53400000Y-93900000D02*
X53000000Y-93500000D01*
D99*
X53000000Y-90769438D02*
X52249800Y-90019238D01*
X52750000Y-86820762D02*
X52750000Y-79889241D01*
D95*
X58000000Y-93900000D02*
X53400000Y-93900000D01*
D99*
X52550000Y-87020762D02*
X52750000Y-86820762D01*
X52840000Y-65240000D02*
X51555800Y-63955800D01*
X52750000Y-79889241D02*
X52840000Y-79799240D01*
X51555800Y-63955800D02*
X48000000Y-63955800D01*
X52249800Y-90019238D02*
X52249800Y-87320962D01*
D95*
%TO.N,Net-(LED3-A)*%
X60600000Y-94700000D02*
X59800000Y-93900000D01*
X62400000Y-94700000D02*
X60600000Y-94700000D01*
D99*
%TO.N,Net-(LED4-K)*%
X54340000Y-63679340D02*
X51296365Y-60635705D01*
X54340000Y-80420560D02*
X54340000Y-63679340D01*
D95*
X59650000Y-87300000D02*
X55050000Y-87300000D01*
X55050000Y-87300000D02*
X54650000Y-86900000D01*
D99*
X54650000Y-86900000D02*
X54650000Y-83594238D01*
X51296365Y-60635705D02*
X48000000Y-60635705D01*
X54250000Y-80510561D02*
X54340000Y-80420560D01*
X54250000Y-83194238D02*
X54250000Y-80510561D01*
X54650000Y-83594238D02*
X54250000Y-83194238D01*
D95*
%TO.N,Net-(LED4-A)*%
X62250000Y-88100000D02*
X61450000Y-87300000D01*
X64050000Y-88100000D02*
X62250000Y-88100000D01*
D99*
%TO.N,Net-(LED5-K)*%
X56200000Y-79849800D02*
X56200000Y-74210460D01*
X56150000Y-74160460D02*
X56150000Y-63368020D01*
X56150000Y-63368020D02*
X50321704Y-57539724D01*
D95*
X61600000Y-80600000D02*
X56950200Y-80600000D01*
D99*
X50321704Y-57539724D02*
X48000000Y-57539724D01*
D95*
X56950200Y-80600000D02*
X56650200Y-80300000D01*
D99*
X56200000Y-74210460D02*
X56150000Y-74160460D01*
X56650200Y-80300000D02*
X56200000Y-79849800D01*
D95*
%TO.N,Net-(LED5-A)*%
X65100000Y-80600000D02*
X66000000Y-81500000D01*
X63400000Y-80600000D02*
X65100000Y-80600000D01*
D99*
%TO.N,Net-(LED6-K)*%
X48000000Y-54443743D02*
X49347043Y-54443743D01*
X57950000Y-73049800D02*
X58600200Y-73700000D01*
D95*
X63450000Y-74100000D02*
X59000200Y-74100000D01*
X59000200Y-74100000D02*
X58600200Y-73700000D01*
D99*
X49347043Y-54443743D02*
X57950000Y-63046700D01*
X57950000Y-63046700D02*
X57950000Y-73049800D01*
D95*
%TO.N,Net-(LED6-A)*%
X67050000Y-74100000D02*
X67850000Y-74900000D01*
X65250000Y-74100000D02*
X67050000Y-74100000D01*
D99*
%TO.N,Net-(LED7-K)*%
X59850000Y-62825380D02*
X59850000Y-66599800D01*
X48000000Y-51347762D02*
X49092679Y-51347762D01*
X50926400Y-53181483D02*
X50926400Y-53901780D01*
D95*
X65200000Y-67600000D02*
X60850200Y-67600000D01*
X60850200Y-67600000D02*
X60350200Y-67100000D01*
D99*
X49092679Y-51347762D02*
X50926400Y-53181483D01*
X59850000Y-66599800D02*
X60350200Y-67100000D01*
X50926400Y-53901780D02*
X59850000Y-62825380D01*
D95*
%TO.N,Net-(LED7-A)*%
X68900000Y-67600000D02*
X69600000Y-68300000D01*
X67000000Y-67600000D02*
X68900000Y-67600000D01*
D99*
%TO.N,Net-(LED8-K)*%
X48000000Y-48251781D02*
X49151781Y-48251781D01*
D95*
X67100000Y-61100000D02*
X62850200Y-61100000D01*
X62850200Y-61100000D02*
X62250200Y-60500000D01*
D99*
X52426400Y-51585502D02*
X52426400Y-53280460D01*
X52426400Y-53280460D02*
X59106642Y-59960702D01*
X49426400Y-48526400D02*
X49426400Y-48585502D01*
X49151781Y-48251781D02*
X49426400Y-48526400D01*
X59106642Y-59960702D02*
X61710902Y-59960702D01*
X49426400Y-48585502D02*
X52426400Y-51585502D01*
X61710902Y-59960702D02*
X62250200Y-60500000D01*
D95*
%TO.N,Net-(LED8-A)*%
X68900000Y-61100000D02*
X70900000Y-61100000D01*
X70900000Y-61100000D02*
X71500000Y-61700000D01*
%TO.N,Net-(LED9-K)*%
X66549800Y-54300000D02*
X66049800Y-53800000D01*
D99*
X64369740Y-45155800D02*
X66049800Y-46835860D01*
X66049800Y-46835860D02*
X66049800Y-53800000D01*
X48000000Y-45155800D02*
X64369740Y-45155800D01*
D95*
X71000000Y-54300000D02*
X66549800Y-54300000D01*
%TO.N,Net-(LED9-A)*%
X73600000Y-55100000D02*
X72800000Y-54300000D01*
X75400000Y-55100000D02*
X73600000Y-55100000D01*
%TO.N,Net-(LED10-K)*%
X69750200Y-47851000D02*
X69250200Y-47351000D01*
D99*
X36547762Y-41747762D02*
X39897057Y-41747762D01*
X39897057Y-41747762D02*
X41097695Y-42948400D01*
D95*
X74200000Y-47851000D02*
X69750200Y-47851000D01*
D99*
X50378000Y-43150000D02*
X65049200Y-43150000D01*
X36400000Y-41600000D02*
X36547762Y-41747762D01*
X41097695Y-42948400D02*
X50176400Y-42948400D01*
X50176400Y-42948400D02*
X50378000Y-43150000D01*
X65049200Y-43150000D02*
X69250200Y-47351000D01*
D95*
%TO.N,Net-(LED10-A)*%
X78500000Y-48651000D02*
X76800000Y-48651000D01*
X76800000Y-48651000D02*
X76000000Y-47851000D01*
D96*
%TO.N,Net-(LED11-K)*%
X81000000Y-41300000D02*
X76600000Y-41300000D01*
X76600000Y-41300000D02*
X76100000Y-40800000D01*
D95*
%TO.N,Net-(LED11-A)*%
X85400000Y-42100000D02*
X83600000Y-42100000D01*
X83600000Y-42100000D02*
X82800000Y-41300000D01*
D99*
%TO.N,Net-(LED12-K)*%
X74904700Y-34175300D02*
X77498900Y-34175300D01*
X48294113Y-34950000D02*
X59505887Y-34950000D01*
X36400000Y-35408038D02*
X37663219Y-35408038D01*
X41444819Y-35100000D02*
X48144113Y-35100000D01*
X39897057Y-36647762D02*
X41444819Y-35100000D01*
X37663219Y-35408038D02*
X38902943Y-36647762D01*
X38902943Y-36647762D02*
X39897057Y-36647762D01*
X36400000Y-35408038D02*
X37710981Y-35408038D01*
D95*
X78003600Y-34680000D02*
X77498900Y-34175300D01*
X82629100Y-34680000D02*
X78003600Y-34680000D01*
X82649100Y-34700000D02*
X82629100Y-34680000D01*
D99*
X48144113Y-35100000D02*
X48294113Y-34950000D01*
X59830887Y-35275000D02*
X73805000Y-35275000D01*
X59505887Y-34950000D02*
X59830887Y-35275000D01*
X73805000Y-35275000D02*
X74904700Y-34175300D01*
D95*
%TO.N,Net-(LED12-A)*%
X87000000Y-35500000D02*
X85249100Y-35500000D01*
X85249100Y-35500000D02*
X84449100Y-34700000D01*
D96*
%TO.N,Net-(J3-CC1_A)*%
X165000000Y-95940000D02*
X165200000Y-95940000D01*
X165200000Y-95940000D02*
X166300000Y-94840000D01*
D95*
%TO.N,/Battery Stack Monitor/C12*%
X89049999Y-83250001D02*
X86800000Y-83250001D01*
X89049999Y-83250001D02*
X93051000Y-79249000D01*
X91400000Y-74600000D02*
X93051000Y-76251000D01*
X93051000Y-76251000D02*
X93051000Y-76800000D01*
X93051000Y-79249000D02*
X93051000Y-76800000D01*
%TO.N,/Battery Stack Monitor/C11*%
X89550000Y-69450000D02*
X89550000Y-65100000D01*
X90525000Y-75925000D02*
X91400000Y-76800000D01*
X89550000Y-65100000D02*
X87600000Y-63150000D01*
X90551000Y-72400000D02*
X90525000Y-72426000D01*
X88800000Y-70200000D02*
X90551000Y-71951000D01*
X88900000Y-82600000D02*
X86800000Y-82600000D01*
X85100000Y-37800000D02*
X84150900Y-37800000D01*
X85575000Y-89975000D02*
X88800000Y-93200000D01*
X85675000Y-82600000D02*
X85575000Y-82700000D01*
X91400000Y-76800000D02*
X91400000Y-80100000D01*
X90551000Y-71951000D02*
X90551000Y-72400000D01*
X90525000Y-72426000D02*
X90525000Y-75925000D01*
X86800000Y-82600000D02*
X85675000Y-82600000D01*
X87600000Y-63150000D02*
X87600000Y-40300000D01*
X91400000Y-80100000D02*
X88900000Y-82600000D01*
X85575000Y-82700000D02*
X85575000Y-89975000D01*
X88800000Y-70200000D02*
X89550000Y-69450000D01*
X87600000Y-40300000D02*
X85100000Y-37800000D01*
X88800000Y-93200000D02*
X88838850Y-93200000D01*
%TO.N,/Battery Stack Monitor/C10*%
X84200000Y-45847200D02*
X84200000Y-55900000D01*
X85025000Y-91886150D02*
X86338850Y-93200000D01*
X87951000Y-68000000D02*
X87925000Y-68026000D01*
X88900000Y-73144500D02*
X89200000Y-73444500D01*
X84200000Y-55900000D02*
X85600000Y-57300000D01*
X89200000Y-81342182D02*
X88592181Y-81950001D01*
X89200000Y-73444500D02*
X89200000Y-81342182D01*
X88592181Y-81950001D02*
X86800000Y-81950001D01*
X86300000Y-65800000D02*
X86300000Y-66120000D01*
X85600000Y-57300000D02*
X85600000Y-65100000D01*
X85025000Y-82472182D02*
X85025000Y-91886150D01*
X86300000Y-66120000D02*
X87951000Y-67771000D01*
X88900000Y-72400000D02*
X88900000Y-73144500D01*
X82701800Y-44349000D02*
X84200000Y-45847200D01*
X88900000Y-72200000D02*
X88900000Y-72400000D01*
X87925000Y-71425000D02*
X88900000Y-72400000D01*
X87951000Y-67771000D02*
X87951000Y-68000000D01*
X85547181Y-81950001D02*
X85025000Y-82472182D01*
X87925000Y-68026000D02*
X87925000Y-71425000D01*
X85600000Y-65100000D02*
X86300000Y-65800000D01*
X86800000Y-81950001D02*
X85547181Y-81950001D01*
%TO.N,/Battery Stack Monitor/C9*%
X86800000Y-81300000D02*
X85419364Y-81300000D01*
X82400000Y-65320000D02*
X84051000Y-66971000D01*
X84475000Y-82244365D02*
X84475000Y-92563850D01*
X85500000Y-67200000D02*
X86300000Y-68000000D01*
X88650000Y-75472183D02*
X88650000Y-81050000D01*
X85419364Y-81300000D02*
X84475000Y-82244365D01*
X84475000Y-92563850D02*
X83838850Y-93200000D01*
X84051000Y-66971000D02*
X84051000Y-67200000D01*
X84051000Y-67200000D02*
X85500000Y-67200000D01*
X88650000Y-81050000D02*
X88400000Y-81300000D01*
X75801800Y-50900000D02*
X82400000Y-57498200D01*
X82400000Y-57498200D02*
X82400000Y-65000000D01*
X86300000Y-68000000D02*
X86300000Y-73122182D01*
X86300000Y-73122182D02*
X88650000Y-75472183D01*
X82400000Y-65000000D02*
X82400000Y-65320000D01*
X88400000Y-81300000D02*
X86800000Y-81300000D01*
%TO.N,/Battery Stack Monitor/C8*%
X78500000Y-65000000D02*
X78500000Y-66025000D01*
X82400000Y-67200000D02*
X80151000Y-67200000D01*
X83925000Y-82016547D02*
X83925000Y-89275000D01*
X78500000Y-63047200D02*
X72701800Y-57249000D01*
X82400000Y-67200000D02*
X82400000Y-70000000D01*
X85291546Y-80650001D02*
X83925000Y-82016547D01*
X78500000Y-66025000D02*
X78830500Y-66355500D01*
X81338850Y-91861150D02*
X81338850Y-93200000D01*
X82400000Y-70000000D02*
X88100000Y-75700000D01*
X78500000Y-65000000D02*
X78500000Y-63047200D01*
X80151000Y-66971000D02*
X80151000Y-67200000D01*
X83925000Y-89275000D02*
X81338850Y-91861150D01*
X88100000Y-75700000D02*
X88100000Y-80475001D01*
X79535500Y-66355500D02*
X80151000Y-66971000D01*
X87925000Y-80650001D02*
X86800000Y-80650001D01*
X88100000Y-80475001D02*
X87925000Y-80650001D01*
X78830500Y-66355500D02*
X79535500Y-66355500D01*
X86800000Y-80650001D02*
X85291546Y-80650001D01*
%TO.N,/Battery Stack Monitor/C7*%
X82424999Y-81917181D02*
X81157819Y-80650001D01*
X78716117Y-80650001D02*
X78300000Y-80233884D01*
X78500000Y-67200000D02*
X76251000Y-67200000D01*
X75630500Y-66355500D02*
X76251000Y-66976000D01*
X78838850Y-91765903D02*
X82424999Y-88179754D01*
X74930500Y-66355500D02*
X75630500Y-66355500D01*
X82424999Y-88179754D02*
X82424999Y-81917181D01*
X78300000Y-80233884D02*
X78300000Y-69249000D01*
X79549999Y-80650001D02*
X78716117Y-80650001D01*
X69252800Y-64400000D02*
X68801800Y-63949000D01*
X78300000Y-69249000D02*
X76251000Y-67200000D01*
X81157819Y-80650001D02*
X79549999Y-80650001D01*
X74600000Y-66025000D02*
X74930500Y-66355500D01*
X76251000Y-66976000D02*
X76251000Y-67200000D01*
X74600000Y-65000000D02*
X74600000Y-66025000D01*
X78838850Y-93200000D02*
X78838850Y-91765903D01*
%TO.N,/Battery Stack Monitor/C6*%
X73349000Y-71000000D02*
X75000000Y-69349000D01*
X72249000Y-70449000D02*
X72800000Y-71000000D01*
X77750000Y-72099000D02*
X75000000Y-69349000D01*
X81874999Y-87951936D02*
X81874999Y-82144999D01*
X76338850Y-93200000D02*
X76626935Y-93200000D01*
X78552816Y-81300000D02*
X77750000Y-80497184D01*
X66901800Y-70449000D02*
X72249000Y-70449000D01*
X76626935Y-93200000D02*
X81874999Y-87951936D01*
X74600000Y-67200000D02*
X74600000Y-68949000D01*
X79549999Y-81300000D02*
X78552816Y-81300000D01*
X72800000Y-71000000D02*
X73349000Y-71000000D01*
X77750000Y-80497184D02*
X77750000Y-72099000D01*
X81030000Y-81300000D02*
X79549999Y-81300000D01*
X81874999Y-82144999D02*
X81030000Y-81300000D01*
X74600000Y-68949000D02*
X75000000Y-69349000D01*
%TO.N,/Battery Stack Monitor/C5*%
X73838850Y-93200000D02*
X75338850Y-91700000D01*
X75000000Y-71000000D02*
X75000000Y-74249000D01*
X80802818Y-81950001D02*
X79549999Y-81950001D01*
X75000000Y-74249000D02*
X73300000Y-75949000D01*
X71649000Y-77600000D02*
X73300000Y-75949000D01*
X79549999Y-81950001D02*
X78424999Y-81950001D01*
X71150000Y-77600000D02*
X65751800Y-77600000D01*
X74810000Y-77300000D02*
X73459000Y-75949000D01*
X78424999Y-81950001D02*
X74810000Y-78335002D01*
X81324999Y-87724119D02*
X81324999Y-82472182D01*
X81324999Y-82472182D02*
X80802818Y-81950001D01*
X74810000Y-78335002D02*
X74810000Y-77300000D01*
X73459000Y-75949000D02*
X73300000Y-75949000D01*
X75338850Y-91700000D02*
X77349118Y-91700000D01*
X77349118Y-91700000D02*
X81324999Y-87724119D01*
X71150000Y-77600000D02*
X71150000Y-77576768D01*
X65751800Y-77600000D02*
X65151800Y-77000000D01*
X71150000Y-77600000D02*
X71649000Y-77600000D01*
%TO.N,/Battery Stack Monitor/C4*%
X69649000Y-84200000D02*
X71300000Y-82549000D01*
X80674999Y-82600000D02*
X79549999Y-82600000D01*
X80774999Y-87496301D02*
X80774999Y-82700000D01*
X73300000Y-79700000D02*
X71300000Y-81700000D01*
X79549999Y-82600000D02*
X77737818Y-82600000D01*
X77737818Y-82600000D02*
X77117818Y-81980000D01*
X63801800Y-84200000D02*
X63201800Y-83600000D01*
X69100000Y-84200000D02*
X69649000Y-84200000D01*
X69100000Y-84200000D02*
X63801800Y-84200000D01*
X71869000Y-81980000D02*
X71300000Y-82549000D01*
X73638850Y-90900000D02*
X77371300Y-90900000D01*
X80774999Y-82700000D02*
X80674999Y-82600000D01*
X73300000Y-77600000D02*
X73300000Y-79700000D01*
X77371300Y-90900000D02*
X80774999Y-87496301D01*
X71300000Y-81700000D02*
X71300000Y-82549000D01*
X71338850Y-93200000D02*
X73638850Y-90900000D01*
X77117818Y-81980000D02*
X71869000Y-81980000D01*
%TO.N,/Battery Stack Monitor/C3*%
X72044500Y-84200000D02*
X73714500Y-82530000D01*
X64600000Y-95874500D02*
X64600000Y-94300000D01*
X63400000Y-91500000D02*
X62451800Y-91500000D01*
X77610001Y-83250001D02*
X79549999Y-83250001D01*
X62451800Y-91500000D02*
X61151800Y-90200000D01*
X68838850Y-93200000D02*
X65700000Y-93200000D01*
X64900000Y-94000000D02*
X71300000Y-87600000D01*
X71300000Y-84200000D02*
X72044500Y-84200000D01*
X65700000Y-93200000D02*
X64900000Y-94000000D01*
X64600000Y-94300000D02*
X64900000Y-94000000D01*
X73714500Y-82530000D02*
X76890000Y-82530000D01*
X71300000Y-87600000D02*
X71300000Y-84200000D01*
X64900000Y-94000000D02*
X63825000Y-92925000D01*
X63825000Y-91925000D02*
X63400000Y-91500000D01*
X76890000Y-82530000D02*
X77610001Y-83250001D01*
X63825000Y-92925000D02*
X63825000Y-91925000D01*
%TO.N,/Battery Stack Monitor/C2*%
X64600000Y-97525500D02*
X64900000Y-97825500D01*
X78112000Y-108012000D02*
X75000000Y-104900000D01*
X62600000Y-101300000D02*
X63249000Y-101300000D01*
X75000000Y-104900000D02*
X70151000Y-104900000D01*
X59401800Y-96800000D02*
X60001800Y-97400000D01*
X70151000Y-104900000D02*
X64900000Y-99649000D01*
X63249000Y-101300000D02*
X64900000Y-99649000D01*
X66384650Y-97525500D02*
X66581450Y-97328700D01*
X60001800Y-97400000D02*
X62651000Y-97400000D01*
X62651000Y-97400000D02*
X64900000Y-99649000D01*
X64600000Y-97525500D02*
X66384650Y-97525500D01*
X79012000Y-108012000D02*
X78112000Y-108012000D01*
X64900000Y-97825500D02*
X64900000Y-99649000D01*
%TO.N,/Battery Stack Monitor/C1*%
X62800000Y-103400000D02*
X64900000Y-101300000D01*
X59101800Y-105200000D02*
X57301800Y-103400000D01*
X62800000Y-103549000D02*
X62800000Y-103400000D01*
X79012000Y-108512000D02*
X77712000Y-108512000D01*
X77712000Y-108512000D02*
X75200000Y-106000000D01*
X61149000Y-105200000D02*
X62800000Y-103549000D01*
X60500000Y-105200000D02*
X61149000Y-105200000D01*
X60500000Y-105200000D02*
X59101800Y-105200000D01*
X65251000Y-106000000D02*
X62800000Y-103549000D01*
X75200000Y-106000000D02*
X65251000Y-106000000D01*
%TO.N,/Battery Stack Monitor/C0*%
X61700000Y-107700000D02*
X61700000Y-106300000D01*
X77412000Y-109012000D02*
X79012000Y-109012000D01*
X60500000Y-108900000D02*
X61700000Y-107700000D01*
X60300000Y-108900000D02*
X60500000Y-108900000D01*
X60500000Y-108900000D02*
X62700000Y-108900000D01*
X62800000Y-105200000D02*
X64700000Y-107100000D01*
X64700000Y-107100000D02*
X75500000Y-107100000D01*
X55201800Y-110100000D02*
X55501800Y-109800000D01*
X75500000Y-107100000D02*
X77412000Y-109012000D01*
X55501800Y-109800000D02*
X59400000Y-109800000D01*
X61700000Y-106300000D02*
X62800000Y-105200000D01*
X59400000Y-109800000D02*
X60300000Y-108900000D01*
D96*
%TO.N,/Battery Stack Monitor/SPI_RX*%
X85400000Y-110900000D02*
X83555639Y-110900000D01*
X82000000Y-112455639D02*
X82000000Y-114500000D01*
D94*
X99100000Y-111000000D02*
X105737500Y-104362500D01*
D96*
X83555639Y-110900000D02*
X82000000Y-112455639D01*
D94*
X105737500Y-104362500D02*
X115600000Y-104362500D01*
D99*
%TO.N,Net-(U7-VOUT)*%
X159832998Y-58900000D02*
X155151000Y-58900000D01*
X161600000Y-57132998D02*
X159832998Y-58900000D01*
X155100000Y-58849000D02*
X155100000Y-56996602D01*
X155151000Y-58900000D02*
X155100000Y-58849000D01*
D96*
%TO.N,/Battery Stack Monitor/ALERT*%
X81075000Y-107325000D02*
X80500000Y-107900000D01*
D94*
X107437500Y-104762500D02*
X115600000Y-104762500D01*
X100400000Y-111800000D02*
X107437500Y-104762500D01*
D96*
X80500000Y-107900000D02*
X80500000Y-114500000D01*
X85349993Y-107325000D02*
X81075000Y-107325000D01*
%TO.N,Net-(J3-CC1_B)*%
X166210000Y-98940000D02*
X166300000Y-99030000D01*
X164810000Y-98940000D02*
X166210000Y-98940000D01*
X166300000Y-99030000D02*
X166300000Y-99440000D01*
D95*
%TO.N,/Battery Stack Monitor/RST_SHUT*%
X84500000Y-116400000D02*
X84500000Y-114500000D01*
D94*
X101100000Y-113200000D02*
X109137500Y-105162500D01*
X109137500Y-105162500D02*
X115600000Y-105162500D01*
D95*
X85000000Y-116900000D02*
X84500000Y-116400000D01*
D94*
%TO.N,/External Connections and Sensing/RGB_DIN*%
X112600000Y-105762500D02*
X112800000Y-105562500D01*
X112800000Y-105562500D02*
X115600000Y-105562500D01*
%TO.N,/Microcontroller/GPIO12*%
X91900000Y-125100000D02*
X97900000Y-119100000D01*
X106452837Y-119100000D02*
X116437500Y-109115337D01*
X91900000Y-126920000D02*
X91900000Y-125100000D01*
X93180000Y-128200000D02*
X91900000Y-126920000D01*
X97900000Y-119100000D02*
X106452837Y-119100000D01*
X116437500Y-109115337D02*
X116437500Y-108800000D01*
%TO.N,/Microcontroller/GPIO13*%
X116837500Y-109333860D02*
X116837500Y-108800000D01*
X106571360Y-119600000D02*
X116837500Y-109333860D01*
X93180000Y-125660000D02*
X93180000Y-124920000D01*
X98500000Y-119600000D02*
X106571360Y-119600000D01*
X93180000Y-124920000D02*
X98500000Y-119600000D01*
%TO.N,/Microcontroller/GPIO14*%
X106637045Y-120100000D02*
X117237500Y-109499545D01*
X117237500Y-109499545D02*
X117237500Y-108800000D01*
X95720000Y-128200000D02*
X94500000Y-126980000D01*
X99400000Y-120100000D02*
X106637045Y-120100000D01*
X94500000Y-125000000D02*
X99400000Y-120100000D01*
X94500000Y-126980000D02*
X94500000Y-125000000D01*
%TO.N,/Microcontroller/GPIO15*%
X95720000Y-125660000D02*
X95720000Y-124880000D01*
X95720000Y-124880000D02*
X100000000Y-120600000D01*
X117637500Y-109665230D02*
X117637500Y-108800000D01*
X106702730Y-120600000D02*
X117637500Y-109665230D01*
X100000000Y-120600000D02*
X106702730Y-120600000D01*
%TO.N,/External Connections and Sensing/TEMP_CORE*%
X127400000Y-90500000D02*
X127400000Y-102327300D01*
X127400000Y-102327300D02*
X126564800Y-103162500D01*
X126564800Y-103162500D02*
X122475000Y-103162500D01*
%TO.N,/Microcontroller/GPIO28_ADC2*%
X131000000Y-95560900D02*
X132760900Y-95560900D01*
X132800000Y-99300000D02*
X131000000Y-99300000D01*
X132800000Y-95600000D02*
X132800000Y-99300000D01*
X126737500Y-103562500D02*
X122475000Y-103562500D01*
X132800000Y-93600000D02*
X132800000Y-95600000D01*
X131000000Y-99300000D02*
X126737500Y-103562500D01*
X132760900Y-95560900D02*
X132800000Y-95600000D01*
%TO.N,/Microcontroller/GPIO20*%
X108420000Y-128200000D02*
X107100000Y-126880000D01*
X123612500Y-107600454D02*
X123174546Y-107162500D01*
X123100000Y-110168628D02*
X123100000Y-108837045D01*
X123612500Y-108324545D02*
X123612500Y-107600454D01*
X126200000Y-113268628D02*
X123100000Y-110168628D01*
X107100000Y-126880000D02*
X107100000Y-124800000D01*
X123174546Y-107162500D02*
X122475000Y-107162500D01*
X122161618Y-124100000D02*
X126200000Y-120061618D01*
X123100000Y-108837045D02*
X123612500Y-108324545D01*
X126200000Y-120061618D02*
X126200000Y-113268628D01*
X107100000Y-124800000D02*
X107800000Y-124100000D01*
X107800000Y-124100000D02*
X122161618Y-124100000D01*
%TO.N,/Microcontroller/GPIO19*%
X122600000Y-110234314D02*
X122600000Y-108771360D01*
X105880000Y-124920000D02*
X107200000Y-123600000D01*
X122600000Y-108771360D02*
X123212500Y-108158860D01*
X125700000Y-113334314D02*
X122600000Y-110234314D01*
X123008860Y-107562500D02*
X122475000Y-107562500D01*
X123212500Y-107766140D02*
X123008860Y-107562500D01*
X123212500Y-108158860D02*
X123212500Y-107766140D01*
X107200000Y-123600000D02*
X121997966Y-123600000D01*
X105880000Y-125660000D02*
X105880000Y-124920000D01*
X121997966Y-123600000D02*
X125700000Y-119897966D01*
X125700000Y-119897966D02*
X125700000Y-113334314D01*
%TO.N,/Microcontroller/GPIO18*%
X125200000Y-113447349D02*
X125200000Y-119700000D01*
X106400000Y-123100000D02*
X104600000Y-124900000D01*
X122037500Y-108400000D02*
X122037500Y-110284849D01*
X121800000Y-123100000D02*
X106400000Y-123100000D01*
X104600000Y-124900000D02*
X104600000Y-126920000D01*
X125200000Y-119700000D02*
X121800000Y-123100000D01*
X122037500Y-110284849D02*
X125200000Y-113447349D01*
X104600000Y-126920000D02*
X105880000Y-128200000D01*
X122475000Y-107962500D02*
X122037500Y-108400000D01*
%TO.N,/Microcontroller/GPIO17*%
X100800000Y-124900000D02*
X103100000Y-122600000D01*
X121600000Y-122600000D02*
X124700000Y-119500000D01*
X121637500Y-110450535D02*
X121637500Y-108800000D01*
X103100000Y-122600000D02*
X121600000Y-122600000D01*
X124700000Y-113513035D02*
X121637500Y-110450535D01*
X124700000Y-119500000D02*
X124700000Y-113513035D01*
X100800000Y-125660000D02*
X100800000Y-124900000D01*
%TO.N,/Microcontroller/GPIO16*%
X124200000Y-113578721D02*
X121237500Y-110616221D01*
X121237500Y-110616221D02*
X121237500Y-108800000D01*
X99500000Y-124500000D02*
X101900000Y-122100000D01*
X100800000Y-128200000D02*
X99500000Y-126900000D01*
X121400000Y-122100000D02*
X124200000Y-119300000D01*
X99500000Y-126900000D02*
X99500000Y-124500000D01*
X101900000Y-122100000D02*
X121400000Y-122100000D01*
X124200000Y-119300000D02*
X124200000Y-113578721D01*
%TO.N,/Microcontroller/RUN*%
X120837500Y-111137500D02*
X120837500Y-108800000D01*
X131400000Y-113900000D02*
X134499996Y-113900000D01*
X134499996Y-113900000D02*
X134999996Y-113400000D01*
X130900000Y-113400000D02*
X131400000Y-113900000D01*
X130012089Y-112512089D02*
X130900000Y-113400000D01*
X122207108Y-112492892D02*
X122192892Y-112492892D01*
X129706134Y-112512089D02*
X130012089Y-112512089D01*
X122192892Y-112492892D02*
X120837500Y-111137500D01*
D99*
%TO.N,/Battery Stack Monitor/-BATT*%
X46900000Y-76400000D02*
X43200000Y-80100000D01*
X43200000Y-84800000D02*
X46200000Y-87800000D01*
X46200000Y-87800000D02*
X46200000Y-109200200D01*
X48799800Y-111800000D02*
X62000000Y-111800000D01*
X64412000Y-109388000D02*
X68512000Y-109388000D01*
X46200000Y-109200200D02*
X48799800Y-111800000D01*
X43200000Y-80100000D02*
X43200000Y-84800000D01*
X62000000Y-111800000D02*
X64412000Y-109388000D01*
D95*
%TO.N,Net-(Q2-B)*%
X49849800Y-102100000D02*
X51449800Y-103700000D01*
X55600000Y-103400000D02*
X53900000Y-103400000D01*
X51449800Y-103700000D02*
X53600000Y-103700000D01*
X53900000Y-103400000D02*
X53600000Y-103700000D01*
%TO.N,Net-(Q3-B)*%
X57700000Y-96800000D02*
X56100000Y-96800000D01*
X53649800Y-97100000D02*
X55800000Y-97100000D01*
X56100000Y-96800000D02*
X55800000Y-97100000D01*
X52049800Y-95500000D02*
X53649800Y-97100000D01*
%TO.N,Net-(Q4-B)*%
X57450000Y-90500000D02*
X55299800Y-90500000D01*
X59450000Y-90200000D02*
X57750000Y-90200000D01*
X57750000Y-90200000D02*
X57450000Y-90500000D01*
X55299800Y-90500000D02*
X53699800Y-88900000D01*
%TO.N,Net-(Q5-B)*%
X61500000Y-83600000D02*
X59700000Y-83600000D01*
X57200000Y-83800000D02*
X59500000Y-83800000D01*
X55700000Y-82300000D02*
X57200000Y-83800000D01*
X59700000Y-83600000D02*
X59500000Y-83800000D01*
%TO.N,Net-(Q6-B)*%
X59250000Y-77300000D02*
X61450000Y-77300000D01*
X63450000Y-77000000D02*
X61750000Y-77000000D01*
X61750000Y-77000000D02*
X61450000Y-77300000D01*
X57650000Y-75700000D02*
X59250000Y-77300000D01*
%TO.N,Net-(Q7-B)*%
X65200000Y-70449000D02*
X63551000Y-70449000D01*
X59400000Y-69100000D02*
X61100000Y-70800000D01*
X61100000Y-70800000D02*
X63200000Y-70800000D01*
X63551000Y-70449000D02*
X63200000Y-70800000D01*
%TO.N,Net-(Q8-B)*%
X61550400Y-62500000D02*
X61300000Y-62500000D01*
X67100000Y-63949000D02*
X65451000Y-63949000D01*
X65100000Y-64300000D02*
X63350400Y-64300000D01*
X63350400Y-64300000D02*
X61550400Y-62500000D01*
X65451000Y-63949000D02*
X65100000Y-64300000D01*
%TO.N,Net-(Q9-B)*%
X69000000Y-57500000D02*
X66799600Y-57500000D01*
X69251000Y-57249000D02*
X69000000Y-57500000D01*
X71000000Y-57249000D02*
X69251000Y-57249000D01*
X66799600Y-57500000D02*
X65099600Y-55800000D01*
%TO.N,Net-(Q10-B)*%
X70000000Y-51051000D02*
X72100000Y-51051000D01*
X68300000Y-49351000D02*
X70000000Y-51051000D01*
X72251000Y-50900000D02*
X72100000Y-51051000D01*
X74100000Y-50900000D02*
X72251000Y-50900000D01*
%TO.N,Net-(Q11-B)*%
X76849800Y-44500000D02*
X75149800Y-42800000D01*
X79151000Y-44349000D02*
X79000000Y-44500000D01*
X81000000Y-44349000D02*
X79151000Y-44349000D01*
X79000000Y-44500000D02*
X76849800Y-44500000D01*
%TO.N,Net-(Q12-B)*%
X82449100Y-37800000D02*
X80600000Y-37800000D01*
X80500000Y-37900000D02*
X78273400Y-37900000D01*
X80600000Y-37800000D02*
X80500000Y-37900000D01*
X78273400Y-37900000D02*
X76548700Y-36175300D01*
%TO.N,Net-(U1-~{E})*%
X86800000Y-85850001D02*
X87925000Y-85850001D01*
X87925000Y-85850001D02*
X92275001Y-81500000D01*
X92275001Y-81500000D02*
X92600000Y-81500000D01*
%TO.N,Net-(U1-S0)*%
X78600001Y-85850001D02*
X78150000Y-85400000D01*
X75900000Y-85400000D02*
X75000000Y-86300000D01*
X79549999Y-85850001D02*
X78600001Y-85850001D01*
X75000000Y-86300000D02*
X75000000Y-87600000D01*
X78150000Y-85400000D02*
X75900000Y-85400000D01*
%TO.N,Net-(U1-S1)*%
X79549999Y-86499999D02*
X77299999Y-86499999D01*
X77100000Y-87600000D02*
X77100000Y-86300000D01*
X77299999Y-86499999D02*
X77100000Y-86300000D01*
%TO.N,Net-(U1-S2)*%
X91600000Y-86100000D02*
X90100000Y-86100000D01*
X92100000Y-83800000D02*
X92100000Y-85600000D01*
X89700001Y-86499999D02*
X86800000Y-86499999D01*
X90100000Y-86100000D02*
X89700001Y-86499999D01*
X92100000Y-85600000D02*
X91600000Y-86100000D01*
%TO.N,Net-(U1-S3)*%
X90600000Y-88900000D02*
X91100000Y-88400000D01*
X89850001Y-87150001D02*
X91100000Y-88400000D01*
X86800000Y-87150001D02*
X89850001Y-87150001D01*
X90600000Y-90700000D02*
X90600000Y-88900000D01*
%TO.N,Net-(U2-VC11)*%
X88638850Y-100317962D02*
X88638850Y-97328700D01*
X84000000Y-106024000D02*
X86000000Y-106024000D01*
X86000000Y-106024000D02*
X86000000Y-102956812D01*
X88838850Y-97128700D02*
X88638850Y-97328700D01*
X88838850Y-95257400D02*
X88838850Y-97128700D01*
X86000000Y-102956812D02*
X88638850Y-100317962D01*
%TO.N,Net-(U2-VC10)*%
X86338850Y-95257400D02*
X86338850Y-99528700D01*
X83500000Y-104749706D02*
X86138850Y-102110856D01*
X86138850Y-100105932D02*
X86138850Y-99728700D01*
X86138850Y-102110856D02*
X86138850Y-99728700D01*
X83500000Y-106024000D02*
X83500000Y-104749706D01*
X86338850Y-99528700D02*
X86138850Y-99728700D01*
%TO.N,Net-(U2-VC9)*%
X83838850Y-95257400D02*
X83838850Y-99486100D01*
X83838850Y-99486100D02*
X84081450Y-99728700D01*
X83000000Y-100810150D02*
X84081450Y-99728700D01*
X83000000Y-106024000D02*
X83000000Y-100810150D01*
%TO.N,Net-(U2-VC8)*%
X81238850Y-99798700D02*
X81238850Y-99728700D01*
X82500000Y-106024000D02*
X82500000Y-100989850D01*
X81338850Y-99628700D02*
X81238850Y-99728700D01*
X81338850Y-95257400D02*
X81338850Y-99628700D01*
X82500000Y-100989850D02*
X81238850Y-99728700D01*
%TO.N,Net-(U2-VC7)*%
X79181450Y-99981450D02*
X79181450Y-99728700D01*
X78838850Y-95257400D02*
X78838850Y-99386100D01*
X82000000Y-106024000D02*
X82000000Y-102800000D01*
X82000000Y-102800000D02*
X79181450Y-99981450D01*
X78838850Y-99386100D02*
X79181450Y-99728700D01*
%TO.N,Net-(U2-VC6)*%
X81500000Y-106024000D02*
X81500000Y-103500000D01*
X76338850Y-95257400D02*
X76338850Y-99628700D01*
X76338850Y-99628700D02*
X76238850Y-99728700D01*
X76338850Y-99828700D02*
X76238850Y-99728700D01*
X78800000Y-102600000D02*
X76238850Y-100038850D01*
X80600000Y-102600000D02*
X78800000Y-102600000D01*
X76238850Y-100038850D02*
X76238850Y-99728700D01*
X81500000Y-103500000D02*
X80600000Y-102600000D01*
%TO.N,Net-(U2-VC5)*%
X74181450Y-99981450D02*
X74181450Y-99728700D01*
X73838850Y-95257400D02*
X73838850Y-99386100D01*
X73838850Y-99386100D02*
X74181450Y-99728700D01*
X81000000Y-106024000D02*
X81000000Y-104500000D01*
X74181450Y-100105932D02*
X74181450Y-99728700D01*
X81000000Y-104500000D02*
X80100000Y-103600000D01*
X77800000Y-103600000D02*
X74181450Y-99981450D01*
X80100000Y-103600000D02*
X77800000Y-103600000D01*
%TO.N,Net-(U2-VC4)*%
X79600000Y-104400000D02*
X77100000Y-104400000D01*
X71196250Y-99896250D02*
X71196250Y-99728700D01*
X73200000Y-100500000D02*
X71800000Y-100500000D01*
X71800000Y-100500000D02*
X71196250Y-99896250D01*
X71338850Y-99586100D02*
X71196250Y-99728700D01*
X80500000Y-106024000D02*
X80500000Y-105300000D01*
X77100000Y-104400000D02*
X73200000Y-100500000D01*
X71338850Y-95257400D02*
X71338850Y-99586100D01*
X80500000Y-105300000D02*
X79600000Y-104400000D01*
%TO.N,Net-(U2-VC3)*%
X69138850Y-100038850D02*
X72900000Y-103800000D01*
X69138850Y-99728700D02*
X69138850Y-100038850D01*
X68838850Y-95257400D02*
X68838850Y-99428700D01*
X75200000Y-103800000D02*
X78912000Y-107512000D01*
X72900000Y-103800000D02*
X75200000Y-103800000D01*
X78912000Y-107512000D02*
X79012000Y-107512000D01*
X68838850Y-99428700D02*
X69138850Y-99728700D01*
D94*
%TO.N,/Microcontroller/XOUT*%
X118837500Y-108800000D02*
X118837500Y-111860700D01*
X118837500Y-111860700D02*
X118800000Y-111898200D01*
%TO.N,/Microcontroller/~{USB_BOOT}*%
X103398200Y-99700000D02*
X103198202Y-99500002D01*
X97500004Y-99500000D02*
X97500002Y-99499998D01*
X101200002Y-99700000D02*
X101000000Y-99499998D01*
X103398200Y-99700000D02*
X101200002Y-99700000D01*
X96900004Y-99499998D02*
X101000000Y-99499998D01*
%TO.N,/Microcontroller/QSPI_SS*%
X116437500Y-101925000D02*
X116437500Y-101556826D01*
X108737500Y-101237500D02*
X107500000Y-100000000D01*
X105201800Y-100100000D02*
X104901800Y-99800000D01*
X105100000Y-99600000D02*
X104600000Y-99100000D01*
X106800000Y-99600000D02*
X105100000Y-99600000D01*
X107200000Y-100000000D02*
X106800000Y-99600000D01*
X116118174Y-101237500D02*
X108737500Y-101237500D01*
X105405000Y-93895000D02*
X106555100Y-93895000D01*
X104600000Y-94700000D02*
X105405000Y-93895000D01*
X116437500Y-101556826D02*
X116118174Y-101237500D01*
X104600000Y-99100000D02*
X104600000Y-94700000D01*
D95*
%TO.N,Net-(U1-COM)*%
X80100000Y-93889850D02*
X80410150Y-94200000D01*
X80100000Y-91600000D02*
X80100000Y-93889850D01*
X89611750Y-94200000D02*
X90800000Y-95388250D01*
X90800000Y-101700000D02*
X88500000Y-104000000D01*
X83375000Y-88325000D02*
X80100000Y-91600000D01*
X80410150Y-94200000D02*
X89611750Y-94200000D01*
X79549999Y-80000000D02*
X81285636Y-80000000D01*
X88500000Y-104000000D02*
X88500000Y-106500000D01*
X81285636Y-80000000D02*
X83375000Y-82089364D01*
X90800000Y-95388250D02*
X90800000Y-101700000D01*
X88500000Y-106500000D02*
X87488000Y-107512000D01*
X83375000Y-82089364D02*
X83375000Y-88325000D01*
D94*
%TO.N,/Microcontroller/QSPI_SD1*%
X106059800Y-95165000D02*
X106555100Y-95165000D01*
X116837500Y-101357500D02*
X116180000Y-100700000D01*
X105200000Y-96024800D02*
X106059800Y-95165000D01*
X116837500Y-101925000D02*
X116837500Y-101357500D01*
X107375000Y-98300000D02*
X105400000Y-98300000D01*
X116180000Y-100700000D02*
X109775000Y-100700000D01*
X105200000Y-98100000D02*
X105200000Y-96024800D01*
X105400000Y-98300000D02*
X105200000Y-98100000D01*
X109775000Y-100700000D02*
X107375000Y-98300000D01*
%TO.N,/Microcontroller/QSPI_SD2*%
X110815400Y-100200000D02*
X107050400Y-96435000D01*
X107050400Y-96435000D02*
X106555100Y-96435000D01*
X117237500Y-101925000D02*
X117237500Y-101037500D01*
X117237500Y-101037500D02*
X116400000Y-100200000D01*
X116400000Y-100200000D02*
X110815400Y-100200000D01*
%TO.N,/Microcontroller/QSPI_SD0*%
X113844900Y-98644900D02*
X113844900Y-97705000D01*
X117637500Y-101925000D02*
X117637500Y-100687500D01*
X114900000Y-99700000D02*
X113844900Y-98644900D01*
X117637500Y-100687500D02*
X116650000Y-99700000D01*
X116650000Y-99700000D02*
X114900000Y-99700000D01*
%TO.N,/Microcontroller/QSPI_SCLK*%
X115600000Y-99200000D02*
X115200000Y-98800000D01*
X118037500Y-100437500D02*
X116800000Y-99200000D01*
X118037500Y-101925000D02*
X118037500Y-100437500D01*
X114340200Y-96435000D02*
X113844900Y-96435000D01*
X116800000Y-99200000D02*
X115600000Y-99200000D01*
X115200000Y-98800000D02*
X115200000Y-97294800D01*
X115200000Y-97294800D02*
X114340200Y-96435000D01*
%TO.N,/Microcontroller/QSPI_SD3*%
X118437500Y-100187500D02*
X117050000Y-98800000D01*
X118437500Y-101925000D02*
X118437500Y-100187500D01*
X114065000Y-95165000D02*
X113844900Y-95165000D01*
X116200000Y-98800000D02*
X115700000Y-98300000D01*
X115700000Y-96800000D02*
X114065000Y-95165000D01*
X115700000Y-98300000D02*
X115700000Y-96800000D01*
X117050000Y-98800000D02*
X116200000Y-98800000D01*
D95*
%TO.N,/External Connections and Sensing/RGB_DOUT*%
X149900000Y-47600002D02*
X159420002Y-47600002D01*
%TO.N,Net-(Q1-B)*%
X49249800Y-110400000D02*
X51500000Y-110400000D01*
X51800000Y-110100000D02*
X51500000Y-110400000D01*
X53500000Y-110100000D02*
X51800000Y-110100000D01*
X47749800Y-108900000D02*
X49249800Y-110400000D01*
D94*
%TO.N,/External Connections and Sensing/PIX_CLK*%
X138300000Y-124800000D02*
X138300000Y-120700000D01*
X102100000Y-114600000D02*
X102100000Y-114200000D01*
X159056409Y-104606459D02*
X159056409Y-105472674D01*
X157789950Y-103340000D02*
X159056409Y-104606459D01*
X106200000Y-110100000D02*
X110900000Y-110100000D01*
X129800000Y-127002941D02*
X130997059Y-128200000D01*
X110900000Y-110100000D02*
X113837500Y-107162500D01*
X130997059Y-128200000D02*
X134900000Y-128200000D01*
X134900000Y-128200000D02*
X138300000Y-124800000D01*
X155660000Y-103340000D02*
X157789950Y-103340000D01*
X113837500Y-107162500D02*
X115600000Y-107162500D01*
X102100000Y-114200000D02*
X106200000Y-110100000D01*
X138300000Y-120700000D02*
X155660000Y-103340000D01*
%TO.N,/External Connections and Sensing/PIX_DAT*%
X101131494Y-114425000D02*
X101175000Y-114425000D01*
X101000000Y-114556494D02*
X101131494Y-114425000D01*
X110765686Y-109600000D02*
X113603186Y-106762500D01*
X113603186Y-106762500D02*
X115600000Y-106762500D01*
X101175000Y-114425000D02*
X106000000Y-109600000D01*
X135200000Y-128800000D02*
X138900000Y-125100000D01*
X138900000Y-122300000D02*
X155710001Y-105489999D01*
X138900000Y-125100000D02*
X138900000Y-122300000D01*
X130719133Y-128800000D02*
X135200000Y-128800000D01*
X129819133Y-127900000D02*
X130719133Y-128800000D01*
X106000000Y-109600000D02*
X110765686Y-109600000D01*
X155710001Y-105489999D02*
X157149999Y-105489999D01*
X129772872Y-127900000D02*
X129819133Y-127900000D01*
%TO.N,/External Connections and Sensing/DAC_DAT*%
X114286030Y-107562500D02*
X115600000Y-107562500D01*
X113524265Y-108324265D02*
X114286030Y-107562500D01*
%TO.N,/External Connections and Sensing/DAC_CLK*%
X114837500Y-107962500D02*
X115600000Y-107962500D01*
X114500000Y-108300000D02*
X114837500Y-107962500D01*
%TO.N,/5V Regulator/PGOOD*%
X112225735Y-106725735D02*
X112491422Y-106725735D01*
X112491422Y-106725735D02*
X113254657Y-105962500D01*
X113254657Y-105962500D02*
X115600000Y-105962500D01*
D96*
%TO.N,/Battery Stack Monitor/THERM1*%
X77888000Y-111512000D02*
X76600000Y-112800000D01*
X45100000Y-109000000D02*
X45100000Y-104800000D01*
X45100000Y-104800000D02*
X42983400Y-102683400D01*
X72300000Y-114700000D02*
X50800000Y-114700000D01*
X76600000Y-112800000D02*
X74200000Y-112800000D01*
X79012000Y-111512000D02*
X77888000Y-111512000D01*
X42983400Y-102683400D02*
X42958098Y-102683400D01*
X74200000Y-112800000D02*
X72300000Y-114700000D01*
X50800000Y-114700000D02*
X45100000Y-109000000D01*
%TO.N,/Battery Stack Monitor/THERM2*%
X44500000Y-106725302D02*
X42958098Y-105183400D01*
X74600000Y-113300000D02*
X72200000Y-115700000D01*
X72200000Y-115700000D02*
X51136396Y-115700000D01*
X51136396Y-115700000D02*
X44500000Y-109063604D01*
X78024396Y-112012000D02*
X76736396Y-113300000D01*
X79012000Y-112012000D02*
X78024396Y-112012000D01*
X44500000Y-109063604D02*
X44500000Y-106725302D01*
X76736396Y-113300000D02*
X74600000Y-113300000D01*
%TO.N,/Battery Stack Monitor/THERM3*%
X76111000Y-116311000D02*
X76800000Y-117000000D01*
X51111000Y-116311000D02*
X75600000Y-116311000D01*
X42958098Y-107683400D02*
X42958098Y-108158098D01*
X75600000Y-114300000D02*
X75600000Y-116311000D01*
X75600000Y-116311000D02*
X76111000Y-116311000D01*
X76722792Y-113950000D02*
X75950000Y-113950000D01*
X78160792Y-112512000D02*
X76722792Y-113950000D01*
X76800000Y-117100000D02*
X76800000Y-116600000D01*
X42958098Y-108158098D02*
X51111000Y-116311000D01*
X79012000Y-112512000D02*
X78160792Y-112512000D01*
X75950000Y-113950000D02*
X75600000Y-114300000D01*
X76800000Y-117000000D02*
X76800000Y-117100000D01*
%TO.N,/Battery Stack Monitor/THERM4*%
X82200000Y-118200000D02*
X83000000Y-117400000D01*
X78900000Y-119200000D02*
X79900000Y-118200000D01*
X49535698Y-116761000D02*
X74756900Y-116761000D01*
X83000000Y-117400000D02*
X83000000Y-114500000D01*
X77195900Y-119200000D02*
X78900000Y-119200000D01*
X74756900Y-116761000D02*
X77195900Y-119200000D01*
X79900000Y-118200000D02*
X82200000Y-118200000D01*
X42958098Y-110183400D02*
X49535698Y-116761000D01*
%TO.N,/Battery Stack Monitor/THERM5*%
X81500000Y-119154200D02*
X82372300Y-119154200D01*
X80554200Y-120100000D02*
X77100000Y-120100000D01*
X48286803Y-117211000D02*
X74211000Y-117211000D01*
X41756798Y-110680995D02*
X48286803Y-117211000D01*
X81500000Y-119154200D02*
X80554200Y-120100000D01*
X83500000Y-118026500D02*
X83500000Y-114500000D01*
X41756798Y-103982100D02*
X41756798Y-110680995D01*
X74211000Y-117211000D02*
X77100000Y-120100000D01*
X40458098Y-102683400D02*
X41756798Y-103982100D01*
X82372300Y-119154200D02*
X83500000Y-118026500D01*
%TO.N,/Battery Stack Monitor/THERM6*%
X84900000Y-119200000D02*
X83700000Y-119200000D01*
X81089000Y-121811000D02*
X77511000Y-121811000D01*
X46161000Y-117661000D02*
X39256798Y-110756798D01*
X83700000Y-119200000D02*
X81089000Y-121811000D01*
X73361000Y-117661000D02*
X46161000Y-117661000D01*
X39256798Y-106384700D02*
X40458098Y-105183400D01*
X84900000Y-119100000D02*
X84000000Y-118200000D01*
X39256798Y-110756798D02*
X39256798Y-106384700D01*
X77511000Y-121811000D02*
X73361000Y-117661000D01*
X84000000Y-118200000D02*
X84000000Y-114500000D01*
X84900000Y-119200000D02*
X84900000Y-119100000D01*
%TO.N,Net-(U3-VDD)*%
X118097400Y-40541600D02*
X118822400Y-40541600D01*
X119000000Y-40364000D02*
X119000000Y-38780000D01*
X118822400Y-40541600D02*
X119000000Y-40364000D01*
X119000000Y-38780000D02*
X120780000Y-37000000D01*
%TO.N,Net-(U3-SS)*%
X120500000Y-47840000D02*
X120500000Y-46400000D01*
X120500000Y-46400000D02*
X118416600Y-44316600D01*
X118416600Y-44316600D02*
X117322400Y-44316600D01*
%TO.N,Net-(U3-VDRV)*%
X115822400Y-46322400D02*
X116600000Y-47100000D01*
X115822400Y-44316600D02*
X115822400Y-46322400D01*
%TO.N,Net-(U3-VSNS)*%
X121900000Y-50600000D02*
X123700000Y-52400000D01*
X118097400Y-43541600D02*
X118341600Y-43541600D01*
X118341600Y-43541600D02*
X121900000Y-47100000D01*
X123700000Y-52400000D02*
X123700000Y-52418700D01*
X121900000Y-47100000D02*
X121900000Y-50600000D01*
%TO.N,Net-(C35-Pad2)*%
X127972000Y-47171400D02*
X128070200Y-47073200D01*
X125970200Y-47171400D02*
X127972000Y-47171400D01*
%TO.N,Net-(U3-PHASE)*%
X113597400Y-39041600D02*
X113822400Y-39266600D01*
X113597400Y-37791600D02*
X113597400Y-39041600D01*
X114322400Y-39266600D02*
X113822400Y-39266600D01*
%TO.N,Net-(U3-EN)*%
X115972400Y-39266600D02*
X115972400Y-35478600D01*
D99*
X105801300Y-32823700D02*
X105800000Y-32825000D01*
D96*
X106400000Y-32690000D02*
X113183800Y-32690000D01*
X113183800Y-32690000D02*
X115972400Y-35478600D01*
D99*
X104142400Y-32823700D02*
X105801300Y-32823700D01*
%TO.N,Net-(R96-Pad1)*%
X100542400Y-32823700D02*
X102232400Y-32823700D01*
D96*
%TO.N,Net-(U3-COMP)*%
X122800000Y-47076300D02*
X122800000Y-47703100D01*
X122800000Y-47703100D02*
X123138900Y-48042000D01*
X123138900Y-48042000D02*
X125139000Y-48042000D01*
X125139000Y-48042000D02*
X125970200Y-48873200D01*
X118097400Y-43041600D02*
X118765300Y-43041600D01*
X118765300Y-43041600D02*
X122800000Y-47076300D01*
%TO.N,Net-(R100-Pad2)*%
X120221800Y-33229500D02*
X122390000Y-33229500D01*
%TO.N,Net-(U3-ILIMIT)*%
X119525000Y-39625000D02*
X120618700Y-38531300D01*
X118097400Y-41041600D02*
X118958796Y-41041600D01*
X118958796Y-41041600D02*
X119525000Y-40475396D01*
X119525000Y-40475396D02*
X119525000Y-39625000D01*
X120618700Y-38531300D02*
X120690000Y-38531300D01*
D95*
%TO.N,Net-(U3-ULTRASONIC)*%
X125800000Y-52400000D02*
X126100000Y-52400000D01*
D96*
X116822400Y-45100000D02*
X116822400Y-44316600D01*
X117112400Y-45390000D02*
X116822400Y-45100000D01*
X119795558Y-46579442D02*
X118606116Y-45390000D01*
D95*
X122524251Y-49124251D02*
X125800000Y-52400000D01*
X122524251Y-48311235D02*
X122524251Y-49124251D01*
D96*
X118606116Y-45390000D02*
X117112400Y-45390000D01*
%TO.N,Net-(U3-MODE)*%
X118500000Y-39639000D02*
X118500000Y-36653100D01*
X118097400Y-40041600D02*
X118500000Y-39639000D01*
X118500000Y-36653100D02*
X120221800Y-34931300D01*
%TO.N,Net-(U3-FSW)*%
X119548400Y-41541600D02*
X120490000Y-40600000D01*
X118097400Y-41541600D02*
X119548400Y-41541600D01*
%TO.N,Net-(U3-BOOT)*%
X115097400Y-37791600D02*
X115097400Y-39041600D01*
X115097400Y-39041600D02*
X115322400Y-39266600D01*
%TO.N,Net-(U3-VFB)*%
X120400000Y-43400000D02*
X120900000Y-43400000D01*
X120900000Y-43400000D02*
X124025000Y-46525000D01*
X119541600Y-42541600D02*
X120400000Y-43400000D01*
X124025000Y-46525000D02*
X124025000Y-47173200D01*
X118097400Y-42541600D02*
X119541600Y-42541600D01*
D94*
%TO.N,Net-(U6-USB_DP)*%
X120037500Y-101925000D02*
X120037500Y-95137500D01*
X120037500Y-95137500D02*
X118700000Y-93800000D01*
%TO.N,Net-(U6-USB_DM)*%
X120437500Y-94162500D02*
X120800000Y-93800000D01*
X120437500Y-101925000D02*
X120437500Y-94162500D01*
D99*
%TO.N,Net-(CR3-Pad4)*%
X159900000Y-62500000D02*
X158600000Y-61200000D01*
X161300000Y-62500000D02*
X159900000Y-62500000D01*
X158600000Y-61200000D02*
X156400000Y-61200000D01*
X156400000Y-63500000D02*
X156400000Y-61200000D01*
D94*
%TO.N,/Microcontroller/GPIO27_ADC1*%
X122475000Y-103962500D02*
X126903186Y-103962500D01*
X129900000Y-100965686D02*
X132734314Y-100965686D01*
X132734314Y-100965686D02*
X133600000Y-100100000D01*
X133500000Y-90100000D02*
X133500000Y-91860000D01*
X133575000Y-91935000D02*
X133575000Y-97426000D01*
X133600000Y-100100000D02*
X133600000Y-97749000D01*
X132200000Y-91900000D02*
X133540000Y-91900000D01*
X133500000Y-91860000D02*
X133540000Y-91900000D01*
X133600000Y-97749000D02*
X133749000Y-97600000D01*
X126903186Y-103962500D02*
X129900000Y-100965686D01*
X133575000Y-97426000D02*
X133749000Y-97600000D01*
X133540000Y-91900000D02*
X133575000Y-91935000D01*
D96*
%TO.N,Net-(C39-Pad2)*%
X123700000Y-54272900D02*
X121695800Y-54272900D01*
X121625000Y-55975000D02*
X121625000Y-54202100D01*
X121695800Y-54272900D02*
X121625000Y-54202100D01*
%TO.N,Net-(C40-Pad1)*%
X115074400Y-36140600D02*
X115097400Y-36163600D01*
X113597400Y-36140600D02*
X115074400Y-36140600D01*
D94*
%TO.N,Net-(C60-Pad2)*%
X119100000Y-115600000D02*
X119100000Y-113700000D01*
X119100000Y-117699998D02*
X119100000Y-115600000D01*
X119100000Y-113700000D02*
X119000000Y-113600000D01*
%TD*%
%TA.AperFunction,Conductor*%
%TO.N,+BATT*%
G36*
X95611971Y-113602381D02*
G01*
X95652346Y-113610412D01*
X95697043Y-113628927D01*
X95720913Y-113644877D01*
X95755122Y-113679086D01*
X95771072Y-113702956D01*
X95789588Y-113747655D01*
X95797617Y-113788020D01*
X95800000Y-113812210D01*
X95800000Y-117065092D01*
X95795606Y-117097808D01*
X95781104Y-117150825D01*
X95747804Y-117207144D01*
X95708337Y-117245401D01*
X95681794Y-117265013D01*
X83903616Y-123743011D01*
X83903612Y-123743014D01*
X83827843Y-123816460D01*
X83827841Y-123816464D01*
X83800000Y-123918250D01*
X83800000Y-129475500D01*
X83780315Y-129542539D01*
X83727511Y-129588294D01*
X83676000Y-129599500D01*
X70824000Y-129599500D01*
X70756961Y-129579815D01*
X70711206Y-129527011D01*
X70700000Y-129475500D01*
X70700000Y-128012210D01*
X70702381Y-127988029D01*
X70710412Y-127947651D01*
X70728927Y-127902956D01*
X70744877Y-127879086D01*
X70779086Y-127844877D01*
X70802956Y-127828927D01*
X70847653Y-127810412D01*
X70888027Y-127802381D01*
X70912211Y-127800000D01*
X81700001Y-127800000D01*
X81700002Y-127799999D01*
X81719395Y-127796142D01*
X81776535Y-127784777D01*
X81776535Y-127784776D01*
X81776537Y-127784776D01*
X81841421Y-127741421D01*
X81884776Y-127676537D01*
X81884776Y-127676535D01*
X81884777Y-127676535D01*
X81899999Y-127600004D01*
X81900000Y-127600001D01*
X81900000Y-123234192D01*
X81904353Y-123201625D01*
X81918733Y-123148802D01*
X81951755Y-123092651D01*
X81990927Y-123054408D01*
X82017267Y-123034777D01*
X88799915Y-119262375D01*
X88875138Y-119188911D01*
X88902703Y-119087443D01*
X88900155Y-115612356D01*
X88902520Y-115588173D01*
X88910531Y-115547763D01*
X88929029Y-115503040D01*
X88944973Y-115479154D01*
X88979186Y-115444915D01*
X89003063Y-115428951D01*
X89047774Y-115410422D01*
X89088170Y-115402383D01*
X89112364Y-115400000D01*
X91283972Y-115400000D01*
X91327303Y-115407817D01*
X91451628Y-115454188D01*
X91468089Y-115455957D01*
X91510323Y-115460499D01*
X91510340Y-115460500D01*
X92089660Y-115460500D01*
X92089676Y-115460499D01*
X92126423Y-115456547D01*
X92148372Y-115454188D01*
X92272696Y-115407817D01*
X92316028Y-115400000D01*
X94200001Y-115400000D01*
X94200002Y-115399999D01*
X94219395Y-115396142D01*
X94276535Y-115384777D01*
X94276535Y-115384776D01*
X94276537Y-115384776D01*
X94341421Y-115341421D01*
X94384776Y-115276537D01*
X94384776Y-115276535D01*
X94384777Y-115276535D01*
X94399999Y-115200004D01*
X94400000Y-115200001D01*
X94400000Y-113812210D01*
X94402381Y-113788029D01*
X94410412Y-113747651D01*
X94428927Y-113702956D01*
X94444877Y-113679086D01*
X94479086Y-113644877D01*
X94502956Y-113628927D01*
X94547653Y-113610412D01*
X94588027Y-113602381D01*
X94612211Y-113600000D01*
X95587789Y-113600000D01*
X95611971Y-113602381D01*
G37*
%TD.AperFunction*%
%TD*%
%TA.AperFunction,Conductor*%
%TO.N,Net-(U3-SW)*%
G36*
X114711971Y-43802381D02*
G01*
X114790618Y-43818024D01*
X114835310Y-43836537D01*
X114841789Y-43840866D01*
X114886595Y-43894477D01*
X114896900Y-43943969D01*
X114896900Y-44816278D01*
X114911432Y-44889335D01*
X114911433Y-44889338D01*
X114911434Y-44889340D01*
X114966799Y-44972201D01*
X114979703Y-44980823D01*
X114998244Y-44993212D01*
X115043050Y-45046824D01*
X115050206Y-45068551D01*
X115841599Y-48513433D01*
X115842973Y-48520295D01*
X115846909Y-48543312D01*
X115848485Y-48557214D01*
X115849802Y-48580509D01*
X115850000Y-48587508D01*
X115850000Y-49192538D01*
X115846800Y-49203435D01*
X115846800Y-51853876D01*
X115844417Y-51878067D01*
X115831976Y-51940612D01*
X115813461Y-51985312D01*
X115775835Y-52041623D01*
X115741626Y-52075833D01*
X115710845Y-52096401D01*
X115644167Y-52117280D01*
X115641952Y-52117300D01*
X103758048Y-52117300D01*
X103691009Y-52097615D01*
X103689157Y-52096402D01*
X103658375Y-52075834D01*
X103624164Y-52041623D01*
X103586538Y-51985312D01*
X103568024Y-51940616D01*
X103555581Y-51878060D01*
X103553200Y-51853876D01*
X103553200Y-49219566D01*
X103552834Y-49218896D01*
X103550000Y-49192538D01*
X103550000Y-48201380D01*
X103552184Y-48178212D01*
X103566539Y-48102733D01*
X103583548Y-48059633D01*
X103618258Y-48004741D01*
X103649897Y-47970900D01*
X103711949Y-47925558D01*
X103731928Y-47913661D01*
X112332746Y-43831916D01*
X112345441Y-43826731D01*
X112388618Y-43811830D01*
X112415356Y-43805808D01*
X112446161Y-43802382D01*
X112460744Y-43800760D01*
X112474452Y-43800000D01*
X114687789Y-43800000D01*
X114711971Y-43802381D01*
G37*
%TD.AperFunction*%
%TD*%
%TA.AperFunction,Conductor*%
%TO.N,+1V1*%
G36*
X120509191Y-102618907D02*
G01*
X120545155Y-102668407D01*
X120550000Y-102699000D01*
X120550000Y-103463000D01*
X120531093Y-103521191D01*
X120481593Y-103557155D01*
X120451000Y-103562000D01*
X117541140Y-103562000D01*
X117541132Y-103562001D01*
X117490961Y-103568605D01*
X117490959Y-103568606D01*
X117443527Y-103590724D01*
X117401688Y-103600000D01*
X117300000Y-103600000D01*
X117300000Y-103600001D01*
X117300000Y-103673075D01*
X117290725Y-103714914D01*
X117243606Y-103815961D01*
X117243606Y-103815962D01*
X117237000Y-103866138D01*
X117237000Y-106858859D01*
X117237001Y-106858867D01*
X117243605Y-106909038D01*
X117243605Y-106909040D01*
X117290724Y-107010085D01*
X117300000Y-107051924D01*
X117300000Y-107100000D01*
X117348076Y-107100000D01*
X117389912Y-107109274D01*
X117490961Y-107156394D01*
X117541137Y-107163000D01*
X120533862Y-107162999D01*
X120584039Y-107156394D01*
X120685087Y-107109274D01*
X120726925Y-107100000D01*
X121701000Y-107100000D01*
X121759191Y-107118907D01*
X121795155Y-107168407D01*
X121800000Y-107199000D01*
X121800000Y-108001000D01*
X121781093Y-108059191D01*
X121731593Y-108095155D01*
X121701000Y-108100000D01*
X119543213Y-108100000D01*
X119485022Y-108081093D01*
X119470847Y-108065832D01*
X119469601Y-108066969D01*
X119463419Y-108060188D01*
X119440721Y-108043047D01*
X119430379Y-108034048D01*
X119328996Y-107932665D01*
X119301219Y-107878148D01*
X119300000Y-107862661D01*
X119300000Y-107650001D01*
X119300000Y-107650000D01*
X119299999Y-107650000D01*
X119139889Y-107650000D01*
X119081698Y-107631093D01*
X119064555Y-107612942D01*
X119063693Y-107613690D01*
X119059057Y-107608340D01*
X119059057Y-107608339D01*
X118964808Y-107499569D01*
X118964807Y-107499568D01*
X118964806Y-107499567D01*
X118843737Y-107421761D01*
X118843734Y-107421759D01*
X118843733Y-107421759D01*
X118843730Y-107421758D01*
X118705644Y-107381212D01*
X118705641Y-107381212D01*
X118561719Y-107381212D01*
X118561715Y-107381212D01*
X118423629Y-107421758D01*
X118423622Y-107421761D01*
X118302553Y-107499567D01*
X118257987Y-107551000D01*
X118208303Y-107608339D01*
X118208302Y-107608340D01*
X118203667Y-107613690D01*
X118201665Y-107611956D01*
X118163387Y-107643255D01*
X118127471Y-107650000D01*
X116899000Y-107650000D01*
X116840809Y-107631093D01*
X116804845Y-107581593D01*
X116800000Y-107551000D01*
X116800000Y-103199000D01*
X116818907Y-103140809D01*
X116868407Y-103104845D01*
X116899000Y-103100000D01*
X118833051Y-103100000D01*
X118891242Y-103118907D01*
X118897882Y-103124181D01*
X118899318Y-103125425D01*
X119020393Y-103203235D01*
X119126849Y-103234493D01*
X119158481Y-103243781D01*
X119158482Y-103243781D01*
X119158485Y-103243782D01*
X119158487Y-103243782D01*
X119302405Y-103243782D01*
X119302407Y-103243782D01*
X119440499Y-103203235D01*
X119561574Y-103125425D01*
X119561577Y-103125421D01*
X119563010Y-103124181D01*
X119564470Y-103123563D01*
X119567531Y-103121597D01*
X119567871Y-103122126D01*
X119585192Y-103114806D01*
X119599998Y-103100000D01*
X119600000Y-103100000D01*
X119600000Y-103099998D01*
X119608664Y-103091334D01*
X119618907Y-103059811D01*
X119624172Y-103053181D01*
X119655823Y-103016655D01*
X119715611Y-102885739D01*
X119736093Y-102743282D01*
X119731752Y-102713089D01*
X119742185Y-102652801D01*
X119786062Y-102610158D01*
X119829744Y-102600000D01*
X120451000Y-102600000D01*
X120509191Y-102618907D01*
G37*
%TD.AperFunction*%
%TD*%
%TA.AperFunction,Conductor*%
%TO.N,+3V3*%
G36*
X121413224Y-102614906D02*
G01*
X121444491Y-102623284D01*
X121534918Y-102660740D01*
X121562952Y-102676925D01*
X121640602Y-102736509D01*
X121663491Y-102759398D01*
X121723074Y-102837048D01*
X121739259Y-102865081D01*
X121776715Y-102955508D01*
X121785093Y-102986774D01*
X121789089Y-103017124D01*
X121789324Y-103047601D01*
X121787000Y-103067629D01*
X121787000Y-103257357D01*
X121787002Y-103257381D01*
X121789914Y-103282488D01*
X121792363Y-103291489D01*
X121791605Y-103291695D01*
X121800000Y-103331488D01*
X121800000Y-103393511D01*
X121791606Y-103433302D01*
X121792364Y-103433509D01*
X121789915Y-103442509D01*
X121787000Y-103467631D01*
X121787000Y-103657357D01*
X121787002Y-103657381D01*
X121789914Y-103682488D01*
X121792363Y-103691489D01*
X121791605Y-103691695D01*
X121800000Y-103731488D01*
X121800000Y-103793511D01*
X121791606Y-103833302D01*
X121792364Y-103833509D01*
X121789915Y-103842509D01*
X121787000Y-103867631D01*
X121787000Y-104057357D01*
X121787002Y-104057381D01*
X121789914Y-104082488D01*
X121792363Y-104091489D01*
X121791605Y-104091695D01*
X121800000Y-104131488D01*
X121800000Y-104193511D01*
X121791606Y-104233302D01*
X121792364Y-104233509D01*
X121789915Y-104242509D01*
X121787000Y-104267631D01*
X121787000Y-104457357D01*
X121787002Y-104457381D01*
X121789914Y-104482488D01*
X121792363Y-104491489D01*
X121791605Y-104491695D01*
X121800000Y-104531488D01*
X121800000Y-104593511D01*
X121791606Y-104633302D01*
X121792364Y-104633509D01*
X121789915Y-104642509D01*
X121787000Y-104667631D01*
X121787000Y-104857357D01*
X121787002Y-104857381D01*
X121789914Y-104882488D01*
X121792363Y-104891489D01*
X121791605Y-104891695D01*
X121800000Y-104931488D01*
X121800000Y-104993511D01*
X121791606Y-105033302D01*
X121792364Y-105033509D01*
X121789915Y-105042509D01*
X121787000Y-105067631D01*
X121787000Y-105257357D01*
X121787002Y-105257381D01*
X121789914Y-105282488D01*
X121792363Y-105291489D01*
X121791605Y-105291695D01*
X121800000Y-105331488D01*
X121800000Y-105393511D01*
X121791606Y-105433302D01*
X121792364Y-105433509D01*
X121789915Y-105442509D01*
X121787000Y-105467631D01*
X121787000Y-105657357D01*
X121787002Y-105657381D01*
X121789914Y-105682488D01*
X121792363Y-105691489D01*
X121791605Y-105691695D01*
X121800000Y-105731488D01*
X121800000Y-105793511D01*
X121791606Y-105833302D01*
X121792364Y-105833509D01*
X121789915Y-105842509D01*
X121787000Y-105867631D01*
X121787000Y-106057357D01*
X121787002Y-106057381D01*
X121789914Y-106082488D01*
X121792363Y-106091489D01*
X121791605Y-106091695D01*
X121800000Y-106131488D01*
X121800000Y-106591869D01*
X121798939Y-106608058D01*
X121798631Y-106610397D01*
X121792166Y-106633456D01*
X121792363Y-106633510D01*
X121789915Y-106642505D01*
X121787000Y-106667634D01*
X121787000Y-106690619D01*
X121785939Y-106706808D01*
X121785094Y-106713225D01*
X121776716Y-106744488D01*
X121766997Y-106767952D01*
X121723156Y-106822356D01*
X121656862Y-106844421D01*
X121652436Y-106844500D01*
X121012000Y-106844500D01*
X120944961Y-106824815D01*
X120899206Y-106772011D01*
X120888000Y-106720500D01*
X120887999Y-103875456D01*
X120873368Y-103783073D01*
X120816635Y-103671729D01*
X120816634Y-103671728D01*
X120813515Y-103665606D01*
X120800000Y-103609311D01*
X120800000Y-103507482D01*
X120801527Y-103488084D01*
X120804766Y-103467635D01*
X120805500Y-103463000D01*
X120805500Y-103066346D01*
X120806561Y-103050162D01*
X120806898Y-103047601D01*
X120810873Y-103017404D01*
X120839138Y-102953509D01*
X120846109Y-102945932D01*
X121050546Y-102741494D01*
X121070402Y-102725371D01*
X121078169Y-102720297D01*
X121095996Y-102697391D01*
X121105051Y-102687139D01*
X121105864Y-102686177D01*
X121105875Y-102686167D01*
X121117070Y-102670484D01*
X121120101Y-102666420D01*
X121125924Y-102658938D01*
X121182634Y-102618128D01*
X121207581Y-102612167D01*
X121283821Y-102602130D01*
X121316179Y-102602130D01*
X121413224Y-102614906D01*
G37*
%TD.AperFunction*%
%TD*%
%TA.AperFunction,Conductor*%
%TO.N,+3V3*%
G36*
X138114635Y-102900553D02*
G01*
X138141180Y-102903067D01*
X138284895Y-102916682D01*
X138307856Y-102921071D01*
X138466421Y-102967246D01*
X138488155Y-102975872D01*
X138640455Y-103053672D01*
X138650607Y-103059477D01*
X138755510Y-103126234D01*
X138860037Y-103192751D01*
X138860260Y-103192893D01*
X140354325Y-104143661D01*
X140354329Y-104143663D01*
X140354331Y-104143664D01*
X140522304Y-104229470D01*
X140522305Y-104229470D01*
X140522306Y-104229471D01*
X140703413Y-104282210D01*
X140703416Y-104282210D01*
X140703419Y-104282211D01*
X140857402Y-104296798D01*
X140891201Y-104300000D01*
X146293907Y-104300000D01*
X146306061Y-104300597D01*
X146482941Y-104318018D01*
X146506769Y-104322757D01*
X146671001Y-104372576D01*
X146693453Y-104381877D01*
X146819410Y-104449202D01*
X146844798Y-104462772D01*
X146865010Y-104476277D01*
X146997666Y-104585145D01*
X147014854Y-104602333D01*
X147123722Y-104734989D01*
X147137227Y-104755201D01*
X147218121Y-104906543D01*
X147227424Y-104929001D01*
X147277240Y-105093224D01*
X147281982Y-105117065D01*
X147299403Y-105293938D01*
X147300000Y-105306092D01*
X147300000Y-106493907D01*
X147299403Y-106506061D01*
X147281982Y-106682934D01*
X147277240Y-106706775D01*
X147227424Y-106870998D01*
X147218121Y-106893456D01*
X147137227Y-107044798D01*
X147123722Y-107065010D01*
X147014854Y-107197666D01*
X146997666Y-107214854D01*
X146865010Y-107323722D01*
X146844798Y-107337227D01*
X146693456Y-107418121D01*
X146670998Y-107427424D01*
X146506775Y-107477240D01*
X146482934Y-107481982D01*
X146306061Y-107499403D01*
X146293907Y-107500000D01*
X141600000Y-107500000D01*
X141551844Y-107504743D01*
X141404911Y-107519214D01*
X141294149Y-107552813D01*
X141217317Y-107576120D01*
X141217314Y-107576121D01*
X141217312Y-107576122D01*
X141217309Y-107576123D01*
X141044435Y-107668526D01*
X141044428Y-107668531D01*
X140892892Y-107792892D01*
X140768531Y-107944428D01*
X140768526Y-107944435D01*
X140676123Y-108117309D01*
X140676122Y-108117312D01*
X140619214Y-108304911D01*
X140600000Y-108500003D01*
X140600000Y-110993907D01*
X140599403Y-111006061D01*
X140581982Y-111182934D01*
X140577240Y-111206775D01*
X140527424Y-111370998D01*
X140518121Y-111393456D01*
X140437227Y-111544798D01*
X140423722Y-111565010D01*
X140314854Y-111697666D01*
X140297666Y-111714854D01*
X140165010Y-111823722D01*
X140144798Y-111837227D01*
X139993456Y-111918121D01*
X139970998Y-111927424D01*
X139806775Y-111977240D01*
X139782934Y-111981982D01*
X139606061Y-111999403D01*
X139593907Y-112000000D01*
X129933031Y-112000000D01*
X129885579Y-111990561D01*
X129849846Y-111975760D01*
X129849844Y-111975759D01*
X129849843Y-111975759D01*
X129777988Y-111966299D01*
X129706135Y-111956839D01*
X129706133Y-111956839D01*
X129562425Y-111975759D01*
X129562421Y-111975760D01*
X129526689Y-111990561D01*
X129479237Y-112000000D01*
X129320307Y-112000000D01*
X129308153Y-111999403D01*
X129131278Y-111981982D01*
X129107437Y-111977240D01*
X128943214Y-111927424D01*
X128920756Y-111918121D01*
X128769414Y-111837227D01*
X128749202Y-111823722D01*
X128611813Y-111710969D01*
X128602797Y-111702797D01*
X127097202Y-110197202D01*
X127089030Y-110188186D01*
X126976277Y-110050797D01*
X126962772Y-110030585D01*
X126881878Y-109879243D01*
X126872575Y-109856784D01*
X126855839Y-109801610D01*
X126850500Y-109765616D01*
X126850500Y-105983521D01*
X126853139Y-105958075D01*
X126855042Y-105949000D01*
X126851451Y-105920198D01*
X126850603Y-105906523D01*
X126850500Y-105905285D01*
X126850500Y-105905275D01*
X126847328Y-105886274D01*
X126846594Y-105881230D01*
X126840573Y-105832922D01*
X126840572Y-105832919D01*
X126838477Y-105825881D01*
X126836091Y-105818932D01*
X126814946Y-105779859D01*
X126800000Y-105720841D01*
X126800000Y-105020306D01*
X126800597Y-105008152D01*
X126818018Y-104831269D01*
X126822757Y-104807445D01*
X126872577Y-104643207D01*
X126881875Y-104620762D01*
X126962775Y-104469408D01*
X126976272Y-104449208D01*
X127089039Y-104311802D01*
X127097192Y-104302807D01*
X128202807Y-103197192D01*
X128211802Y-103189039D01*
X128349208Y-103076272D01*
X128369408Y-103062775D01*
X128520762Y-102981875D01*
X128543207Y-102972577D01*
X128707445Y-102922757D01*
X128731269Y-102918018D01*
X128908153Y-102900597D01*
X128920307Y-102900000D01*
X138102941Y-102900000D01*
X138114635Y-102900553D01*
G37*
%TD.AperFunction*%
%TD*%
%TA.AperFunction,Conductor*%
%TO.N,/Battery Stack Monitor/-BATT*%
G36*
X31101391Y-64985261D02*
G01*
X31279313Y-65019953D01*
X31303867Y-65027449D01*
X31476777Y-65100559D01*
X31488335Y-65106168D01*
X32371626Y-65593022D01*
X35068146Y-67079292D01*
X39256478Y-69387822D01*
X41774627Y-70775779D01*
X41829045Y-70800066D01*
X41877772Y-70838989D01*
X41966052Y-70956915D01*
X41966055Y-70956918D01*
X42081264Y-71043164D01*
X42081271Y-71043168D01*
X42216117Y-71093462D01*
X42216116Y-71093462D01*
X42223044Y-71094206D01*
X42275727Y-71099871D01*
X45724272Y-71099870D01*
X45783883Y-71093462D01*
X45918731Y-71043167D01*
X45924254Y-71039032D01*
X45989715Y-71014612D01*
X46057989Y-71029461D01*
X46072880Y-71039030D01*
X46078406Y-71043167D01*
X46081268Y-71045309D01*
X46081271Y-71045311D01*
X46216117Y-71095605D01*
X46216116Y-71095605D01*
X46223044Y-71096349D01*
X46275727Y-71102014D01*
X48965500Y-71102013D01*
X49032539Y-71121698D01*
X49078294Y-71174501D01*
X49089500Y-71226013D01*
X49089500Y-78259722D01*
X49077881Y-78312130D01*
X49075186Y-78317909D01*
X49073616Y-78321150D01*
X49039960Y-78388166D01*
X49037488Y-78394958D01*
X49037432Y-78394937D01*
X49034960Y-78402051D01*
X49035015Y-78402070D01*
X49032743Y-78408926D01*
X49017573Y-78482389D01*
X49016793Y-78485905D01*
X48999499Y-78558880D01*
X48998661Y-78566055D01*
X48998601Y-78566048D01*
X48997835Y-78573546D01*
X48997895Y-78573552D01*
X48997265Y-78580741D01*
X48999448Y-78655729D01*
X48999500Y-78659336D01*
X48999500Y-79576000D01*
X48979815Y-79643039D01*
X48927011Y-79688794D01*
X48875500Y-79700000D01*
X31006093Y-79700000D01*
X30993939Y-79699403D01*
X30817065Y-79681982D01*
X30793224Y-79677240D01*
X30629001Y-79627424D01*
X30606543Y-79618121D01*
X30466047Y-79543024D01*
X30416202Y-79494062D01*
X30400500Y-79433666D01*
X30400500Y-73250001D01*
X39044773Y-73250001D01*
X39063657Y-73514027D01*
X39063658Y-73514034D01*
X39119921Y-73772673D01*
X39212426Y-74020690D01*
X39212428Y-74020694D01*
X39339280Y-74253005D01*
X39339285Y-74253013D01*
X39497906Y-74464907D01*
X39497922Y-74464925D01*
X39685074Y-74652077D01*
X39685092Y-74652093D01*
X39896986Y-74810714D01*
X39896994Y-74810719D01*
X40129305Y-74937571D01*
X40129309Y-74937573D01*
X40129311Y-74937574D01*
X40377322Y-75030077D01*
X40377325Y-75030077D01*
X40377326Y-75030078D01*
X40572552Y-75072546D01*
X40635974Y-75086343D01*
X40879660Y-75103772D01*
X40899999Y-75105227D01*
X40900000Y-75105227D01*
X40900001Y-75105227D01*
X40918885Y-75103876D01*
X41164026Y-75086343D01*
X41422678Y-75030077D01*
X41670689Y-74937574D01*
X41903011Y-74810716D01*
X42114915Y-74652087D01*
X42302087Y-74464915D01*
X42460716Y-74253011D01*
X42587574Y-74020689D01*
X42680077Y-73772678D01*
X42736343Y-73514026D01*
X42755227Y-73250000D01*
X42736343Y-72985974D01*
X42680077Y-72727322D01*
X42587574Y-72479311D01*
X42460716Y-72246989D01*
X42460714Y-72246986D01*
X42302093Y-72035092D01*
X42302077Y-72035074D01*
X42114925Y-71847922D01*
X42114907Y-71847906D01*
X41903013Y-71689285D01*
X41903005Y-71689280D01*
X41670694Y-71562428D01*
X41670690Y-71562426D01*
X41422673Y-71469921D01*
X41164034Y-71413658D01*
X41164027Y-71413657D01*
X40900001Y-71394773D01*
X40899999Y-71394773D01*
X40635972Y-71413657D01*
X40635965Y-71413658D01*
X40377326Y-71469921D01*
X40129309Y-71562426D01*
X40129305Y-71562428D01*
X39896994Y-71689280D01*
X39896986Y-71689285D01*
X39685092Y-71847906D01*
X39685074Y-71847922D01*
X39497922Y-72035074D01*
X39497906Y-72035092D01*
X39339285Y-72246986D01*
X39339280Y-72246994D01*
X39212428Y-72479305D01*
X39212426Y-72479309D01*
X39119921Y-72727326D01*
X39063658Y-72985965D01*
X39063657Y-72985972D01*
X39044773Y-73249998D01*
X39044773Y-73250001D01*
X30400500Y-73250001D01*
X30400500Y-65247626D01*
X30420185Y-65180587D01*
X30450718Y-65147965D01*
X30481062Y-65125502D01*
X30503156Y-65112452D01*
X30667950Y-65036915D01*
X30692259Y-65028694D01*
X30869083Y-64988719D01*
X30894565Y-64985682D01*
X31075816Y-64982984D01*
X31101391Y-64985261D01*
G37*
%TD.AperFunction*%
%TD*%
%TA.AperFunction,Conductor*%
%TO.N,+3V3*%
G36*
X112924244Y-109419685D02*
G01*
X112933685Y-109426394D01*
X114052480Y-110303033D01*
X114093108Y-110359876D01*
X114100000Y-110400639D01*
X114100000Y-110905793D01*
X114080315Y-110972832D01*
X114063681Y-110993474D01*
X110801202Y-114255953D01*
X110800627Y-114256524D01*
X106436218Y-118564252D01*
X106374678Y-118597336D01*
X106349112Y-118600000D01*
X97999998Y-118600000D01*
X89400000Y-123999998D01*
X89400000Y-127076000D01*
X89380315Y-127143039D01*
X89327511Y-127188794D01*
X89276000Y-127200000D01*
X88588322Y-127200000D01*
X88543528Y-127191627D01*
X88402459Y-127136977D01*
X88402458Y-127136976D01*
X88402456Y-127136976D01*
X88201976Y-127099500D01*
X87998024Y-127099500D01*
X87797544Y-127136976D01*
X87797542Y-127136976D01*
X87797540Y-127136977D01*
X87656472Y-127191627D01*
X87611678Y-127200000D01*
X86672565Y-127200000D01*
X86605526Y-127180315D01*
X86598670Y-127174790D01*
X86542077Y-127136977D01*
X86507740Y-127114034D01*
X86507738Y-127114033D01*
X86507735Y-127114032D01*
X86434677Y-127099500D01*
X86434674Y-127099500D01*
X84685326Y-127099500D01*
X84685323Y-127099500D01*
X84612264Y-127114032D01*
X84612260Y-127114034D01*
X84519244Y-127176184D01*
X84517365Y-127173373D01*
X84473793Y-127197166D01*
X84447435Y-127200000D01*
X84324000Y-127200000D01*
X84256961Y-127180315D01*
X84211206Y-127127511D01*
X84200000Y-127076000D01*
X84200000Y-123973271D01*
X84219685Y-123906232D01*
X84264180Y-123864653D01*
X93823684Y-118600000D01*
X97972070Y-116315382D01*
X98031888Y-116300000D01*
X104999999Y-116300000D01*
X105000000Y-116300000D01*
X111043296Y-110426936D01*
X111075251Y-110404465D01*
X111106484Y-110389198D01*
X111106486Y-110389195D01*
X111112461Y-110384929D01*
X111118256Y-110380419D01*
X111118255Y-110380419D01*
X111118258Y-110380418D01*
X111151254Y-110344572D01*
X111154756Y-110340924D01*
X111946115Y-109549565D01*
X111947289Y-109548409D01*
X112063909Y-109435075D01*
X112125704Y-109402470D01*
X112150328Y-109400000D01*
X112857205Y-109400000D01*
X112924244Y-109419685D01*
G37*
%TD.AperFunction*%
%TD*%
%TA.AperFunction,Conductor*%
%TO.N,+5V*%
G36*
X100008059Y-55301061D02*
G01*
X100113223Y-55314906D01*
X100144491Y-55323284D01*
X100234918Y-55360740D01*
X100262952Y-55376925D01*
X100340602Y-55436509D01*
X100363491Y-55459398D01*
X100423074Y-55537048D01*
X100439259Y-55565081D01*
X100476715Y-55655508D01*
X100485093Y-55686775D01*
X100498939Y-55791939D01*
X100500000Y-55808125D01*
X100500000Y-65949993D01*
X100500001Y-65950009D01*
X100517036Y-66079408D01*
X100517038Y-66079413D01*
X100566984Y-66199995D01*
X100566984Y-66199996D01*
X100566986Y-66199999D01*
X100566987Y-66200000D01*
X100646447Y-66303553D01*
X100750000Y-66383013D01*
X100750003Y-66383014D01*
X100750004Y-66383015D01*
X100810295Y-66407988D01*
X100870590Y-66432963D01*
X101000000Y-66450000D01*
X102903193Y-66450000D01*
X102903200Y-66450000D01*
X103032610Y-66432963D01*
X103042830Y-66428729D01*
X103047154Y-66426939D01*
X103094606Y-66417500D01*
X103553200Y-66417500D01*
X103553200Y-63671300D01*
X103572885Y-63604261D01*
X103625689Y-63558506D01*
X103677200Y-63547300D01*
X115722800Y-63547300D01*
X115789839Y-63566985D01*
X115835594Y-63619789D01*
X115846800Y-63671300D01*
X115846800Y-66417500D01*
X116308089Y-66417500D01*
X116355511Y-66426926D01*
X116370151Y-66432986D01*
X116499476Y-66450000D01*
X119491874Y-66450000D01*
X119508059Y-66451061D01*
X119613223Y-66464906D01*
X119644491Y-66473284D01*
X119734918Y-66510740D01*
X119762952Y-66526925D01*
X119840602Y-66586509D01*
X119863491Y-66609398D01*
X119923074Y-66687048D01*
X119939259Y-66715081D01*
X119976715Y-66805508D01*
X119985093Y-66836775D01*
X119998939Y-66941939D01*
X120000000Y-66958125D01*
X120000000Y-74429900D01*
X119998896Y-74446413D01*
X119984485Y-74553663D01*
X119975768Y-74585514D01*
X119971395Y-74595838D01*
X119944897Y-74635155D01*
X117778012Y-76802040D01*
X117776600Y-76803431D01*
X105852144Y-88352644D01*
X105769676Y-88457203D01*
X105769674Y-88457206D01*
X105717733Y-88579820D01*
X105717733Y-88579823D01*
X105700000Y-88711804D01*
X105700000Y-88711808D01*
X105700000Y-92648290D01*
X105698599Y-92666877D01*
X105680351Y-92787242D01*
X105669334Y-92822742D01*
X105620355Y-92923787D01*
X105599311Y-92954428D01*
X105516130Y-93043313D01*
X105502407Y-93055927D01*
X105115401Y-93361326D01*
X105103917Y-93369114D01*
X104976717Y-93466717D01*
X104970975Y-93472460D01*
X104970794Y-93472279D01*
X104956697Y-93486566D01*
X104090265Y-94170298D01*
X104090254Y-94170309D01*
X103987842Y-94279744D01*
X103922467Y-94414614D01*
X103922466Y-94414619D01*
X103900000Y-94562804D01*
X103900000Y-97491874D01*
X103898939Y-97508060D01*
X103885093Y-97613224D01*
X103876715Y-97644491D01*
X103839259Y-97734918D01*
X103823074Y-97762951D01*
X103763491Y-97840601D01*
X103740601Y-97863491D01*
X103662951Y-97923074D01*
X103634918Y-97939259D01*
X103544491Y-97976715D01*
X103513224Y-97985093D01*
X103419398Y-97997446D01*
X103408058Y-97998939D01*
X103391874Y-98000000D01*
X100127646Y-98000000D01*
X100060607Y-97980315D01*
X100014852Y-97927511D01*
X100004426Y-97889884D01*
X99985369Y-97720749D01*
X99985368Y-97720745D01*
X99976550Y-97695545D01*
X99925789Y-97550478D01*
X99910741Y-97526530D01*
X99829815Y-97397737D01*
X99702262Y-97270184D01*
X99549523Y-97174211D01*
X99379254Y-97114631D01*
X99379249Y-97114630D01*
X99200004Y-97094435D01*
X99199996Y-97094435D01*
X99020750Y-97114630D01*
X99020745Y-97114631D01*
X98850476Y-97174211D01*
X98697737Y-97270184D01*
X98570184Y-97397737D01*
X98474210Y-97550478D01*
X98414630Y-97720750D01*
X98410869Y-97754133D01*
X98388605Y-97808930D01*
X98389609Y-97809524D01*
X98385638Y-97816236D01*
X98367510Y-97858128D01*
X98362371Y-97868617D01*
X98340374Y-97908628D01*
X98337504Y-97915880D01*
X98335843Y-97915222D01*
X98305100Y-97966873D01*
X98242577Y-97998060D01*
X98220731Y-98000000D01*
X97008126Y-98000000D01*
X96991941Y-97998939D01*
X96978917Y-97997224D01*
X96886775Y-97985093D01*
X96855508Y-97976715D01*
X96765081Y-97939259D01*
X96737048Y-97923074D01*
X96684973Y-97883115D01*
X96659397Y-97863490D01*
X96636508Y-97840601D01*
X96576925Y-97762951D01*
X96560740Y-97734918D01*
X96523284Y-97644491D01*
X96514906Y-97613223D01*
X96501061Y-97508059D01*
X96500000Y-97491874D01*
X96500000Y-96351806D01*
X96510924Y-96300917D01*
X96529627Y-96259361D01*
X96549501Y-96195585D01*
X96583717Y-96085777D01*
X96626821Y-95947453D01*
X96685710Y-95626104D01*
X96705436Y-95300000D01*
X96685710Y-94973896D01*
X96626821Y-94652547D01*
X96566945Y-94460398D01*
X96529633Y-94340657D01*
X96529631Y-94340652D01*
X96529627Y-94340639D01*
X96395545Y-94042721D01*
X96226530Y-93763137D01*
X96226528Y-93763134D01*
X96226526Y-93763131D01*
X96025048Y-93505964D01*
X95985801Y-93466717D01*
X95882163Y-93363079D01*
X95863521Y-93339202D01*
X95690083Y-93050138D01*
X95675570Y-93025949D01*
X95667946Y-93011047D01*
X95624787Y-92910461D01*
X95615873Y-92878277D01*
X95601130Y-92769820D01*
X95600000Y-92753118D01*
X95600000Y-74301630D01*
X95599999Y-74301611D01*
X95589983Y-74202045D01*
X95589982Y-74202043D01*
X95589982Y-74202036D01*
X95560331Y-74106441D01*
X95560330Y-74106439D01*
X95560329Y-74106435D01*
X94576511Y-71786113D01*
X92727091Y-67424272D01*
X92719045Y-67354871D01*
X92749799Y-67292134D01*
X92809589Y-67255982D01*
X92879432Y-67257895D01*
X92892140Y-67262793D01*
X93040639Y-67329627D01*
X93040652Y-67329631D01*
X93040657Y-67329633D01*
X93344367Y-67424272D01*
X93352547Y-67426821D01*
X93673896Y-67485710D01*
X94000000Y-67505436D01*
X94326104Y-67485710D01*
X94647453Y-67426821D01*
X94959361Y-67329627D01*
X95257279Y-67195545D01*
X95536863Y-67026530D01*
X95794036Y-66825048D01*
X96025048Y-66594036D01*
X96226530Y-66336863D01*
X96395545Y-66057279D01*
X96529627Y-65759361D01*
X96626821Y-65447453D01*
X96685710Y-65126104D01*
X96705436Y-64800000D01*
X96685710Y-64473896D01*
X96626821Y-64152547D01*
X96529627Y-63840639D01*
X96395545Y-63542721D01*
X96226530Y-63263137D01*
X96226528Y-63263134D01*
X96226526Y-63263131D01*
X96025045Y-63005960D01*
X95794039Y-62774954D01*
X95536868Y-62573473D01*
X95478678Y-62538296D01*
X95257279Y-62404455D01*
X94959361Y-62270373D01*
X94959354Y-62270370D01*
X94959342Y-62270366D01*
X94647452Y-62173178D01*
X94326099Y-62114289D01*
X94000000Y-62094564D01*
X93673900Y-62114289D01*
X93352547Y-62173178D01*
X93040657Y-62270366D01*
X93040641Y-62270372D01*
X93040639Y-62270373D01*
X92850933Y-62355752D01*
X92742725Y-62404453D01*
X92742723Y-62404454D01*
X92463131Y-62573473D01*
X92205960Y-62774954D01*
X91974953Y-63005961D01*
X91885976Y-63119532D01*
X91829136Y-63160164D01*
X91759352Y-63163616D01*
X91700685Y-63130739D01*
X90350624Y-61780678D01*
X90319871Y-61729731D01*
X90313712Y-61709874D01*
X90308769Y-61685551D01*
X90300623Y-61604571D01*
X90300000Y-61592160D01*
X90300000Y-55808125D01*
X90301061Y-55791940D01*
X90314906Y-55686776D01*
X90323284Y-55655508D01*
X90360740Y-55565081D01*
X90376923Y-55537050D01*
X90436513Y-55459392D01*
X90459392Y-55436513D01*
X90537050Y-55376923D01*
X90565079Y-55360740D01*
X90655509Y-55323283D01*
X90686775Y-55314906D01*
X90791941Y-55301061D01*
X90808126Y-55300000D01*
X99991874Y-55300000D01*
X100008059Y-55301061D01*
G37*
%TD.AperFunction*%
%TD*%
%TA.AperFunction,Conductor*%
%TO.N,+3V3*%
G36*
X119488144Y-102618907D02*
G01*
X119524108Y-102668407D01*
X119528943Y-102700414D01*
X119528405Y-102738065D01*
X119527407Y-102750741D01*
X119518433Y-102813155D01*
X119510495Y-102840190D01*
X119487081Y-102891461D01*
X119471850Y-102915163D01*
X119468862Y-102918611D01*
X119463259Y-102925364D01*
X119457977Y-102932015D01*
X119457970Y-102932025D01*
X119457222Y-102933419D01*
X119456639Y-102934049D01*
X119455552Y-102935702D01*
X119455277Y-102935521D01*
X119423532Y-102969857D01*
X119366227Y-103006686D01*
X119340595Y-103018392D01*
X119286519Y-103034271D01*
X119258626Y-103038282D01*
X119202266Y-103038282D01*
X119174373Y-103034271D01*
X119120293Y-103018391D01*
X119094665Y-103006688D01*
X119023914Y-102961219D01*
X119022760Y-102960392D01*
X119022744Y-102960418D01*
X119017258Y-102956806D01*
X119014769Y-102955342D01*
X118990127Y-102939504D01*
X118984144Y-102938903D01*
X118977182Y-102935510D01*
X118958320Y-102925384D01*
X118954744Y-102923464D01*
X118917346Y-102911313D01*
X118896548Y-102904555D01*
X118833054Y-102894500D01*
X118833051Y-102894500D01*
X116899000Y-102894500D01*
X116866856Y-102897030D01*
X116836206Y-102901883D01*
X116831718Y-102902646D01*
X116831713Y-102902647D01*
X116747617Y-102938591D01*
X116698118Y-102974555D01*
X116670372Y-102998797D01*
X116623464Y-103077307D01*
X116623462Y-103077310D01*
X116604556Y-103135499D01*
X116594500Y-103198996D01*
X116594500Y-103199000D01*
X116594500Y-107551000D01*
X116597030Y-107583143D01*
X116601883Y-107613793D01*
X116602646Y-107618281D01*
X116602647Y-107618286D01*
X116638591Y-107702382D01*
X116638592Y-107702383D01*
X116674556Y-107751883D01*
X116698797Y-107779628D01*
X116777307Y-107826536D01*
X116835498Y-107845443D01*
X116848198Y-107847454D01*
X116898996Y-107855500D01*
X116899000Y-107855500D01*
X118127466Y-107855500D01*
X118127471Y-107855500D01*
X118165401Y-107851969D01*
X118178440Y-107849520D01*
X118201314Y-107845225D01*
X118205581Y-107844310D01*
X118211561Y-107843029D01*
X118293469Y-107802343D01*
X118331747Y-107771044D01*
X118331746Y-107771043D01*
X118356453Y-107750842D01*
X118358856Y-107748398D01*
X118358971Y-107748264D01*
X118358975Y-107748262D01*
X118414510Y-107684169D01*
X118466904Y-107652573D01*
X118489329Y-107650000D01*
X118778029Y-107650000D01*
X118836220Y-107668907D01*
X118852846Y-107684166D01*
X118868631Y-107702383D01*
X118908388Y-107748265D01*
X118915896Y-107755180D01*
X118920798Y-107760021D01*
X118923140Y-107762500D01*
X118932298Y-107772196D01*
X118939686Y-107779628D01*
X119018196Y-107826536D01*
X119032877Y-107831306D01*
X119082377Y-107867267D01*
X119097570Y-107898589D01*
X119118874Y-107974128D01*
X119116472Y-108035266D01*
X119078592Y-108083316D01*
X119023591Y-108100000D01*
X116399000Y-108100000D01*
X116340809Y-108081093D01*
X116304845Y-108031593D01*
X116300000Y-108001000D01*
X116300000Y-102699000D01*
X116318907Y-102640809D01*
X116368407Y-102604845D01*
X116399000Y-102600000D01*
X119429953Y-102600000D01*
X119488144Y-102618907D01*
G37*
%TD.AperFunction*%
%TD*%
%TA.AperFunction,Conductor*%
%TO.N,+BATT*%
G36*
X108819813Y-33752226D02*
G01*
X108871073Y-33763284D01*
X108909115Y-33780499D01*
X108951254Y-33811705D01*
X108966706Y-33825918D01*
X109075733Y-33950000D01*
X113065701Y-38490935D01*
X113072638Y-38499800D01*
X113088882Y-38523187D01*
X113099527Y-38542987D01*
X113110075Y-38569437D01*
X113113643Y-38580111D01*
X113459868Y-39852512D01*
X113499974Y-39928952D01*
X113499975Y-39928953D01*
X113568561Y-39981370D01*
X113652851Y-40000000D01*
X115859624Y-40000000D01*
X115917815Y-40018907D01*
X115953779Y-40068407D01*
X115956722Y-40118314D01*
X115950350Y-40150347D01*
X115947393Y-40170275D01*
X115947389Y-40170309D01*
X115945489Y-40189602D01*
X115945489Y-40189603D01*
X115944500Y-40209755D01*
X115944500Y-41095500D01*
X115925593Y-41153691D01*
X115876093Y-41189655D01*
X115845500Y-41194500D01*
X112519685Y-41194500D01*
X112479616Y-41198446D01*
X112479592Y-41198450D01*
X112441733Y-41205979D01*
X112441707Y-41205986D01*
X112403176Y-41217672D01*
X112403166Y-41217676D01*
X112388537Y-41223735D01*
X112373877Y-41230494D01*
X112360026Y-41237551D01*
X112307776Y-41278745D01*
X112250373Y-41299924D01*
X112246484Y-41300000D01*
X90509752Y-41300000D01*
X90490438Y-41298098D01*
X90474470Y-41294921D01*
X90442775Y-41288617D01*
X90407089Y-41273835D01*
X90406330Y-41273328D01*
X90374949Y-41252359D01*
X90347640Y-41225050D01*
X90326163Y-41192908D01*
X90311382Y-41157222D01*
X90301902Y-41109561D01*
X90300000Y-41090248D01*
X90300000Y-33959751D01*
X90301902Y-33940438D01*
X90311382Y-33892777D01*
X90326162Y-33857092D01*
X90347642Y-33824946D01*
X90374946Y-33797642D01*
X90407092Y-33776162D01*
X90442775Y-33761382D01*
X90468021Y-33756360D01*
X90490439Y-33751902D01*
X90509752Y-33750000D01*
X108798937Y-33750000D01*
X108819813Y-33752226D01*
G37*
%TD.AperFunction*%
%TD*%
%TA.AperFunction,Conductor*%
%TO.N,GND*%
G36*
X125109561Y-34101902D02*
G01*
X125157222Y-34111382D01*
X125192908Y-34126163D01*
X125225050Y-34147640D01*
X125252359Y-34174949D01*
X125273328Y-34206330D01*
X125273835Y-34207089D01*
X125288616Y-34242775D01*
X125298097Y-34290436D01*
X125300000Y-34309751D01*
X125300000Y-41743932D01*
X125299258Y-41756028D01*
X125295518Y-41786409D01*
X125289651Y-41809879D01*
X125280068Y-41834774D01*
X125278651Y-41838454D01*
X125273613Y-41849476D01*
X124162803Y-43932244D01*
X124147197Y-43953871D01*
X124101794Y-44001625D01*
X124056474Y-44028818D01*
X124048261Y-44031093D01*
X123992967Y-44046408D01*
X123966542Y-44050000D01*
X122051335Y-44050000D01*
X121993144Y-44031093D01*
X121981331Y-44021004D01*
X121728996Y-43768669D01*
X121701219Y-43714152D01*
X121700000Y-43698665D01*
X121700000Y-42450001D01*
X121700000Y-42450000D01*
X121684776Y-42373463D01*
X121641421Y-42308579D01*
X121576537Y-42265224D01*
X121500000Y-42250000D01*
X119720289Y-42250000D01*
X119689917Y-42243266D01*
X119689644Y-42244286D01*
X119679820Y-42241653D01*
X119655953Y-42231767D01*
X119654644Y-42231011D01*
X119616379Y-42224264D01*
X119607950Y-42222395D01*
X119583048Y-42215723D01*
X119570407Y-42212336D01*
X119570406Y-42212336D01*
X119570405Y-42212336D01*
X119531695Y-42215723D01*
X119523066Y-42216100D01*
X118738082Y-42216100D01*
X118683080Y-42199415D01*
X118650633Y-42177734D01*
X118650631Y-42177733D01*
X118650628Y-42177732D01*
X118650627Y-42177732D01*
X118592158Y-42166101D01*
X118592148Y-42166100D01*
X117602652Y-42166100D01*
X117602651Y-42166100D01*
X117602641Y-42166101D01*
X117544172Y-42177732D01*
X117544166Y-42177734D01*
X117477851Y-42222045D01*
X117477847Y-42222049D01*
X117440205Y-42278384D01*
X117412897Y-42305693D01*
X117408578Y-42308578D01*
X117365225Y-42373460D01*
X117365225Y-42373461D01*
X117365224Y-42373463D01*
X117353780Y-42430994D01*
X117350000Y-42449999D01*
X117350000Y-43340248D01*
X117348097Y-43359563D01*
X117338616Y-43407224D01*
X117323835Y-43442910D01*
X117302362Y-43475047D01*
X117275047Y-43502362D01*
X117242910Y-43523835D01*
X117207224Y-43538616D01*
X117159563Y-43548097D01*
X117140248Y-43550000D01*
X114757046Y-43550000D01*
X114742525Y-43548929D01*
X114737009Y-43548111D01*
X114737011Y-43548111D01*
X114712831Y-43545730D01*
X114702810Y-43545238D01*
X114687789Y-43544500D01*
X112474452Y-43544500D01*
X112460305Y-43544892D01*
X112446612Y-43545651D01*
X112432478Y-43546828D01*
X112387133Y-43551871D01*
X112387117Y-43551873D01*
X112387114Y-43551874D01*
X112382059Y-43552721D01*
X112359213Y-43556552D01*
X112332498Y-43562569D01*
X112332480Y-43562573D01*
X112305283Y-43570303D01*
X112305278Y-43570304D01*
X112262079Y-43585213D01*
X112248826Y-43590202D01*
X112236154Y-43595378D01*
X112223195Y-43601094D01*
X110423097Y-44455377D01*
X110421874Y-44455947D01*
X102103968Y-48265408D01*
X100616720Y-48946543D01*
X100616719Y-48946544D01*
X100555156Y-48990465D01*
X100514298Y-49054116D01*
X100500000Y-49128379D01*
X100500000Y-54590248D01*
X100498097Y-54609563D01*
X100488616Y-54657224D01*
X100473835Y-54692910D01*
X100452362Y-54725047D01*
X100425047Y-54752362D01*
X100392910Y-54773835D01*
X100357224Y-54788616D01*
X100309563Y-54798097D01*
X100290248Y-54800000D01*
X90509752Y-54800000D01*
X90490438Y-54798098D01*
X90474470Y-54794921D01*
X90442775Y-54788617D01*
X90407089Y-54773835D01*
X90406330Y-54773328D01*
X90374949Y-54752359D01*
X90347640Y-54725050D01*
X90326163Y-54692908D01*
X90311382Y-54657222D01*
X90301902Y-54609561D01*
X90300000Y-54590248D01*
X90300000Y-41809751D01*
X90301902Y-41790438D01*
X90308746Y-41756028D01*
X90311382Y-41742775D01*
X90326162Y-41707092D01*
X90347642Y-41674946D01*
X90374946Y-41647642D01*
X90407092Y-41626162D01*
X90442775Y-41611382D01*
X90468021Y-41606360D01*
X90490439Y-41601902D01*
X90509752Y-41600000D01*
X112300001Y-41600000D01*
X112323570Y-41590237D01*
X112370711Y-41570711D01*
X112400000Y-41500000D01*
X112413596Y-41467173D01*
X112453331Y-41420649D01*
X112467166Y-41413599D01*
X112481810Y-41407534D01*
X112519691Y-41400000D01*
X115949999Y-41400000D01*
X115950000Y-41400000D01*
X116026537Y-41384776D01*
X116091421Y-41341421D01*
X116134776Y-41276537D01*
X116150000Y-41200000D01*
X116150000Y-40209751D01*
X116151902Y-40190438D01*
X116161382Y-40142777D01*
X116176162Y-40107092D01*
X116197642Y-40074946D01*
X116224946Y-40047642D01*
X116257092Y-40026162D01*
X116292775Y-40011382D01*
X116318021Y-40006360D01*
X116340439Y-40001902D01*
X116359752Y-40000000D01*
X117140248Y-40000000D01*
X117159561Y-40001902D01*
X117207222Y-40011382D01*
X117242908Y-40026163D01*
X117275050Y-40047640D01*
X117302359Y-40074949D01*
X117323328Y-40106330D01*
X117323835Y-40107089D01*
X117338616Y-40142775D01*
X117348097Y-40190436D01*
X117350000Y-40209751D01*
X117350000Y-41650000D01*
X117365224Y-41726537D01*
X117365225Y-41726538D01*
X117365225Y-41726539D01*
X117408579Y-41791422D01*
X117408580Y-41791423D01*
X117433173Y-41807856D01*
X117460484Y-41835166D01*
X117467000Y-41844917D01*
X117477848Y-41861152D01*
X117544169Y-41905467D01*
X117588631Y-41914311D01*
X117602641Y-41917098D01*
X117602646Y-41917098D01*
X117602652Y-41917100D01*
X117602653Y-41917100D01*
X118592147Y-41917100D01*
X118592148Y-41917100D01*
X118650631Y-41905467D01*
X118683080Y-41883785D01*
X118738082Y-41867100D01*
X119529866Y-41867100D01*
X119538494Y-41867476D01*
X119577207Y-41870864D01*
X119614754Y-41860802D01*
X119623184Y-41858934D01*
X119665327Y-41851504D01*
X119682516Y-41850000D01*
X121349999Y-41850000D01*
X121350000Y-41850000D01*
X121426537Y-41834776D01*
X121491421Y-41791421D01*
X121534776Y-41726537D01*
X121550000Y-41650000D01*
X121550000Y-34309751D01*
X121551902Y-34290438D01*
X121561382Y-34242777D01*
X121576162Y-34207092D01*
X121597642Y-34174946D01*
X121624946Y-34147642D01*
X121657092Y-34126162D01*
X121692775Y-34111382D01*
X121718021Y-34106360D01*
X121740439Y-34101902D01*
X121759752Y-34100000D01*
X125090248Y-34100000D01*
X125109561Y-34101902D01*
G37*
%TD.AperFunction*%
%TD*%
%TA.AperFunction,Conductor*%
%TO.N,GND*%
G36*
X67921784Y-110606071D02*
G01*
X67921965Y-110605307D01*
X67929516Y-110607091D01*
X67936444Y-110607835D01*
X67989127Y-110613500D01*
X69034872Y-110613499D01*
X69094483Y-110607091D01*
X69094485Y-110607090D01*
X69094487Y-110607090D01*
X69102031Y-110605308D01*
X69102211Y-110606072D01*
X69135867Y-110600000D01*
X69510674Y-110600000D01*
X69577713Y-110619685D01*
X69623468Y-110672489D01*
X69633412Y-110741647D01*
X69609941Y-110798310D01*
X69593206Y-110820665D01*
X69593202Y-110820671D01*
X69542908Y-110955517D01*
X69536501Y-111015116D01*
X69536500Y-111015135D01*
X69536500Y-112560870D01*
X69536501Y-112560876D01*
X69542908Y-112620483D01*
X69593202Y-112755328D01*
X69593206Y-112755335D01*
X69679452Y-112870544D01*
X69679455Y-112870547D01*
X69794664Y-112956793D01*
X69794671Y-112956797D01*
X69929517Y-113007091D01*
X69929516Y-113007091D01*
X69936444Y-113007835D01*
X69989127Y-113013500D01*
X71034872Y-113013499D01*
X71094483Y-113007091D01*
X71229331Y-112956796D01*
X71344546Y-112870546D01*
X71430796Y-112755331D01*
X71481091Y-112620483D01*
X71487500Y-112560873D01*
X71487499Y-112290840D01*
X71507183Y-112223803D01*
X71559987Y-112178048D01*
X71629146Y-112168104D01*
X71654832Y-112174660D01*
X71760017Y-112213891D01*
X71760016Y-112213891D01*
X71766944Y-112214635D01*
X71819627Y-112220300D01*
X72804372Y-112220299D01*
X72863983Y-112213891D01*
X72998831Y-112163596D01*
X73001687Y-112161457D01*
X73005031Y-112160209D01*
X73006614Y-112159346D01*
X73006738Y-112159573D01*
X73067150Y-112137039D01*
X73135423Y-112151889D01*
X73184830Y-112201292D01*
X73200000Y-112260723D01*
X73200000Y-112864047D01*
X73180315Y-112931086D01*
X73163681Y-112951728D01*
X72077228Y-114038181D01*
X72015905Y-114071666D01*
X71989547Y-114074500D01*
X65297520Y-114074500D01*
X65230481Y-114054815D01*
X65184726Y-114002011D01*
X65181338Y-113993834D01*
X65166096Y-113952969D01*
X65166093Y-113952964D01*
X65079847Y-113837755D01*
X65079844Y-113837752D01*
X64964635Y-113751506D01*
X64964628Y-113751502D01*
X64829782Y-113701208D01*
X64829783Y-113701208D01*
X64770183Y-113694801D01*
X64770181Y-113694800D01*
X64770173Y-113694800D01*
X64770164Y-113694800D01*
X63429829Y-113694800D01*
X63429823Y-113694801D01*
X63370216Y-113701208D01*
X63235371Y-113751502D01*
X63235364Y-113751506D01*
X63198310Y-113779245D01*
X63132846Y-113803662D01*
X63064573Y-113788810D01*
X63015168Y-113739404D01*
X63000000Y-113679978D01*
X63000000Y-112051362D01*
X63019685Y-111984323D01*
X63036319Y-111963681D01*
X64363681Y-110636319D01*
X64425004Y-110602834D01*
X64451362Y-110600000D01*
X67888133Y-110600000D01*
X67921784Y-110606071D01*
G37*
%TD.AperFunction*%
%TD*%
%TA.AperFunction,Conductor*%
%TO.N,GND*%
G36*
X88459994Y-112419780D02*
G01*
X88495648Y-112479868D01*
X88499500Y-112510536D01*
X88499500Y-113170000D01*
X88500000Y-113176352D01*
X88500000Y-119063899D01*
X88480315Y-119130938D01*
X88436272Y-119172266D01*
X86284272Y-120369174D01*
X86216116Y-120384556D01*
X86150464Y-120360649D01*
X86108159Y-120305043D01*
X86100000Y-120260807D01*
X86100000Y-116000000D01*
X85024500Y-116000000D01*
X84957461Y-115980315D01*
X84911706Y-115927511D01*
X84900500Y-115876000D01*
X84900500Y-113824000D01*
X84920185Y-113756961D01*
X84972989Y-113711206D01*
X85024500Y-113700000D01*
X85615693Y-113700000D01*
X85622684Y-113700500D01*
X85628039Y-113700500D01*
X85777316Y-113700500D01*
X85784307Y-113700000D01*
X86600000Y-113700000D01*
X86600000Y-112536500D01*
X86619685Y-112469461D01*
X86672489Y-112423706D01*
X86724000Y-112412500D01*
X88250176Y-112412500D01*
X88250177Y-112412499D01*
X88268688Y-112408817D01*
X88323238Y-112397967D01*
X88328045Y-112395976D01*
X88397515Y-112388506D01*
X88459994Y-112419780D01*
G37*
%TD.AperFunction*%
%TD*%
%TA.AperFunction,Conductor*%
%TO.N,GND*%
G36*
X93211971Y-105702381D02*
G01*
X93252346Y-105710412D01*
X93297043Y-105728927D01*
X93320913Y-105744877D01*
X93355122Y-105779086D01*
X93371072Y-105802956D01*
X93389588Y-105847655D01*
X93397617Y-105888020D01*
X93400000Y-105912210D01*
X93400000Y-108976995D01*
X93398939Y-108993180D01*
X93394750Y-109024998D01*
X93394750Y-109025000D01*
X93398939Y-109056817D01*
X93400000Y-109073003D01*
X93400000Y-110287789D01*
X93397617Y-110311982D01*
X93389588Y-110352344D01*
X93371072Y-110397043D01*
X93355122Y-110420913D01*
X93320913Y-110455122D01*
X93297043Y-110471072D01*
X93252344Y-110489588D01*
X93235841Y-110492870D01*
X93211978Y-110497617D01*
X93187789Y-110500000D01*
X91112211Y-110500000D01*
X91088020Y-110497617D01*
X91072744Y-110494578D01*
X91047656Y-110489588D01*
X91002956Y-110471072D01*
X90979086Y-110455122D01*
X90944877Y-110420913D01*
X90928927Y-110397043D01*
X90910412Y-110352346D01*
X90902381Y-110311971D01*
X90900000Y-110287789D01*
X90900000Y-107578471D01*
X90902384Y-107554274D01*
X90903299Y-107549675D01*
X90903299Y-106050328D01*
X90902383Y-106045724D01*
X90900000Y-106021529D01*
X90900000Y-105912210D01*
X90902381Y-105888029D01*
X90910412Y-105847651D01*
X90928927Y-105802956D01*
X90944877Y-105779086D01*
X90979086Y-105744877D01*
X91002956Y-105728927D01*
X91047653Y-105710412D01*
X91088027Y-105702381D01*
X91112211Y-105700000D01*
X93187789Y-105700000D01*
X93211971Y-105702381D01*
G37*
%TD.AperFunction*%
%TD*%
M02*
