%TF.GenerationSoftware,KiCad,Pcbnew,7.0.10*%
%TF.CreationDate,2025-04-22T22:54:08-04:00*%
%TF.ProjectId,bms-board,626d732d-626f-4617-9264-2e6b69636164,rev?*%
%TF.SameCoordinates,Original*%
%TF.FileFunction,Soldermask,Bot*%
%TF.FilePolarity,Negative*%
%FSLAX46Y46*%
G04 Gerber Fmt 4.6, Leading zero omitted, Abs format (unit mm)*
G04 Created by KiCad (PCBNEW 7.0.10) date 2025-04-22 22:54:08*
%MOMM*%
%LPD*%
G01*
G04 APERTURE LIST*
G04 Aperture macros list*
%AMRoundRect*
0 Rectangle with rounded corners*
0 $1 Rounding radius*
0 $2 $3 $4 $5 $6 $7 $8 $9 X,Y pos of 4 corners*
0 Add a 4 corners polygon primitive as box body*
4,1,4,$2,$3,$4,$5,$6,$7,$8,$9,$2,$3,0*
0 Add four circle primitives for the rounded corners*
1,1,$1+$1,$2,$3*
1,1,$1+$1,$4,$5*
1,1,$1+$1,$6,$7*
1,1,$1+$1,$8,$9*
0 Add four rect primitives between the rounded corners*
20,1,$1+$1,$2,$3,$4,$5,0*
20,1,$1+$1,$4,$5,$6,$7,0*
20,1,$1+$1,$6,$7,$8,$9,0*
20,1,$1+$1,$8,$9,$2,$3,0*%
%AMFreePoly0*
4,1,34,-3.500000,0.000000,-3.488454,0.284056,-3.437293,0.659559,-3.345832,1.027329,-3.215145,1.383055,-3.046763,1.722566,-2.842661,2.041881,-2.605231,2.337257,-2.337257,2.605231,-2.041881,2.842661,-1.722566,3.046763,-1.383055,3.215145,-1.027329,3.345832,-0.659559,3.437293,-0.284056,3.488454,0.000000,3.500000,0.284056,3.488454,0.659559,3.437293,1.027329,3.345832,1.383055,3.215145,
1.722566,3.046763,2.041881,2.842661,2.337257,2.605231,2.605231,2.337257,2.842661,2.041881,3.046763,1.722566,3.215145,1.383055,3.345832,1.027329,3.437293,0.659559,3.488454,0.284056,3.500000,0.000000,3.500000,-3.500000,-3.500000,-3.500000,-3.500000,0.000000,-3.500000,0.000000,$1*%
G04 Aperture macros list end*
%ADD10C,5.500000*%
%ADD11C,1.734000*%
%ADD12R,1.700000X1.700000*%
%ADD13O,1.700000X1.700000*%
%ADD14C,4.400000*%
%ADD15C,7.604000*%
%ADD16R,2.489200X1.066800*%
%ADD17C,0.800000*%
%ADD18FreePoly0,270.000000*%
%ADD19R,4.050000X4.050000*%
%ADD20C,4.050000*%
%ADD21C,2.700000*%
%ADD22R,1.400000X1.400000*%
%ADD23C,1.400000*%
%ADD24R,0.863600X0.889000*%
%ADD25RoundRect,0.500000X49.650000X1.650000X-49.650000X1.650000X-49.650000X-1.650000X49.650000X-1.650000X0*%
%ADD26R,0.558800X0.977900*%
%ADD27C,1.600000*%
%ADD28C,1.750000*%
%ADD29C,1.700000*%
%ADD30RoundRect,0.102000X-0.600000X0.600000X-0.600000X-0.600000X0.600000X-0.600000X0.600000X0.600000X0*%
%ADD31C,1.404000*%
%ADD32R,1.700000X0.600000*%
%ADD33R,2.700000X1.000000*%
%ADD34C,1.854200*%
%ADD35C,1.752600*%
%ADD36R,0.889000X0.863600*%
%ADD37R,3.800000X1.800000*%
%ADD38R,0.977900X0.558800*%
%ADD39RoundRect,0.250000X-0.450000X0.262500X-0.450000X-0.262500X0.450000X-0.262500X0.450000X0.262500X0*%
%ADD40C,0.650000*%
%ADD41RoundRect,0.102000X-0.570000X0.300000X-0.570000X-0.300000X0.570000X-0.300000X0.570000X0.300000X0*%
%ADD42RoundRect,0.102000X-0.570000X0.150000X-0.570000X-0.150000X0.570000X-0.150000X0.570000X0.150000X0*%
%ADD43O,2.304000X1.254000*%
%ADD44O,2.004000X1.104000*%
%ADD45RoundRect,0.250000X-0.475000X0.250000X-0.475000X-0.250000X0.475000X-0.250000X0.475000X0.250000X0*%
%ADD46FreePoly0,90.000000*%
%ADD47RoundRect,0.500000X1.650000X1.650000X-1.650000X1.650000X-1.650000X-1.650000X1.650000X-1.650000X0*%
%ADD48RoundRect,0.500000X10.525000X1.650000X-10.525000X1.650000X-10.525000X-1.650000X10.525000X-1.650000X0*%
%ADD49R,2.700000X6.200000*%
G04 APERTURE END LIST*
D10*
%TO.C,H4*%
X164900000Y-124900000D03*
%TD*%
D11*
%TO.C,TP17*%
X60700000Y-980000D03*
%TD*%
D12*
%TO.C,J4*%
X85560000Y-128200000D03*
D13*
X85560000Y-125660000D03*
X88100000Y-128200000D03*
X88100000Y-125660000D03*
X90640000Y-128200000D03*
X90640000Y-125660000D03*
X93180000Y-128200000D03*
X93180000Y-125660000D03*
X95720000Y-128200000D03*
X95720000Y-125660000D03*
X98260000Y-128200000D03*
X98260000Y-125660000D03*
X100800000Y-128200000D03*
X100800000Y-125660000D03*
X103340000Y-128200000D03*
X103340000Y-125660000D03*
X105880000Y-128200000D03*
X105880000Y-125660000D03*
X108420000Y-128200000D03*
X108420000Y-125660000D03*
X110960000Y-128200000D03*
X110960000Y-125660000D03*
X113500000Y-128200000D03*
X113500000Y-125660000D03*
X116040000Y-128200000D03*
X116040000Y-125660000D03*
X118580000Y-128200000D03*
X118580000Y-125660000D03*
%TD*%
D11*
%TO.C,TP5*%
X55300000Y5700000D03*
%TD*%
D10*
%TO.C,H1*%
X59400000Y-52000000D03*
%TD*%
%TO.C,H2*%
X164900000Y-35100000D03*
%TD*%
%TO.C,H3*%
X35100000Y-124900000D03*
%TD*%
D11*
%TO.C,TP6*%
X49010000Y-2948700D03*
%TD*%
%TO.C,TP7*%
X49010000Y5231300D03*
%TD*%
%TO.C,TP2*%
X55300000Y1610000D03*
%TD*%
D14*
%TO.C,MP3*%
X94000000Y-95300000D03*
D15*
X94000000Y-95300000D03*
%TD*%
D16*
%TO.C,C53*%
X102400000Y-53700000D03*
X102400000Y-56544800D03*
%TD*%
%TO.C,C50*%
X95400000Y-53650400D03*
X95400000Y-56495200D03*
%TD*%
D17*
%TO.C,J6*%
X34000000Y-71600000D03*
X32600000Y-71600000D03*
X31200000Y-71600000D03*
X35400000Y-72300000D03*
X34000000Y-73000000D03*
X32600000Y-73000000D03*
X31200000Y-73000000D03*
X36800000Y-73700000D03*
X35400000Y-73700000D03*
X34000000Y-74400000D03*
D18*
X33950000Y-74400000D03*
D17*
X32600000Y-74400000D03*
X31200000Y-74400000D03*
X36800000Y-75100000D03*
X35400000Y-75100000D03*
X34000000Y-75800000D03*
X32600000Y-75800000D03*
X31200000Y-75800000D03*
D19*
X46900000Y-76400000D03*
D17*
X35400000Y-76500000D03*
X34000000Y-77200000D03*
X32600000Y-77200000D03*
X31200000Y-77200000D03*
X34000000Y-82800000D03*
X32600000Y-82800000D03*
X31200000Y-82800000D03*
X35400000Y-83500000D03*
D20*
X46900000Y-83600000D03*
D17*
X34000000Y-84200000D03*
X32600000Y-84200000D03*
X31200000Y-84200000D03*
X36800000Y-84900000D03*
X35400000Y-84900000D03*
X34000000Y-85600000D03*
D18*
X33950000Y-85600000D03*
D17*
X32600000Y-85600000D03*
X31200000Y-85600000D03*
X36800000Y-86300000D03*
X35400000Y-86300000D03*
X34000000Y-87000000D03*
X32600000Y-87000000D03*
X31200000Y-87000000D03*
X35400000Y-87700000D03*
X34000000Y-88400000D03*
X32600000Y-88400000D03*
X31200000Y-88400000D03*
D21*
X40900000Y-86750000D03*
X40900000Y-73250000D03*
%TD*%
D16*
%TO.C,C57*%
X116400000Y-53700000D03*
X116400000Y-56544800D03*
%TD*%
D19*
%TO.C,J9*%
X145500000Y-121257500D03*
D20*
X152700000Y-121257500D03*
D21*
X142350000Y-127257500D03*
X155850000Y-127257500D03*
%TD*%
D22*
%TO.C,J1*%
X39400000Y-65447762D03*
D23*
X39400000Y-62947762D03*
X39400000Y-60447762D03*
X39400000Y-57947762D03*
X39400000Y-55447762D03*
X39400000Y-52947762D03*
X39400000Y-50447762D03*
X39400000Y-47947762D03*
X39400000Y-45447762D03*
X39400000Y-42947762D03*
X39400000Y-40447762D03*
X39400000Y-37947762D03*
X39400000Y-35447762D03*
%TD*%
D16*
%TO.C,C55*%
X109400000Y-53700000D03*
X109400000Y-56544800D03*
%TD*%
D24*
%TO.C,C69*%
X124000000Y-103800000D03*
X125651000Y-103800000D03*
%TD*%
D25*
%TO.C,BB1*%
X100750000Y-83650000D03*
%TD*%
D14*
%TO.C,MP4*%
X124500000Y-95300000D03*
D15*
X124500000Y-95300000D03*
%TD*%
D26*
%TO.C,CR2*%
X159050001Y-109505250D03*
X158100000Y-109505250D03*
X157149999Y-109505250D03*
X157149999Y-106774750D03*
X158100000Y-106774750D03*
X159050001Y-106774750D03*
%TD*%
D16*
%TO.C,C51*%
X98900000Y-53655200D03*
X98900000Y-56500000D03*
%TD*%
D27*
%TO.C,J10*%
X166700000Y-45200000D03*
D28*
X166700000Y-50200000D03*
D12*
X159520000Y-50200000D03*
D29*
X159520000Y-47700000D03*
X159520000Y-45200000D03*
%TD*%
D30*
%TO.C,C28*%
X100200000Y-39108400D03*
D31*
X100200000Y-44108400D03*
%TD*%
D16*
%TO.C,C56*%
X112900000Y-53700000D03*
X112900000Y-56544800D03*
%TD*%
D32*
%TO.C,J17*%
X165300000Y-56700000D03*
X165300000Y-57950000D03*
X165300000Y-59200000D03*
X165300000Y-60450000D03*
X165300000Y-61700000D03*
X165300000Y-62950000D03*
D33*
X168500000Y-54850000D03*
X168500000Y-64800000D03*
%TD*%
D24*
%TO.C,C66*%
X123251000Y-107600000D03*
X121600000Y-107600000D03*
%TD*%
D34*
%TO.C,J2*%
X33278097Y-102683400D03*
D35*
X42958098Y-102683400D03*
X42958098Y-105183400D03*
X42958098Y-107683400D03*
X42958098Y-110183400D03*
X40458098Y-102683400D03*
X40458098Y-105183400D03*
X40458098Y-107683400D03*
X40458098Y-110183400D03*
%TD*%
D27*
%TO.C,J15*%
X71400000Y-126700000D03*
D28*
X68900000Y-126700000D03*
D12*
X68900000Y-119520000D03*
D29*
X71400000Y-119520000D03*
%TD*%
D16*
%TO.C,C54*%
X105900000Y-53700000D03*
X105900000Y-56544800D03*
%TD*%
D14*
%TO.C,MP2*%
X124500000Y-64800000D03*
D15*
X124500000Y-64800000D03*
%TD*%
D36*
%TO.C,C70*%
X125600000Y-105349000D03*
X125600000Y-107000000D03*
%TD*%
D27*
%TO.C,J13*%
X68900000Y-33300000D03*
D28*
X71400000Y-33300000D03*
D12*
X71400000Y-40480000D03*
D29*
X68900000Y-40480000D03*
%TD*%
D33*
%TO.C,J12*%
X162350000Y-106590000D03*
X162350000Y-108590000D03*
X162350000Y-110590000D03*
X162350000Y-112590000D03*
X162350000Y-114590000D03*
X162350000Y-116590000D03*
D37*
X166800000Y-104240000D03*
X166800000Y-118940000D03*
%TD*%
D38*
%TO.C,CR3*%
X162600000Y-58863498D03*
X162600000Y-59813499D03*
X162600000Y-60763500D03*
X159869500Y-60763500D03*
X159869500Y-59813499D03*
X159869500Y-58863498D03*
%TD*%
%TO.C,CR1*%
X159610000Y-96289999D03*
X159610000Y-97240000D03*
X159610000Y-98190001D03*
X156879500Y-98190001D03*
X156879500Y-97240000D03*
X156879500Y-96289999D03*
%TD*%
D14*
%TO.C,MP1*%
X94000000Y-64800000D03*
D15*
X94000000Y-64800000D03*
%TD*%
D39*
%TO.C,R109*%
X114200000Y-45720800D03*
X114200000Y-47545800D03*
%TD*%
D16*
%TO.C,C49*%
X91900000Y-53650400D03*
X91900000Y-56495200D03*
%TD*%
D40*
%TO.C,J3*%
X163820000Y-94330000D03*
X163820000Y-100110000D03*
D41*
X162750000Y-94020000D03*
X162750000Y-94820000D03*
D42*
X162750000Y-95970000D03*
X162750000Y-96970000D03*
X162750000Y-97470000D03*
X162750000Y-98470000D03*
D41*
X162750000Y-100420000D03*
X162750000Y-99620000D03*
D42*
X162750000Y-98970000D03*
X162750000Y-97970000D03*
X162750000Y-96470000D03*
X162750000Y-95470000D03*
D43*
X163320000Y-92900000D03*
X163320000Y-101540000D03*
D44*
X167500000Y-92900000D03*
X167500000Y-101540000D03*
%TD*%
D19*
%TO.C,J7*%
X152600000Y-38720000D03*
D20*
X145400000Y-38720000D03*
D21*
X155750000Y-32720000D03*
X142250000Y-32720000D03*
%TD*%
D19*
%TO.C,J5*%
X57500000Y-38700000D03*
D20*
X50300000Y-38700000D03*
D21*
X60650000Y-32700000D03*
X47150000Y-32700000D03*
%TD*%
D24*
%TO.C,C71*%
X117700000Y-107700000D03*
X116049000Y-107700000D03*
%TD*%
D27*
%TO.C,J16*%
X134100000Y-126720000D03*
D28*
X131600000Y-126720000D03*
D12*
X131600000Y-119540000D03*
D29*
X134100000Y-119540000D03*
%TD*%
D45*
%TO.C,C42*%
X114200000Y-49145800D03*
X114200000Y-51045800D03*
%TD*%
D27*
%TO.C,J14*%
X131500000Y-33320000D03*
D28*
X134000000Y-33320000D03*
D12*
X134000000Y-40500000D03*
D29*
X131500000Y-40500000D03*
%TD*%
D17*
%TO.C,J11*%
X166100000Y-89300000D03*
X167500000Y-89300000D03*
X168900000Y-89300000D03*
X164700000Y-88600000D03*
X166100000Y-87900000D03*
X167500000Y-87900000D03*
X168900000Y-87900000D03*
X163300000Y-87200000D03*
X164700000Y-87200000D03*
X166100000Y-86500000D03*
D46*
X166150000Y-86500000D03*
D17*
X167500000Y-86500000D03*
X168900000Y-86500000D03*
X163300000Y-85800000D03*
X164700000Y-85800000D03*
X166100000Y-85100000D03*
X167500000Y-85100000D03*
X168900000Y-85100000D03*
X164700000Y-84400000D03*
X166100000Y-83700000D03*
X167500000Y-83700000D03*
X168900000Y-83700000D03*
D19*
X154100000Y-83600000D03*
D20*
X154100000Y-76400000D03*
D17*
X166100000Y-76300000D03*
X167500000Y-76300000D03*
X168900000Y-76300000D03*
X164700000Y-75600000D03*
X166100000Y-74900000D03*
X167500000Y-74900000D03*
X168900000Y-74900000D03*
X163300000Y-74200000D03*
X164700000Y-74200000D03*
X166100000Y-73500000D03*
D46*
X166150000Y-73500000D03*
D17*
X167500000Y-73500000D03*
X168900000Y-73500000D03*
X163300000Y-72800000D03*
X164700000Y-72800000D03*
X166100000Y-72100000D03*
X167500000Y-72100000D03*
X168900000Y-72100000D03*
X164700000Y-71400000D03*
X166100000Y-70700000D03*
X167500000Y-70700000D03*
X168900000Y-70700000D03*
D21*
X160100000Y-86750000D03*
X160100000Y-73250000D03*
%TD*%
D47*
%TO.C,BB2*%
X148700000Y-76150000D03*
D48*
X109800000Y-76150000D03*
D47*
X65180000Y-76160000D03*
%TD*%
D49*
%TO.C,R92*%
X52300000Y-76400000D03*
X60600000Y-76400000D03*
%TD*%
D24*
%TO.C,C68*%
X118168198Y-103100000D03*
X116517198Y-103100000D03*
%TD*%
D19*
%TO.C,J8*%
X50300000Y-121300000D03*
D20*
X57500000Y-121300000D03*
D21*
X47150000Y-127300000D03*
X60650000Y-127300000D03*
%TD*%
M02*
