%TF.GenerationSoftware,KiCad,Pcbnew,7.0.10*%
%TF.CreationDate,2025-04-22T22:54:08-04:00*%
%TF.ProjectId,bms-board,626d732d-626f-4617-9264-2e6b69636164,rev?*%
%TF.SameCoordinates,Original*%
%TF.FileFunction,Soldermask,Top*%
%TF.FilePolarity,Negative*%
%FSLAX46Y46*%
G04 Gerber Fmt 4.6, Leading zero omitted, Abs format (unit mm)*
G04 Created by KiCad (PCBNEW 7.0.10) date 2025-04-22 22:54:08*
%MOMM*%
%LPD*%
G01*
G04 APERTURE LIST*
G04 Aperture macros list*
%AMRoundRect*
0 Rectangle with rounded corners*
0 $1 Rounding radius*
0 $2 $3 $4 $5 $6 $7 $8 $9 X,Y pos of 4 corners*
0 Add a 4 corners polygon primitive as box body*
4,1,4,$2,$3,$4,$5,$6,$7,$8,$9,$2,$3,0*
0 Add four circle primitives for the rounded corners*
1,1,$1+$1,$2,$3*
1,1,$1+$1,$4,$5*
1,1,$1+$1,$6,$7*
1,1,$1+$1,$8,$9*
0 Add four rect primitives between the rounded corners*
20,1,$1+$1,$2,$3,$4,$5,0*
20,1,$1+$1,$4,$5,$6,$7,0*
20,1,$1+$1,$6,$7,$8,$9,0*
20,1,$1+$1,$8,$9,$2,$3,0*%
%AMFreePoly0*
4,1,34,-3.500000,0.000000,-3.488454,0.284056,-3.437293,0.659559,-3.345832,1.027329,-3.215145,1.383055,-3.046763,1.722566,-2.842661,2.041881,-2.605231,2.337257,-2.337257,2.605231,-2.041881,2.842661,-1.722566,3.046763,-1.383055,3.215145,-1.027329,3.345832,-0.659559,3.437293,-0.284056,3.488454,0.000000,3.500000,0.284056,3.488454,0.659559,3.437293,1.027329,3.345832,1.383055,3.215145,
1.722566,3.046763,2.041881,2.842661,2.337257,2.605231,2.605231,2.337257,2.842661,2.041881,3.046763,1.722566,3.215145,1.383055,3.345832,1.027329,3.437293,0.659559,3.488454,0.284056,3.500000,0.000000,3.500000,-3.500000,-3.500000,-3.500000,-3.500000,0.000000,-3.500000,0.000000,$1*%
G04 Aperture macros list end*
%ADD10R,1.450000X0.950000*%
%ADD11C,5.500000*%
%ADD12RoundRect,0.102000X-0.445000X-0.465000X0.445000X-0.465000X0.445000X0.465000X-0.445000X0.465000X0*%
%ADD13R,1.397000X0.863600*%
%ADD14R,1.300000X0.700000*%
%ADD15R,0.863600X1.397000*%
%ADD16C,1.734000*%
%ADD17R,0.950000X1.450000*%
%ADD18R,3.352800X0.903200*%
%ADD19R,1.193800X1.016000*%
%ADD20R,0.700000X0.600000*%
%ADD21R,1.016000X1.193800*%
%ADD22R,1.600000X0.855600*%
%ADD23R,0.300000X1.475000*%
%ADD24R,1.475000X0.300000*%
%ADD25C,1.000000*%
%ADD26R,12.192000X3.022600*%
%ADD27R,0.863600X1.244600*%
%ADD28R,0.889000X0.863600*%
%ADD29R,1.524000X0.533400*%
%ADD30R,0.965200X1.346200*%
%ADD31R,0.863600X0.889000*%
%ADD32RoundRect,0.102000X0.400000X-0.450000X0.400000X0.450000X-0.400000X0.450000X-0.400000X-0.450000X0*%
%ADD33R,1.244600X0.863600*%
%ADD34R,1.000000X1.400000*%
%ADD35RoundRect,0.102000X-0.460000X-0.690000X0.460000X-0.690000X0.460000X0.690000X-0.460000X0.690000X0*%
%ADD36RoundRect,0.102000X0.460000X0.690000X-0.460000X0.690000X-0.460000X-0.690000X0.460000X-0.690000X0*%
%ADD37R,2.489200X1.066800*%
%ADD38R,0.700000X1.300000*%
%ADD39RoundRect,0.242500X-0.242500X-0.367500X0.242500X-0.367500X0.242500X0.367500X-0.242500X0.367500X0*%
%ADD40RoundRect,0.102000X0.735000X-0.580000X0.735000X0.580000X-0.735000X0.580000X-0.735000X-0.580000X0*%
%ADD41R,1.700000X1.700000*%
%ADD42O,1.700000X1.700000*%
%ADD43O,1.649999X0.449999*%
%ADD44RoundRect,0.102000X0.555000X0.735000X-0.555000X0.735000X-0.555000X-0.735000X0.555000X-0.735000X0*%
%ADD45R,1.549400X0.609600*%
%ADD46R,1.549400X3.251200*%
%ADD47RoundRect,0.102000X-0.690000X0.460000X-0.690000X-0.460000X0.690000X-0.460000X0.690000X0.460000X0*%
%ADD48R,1.066800X2.489200*%
%ADD49RoundRect,0.102000X-0.650000X-0.750000X0.650000X-0.750000X0.650000X0.750000X-0.650000X0.750000X0*%
%ADD50R,1.066800X1.397000*%
%ADD51R,1.447800X1.117600*%
%ADD52R,1.397000X1.066800*%
%ADD53RoundRect,0.102000X0.445000X0.465000X-0.445000X0.465000X-0.445000X-0.465000X0.445000X-0.465000X0*%
%ADD54R,0.609600X1.320800*%
%ADD55R,1.346200X0.965200*%
%ADD56RoundRect,0.102000X-0.465000X0.445000X-0.465000X-0.445000X0.465000X-0.445000X0.465000X0.445000X0*%
%ADD57R,1.449997X1.305598*%
%ADD58R,1.400000X1.100000*%
%ADD59R,1.244600X0.939800*%
%ADD60R,1.150000X0.600000*%
%ADD61RoundRect,0.050000X-0.387500X-0.050000X0.387500X-0.050000X0.387500X0.050000X-0.387500X0.050000X0*%
%ADD62RoundRect,0.050000X-0.050000X-0.387500X0.050000X-0.387500X0.050000X0.387500X-0.050000X0.387500X0*%
%ADD63RoundRect,0.144000X-1.456000X-1.456000X1.456000X-1.456000X1.456000X1.456000X-1.456000X1.456000X0*%
%ADD64R,0.889000X0.990600*%
%ADD65R,1.701800X0.558800*%
%ADD66R,1.005599X1.199998*%
%ADD67RoundRect,0.102000X0.650000X0.750000X-0.650000X0.750000X-0.650000X-0.750000X0.650000X-0.750000X0*%
%ADD68R,0.855600X1.600000*%
%ADD69R,1.320800X0.558800*%
%ADD70R,1.305598X1.449997*%
%ADD71RoundRect,0.102000X-0.175000X0.475000X-0.175000X-0.475000X0.175000X-0.475000X0.175000X0.475000X0*%
%ADD72RoundRect,0.102000X-0.475000X0.175000X-0.475000X-0.175000X0.475000X-0.175000X0.475000X0.175000X0*%
%ADD73RoundRect,0.102000X-0.675000X0.150000X-0.675000X-0.150000X0.675000X-0.150000X0.675000X0.150000X0*%
%ADD74RoundRect,0.102000X-0.550000X1.700000X-0.550000X-1.700000X0.550000X-1.700000X0.550000X1.700000X0*%
%ADD75RoundRect,0.102000X-1.350000X0.550000X-1.350000X-0.550000X1.350000X-0.550000X1.350000X0.550000X0*%
%ADD76RoundRect,0.102000X-1.350000X0.760000X-1.350000X-0.760000X1.350000X-0.760000X1.350000X0.760000X0*%
%ADD77RoundRect,0.102000X-0.865000X1.050000X-0.865000X-1.050000X0.865000X-1.050000X0.865000X1.050000X0*%
%ADD78RoundRect,0.102000X0.465000X-0.445000X0.465000X0.445000X-0.465000X0.445000X-0.465000X-0.445000X0*%
%ADD79C,4.400000*%
%ADD80C,0.800000*%
%ADD81FreePoly0,270.000000*%
%ADD82R,4.050000X4.050000*%
%ADD83C,4.050000*%
%ADD84C,2.700000*%
%ADD85R,1.400000X1.400000*%
%ADD86C,1.400000*%
%ADD87C,1.600000*%
%ADD88C,1.750000*%
%ADD89C,1.700000*%
%ADD90RoundRect,0.102000X-0.600000X0.600000X-0.600000X-0.600000X0.600000X-0.600000X0.600000X0.600000X0*%
%ADD91C,1.404000*%
%ADD92C,1.854200*%
%ADD93C,1.752600*%
%ADD94C,0.650000*%
%ADD95O,2.304000X1.254000*%
%ADD96O,2.004000X1.104000*%
%ADD97FreePoly0,90.000000*%
G04 APERTURE END LIST*
%TO.C,U5*%
G36*
X138704500Y-107551000D02*
G01*
X136443900Y-107551000D01*
X136443900Y-104249000D01*
X138704500Y-104249000D01*
X138704500Y-107551000D01*
G37*
%TD*%
D10*
%TO.C,R1*%
X60500000Y-106900000D03*
X60500000Y-108900000D03*
%TD*%
D11*
%TO.C,H4*%
X164900000Y-124900000D03*
%TD*%
D12*
%TO.C,C88*%
X178859998Y-66200000D03*
X180399998Y-66200000D03*
%TD*%
D13*
%TO.C,R78*%
X71338850Y-93200000D03*
X71338850Y-95257400D03*
%TD*%
D14*
%TO.C,R91*%
X89700000Y-113900000D03*
X89700000Y-115800000D03*
%TD*%
%TO.C,R117*%
X136700000Y-111500000D03*
X136700000Y-113400000D03*
%TD*%
D15*
%TO.C,R82*%
X84081450Y-99728700D03*
X86138850Y-99728700D03*
%TD*%
D16*
%TO.C,TP17*%
X60700000Y-980000D03*
%TD*%
D17*
%TO.C,R46*%
X84400000Y-65000000D03*
X82400000Y-65000000D03*
%TD*%
D10*
%TO.C,R30*%
X67850000Y-74900000D03*
X67850000Y-72900000D03*
%TD*%
D18*
%TO.C,R3*%
X44000000Y-70147771D03*
X44000000Y-68891971D03*
%TD*%
D19*
%TO.C,R108*%
X121625000Y-52500300D03*
X121625000Y-54202100D03*
%TD*%
D10*
%TO.C,R6*%
X60500000Y-103200000D03*
X60500000Y-105200000D03*
%TD*%
D20*
%TO.C,Z3*%
X55800000Y-97100000D03*
X55800000Y-95700000D03*
%TD*%
D21*
%TO.C,R37*%
X68801800Y-63949000D03*
X67100000Y-63949000D03*
%TD*%
D22*
%TO.C,C30*%
X104800000Y-43108400D03*
X104800000Y-40052798D03*
%TD*%
D23*
%TO.C,U2*%
X86000000Y-106024000D03*
X85500000Y-106024000D03*
X85000000Y-106024000D03*
X84500000Y-106024000D03*
X84000000Y-106024000D03*
X83500000Y-106024000D03*
X83000000Y-106024000D03*
X82500000Y-106024000D03*
X82000000Y-106024000D03*
X81500000Y-106024000D03*
X81000000Y-106024000D03*
X80500000Y-106024000D03*
D24*
X79012000Y-107512000D03*
X79012000Y-108012000D03*
X79012000Y-108512000D03*
X79012000Y-109012000D03*
X79012000Y-109512000D03*
X79012000Y-110012000D03*
X79012000Y-110512000D03*
X79012000Y-111012000D03*
X79012000Y-111512000D03*
X79012000Y-112012000D03*
X79012000Y-112512000D03*
X79012000Y-113012000D03*
D23*
X80500000Y-114500000D03*
X81000000Y-114500000D03*
X81500000Y-114500000D03*
X82000000Y-114500000D03*
X82500000Y-114500000D03*
X83000000Y-114500000D03*
X83500000Y-114500000D03*
X84000000Y-114500000D03*
X84500000Y-114500000D03*
X85000000Y-114500000D03*
X85500000Y-114500000D03*
X86000000Y-114500000D03*
D24*
X87488000Y-113012000D03*
X87488000Y-112512000D03*
X87488000Y-112012000D03*
X87488000Y-111512000D03*
X87488000Y-111012000D03*
X87488000Y-110512000D03*
X87488000Y-110012000D03*
X87488000Y-109512000D03*
X87488000Y-109012000D03*
X87488000Y-108512000D03*
X87488000Y-108012000D03*
X87488000Y-107512000D03*
%TD*%
D25*
%TO.C,TP3*%
X60600000Y1450000D03*
%TD*%
D26*
%TO.C,L1*%
X109700000Y-50555200D03*
X109700000Y-65109400D03*
%TD*%
D27*
%TO.C,C27*%
X86754200Y-119200000D03*
X84900000Y-119200000D03*
%TD*%
D17*
%TO.C,R93*%
X70512000Y-111788000D03*
X68512000Y-111788000D03*
%TD*%
D14*
%TO.C,R116*%
X107600000Y-100100000D03*
X107600000Y-102000000D03*
%TD*%
D17*
%TO.C,R61*%
X93400000Y-74600000D03*
X91400000Y-74600000D03*
%TD*%
D25*
%TO.C,TP13*%
X72810800Y-171999200D03*
%TD*%
D18*
%TO.C,R43*%
X44000000Y-45155800D03*
X44000000Y-43900000D03*
%TD*%
%TO.C,R28*%
X44000000Y-54443743D03*
X44000000Y-53187943D03*
%TD*%
%TO.C,R58*%
X32400000Y-35408038D03*
X32400000Y-34152238D03*
%TD*%
D25*
%TO.C,TP9*%
X205556500Y-76331000D03*
%TD*%
D28*
%TO.C,C34*%
X111500000Y-42300000D03*
X111500000Y-40649000D03*
%TD*%
D25*
%TO.C,TP8*%
X205556500Y-72781000D03*
%TD*%
D29*
%TO.C,U4*%
X106555100Y-93895000D03*
X106555100Y-95165000D03*
X106555100Y-96435000D03*
X106555100Y-97705000D03*
X113844900Y-97705000D03*
X113844900Y-96435000D03*
X113844900Y-95165000D03*
X113844900Y-93895000D03*
%TD*%
D30*
%TO.C,LED14*%
X112554200Y-140000000D03*
X110700000Y-140000000D03*
%TD*%
D31*
%TO.C,C61*%
X114200000Y-92100000D03*
X115851000Y-92100000D03*
%TD*%
D32*
%TO.C,Q2*%
X49849800Y-102100000D03*
X51750200Y-102100000D03*
X50800000Y-100100000D03*
%TD*%
D33*
%TO.C,C25*%
X78300000Y-120900000D03*
X78300000Y-119045800D03*
%TD*%
D34*
%TO.C,LED3*%
X58000000Y-93900000D03*
X59800000Y-93900000D03*
%TD*%
D28*
%TO.C,C1*%
X62700000Y-107249000D03*
X62700000Y-108900000D03*
%TD*%
D35*
%TO.C,R129*%
X197810000Y-47410000D03*
X199720000Y-47410000D03*
%TD*%
D31*
%TO.C,C76*%
X124400000Y-102200000D03*
X126051000Y-102200000D03*
%TD*%
D18*
%TO.C,R14*%
X48000000Y-63955800D03*
X48000000Y-62700000D03*
%TD*%
D36*
%TO.C,R112*%
X168210000Y-94840000D03*
X166300000Y-94840000D03*
%TD*%
D37*
%TO.C,C46*%
X95400000Y-53655200D03*
X95400000Y-56500000D03*
%TD*%
D38*
%TO.C,R70*%
X90600000Y-90700000D03*
X92500000Y-90700000D03*
%TD*%
%TO.C,R62*%
X94500000Y-81500000D03*
X92600000Y-81500000D03*
%TD*%
%TO.C,R123*%
X135440000Y-91900000D03*
X133540000Y-91900000D03*
%TD*%
D10*
%TO.C,R15*%
X62400000Y-94700000D03*
X62400000Y-92700000D03*
%TD*%
D39*
%TO.C,D1*%
X91800000Y-114600000D03*
X95080000Y-114600000D03*
%TD*%
D40*
%TO.C,C37*%
X120500000Y-49600000D03*
X120500000Y-47840000D03*
%TD*%
D41*
%TO.C,J4*%
X85560000Y-128200000D03*
D42*
X85560000Y-125660000D03*
X88100000Y-128200000D03*
X88100000Y-125660000D03*
X90640000Y-128200000D03*
X90640000Y-125660000D03*
X93180000Y-128200000D03*
X93180000Y-125660000D03*
X95720000Y-128200000D03*
X95720000Y-125660000D03*
X98260000Y-128200000D03*
X98260000Y-125660000D03*
X100800000Y-128200000D03*
X100800000Y-125660000D03*
X103340000Y-128200000D03*
X103340000Y-125660000D03*
X105880000Y-128200000D03*
X105880000Y-125660000D03*
X108420000Y-128200000D03*
X108420000Y-125660000D03*
X110960000Y-128200000D03*
X110960000Y-125660000D03*
X113500000Y-128200000D03*
X113500000Y-125660000D03*
X116040000Y-128200000D03*
X116040000Y-125660000D03*
X118580000Y-128200000D03*
X118580000Y-125660000D03*
%TD*%
D19*
%TO.C,R130*%
X156400000Y-65201800D03*
X156400000Y-63500000D03*
%TD*%
D17*
%TO.C,R51*%
X88300000Y-65800000D03*
X86300000Y-65800000D03*
%TD*%
D33*
%TO.C,C22*%
X64100000Y-112772900D03*
X64100000Y-114627100D03*
%TD*%
D18*
%TO.C,R13*%
X44000000Y-63955800D03*
X44000000Y-62700000D03*
%TD*%
D15*
%TO.C,R88*%
X69138850Y-99728700D03*
X71196250Y-99728700D03*
%TD*%
D37*
%TO.C,C47*%
X91900000Y-53655200D03*
X91900000Y-56500000D03*
%TD*%
D43*
%TO.C,U1*%
X79549999Y-80000000D03*
X79549999Y-80650001D03*
X79549999Y-81300000D03*
X79549999Y-81950001D03*
X79549999Y-82600000D03*
X79549999Y-83250001D03*
X79549999Y-83900000D03*
X79549999Y-84550001D03*
X79549999Y-85200000D03*
X79549999Y-85850001D03*
X79549999Y-86499999D03*
X79549999Y-87150001D03*
X86800000Y-87150001D03*
X86800000Y-86499999D03*
X86800000Y-85850001D03*
X86800000Y-85200000D03*
X86800000Y-84550001D03*
X86800000Y-83900000D03*
X86800000Y-83250001D03*
X86800000Y-82600000D03*
X86800000Y-81950001D03*
X86800000Y-81300000D03*
X86800000Y-80650001D03*
X86800000Y-80000000D03*
%TD*%
D34*
%TO.C,LED2*%
X55700000Y-100500000D03*
X57500000Y-100500000D03*
%TD*%
D10*
%TO.C,R35*%
X69600000Y-68300000D03*
X69600000Y-66300000D03*
%TD*%
D30*
%TO.C,LED13*%
X230174300Y-82129300D03*
X232028500Y-82129300D03*
%TD*%
D28*
%TO.C,C5*%
X71300000Y-84200000D03*
X71300000Y-82549000D03*
%TD*%
D13*
%TO.C,R77*%
X73838850Y-93200000D03*
X73838850Y-95257400D03*
%TD*%
D28*
%TO.C,C6*%
X73300000Y-77600000D03*
X73300000Y-75949000D03*
%TD*%
D17*
%TO.C,R41*%
X80500000Y-65000000D03*
X78500000Y-65000000D03*
%TD*%
D44*
%TO.C,C21*%
X76500000Y-115200000D03*
X74700000Y-115200000D03*
%TD*%
D20*
%TO.C,Z2*%
X53600000Y-103700000D03*
X53600000Y-102300000D03*
%TD*%
D27*
%TO.C,C24*%
X78654200Y-117100000D03*
X76800000Y-117100000D03*
%TD*%
D10*
%TO.C,R10*%
X60100000Y-101300000D03*
X60100000Y-99300000D03*
%TD*%
D25*
%TO.C,TP15*%
X162900000Y-156400000D03*
%TD*%
D21*
%TO.C,R2*%
X55201800Y-110100000D03*
X53500000Y-110100000D03*
%TD*%
D25*
%TO.C,TP22*%
X106200000Y-106300000D03*
%TD*%
D45*
%TO.C,U5*%
X144025800Y-108198700D03*
D46*
X137574200Y-105900000D03*
D45*
X144025800Y-105900000D03*
X144025800Y-103601300D03*
%TD*%
D28*
%TO.C,C7*%
X75000000Y-71000000D03*
X75000000Y-69349000D03*
%TD*%
D18*
%TO.C,R4*%
X48000000Y-70149914D03*
X48000000Y-68894114D03*
%TD*%
D16*
%TO.C,TP5*%
X55300000Y5700000D03*
%TD*%
D34*
%TO.C,LED8*%
X67100000Y-61100000D03*
X68900000Y-61100000D03*
%TD*%
D15*
%TO.C,R81*%
X86581450Y-97328700D03*
X88638850Y-97328700D03*
%TD*%
D17*
%TO.C,R56*%
X90800000Y-70200000D03*
X88800000Y-70200000D03*
%TD*%
D25*
%TO.C,TP11*%
X157825800Y-152551300D03*
%TD*%
D21*
%TO.C,R32*%
X66901800Y-70449000D03*
X65200000Y-70449000D03*
%TD*%
D34*
%TO.C,LED12*%
X82649100Y-34700000D03*
X84449100Y-34700000D03*
%TD*%
D47*
%TO.C,R95*%
X106400000Y-32690000D03*
X106400000Y-34600000D03*
%TD*%
D36*
%TO.C,R111*%
X168210000Y-99440000D03*
X166300000Y-99440000D03*
%TD*%
D18*
%TO.C,R33*%
X44000000Y-51347762D03*
X44000000Y-50091962D03*
%TD*%
D15*
%TO.C,R87*%
X71581450Y-97328700D03*
X73638850Y-97328700D03*
%TD*%
D33*
%TO.C,C41*%
X121625000Y-55975000D03*
X121625000Y-57829200D03*
%TD*%
D20*
%TO.C,Z1*%
X51500000Y-110400000D03*
X51500000Y-109000000D03*
%TD*%
D28*
%TO.C,C65*%
X117000000Y-96249000D03*
X117000000Y-97900000D03*
%TD*%
D13*
%TO.C,R74*%
X81338850Y-93200000D03*
X81338850Y-95257400D03*
%TD*%
D10*
%TO.C,R31*%
X72800000Y-69000000D03*
X72800000Y-71000000D03*
%TD*%
D18*
%TO.C,R23*%
X44000000Y-57539724D03*
X44000000Y-56283924D03*
%TD*%
D10*
%TO.C,R50*%
X78500000Y-48651000D03*
X78500000Y-46651000D03*
%TD*%
D31*
%TO.C,C77*%
X135400000Y-97600000D03*
X133749000Y-97600000D03*
%TD*%
D21*
%TO.C,R7*%
X57301800Y-103400000D03*
X55600000Y-103400000D03*
%TD*%
D48*
%TO.C,C44*%
X71600000Y-122500000D03*
X68755200Y-122500000D03*
%TD*%
D49*
%TO.C,C59*%
X115000000Y-115600000D03*
X116900000Y-115600000D03*
%TD*%
D50*
%TO.C,C62*%
X146400000Y-103200000D03*
X148203400Y-103200000D03*
%TD*%
D38*
%TO.C,R69*%
X91100000Y-88400000D03*
X93000000Y-88400000D03*
%TD*%
D13*
%TO.C,R76*%
X76338850Y-93200000D03*
X76338850Y-95257400D03*
%TD*%
D18*
%TO.C,R53*%
X32400000Y-38504019D03*
X32400000Y-37248219D03*
%TD*%
D25*
%TO.C,TP33*%
X154200000Y-47600000D03*
%TD*%
D32*
%TO.C,Q1*%
X47749800Y-108900000D03*
X49650200Y-108900000D03*
X48700000Y-106900000D03*
%TD*%
D33*
%TO.C,C26*%
X81500000Y-117300000D03*
X81500000Y-119154200D03*
%TD*%
D11*
%TO.C,H1*%
X59400000Y-52000000D03*
%TD*%
D18*
%TO.C,R44*%
X48000000Y-45155800D03*
X48000000Y-43900000D03*
%TD*%
D22*
%TO.C,C29*%
X102400000Y-43108400D03*
X102400000Y-40052798D03*
%TD*%
D33*
%TO.C,C39*%
X123700000Y-52418700D03*
X123700000Y-54272900D03*
%TD*%
D28*
%TO.C,C18*%
X74112000Y-109788000D03*
X74112000Y-111439000D03*
%TD*%
D19*
%TO.C,R100*%
X122390000Y-34931300D03*
X122390000Y-33229500D03*
%TD*%
D34*
%TO.C,LED7*%
X65200000Y-67600000D03*
X67000000Y-67600000D03*
%TD*%
D13*
%TO.C,R79*%
X68838850Y-93200000D03*
X68838850Y-95257400D03*
%TD*%
D51*
%TO.C,C35*%
X128070200Y-45279600D03*
X128070200Y-47073200D03*
%TD*%
D14*
%TO.C,R120*%
X102800000Y-103600000D03*
X102800000Y-101700000D03*
%TD*%
D52*
%TO.C,C86*%
X159400000Y-56800000D03*
X159400000Y-54996600D03*
%TD*%
D48*
%TO.C,C52*%
X68655200Y-37900000D03*
X71500000Y-37900000D03*
%TD*%
D38*
%TO.C,R67*%
X92100000Y-83800000D03*
X94000000Y-83800000D03*
%TD*%
D25*
%TO.C,TP14*%
X162900000Y-152850000D03*
%TD*%
D34*
%TO.C,LED1*%
X53600000Y-107200000D03*
X55400000Y-107200000D03*
%TD*%
D53*
%TO.C,C78*%
X135040000Y-90100000D03*
X133500000Y-90100000D03*
%TD*%
D34*
%TO.C,LED9*%
X71000000Y-54300000D03*
X72800000Y-54300000D03*
%TD*%
D25*
%TO.C,TP1*%
X60600000Y5000000D03*
%TD*%
D11*
%TO.C,H2*%
X164900000Y-35100000D03*
%TD*%
D32*
%TO.C,Q11*%
X75149800Y-42800000D03*
X77050200Y-42800000D03*
X76100000Y-40800000D03*
%TD*%
D21*
%TO.C,R17*%
X61151800Y-90200000D03*
X59450000Y-90200000D03*
%TD*%
D19*
%TO.C,R98*%
X125970200Y-47171400D03*
X125970200Y-48873200D03*
%TD*%
D10*
%TO.C,R45*%
X75400000Y-55100000D03*
X75400000Y-53100000D03*
%TD*%
D21*
%TO.C,R115*%
X103398200Y-99700000D03*
X105100000Y-99700000D03*
%TD*%
D15*
%TO.C,R84*%
X79181450Y-99728700D03*
X81238850Y-99728700D03*
%TD*%
D44*
%TO.C,C38*%
X118400000Y-47100000D03*
X116600000Y-47100000D03*
%TD*%
D17*
%TO.C,R80*%
X91800000Y-111900000D03*
X89800000Y-111900000D03*
%TD*%
D28*
%TO.C,C3*%
X64900000Y-101300000D03*
X64900000Y-99649000D03*
%TD*%
D54*
%TO.C,U9*%
X182999998Y-64600000D03*
X184900000Y-64600000D03*
X183949999Y-62569600D03*
%TD*%
D10*
%TO.C,R20*%
X64050000Y-88100000D03*
X64050000Y-86100000D03*
%TD*%
D55*
%TO.C,LED15*%
X120200000Y-140300000D03*
X120200000Y-138445800D03*
%TD*%
D56*
%TO.C,C67*%
X121700000Y-98060000D03*
X121700000Y-99600000D03*
%TD*%
D25*
%TO.C,TP18*%
X96600000Y-106300000D03*
%TD*%
D21*
%TO.C,R57*%
X84150900Y-37800000D03*
X82449100Y-37800000D03*
%TD*%
D31*
%TO.C,C73*%
X110751000Y-108200000D03*
X109100000Y-108200000D03*
%TD*%
D17*
%TO.C,R36*%
X76600000Y-65000000D03*
X74600000Y-65000000D03*
%TD*%
D15*
%TO.C,R85*%
X76581450Y-97328700D03*
X78638850Y-97328700D03*
%TD*%
D32*
%TO.C,Q3*%
X52049800Y-95500000D03*
X53950200Y-95500000D03*
X53000000Y-93500000D03*
%TD*%
D31*
%TO.C,C12*%
X88900000Y-72400000D03*
X90551000Y-72400000D03*
%TD*%
D19*
%TO.C,R103*%
X120221800Y-33229500D03*
X120221800Y-34931300D03*
%TD*%
D31*
%TO.C,C85*%
X153449000Y-58900000D03*
X155100000Y-58900000D03*
%TD*%
D10*
%TO.C,R26*%
X71150000Y-75600000D03*
X71150000Y-77600000D03*
%TD*%
D31*
%TO.C,C79*%
X134451000Y-99300000D03*
X132800000Y-99300000D03*
%TD*%
D21*
%TO.C,R47*%
X75801800Y-50900000D03*
X74100000Y-50900000D03*
%TD*%
D35*
%TO.C,R97*%
X98632400Y-32823700D03*
X100542400Y-32823700D03*
%TD*%
D10*
%TO.C,R133*%
X180699998Y-60600000D03*
X180699998Y-58600000D03*
%TD*%
D25*
%TO.C,TP25*%
X136000000Y-68300000D03*
%TD*%
D22*
%TO.C,C31*%
X107200000Y-43100000D03*
X107200000Y-40044398D03*
%TD*%
D21*
%TO.C,R12*%
X59401800Y-96800000D03*
X57700000Y-96800000D03*
%TD*%
D32*
%TO.C,Q5*%
X55700000Y-82300000D03*
X57600400Y-82300000D03*
X56650200Y-80300000D03*
%TD*%
D31*
%TO.C,C10*%
X82400000Y-67200000D03*
X84051000Y-67200000D03*
%TD*%
D35*
%TO.C,R114*%
X107190000Y-140000000D03*
X109100000Y-140000000D03*
%TD*%
D28*
%TO.C,C75*%
X118700000Y-97900000D03*
X118700000Y-96249000D03*
%TD*%
D37*
%TO.C,C45*%
X98900000Y-53655200D03*
X98900000Y-56500000D03*
%TD*%
D25*
%TO.C,TP29*%
X141000000Y-59400000D03*
%TD*%
D19*
%TO.C,R119*%
X120800000Y-93800000D03*
X120800000Y-92098200D03*
%TD*%
D38*
%TO.C,R107*%
X122600000Y-43400000D03*
X120700000Y-43400000D03*
%TD*%
D14*
%TO.C,R64*%
X75000000Y-86300000D03*
X75000000Y-84400000D03*
%TD*%
D18*
%TO.C,R9*%
X48000000Y-67051781D03*
X48000000Y-65795981D03*
%TD*%
D31*
%TO.C,C11*%
X86300000Y-68000000D03*
X87951000Y-68000000D03*
%TD*%
D32*
%TO.C,Q9*%
X65099600Y-55800000D03*
X67000000Y-55800000D03*
X66049800Y-53800000D03*
%TD*%
D25*
%TO.C,TP27*%
X144300000Y-114700000D03*
%TD*%
D32*
%TO.C,Q8*%
X61300000Y-62500000D03*
X63200400Y-62500000D03*
X62250200Y-60500000D03*
%TD*%
D25*
%TO.C,TP12*%
X157825800Y-163201300D03*
%TD*%
D12*
%TO.C,C87*%
X180359998Y-80200000D03*
X181899998Y-80200000D03*
%TD*%
D35*
%TO.C,R96*%
X102232400Y-32823700D03*
X104142400Y-32823700D03*
%TD*%
D21*
%TO.C,R22*%
X63201800Y-83600000D03*
X61500000Y-83600000D03*
%TD*%
D18*
%TO.C,R19*%
X48000000Y-60635705D03*
X48000000Y-59379905D03*
%TD*%
D25*
%TO.C,TP21*%
X100500000Y-109500000D03*
%TD*%
D18*
%TO.C,R18*%
X44000000Y-60635705D03*
X44000000Y-59379905D03*
%TD*%
D34*
%TO.C,LED5*%
X61600000Y-80600000D03*
X63400000Y-80600000D03*
%TD*%
D15*
%TO.C,R89*%
X66581450Y-97328700D03*
X68638850Y-97328700D03*
%TD*%
D52*
%TO.C,C82*%
X148200000Y-58900000D03*
X148200000Y-57096600D03*
%TD*%
D53*
%TO.C,C80*%
X134340000Y-93600000D03*
X132800000Y-93600000D03*
%TD*%
D38*
%TO.C,R68*%
X91600000Y-86100000D03*
X93500000Y-86100000D03*
%TD*%
D31*
%TO.C,C74*%
X112400000Y-102200000D03*
X110749000Y-102200000D03*
%TD*%
D28*
%TO.C,C83*%
X150400000Y-58651000D03*
X150400000Y-57000000D03*
%TD*%
D18*
%TO.C,R29*%
X48000000Y-54443743D03*
X48000000Y-53187943D03*
%TD*%
D10*
%TO.C,R40*%
X71500000Y-61700000D03*
X71500000Y-59700000D03*
%TD*%
%TO.C,R11*%
X62600000Y-99300000D03*
X62600000Y-101300000D03*
%TD*%
D34*
%TO.C,LED10*%
X74200000Y-47851000D03*
X76000000Y-47851000D03*
%TD*%
D20*
%TO.C,Z9*%
X69000000Y-57500000D03*
X69000000Y-56100000D03*
%TD*%
D57*
%TO.C,C32*%
X109600000Y-42254598D03*
X109600000Y-40649000D03*
%TD*%
D17*
%TO.C,R125*%
X134800000Y-95600000D03*
X132800000Y-95600000D03*
%TD*%
D28*
%TO.C,C17*%
X72312000Y-109888000D03*
X72312000Y-108237000D03*
%TD*%
D21*
%TO.C,R124*%
X129298200Y-95560900D03*
X131000000Y-95560900D03*
%TD*%
D25*
%TO.C,TP4*%
X60335000Y-181897900D03*
%TD*%
D31*
%TO.C,C43*%
X121000000Y-68200000D03*
X119349000Y-68200000D03*
%TD*%
D28*
%TO.C,C33*%
X117487400Y-35866100D03*
X117487400Y-37517100D03*
%TD*%
%TO.C,C81*%
X161600000Y-46900000D03*
X161600000Y-48551000D03*
%TD*%
D58*
%TO.C,X1*%
X116900000Y-119300000D03*
X119100000Y-119300000D03*
X119100000Y-117699998D03*
X116900000Y-117699998D03*
%TD*%
D18*
%TO.C,R39*%
X48000000Y-48251781D03*
X48000000Y-46995981D03*
%TD*%
D11*
%TO.C,H3*%
X35100000Y-124900000D03*
%TD*%
D59*
%TO.C,LED16*%
X149900000Y-50900000D03*
X149900000Y-47600002D03*
X145023200Y-47600002D03*
X145023200Y-50900000D03*
%TD*%
D25*
%TO.C,TP28*%
X143500000Y-55000000D03*
%TD*%
D57*
%TO.C,C19*%
X76212000Y-111293598D03*
X76212000Y-109688000D03*
%TD*%
D36*
%TO.C,R104*%
X122400000Y-40600000D03*
X120490000Y-40600000D03*
%TD*%
D14*
%TO.C,R66*%
X77100000Y-86300000D03*
X77100000Y-84400000D03*
%TD*%
D32*
%TO.C,Q6*%
X57650000Y-75700000D03*
X59550400Y-75700000D03*
X58600200Y-73700000D03*
%TD*%
D38*
%TO.C,R122*%
X132200000Y-91900000D03*
X130300000Y-91900000D03*
%TD*%
D12*
%TO.C,C36*%
X120780000Y-36700000D03*
X122320000Y-36700000D03*
%TD*%
D31*
%TO.C,C9*%
X78500000Y-67200000D03*
X80151000Y-67200000D03*
%TD*%
D10*
%TO.C,R60*%
X87000000Y-35500000D03*
X87000000Y-33500000D03*
%TD*%
D28*
%TO.C,C84*%
X157200000Y-56796600D03*
X157200000Y-55145600D03*
%TD*%
D16*
%TO.C,TP6*%
X49010000Y-2948700D03*
%TD*%
D50*
%TO.C,C64*%
X141600000Y-110900000D03*
X139796600Y-110900000D03*
%TD*%
D60*
%TO.C,Q13*%
X142329200Y-99050000D03*
X142329200Y-100950000D03*
X144629200Y-100000000D03*
%TD*%
D61*
%TO.C,U6*%
X115600000Y-102762500D03*
X115600000Y-103162500D03*
X115600000Y-103562500D03*
X115600000Y-103962500D03*
X115600000Y-104362500D03*
X115600000Y-104762500D03*
X115600000Y-105162500D03*
X115600000Y-105562500D03*
X115600000Y-105962500D03*
X115600000Y-106362500D03*
X115600000Y-106762500D03*
X115600000Y-107162500D03*
X115600000Y-107562500D03*
X115600000Y-107962500D03*
D62*
X116437500Y-108800000D03*
X116837500Y-108800000D03*
X117237500Y-108800000D03*
X117637500Y-108800000D03*
X118037500Y-108800000D03*
X118437500Y-108800000D03*
X118837500Y-108800000D03*
X119237500Y-108800000D03*
X119637500Y-108800000D03*
X120037500Y-108800000D03*
X120437500Y-108800000D03*
X120837500Y-108800000D03*
X121237500Y-108800000D03*
X121637500Y-108800000D03*
D61*
X122475000Y-107962500D03*
X122475000Y-107562500D03*
X122475000Y-107162500D03*
X122475000Y-106762500D03*
X122475000Y-106362500D03*
X122475000Y-105962500D03*
X122475000Y-105562500D03*
X122475000Y-105162500D03*
X122475000Y-104762500D03*
X122475000Y-104362500D03*
X122475000Y-103962500D03*
X122475000Y-103562500D03*
X122475000Y-103162500D03*
X122475000Y-102762500D03*
D62*
X121637500Y-101925000D03*
X121237500Y-101925000D03*
X120837500Y-101925000D03*
X120437500Y-101925000D03*
X120037500Y-101925000D03*
X119637500Y-101925000D03*
X119237500Y-101925000D03*
X118837500Y-101925000D03*
X118437500Y-101925000D03*
X118037500Y-101925000D03*
X117637500Y-101925000D03*
X117237500Y-101925000D03*
X116837500Y-101925000D03*
X116437500Y-101925000D03*
D63*
X119037500Y-105362500D03*
%TD*%
D35*
%TO.C,R99*%
X125890000Y-145568700D03*
X127800000Y-145568700D03*
%TD*%
D16*
%TO.C,TP7*%
X49010000Y5231300D03*
%TD*%
D32*
%TO.C,Q4*%
X53699800Y-88900000D03*
X55600200Y-88900000D03*
X54650000Y-86900000D03*
%TD*%
D10*
%TO.C,R55*%
X85400000Y-42100000D03*
X85400000Y-40100000D03*
%TD*%
D21*
%TO.C,R42*%
X72701800Y-57249000D03*
X71000000Y-57249000D03*
%TD*%
D18*
%TO.C,R54*%
X36400000Y-38504019D03*
X36400000Y-37248219D03*
%TD*%
D54*
%TO.C,U8*%
X184399998Y-78700000D03*
X186300000Y-78700000D03*
X185349999Y-76669600D03*
%TD*%
D50*
%TO.C,C63*%
X148200000Y-105900000D03*
X146396600Y-105900000D03*
%TD*%
D28*
%TO.C,C4*%
X64600000Y-97525500D03*
X64600000Y-95874500D03*
%TD*%
D25*
%TO.C,TP23*%
X104800000Y-109500000D03*
%TD*%
D21*
%TO.C,R94*%
X86701800Y-116900000D03*
X85000000Y-116900000D03*
%TD*%
D10*
%TO.C,R16*%
X64900000Y-92000000D03*
X64900000Y-94000000D03*
%TD*%
D25*
%TO.C,TP31*%
X82985000Y-178397900D03*
%TD*%
D10*
%TO.C,R132*%
X182198197Y-72800000D03*
X182198197Y-74800000D03*
%TD*%
D18*
%TO.C,R49*%
X32400000Y-41600000D03*
X32400000Y-40344200D03*
%TD*%
D35*
%TO.C,R128*%
X197810000Y-44480000D03*
X199720000Y-44480000D03*
%TD*%
D19*
%TO.C,R113*%
X118800000Y-113600000D03*
X118800000Y-111898200D03*
%TD*%
D18*
%TO.C,R59*%
X36400000Y-35408038D03*
X36400000Y-34152238D03*
%TD*%
D14*
%TO.C,R63*%
X75000000Y-87600000D03*
X75000000Y-89500000D03*
%TD*%
D33*
%TO.C,C23*%
X66400000Y-113700000D03*
X66400000Y-115554200D03*
%TD*%
D64*
%TO.C,SW2*%
X130900000Y-113400000D03*
X134999996Y-113400000D03*
X130900000Y-115000002D03*
X134999996Y-115000002D03*
D65*
X132949998Y-112775000D03*
%TD*%
D66*
%TO.C,R101*%
X122395598Y-38531300D03*
X120690000Y-38531300D03*
%TD*%
D15*
%TO.C,R86*%
X74181450Y-99728700D03*
X76238850Y-99728700D03*
%TD*%
D25*
%TO.C,TP19*%
X96600000Y-109500000D03*
%TD*%
D34*
%TO.C,LED6*%
X63450000Y-74100000D03*
X65250000Y-74100000D03*
%TD*%
D25*
%TO.C,TP30*%
X82985000Y-175347900D03*
%TD*%
D48*
%TO.C,C58*%
X131355200Y-37600000D03*
X134200000Y-37600000D03*
%TD*%
D20*
%TO.C,Z6*%
X61450000Y-77300000D03*
X61450000Y-75900000D03*
%TD*%
D17*
%TO.C,R90*%
X70512000Y-109388000D03*
X68512000Y-109388000D03*
%TD*%
D13*
%TO.C,R102*%
X126100000Y-54457400D03*
X126100000Y-52400000D03*
%TD*%
D35*
%TO.C,R127*%
X197810000Y-38620000D03*
X199720000Y-38620000D03*
%TD*%
D19*
%TO.C,R118*%
X118700000Y-93800000D03*
X118700000Y-92098200D03*
%TD*%
D28*
%TO.C,C20*%
X72312000Y-111288000D03*
X72312000Y-112939000D03*
%TD*%
D18*
%TO.C,R48*%
X36400000Y-41600000D03*
X36400000Y-40344200D03*
%TD*%
D20*
%TO.C,Z11*%
X79000000Y-44500000D03*
X79000000Y-43100000D03*
%TD*%
D67*
%TO.C,C60*%
X121000000Y-115600000D03*
X119100000Y-115600000D03*
%TD*%
D19*
%TO.C,R110*%
X124025000Y-47173200D03*
X124025000Y-48875000D03*
%TD*%
D32*
%TO.C,Q7*%
X59400000Y-69100000D03*
X61300400Y-69100000D03*
X60350200Y-67100000D03*
%TD*%
D28*
%TO.C,C14*%
X86800000Y-76649000D03*
X86800000Y-78300000D03*
%TD*%
D10*
%TO.C,R5*%
X58000000Y-108000000D03*
X58000000Y-106000000D03*
%TD*%
D21*
%TO.C,R52*%
X82701800Y-44349000D03*
X81000000Y-44349000D03*
%TD*%
D68*
%TO.C,C15*%
X92855602Y-109300000D03*
X89800000Y-109300000D03*
%TD*%
D18*
%TO.C,R38*%
X44000000Y-48251781D03*
X44000000Y-46995981D03*
%TD*%
D16*
%TO.C,TP2*%
X55300000Y1610000D03*
%TD*%
D35*
%TO.C,R126*%
X197810000Y-41550000D03*
X199720000Y-41550000D03*
%TD*%
D25*
%TO.C,TP20*%
X101600000Y-106300000D03*
%TD*%
D69*
%TO.C,U7*%
X155100000Y-56850001D03*
X155100000Y-55900000D03*
X155100000Y-54949999D03*
X152509200Y-54949999D03*
X152509200Y-55900000D03*
X152509200Y-56850001D03*
%TD*%
D25*
%TO.C,TP24*%
X137600000Y-58200000D03*
%TD*%
%TO.C,TP32*%
X320200000Y-162200000D03*
%TD*%
D70*
%TO.C,C16*%
X91605598Y-106800000D03*
X90000000Y-106800000D03*
%TD*%
D28*
%TO.C,C40*%
X113597400Y-36140600D03*
X113597400Y-37791600D03*
%TD*%
D13*
%TO.C,R75*%
X78838850Y-93200000D03*
X78838850Y-95257400D03*
%TD*%
D32*
%TO.C,Q10*%
X68300000Y-49351000D03*
X70200400Y-49351000D03*
X69250200Y-47351000D03*
%TD*%
D13*
%TO.C,R71*%
X88838850Y-93200000D03*
X88838850Y-95257400D03*
%TD*%
D35*
%TO.C,R106*%
X221426500Y-78916000D03*
X223336500Y-78916000D03*
%TD*%
D18*
%TO.C,R34*%
X48000000Y-51347762D03*
X48000000Y-50091962D03*
%TD*%
D53*
%TO.C,C72*%
X125940000Y-100500000D03*
X124400000Y-100500000D03*
%TD*%
D10*
%TO.C,R134*%
X182199996Y-76500000D03*
X182199996Y-78500000D03*
%TD*%
%TO.C,R21*%
X69100000Y-82200000D03*
X69100000Y-84200000D03*
%TD*%
D18*
%TO.C,R8*%
X44000000Y-67051781D03*
X44000000Y-65795981D03*
%TD*%
D48*
%TO.C,C48*%
X134222400Y-122300000D03*
X131377600Y-122300000D03*
%TD*%
D20*
%TO.C,Z10*%
X72100000Y-51051000D03*
X72100000Y-49651000D03*
%TD*%
D17*
%TO.C,R131*%
X154400000Y-61200000D03*
X156400000Y-61200000D03*
%TD*%
D64*
%TO.C,SW1*%
X96900004Y-99499998D03*
X101000000Y-99499998D03*
X96900004Y-101100000D03*
X101000000Y-101100000D03*
D65*
X98950002Y-98874998D03*
%TD*%
D71*
%TO.C,U3*%
X117272400Y-39266600D03*
X116622400Y-39266600D03*
X115972400Y-39266600D03*
X115322400Y-39266600D03*
X114322400Y-39266600D03*
X113822400Y-39266600D03*
D72*
X113047400Y-40271600D03*
X113047400Y-40921600D03*
X113047400Y-42051600D03*
X113047400Y-42551600D03*
X113047400Y-43051600D03*
D71*
X113672400Y-44316600D03*
X114172400Y-44316600D03*
X114672400Y-44316600D03*
D73*
X114172400Y-43991600D03*
D71*
X115322400Y-44316600D03*
X115822400Y-44316600D03*
X116322400Y-44316600D03*
X116822400Y-44316600D03*
X117322400Y-44316600D03*
D72*
X118097400Y-43541600D03*
X118097400Y-43041600D03*
X118097400Y-42541600D03*
X118097400Y-42041600D03*
X118097400Y-41541600D03*
X118097400Y-41041600D03*
X118097400Y-40541600D03*
X118097400Y-40041600D03*
D74*
X116772400Y-41791600D03*
D75*
X114572400Y-40591600D03*
D76*
X114572400Y-42201600D03*
D77*
X114087400Y-42491600D03*
%TD*%
D28*
%TO.C,C2*%
X62800000Y-103549000D03*
X62800000Y-105200000D03*
%TD*%
D10*
%TO.C,R25*%
X66000000Y-81500000D03*
X66000000Y-79500000D03*
%TD*%
D31*
%TO.C,C13*%
X91400000Y-76800000D03*
X93051000Y-76800000D03*
%TD*%
D10*
%TO.C,R135*%
X180699998Y-62400000D03*
X180699998Y-64400000D03*
%TD*%
D25*
%TO.C,TP10*%
X205556500Y-79881000D03*
%TD*%
D32*
%TO.C,Q12*%
X76548700Y-36175300D03*
X78449100Y-36175300D03*
X77498900Y-34175300D03*
%TD*%
D25*
%TO.C,TP26*%
X147800000Y-113500000D03*
%TD*%
D18*
%TO.C,R24*%
X48000000Y-57539724D03*
X48000000Y-56283924D03*
%TD*%
D34*
%TO.C,LED11*%
X81000000Y-41300000D03*
X82800000Y-41300000D03*
%TD*%
D13*
%TO.C,R72*%
X86338850Y-93200000D03*
X86338850Y-95257400D03*
%TD*%
D20*
%TO.C,Z7*%
X63200000Y-70800000D03*
X63200000Y-69400000D03*
%TD*%
%TO.C,Z8*%
X65100000Y-64300000D03*
X65100000Y-62900000D03*
%TD*%
D78*
%TO.C,R105*%
X115097400Y-37791600D03*
X115097400Y-36163600D03*
%TD*%
D15*
%TO.C,R83*%
X81581450Y-97328700D03*
X83638850Y-97328700D03*
%TD*%
D21*
%TO.C,R27*%
X65151800Y-77000000D03*
X63450000Y-77000000D03*
%TD*%
D14*
%TO.C,R65*%
X77100000Y-87600000D03*
X77100000Y-89500000D03*
%TD*%
D31*
%TO.C,C8*%
X74600000Y-67200000D03*
X76251000Y-67200000D03*
%TD*%
D13*
%TO.C,R73*%
X83838850Y-93200000D03*
X83838850Y-95257400D03*
%TD*%
D34*
%TO.C,LED4*%
X59650000Y-87300000D03*
X61450000Y-87300000D03*
%TD*%
D20*
%TO.C,Z12*%
X80500000Y-37900000D03*
X80500000Y-36500000D03*
%TD*%
D25*
%TO.C,TP16*%
X162900000Y-159950000D03*
%TD*%
D20*
%TO.C,Z5*%
X59500000Y-83800000D03*
X59500000Y-82400000D03*
%TD*%
%TO.C,Z4*%
X57450000Y-90500000D03*
X57450000Y-89100000D03*
%TD*%
D17*
%TO.C,R121*%
X115900000Y-137445800D03*
X117900000Y-137445800D03*
%TD*%
D39*
%TO.C,D2*%
X139760000Y-96200000D03*
X143040000Y-96200000D03*
%TD*%
D79*
%TO.C,MP3*%
X94000000Y-95300000D03*
%TD*%
D80*
%TO.C,J6*%
X34000000Y-71600000D03*
X32600000Y-71600000D03*
X31200000Y-71600000D03*
X35400000Y-72300000D03*
X34000000Y-73000000D03*
X32600000Y-73000000D03*
X31200000Y-73000000D03*
X36800000Y-73700000D03*
X35400000Y-73700000D03*
X34000000Y-74400000D03*
D81*
X33950000Y-74400000D03*
D80*
X32600000Y-74400000D03*
X31200000Y-74400000D03*
X36800000Y-75100000D03*
X35400000Y-75100000D03*
X34000000Y-75800000D03*
X32600000Y-75800000D03*
X31200000Y-75800000D03*
D82*
X46900000Y-76400000D03*
D80*
X35400000Y-76500000D03*
X34000000Y-77200000D03*
X32600000Y-77200000D03*
X31200000Y-77200000D03*
X34000000Y-82800000D03*
X32600000Y-82800000D03*
X31200000Y-82800000D03*
X35400000Y-83500000D03*
D83*
X46900000Y-83600000D03*
D80*
X34000000Y-84200000D03*
X32600000Y-84200000D03*
X31200000Y-84200000D03*
X36800000Y-84900000D03*
X35400000Y-84900000D03*
X34000000Y-85600000D03*
D81*
X33950000Y-85600000D03*
D80*
X32600000Y-85600000D03*
X31200000Y-85600000D03*
X36800000Y-86300000D03*
X35400000Y-86300000D03*
X34000000Y-87000000D03*
X32600000Y-87000000D03*
X31200000Y-87000000D03*
X35400000Y-87700000D03*
X34000000Y-88400000D03*
X32600000Y-88400000D03*
X31200000Y-88400000D03*
D84*
X40900000Y-86750000D03*
X40900000Y-73250000D03*
%TD*%
D82*
%TO.C,J9*%
X145500000Y-121257500D03*
D83*
X152700000Y-121257500D03*
D84*
X142350000Y-127257500D03*
X155850000Y-127257500D03*
%TD*%
D85*
%TO.C,J1*%
X39400000Y-65447762D03*
D86*
X39400000Y-62947762D03*
X39400000Y-60447762D03*
X39400000Y-57947762D03*
X39400000Y-55447762D03*
X39400000Y-52947762D03*
X39400000Y-50447762D03*
X39400000Y-47947762D03*
X39400000Y-45447762D03*
X39400000Y-42947762D03*
X39400000Y-40447762D03*
X39400000Y-37947762D03*
X39400000Y-35447762D03*
%TD*%
D79*
%TO.C,MP4*%
X124500000Y-95300000D03*
%TD*%
D87*
%TO.C,J10*%
X166700000Y-45200000D03*
D88*
X166700000Y-50200000D03*
D41*
X159520000Y-50200000D03*
D89*
X159520000Y-47700000D03*
X159520000Y-45200000D03*
%TD*%
D90*
%TO.C,C28*%
X100200000Y-39108400D03*
D91*
X100200000Y-44108400D03*
%TD*%
D92*
%TO.C,J2*%
X33278097Y-102683400D03*
D93*
X42958098Y-102683400D03*
X42958098Y-105183400D03*
X42958098Y-107683400D03*
X42958098Y-110183400D03*
X40458098Y-102683400D03*
X40458098Y-105183400D03*
X40458098Y-107683400D03*
X40458098Y-110183400D03*
%TD*%
D87*
%TO.C,J15*%
X71400000Y-126700000D03*
D88*
X68900000Y-126700000D03*
D41*
X68900000Y-119520000D03*
D89*
X71400000Y-119520000D03*
%TD*%
D79*
%TO.C,MP2*%
X124500000Y-64800000D03*
%TD*%
D87*
%TO.C,J13*%
X68900000Y-33300000D03*
D88*
X71400000Y-33300000D03*
D41*
X71400000Y-40480000D03*
D89*
X68900000Y-40480000D03*
%TD*%
D79*
%TO.C,MP1*%
X94000000Y-64800000D03*
%TD*%
D94*
%TO.C,J3*%
X163820000Y-94330000D03*
X163820000Y-100110000D03*
D95*
X163320000Y-92900000D03*
X163320000Y-101540000D03*
D96*
X167500000Y-92900000D03*
X167500000Y-101540000D03*
%TD*%
D82*
%TO.C,J7*%
X152600000Y-38720000D03*
D83*
X145400000Y-38720000D03*
D84*
X155750000Y-32720000D03*
X142250000Y-32720000D03*
%TD*%
D82*
%TO.C,J5*%
X57500000Y-38700000D03*
D83*
X50300000Y-38700000D03*
D84*
X60650000Y-32700000D03*
X47150000Y-32700000D03*
%TD*%
D87*
%TO.C,J16*%
X134100000Y-126720000D03*
D88*
X131600000Y-126720000D03*
D41*
X131600000Y-119540000D03*
D89*
X134100000Y-119540000D03*
%TD*%
D87*
%TO.C,J14*%
X131500000Y-33320000D03*
D88*
X134000000Y-33320000D03*
D41*
X134000000Y-40500000D03*
D89*
X131500000Y-40500000D03*
%TD*%
D80*
%TO.C,J11*%
X166100000Y-89300000D03*
X167500000Y-89300000D03*
X168900000Y-89300000D03*
X164700000Y-88600000D03*
X166100000Y-87900000D03*
X167500000Y-87900000D03*
X168900000Y-87900000D03*
X163300000Y-87200000D03*
X164700000Y-87200000D03*
X166100000Y-86500000D03*
D97*
X166150000Y-86500000D03*
D80*
X167500000Y-86500000D03*
X168900000Y-86500000D03*
X163300000Y-85800000D03*
X164700000Y-85800000D03*
X166100000Y-85100000D03*
X167500000Y-85100000D03*
X168900000Y-85100000D03*
X164700000Y-84400000D03*
X166100000Y-83700000D03*
X167500000Y-83700000D03*
X168900000Y-83700000D03*
D82*
X154100000Y-83600000D03*
D83*
X154100000Y-76400000D03*
D80*
X166100000Y-76300000D03*
X167500000Y-76300000D03*
X168900000Y-76300000D03*
X164700000Y-75600000D03*
X166100000Y-74900000D03*
X167500000Y-74900000D03*
X168900000Y-74900000D03*
X163300000Y-74200000D03*
X164700000Y-74200000D03*
X166100000Y-73500000D03*
D97*
X166150000Y-73500000D03*
D80*
X167500000Y-73500000D03*
X168900000Y-73500000D03*
X163300000Y-72800000D03*
X164700000Y-72800000D03*
X166100000Y-72100000D03*
X167500000Y-72100000D03*
X168900000Y-72100000D03*
X164700000Y-71400000D03*
X166100000Y-70700000D03*
X167500000Y-70700000D03*
X168900000Y-70700000D03*
D84*
X160100000Y-86750000D03*
X160100000Y-73250000D03*
%TD*%
D82*
%TO.C,J8*%
X50300000Y-121300000D03*
D83*
X57500000Y-121300000D03*
D84*
X47150000Y-127300000D03*
X60650000Y-127300000D03*
%TD*%
M02*
