%TF.GenerationSoftware,KiCad,Pcbnew,7.0.10*%
%TF.CreationDate,2025-04-22T22:54:08-04:00*%
%TF.ProjectId,bms-board,626d732d-626f-4617-9264-2e6b69636164,rev?*%
%TF.SameCoordinates,Original*%
%TF.FileFunction,Paste,Bot*%
%TF.FilePolarity,Positive*%
%FSLAX46Y46*%
G04 Gerber Fmt 4.6, Leading zero omitted, Abs format (unit mm)*
G04 Created by KiCad (PCBNEW 7.0.10) date 2025-04-22 22:54:08*
%MOMM*%
%LPD*%
G01*
G04 APERTURE LIST*
G04 Aperture macros list*
%AMRoundRect*
0 Rectangle with rounded corners*
0 $1 Rounding radius*
0 $2 $3 $4 $5 $6 $7 $8 $9 X,Y pos of 4 corners*
0 Add a 4 corners polygon primitive as box body*
4,1,4,$2,$3,$4,$5,$6,$7,$8,$9,$2,$3,0*
0 Add four circle primitives for the rounded corners*
1,1,$1+$1,$2,$3*
1,1,$1+$1,$4,$5*
1,1,$1+$1,$6,$7*
1,1,$1+$1,$8,$9*
0 Add four rect primitives between the rounded corners*
20,1,$1+$1,$2,$3,$4,$5,0*
20,1,$1+$1,$4,$5,$6,$7,0*
20,1,$1+$1,$6,$7,$8,$9,0*
20,1,$1+$1,$8,$9,$2,$3,0*%
%AMFreePoly0*
4,1,34,-3.500000,0.000000,-3.488454,0.284056,-3.437293,0.659559,-3.345832,1.027329,-3.215145,1.383055,-3.046763,1.722566,-2.842661,2.041881,-2.605231,2.337257,-2.337257,2.605231,-2.041881,2.842661,-1.722566,3.046763,-1.383055,3.215145,-1.027329,3.345832,-0.659559,3.437293,-0.284056,3.488454,0.000000,3.500000,0.284056,3.488454,0.659559,3.437293,1.027329,3.345832,1.383055,3.215145,
1.722566,3.046763,2.041881,2.842661,2.337257,2.605231,2.605231,2.337257,2.842661,2.041881,3.046763,1.722566,3.215145,1.383055,3.345832,1.027329,3.437293,0.659559,3.488454,0.284056,3.500000,0.000000,3.500000,-3.500000,-3.500000,-3.500000,-3.500000,0.000000,-3.500000,0.000000,$1*%
G04 Aperture macros list end*
%ADD10C,0.010000*%
%ADD11R,2.489200X1.066800*%
%ADD12FreePoly0,270.000000*%
%ADD13R,0.863600X0.889000*%
%ADD14RoundRect,0.500000X49.650000X1.650000X-49.650000X1.650000X-49.650000X-1.650000X49.650000X-1.650000X0*%
%ADD15R,0.558800X0.977900*%
%ADD16R,1.700000X0.600000*%
%ADD17R,2.700000X1.000000*%
%ADD18R,0.889000X0.863600*%
%ADD19R,3.800000X1.800000*%
%ADD20R,0.977900X0.558800*%
%ADD21RoundRect,0.250000X-0.450000X0.262500X-0.450000X-0.262500X0.450000X-0.262500X0.450000X0.262500X0*%
%ADD22R,1.140000X0.600000*%
%ADD23R,1.140000X0.300000*%
%ADD24RoundRect,0.250000X-0.475000X0.250000X-0.475000X-0.250000X0.475000X-0.250000X0.475000X0.250000X0*%
%ADD25FreePoly0,90.000000*%
%ADD26RoundRect,0.500000X1.650000X1.650000X-1.650000X1.650000X-1.650000X-1.650000X1.650000X-1.650000X0*%
%ADD27RoundRect,0.500000X10.525000X1.650000X-10.525000X1.650000X-10.525000X-1.650000X10.525000X-1.650000X0*%
%ADD28R,2.700000X6.200000*%
G04 APERTURE END LIST*
%TO.C,MP3*%
D10*
X97600000Y-95820000D02*
X97575000Y-95965000D01*
X97550000Y-96095000D01*
X97505000Y-96270000D01*
X97455000Y-96435000D01*
X97400000Y-96590000D01*
X97340000Y-96740000D01*
X97270000Y-96890000D01*
X97180000Y-97065000D01*
X97085000Y-97225000D01*
X96995000Y-97360000D01*
X96935000Y-97445000D01*
X96875000Y-97525000D01*
X96820000Y-97595000D01*
X96760000Y-97665000D01*
X96690000Y-97745000D01*
X96645000Y-97795000D01*
X96600000Y-97840000D01*
X96515000Y-97925000D01*
X96440000Y-97995000D01*
X96365000Y-98060000D01*
X96295000Y-98120000D01*
X96230000Y-98170000D01*
X96165000Y-98220000D01*
X96075000Y-98285000D01*
X95985000Y-98345000D01*
X95885000Y-98410000D01*
X95770000Y-98475000D01*
X95650000Y-98540000D01*
X95550000Y-98590000D01*
X95460000Y-98630000D01*
X95365000Y-98670000D01*
X95300000Y-98695000D01*
X95205000Y-98730000D01*
X95135000Y-98755000D01*
X95040000Y-98785000D01*
X94930000Y-98815000D01*
X94830000Y-98840000D01*
X94715000Y-98865000D01*
X94605000Y-98885000D01*
X94505000Y-98900000D01*
X94430000Y-98910000D01*
X94400000Y-98915000D01*
X94400000Y-97505000D01*
X94475000Y-97490000D01*
X94580000Y-97465000D01*
X94695000Y-97430000D01*
X94810000Y-97390000D01*
X94950000Y-97330000D01*
X95050000Y-97280000D01*
X95130000Y-97235000D01*
X95235000Y-97170000D01*
X95320000Y-97110000D01*
X95405000Y-97045000D01*
X95465000Y-96995000D01*
X95520000Y-96945000D01*
X95605000Y-96865000D01*
X95695000Y-96765000D01*
X95750000Y-96700000D01*
X95815000Y-96615000D01*
X95860000Y-96550000D01*
X95920000Y-96455000D01*
X95975000Y-96360000D01*
X96025000Y-96260000D01*
X96070000Y-96160000D01*
X96100000Y-96080000D01*
X96130000Y-96000000D01*
X96165000Y-95880000D01*
X96190000Y-95775000D01*
X96205000Y-95700000D01*
X97615000Y-95700000D01*
X97600000Y-95820000D01*
G36*
X97600000Y-95820000D02*
G01*
X97575000Y-95965000D01*
X97550000Y-96095000D01*
X97505000Y-96270000D01*
X97455000Y-96435000D01*
X97400000Y-96590000D01*
X97340000Y-96740000D01*
X97270000Y-96890000D01*
X97180000Y-97065000D01*
X97085000Y-97225000D01*
X96995000Y-97360000D01*
X96935000Y-97445000D01*
X96875000Y-97525000D01*
X96820000Y-97595000D01*
X96760000Y-97665000D01*
X96690000Y-97745000D01*
X96645000Y-97795000D01*
X96600000Y-97840000D01*
X96515000Y-97925000D01*
X96440000Y-97995000D01*
X96365000Y-98060000D01*
X96295000Y-98120000D01*
X96230000Y-98170000D01*
X96165000Y-98220000D01*
X96075000Y-98285000D01*
X95985000Y-98345000D01*
X95885000Y-98410000D01*
X95770000Y-98475000D01*
X95650000Y-98540000D01*
X95550000Y-98590000D01*
X95460000Y-98630000D01*
X95365000Y-98670000D01*
X95300000Y-98695000D01*
X95205000Y-98730000D01*
X95135000Y-98755000D01*
X95040000Y-98785000D01*
X94930000Y-98815000D01*
X94830000Y-98840000D01*
X94715000Y-98865000D01*
X94605000Y-98885000D01*
X94505000Y-98900000D01*
X94430000Y-98910000D01*
X94400000Y-98915000D01*
X94400000Y-97505000D01*
X94475000Y-97490000D01*
X94580000Y-97465000D01*
X94695000Y-97430000D01*
X94810000Y-97390000D01*
X94950000Y-97330000D01*
X95050000Y-97280000D01*
X95130000Y-97235000D01*
X95235000Y-97170000D01*
X95320000Y-97110000D01*
X95405000Y-97045000D01*
X95465000Y-96995000D01*
X95520000Y-96945000D01*
X95605000Y-96865000D01*
X95695000Y-96765000D01*
X95750000Y-96700000D01*
X95815000Y-96615000D01*
X95860000Y-96550000D01*
X95920000Y-96455000D01*
X95975000Y-96360000D01*
X96025000Y-96260000D01*
X96070000Y-96160000D01*
X96100000Y-96080000D01*
X96130000Y-96000000D01*
X96165000Y-95880000D01*
X96190000Y-95775000D01*
X96205000Y-95700000D01*
X97615000Y-95700000D01*
X97600000Y-95820000D01*
G37*
X94520000Y-91700000D02*
X94665000Y-91725000D01*
X94795000Y-91750000D01*
X94970000Y-91795000D01*
X95135000Y-91845000D01*
X95290000Y-91900000D01*
X95440000Y-91960000D01*
X95590000Y-92030000D01*
X95765000Y-92120000D01*
X95925000Y-92215000D01*
X96060000Y-92305000D01*
X96145000Y-92365000D01*
X96225000Y-92425000D01*
X96295000Y-92480000D01*
X96365000Y-92540000D01*
X96445000Y-92610000D01*
X96495000Y-92655000D01*
X96540000Y-92700000D01*
X96625000Y-92785000D01*
X96695000Y-92860000D01*
X96760000Y-92935000D01*
X96820000Y-93005000D01*
X96870000Y-93070000D01*
X96920000Y-93135000D01*
X96985000Y-93225000D01*
X97045000Y-93315000D01*
X97110000Y-93415000D01*
X97175000Y-93530000D01*
X97240000Y-93650000D01*
X97290000Y-93750000D01*
X97330000Y-93840000D01*
X97370000Y-93935000D01*
X97395000Y-94000000D01*
X97430000Y-94095000D01*
X97455000Y-94165000D01*
X97485000Y-94260000D01*
X97515000Y-94370000D01*
X97540000Y-94470000D01*
X97565000Y-94585000D01*
X97585000Y-94695000D01*
X97600000Y-94795000D01*
X97610000Y-94870000D01*
X97615000Y-94900000D01*
X96205000Y-94900000D01*
X96190000Y-94825000D01*
X96165000Y-94720000D01*
X96130000Y-94605000D01*
X96090000Y-94490000D01*
X96030000Y-94350000D01*
X95980000Y-94250000D01*
X95935000Y-94170000D01*
X95870000Y-94065000D01*
X95810000Y-93980000D01*
X95745000Y-93895000D01*
X95695000Y-93835000D01*
X95645000Y-93780000D01*
X95565000Y-93695000D01*
X95465000Y-93605000D01*
X95400000Y-93550000D01*
X95315000Y-93485000D01*
X95250000Y-93440000D01*
X95155000Y-93380000D01*
X95060000Y-93325000D01*
X94960000Y-93275000D01*
X94860000Y-93230000D01*
X94780000Y-93200000D01*
X94700000Y-93170000D01*
X94580000Y-93135000D01*
X94475000Y-93110000D01*
X94400000Y-93095000D01*
X94400000Y-91685000D01*
X94520000Y-91700000D01*
G36*
X94520000Y-91700000D02*
G01*
X94665000Y-91725000D01*
X94795000Y-91750000D01*
X94970000Y-91795000D01*
X95135000Y-91845000D01*
X95290000Y-91900000D01*
X95440000Y-91960000D01*
X95590000Y-92030000D01*
X95765000Y-92120000D01*
X95925000Y-92215000D01*
X96060000Y-92305000D01*
X96145000Y-92365000D01*
X96225000Y-92425000D01*
X96295000Y-92480000D01*
X96365000Y-92540000D01*
X96445000Y-92610000D01*
X96495000Y-92655000D01*
X96540000Y-92700000D01*
X96625000Y-92785000D01*
X96695000Y-92860000D01*
X96760000Y-92935000D01*
X96820000Y-93005000D01*
X96870000Y-93070000D01*
X96920000Y-93135000D01*
X96985000Y-93225000D01*
X97045000Y-93315000D01*
X97110000Y-93415000D01*
X97175000Y-93530000D01*
X97240000Y-93650000D01*
X97290000Y-93750000D01*
X97330000Y-93840000D01*
X97370000Y-93935000D01*
X97395000Y-94000000D01*
X97430000Y-94095000D01*
X97455000Y-94165000D01*
X97485000Y-94260000D01*
X97515000Y-94370000D01*
X97540000Y-94470000D01*
X97565000Y-94585000D01*
X97585000Y-94695000D01*
X97600000Y-94795000D01*
X97610000Y-94870000D01*
X97615000Y-94900000D01*
X96205000Y-94900000D01*
X96190000Y-94825000D01*
X96165000Y-94720000D01*
X96130000Y-94605000D01*
X96090000Y-94490000D01*
X96030000Y-94350000D01*
X95980000Y-94250000D01*
X95935000Y-94170000D01*
X95870000Y-94065000D01*
X95810000Y-93980000D01*
X95745000Y-93895000D01*
X95695000Y-93835000D01*
X95645000Y-93780000D01*
X95565000Y-93695000D01*
X95465000Y-93605000D01*
X95400000Y-93550000D01*
X95315000Y-93485000D01*
X95250000Y-93440000D01*
X95155000Y-93380000D01*
X95060000Y-93325000D01*
X94960000Y-93275000D01*
X94860000Y-93230000D01*
X94780000Y-93200000D01*
X94700000Y-93170000D01*
X94580000Y-93135000D01*
X94475000Y-93110000D01*
X94400000Y-93095000D01*
X94400000Y-91685000D01*
X94520000Y-91700000D01*
G37*
X91810000Y-95775000D02*
X91835000Y-95880000D01*
X91870000Y-95995000D01*
X91910000Y-96110000D01*
X91970000Y-96250000D01*
X92020000Y-96350000D01*
X92065000Y-96430000D01*
X92130000Y-96535000D01*
X92190000Y-96620000D01*
X92255000Y-96705000D01*
X92305000Y-96765000D01*
X92355000Y-96820000D01*
X92435000Y-96905000D01*
X92535000Y-96995000D01*
X92600000Y-97050000D01*
X92685000Y-97115000D01*
X92750000Y-97160000D01*
X92845000Y-97220000D01*
X92940000Y-97275000D01*
X93040000Y-97325000D01*
X93140000Y-97370000D01*
X93220000Y-97400000D01*
X93300000Y-97430000D01*
X93420000Y-97465000D01*
X93525000Y-97490000D01*
X93600000Y-97505000D01*
X93600000Y-98915000D01*
X93480000Y-98900000D01*
X93335000Y-98875000D01*
X93205000Y-98850000D01*
X93030000Y-98805000D01*
X92865000Y-98755000D01*
X92710000Y-98700000D01*
X92560000Y-98640000D01*
X92410000Y-98570000D01*
X92235000Y-98480000D01*
X92075000Y-98385000D01*
X91940000Y-98295000D01*
X91855000Y-98235000D01*
X91775000Y-98175000D01*
X91705000Y-98120000D01*
X91635000Y-98060000D01*
X91555000Y-97990000D01*
X91505000Y-97945000D01*
X91460000Y-97900000D01*
X91375000Y-97815000D01*
X91305000Y-97740000D01*
X91240000Y-97665000D01*
X91180000Y-97595000D01*
X91130000Y-97530000D01*
X91080000Y-97465000D01*
X91015000Y-97375000D01*
X90955000Y-97285000D01*
X90890000Y-97185000D01*
X90825000Y-97070000D01*
X90760000Y-96950000D01*
X90710000Y-96850000D01*
X90670000Y-96760000D01*
X90630000Y-96665000D01*
X90605000Y-96600000D01*
X90570000Y-96505000D01*
X90545000Y-96435000D01*
X90515000Y-96340000D01*
X90485000Y-96230000D01*
X90460000Y-96130000D01*
X90435000Y-96015000D01*
X90415000Y-95905000D01*
X90400000Y-95805000D01*
X90390000Y-95730000D01*
X90385000Y-95700000D01*
X91795000Y-95700000D01*
X91810000Y-95775000D01*
G36*
X91810000Y-95775000D02*
G01*
X91835000Y-95880000D01*
X91870000Y-95995000D01*
X91910000Y-96110000D01*
X91970000Y-96250000D01*
X92020000Y-96350000D01*
X92065000Y-96430000D01*
X92130000Y-96535000D01*
X92190000Y-96620000D01*
X92255000Y-96705000D01*
X92305000Y-96765000D01*
X92355000Y-96820000D01*
X92435000Y-96905000D01*
X92535000Y-96995000D01*
X92600000Y-97050000D01*
X92685000Y-97115000D01*
X92750000Y-97160000D01*
X92845000Y-97220000D01*
X92940000Y-97275000D01*
X93040000Y-97325000D01*
X93140000Y-97370000D01*
X93220000Y-97400000D01*
X93300000Y-97430000D01*
X93420000Y-97465000D01*
X93525000Y-97490000D01*
X93600000Y-97505000D01*
X93600000Y-98915000D01*
X93480000Y-98900000D01*
X93335000Y-98875000D01*
X93205000Y-98850000D01*
X93030000Y-98805000D01*
X92865000Y-98755000D01*
X92710000Y-98700000D01*
X92560000Y-98640000D01*
X92410000Y-98570000D01*
X92235000Y-98480000D01*
X92075000Y-98385000D01*
X91940000Y-98295000D01*
X91855000Y-98235000D01*
X91775000Y-98175000D01*
X91705000Y-98120000D01*
X91635000Y-98060000D01*
X91555000Y-97990000D01*
X91505000Y-97945000D01*
X91460000Y-97900000D01*
X91375000Y-97815000D01*
X91305000Y-97740000D01*
X91240000Y-97665000D01*
X91180000Y-97595000D01*
X91130000Y-97530000D01*
X91080000Y-97465000D01*
X91015000Y-97375000D01*
X90955000Y-97285000D01*
X90890000Y-97185000D01*
X90825000Y-97070000D01*
X90760000Y-96950000D01*
X90710000Y-96850000D01*
X90670000Y-96760000D01*
X90630000Y-96665000D01*
X90605000Y-96600000D01*
X90570000Y-96505000D01*
X90545000Y-96435000D01*
X90515000Y-96340000D01*
X90485000Y-96230000D01*
X90460000Y-96130000D01*
X90435000Y-96015000D01*
X90415000Y-95905000D01*
X90400000Y-95805000D01*
X90390000Y-95730000D01*
X90385000Y-95700000D01*
X91795000Y-95700000D01*
X91810000Y-95775000D01*
G37*
X93600000Y-93095000D02*
X93525000Y-93110000D01*
X93420000Y-93135000D01*
X93305000Y-93170000D01*
X93190000Y-93210000D01*
X93050000Y-93270000D01*
X92950000Y-93320000D01*
X92870000Y-93365000D01*
X92765000Y-93430000D01*
X92680000Y-93490000D01*
X92595000Y-93555000D01*
X92535000Y-93605000D01*
X92480000Y-93655000D01*
X92395000Y-93735000D01*
X92305000Y-93835000D01*
X92250000Y-93900000D01*
X92185000Y-93985000D01*
X92140000Y-94050000D01*
X92080000Y-94145000D01*
X92025000Y-94240000D01*
X91975000Y-94340000D01*
X91930000Y-94440000D01*
X91900000Y-94520000D01*
X91870000Y-94600000D01*
X91835000Y-94720000D01*
X91810000Y-94825000D01*
X91795000Y-94900000D01*
X90385000Y-94900000D01*
X90400000Y-94780000D01*
X90425000Y-94635000D01*
X90450000Y-94505000D01*
X90495000Y-94330000D01*
X90545000Y-94165000D01*
X90600000Y-94010000D01*
X90660000Y-93860000D01*
X90730000Y-93710000D01*
X90820000Y-93535000D01*
X90915000Y-93375000D01*
X91005000Y-93240000D01*
X91065000Y-93155000D01*
X91125000Y-93075000D01*
X91180000Y-93005000D01*
X91240000Y-92935000D01*
X91310000Y-92855000D01*
X91355000Y-92805000D01*
X91400000Y-92760000D01*
X91485000Y-92675000D01*
X91560000Y-92605000D01*
X91635000Y-92540000D01*
X91705000Y-92480000D01*
X91770000Y-92430000D01*
X91835000Y-92380000D01*
X91925000Y-92315000D01*
X92015000Y-92255000D01*
X92115000Y-92190000D01*
X92230000Y-92125000D01*
X92350000Y-92060000D01*
X92450000Y-92010000D01*
X92540000Y-91970000D01*
X92635000Y-91930000D01*
X92700000Y-91905000D01*
X92795000Y-91870000D01*
X92865000Y-91845000D01*
X92960000Y-91815000D01*
X93070000Y-91785000D01*
X93170000Y-91760000D01*
X93285000Y-91735000D01*
X93395000Y-91715000D01*
X93495000Y-91700000D01*
X93570000Y-91690000D01*
X93600000Y-91685000D01*
X93600000Y-93095000D01*
G36*
X93600000Y-93095000D02*
G01*
X93525000Y-93110000D01*
X93420000Y-93135000D01*
X93305000Y-93170000D01*
X93190000Y-93210000D01*
X93050000Y-93270000D01*
X92950000Y-93320000D01*
X92870000Y-93365000D01*
X92765000Y-93430000D01*
X92680000Y-93490000D01*
X92595000Y-93555000D01*
X92535000Y-93605000D01*
X92480000Y-93655000D01*
X92395000Y-93735000D01*
X92305000Y-93835000D01*
X92250000Y-93900000D01*
X92185000Y-93985000D01*
X92140000Y-94050000D01*
X92080000Y-94145000D01*
X92025000Y-94240000D01*
X91975000Y-94340000D01*
X91930000Y-94440000D01*
X91900000Y-94520000D01*
X91870000Y-94600000D01*
X91835000Y-94720000D01*
X91810000Y-94825000D01*
X91795000Y-94900000D01*
X90385000Y-94900000D01*
X90400000Y-94780000D01*
X90425000Y-94635000D01*
X90450000Y-94505000D01*
X90495000Y-94330000D01*
X90545000Y-94165000D01*
X90600000Y-94010000D01*
X90660000Y-93860000D01*
X90730000Y-93710000D01*
X90820000Y-93535000D01*
X90915000Y-93375000D01*
X91005000Y-93240000D01*
X91065000Y-93155000D01*
X91125000Y-93075000D01*
X91180000Y-93005000D01*
X91240000Y-92935000D01*
X91310000Y-92855000D01*
X91355000Y-92805000D01*
X91400000Y-92760000D01*
X91485000Y-92675000D01*
X91560000Y-92605000D01*
X91635000Y-92540000D01*
X91705000Y-92480000D01*
X91770000Y-92430000D01*
X91835000Y-92380000D01*
X91925000Y-92315000D01*
X92015000Y-92255000D01*
X92115000Y-92190000D01*
X92230000Y-92125000D01*
X92350000Y-92060000D01*
X92450000Y-92010000D01*
X92540000Y-91970000D01*
X92635000Y-91930000D01*
X92700000Y-91905000D01*
X92795000Y-91870000D01*
X92865000Y-91845000D01*
X92960000Y-91815000D01*
X93070000Y-91785000D01*
X93170000Y-91760000D01*
X93285000Y-91735000D01*
X93395000Y-91715000D01*
X93495000Y-91700000D01*
X93570000Y-91690000D01*
X93600000Y-91685000D01*
X93600000Y-93095000D01*
G37*
%TO.C,MP4*%
X128100000Y-95820000D02*
X128075000Y-95965000D01*
X128050000Y-96095000D01*
X128005000Y-96270000D01*
X127955000Y-96435000D01*
X127900000Y-96590000D01*
X127840000Y-96740000D01*
X127770000Y-96890000D01*
X127680000Y-97065000D01*
X127585000Y-97225000D01*
X127495000Y-97360000D01*
X127435000Y-97445000D01*
X127375000Y-97525000D01*
X127320000Y-97595000D01*
X127260000Y-97665000D01*
X127190000Y-97745000D01*
X127145000Y-97795000D01*
X127100000Y-97840000D01*
X127015000Y-97925000D01*
X126940000Y-97995000D01*
X126865000Y-98060000D01*
X126795000Y-98120000D01*
X126730000Y-98170000D01*
X126665000Y-98220000D01*
X126575000Y-98285000D01*
X126485000Y-98345000D01*
X126385000Y-98410000D01*
X126270000Y-98475000D01*
X126150000Y-98540000D01*
X126050000Y-98590000D01*
X125960000Y-98630000D01*
X125865000Y-98670000D01*
X125800000Y-98695000D01*
X125705000Y-98730000D01*
X125635000Y-98755000D01*
X125540000Y-98785000D01*
X125430000Y-98815000D01*
X125330000Y-98840000D01*
X125215000Y-98865000D01*
X125105000Y-98885000D01*
X125005000Y-98900000D01*
X124930000Y-98910000D01*
X124900000Y-98915000D01*
X124900000Y-97505000D01*
X124975000Y-97490000D01*
X125080000Y-97465000D01*
X125195000Y-97430000D01*
X125310000Y-97390000D01*
X125450000Y-97330000D01*
X125550000Y-97280000D01*
X125630000Y-97235000D01*
X125735000Y-97170000D01*
X125820000Y-97110000D01*
X125905000Y-97045000D01*
X125965000Y-96995000D01*
X126020000Y-96945000D01*
X126105000Y-96865000D01*
X126195000Y-96765000D01*
X126250000Y-96700000D01*
X126315000Y-96615000D01*
X126360000Y-96550000D01*
X126420000Y-96455000D01*
X126475000Y-96360000D01*
X126525000Y-96260000D01*
X126570000Y-96160000D01*
X126600000Y-96080000D01*
X126630000Y-96000000D01*
X126665000Y-95880000D01*
X126690000Y-95775000D01*
X126705000Y-95700000D01*
X128115000Y-95700000D01*
X128100000Y-95820000D01*
G36*
X128100000Y-95820000D02*
G01*
X128075000Y-95965000D01*
X128050000Y-96095000D01*
X128005000Y-96270000D01*
X127955000Y-96435000D01*
X127900000Y-96590000D01*
X127840000Y-96740000D01*
X127770000Y-96890000D01*
X127680000Y-97065000D01*
X127585000Y-97225000D01*
X127495000Y-97360000D01*
X127435000Y-97445000D01*
X127375000Y-97525000D01*
X127320000Y-97595000D01*
X127260000Y-97665000D01*
X127190000Y-97745000D01*
X127145000Y-97795000D01*
X127100000Y-97840000D01*
X127015000Y-97925000D01*
X126940000Y-97995000D01*
X126865000Y-98060000D01*
X126795000Y-98120000D01*
X126730000Y-98170000D01*
X126665000Y-98220000D01*
X126575000Y-98285000D01*
X126485000Y-98345000D01*
X126385000Y-98410000D01*
X126270000Y-98475000D01*
X126150000Y-98540000D01*
X126050000Y-98590000D01*
X125960000Y-98630000D01*
X125865000Y-98670000D01*
X125800000Y-98695000D01*
X125705000Y-98730000D01*
X125635000Y-98755000D01*
X125540000Y-98785000D01*
X125430000Y-98815000D01*
X125330000Y-98840000D01*
X125215000Y-98865000D01*
X125105000Y-98885000D01*
X125005000Y-98900000D01*
X124930000Y-98910000D01*
X124900000Y-98915000D01*
X124900000Y-97505000D01*
X124975000Y-97490000D01*
X125080000Y-97465000D01*
X125195000Y-97430000D01*
X125310000Y-97390000D01*
X125450000Y-97330000D01*
X125550000Y-97280000D01*
X125630000Y-97235000D01*
X125735000Y-97170000D01*
X125820000Y-97110000D01*
X125905000Y-97045000D01*
X125965000Y-96995000D01*
X126020000Y-96945000D01*
X126105000Y-96865000D01*
X126195000Y-96765000D01*
X126250000Y-96700000D01*
X126315000Y-96615000D01*
X126360000Y-96550000D01*
X126420000Y-96455000D01*
X126475000Y-96360000D01*
X126525000Y-96260000D01*
X126570000Y-96160000D01*
X126600000Y-96080000D01*
X126630000Y-96000000D01*
X126665000Y-95880000D01*
X126690000Y-95775000D01*
X126705000Y-95700000D01*
X128115000Y-95700000D01*
X128100000Y-95820000D01*
G37*
X125020000Y-91700000D02*
X125165000Y-91725000D01*
X125295000Y-91750000D01*
X125470000Y-91795000D01*
X125635000Y-91845000D01*
X125790000Y-91900000D01*
X125940000Y-91960000D01*
X126090000Y-92030000D01*
X126265000Y-92120000D01*
X126425000Y-92215000D01*
X126560000Y-92305000D01*
X126645000Y-92365000D01*
X126725000Y-92425000D01*
X126795000Y-92480000D01*
X126865000Y-92540000D01*
X126945000Y-92610000D01*
X126995000Y-92655000D01*
X127040000Y-92700000D01*
X127125000Y-92785000D01*
X127195000Y-92860000D01*
X127260000Y-92935000D01*
X127320000Y-93005000D01*
X127370000Y-93070000D01*
X127420000Y-93135000D01*
X127485000Y-93225000D01*
X127545000Y-93315000D01*
X127610000Y-93415000D01*
X127675000Y-93530000D01*
X127740000Y-93650000D01*
X127790000Y-93750000D01*
X127830000Y-93840000D01*
X127870000Y-93935000D01*
X127895000Y-94000000D01*
X127930000Y-94095000D01*
X127955000Y-94165000D01*
X127985000Y-94260000D01*
X128015000Y-94370000D01*
X128040000Y-94470000D01*
X128065000Y-94585000D01*
X128085000Y-94695000D01*
X128100000Y-94795000D01*
X128110000Y-94870000D01*
X128115000Y-94900000D01*
X126705000Y-94900000D01*
X126690000Y-94825000D01*
X126665000Y-94720000D01*
X126630000Y-94605000D01*
X126590000Y-94490000D01*
X126530000Y-94350000D01*
X126480000Y-94250000D01*
X126435000Y-94170000D01*
X126370000Y-94065000D01*
X126310000Y-93980000D01*
X126245000Y-93895000D01*
X126195000Y-93835000D01*
X126145000Y-93780000D01*
X126065000Y-93695000D01*
X125965000Y-93605000D01*
X125900000Y-93550000D01*
X125815000Y-93485000D01*
X125750000Y-93440000D01*
X125655000Y-93380000D01*
X125560000Y-93325000D01*
X125460000Y-93275000D01*
X125360000Y-93230000D01*
X125280000Y-93200000D01*
X125200000Y-93170000D01*
X125080000Y-93135000D01*
X124975000Y-93110000D01*
X124900000Y-93095000D01*
X124900000Y-91685000D01*
X125020000Y-91700000D01*
G36*
X125020000Y-91700000D02*
G01*
X125165000Y-91725000D01*
X125295000Y-91750000D01*
X125470000Y-91795000D01*
X125635000Y-91845000D01*
X125790000Y-91900000D01*
X125940000Y-91960000D01*
X126090000Y-92030000D01*
X126265000Y-92120000D01*
X126425000Y-92215000D01*
X126560000Y-92305000D01*
X126645000Y-92365000D01*
X126725000Y-92425000D01*
X126795000Y-92480000D01*
X126865000Y-92540000D01*
X126945000Y-92610000D01*
X126995000Y-92655000D01*
X127040000Y-92700000D01*
X127125000Y-92785000D01*
X127195000Y-92860000D01*
X127260000Y-92935000D01*
X127320000Y-93005000D01*
X127370000Y-93070000D01*
X127420000Y-93135000D01*
X127485000Y-93225000D01*
X127545000Y-93315000D01*
X127610000Y-93415000D01*
X127675000Y-93530000D01*
X127740000Y-93650000D01*
X127790000Y-93750000D01*
X127830000Y-93840000D01*
X127870000Y-93935000D01*
X127895000Y-94000000D01*
X127930000Y-94095000D01*
X127955000Y-94165000D01*
X127985000Y-94260000D01*
X128015000Y-94370000D01*
X128040000Y-94470000D01*
X128065000Y-94585000D01*
X128085000Y-94695000D01*
X128100000Y-94795000D01*
X128110000Y-94870000D01*
X128115000Y-94900000D01*
X126705000Y-94900000D01*
X126690000Y-94825000D01*
X126665000Y-94720000D01*
X126630000Y-94605000D01*
X126590000Y-94490000D01*
X126530000Y-94350000D01*
X126480000Y-94250000D01*
X126435000Y-94170000D01*
X126370000Y-94065000D01*
X126310000Y-93980000D01*
X126245000Y-93895000D01*
X126195000Y-93835000D01*
X126145000Y-93780000D01*
X126065000Y-93695000D01*
X125965000Y-93605000D01*
X125900000Y-93550000D01*
X125815000Y-93485000D01*
X125750000Y-93440000D01*
X125655000Y-93380000D01*
X125560000Y-93325000D01*
X125460000Y-93275000D01*
X125360000Y-93230000D01*
X125280000Y-93200000D01*
X125200000Y-93170000D01*
X125080000Y-93135000D01*
X124975000Y-93110000D01*
X124900000Y-93095000D01*
X124900000Y-91685000D01*
X125020000Y-91700000D01*
G37*
X122310000Y-95775000D02*
X122335000Y-95880000D01*
X122370000Y-95995000D01*
X122410000Y-96110000D01*
X122470000Y-96250000D01*
X122520000Y-96350000D01*
X122565000Y-96430000D01*
X122630000Y-96535000D01*
X122690000Y-96620000D01*
X122755000Y-96705000D01*
X122805000Y-96765000D01*
X122855000Y-96820000D01*
X122935000Y-96905000D01*
X123035000Y-96995000D01*
X123100000Y-97050000D01*
X123185000Y-97115000D01*
X123250000Y-97160000D01*
X123345000Y-97220000D01*
X123440000Y-97275000D01*
X123540000Y-97325000D01*
X123640000Y-97370000D01*
X123720000Y-97400000D01*
X123800000Y-97430000D01*
X123920000Y-97465000D01*
X124025000Y-97490000D01*
X124100000Y-97505000D01*
X124100000Y-98915000D01*
X123980000Y-98900000D01*
X123835000Y-98875000D01*
X123705000Y-98850000D01*
X123530000Y-98805000D01*
X123365000Y-98755000D01*
X123210000Y-98700000D01*
X123060000Y-98640000D01*
X122910000Y-98570000D01*
X122735000Y-98480000D01*
X122575000Y-98385000D01*
X122440000Y-98295000D01*
X122355000Y-98235000D01*
X122275000Y-98175000D01*
X122205000Y-98120000D01*
X122135000Y-98060000D01*
X122055000Y-97990000D01*
X122005000Y-97945000D01*
X121960000Y-97900000D01*
X121875000Y-97815000D01*
X121805000Y-97740000D01*
X121740000Y-97665000D01*
X121680000Y-97595000D01*
X121630000Y-97530000D01*
X121580000Y-97465000D01*
X121515000Y-97375000D01*
X121455000Y-97285000D01*
X121390000Y-97185000D01*
X121325000Y-97070000D01*
X121260000Y-96950000D01*
X121210000Y-96850000D01*
X121170000Y-96760000D01*
X121130000Y-96665000D01*
X121105000Y-96600000D01*
X121070000Y-96505000D01*
X121045000Y-96435000D01*
X121015000Y-96340000D01*
X120985000Y-96230000D01*
X120960000Y-96130000D01*
X120935000Y-96015000D01*
X120915000Y-95905000D01*
X120900000Y-95805000D01*
X120890000Y-95730000D01*
X120885000Y-95700000D01*
X122295000Y-95700000D01*
X122310000Y-95775000D01*
G36*
X122310000Y-95775000D02*
G01*
X122335000Y-95880000D01*
X122370000Y-95995000D01*
X122410000Y-96110000D01*
X122470000Y-96250000D01*
X122520000Y-96350000D01*
X122565000Y-96430000D01*
X122630000Y-96535000D01*
X122690000Y-96620000D01*
X122755000Y-96705000D01*
X122805000Y-96765000D01*
X122855000Y-96820000D01*
X122935000Y-96905000D01*
X123035000Y-96995000D01*
X123100000Y-97050000D01*
X123185000Y-97115000D01*
X123250000Y-97160000D01*
X123345000Y-97220000D01*
X123440000Y-97275000D01*
X123540000Y-97325000D01*
X123640000Y-97370000D01*
X123720000Y-97400000D01*
X123800000Y-97430000D01*
X123920000Y-97465000D01*
X124025000Y-97490000D01*
X124100000Y-97505000D01*
X124100000Y-98915000D01*
X123980000Y-98900000D01*
X123835000Y-98875000D01*
X123705000Y-98850000D01*
X123530000Y-98805000D01*
X123365000Y-98755000D01*
X123210000Y-98700000D01*
X123060000Y-98640000D01*
X122910000Y-98570000D01*
X122735000Y-98480000D01*
X122575000Y-98385000D01*
X122440000Y-98295000D01*
X122355000Y-98235000D01*
X122275000Y-98175000D01*
X122205000Y-98120000D01*
X122135000Y-98060000D01*
X122055000Y-97990000D01*
X122005000Y-97945000D01*
X121960000Y-97900000D01*
X121875000Y-97815000D01*
X121805000Y-97740000D01*
X121740000Y-97665000D01*
X121680000Y-97595000D01*
X121630000Y-97530000D01*
X121580000Y-97465000D01*
X121515000Y-97375000D01*
X121455000Y-97285000D01*
X121390000Y-97185000D01*
X121325000Y-97070000D01*
X121260000Y-96950000D01*
X121210000Y-96850000D01*
X121170000Y-96760000D01*
X121130000Y-96665000D01*
X121105000Y-96600000D01*
X121070000Y-96505000D01*
X121045000Y-96435000D01*
X121015000Y-96340000D01*
X120985000Y-96230000D01*
X120960000Y-96130000D01*
X120935000Y-96015000D01*
X120915000Y-95905000D01*
X120900000Y-95805000D01*
X120890000Y-95730000D01*
X120885000Y-95700000D01*
X122295000Y-95700000D01*
X122310000Y-95775000D01*
G37*
X124100000Y-93095000D02*
X124025000Y-93110000D01*
X123920000Y-93135000D01*
X123805000Y-93170000D01*
X123690000Y-93210000D01*
X123550000Y-93270000D01*
X123450000Y-93320000D01*
X123370000Y-93365000D01*
X123265000Y-93430000D01*
X123180000Y-93490000D01*
X123095000Y-93555000D01*
X123035000Y-93605000D01*
X122980000Y-93655000D01*
X122895000Y-93735000D01*
X122805000Y-93835000D01*
X122750000Y-93900000D01*
X122685000Y-93985000D01*
X122640000Y-94050000D01*
X122580000Y-94145000D01*
X122525000Y-94240000D01*
X122475000Y-94340000D01*
X122430000Y-94440000D01*
X122400000Y-94520000D01*
X122370000Y-94600000D01*
X122335000Y-94720000D01*
X122310000Y-94825000D01*
X122295000Y-94900000D01*
X120885000Y-94900000D01*
X120900000Y-94780000D01*
X120925000Y-94635000D01*
X120950000Y-94505000D01*
X120995000Y-94330000D01*
X121045000Y-94165000D01*
X121100000Y-94010000D01*
X121160000Y-93860000D01*
X121230000Y-93710000D01*
X121320000Y-93535000D01*
X121415000Y-93375000D01*
X121505000Y-93240000D01*
X121565000Y-93155000D01*
X121625000Y-93075000D01*
X121680000Y-93005000D01*
X121740000Y-92935000D01*
X121810000Y-92855000D01*
X121855000Y-92805000D01*
X121900000Y-92760000D01*
X121985000Y-92675000D01*
X122060000Y-92605000D01*
X122135000Y-92540000D01*
X122205000Y-92480000D01*
X122270000Y-92430000D01*
X122335000Y-92380000D01*
X122425000Y-92315000D01*
X122515000Y-92255000D01*
X122615000Y-92190000D01*
X122730000Y-92125000D01*
X122850000Y-92060000D01*
X122950000Y-92010000D01*
X123040000Y-91970000D01*
X123135000Y-91930000D01*
X123200000Y-91905000D01*
X123295000Y-91870000D01*
X123365000Y-91845000D01*
X123460000Y-91815000D01*
X123570000Y-91785000D01*
X123670000Y-91760000D01*
X123785000Y-91735000D01*
X123895000Y-91715000D01*
X123995000Y-91700000D01*
X124070000Y-91690000D01*
X124100000Y-91685000D01*
X124100000Y-93095000D01*
G36*
X124100000Y-93095000D02*
G01*
X124025000Y-93110000D01*
X123920000Y-93135000D01*
X123805000Y-93170000D01*
X123690000Y-93210000D01*
X123550000Y-93270000D01*
X123450000Y-93320000D01*
X123370000Y-93365000D01*
X123265000Y-93430000D01*
X123180000Y-93490000D01*
X123095000Y-93555000D01*
X123035000Y-93605000D01*
X122980000Y-93655000D01*
X122895000Y-93735000D01*
X122805000Y-93835000D01*
X122750000Y-93900000D01*
X122685000Y-93985000D01*
X122640000Y-94050000D01*
X122580000Y-94145000D01*
X122525000Y-94240000D01*
X122475000Y-94340000D01*
X122430000Y-94440000D01*
X122400000Y-94520000D01*
X122370000Y-94600000D01*
X122335000Y-94720000D01*
X122310000Y-94825000D01*
X122295000Y-94900000D01*
X120885000Y-94900000D01*
X120900000Y-94780000D01*
X120925000Y-94635000D01*
X120950000Y-94505000D01*
X120995000Y-94330000D01*
X121045000Y-94165000D01*
X121100000Y-94010000D01*
X121160000Y-93860000D01*
X121230000Y-93710000D01*
X121320000Y-93535000D01*
X121415000Y-93375000D01*
X121505000Y-93240000D01*
X121565000Y-93155000D01*
X121625000Y-93075000D01*
X121680000Y-93005000D01*
X121740000Y-92935000D01*
X121810000Y-92855000D01*
X121855000Y-92805000D01*
X121900000Y-92760000D01*
X121985000Y-92675000D01*
X122060000Y-92605000D01*
X122135000Y-92540000D01*
X122205000Y-92480000D01*
X122270000Y-92430000D01*
X122335000Y-92380000D01*
X122425000Y-92315000D01*
X122515000Y-92255000D01*
X122615000Y-92190000D01*
X122730000Y-92125000D01*
X122850000Y-92060000D01*
X122950000Y-92010000D01*
X123040000Y-91970000D01*
X123135000Y-91930000D01*
X123200000Y-91905000D01*
X123295000Y-91870000D01*
X123365000Y-91845000D01*
X123460000Y-91815000D01*
X123570000Y-91785000D01*
X123670000Y-91760000D01*
X123785000Y-91735000D01*
X123895000Y-91715000D01*
X123995000Y-91700000D01*
X124070000Y-91690000D01*
X124100000Y-91685000D01*
X124100000Y-93095000D01*
G37*
%TO.C,MP2*%
X128100000Y-65320000D02*
X128075000Y-65465000D01*
X128050000Y-65595000D01*
X128005000Y-65770000D01*
X127955000Y-65935000D01*
X127900000Y-66090000D01*
X127840000Y-66240000D01*
X127770000Y-66390000D01*
X127680000Y-66565000D01*
X127585000Y-66725000D01*
X127495000Y-66860000D01*
X127435000Y-66945000D01*
X127375000Y-67025000D01*
X127320000Y-67095000D01*
X127260000Y-67165000D01*
X127190000Y-67245000D01*
X127145000Y-67295000D01*
X127100000Y-67340000D01*
X127015000Y-67425000D01*
X126940000Y-67495000D01*
X126865000Y-67560000D01*
X126795000Y-67620000D01*
X126730000Y-67670000D01*
X126665000Y-67720000D01*
X126575000Y-67785000D01*
X126485000Y-67845000D01*
X126385000Y-67910000D01*
X126270000Y-67975000D01*
X126150000Y-68040000D01*
X126050000Y-68090000D01*
X125960000Y-68130000D01*
X125865000Y-68170000D01*
X125800000Y-68195000D01*
X125705000Y-68230000D01*
X125635000Y-68255000D01*
X125540000Y-68285000D01*
X125430000Y-68315000D01*
X125330000Y-68340000D01*
X125215000Y-68365000D01*
X125105000Y-68385000D01*
X125005000Y-68400000D01*
X124930000Y-68410000D01*
X124900000Y-68415000D01*
X124900000Y-67005000D01*
X124975000Y-66990000D01*
X125080000Y-66965000D01*
X125195000Y-66930000D01*
X125310000Y-66890000D01*
X125450000Y-66830000D01*
X125550000Y-66780000D01*
X125630000Y-66735000D01*
X125735000Y-66670000D01*
X125820000Y-66610000D01*
X125905000Y-66545000D01*
X125965000Y-66495000D01*
X126020000Y-66445000D01*
X126105000Y-66365000D01*
X126195000Y-66265000D01*
X126250000Y-66200000D01*
X126315000Y-66115000D01*
X126360000Y-66050000D01*
X126420000Y-65955000D01*
X126475000Y-65860000D01*
X126525000Y-65760000D01*
X126570000Y-65660000D01*
X126600000Y-65580000D01*
X126630000Y-65500000D01*
X126665000Y-65380000D01*
X126690000Y-65275000D01*
X126705000Y-65200000D01*
X128115000Y-65200000D01*
X128100000Y-65320000D01*
G36*
X128100000Y-65320000D02*
G01*
X128075000Y-65465000D01*
X128050000Y-65595000D01*
X128005000Y-65770000D01*
X127955000Y-65935000D01*
X127900000Y-66090000D01*
X127840000Y-66240000D01*
X127770000Y-66390000D01*
X127680000Y-66565000D01*
X127585000Y-66725000D01*
X127495000Y-66860000D01*
X127435000Y-66945000D01*
X127375000Y-67025000D01*
X127320000Y-67095000D01*
X127260000Y-67165000D01*
X127190000Y-67245000D01*
X127145000Y-67295000D01*
X127100000Y-67340000D01*
X127015000Y-67425000D01*
X126940000Y-67495000D01*
X126865000Y-67560000D01*
X126795000Y-67620000D01*
X126730000Y-67670000D01*
X126665000Y-67720000D01*
X126575000Y-67785000D01*
X126485000Y-67845000D01*
X126385000Y-67910000D01*
X126270000Y-67975000D01*
X126150000Y-68040000D01*
X126050000Y-68090000D01*
X125960000Y-68130000D01*
X125865000Y-68170000D01*
X125800000Y-68195000D01*
X125705000Y-68230000D01*
X125635000Y-68255000D01*
X125540000Y-68285000D01*
X125430000Y-68315000D01*
X125330000Y-68340000D01*
X125215000Y-68365000D01*
X125105000Y-68385000D01*
X125005000Y-68400000D01*
X124930000Y-68410000D01*
X124900000Y-68415000D01*
X124900000Y-67005000D01*
X124975000Y-66990000D01*
X125080000Y-66965000D01*
X125195000Y-66930000D01*
X125310000Y-66890000D01*
X125450000Y-66830000D01*
X125550000Y-66780000D01*
X125630000Y-66735000D01*
X125735000Y-66670000D01*
X125820000Y-66610000D01*
X125905000Y-66545000D01*
X125965000Y-66495000D01*
X126020000Y-66445000D01*
X126105000Y-66365000D01*
X126195000Y-66265000D01*
X126250000Y-66200000D01*
X126315000Y-66115000D01*
X126360000Y-66050000D01*
X126420000Y-65955000D01*
X126475000Y-65860000D01*
X126525000Y-65760000D01*
X126570000Y-65660000D01*
X126600000Y-65580000D01*
X126630000Y-65500000D01*
X126665000Y-65380000D01*
X126690000Y-65275000D01*
X126705000Y-65200000D01*
X128115000Y-65200000D01*
X128100000Y-65320000D01*
G37*
X125020000Y-61200000D02*
X125165000Y-61225000D01*
X125295000Y-61250000D01*
X125470000Y-61295000D01*
X125635000Y-61345000D01*
X125790000Y-61400000D01*
X125940000Y-61460000D01*
X126090000Y-61530000D01*
X126265000Y-61620000D01*
X126425000Y-61715000D01*
X126560000Y-61805000D01*
X126645000Y-61865000D01*
X126725000Y-61925000D01*
X126795000Y-61980000D01*
X126865000Y-62040000D01*
X126945000Y-62110000D01*
X126995000Y-62155000D01*
X127040000Y-62200000D01*
X127125000Y-62285000D01*
X127195000Y-62360000D01*
X127260000Y-62435000D01*
X127320000Y-62505000D01*
X127370000Y-62570000D01*
X127420000Y-62635000D01*
X127485000Y-62725000D01*
X127545000Y-62815000D01*
X127610000Y-62915000D01*
X127675000Y-63030000D01*
X127740000Y-63150000D01*
X127790000Y-63250000D01*
X127830000Y-63340000D01*
X127870000Y-63435000D01*
X127895000Y-63500000D01*
X127930000Y-63595000D01*
X127955000Y-63665000D01*
X127985000Y-63760000D01*
X128015000Y-63870000D01*
X128040000Y-63970000D01*
X128065000Y-64085000D01*
X128085000Y-64195000D01*
X128100000Y-64295000D01*
X128110000Y-64370000D01*
X128115000Y-64400000D01*
X126705000Y-64400000D01*
X126690000Y-64325000D01*
X126665000Y-64220000D01*
X126630000Y-64105000D01*
X126590000Y-63990000D01*
X126530000Y-63850000D01*
X126480000Y-63750000D01*
X126435000Y-63670000D01*
X126370000Y-63565000D01*
X126310000Y-63480000D01*
X126245000Y-63395000D01*
X126195000Y-63335000D01*
X126145000Y-63280000D01*
X126065000Y-63195000D01*
X125965000Y-63105000D01*
X125900000Y-63050000D01*
X125815000Y-62985000D01*
X125750000Y-62940000D01*
X125655000Y-62880000D01*
X125560000Y-62825000D01*
X125460000Y-62775000D01*
X125360000Y-62730000D01*
X125280000Y-62700000D01*
X125200000Y-62670000D01*
X125080000Y-62635000D01*
X124975000Y-62610000D01*
X124900000Y-62595000D01*
X124900000Y-61185000D01*
X125020000Y-61200000D01*
G36*
X125020000Y-61200000D02*
G01*
X125165000Y-61225000D01*
X125295000Y-61250000D01*
X125470000Y-61295000D01*
X125635000Y-61345000D01*
X125790000Y-61400000D01*
X125940000Y-61460000D01*
X126090000Y-61530000D01*
X126265000Y-61620000D01*
X126425000Y-61715000D01*
X126560000Y-61805000D01*
X126645000Y-61865000D01*
X126725000Y-61925000D01*
X126795000Y-61980000D01*
X126865000Y-62040000D01*
X126945000Y-62110000D01*
X126995000Y-62155000D01*
X127040000Y-62200000D01*
X127125000Y-62285000D01*
X127195000Y-62360000D01*
X127260000Y-62435000D01*
X127320000Y-62505000D01*
X127370000Y-62570000D01*
X127420000Y-62635000D01*
X127485000Y-62725000D01*
X127545000Y-62815000D01*
X127610000Y-62915000D01*
X127675000Y-63030000D01*
X127740000Y-63150000D01*
X127790000Y-63250000D01*
X127830000Y-63340000D01*
X127870000Y-63435000D01*
X127895000Y-63500000D01*
X127930000Y-63595000D01*
X127955000Y-63665000D01*
X127985000Y-63760000D01*
X128015000Y-63870000D01*
X128040000Y-63970000D01*
X128065000Y-64085000D01*
X128085000Y-64195000D01*
X128100000Y-64295000D01*
X128110000Y-64370000D01*
X128115000Y-64400000D01*
X126705000Y-64400000D01*
X126690000Y-64325000D01*
X126665000Y-64220000D01*
X126630000Y-64105000D01*
X126590000Y-63990000D01*
X126530000Y-63850000D01*
X126480000Y-63750000D01*
X126435000Y-63670000D01*
X126370000Y-63565000D01*
X126310000Y-63480000D01*
X126245000Y-63395000D01*
X126195000Y-63335000D01*
X126145000Y-63280000D01*
X126065000Y-63195000D01*
X125965000Y-63105000D01*
X125900000Y-63050000D01*
X125815000Y-62985000D01*
X125750000Y-62940000D01*
X125655000Y-62880000D01*
X125560000Y-62825000D01*
X125460000Y-62775000D01*
X125360000Y-62730000D01*
X125280000Y-62700000D01*
X125200000Y-62670000D01*
X125080000Y-62635000D01*
X124975000Y-62610000D01*
X124900000Y-62595000D01*
X124900000Y-61185000D01*
X125020000Y-61200000D01*
G37*
X122310000Y-65275000D02*
X122335000Y-65380000D01*
X122370000Y-65495000D01*
X122410000Y-65610000D01*
X122470000Y-65750000D01*
X122520000Y-65850000D01*
X122565000Y-65930000D01*
X122630000Y-66035000D01*
X122690000Y-66120000D01*
X122755000Y-66205000D01*
X122805000Y-66265000D01*
X122855000Y-66320000D01*
X122935000Y-66405000D01*
X123035000Y-66495000D01*
X123100000Y-66550000D01*
X123185000Y-66615000D01*
X123250000Y-66660000D01*
X123345000Y-66720000D01*
X123440000Y-66775000D01*
X123540000Y-66825000D01*
X123640000Y-66870000D01*
X123720000Y-66900000D01*
X123800000Y-66930000D01*
X123920000Y-66965000D01*
X124025000Y-66990000D01*
X124100000Y-67005000D01*
X124100000Y-68415000D01*
X123980000Y-68400000D01*
X123835000Y-68375000D01*
X123705000Y-68350000D01*
X123530000Y-68305000D01*
X123365000Y-68255000D01*
X123210000Y-68200000D01*
X123060000Y-68140000D01*
X122910000Y-68070000D01*
X122735000Y-67980000D01*
X122575000Y-67885000D01*
X122440000Y-67795000D01*
X122355000Y-67735000D01*
X122275000Y-67675000D01*
X122205000Y-67620000D01*
X122135000Y-67560000D01*
X122055000Y-67490000D01*
X122005000Y-67445000D01*
X121960000Y-67400000D01*
X121875000Y-67315000D01*
X121805000Y-67240000D01*
X121740000Y-67165000D01*
X121680000Y-67095000D01*
X121630000Y-67030000D01*
X121580000Y-66965000D01*
X121515000Y-66875000D01*
X121455000Y-66785000D01*
X121390000Y-66685000D01*
X121325000Y-66570000D01*
X121260000Y-66450000D01*
X121210000Y-66350000D01*
X121170000Y-66260000D01*
X121130000Y-66165000D01*
X121105000Y-66100000D01*
X121070000Y-66005000D01*
X121045000Y-65935000D01*
X121015000Y-65840000D01*
X120985000Y-65730000D01*
X120960000Y-65630000D01*
X120935000Y-65515000D01*
X120915000Y-65405000D01*
X120900000Y-65305000D01*
X120890000Y-65230000D01*
X120885000Y-65200000D01*
X122295000Y-65200000D01*
X122310000Y-65275000D01*
G36*
X122310000Y-65275000D02*
G01*
X122335000Y-65380000D01*
X122370000Y-65495000D01*
X122410000Y-65610000D01*
X122470000Y-65750000D01*
X122520000Y-65850000D01*
X122565000Y-65930000D01*
X122630000Y-66035000D01*
X122690000Y-66120000D01*
X122755000Y-66205000D01*
X122805000Y-66265000D01*
X122855000Y-66320000D01*
X122935000Y-66405000D01*
X123035000Y-66495000D01*
X123100000Y-66550000D01*
X123185000Y-66615000D01*
X123250000Y-66660000D01*
X123345000Y-66720000D01*
X123440000Y-66775000D01*
X123540000Y-66825000D01*
X123640000Y-66870000D01*
X123720000Y-66900000D01*
X123800000Y-66930000D01*
X123920000Y-66965000D01*
X124025000Y-66990000D01*
X124100000Y-67005000D01*
X124100000Y-68415000D01*
X123980000Y-68400000D01*
X123835000Y-68375000D01*
X123705000Y-68350000D01*
X123530000Y-68305000D01*
X123365000Y-68255000D01*
X123210000Y-68200000D01*
X123060000Y-68140000D01*
X122910000Y-68070000D01*
X122735000Y-67980000D01*
X122575000Y-67885000D01*
X122440000Y-67795000D01*
X122355000Y-67735000D01*
X122275000Y-67675000D01*
X122205000Y-67620000D01*
X122135000Y-67560000D01*
X122055000Y-67490000D01*
X122005000Y-67445000D01*
X121960000Y-67400000D01*
X121875000Y-67315000D01*
X121805000Y-67240000D01*
X121740000Y-67165000D01*
X121680000Y-67095000D01*
X121630000Y-67030000D01*
X121580000Y-66965000D01*
X121515000Y-66875000D01*
X121455000Y-66785000D01*
X121390000Y-66685000D01*
X121325000Y-66570000D01*
X121260000Y-66450000D01*
X121210000Y-66350000D01*
X121170000Y-66260000D01*
X121130000Y-66165000D01*
X121105000Y-66100000D01*
X121070000Y-66005000D01*
X121045000Y-65935000D01*
X121015000Y-65840000D01*
X120985000Y-65730000D01*
X120960000Y-65630000D01*
X120935000Y-65515000D01*
X120915000Y-65405000D01*
X120900000Y-65305000D01*
X120890000Y-65230000D01*
X120885000Y-65200000D01*
X122295000Y-65200000D01*
X122310000Y-65275000D01*
G37*
X124100000Y-62595000D02*
X124025000Y-62610000D01*
X123920000Y-62635000D01*
X123805000Y-62670000D01*
X123690000Y-62710000D01*
X123550000Y-62770000D01*
X123450000Y-62820000D01*
X123370000Y-62865000D01*
X123265000Y-62930000D01*
X123180000Y-62990000D01*
X123095000Y-63055000D01*
X123035000Y-63105000D01*
X122980000Y-63155000D01*
X122895000Y-63235000D01*
X122805000Y-63335000D01*
X122750000Y-63400000D01*
X122685000Y-63485000D01*
X122640000Y-63550000D01*
X122580000Y-63645000D01*
X122525000Y-63740000D01*
X122475000Y-63840000D01*
X122430000Y-63940000D01*
X122400000Y-64020000D01*
X122370000Y-64100000D01*
X122335000Y-64220000D01*
X122310000Y-64325000D01*
X122295000Y-64400000D01*
X120885000Y-64400000D01*
X120900000Y-64280000D01*
X120925000Y-64135000D01*
X120950000Y-64005000D01*
X120995000Y-63830000D01*
X121045000Y-63665000D01*
X121100000Y-63510000D01*
X121160000Y-63360000D01*
X121230000Y-63210000D01*
X121320000Y-63035000D01*
X121415000Y-62875000D01*
X121505000Y-62740000D01*
X121565000Y-62655000D01*
X121625000Y-62575000D01*
X121680000Y-62505000D01*
X121740000Y-62435000D01*
X121810000Y-62355000D01*
X121855000Y-62305000D01*
X121900000Y-62260000D01*
X121985000Y-62175000D01*
X122060000Y-62105000D01*
X122135000Y-62040000D01*
X122205000Y-61980000D01*
X122270000Y-61930000D01*
X122335000Y-61880000D01*
X122425000Y-61815000D01*
X122515000Y-61755000D01*
X122615000Y-61690000D01*
X122730000Y-61625000D01*
X122850000Y-61560000D01*
X122950000Y-61510000D01*
X123040000Y-61470000D01*
X123135000Y-61430000D01*
X123200000Y-61405000D01*
X123295000Y-61370000D01*
X123365000Y-61345000D01*
X123460000Y-61315000D01*
X123570000Y-61285000D01*
X123670000Y-61260000D01*
X123785000Y-61235000D01*
X123895000Y-61215000D01*
X123995000Y-61200000D01*
X124070000Y-61190000D01*
X124100000Y-61185000D01*
X124100000Y-62595000D01*
G36*
X124100000Y-62595000D02*
G01*
X124025000Y-62610000D01*
X123920000Y-62635000D01*
X123805000Y-62670000D01*
X123690000Y-62710000D01*
X123550000Y-62770000D01*
X123450000Y-62820000D01*
X123370000Y-62865000D01*
X123265000Y-62930000D01*
X123180000Y-62990000D01*
X123095000Y-63055000D01*
X123035000Y-63105000D01*
X122980000Y-63155000D01*
X122895000Y-63235000D01*
X122805000Y-63335000D01*
X122750000Y-63400000D01*
X122685000Y-63485000D01*
X122640000Y-63550000D01*
X122580000Y-63645000D01*
X122525000Y-63740000D01*
X122475000Y-63840000D01*
X122430000Y-63940000D01*
X122400000Y-64020000D01*
X122370000Y-64100000D01*
X122335000Y-64220000D01*
X122310000Y-64325000D01*
X122295000Y-64400000D01*
X120885000Y-64400000D01*
X120900000Y-64280000D01*
X120925000Y-64135000D01*
X120950000Y-64005000D01*
X120995000Y-63830000D01*
X121045000Y-63665000D01*
X121100000Y-63510000D01*
X121160000Y-63360000D01*
X121230000Y-63210000D01*
X121320000Y-63035000D01*
X121415000Y-62875000D01*
X121505000Y-62740000D01*
X121565000Y-62655000D01*
X121625000Y-62575000D01*
X121680000Y-62505000D01*
X121740000Y-62435000D01*
X121810000Y-62355000D01*
X121855000Y-62305000D01*
X121900000Y-62260000D01*
X121985000Y-62175000D01*
X122060000Y-62105000D01*
X122135000Y-62040000D01*
X122205000Y-61980000D01*
X122270000Y-61930000D01*
X122335000Y-61880000D01*
X122425000Y-61815000D01*
X122515000Y-61755000D01*
X122615000Y-61690000D01*
X122730000Y-61625000D01*
X122850000Y-61560000D01*
X122950000Y-61510000D01*
X123040000Y-61470000D01*
X123135000Y-61430000D01*
X123200000Y-61405000D01*
X123295000Y-61370000D01*
X123365000Y-61345000D01*
X123460000Y-61315000D01*
X123570000Y-61285000D01*
X123670000Y-61260000D01*
X123785000Y-61235000D01*
X123895000Y-61215000D01*
X123995000Y-61200000D01*
X124070000Y-61190000D01*
X124100000Y-61185000D01*
X124100000Y-62595000D01*
G37*
%TO.C,MP1*%
X97600000Y-65320000D02*
X97575000Y-65465000D01*
X97550000Y-65595000D01*
X97505000Y-65770000D01*
X97455000Y-65935000D01*
X97400000Y-66090000D01*
X97340000Y-66240000D01*
X97270000Y-66390000D01*
X97180000Y-66565000D01*
X97085000Y-66725000D01*
X96995000Y-66860000D01*
X96935000Y-66945000D01*
X96875000Y-67025000D01*
X96820000Y-67095000D01*
X96760000Y-67165000D01*
X96690000Y-67245000D01*
X96645000Y-67295000D01*
X96600000Y-67340000D01*
X96515000Y-67425000D01*
X96440000Y-67495000D01*
X96365000Y-67560000D01*
X96295000Y-67620000D01*
X96230000Y-67670000D01*
X96165000Y-67720000D01*
X96075000Y-67785000D01*
X95985000Y-67845000D01*
X95885000Y-67910000D01*
X95770000Y-67975000D01*
X95650000Y-68040000D01*
X95550000Y-68090000D01*
X95460000Y-68130000D01*
X95365000Y-68170000D01*
X95300000Y-68195000D01*
X95205000Y-68230000D01*
X95135000Y-68255000D01*
X95040000Y-68285000D01*
X94930000Y-68315000D01*
X94830000Y-68340000D01*
X94715000Y-68365000D01*
X94605000Y-68385000D01*
X94505000Y-68400000D01*
X94430000Y-68410000D01*
X94400000Y-68415000D01*
X94400000Y-67005000D01*
X94475000Y-66990000D01*
X94580000Y-66965000D01*
X94695000Y-66930000D01*
X94810000Y-66890000D01*
X94950000Y-66830000D01*
X95050000Y-66780000D01*
X95130000Y-66735000D01*
X95235000Y-66670000D01*
X95320000Y-66610000D01*
X95405000Y-66545000D01*
X95465000Y-66495000D01*
X95520000Y-66445000D01*
X95605000Y-66365000D01*
X95695000Y-66265000D01*
X95750000Y-66200000D01*
X95815000Y-66115000D01*
X95860000Y-66050000D01*
X95920000Y-65955000D01*
X95975000Y-65860000D01*
X96025000Y-65760000D01*
X96070000Y-65660000D01*
X96100000Y-65580000D01*
X96130000Y-65500000D01*
X96165000Y-65380000D01*
X96190000Y-65275000D01*
X96205000Y-65200000D01*
X97615000Y-65200000D01*
X97600000Y-65320000D01*
G36*
X97600000Y-65320000D02*
G01*
X97575000Y-65465000D01*
X97550000Y-65595000D01*
X97505000Y-65770000D01*
X97455000Y-65935000D01*
X97400000Y-66090000D01*
X97340000Y-66240000D01*
X97270000Y-66390000D01*
X97180000Y-66565000D01*
X97085000Y-66725000D01*
X96995000Y-66860000D01*
X96935000Y-66945000D01*
X96875000Y-67025000D01*
X96820000Y-67095000D01*
X96760000Y-67165000D01*
X96690000Y-67245000D01*
X96645000Y-67295000D01*
X96600000Y-67340000D01*
X96515000Y-67425000D01*
X96440000Y-67495000D01*
X96365000Y-67560000D01*
X96295000Y-67620000D01*
X96230000Y-67670000D01*
X96165000Y-67720000D01*
X96075000Y-67785000D01*
X95985000Y-67845000D01*
X95885000Y-67910000D01*
X95770000Y-67975000D01*
X95650000Y-68040000D01*
X95550000Y-68090000D01*
X95460000Y-68130000D01*
X95365000Y-68170000D01*
X95300000Y-68195000D01*
X95205000Y-68230000D01*
X95135000Y-68255000D01*
X95040000Y-68285000D01*
X94930000Y-68315000D01*
X94830000Y-68340000D01*
X94715000Y-68365000D01*
X94605000Y-68385000D01*
X94505000Y-68400000D01*
X94430000Y-68410000D01*
X94400000Y-68415000D01*
X94400000Y-67005000D01*
X94475000Y-66990000D01*
X94580000Y-66965000D01*
X94695000Y-66930000D01*
X94810000Y-66890000D01*
X94950000Y-66830000D01*
X95050000Y-66780000D01*
X95130000Y-66735000D01*
X95235000Y-66670000D01*
X95320000Y-66610000D01*
X95405000Y-66545000D01*
X95465000Y-66495000D01*
X95520000Y-66445000D01*
X95605000Y-66365000D01*
X95695000Y-66265000D01*
X95750000Y-66200000D01*
X95815000Y-66115000D01*
X95860000Y-66050000D01*
X95920000Y-65955000D01*
X95975000Y-65860000D01*
X96025000Y-65760000D01*
X96070000Y-65660000D01*
X96100000Y-65580000D01*
X96130000Y-65500000D01*
X96165000Y-65380000D01*
X96190000Y-65275000D01*
X96205000Y-65200000D01*
X97615000Y-65200000D01*
X97600000Y-65320000D01*
G37*
X94520000Y-61200000D02*
X94665000Y-61225000D01*
X94795000Y-61250000D01*
X94970000Y-61295000D01*
X95135000Y-61345000D01*
X95290000Y-61400000D01*
X95440000Y-61460000D01*
X95590000Y-61530000D01*
X95765000Y-61620000D01*
X95925000Y-61715000D01*
X96060000Y-61805000D01*
X96145000Y-61865000D01*
X96225000Y-61925000D01*
X96295000Y-61980000D01*
X96365000Y-62040000D01*
X96445000Y-62110000D01*
X96495000Y-62155000D01*
X96540000Y-62200000D01*
X96625000Y-62285000D01*
X96695000Y-62360000D01*
X96760000Y-62435000D01*
X96820000Y-62505000D01*
X96870000Y-62570000D01*
X96920000Y-62635000D01*
X96985000Y-62725000D01*
X97045000Y-62815000D01*
X97110000Y-62915000D01*
X97175000Y-63030000D01*
X97240000Y-63150000D01*
X97290000Y-63250000D01*
X97330000Y-63340000D01*
X97370000Y-63435000D01*
X97395000Y-63500000D01*
X97430000Y-63595000D01*
X97455000Y-63665000D01*
X97485000Y-63760000D01*
X97515000Y-63870000D01*
X97540000Y-63970000D01*
X97565000Y-64085000D01*
X97585000Y-64195000D01*
X97600000Y-64295000D01*
X97610000Y-64370000D01*
X97615000Y-64400000D01*
X96205000Y-64400000D01*
X96190000Y-64325000D01*
X96165000Y-64220000D01*
X96130000Y-64105000D01*
X96090000Y-63990000D01*
X96030000Y-63850000D01*
X95980000Y-63750000D01*
X95935000Y-63670000D01*
X95870000Y-63565000D01*
X95810000Y-63480000D01*
X95745000Y-63395000D01*
X95695000Y-63335000D01*
X95645000Y-63280000D01*
X95565000Y-63195000D01*
X95465000Y-63105000D01*
X95400000Y-63050000D01*
X95315000Y-62985000D01*
X95250000Y-62940000D01*
X95155000Y-62880000D01*
X95060000Y-62825000D01*
X94960000Y-62775000D01*
X94860000Y-62730000D01*
X94780000Y-62700000D01*
X94700000Y-62670000D01*
X94580000Y-62635000D01*
X94475000Y-62610000D01*
X94400000Y-62595000D01*
X94400000Y-61185000D01*
X94520000Y-61200000D01*
G36*
X94520000Y-61200000D02*
G01*
X94665000Y-61225000D01*
X94795000Y-61250000D01*
X94970000Y-61295000D01*
X95135000Y-61345000D01*
X95290000Y-61400000D01*
X95440000Y-61460000D01*
X95590000Y-61530000D01*
X95765000Y-61620000D01*
X95925000Y-61715000D01*
X96060000Y-61805000D01*
X96145000Y-61865000D01*
X96225000Y-61925000D01*
X96295000Y-61980000D01*
X96365000Y-62040000D01*
X96445000Y-62110000D01*
X96495000Y-62155000D01*
X96540000Y-62200000D01*
X96625000Y-62285000D01*
X96695000Y-62360000D01*
X96760000Y-62435000D01*
X96820000Y-62505000D01*
X96870000Y-62570000D01*
X96920000Y-62635000D01*
X96985000Y-62725000D01*
X97045000Y-62815000D01*
X97110000Y-62915000D01*
X97175000Y-63030000D01*
X97240000Y-63150000D01*
X97290000Y-63250000D01*
X97330000Y-63340000D01*
X97370000Y-63435000D01*
X97395000Y-63500000D01*
X97430000Y-63595000D01*
X97455000Y-63665000D01*
X97485000Y-63760000D01*
X97515000Y-63870000D01*
X97540000Y-63970000D01*
X97565000Y-64085000D01*
X97585000Y-64195000D01*
X97600000Y-64295000D01*
X97610000Y-64370000D01*
X97615000Y-64400000D01*
X96205000Y-64400000D01*
X96190000Y-64325000D01*
X96165000Y-64220000D01*
X96130000Y-64105000D01*
X96090000Y-63990000D01*
X96030000Y-63850000D01*
X95980000Y-63750000D01*
X95935000Y-63670000D01*
X95870000Y-63565000D01*
X95810000Y-63480000D01*
X95745000Y-63395000D01*
X95695000Y-63335000D01*
X95645000Y-63280000D01*
X95565000Y-63195000D01*
X95465000Y-63105000D01*
X95400000Y-63050000D01*
X95315000Y-62985000D01*
X95250000Y-62940000D01*
X95155000Y-62880000D01*
X95060000Y-62825000D01*
X94960000Y-62775000D01*
X94860000Y-62730000D01*
X94780000Y-62700000D01*
X94700000Y-62670000D01*
X94580000Y-62635000D01*
X94475000Y-62610000D01*
X94400000Y-62595000D01*
X94400000Y-61185000D01*
X94520000Y-61200000D01*
G37*
X91810000Y-65275000D02*
X91835000Y-65380000D01*
X91870000Y-65495000D01*
X91910000Y-65610000D01*
X91970000Y-65750000D01*
X92020000Y-65850000D01*
X92065000Y-65930000D01*
X92130000Y-66035000D01*
X92190000Y-66120000D01*
X92255000Y-66205000D01*
X92305000Y-66265000D01*
X92355000Y-66320000D01*
X92435000Y-66405000D01*
X92535000Y-66495000D01*
X92600000Y-66550000D01*
X92685000Y-66615000D01*
X92750000Y-66660000D01*
X92845000Y-66720000D01*
X92940000Y-66775000D01*
X93040000Y-66825000D01*
X93140000Y-66870000D01*
X93220000Y-66900000D01*
X93300000Y-66930000D01*
X93420000Y-66965000D01*
X93525000Y-66990000D01*
X93600000Y-67005000D01*
X93600000Y-68415000D01*
X93480000Y-68400000D01*
X93335000Y-68375000D01*
X93205000Y-68350000D01*
X93030000Y-68305000D01*
X92865000Y-68255000D01*
X92710000Y-68200000D01*
X92560000Y-68140000D01*
X92410000Y-68070000D01*
X92235000Y-67980000D01*
X92075000Y-67885000D01*
X91940000Y-67795000D01*
X91855000Y-67735000D01*
X91775000Y-67675000D01*
X91705000Y-67620000D01*
X91635000Y-67560000D01*
X91555000Y-67490000D01*
X91505000Y-67445000D01*
X91460000Y-67400000D01*
X91375000Y-67315000D01*
X91305000Y-67240000D01*
X91240000Y-67165000D01*
X91180000Y-67095000D01*
X91130000Y-67030000D01*
X91080000Y-66965000D01*
X91015000Y-66875000D01*
X90955000Y-66785000D01*
X90890000Y-66685000D01*
X90825000Y-66570000D01*
X90760000Y-66450000D01*
X90710000Y-66350000D01*
X90670000Y-66260000D01*
X90630000Y-66165000D01*
X90605000Y-66100000D01*
X90570000Y-66005000D01*
X90545000Y-65935000D01*
X90515000Y-65840000D01*
X90485000Y-65730000D01*
X90460000Y-65630000D01*
X90435000Y-65515000D01*
X90415000Y-65405000D01*
X90400000Y-65305000D01*
X90390000Y-65230000D01*
X90385000Y-65200000D01*
X91795000Y-65200000D01*
X91810000Y-65275000D01*
G36*
X91810000Y-65275000D02*
G01*
X91835000Y-65380000D01*
X91870000Y-65495000D01*
X91910000Y-65610000D01*
X91970000Y-65750000D01*
X92020000Y-65850000D01*
X92065000Y-65930000D01*
X92130000Y-66035000D01*
X92190000Y-66120000D01*
X92255000Y-66205000D01*
X92305000Y-66265000D01*
X92355000Y-66320000D01*
X92435000Y-66405000D01*
X92535000Y-66495000D01*
X92600000Y-66550000D01*
X92685000Y-66615000D01*
X92750000Y-66660000D01*
X92845000Y-66720000D01*
X92940000Y-66775000D01*
X93040000Y-66825000D01*
X93140000Y-66870000D01*
X93220000Y-66900000D01*
X93300000Y-66930000D01*
X93420000Y-66965000D01*
X93525000Y-66990000D01*
X93600000Y-67005000D01*
X93600000Y-68415000D01*
X93480000Y-68400000D01*
X93335000Y-68375000D01*
X93205000Y-68350000D01*
X93030000Y-68305000D01*
X92865000Y-68255000D01*
X92710000Y-68200000D01*
X92560000Y-68140000D01*
X92410000Y-68070000D01*
X92235000Y-67980000D01*
X92075000Y-67885000D01*
X91940000Y-67795000D01*
X91855000Y-67735000D01*
X91775000Y-67675000D01*
X91705000Y-67620000D01*
X91635000Y-67560000D01*
X91555000Y-67490000D01*
X91505000Y-67445000D01*
X91460000Y-67400000D01*
X91375000Y-67315000D01*
X91305000Y-67240000D01*
X91240000Y-67165000D01*
X91180000Y-67095000D01*
X91130000Y-67030000D01*
X91080000Y-66965000D01*
X91015000Y-66875000D01*
X90955000Y-66785000D01*
X90890000Y-66685000D01*
X90825000Y-66570000D01*
X90760000Y-66450000D01*
X90710000Y-66350000D01*
X90670000Y-66260000D01*
X90630000Y-66165000D01*
X90605000Y-66100000D01*
X90570000Y-66005000D01*
X90545000Y-65935000D01*
X90515000Y-65840000D01*
X90485000Y-65730000D01*
X90460000Y-65630000D01*
X90435000Y-65515000D01*
X90415000Y-65405000D01*
X90400000Y-65305000D01*
X90390000Y-65230000D01*
X90385000Y-65200000D01*
X91795000Y-65200000D01*
X91810000Y-65275000D01*
G37*
X93600000Y-62595000D02*
X93525000Y-62610000D01*
X93420000Y-62635000D01*
X93305000Y-62670000D01*
X93190000Y-62710000D01*
X93050000Y-62770000D01*
X92950000Y-62820000D01*
X92870000Y-62865000D01*
X92765000Y-62930000D01*
X92680000Y-62990000D01*
X92595000Y-63055000D01*
X92535000Y-63105000D01*
X92480000Y-63155000D01*
X92395000Y-63235000D01*
X92305000Y-63335000D01*
X92250000Y-63400000D01*
X92185000Y-63485000D01*
X92140000Y-63550000D01*
X92080000Y-63645000D01*
X92025000Y-63740000D01*
X91975000Y-63840000D01*
X91930000Y-63940000D01*
X91900000Y-64020000D01*
X91870000Y-64100000D01*
X91835000Y-64220000D01*
X91810000Y-64325000D01*
X91795000Y-64400000D01*
X90385000Y-64400000D01*
X90400000Y-64280000D01*
X90425000Y-64135000D01*
X90450000Y-64005000D01*
X90495000Y-63830000D01*
X90545000Y-63665000D01*
X90600000Y-63510000D01*
X90660000Y-63360000D01*
X90730000Y-63210000D01*
X90820000Y-63035000D01*
X90915000Y-62875000D01*
X91005000Y-62740000D01*
X91065000Y-62655000D01*
X91125000Y-62575000D01*
X91180000Y-62505000D01*
X91240000Y-62435000D01*
X91310000Y-62355000D01*
X91355000Y-62305000D01*
X91400000Y-62260000D01*
X91485000Y-62175000D01*
X91560000Y-62105000D01*
X91635000Y-62040000D01*
X91705000Y-61980000D01*
X91770000Y-61930000D01*
X91835000Y-61880000D01*
X91925000Y-61815000D01*
X92015000Y-61755000D01*
X92115000Y-61690000D01*
X92230000Y-61625000D01*
X92350000Y-61560000D01*
X92450000Y-61510000D01*
X92540000Y-61470000D01*
X92635000Y-61430000D01*
X92700000Y-61405000D01*
X92795000Y-61370000D01*
X92865000Y-61345000D01*
X92960000Y-61315000D01*
X93070000Y-61285000D01*
X93170000Y-61260000D01*
X93285000Y-61235000D01*
X93395000Y-61215000D01*
X93495000Y-61200000D01*
X93570000Y-61190000D01*
X93600000Y-61185000D01*
X93600000Y-62595000D01*
G36*
X93600000Y-62595000D02*
G01*
X93525000Y-62610000D01*
X93420000Y-62635000D01*
X93305000Y-62670000D01*
X93190000Y-62710000D01*
X93050000Y-62770000D01*
X92950000Y-62820000D01*
X92870000Y-62865000D01*
X92765000Y-62930000D01*
X92680000Y-62990000D01*
X92595000Y-63055000D01*
X92535000Y-63105000D01*
X92480000Y-63155000D01*
X92395000Y-63235000D01*
X92305000Y-63335000D01*
X92250000Y-63400000D01*
X92185000Y-63485000D01*
X92140000Y-63550000D01*
X92080000Y-63645000D01*
X92025000Y-63740000D01*
X91975000Y-63840000D01*
X91930000Y-63940000D01*
X91900000Y-64020000D01*
X91870000Y-64100000D01*
X91835000Y-64220000D01*
X91810000Y-64325000D01*
X91795000Y-64400000D01*
X90385000Y-64400000D01*
X90400000Y-64280000D01*
X90425000Y-64135000D01*
X90450000Y-64005000D01*
X90495000Y-63830000D01*
X90545000Y-63665000D01*
X90600000Y-63510000D01*
X90660000Y-63360000D01*
X90730000Y-63210000D01*
X90820000Y-63035000D01*
X90915000Y-62875000D01*
X91005000Y-62740000D01*
X91065000Y-62655000D01*
X91125000Y-62575000D01*
X91180000Y-62505000D01*
X91240000Y-62435000D01*
X91310000Y-62355000D01*
X91355000Y-62305000D01*
X91400000Y-62260000D01*
X91485000Y-62175000D01*
X91560000Y-62105000D01*
X91635000Y-62040000D01*
X91705000Y-61980000D01*
X91770000Y-61930000D01*
X91835000Y-61880000D01*
X91925000Y-61815000D01*
X92015000Y-61755000D01*
X92115000Y-61690000D01*
X92230000Y-61625000D01*
X92350000Y-61560000D01*
X92450000Y-61510000D01*
X92540000Y-61470000D01*
X92635000Y-61430000D01*
X92700000Y-61405000D01*
X92795000Y-61370000D01*
X92865000Y-61345000D01*
X92960000Y-61315000D01*
X93070000Y-61285000D01*
X93170000Y-61260000D01*
X93285000Y-61235000D01*
X93395000Y-61215000D01*
X93495000Y-61200000D01*
X93570000Y-61190000D01*
X93600000Y-61185000D01*
X93600000Y-62595000D01*
G37*
%TD*%
D11*
%TO.C,C53*%
X102400000Y-53700000D03*
X102400000Y-56544800D03*
%TD*%
%TO.C,C50*%
X95400000Y-53650400D03*
X95400000Y-56495200D03*
%TD*%
D12*
%TO.C,J6*%
X33950000Y-74400000D03*
X33950000Y-85600000D03*
%TD*%
D11*
%TO.C,C57*%
X116400000Y-53700000D03*
X116400000Y-56544800D03*
%TD*%
%TO.C,C55*%
X109400000Y-53700000D03*
X109400000Y-56544800D03*
%TD*%
D13*
%TO.C,C69*%
X124000000Y-103800000D03*
X125651000Y-103800000D03*
%TD*%
D14*
%TO.C,BB1*%
X100750000Y-83650000D03*
%TD*%
D15*
%TO.C,CR2*%
X159050001Y-109505250D03*
X158100000Y-109505250D03*
X157149999Y-109505250D03*
X157149999Y-106774750D03*
X158100000Y-106774750D03*
X159050001Y-106774750D03*
%TD*%
D11*
%TO.C,C51*%
X98900000Y-53655200D03*
X98900000Y-56500000D03*
%TD*%
%TO.C,C56*%
X112900000Y-53700000D03*
X112900000Y-56544800D03*
%TD*%
D16*
%TO.C,J17*%
X165300000Y-56700000D03*
X165300000Y-57950000D03*
X165300000Y-59200000D03*
X165300000Y-60450000D03*
X165300000Y-61700000D03*
X165300000Y-62950000D03*
D17*
X168500000Y-54850000D03*
X168500000Y-64800000D03*
%TD*%
D13*
%TO.C,C66*%
X123251000Y-107600000D03*
X121600000Y-107600000D03*
%TD*%
D11*
%TO.C,C54*%
X105900000Y-53700000D03*
X105900000Y-56544800D03*
%TD*%
D18*
%TO.C,C70*%
X125600000Y-105349000D03*
X125600000Y-107000000D03*
%TD*%
D17*
%TO.C,J12*%
X162350000Y-106590000D03*
X162350000Y-108590000D03*
X162350000Y-110590000D03*
X162350000Y-112590000D03*
X162350000Y-114590000D03*
X162350000Y-116590000D03*
D19*
X166800000Y-104240000D03*
X166800000Y-118940000D03*
%TD*%
D20*
%TO.C,CR3*%
X162600000Y-58863498D03*
X162600000Y-59813499D03*
X162600000Y-60763500D03*
X159869500Y-60763500D03*
X159869500Y-59813499D03*
X159869500Y-58863498D03*
%TD*%
%TO.C,CR1*%
X159610000Y-96289999D03*
X159610000Y-97240000D03*
X159610000Y-98190001D03*
X156879500Y-98190001D03*
X156879500Y-97240000D03*
X156879500Y-96289999D03*
%TD*%
D21*
%TO.C,R109*%
X114200000Y-45720800D03*
X114200000Y-47545800D03*
%TD*%
D11*
%TO.C,C49*%
X91900000Y-53650400D03*
X91900000Y-56495200D03*
%TD*%
D22*
%TO.C,J3*%
X162750000Y-94020000D03*
X162750000Y-94820000D03*
D23*
X162750000Y-95970000D03*
X162750000Y-96970000D03*
X162750000Y-97470000D03*
X162750000Y-98470000D03*
D22*
X162750000Y-100420000D03*
X162750000Y-99620000D03*
D23*
X162750000Y-98970000D03*
X162750000Y-97970000D03*
X162750000Y-96470000D03*
X162750000Y-95470000D03*
%TD*%
D13*
%TO.C,C71*%
X117700000Y-107700000D03*
X116049000Y-107700000D03*
%TD*%
D24*
%TO.C,C42*%
X114200000Y-49145800D03*
X114200000Y-51045800D03*
%TD*%
D25*
%TO.C,J11*%
X166150000Y-86500000D03*
X166150000Y-73500000D03*
%TD*%
D26*
%TO.C,BB2*%
X148700000Y-76150000D03*
D27*
X109800000Y-76150000D03*
D26*
X65180000Y-76160000D03*
%TD*%
D28*
%TO.C,R92*%
X52300000Y-76400000D03*
X60600000Y-76400000D03*
%TD*%
D13*
%TO.C,C68*%
X118168198Y-103100000D03*
X116517198Y-103100000D03*
%TD*%
M02*
