G04 #@! TF.GenerationSoftware,KiCad,Pcbnew,7.0.10*
G04 #@! TF.CreationDate,2025-07-14T05:46:52-04:00*
G04 #@! TF.ProjectId,bms-board,626d732d-626f-4617-9264-2e6b69636164,rev?*
G04 #@! TF.SameCoordinates,Original*
G04 #@! TF.FileFunction,Copper,L6,Bot*
G04 #@! TF.FilePolarity,Positive*
%FSLAX46Y46*%
G04 Gerber Fmt 4.6, Leading zero omitted, Abs format (unit mm)*
G04 Created by KiCad (PCBNEW 7.0.10) date 2025-07-14 05:46:52*
%MOMM*%
%LPD*%
G01*
G04 APERTURE LIST*
G04 Aperture macros list*
%AMRoundRect*
0 Rectangle with rounded corners*
0 $1 Rounding radius*
0 $2 $3 $4 $5 $6 $7 $8 $9 X,Y pos of 4 corners*
0 Add a 4 corners polygon primitive as box body*
4,1,4,$2,$3,$4,$5,$6,$7,$8,$9,$2,$3,0*
0 Add four circle primitives for the rounded corners*
1,1,$1+$1,$2,$3*
1,1,$1+$1,$4,$5*
1,1,$1+$1,$6,$7*
1,1,$1+$1,$8,$9*
0 Add four rect primitives between the rounded corners*
20,1,$1+$1,$2,$3,$4,$5,0*
20,1,$1+$1,$4,$5,$6,$7,0*
20,1,$1+$1,$6,$7,$8,$9,0*
20,1,$1+$1,$8,$9,$2,$3,0*%
%AMFreePoly0*
4,1,19,-3.850000,3.850000,3.850000,3.850000,3.850000,-3.080000,3.834092,-3.235708,3.777857,-3.405416,3.684000,-3.557581,3.557581,-3.684000,3.405416,-3.777857,3.235708,-3.834092,3.080000,-3.850000,-3.080000,-3.850000,-3.235708,-3.834092,-3.405416,-3.777857,-3.557581,-3.684000,-3.684000,-3.557581,-3.777857,-3.405416,-3.834092,-3.235708,-3.850000,-3.080000,-3.850000,3.850000,-3.850000,3.850000,
$1*%
G04 Aperture macros list end*
G04 #@! TA.AperFunction,ComponentPad*
%ADD10R,1.700000X1.700000*%
G04 #@! TD*
G04 #@! TA.AperFunction,ComponentPad*
%ADD11C,1.700000*%
G04 #@! TD*
G04 #@! TA.AperFunction,ComponentPad*
%ADD12C,1.400000*%
G04 #@! TD*
G04 #@! TA.AperFunction,ComponentPad*
%ADD13R,1.400000X1.400000*%
G04 #@! TD*
G04 #@! TA.AperFunction,ComponentPad*
%ADD14C,1.752600*%
G04 #@! TD*
G04 #@! TA.AperFunction,ComponentPad*
%ADD15R,4.050000X4.050000*%
G04 #@! TD*
G04 #@! TA.AperFunction,ComponentPad*
%ADD16C,4.050000*%
G04 #@! TD*
G04 #@! TA.AperFunction,ComponentPad*
%ADD17C,2.700000*%
G04 #@! TD*
G04 #@! TA.AperFunction,SMDPad,CuDef*
%ADD18R,2.700000X1.000000*%
G04 #@! TD*
G04 #@! TA.AperFunction,SMDPad,CuDef*
%ADD19R,3.800000X1.800000*%
G04 #@! TD*
G04 #@! TA.AperFunction,SMDPad,CuDef*
%ADD20R,1.140000X0.600000*%
G04 #@! TD*
G04 #@! TA.AperFunction,SMDPad,CuDef*
%ADD21R,1.140000X0.300000*%
G04 #@! TD*
G04 #@! TA.AperFunction,ComponentPad*
%ADD22O,1.800000X1.000000*%
G04 #@! TD*
G04 #@! TA.AperFunction,ComponentPad*
%ADD23O,2.200000X1.000000*%
G04 #@! TD*
G04 #@! TA.AperFunction,ComponentPad*
%ADD24C,5.500000*%
G04 #@! TD*
G04 #@! TA.AperFunction,ComponentPad*
%ADD25C,0.800000*%
G04 #@! TD*
G04 #@! TA.AperFunction,SMDPad,CuDef*
%ADD26FreePoly0,90.000000*%
G04 #@! TD*
G04 #@! TA.AperFunction,ComponentPad*
%ADD27O,1.700000X1.700000*%
G04 #@! TD*
G04 #@! TA.AperFunction,ComponentPad*
%ADD28C,1.530000*%
G04 #@! TD*
G04 #@! TA.AperFunction,SMDPad,CuDef*
%ADD29FreePoly0,270.000000*%
G04 #@! TD*
G04 #@! TA.AperFunction,SMDPad,CuDef*
%ADD30R,1.300000X0.700000*%
G04 #@! TD*
G04 #@! TA.AperFunction,SMDPad,CuDef*
%ADD31R,1.193800X1.016000*%
G04 #@! TD*
G04 #@! TA.AperFunction,SMDPad,CuDef*
%ADD32R,1.600000X0.855600*%
G04 #@! TD*
G04 #@! TA.AperFunction,SMDPad,CuDef*
%ADD33R,12.192000X3.022600*%
G04 #@! TD*
G04 #@! TA.AperFunction,SMDPad,CuDef*
%ADD34R,1.066800X2.489200*%
G04 #@! TD*
G04 #@! TA.AperFunction,SMDPad,CuDef*
%ADD35R,0.889000X0.863600*%
G04 #@! TD*
G04 #@! TA.AperFunction,SMDPad,CuDef*
%ADD36C,1.000000*%
G04 #@! TD*
G04 #@! TA.AperFunction,SMDPad,CuDef*
%ADD37R,1.524000X0.533400*%
G04 #@! TD*
G04 #@! TA.AperFunction,SMDPad,CuDef*
%ADD38R,0.863600X0.889000*%
G04 #@! TD*
G04 #@! TA.AperFunction,SMDPad,CuDef*
%ADD39R,1.380000X0.920000*%
G04 #@! TD*
G04 #@! TA.AperFunction,SMDPad,CuDef*
%ADD40R,2.489200X1.066800*%
G04 #@! TD*
G04 #@! TA.AperFunction,SMDPad,CuDef*
%ADD41R,1.470000X1.160000*%
G04 #@! TD*
G04 #@! TA.AperFunction,SMDPad,CuDef*
%ADD42R,1.016000X1.193800*%
G04 #@! TD*
G04 #@! TA.AperFunction,SMDPad,CuDef*
%ADD43RoundRect,0.500000X-29.650000X-1.650000X29.650000X-1.650000X29.650000X1.650000X-29.650000X1.650000X0*%
G04 #@! TD*
G04 #@! TA.AperFunction,SMDPad,CuDef*
%ADD44R,0.977900X0.558800*%
G04 #@! TD*
G04 #@! TA.AperFunction,SMDPad,CuDef*
%ADD45R,1.549400X0.609600*%
G04 #@! TD*
G04 #@! TA.AperFunction,SMDPad,CuDef*
%ADD46R,1.549400X3.251200*%
G04 #@! TD*
G04 #@! TA.AperFunction,SMDPad,CuDef*
%ADD47RoundRect,0.242500X-0.242500X-0.367500X0.242500X-0.367500X0.242500X0.367500X-0.242500X0.367500X0*%
G04 #@! TD*
G04 #@! TA.AperFunction,SMDPad,CuDef*
%ADD48R,1.244600X0.863600*%
G04 #@! TD*
G04 #@! TA.AperFunction,SMDPad,CuDef*
%ADD49R,1.300000X1.500000*%
G04 #@! TD*
G04 #@! TA.AperFunction,SMDPad,CuDef*
%ADD50R,1.066800X1.397000*%
G04 #@! TD*
G04 #@! TA.AperFunction,SMDPad,CuDef*
%ADD51R,5.200000X8.750000*%
G04 #@! TD*
G04 #@! TA.AperFunction,ComponentPad*
%ADD52R,1.200000X1.200000*%
G04 #@! TD*
G04 #@! TA.AperFunction,ComponentPad*
%ADD53C,1.200000*%
G04 #@! TD*
G04 #@! TA.AperFunction,SMDPad,CuDef*
%ADD54R,1.447800X1.117600*%
G04 #@! TD*
G04 #@! TA.AperFunction,SMDPad,CuDef*
%ADD55R,1.397000X1.066800*%
G04 #@! TD*
G04 #@! TA.AperFunction,SMDPad,CuDef*
%ADD56R,1.700000X0.600000*%
G04 #@! TD*
G04 #@! TA.AperFunction,SMDPad,CuDef*
%ADD57R,0.930000X0.890000*%
G04 #@! TD*
G04 #@! TA.AperFunction,SMDPad,CuDef*
%ADD58R,1.110000X1.470000*%
G04 #@! TD*
G04 #@! TA.AperFunction,SMDPad,CuDef*
%ADD59R,0.920000X1.380000*%
G04 #@! TD*
G04 #@! TA.AperFunction,SMDPad,CuDef*
%ADD60R,0.700000X1.300000*%
G04 #@! TD*
G04 #@! TA.AperFunction,SMDPad,CuDef*
%ADD61R,1.449997X1.305598*%
G04 #@! TD*
G04 #@! TA.AperFunction,SMDPad,CuDef*
%ADD62R,1.450000X0.950000*%
G04 #@! TD*
G04 #@! TA.AperFunction,SMDPad,CuDef*
%ADD63RoundRect,0.242500X0.367500X-0.242500X0.367500X0.242500X-0.367500X0.242500X-0.367500X-0.242500X0*%
G04 #@! TD*
G04 #@! TA.AperFunction,SMDPad,CuDef*
%ADD64R,1.400000X1.100000*%
G04 #@! TD*
G04 #@! TA.AperFunction,SMDPad,CuDef*
%ADD65R,0.939800X1.244600*%
G04 #@! TD*
G04 #@! TA.AperFunction,SMDPad,CuDef*
%ADD66R,0.890000X0.930000*%
G04 #@! TD*
G04 #@! TA.AperFunction,SMDPad,CuDef*
%ADD67R,0.600000X1.150000*%
G04 #@! TD*
G04 #@! TA.AperFunction,SMDPad,CuDef*
%ADD68RoundRect,0.050000X0.387500X0.050000X-0.387500X0.050000X-0.387500X-0.050000X0.387500X-0.050000X0*%
G04 #@! TD*
G04 #@! TA.AperFunction,SMDPad,CuDef*
%ADD69RoundRect,0.050000X0.050000X0.387500X-0.050000X0.387500X-0.050000X-0.387500X0.050000X-0.387500X0*%
G04 #@! TD*
G04 #@! TA.AperFunction,ComponentPad*
%ADD70C,0.600000*%
G04 #@! TD*
G04 #@! TA.AperFunction,SMDPad,CuDef*
%ADD71RoundRect,0.144000X1.456000X1.456000X-1.456000X1.456000X-1.456000X-1.456000X1.456000X-1.456000X0*%
G04 #@! TD*
G04 #@! TA.AperFunction,SMDPad,CuDef*
%ADD72R,0.609600X1.320800*%
G04 #@! TD*
G04 #@! TA.AperFunction,SMDPad,CuDef*
%ADD73R,0.889000X0.990600*%
G04 #@! TD*
G04 #@! TA.AperFunction,SMDPad,CuDef*
%ADD74R,1.701800X0.558800*%
G04 #@! TD*
G04 #@! TA.AperFunction,SMDPad,CuDef*
%ADD75R,1.005599X1.199998*%
G04 #@! TD*
G04 #@! TA.AperFunction,SMDPad,CuDef*
%ADD76R,1.397000X0.863600*%
G04 #@! TD*
G04 #@! TA.AperFunction,SMDPad,CuDef*
%ADD77R,1.320800X0.558800*%
G04 #@! TD*
G04 #@! TA.AperFunction,SMDPad,CuDef*
%ADD78R,0.950000X1.450000*%
G04 #@! TD*
G04 #@! TA.AperFunction,SMDPad,CuDef*
%ADD79R,0.350000X0.950000*%
G04 #@! TD*
G04 #@! TA.AperFunction,SMDPad,CuDef*
%ADD80R,0.950000X0.350000*%
G04 #@! TD*
G04 #@! TA.AperFunction,SMDPad,CuDef*
%ADD81R,1.350000X0.300000*%
G04 #@! TD*
G04 #@! TA.AperFunction,SMDPad,CuDef*
%ADD82R,1.100000X3.400000*%
G04 #@! TD*
G04 #@! TA.AperFunction,SMDPad,CuDef*
%ADD83R,2.700000X1.100000*%
G04 #@! TD*
G04 #@! TA.AperFunction,SMDPad,CuDef*
%ADD84R,2.700000X1.520000*%
G04 #@! TD*
G04 #@! TA.AperFunction,SMDPad,CuDef*
%ADD85R,1.730000X2.100000*%
G04 #@! TD*
G04 #@! TA.AperFunction,SMDPad,CuDef*
%ADD86R,0.558800X1.320800*%
G04 #@! TD*
G04 #@! TA.AperFunction,SMDPad,CuDef*
%ADD87RoundRect,0.500000X21.250000X1.650000X-21.250000X1.650000X-21.250000X-1.650000X21.250000X-1.650000X0*%
G04 #@! TD*
G04 #@! TA.AperFunction,ViaPad*
%ADD88C,0.600000*%
G04 #@! TD*
G04 #@! TA.AperFunction,Conductor*
%ADD89C,0.600000*%
G04 #@! TD*
G04 #@! TA.AperFunction,Conductor*
%ADD90C,0.200000*%
G04 #@! TD*
G04 #@! TA.AperFunction,Conductor*
%ADD91C,0.300000*%
G04 #@! TD*
G04 #@! TA.AperFunction,Conductor*
%ADD92C,0.250000*%
G04 #@! TD*
G04 #@! TA.AperFunction,Conductor*
%ADD93C,0.500000*%
G04 #@! TD*
G04 #@! TA.AperFunction,Conductor*
%ADD94C,1.000000*%
G04 #@! TD*
G04 #@! TA.AperFunction,Conductor*
%ADD95C,0.284500*%
G04 #@! TD*
G04 APERTURE END LIST*
D10*
X147875750Y-59700000D03*
D11*
X145375750Y-59700000D03*
D10*
X126400000Y-59680000D03*
D11*
X123900000Y-59680000D03*
D12*
X95250000Y-54700000D03*
X95250000Y-57200000D03*
X95250000Y-59700000D03*
X95250000Y-62200000D03*
X95250000Y-64700000D03*
X95250000Y-67200000D03*
X95250000Y-69700000D03*
X95250000Y-72200000D03*
X95250000Y-74700000D03*
X95250000Y-77200000D03*
X95250000Y-79700000D03*
X95250000Y-82200000D03*
D13*
X95250000Y-84700000D03*
D14*
X98858098Y-125900000D03*
X98858098Y-128400000D03*
X98858098Y-130900000D03*
X98858098Y-133400000D03*
X96358098Y-125900000D03*
X96358098Y-128400000D03*
X96358098Y-130900000D03*
X96358098Y-133400000D03*
D15*
X106200000Y-140500000D03*
D16*
X113400000Y-140500000D03*
D17*
X103050000Y-146500000D03*
X116550000Y-146500000D03*
D10*
X123900000Y-138720000D03*
D11*
X126400000Y-138720000D03*
X147975750Y-138740000D03*
D10*
X145475750Y-138740000D03*
D17*
X168750000Y-146457500D03*
X155250000Y-146457500D03*
D16*
X165600000Y-140457500D03*
D15*
X158400000Y-140457500D03*
D18*
X178250000Y-125800000D03*
X178250000Y-127800000D03*
X178250000Y-129800000D03*
X178250000Y-131800000D03*
X178250000Y-133800000D03*
X178250000Y-135800000D03*
D19*
X182700000Y-123450000D03*
X182700000Y-138150000D03*
D20*
X178650000Y-113230000D03*
X178650000Y-114030000D03*
D21*
X178650000Y-115180000D03*
X178650000Y-116180000D03*
X178650000Y-116680000D03*
X178650000Y-117680000D03*
D20*
X178650000Y-119630000D03*
X178650000Y-118830000D03*
D21*
X178650000Y-118180000D03*
X178650000Y-117180000D03*
X178650000Y-115680000D03*
X178650000Y-114680000D03*
D22*
X179230000Y-112110000D03*
X179230000Y-120750000D03*
D23*
X183230000Y-112110000D03*
X183230000Y-120750000D03*
D10*
X175420000Y-69400000D03*
D11*
X175420000Y-66900000D03*
X175420000Y-64400000D03*
D17*
X155150000Y-51920000D03*
X168650000Y-51920000D03*
D16*
X158300000Y-57920000D03*
D15*
X165500000Y-57920000D03*
X113400000Y-57900000D03*
D16*
X106200000Y-57900000D03*
D17*
X116550000Y-51900000D03*
X103050000Y-51900000D03*
D24*
X151150000Y-114450000D03*
D25*
X86900000Y-107700000D03*
X88200000Y-107700000D03*
X89500000Y-107700000D03*
X90800000Y-107700000D03*
X92100000Y-107700000D03*
X93400000Y-107700000D03*
X86900000Y-106400000D03*
X88200000Y-106400000D03*
X89500000Y-106400000D03*
X90800000Y-106400000D03*
X92100000Y-106400000D03*
X93400000Y-106400000D03*
X86900000Y-105100000D03*
X88200000Y-105100000D03*
X89500000Y-105100000D03*
X90800000Y-105100000D03*
X92100000Y-105100000D03*
X93400000Y-105100000D03*
D26*
X90200000Y-104450000D03*
D25*
X86900000Y-103800000D03*
X88200000Y-103800000D03*
X89500000Y-103800000D03*
X90800000Y-103800000D03*
X92100000Y-103800000D03*
X93400000Y-103800000D03*
D15*
X102800000Y-102800000D03*
D25*
X86900000Y-102500000D03*
X88200000Y-102500000D03*
X89500000Y-102500000D03*
X90800000Y-102500000D03*
X92100000Y-102500000D03*
X93400000Y-102500000D03*
X86900000Y-101200000D03*
X88200000Y-101200000D03*
X89500000Y-101200000D03*
X90800000Y-101200000D03*
X92100000Y-101200000D03*
X93400000Y-101200000D03*
X86900000Y-97200000D03*
X88200000Y-97200000D03*
X89500000Y-97200000D03*
X90800000Y-97200000D03*
X92100000Y-97200000D03*
X93400000Y-97200000D03*
X86900000Y-95900000D03*
X88200000Y-95900000D03*
X89500000Y-95900000D03*
X90800000Y-95900000D03*
X92100000Y-95900000D03*
X93400000Y-95900000D03*
D16*
X102800000Y-95600000D03*
D25*
X86900000Y-94600000D03*
X88200000Y-94600000D03*
X89500000Y-94600000D03*
X90800000Y-94600000D03*
X92100000Y-94600000D03*
X93400000Y-94600000D03*
D26*
X90200000Y-93950000D03*
D25*
X86900000Y-93300000D03*
X88200000Y-93300000D03*
X89500000Y-93300000D03*
X90800000Y-93300000D03*
X92100000Y-93300000D03*
X93400000Y-93300000D03*
X86900000Y-92000000D03*
X88200000Y-92000000D03*
X89500000Y-92000000D03*
X90800000Y-92000000D03*
X92100000Y-92000000D03*
X93400000Y-92000000D03*
X86900000Y-90700000D03*
X88200000Y-90700000D03*
X89500000Y-90700000D03*
X90800000Y-90700000D03*
X92100000Y-90700000D03*
X93400000Y-90700000D03*
D17*
X96800000Y-92450000D03*
X96800000Y-105950000D03*
D24*
X180800000Y-54300000D03*
X120650000Y-83950000D03*
X151150000Y-83950000D03*
X180800000Y-144100000D03*
X91000000Y-144100000D03*
X120650000Y-114450000D03*
D10*
X131900000Y-145675000D03*
D27*
X131900000Y-143135000D03*
X134440000Y-145675000D03*
X134440000Y-143135000D03*
X136980000Y-145675000D03*
X136980000Y-143135000D03*
X139520000Y-145675000D03*
X139520000Y-143135000D03*
D28*
X150200000Y-72500000D03*
D25*
X185000000Y-89800000D03*
X183700000Y-89800000D03*
X182400000Y-89800000D03*
X181100000Y-89800000D03*
X179800000Y-89800000D03*
X178500000Y-89800000D03*
X185000000Y-91100000D03*
X183700000Y-91100000D03*
X182400000Y-91100000D03*
X181100000Y-91100000D03*
X179800000Y-91100000D03*
X178500000Y-91100000D03*
X185000000Y-92400000D03*
X183700000Y-92400000D03*
X182400000Y-92400000D03*
X181100000Y-92400000D03*
X179800000Y-92400000D03*
X178500000Y-92400000D03*
D29*
X181700000Y-93050000D03*
D25*
X185000000Y-93700000D03*
X183700000Y-93700000D03*
X182400000Y-93700000D03*
X181100000Y-93700000D03*
X179800000Y-93700000D03*
X178500000Y-93700000D03*
X185000000Y-95000000D03*
X183700000Y-95000000D03*
X182400000Y-95000000D03*
X181100000Y-95000000D03*
X179800000Y-95000000D03*
X178500000Y-95000000D03*
D15*
X170000000Y-95600000D03*
D25*
X185000000Y-96300000D03*
X183700000Y-96300000D03*
X182400000Y-96300000D03*
X181100000Y-96300000D03*
X179800000Y-96300000D03*
X178500000Y-96300000D03*
X185000000Y-102100000D03*
X183700000Y-102100000D03*
X182400000Y-102100000D03*
X181100000Y-102100000D03*
X179800000Y-102100000D03*
X178500000Y-102100000D03*
D16*
X170000000Y-102800000D03*
D25*
X185000000Y-103400000D03*
X183700000Y-103400000D03*
X182400000Y-103400000D03*
X181100000Y-103400000D03*
X179800000Y-103400000D03*
X178500000Y-103400000D03*
X185000000Y-104700000D03*
X183700000Y-104700000D03*
X182400000Y-104700000D03*
X181100000Y-104700000D03*
X179800000Y-104700000D03*
X178500000Y-104700000D03*
D29*
X181700000Y-105350000D03*
D25*
X185000000Y-106000000D03*
X183700000Y-106000000D03*
X182400000Y-106000000D03*
X181100000Y-106000000D03*
X179800000Y-106000000D03*
X178500000Y-106000000D03*
X185000000Y-107300000D03*
X183700000Y-107300000D03*
X182400000Y-107300000D03*
X181100000Y-107300000D03*
X179800000Y-107300000D03*
X178500000Y-107300000D03*
X185000000Y-108600000D03*
X183700000Y-108600000D03*
X182400000Y-108600000D03*
X181100000Y-108600000D03*
X179800000Y-108600000D03*
X178500000Y-108600000D03*
D17*
X176000000Y-92450000D03*
X176000000Y-105950000D03*
D30*
X123000000Y-126900000D03*
X123000000Y-128800000D03*
D31*
X115900000Y-79500000D03*
X115900000Y-81201800D03*
D10*
X111020000Y-132100000D03*
D27*
X113560000Y-132100000D03*
X116100000Y-132100000D03*
D32*
X134121800Y-69759400D03*
X134121800Y-66703798D03*
D33*
X133400000Y-74700000D03*
X133400000Y-89254200D03*
D30*
X142700000Y-118500000D03*
X142700000Y-120400000D03*
D34*
X155600000Y-63100000D03*
X158444800Y-63100000D03*
D35*
X127421800Y-69201000D03*
X127421800Y-67550000D03*
D36*
X131100000Y-59700000D03*
D37*
X145700000Y-111860000D03*
X145700000Y-113130000D03*
X145700000Y-114400000D03*
X145700000Y-115670000D03*
X138410200Y-115670000D03*
X138410200Y-114400000D03*
X138410200Y-113130000D03*
X138410200Y-111860000D03*
D38*
X136300000Y-111800000D03*
X134649000Y-111800000D03*
D34*
X155600000Y-70100000D03*
X158444800Y-70100000D03*
D39*
X116900000Y-124900000D03*
X116900000Y-126810000D03*
D38*
X126037500Y-120175000D03*
X124386500Y-120175000D03*
D40*
X147900000Y-75055200D03*
X147900000Y-77900000D03*
D41*
X118421800Y-76600000D03*
X118421800Y-74840000D03*
D42*
X177801800Y-84900000D03*
X176100000Y-84900000D03*
D40*
X151400000Y-75055200D03*
X151400000Y-77900000D03*
D43*
X136437500Y-95650000D03*
D44*
X174500000Y-129849999D03*
X174500000Y-130800000D03*
X174500000Y-131750001D03*
X171769500Y-131750001D03*
X171769500Y-130800000D03*
X171769500Y-129849999D03*
D36*
X153900000Y-128900000D03*
D45*
X160255000Y-130301300D03*
X160255000Y-132600000D03*
D46*
X153803400Y-132600000D03*
D45*
X160255000Y-134898700D03*
D28*
X126000000Y-107500000D03*
D36*
X176400000Y-114000000D03*
D39*
X133200000Y-59645000D03*
X133200000Y-61555000D03*
D47*
X167603400Y-133800000D03*
X170883400Y-133800000D03*
D34*
X120555200Y-91100000D03*
X123400000Y-91100000D03*
D48*
X115900000Y-82974700D03*
X115900000Y-84828900D03*
D35*
X135000000Y-113874500D03*
X135000000Y-115525500D03*
X113900000Y-119300000D03*
X113900000Y-117649000D03*
D49*
X135437500Y-133575000D03*
X133537500Y-133575000D03*
D50*
X169603400Y-130800000D03*
X167800000Y-130800000D03*
D51*
X109000000Y-104000000D03*
X119800000Y-104000000D03*
D52*
X145500000Y-65100000D03*
D53*
X145500000Y-70100000D03*
D32*
X136521800Y-69759400D03*
X136521800Y-66703798D03*
D48*
X113825000Y-79418400D03*
X113825000Y-81272600D03*
D38*
X172325400Y-82800000D03*
X173976400Y-82800000D03*
D42*
X114145000Y-61950000D03*
X115846800Y-61950000D03*
D54*
X112100000Y-70906400D03*
X112100000Y-72700000D03*
D30*
X147600000Y-123600000D03*
X147600000Y-121700000D03*
D34*
X155600000Y-66600000D03*
X158444800Y-66600000D03*
D55*
X167776400Y-84901700D03*
X167776400Y-83098300D03*
D30*
X159900000Y-85405500D03*
X159900000Y-83505500D03*
D36*
X125400000Y-128400000D03*
D56*
X180623751Y-75900000D03*
X180623751Y-77150000D03*
X180623751Y-78400000D03*
X180623751Y-79650000D03*
X180623751Y-80900000D03*
X180623751Y-82150000D03*
D18*
X183823751Y-74050000D03*
X183823751Y-84000000D03*
D57*
X110113000Y-119119000D03*
X110113000Y-117579000D03*
D31*
X112651600Y-74934900D03*
X112651600Y-76636700D03*
D42*
X146551800Y-117950000D03*
X144850000Y-117950000D03*
D58*
X120521800Y-74100000D03*
X122321800Y-74100000D03*
D57*
X128737500Y-116035000D03*
X128737500Y-117575000D03*
D36*
X145100000Y-123000000D03*
D38*
X140249000Y-127500000D03*
X141900000Y-127500000D03*
D42*
X117745000Y-61950000D03*
X119446800Y-61950000D03*
D35*
X173300000Y-76074500D03*
X173300000Y-77725500D03*
X115800000Y-118500000D03*
X115800000Y-116849000D03*
D59*
X140955000Y-59300000D03*
X139045000Y-59300000D03*
D36*
X111400000Y-124300000D03*
D32*
X131721800Y-69751000D03*
X131721800Y-66695398D03*
D35*
X133000000Y-114525500D03*
X133000000Y-112874500D03*
D34*
X150400000Y-91000000D03*
X147555200Y-91000000D03*
D40*
X144400000Y-75055200D03*
X144400000Y-77900000D03*
D36*
X161000000Y-107200000D03*
D31*
X129200000Y-113750900D03*
X129200000Y-112049100D03*
D60*
X113900000Y-70200000D03*
X115800000Y-70200000D03*
D30*
X157800000Y-85400000D03*
X157800000Y-83500000D03*
D60*
X169400000Y-121900000D03*
X167500000Y-121900000D03*
D36*
X140800000Y-136900000D03*
X165500000Y-135500000D03*
D57*
X92700000Y-122700000D03*
X92700000Y-121160000D03*
D59*
X137155000Y-59300000D03*
X135245000Y-59300000D03*
D36*
X152200000Y-127400000D03*
D50*
X171349000Y-74600000D03*
X169545600Y-74600000D03*
D57*
X112013000Y-118389000D03*
X112013000Y-116849000D03*
D30*
X162000000Y-85400000D03*
X162000000Y-83500000D03*
D39*
X105513000Y-119559000D03*
X105513000Y-117649000D03*
D38*
X138037500Y-120175000D03*
X139688500Y-120175000D03*
X171100000Y-76800000D03*
X169449000Y-76800000D03*
D61*
X129400000Y-69155598D03*
X129400000Y-67550000D03*
D62*
X107913000Y-118823500D03*
X107913000Y-116823500D03*
D63*
X162955000Y-135540000D03*
X162955000Y-132260000D03*
D31*
X107873900Y-113321700D03*
X107873900Y-115023500D03*
D38*
X149951000Y-88300000D03*
X148300000Y-88300000D03*
D35*
X121434400Y-62866100D03*
X121434400Y-64517100D03*
D38*
X124449000Y-123900000D03*
X126100000Y-123900000D03*
D64*
X133537500Y-137275000D03*
X131337500Y-137275000D03*
X131337500Y-135674998D03*
X133537500Y-135674998D03*
D65*
X168400002Y-66623200D03*
X171700000Y-66623200D03*
X171700000Y-71500000D03*
X168400002Y-71500000D03*
D36*
X163500000Y-106100000D03*
D59*
X114090000Y-67900000D03*
X116000000Y-67900000D03*
D44*
X177930500Y-78049999D03*
X177930500Y-79000000D03*
X177930500Y-79950001D03*
X175200000Y-79950001D03*
X175200000Y-79000000D03*
X175200000Y-78049999D03*
X174165250Y-115449999D03*
X174165250Y-116400000D03*
X174165250Y-117350001D03*
X171434750Y-117350001D03*
X171434750Y-116400000D03*
X171434750Y-115449999D03*
D66*
X115686800Y-63868700D03*
X114146800Y-63868700D03*
D36*
X149300000Y-132800000D03*
D35*
X169976400Y-84725500D03*
X169976400Y-83074500D03*
D28*
X111800000Y-64200000D03*
D67*
X167550000Y-125000000D03*
X169450000Y-125000000D03*
X168500000Y-127300000D03*
D68*
X134837500Y-120737500D03*
X134837500Y-121137500D03*
X134837500Y-121537500D03*
X134837500Y-121937500D03*
X134837500Y-122337500D03*
X134837500Y-122737500D03*
X134837500Y-123137500D03*
X134837500Y-123537500D03*
X134837500Y-123937500D03*
X134837500Y-124337500D03*
X134837500Y-124737500D03*
X134837500Y-125137500D03*
X134837500Y-125537500D03*
X134837500Y-125937500D03*
D69*
X134000000Y-126775000D03*
X133600000Y-126775000D03*
X133200000Y-126775000D03*
X132800000Y-126775000D03*
X132400000Y-126775000D03*
X132000000Y-126775000D03*
X131600000Y-126775000D03*
X131200000Y-126775000D03*
X130800000Y-126775000D03*
X130400000Y-126775000D03*
X130000000Y-126775000D03*
X129600000Y-126775000D03*
X129200000Y-126775000D03*
X128800000Y-126775000D03*
D68*
X127962500Y-125937500D03*
X127962500Y-125537500D03*
X127962500Y-125137500D03*
X127962500Y-124737500D03*
X127962500Y-124337500D03*
X127962500Y-123937500D03*
X127962500Y-123537500D03*
X127962500Y-123137500D03*
X127962500Y-122737500D03*
X127962500Y-122337500D03*
X127962500Y-121937500D03*
X127962500Y-121537500D03*
X127962500Y-121137500D03*
X127962500Y-120737500D03*
D69*
X128800000Y-119900000D03*
X129200000Y-119900000D03*
X129600000Y-119900000D03*
X130000000Y-119900000D03*
X130400000Y-119900000D03*
X130800000Y-119900000D03*
X131200000Y-119900000D03*
X131600000Y-119900000D03*
X132000000Y-119900000D03*
X132400000Y-119900000D03*
X132800000Y-119900000D03*
X133200000Y-119900000D03*
X133600000Y-119900000D03*
X134000000Y-119900000D03*
D70*
X132675000Y-124612500D03*
X132675000Y-123337500D03*
X132675000Y-122062500D03*
X131400000Y-124612500D03*
X131400000Y-123337500D03*
D71*
X131400000Y-123337500D03*
D70*
X131400000Y-122062500D03*
X130125000Y-124612500D03*
X130125000Y-123337500D03*
X130125000Y-122062500D03*
D39*
X114100000Y-124310000D03*
X114100000Y-122400000D03*
D72*
X94849999Y-120384800D03*
X96750001Y-120384800D03*
X95800000Y-122415200D03*
D55*
X165503400Y-130796600D03*
X165503400Y-132600000D03*
D36*
X146700000Y-129100000D03*
X100600000Y-122100000D03*
D62*
X88100000Y-115400000D03*
X88100000Y-117400000D03*
D39*
X119600000Y-125890000D03*
X119600000Y-127800000D03*
D31*
X131637500Y-131575000D03*
X131637500Y-129873200D03*
D30*
X155650000Y-85400000D03*
X155650000Y-83500000D03*
D73*
X110050002Y-129100002D03*
X114149998Y-129100002D03*
X110050002Y-127500000D03*
X114149998Y-127500000D03*
D74*
X112100000Y-129725002D03*
D75*
X114071202Y-65700000D03*
X115776800Y-65700000D03*
D36*
X152200000Y-123900000D03*
D76*
X111425000Y-81457100D03*
X111425000Y-79399700D03*
D59*
X141490000Y-131700000D03*
X143400000Y-131700000D03*
D31*
X131100000Y-113750900D03*
X131100000Y-112049100D03*
D40*
X154900000Y-75050400D03*
X154900000Y-77895200D03*
D49*
X129437500Y-133575000D03*
X131337500Y-133575000D03*
D31*
X114596800Y-74936700D03*
X114596800Y-76638500D03*
D59*
X140700000Y-134000000D03*
X142610000Y-134000000D03*
D36*
X153900000Y-125900000D03*
D77*
X171571800Y-78849999D03*
X171571800Y-79800000D03*
X171571800Y-80750001D03*
X168981000Y-80750001D03*
X168981000Y-79800000D03*
X168981000Y-78849999D03*
D36*
X105900000Y-123200000D03*
D35*
X125324400Y-63140600D03*
X125324400Y-64791600D03*
D66*
X125260000Y-118000000D03*
X126800000Y-118000000D03*
D62*
X88100000Y-119400000D03*
X88100000Y-121400000D03*
D78*
X172050900Y-85000000D03*
X174050900Y-85000000D03*
D73*
X153650000Y-120199998D03*
X149550004Y-120199998D03*
X153650000Y-121800000D03*
X149550004Y-121800000D03*
D74*
X151600002Y-119574998D03*
D79*
X121649400Y-66266600D03*
X122299400Y-66266600D03*
X122949400Y-66266600D03*
X123599400Y-66266600D03*
X124599400Y-66266600D03*
X125099400Y-66266600D03*
D80*
X125874400Y-67271600D03*
X125874400Y-67921600D03*
X125874400Y-69051600D03*
X125874400Y-69551600D03*
X125874400Y-70051600D03*
D79*
X125249400Y-71316600D03*
X124749400Y-71316600D03*
X124249400Y-71316600D03*
D81*
X124749400Y-70991600D03*
D79*
X123599400Y-71316600D03*
X123099400Y-71316600D03*
X122599400Y-71316600D03*
X122099400Y-71316600D03*
X121599400Y-71316600D03*
D80*
X120824400Y-70541600D03*
X120824400Y-70041600D03*
X120824400Y-69541600D03*
X120824400Y-69041600D03*
X120824400Y-68541600D03*
X120824400Y-68041600D03*
X120824400Y-67541600D03*
X120824400Y-67041600D03*
D82*
X122149400Y-68791600D03*
D83*
X124349400Y-67591600D03*
D84*
X124349400Y-69201600D03*
D85*
X124834400Y-69491600D03*
D39*
X105513000Y-115749000D03*
X105513000Y-113839000D03*
D36*
X144600000Y-89400000D03*
D42*
X125498200Y-111600000D03*
X127200000Y-111600000D03*
D36*
X152200000Y-136200000D03*
D86*
X124949999Y-113784000D03*
X126850001Y-113784000D03*
X125900000Y-115682650D03*
D57*
X123824400Y-64791600D03*
X123824400Y-63163600D03*
D87*
X144987500Y-102650000D03*
D63*
X173600000Y-122680000D03*
X173600000Y-119400000D03*
D88*
X170600000Y-106200000D03*
X184700000Y-125400000D03*
X121700000Y-105300000D03*
X184600000Y-115900000D03*
X90100000Y-148000000D03*
X124100000Y-148000000D03*
X142200000Y-59300000D03*
X170500000Y-120700000D03*
X153400000Y-67400000D03*
X157200000Y-103700000D03*
X129400000Y-132000000D03*
X152100000Y-148000000D03*
X121700000Y-103300000D03*
X159700000Y-123400000D03*
X118000000Y-137300000D03*
X154300000Y-90550002D03*
X145200000Y-101500000D03*
X181603503Y-83979752D03*
X184700000Y-65400000D03*
X174400000Y-73600000D03*
X145700000Y-50400000D03*
X173700000Y-50400000D03*
X126100000Y-148000000D03*
X143400000Y-71400000D03*
X143700000Y-50400000D03*
X175934750Y-130800000D03*
X108549998Y-127500000D03*
X163500000Y-103671300D03*
X155900000Y-101300000D03*
X161500000Y-122100000D03*
X157800000Y-82500000D03*
X117700000Y-105300000D03*
X184700000Y-131400000D03*
X147700000Y-50400000D03*
X87100000Y-135000000D03*
X140500000Y-102500000D03*
X138100000Y-148000000D03*
X180600000Y-100200000D03*
X179700000Y-50400000D03*
X87100000Y-75000000D03*
X124449000Y-123900000D03*
X140900000Y-122000000D03*
X150100000Y-148000000D03*
X121565080Y-61250000D03*
X112000000Y-119800000D03*
X96100000Y-148000000D03*
X107700000Y-50400000D03*
X124400000Y-119400000D03*
X115800000Y-119800000D03*
X152200000Y-121900000D03*
X172600000Y-100200000D03*
X91700000Y-50400000D03*
X143800000Y-122000000D03*
X153400000Y-65400000D03*
X99700000Y-50400000D03*
X100100000Y-148000000D03*
X138700000Y-101050000D03*
X87100000Y-123000000D03*
X108100000Y-148000000D03*
X184700000Y-111400000D03*
X87100000Y-131000000D03*
X127600000Y-116800000D03*
X172100000Y-148000000D03*
X184700000Y-71400000D03*
X184700000Y-67400000D03*
X132000000Y-101200000D03*
X141700000Y-50400000D03*
X149700000Y-50400000D03*
X164100000Y-128400000D03*
X141400000Y-71400000D03*
X182600000Y-100200000D03*
X128100000Y-148000000D03*
X149400000Y-69400000D03*
X168800000Y-123200000D03*
X167600000Y-85950000D03*
X181250000Y-120800000D03*
X149700000Y-103700000D03*
X172700000Y-117400000D03*
X161000000Y-88100000D03*
X87100000Y-129000000D03*
X160100000Y-148000000D03*
X112300000Y-67600000D03*
X164600000Y-127800000D03*
X120600000Y-104200000D03*
X143400000Y-73400000D03*
X138100000Y-104200000D03*
X182430500Y-80886501D03*
X175700000Y-50400000D03*
X184700000Y-59400000D03*
X161500000Y-122100000D03*
X141649265Y-124600735D03*
X100400000Y-113000000D03*
X168600000Y-108200000D03*
X176100000Y-148000000D03*
X144300000Y-127500000D03*
X157800000Y-123500000D03*
X142100000Y-148000000D03*
X184700000Y-55400000D03*
X182100000Y-148000000D03*
X133991998Y-112650000D03*
X87100000Y-139000000D03*
X150600000Y-127300000D03*
X141100000Y-120200000D03*
X109700000Y-50400000D03*
X174100000Y-148000000D03*
X182300000Y-135100000D03*
X129700000Y-136900000D03*
X166000000Y-84900000D03*
X146300000Y-124500000D03*
X151300000Y-101300000D03*
X118600000Y-106300000D03*
X179200000Y-123450000D03*
X142900000Y-103700000D03*
X178600000Y-100200000D03*
X158200000Y-101300000D03*
X148100000Y-148000000D03*
X170600000Y-108200000D03*
X183300000Y-136100000D03*
X135450000Y-132050000D03*
X145400000Y-71400000D03*
X110100000Y-148000000D03*
X117700000Y-107300000D03*
X163700000Y-50400000D03*
X147400000Y-127300000D03*
X163200000Y-123300000D03*
X151700000Y-50400000D03*
X87100000Y-137000000D03*
X172600000Y-106200000D03*
X133800000Y-101000000D03*
X87100000Y-127000000D03*
X136100000Y-123737500D03*
X117700000Y-103300000D03*
X138700000Y-127400000D03*
X87100000Y-83000000D03*
X162934170Y-130765830D03*
X184700000Y-79400000D03*
X184700000Y-143400000D03*
X180100000Y-148000000D03*
X162100000Y-148000000D03*
X94100000Y-148000000D03*
X87100000Y-55000000D03*
X153500000Y-101300000D03*
X112049998Y-127600000D03*
X158100000Y-148000000D03*
X145900000Y-84200000D03*
X145200000Y-103700000D03*
X107830000Y-119850000D03*
X184700000Y-63400000D03*
X87100000Y-141000000D03*
X146300000Y-122000000D03*
X113200000Y-71200000D03*
X161700000Y-138100000D03*
X177100000Y-112800000D03*
X87100000Y-63000000D03*
X177700000Y-50400000D03*
X87100000Y-69000000D03*
X184700000Y-127400000D03*
X171700000Y-50400000D03*
X166100000Y-148000000D03*
X184700000Y-121400000D03*
X87500000Y-50800000D03*
X87100000Y-79000000D03*
X158000000Y-130500000D03*
X87100000Y-145000000D03*
X181700000Y-50400000D03*
X145400000Y-73400000D03*
X174600000Y-108200000D03*
X118000000Y-132100000D03*
X161000000Y-103671300D03*
X92100000Y-148000000D03*
X87600000Y-147500000D03*
X168600000Y-106200000D03*
X172300000Y-82800000D03*
X176600000Y-100200000D03*
X178500000Y-138700000D03*
X151600000Y-120250000D03*
X135850000Y-120137500D03*
X147400000Y-71400000D03*
X151309620Y-89250000D03*
X176600000Y-102200000D03*
X87100000Y-143000000D03*
X127650000Y-115550000D03*
X163100000Y-101300000D03*
X137400000Y-71400000D03*
X161313236Y-124190188D03*
X87100000Y-71000000D03*
X153400000Y-73400000D03*
X105700000Y-50400000D03*
X141400000Y-69400000D03*
X184600000Y-117100000D03*
X179023751Y-79000000D03*
X144100000Y-148000000D03*
X87100000Y-111000000D03*
X182430500Y-82136501D03*
X126900000Y-126900000D03*
X181300000Y-134100000D03*
X124600000Y-117200000D03*
X147400000Y-73400000D03*
X162600000Y-126900000D03*
X184700000Y-129400000D03*
X119300000Y-92000000D03*
X130100000Y-148000000D03*
X160600000Y-101300000D03*
X159100000Y-87600000D03*
X95900000Y-123900000D03*
X173100000Y-79800000D03*
X147400000Y-69400000D03*
X184700000Y-69400000D03*
X151400000Y-73400000D03*
X181300000Y-136100000D03*
X164100000Y-130800000D03*
X161700000Y-50400000D03*
X93700000Y-50400000D03*
X126100000Y-104200000D03*
X139400000Y-69426002D03*
X113700000Y-50400000D03*
X172000000Y-86400000D03*
X179500000Y-137700000D03*
X173400000Y-74900000D03*
X112100000Y-148000000D03*
X184700000Y-61400000D03*
X184600000Y-100200000D03*
X120100000Y-148000000D03*
X101100000Y-111900000D03*
X157050000Y-90600000D03*
X87100000Y-67000000D03*
X178100000Y-148000000D03*
X142800000Y-101300000D03*
X163000000Y-138100000D03*
X184700000Y-53400000D03*
X184700000Y-141400000D03*
X133800000Y-110850000D03*
X134000000Y-130375000D03*
X151400000Y-71400000D03*
X113400000Y-105000000D03*
X87100000Y-133000000D03*
X87100000Y-57000000D03*
X87100000Y-113000000D03*
X87100000Y-61000000D03*
X170000000Y-86400000D03*
X184300000Y-135100000D03*
X171700000Y-69900000D03*
X124400000Y-120937500D03*
X174600000Y-102200000D03*
X87100000Y-53000000D03*
X166000000Y-86600000D03*
X143400000Y-69400000D03*
X177100000Y-120000000D03*
X149900000Y-87400000D03*
X114100000Y-148000000D03*
X147400000Y-131700000D03*
X135000000Y-136525000D03*
X122100000Y-148000000D03*
X87100000Y-59000000D03*
X87100000Y-73000000D03*
X151160000Y-132510000D03*
X172600000Y-104200000D03*
X162000000Y-82500000D03*
X139400000Y-71426002D03*
X136100000Y-148000000D03*
X181623751Y-74000000D03*
X176600000Y-108200000D03*
X152300000Y-103700000D03*
X128500000Y-104200000D03*
X106100000Y-148000000D03*
X119700000Y-50400000D03*
X183300000Y-134100000D03*
X172600000Y-74600000D03*
X165700000Y-50400000D03*
X153400000Y-61400000D03*
X177500000Y-137700000D03*
X132146553Y-112852760D03*
X171500000Y-121400000D03*
X184700000Y-57400000D03*
X168600000Y-100200000D03*
X144075002Y-115600000D03*
X111700000Y-50400000D03*
X184700000Y-81400000D03*
X98100000Y-148000000D03*
X181150000Y-112110000D03*
X87100000Y-77000000D03*
X184700000Y-145400000D03*
X89700000Y-50400000D03*
X174600000Y-100200000D03*
X153400000Y-63400000D03*
X172600000Y-108200000D03*
X87100000Y-125000000D03*
X164100000Y-148000000D03*
X95700000Y-50400000D03*
X159700000Y-50400000D03*
X146100000Y-148000000D03*
X184100000Y-51000000D03*
X97700000Y-50400000D03*
X150700000Y-121900000D03*
X176500000Y-138700000D03*
X157700000Y-50400000D03*
X184300000Y-147600000D03*
X133000000Y-139300000D03*
X154700000Y-103700000D03*
X119700000Y-107300000D03*
X87100000Y-65000000D03*
X87100000Y-81000000D03*
X92700000Y-123900000D03*
X125000000Y-102000000D03*
X170900000Y-135500000D03*
X126025919Y-120186581D03*
X125770000Y-131490000D03*
X132349000Y-125800000D03*
X126100000Y-123900000D03*
X169545600Y-74600000D03*
X136300000Y-111800000D03*
X119200000Y-122700000D03*
X126970000Y-131490000D03*
X142610000Y-134325000D03*
X145300000Y-131700000D03*
X126970000Y-132690000D03*
X136900000Y-120300000D03*
X144300000Y-120250000D03*
X125770000Y-132690000D03*
X129100000Y-124300000D03*
X143400000Y-131700000D03*
X131207054Y-120718282D03*
X127200000Y-111600000D03*
X129100000Y-121219669D03*
X124400000Y-126800000D03*
X132000000Y-115150000D03*
X145600000Y-120250000D03*
X169449000Y-76724998D03*
X144200000Y-134375000D03*
X141500000Y-129125000D03*
X130537500Y-125625000D03*
X135902017Y-115225287D03*
X141400000Y-65400000D03*
X91100000Y-87200000D03*
X172600000Y-98200000D03*
X95100000Y-87200000D03*
X172600000Y-92200000D03*
X172600000Y-92200000D03*
X132000000Y-64100000D03*
X147500000Y-96000000D03*
X99100000Y-91200000D03*
X147400000Y-61400000D03*
X97100000Y-95200000D03*
X93100000Y-89200000D03*
X155700000Y-82500000D03*
X105100000Y-93200000D03*
X170600000Y-92200000D03*
X143600000Y-97300000D03*
X143400000Y-67400000D03*
X147400000Y-67400000D03*
X101100000Y-93200000D03*
X145400000Y-67400000D03*
X159900000Y-82500000D03*
X182600000Y-98200000D03*
X143600000Y-94700000D03*
X140700000Y-97300000D03*
X174600000Y-90200000D03*
X87100000Y-89200000D03*
X151600000Y-94700000D03*
X91100000Y-89200000D03*
X138100000Y-94700000D03*
X180600000Y-88200000D03*
X120500000Y-96000000D03*
X152900000Y-96000000D03*
X97100000Y-87200000D03*
X158600000Y-94700000D03*
X161200000Y-94700000D03*
X149400000Y-63400000D03*
X139400000Y-95850000D03*
X108900000Y-97300000D03*
X107600000Y-96000000D03*
X122500000Y-77400000D03*
X99100000Y-95200000D03*
X121800000Y-94700000D03*
X182600000Y-88200000D03*
X141400000Y-63400000D03*
X149250000Y-67500000D03*
X120500000Y-96000000D03*
X184600000Y-88200000D03*
X141400000Y-67400000D03*
X118000000Y-95700000D03*
X163800000Y-94700000D03*
X108900000Y-97300000D03*
X121000000Y-66000000D03*
X95100000Y-95200000D03*
X99100000Y-93200000D03*
X146200000Y-97300000D03*
X89100000Y-87200000D03*
X184600000Y-86200000D03*
X139400000Y-67400000D03*
X176600000Y-96200000D03*
X87100000Y-85200000D03*
X160500000Y-90900000D03*
X113600000Y-95700000D03*
X89100000Y-85200000D03*
X151600000Y-97300000D03*
X89100000Y-89200000D03*
X101100000Y-91200000D03*
X162200000Y-90925500D03*
X182600000Y-88200000D03*
X143400000Y-63400000D03*
X99100000Y-89200000D03*
X178600000Y-98200000D03*
X107600000Y-96000000D03*
X93100000Y-87200000D03*
X146200000Y-94700000D03*
X120500000Y-96000000D03*
X140700000Y-94700000D03*
X145400000Y-63400000D03*
X135500000Y-94700000D03*
X180600000Y-98200000D03*
X133600000Y-64100000D03*
X163800000Y-97300000D03*
X174600000Y-96200000D03*
X99100000Y-97200000D03*
X125200000Y-97100000D03*
X175400000Y-127000000D03*
X179100000Y-84900000D03*
X174600000Y-98200000D03*
X139400000Y-63450000D03*
X123900000Y-95800000D03*
X184600000Y-98200000D03*
X143400000Y-65400000D03*
X172800000Y-126000000D03*
X97100000Y-89200000D03*
X147400000Y-65400000D03*
X174600000Y-94200000D03*
X109400000Y-112900000D03*
X176600000Y-90200000D03*
X97100000Y-97200000D03*
X176600000Y-98200000D03*
X149400000Y-61400000D03*
X95100000Y-97200000D03*
X87100000Y-87200000D03*
X139400000Y-65500000D03*
X95100000Y-89200000D03*
X156950000Y-97400000D03*
X159900000Y-62200000D03*
X91400000Y-116900000D03*
X161900000Y-72200000D03*
X168300000Y-129010000D03*
X159900000Y-68200000D03*
X163900000Y-72200000D03*
X180400000Y-127800000D03*
X88100000Y-114100000D03*
X182400000Y-127800000D03*
X145900000Y-82200000D03*
X184323751Y-76100000D03*
X172900000Y-130800000D03*
X149900000Y-80200000D03*
X147900000Y-80200000D03*
X165900000Y-64200000D03*
X161900000Y-74200000D03*
X182400000Y-125800000D03*
X155900000Y-80200000D03*
X183400000Y-126800000D03*
X90854600Y-115600000D03*
X159900000Y-74200000D03*
X167500000Y-127300000D03*
X161900000Y-64200000D03*
X161900000Y-62200000D03*
X157900000Y-80200000D03*
X161900000Y-74200000D03*
X105900000Y-112800000D03*
X120800000Y-142800000D03*
X163900000Y-74200000D03*
X163900000Y-66200000D03*
X184323751Y-77100000D03*
X157900000Y-72200000D03*
X145900000Y-82200000D03*
X151900000Y-80200000D03*
X182323751Y-76100000D03*
X183323751Y-76100000D03*
X114300000Y-85172100D03*
X157900000Y-78200000D03*
X159900000Y-74200000D03*
X145900000Y-80200000D03*
X153900000Y-80200000D03*
X165900000Y-66200000D03*
X165900000Y-74200000D03*
X180400000Y-125800000D03*
X163900000Y-64200000D03*
X159900000Y-72200000D03*
X112623502Y-81700000D03*
X163900000Y-62200000D03*
X165900000Y-62200000D03*
X173723751Y-79000000D03*
X182323751Y-77100000D03*
X161900000Y-70200000D03*
X90300000Y-114300000D03*
X159900000Y-70200000D03*
X181400000Y-126800000D03*
X183323751Y-77100000D03*
X159900000Y-80200000D03*
X165900000Y-68200000D03*
X160500000Y-122100000D03*
X162500000Y-122700000D03*
X159100000Y-124300000D03*
X180600000Y-115900000D03*
X161262868Y-124988603D03*
X157900000Y-125900000D03*
X180600000Y-117200000D03*
X161600000Y-127000000D03*
X168400000Y-69800000D03*
X159600000Y-108200000D03*
X100600000Y-122100000D03*
X107000000Y-122100000D03*
X111200000Y-121900000D03*
X99100000Y-101300000D03*
X109600000Y-104300000D03*
X103100000Y-107300000D03*
X108100000Y-102800000D03*
X95100000Y-107300000D03*
X114900000Y-104000000D03*
X97100000Y-109300000D03*
X95100000Y-103300000D03*
X109600000Y-102800000D03*
X111100000Y-105800000D03*
X109600000Y-105800000D03*
X105100000Y-105300000D03*
X108100000Y-104300000D03*
X105100000Y-107300000D03*
X87100000Y-109300000D03*
X95100000Y-109300000D03*
X99100000Y-109300000D03*
X111100000Y-104300000D03*
X111100000Y-102800000D03*
X111100000Y-107300000D03*
X93100000Y-109300000D03*
X111100000Y-101300000D03*
X109600000Y-107300000D03*
X108100000Y-101300000D03*
X91100000Y-109300000D03*
X99100000Y-103300000D03*
X89100000Y-109300000D03*
X101100000Y-107300000D03*
X108100000Y-107300000D03*
X95100000Y-101300000D03*
X99100000Y-105300000D03*
X97100000Y-103300000D03*
X108100000Y-105800000D03*
X97100000Y-101300000D03*
X99100000Y-107300000D03*
X109600000Y-101300000D03*
X153375000Y-87675000D03*
X165900000Y-82400000D03*
X164900000Y-105500000D03*
X167450000Y-79800000D03*
X162060000Y-106780000D03*
X106900000Y-85900000D03*
X105125000Y-111125000D03*
X109600000Y-81700000D03*
X118530331Y-64130331D03*
X156700000Y-89300000D03*
X111400000Y-78200000D03*
X120750000Y-72650000D03*
X109100000Y-122800000D03*
D89*
X170883400Y-135483400D02*
X170900000Y-135500000D01*
X133537500Y-135674998D02*
X134149998Y-135674998D01*
D90*
X110050004Y-127500002D02*
X110050002Y-127500000D01*
X132168293Y-112874500D02*
X133000000Y-112874500D01*
X127600000Y-116800000D02*
X127972500Y-116800000D01*
D91*
X151487498Y-116849998D02*
X151487498Y-116124998D01*
D90*
X133800000Y-110951000D02*
X134649000Y-111800000D01*
D89*
X134149998Y-135674998D02*
X135000000Y-136525000D01*
D90*
X141100000Y-120200000D02*
X141075000Y-120175000D01*
D92*
X126850001Y-113784000D02*
X126850001Y-114750001D01*
D89*
X129437500Y-132037500D02*
X129400000Y-132000000D01*
D90*
X134000000Y-129769380D02*
X132400000Y-128169380D01*
D92*
X169400000Y-121600000D02*
X169400000Y-121900000D01*
D89*
X149900000Y-88249000D02*
X149951000Y-88300000D01*
D91*
X182430500Y-80886501D02*
X180630500Y-80886501D01*
X174500000Y-130800000D02*
X175934750Y-130800000D01*
D89*
X177530000Y-113230000D02*
X177100000Y-112800000D01*
D90*
X124600000Y-117200000D02*
X125260000Y-117860000D01*
D91*
X182430500Y-82136501D02*
X180630500Y-82136501D01*
D90*
X125260000Y-117860000D02*
X125260000Y-118000000D01*
D89*
X118800000Y-105000000D02*
X113400000Y-105000000D01*
D91*
X181623751Y-74000000D02*
X181673751Y-74050000D01*
D89*
X135437500Y-132062500D02*
X135450000Y-132050000D01*
D93*
X172700000Y-117400000D02*
X173700000Y-116400000D01*
D92*
X95900000Y-122515200D02*
X95800000Y-122415200D01*
D89*
X178650000Y-119630000D02*
X177470000Y-119630000D01*
D91*
X181673751Y-74050000D02*
X183823751Y-74050000D01*
D92*
X121565080Y-61250000D02*
X121565080Y-62735420D01*
D93*
X171700000Y-71500000D02*
X171700000Y-69900000D01*
D89*
X177470000Y-119630000D02*
X177100000Y-120000000D01*
D93*
X142200000Y-59300000D02*
X140955000Y-59300000D01*
D89*
X149900000Y-87400000D02*
X149900000Y-88249000D01*
D93*
X183358351Y-112110000D02*
X179220000Y-112110000D01*
D89*
X129437500Y-133575000D02*
X129437500Y-132037500D01*
D92*
X120521800Y-74100000D02*
X120521800Y-74650000D01*
D89*
X171571800Y-79800000D02*
X173100000Y-79800000D01*
D90*
X127972500Y-116800000D02*
X128737500Y-116035000D01*
D89*
X151309620Y-89250000D02*
X150400000Y-90159620D01*
X131337500Y-137275000D02*
X130075000Y-137275000D01*
D92*
X126850001Y-114750001D02*
X127650000Y-115550000D01*
D90*
X144145002Y-115670000D02*
X144075002Y-115600000D01*
D89*
X130075000Y-137275000D02*
X129700000Y-136900000D01*
D91*
X157800000Y-83500000D02*
X157800000Y-82500000D01*
D93*
X179178351Y-120750000D02*
X183358351Y-120750000D01*
D90*
X141075000Y-120175000D02*
X139688500Y-120175000D01*
D89*
X150400000Y-90159620D02*
X150400000Y-91000000D01*
X119800000Y-104000000D02*
X118800000Y-105000000D01*
X120200000Y-91100000D02*
X120555200Y-91100000D01*
D93*
X173700000Y-116400000D02*
X174165250Y-116400000D01*
D90*
X144300000Y-127500000D02*
X141900000Y-127500000D01*
X133991998Y-112650000D02*
X135000000Y-113658002D01*
X124400000Y-119400000D02*
X124386500Y-119413500D01*
D89*
X179200000Y-123450000D02*
X182700000Y-123450000D01*
D91*
X162000000Y-83500000D02*
X162000000Y-82500000D01*
D89*
X170883400Y-133800000D02*
X170883400Y-135483400D01*
D92*
X170500000Y-120700000D02*
X170300000Y-120700000D01*
D89*
X119300000Y-92000000D02*
X120200000Y-91100000D01*
D90*
X145700000Y-115670000D02*
X144145002Y-115670000D01*
D92*
X122421800Y-72840000D02*
X121781800Y-72840000D01*
D90*
X114149998Y-127500000D02*
X114049998Y-127600000D01*
X132400000Y-128169380D02*
X132400000Y-126775000D01*
X134800000Y-111800000D02*
X134870000Y-111870000D01*
D92*
X118571800Y-76600000D02*
X118321800Y-76600000D01*
X120521800Y-74650000D02*
X118571800Y-76600000D01*
D89*
X177930500Y-79000000D02*
X179023751Y-79000000D01*
D92*
X121565080Y-62735420D02*
X121434400Y-62866100D01*
D90*
X110150002Y-127600000D02*
X110050002Y-127500000D01*
D91*
X181603503Y-83979752D02*
X183823751Y-83979752D01*
D90*
X124386500Y-119413500D02*
X124386500Y-120175000D01*
X135000000Y-113658002D02*
X135000000Y-113874500D01*
D89*
X135437500Y-133575000D02*
X135437500Y-132062500D01*
D92*
X122599400Y-71316600D02*
X122599400Y-72662400D01*
D89*
X178650000Y-113230000D02*
X177530000Y-113230000D01*
D91*
X183823751Y-83979752D02*
X183830500Y-83986501D01*
D92*
X121781800Y-72840000D02*
X120521800Y-74100000D01*
D90*
X132146553Y-112852760D02*
X132168293Y-112874500D01*
X134000000Y-130375000D02*
X134000000Y-129769380D01*
D92*
X170300000Y-120700000D02*
X169400000Y-121600000D01*
D90*
X133800000Y-110850000D02*
X133800000Y-110951000D01*
D92*
X122599400Y-72662400D02*
X122421800Y-72840000D01*
X95900000Y-123900000D02*
X95900000Y-122515200D01*
X92700000Y-123900000D02*
X92700000Y-122700000D01*
D90*
X131403640Y-126037500D02*
X131200000Y-126241140D01*
D89*
X124400000Y-126800000D02*
X120840000Y-126800000D01*
D90*
X136900000Y-120300000D02*
X137025000Y-120175000D01*
X140249000Y-127500000D02*
X140162500Y-127500000D01*
X133000000Y-115463971D02*
X130800000Y-117663971D01*
X145600000Y-120250000D02*
X146150000Y-120250000D01*
X136900000Y-120300000D02*
X136462500Y-120737500D01*
X130800000Y-117663971D02*
X130800000Y-119900000D01*
X129062500Y-124337500D02*
X127962500Y-124337500D01*
D94*
X131900000Y-141600000D02*
X126400000Y-136100000D01*
D90*
X126037500Y-120175000D02*
X126337500Y-119875000D01*
X140249000Y-127498000D02*
X140249000Y-127500000D01*
D89*
X119840000Y-127800000D02*
X117890000Y-127800000D01*
D90*
X129100000Y-123250000D02*
X129094669Y-123255331D01*
X126100000Y-123900000D02*
X126537500Y-124337500D01*
D89*
X120840000Y-126800000D02*
X119840000Y-127800000D01*
D90*
X132111500Y-126037500D02*
X131403640Y-126037500D01*
X137025000Y-120175000D02*
X138037500Y-120175000D01*
X141500000Y-128800000D02*
X140249000Y-127549000D01*
X129100000Y-121219669D02*
X129100000Y-123250000D01*
X133000000Y-114525500D02*
X133000000Y-115463971D01*
X136370000Y-111870000D02*
X138400200Y-111870000D01*
X144300000Y-120250000D02*
X142850000Y-120250000D01*
X140200000Y-127449000D02*
X140249000Y-127498000D01*
X138400200Y-111870000D02*
X138410200Y-111860000D01*
X129094669Y-124294669D02*
X129094669Y-123255331D01*
X133000000Y-114525500D02*
X132624500Y-114525500D01*
X140249000Y-127549000D02*
X140249000Y-127500000D01*
X131200000Y-120711228D02*
X131200000Y-119900000D01*
D92*
X127200000Y-111600000D02*
X127200000Y-111837462D01*
D89*
X114400000Y-122700000D02*
X114100000Y-122400000D01*
X117890000Y-127800000D02*
X116900000Y-126810000D01*
X119200000Y-122700000D02*
X114400000Y-122700000D01*
D90*
X131200000Y-126241140D02*
X131200000Y-126775000D01*
X129200000Y-119900000D02*
X129200000Y-119600000D01*
D94*
X126400000Y-136100000D02*
X126400000Y-132150000D01*
D90*
X137000000Y-124337500D02*
X134837500Y-124337500D01*
X126637500Y-124337500D02*
X127962500Y-124337500D01*
X146150000Y-120250000D02*
X147600000Y-121700000D01*
D92*
X127200000Y-111837462D02*
X127137462Y-111900000D01*
D90*
X141500000Y-129125000D02*
X141500000Y-128800000D01*
X129100000Y-124300000D02*
X129094669Y-124294669D01*
X136462500Y-120737500D02*
X134837500Y-120737500D01*
X129100000Y-124300000D02*
X129062500Y-124337500D01*
D94*
X131900000Y-143135000D02*
X131900000Y-141600000D01*
D90*
X131207054Y-120718282D02*
X131200000Y-120711228D01*
X132624500Y-114525500D02*
X132000000Y-115150000D01*
X142850000Y-120250000D02*
X142700000Y-120400000D01*
X140162500Y-127500000D02*
X137000000Y-124337500D01*
X132349000Y-125800000D02*
X132111500Y-126037500D01*
X126537500Y-124337500D02*
X126637500Y-124337500D01*
X130800000Y-125887500D02*
X130800000Y-126775000D01*
X135902017Y-115225287D02*
X135601804Y-115525500D01*
X135000000Y-115525500D02*
X134071314Y-115525500D01*
X129600000Y-119900000D02*
X129600000Y-118337500D01*
X131600000Y-117996814D02*
X131600000Y-119900000D01*
X130537500Y-121375000D02*
X130537500Y-121371360D01*
X134071314Y-115525500D02*
X131600000Y-117996814D01*
X130537500Y-125625000D02*
X130800000Y-125887500D01*
X129600000Y-118337500D02*
X128837500Y-117575000D01*
X129600000Y-120433860D02*
X129600000Y-119900000D01*
X135601804Y-115525500D02*
X135000000Y-115525500D01*
X130537500Y-121371360D02*
X129600000Y-120433860D01*
D91*
X159900000Y-83505500D02*
X159900000Y-82500000D01*
D92*
X121600000Y-66217200D02*
X121649400Y-66266600D01*
D90*
X109400000Y-112900000D02*
X108295600Y-112900000D01*
D91*
X108900000Y-94600000D02*
X112400000Y-94600000D01*
D92*
X121434400Y-64517100D02*
X121382900Y-64517100D01*
D91*
X155700000Y-83450000D02*
X155700000Y-82500000D01*
X155650000Y-83500000D02*
X155700000Y-83450000D01*
X112400000Y-94600000D02*
X113400000Y-95600000D01*
D92*
X120900000Y-65900000D02*
X121000000Y-66000000D01*
D90*
X108295600Y-112900000D02*
X107873900Y-113321700D01*
D92*
X121434400Y-64517100D02*
X121600000Y-64682700D01*
X121382900Y-64517100D02*
X120900000Y-65000000D01*
X120900000Y-65000000D02*
X120900000Y-65900000D01*
D89*
X179100000Y-84900000D02*
X177801800Y-84900000D01*
D92*
X121600000Y-64682700D02*
X121600000Y-66217200D01*
D91*
X116300000Y-94600000D02*
X115300000Y-95600000D01*
X119700000Y-94600000D02*
X116300000Y-94600000D01*
D90*
X133000000Y-133037500D02*
X133000000Y-129335066D01*
X132000000Y-128335066D02*
X132000000Y-126775000D01*
X133000000Y-129335066D02*
X132987437Y-129322503D01*
X133537500Y-133575000D02*
X132437500Y-134675000D01*
X132987437Y-129322503D02*
X132000000Y-128335066D01*
X133537500Y-133575000D02*
X133000000Y-133037500D01*
X132437500Y-134675000D02*
X132437500Y-136325000D01*
X132437500Y-136325000D02*
X133387500Y-137275000D01*
D92*
X114643200Y-84828900D02*
X114300000Y-85172100D01*
D93*
X166323200Y-66623200D02*
X165900000Y-66200000D01*
D92*
X112623502Y-78611798D02*
X112623502Y-81700000D01*
D93*
X178250000Y-127800000D02*
X178250000Y-125800000D01*
D92*
X115900000Y-84828900D02*
X114643200Y-84828900D01*
D89*
X172900000Y-130800000D02*
X171769500Y-130800000D01*
X171350000Y-127800000D02*
X178250000Y-127800000D01*
X171769500Y-130800000D02*
X170951151Y-130800000D01*
D93*
X178060000Y-127610000D02*
X178250000Y-127800000D01*
D90*
X105900000Y-112800000D02*
X105513000Y-113187000D01*
D91*
X177480500Y-77136501D02*
X175617001Y-79000000D01*
D89*
X167674700Y-83200000D02*
X165500000Y-83200000D01*
X171571800Y-81479100D02*
X169976400Y-83074500D01*
D91*
X175617001Y-79000000D02*
X175200000Y-79000000D01*
X180630500Y-75886501D02*
X180630500Y-77136501D01*
D90*
X105513000Y-113187000D02*
X105513000Y-113839000D01*
D89*
X164300000Y-82000000D02*
X164300000Y-80400000D01*
D92*
X114596800Y-76638500D02*
X112623502Y-78611798D01*
D89*
X170700000Y-130548849D02*
X170700000Y-128450000D01*
X170700000Y-128450000D02*
X171350000Y-127800000D01*
X173723751Y-79000000D02*
X175200000Y-79000000D01*
X169976400Y-83074500D02*
X167800200Y-83074500D01*
X167776400Y-83098300D02*
X167674700Y-83200000D01*
D93*
X168400002Y-66623200D02*
X166323200Y-66623200D01*
D89*
X167800200Y-83074500D02*
X167776400Y-83098300D01*
X171571800Y-80750001D02*
X171571800Y-81479100D01*
X165500000Y-83200000D02*
X164300000Y-82000000D01*
D92*
X88100000Y-115400000D02*
X88100000Y-114100000D01*
D89*
X170951151Y-130800000D02*
X170700000Y-130548849D01*
D91*
X180630500Y-77136501D02*
X177480500Y-77136501D01*
D89*
X162955000Y-135540000D02*
X161640000Y-135540000D01*
X170600000Y-122700000D02*
X169450000Y-123850000D01*
X169600000Y-125150000D02*
X169600000Y-134500000D01*
X169450000Y-125000000D02*
X169600000Y-125150000D01*
X160998700Y-134898700D02*
X160255000Y-134898700D01*
X169600000Y-134500000D02*
X168560000Y-135540000D01*
X173600000Y-122680000D02*
X173580000Y-122700000D01*
X169450000Y-123850000D02*
X169450000Y-125000000D01*
X173580000Y-122700000D02*
X170600000Y-122700000D01*
X168560000Y-135540000D02*
X162955000Y-135540000D01*
X161640000Y-135540000D02*
X160998700Y-134898700D01*
X172820000Y-115026899D02*
X172820000Y-115870000D01*
X172820000Y-115870000D02*
X172290000Y-116400000D01*
X174170000Y-118830000D02*
X173600000Y-119400000D01*
X173816899Y-114030000D02*
X172820000Y-115026899D01*
X173600000Y-119400000D02*
X169300000Y-119400000D01*
X169300000Y-119400000D02*
X167550000Y-121150000D01*
X178650000Y-114030000D02*
X173816899Y-114030000D01*
X167550000Y-121150000D02*
X167550000Y-125000000D01*
X172290000Y-116400000D02*
X171434750Y-116400000D01*
X178650000Y-118830000D02*
X174170000Y-118830000D01*
D95*
X161530173Y-113072767D02*
X161530174Y-113072768D01*
X158199656Y-109742250D02*
X131400342Y-109742250D01*
X161954438Y-113921296D02*
X161954437Y-113921296D01*
X170701324Y-117350001D02*
X169993573Y-116642250D01*
X169993573Y-116642250D02*
X165099656Y-116642250D01*
X130434500Y-110708092D02*
X130434500Y-111383600D01*
X161954437Y-113921296D02*
X161891954Y-113983780D01*
X161467689Y-113559514D02*
X161530173Y-113497031D01*
X165099656Y-116642250D02*
X162378703Y-113921297D01*
X130434500Y-111383600D02*
X131100000Y-112049100D01*
X161467689Y-113559515D02*
X161467689Y-113559514D01*
X161530174Y-113072768D02*
X158199656Y-109742250D01*
X171434750Y-117350001D02*
X170701324Y-117350001D01*
X131400342Y-109742250D02*
X130434500Y-110708092D01*
X161467691Y-113983779D02*
G75*
G03*
X161891953Y-113983779I212131J212131D01*
G01*
X161467642Y-113559468D02*
G75*
G03*
X161467690Y-113983780I212158J-212132D01*
G01*
X161530174Y-113497032D02*
G75*
G03*
X161530173Y-113072767I-212174J212132D01*
G01*
X162378733Y-113921267D02*
G75*
G03*
X161954438Y-113921296I-212133J-212133D01*
G01*
X169993573Y-116157750D02*
X165300344Y-116157750D01*
X131199655Y-109257751D02*
X129950000Y-110507406D01*
X129950000Y-111374550D02*
X129275450Y-112049100D01*
X129275450Y-112049100D02*
X129200000Y-112049100D01*
X129950000Y-110507406D02*
X129950000Y-111374550D01*
X158400342Y-109257750D02*
X131199655Y-109257751D01*
X165300344Y-116157750D02*
X158400342Y-109257750D01*
X171434750Y-115449999D02*
X170701324Y-115449999D01*
X170701324Y-115449999D02*
X169993573Y-116157750D01*
D90*
X128400000Y-130400000D02*
X117800000Y-130400000D01*
X117800000Y-130400000D02*
X116100000Y-132100000D01*
X130400000Y-128400000D02*
X128400000Y-130400000D01*
X130400000Y-126775000D02*
X130400000Y-128400000D01*
X130000000Y-127900000D02*
X128250000Y-129650000D01*
X128250000Y-129650000D02*
X116010000Y-129650000D01*
X130000000Y-126775000D02*
X130000000Y-127900000D01*
X116010000Y-129650000D02*
X113560000Y-132100000D01*
X139037500Y-121137500D02*
X134837500Y-121137500D01*
X140800000Y-122900000D02*
X139037500Y-121137500D01*
X160500000Y-122100000D02*
X155500000Y-122100000D01*
X155500000Y-122100000D02*
X154700000Y-122900000D01*
X154700000Y-122900000D02*
X140800000Y-122900000D01*
X138537500Y-121537500D02*
X134837500Y-121537500D01*
X155400000Y-123800000D02*
X140800000Y-123800000D01*
X140800000Y-123800000D02*
X138537500Y-121537500D01*
X162500000Y-122700000D02*
X156500000Y-122700000D01*
X156500000Y-122700000D02*
X155400000Y-123800000D01*
X159100000Y-124300000D02*
X156234315Y-124300000D01*
X151400000Y-125900000D02*
X150800000Y-125300000D01*
X138137500Y-121937500D02*
X134837500Y-121937500D01*
X156234315Y-124300000D02*
X154634315Y-125900000D01*
X154634315Y-125900000D02*
X151400000Y-125900000D01*
X150800000Y-125300000D02*
X141500000Y-125300000D01*
X141500000Y-125300000D02*
X138137500Y-121937500D01*
X179880000Y-115180000D02*
X180600000Y-115900000D01*
X178650000Y-115180000D02*
X179880000Y-115180000D01*
X161262868Y-124988603D02*
X161252252Y-124999219D01*
X161252252Y-124999219D02*
X156900781Y-124999219D01*
X149900000Y-125700000D02*
X141000000Y-125700000D01*
X151600000Y-127400000D02*
X149900000Y-125700000D01*
X154500000Y-127400000D02*
X151600000Y-127400000D01*
X141000000Y-125700000D02*
X137637500Y-122337500D01*
X137637500Y-122337500D02*
X134837500Y-122337500D01*
X156900781Y-124999219D02*
X154500000Y-127400000D01*
X154700000Y-128800000D02*
X148051471Y-128800000D01*
X157600000Y-125900000D02*
X154700000Y-128800000D01*
X137137500Y-122737500D02*
X134837500Y-122737500D01*
X148051471Y-128800000D02*
X145351471Y-126100000D01*
X145351471Y-126100000D02*
X140500000Y-126100000D01*
X157900000Y-125900000D02*
X157600000Y-125900000D01*
X140500000Y-126100000D02*
X137137500Y-122737500D01*
X179620000Y-118180000D02*
X178650000Y-118180000D01*
X180600000Y-117200000D02*
X179620000Y-118180000D01*
X158800000Y-127000000D02*
X155900000Y-129900000D01*
X144148529Y-126500000D02*
X140000000Y-126500000D01*
X140000000Y-126500000D02*
X136637500Y-123137500D01*
X147548529Y-129900000D02*
X144148529Y-126500000D01*
X136637500Y-123137500D02*
X134837500Y-123137500D01*
X155900000Y-129900000D02*
X147548529Y-129900000D01*
X161600000Y-127000000D02*
X158800000Y-127000000D01*
X120651472Y-123500000D02*
X120688973Y-123537500D01*
X120688973Y-123537500D02*
X121837500Y-123537500D01*
X159550000Y-108250000D02*
X130470382Y-108250000D01*
X130470382Y-108250000D02*
X128120382Y-110600000D01*
X159600000Y-108200000D02*
X159550000Y-108250000D01*
X121837500Y-123537500D02*
X123037500Y-124737500D01*
X123037500Y-124737500D02*
X127962500Y-124737500D01*
X103800000Y-113600000D02*
X103800000Y-121500000D01*
X103800000Y-121500000D02*
X105800000Y-123500000D01*
X106800000Y-110600000D02*
X103800000Y-113600000D01*
X168400000Y-69800000D02*
X168400000Y-71499998D01*
X105800000Y-123500000D02*
X120651472Y-123500000D01*
X128120382Y-110600000D02*
X106800000Y-110600000D01*
X168400000Y-71499998D02*
X168400002Y-71500000D01*
X134000000Y-127143174D02*
X134000000Y-126775000D01*
X138800000Y-131300000D02*
X134900000Y-127400000D01*
X136980000Y-142020000D02*
X138800000Y-140200000D01*
X134900000Y-127400000D02*
X134256826Y-127400000D01*
X138800000Y-140200000D02*
X138800000Y-131300000D01*
X134256826Y-127400000D02*
X134000000Y-127143174D01*
X136980000Y-143135000D02*
X136980000Y-142020000D01*
X136980000Y-145675000D02*
X135700000Y-144395000D01*
X133600000Y-127308860D02*
X133600000Y-126775000D01*
X135700000Y-144395000D02*
X135700000Y-142000000D01*
X138200000Y-131600000D02*
X134400000Y-127800000D01*
X134400000Y-127800000D02*
X134091140Y-127800000D01*
X134091140Y-127800000D02*
X133600000Y-127308860D01*
X138200000Y-139500000D02*
X138200000Y-131600000D01*
X135700000Y-142000000D02*
X138200000Y-139500000D01*
X134440000Y-141960000D02*
X137600000Y-138800000D01*
X133200000Y-127474546D02*
X133200000Y-126775000D01*
X137600000Y-138800000D02*
X137600000Y-131700000D01*
X134100000Y-128200000D02*
X133925454Y-128200000D01*
X133925454Y-128200000D02*
X133200000Y-127474546D01*
X137600000Y-131700000D02*
X134100000Y-128200000D01*
X134440000Y-143135000D02*
X134440000Y-141960000D01*
X134440000Y-145675000D02*
X133200000Y-144435000D01*
X132800000Y-127640232D02*
X132800000Y-126775000D01*
X137000000Y-131840232D02*
X132800000Y-127640232D01*
X137000000Y-138200000D02*
X137000000Y-131840232D01*
X133200000Y-144435000D02*
X133200000Y-142000000D01*
X133200000Y-142000000D02*
X137000000Y-138200000D01*
X120400000Y-120500000D02*
X122237500Y-122337500D01*
D92*
X100600000Y-122100000D02*
X98884800Y-120384800D01*
D90*
X122237500Y-122337500D02*
X127962500Y-122337500D01*
X108600000Y-120500000D02*
X120400000Y-120500000D01*
X107000000Y-122100000D02*
X108600000Y-120500000D01*
D92*
X98884800Y-120384800D02*
X96750001Y-120384800D01*
D90*
X107873900Y-115023500D02*
X107873900Y-116784400D01*
X118735648Y-116849000D02*
X123424148Y-121537500D01*
X115800000Y-116849000D02*
X118735648Y-116849000D01*
X123424148Y-121537500D02*
X127962500Y-121537500D01*
X108363000Y-116823500D02*
X112113000Y-116823500D01*
X112013000Y-116849000D02*
X115800000Y-116849000D01*
X115800000Y-116849000D02*
X115851000Y-116900000D01*
X107873900Y-116784400D02*
X107913000Y-116823500D01*
X121537500Y-122737500D02*
X127962500Y-122737500D01*
X112200000Y-120900000D02*
X119700000Y-120900000D01*
X111200000Y-121900000D02*
X112200000Y-120900000D01*
X119700000Y-120900000D02*
X121537500Y-122737500D01*
X136200000Y-128000000D02*
X139400000Y-131200000D01*
X139400000Y-140800000D02*
X138200000Y-142000000D01*
X138200000Y-142000000D02*
X138200000Y-144355000D01*
X138200000Y-144355000D02*
X139520000Y-145675000D01*
X139400000Y-131200000D02*
X139400000Y-140800000D01*
X134936029Y-125937500D02*
X136200000Y-127201471D01*
X134837500Y-125937500D02*
X134936029Y-125937500D01*
X136200000Y-127201471D02*
X136200000Y-128000000D01*
X134837500Y-125537500D02*
X135371360Y-125537500D01*
X139900000Y-131000000D02*
X139900000Y-142755000D01*
X139900000Y-142755000D02*
X139520000Y-143135000D01*
X135371360Y-125537500D02*
X136700000Y-126866140D01*
X136700000Y-126866140D02*
X136700000Y-127800000D01*
X136700000Y-127800000D02*
X139900000Y-131000000D01*
X123400000Y-128400000D02*
X122699998Y-129100002D01*
X114149998Y-129400000D02*
X113049998Y-130500000D01*
X114149998Y-129100002D02*
X114149998Y-129400000D01*
X113049998Y-130500000D02*
X111144698Y-130500000D01*
X110050002Y-129405304D02*
X110050002Y-129100002D01*
X129600000Y-126775000D02*
X129600000Y-127308860D01*
X122699998Y-129100002D02*
X114149998Y-129100002D01*
X111144698Y-130500000D02*
X110050002Y-129405304D01*
X129600000Y-127308860D02*
X129396360Y-127512500D01*
X129387500Y-127512500D02*
X128500000Y-128400000D01*
X129396360Y-127512500D02*
X129387500Y-127512500D01*
X128500000Y-128400000D02*
X123400000Y-128400000D01*
D89*
X109000000Y-104000000D02*
X114900000Y-104000000D01*
D92*
X112651600Y-73251600D02*
X112100000Y-72700000D01*
X112651600Y-74934900D02*
X112651600Y-73251600D01*
X113825000Y-81272600D02*
X115829200Y-81272600D01*
X115900000Y-82974700D02*
X115900000Y-81201800D01*
X115829200Y-81272600D02*
X115900000Y-81201800D01*
X123847400Y-63140600D02*
X123824400Y-63163600D01*
X125324400Y-63140600D02*
X123847400Y-63140600D01*
D90*
X131600000Y-126775000D02*
X131600000Y-129835700D01*
X131600000Y-129835700D02*
X131637500Y-129873200D01*
X153650000Y-119894696D02*
X152705304Y-118950000D01*
X146551800Y-117950000D02*
X147300006Y-117950000D01*
X150494700Y-118950000D02*
X149550004Y-119894696D01*
X152705304Y-118950000D02*
X150494700Y-118950000D01*
X149550004Y-119894696D02*
X149550004Y-120199998D01*
X153650000Y-120199998D02*
X153650000Y-119894696D01*
X147300006Y-117950000D02*
X149550004Y-120199998D01*
X141987500Y-119212500D02*
X142700000Y-118500000D01*
X134000000Y-119531826D02*
X134319326Y-119212500D01*
X143250000Y-117950000D02*
X144850000Y-117950000D01*
X145746900Y-117053100D02*
X147346900Y-117053100D01*
X147346900Y-117053100D02*
X147700000Y-116700000D01*
X147700000Y-113501300D02*
X146058700Y-111860000D01*
X142700000Y-118500000D02*
X143250000Y-117950000D01*
X146058700Y-111860000D02*
X145700000Y-111860000D01*
X147700000Y-116700000D02*
X147700000Y-113501300D01*
X144850000Y-117950000D02*
X145746900Y-117053100D01*
X134000000Y-119900000D02*
X134000000Y-119531826D01*
X134319326Y-119212500D02*
X141987500Y-119212500D01*
D91*
X155650000Y-85400000D02*
X157800000Y-85400000D01*
X153375000Y-87675000D02*
X155650000Y-85400000D01*
D90*
X143100000Y-116500000D02*
X146800000Y-116500000D01*
X147100000Y-114171300D02*
X146058700Y-113130000D01*
X134257500Y-118675000D02*
X140925000Y-118675000D01*
X147100000Y-116200000D02*
X147100000Y-114171300D01*
X146800000Y-116500000D02*
X147100000Y-116200000D01*
X146058700Y-113130000D02*
X145700000Y-113130000D01*
X140925000Y-118675000D02*
X143100000Y-116500000D01*
X133600000Y-119332500D02*
X134257500Y-118675000D01*
X133600000Y-119900000D02*
X133600000Y-119332500D01*
X143200000Y-114400000D02*
X145700000Y-114400000D01*
X133200000Y-119012500D02*
X134037500Y-118175000D01*
X134037500Y-118175000D02*
X139425000Y-118175000D01*
X133200000Y-119900000D02*
X133200000Y-119012500D01*
X139425000Y-118175000D02*
X143200000Y-114400000D01*
X138410200Y-116689800D02*
X138410200Y-115670000D01*
X132800000Y-119900000D02*
X132800000Y-118662500D01*
X132800000Y-118662500D02*
X133787500Y-117675000D01*
X137425000Y-117675000D02*
X138410200Y-116689800D01*
X133787500Y-117675000D02*
X137425000Y-117675000D01*
X136225000Y-117175000D02*
X137000000Y-116400000D01*
X137000000Y-115451500D02*
X138051500Y-114400000D01*
X132400000Y-119900000D02*
X132400000Y-118412500D01*
X132400000Y-118412500D02*
X133637500Y-117175000D01*
X137000000Y-116400000D02*
X137000000Y-115451500D01*
X133637500Y-117175000D02*
X136225000Y-117175000D01*
X138051500Y-114400000D02*
X138410200Y-114400000D01*
X138051500Y-113130000D02*
X138410200Y-113130000D01*
X132000000Y-119900000D02*
X132000000Y-118162500D01*
X136600000Y-114581500D02*
X138051500Y-113130000D01*
X133387500Y-116775000D02*
X135325000Y-116775000D01*
X135325000Y-116775000D02*
X136600000Y-115500000D01*
X136600000Y-115500000D02*
X136600000Y-114581500D01*
X132000000Y-118162500D02*
X133387500Y-116775000D01*
D93*
X171700000Y-66623200D02*
X175143200Y-66623200D01*
X175143200Y-66623200D02*
X175420000Y-66900000D01*
D90*
X136303185Y-125137500D02*
X134837500Y-125137500D01*
X172200000Y-137100000D02*
X141100000Y-137100000D01*
X173500000Y-135800000D02*
X172200000Y-137100000D01*
X172949999Y-129849999D02*
X173500000Y-130400000D01*
X173500000Y-130400000D02*
X173500000Y-135800000D01*
X140600000Y-136600000D02*
X140600000Y-131000000D01*
X141100000Y-137100000D02*
X140600000Y-136600000D01*
X137100000Y-127500000D02*
X137100000Y-125934315D01*
X137100000Y-125934315D02*
X136303185Y-125137500D01*
X171769500Y-129849999D02*
X172949999Y-129849999D01*
X140600000Y-131000000D02*
X137100000Y-127500000D01*
X162356070Y-136325000D02*
X162331070Y-136300000D01*
X141500000Y-135300000D02*
X141500000Y-131100000D01*
X172400000Y-135934314D02*
X172009314Y-136325000D01*
X172400000Y-132380501D02*
X172400000Y-135934314D01*
X142500000Y-136300000D02*
X141500000Y-135300000D01*
X172009314Y-136325000D02*
X162356070Y-136325000D01*
X171769500Y-131750001D02*
X172400000Y-132380501D01*
X141500000Y-131100000D02*
X137700000Y-127300000D01*
X162331070Y-136300000D02*
X142500000Y-136300000D01*
X137700000Y-125834315D02*
X136603185Y-124737500D01*
X137700000Y-127300000D02*
X137700000Y-125834315D01*
X136603185Y-124737500D02*
X134837500Y-124737500D01*
X164900000Y-105500000D02*
X164300000Y-106100000D01*
X128289010Y-109300000D02*
X104700000Y-109300000D01*
X165900000Y-82400000D02*
X167549999Y-80750001D01*
X131489010Y-106100000D02*
X128289010Y-109300000D01*
X101400000Y-112600000D02*
X101400000Y-122600000D01*
X167549999Y-80750001D02*
X168981000Y-80750001D01*
X104737500Y-125937500D02*
X127962500Y-125937500D01*
X101400000Y-122600000D02*
X104737500Y-125937500D01*
X164300000Y-106100000D02*
X131489010Y-106100000D01*
X104700000Y-109300000D02*
X101400000Y-112600000D01*
X102200000Y-122400000D02*
X104900000Y-125100000D01*
X105200000Y-109900000D02*
X102200000Y-112900000D01*
X102200000Y-112900000D02*
X102200000Y-122400000D01*
X167450000Y-79800000D02*
X168981000Y-79800000D01*
X130954696Y-107200000D02*
X128254696Y-109900000D01*
X128254696Y-109900000D02*
X105200000Y-109900000D01*
X162060000Y-106780000D02*
X161640000Y-107200000D01*
X121700000Y-125100000D02*
X122137500Y-125537500D01*
X122137500Y-125537500D02*
X127962500Y-125537500D01*
X104900000Y-125100000D02*
X121700000Y-125100000D01*
X161640000Y-107200000D02*
X130954696Y-107200000D01*
X178650000Y-117180000D02*
X174335251Y-117180000D01*
X174335251Y-117180000D02*
X174165250Y-117350001D01*
X179700000Y-116980000D02*
X179500000Y-117180000D01*
X179480000Y-116180000D02*
X179700000Y-116400000D01*
X179700000Y-116400000D02*
X179700000Y-116980000D01*
X179500000Y-117180000D02*
X178650000Y-117180000D01*
X178650000Y-116180000D02*
X179480000Y-116180000D01*
X175780000Y-115680000D02*
X175300000Y-115200000D01*
X178650000Y-115680000D02*
X175780000Y-115680000D01*
X174449999Y-115449999D02*
X174165250Y-115449999D01*
X175300000Y-115200000D02*
X174700000Y-115200000D01*
X178650000Y-116680000D02*
X175680000Y-116680000D01*
X175680000Y-116680000D02*
X174449999Y-115449999D01*
X174450001Y-115449999D02*
X174165250Y-115449999D01*
X174700000Y-115200000D02*
X174450001Y-115449999D01*
X103000000Y-113250000D02*
X103000000Y-122000000D01*
D91*
X106900000Y-66800000D02*
X113100000Y-60600000D01*
D90*
X105125000Y-111125000D02*
X103000000Y-113250000D01*
X105100000Y-124100000D02*
X121600000Y-124100000D01*
X103000000Y-122000000D02*
X105100000Y-124100000D01*
D91*
X122299400Y-60999400D02*
X122299400Y-66266600D01*
D90*
X122637500Y-125137500D02*
X127962500Y-125137500D01*
X121600000Y-124100000D02*
X122637500Y-125137500D01*
D91*
X113100000Y-60600000D02*
X121900000Y-60600000D01*
X106900000Y-85900000D02*
X106900000Y-66800000D01*
X121900000Y-60600000D02*
X122299400Y-60999400D01*
D92*
X117800000Y-63400000D02*
X118530331Y-64130331D01*
X111182100Y-81700000D02*
X111425000Y-81457100D01*
X109600000Y-81700000D02*
X111182100Y-81700000D01*
X116155500Y-63400000D02*
X117800000Y-63400000D01*
X115686800Y-63868700D02*
X116155500Y-63400000D01*
X120824400Y-67541600D02*
X119359700Y-67541600D01*
X119359700Y-67541600D02*
X115686800Y-63868700D01*
X118421800Y-74840000D02*
X118421800Y-73400000D01*
X118421800Y-73400000D02*
X120505200Y-71316600D01*
X120505200Y-71316600D02*
X121599400Y-71316600D01*
X123099400Y-73322400D02*
X122321800Y-74100000D01*
X123099400Y-71316600D02*
X123099400Y-73322400D01*
X120580200Y-70541600D02*
X116721800Y-74400000D01*
X113825000Y-79399700D02*
X113825000Y-79418400D01*
X116721800Y-76521600D02*
X113825000Y-79418400D01*
X116721800Y-74400000D02*
X116721800Y-76521600D01*
D91*
X156700000Y-88605500D02*
X159900000Y-85405500D01*
X156700000Y-89300000D02*
X156700000Y-88605500D01*
X159900000Y-85405500D02*
X161994500Y-85405500D01*
X161994500Y-85405500D02*
X162000000Y-85400000D01*
D92*
X125324400Y-66041600D02*
X125099400Y-66266600D01*
X125324400Y-64791600D02*
X125324400Y-66041600D01*
X124599400Y-66266600D02*
X125099400Y-66266600D01*
D91*
X180273751Y-80000000D02*
X177980499Y-80000000D01*
X177980499Y-80000000D02*
X177930500Y-79950001D01*
X180623751Y-79650000D02*
X180273751Y-80000000D01*
D92*
X119500000Y-79500000D02*
X123900000Y-75100000D01*
X115900000Y-79500000D02*
X119500000Y-79500000D01*
X133200000Y-59645000D02*
X134900000Y-59645000D01*
X122949400Y-62478600D02*
X122949400Y-66266600D01*
X134900000Y-59645000D02*
X135245000Y-59300000D01*
X129010000Y-59690000D02*
X127200000Y-61500000D01*
X123928000Y-61500000D02*
X122949400Y-62478600D01*
X133155000Y-59690000D02*
X129010000Y-59690000D01*
X127200000Y-61500000D02*
X123928000Y-61500000D01*
D93*
X172175501Y-78849999D02*
X171571800Y-78849999D01*
X173300000Y-77725500D02*
X174875501Y-77725500D01*
X173300000Y-77725500D02*
X172175501Y-78849999D01*
X174875501Y-77725500D02*
X175200000Y-78049999D01*
D92*
X115821800Y-74376300D02*
X115821800Y-75466600D01*
X113482800Y-75805500D02*
X112651600Y-76636700D01*
X115821800Y-75466600D02*
X115482900Y-75805500D01*
X115482900Y-75805500D02*
X113482800Y-75805500D01*
X120156500Y-70041600D02*
X115821800Y-74376300D01*
X120824400Y-70041600D02*
X120156500Y-70041600D01*
X92460000Y-121400000D02*
X92700000Y-121160000D01*
X92700000Y-121160000D02*
X94074799Y-121160000D01*
X94074799Y-121160000D02*
X94849999Y-120384800D01*
X88100000Y-121400000D02*
X92460000Y-121400000D01*
X118118400Y-68041600D02*
X115776800Y-65700000D01*
X120824400Y-68041600D02*
X118118400Y-68041600D01*
X120750000Y-72650000D02*
X121010000Y-72390000D01*
D91*
X111725000Y-79399700D02*
X111425000Y-79399700D01*
D92*
X121010000Y-72390000D02*
X121809400Y-72390000D01*
D91*
X111425000Y-78225000D02*
X111400000Y-78200000D01*
X111425000Y-79399700D02*
X111425000Y-78225000D01*
D92*
X122099400Y-72100000D02*
X122099400Y-71316600D01*
X121809400Y-72390000D02*
X122099400Y-72100000D01*
X119446800Y-65664000D02*
X119446800Y-61950000D01*
X120824400Y-67041600D02*
X119446800Y-65664000D01*
X120824400Y-68541600D02*
X116641600Y-68541600D01*
X116641600Y-68541600D02*
X116000000Y-67900000D01*
X123824400Y-64791600D02*
X123824400Y-66041600D01*
X123824400Y-66041600D02*
X123599400Y-66266600D01*
X119361704Y-70200000D02*
X115800000Y-70200000D01*
X114900000Y-71100000D02*
X114900000Y-74633500D01*
X120020104Y-69541600D02*
X119361704Y-70200000D01*
X115800000Y-70200000D02*
X114900000Y-71100000D01*
X120824400Y-69541600D02*
X120020104Y-69541600D01*
X114900000Y-74633500D02*
X114596800Y-74936700D01*
D90*
X130400000Y-114450900D02*
X131100000Y-113750900D01*
X130400000Y-119900000D02*
X130400000Y-114450900D01*
X129200000Y-114987500D02*
X129200000Y-113750900D01*
X130000000Y-119900000D02*
X130000000Y-115787500D01*
X128949100Y-113500000D02*
X129200000Y-113750900D01*
X130000000Y-115787500D02*
X129200000Y-114987500D01*
D91*
X177980501Y-78100000D02*
X177930500Y-78049999D01*
X180343999Y-78100000D02*
X177980501Y-78100000D01*
X180630500Y-78386501D02*
X180343999Y-78100000D01*
X174549999Y-129800000D02*
X174500000Y-129849999D01*
X178250000Y-129800000D02*
X174549999Y-129800000D01*
X174549999Y-131800000D02*
X174500000Y-131750001D01*
X178250000Y-131800000D02*
X174549999Y-131800000D01*
D90*
X113845000Y-117594000D02*
X113900000Y-117649000D01*
X118580371Y-117649000D02*
X113900000Y-117649000D01*
X105563500Y-117598500D02*
X110189000Y-117598500D01*
X122868871Y-121937500D02*
X118580371Y-117649000D01*
X127962500Y-121937500D02*
X122868871Y-121937500D01*
X110113000Y-117579000D02*
X110128000Y-117594000D01*
X110128000Y-117594000D02*
X113845000Y-117594000D01*
X105513000Y-117649000D02*
X105563500Y-117598500D01*
X105513000Y-117649000D02*
X105513000Y-115749000D01*
X113000000Y-121500000D02*
X119217158Y-121500000D01*
X111700000Y-122800000D02*
X113000000Y-121500000D01*
X119217158Y-121500000D02*
X120854658Y-123137500D01*
X120854658Y-123137500D02*
X127962500Y-123137500D01*
X109100000Y-122800000D02*
X111700000Y-122800000D01*
D92*
X124949999Y-116206449D02*
X126743550Y-118000000D01*
D90*
X128800000Y-119400000D02*
X128800000Y-119900000D01*
X126800000Y-118000000D02*
X127400000Y-118000000D01*
D92*
X125498200Y-111600000D02*
X124949999Y-112148201D01*
X124949999Y-112148201D02*
X124949999Y-113784000D01*
D90*
X126800000Y-118000000D02*
X127100000Y-118000000D01*
D92*
X124949999Y-113784000D02*
X124949999Y-116206449D01*
X126743550Y-118000000D02*
X126800000Y-118000000D01*
D90*
X127400000Y-118000000D02*
X128800000Y-119400000D01*
D92*
X137155000Y-59300000D02*
X139045000Y-59300000D01*
X117745000Y-61950000D02*
X115846800Y-61950000D01*
D90*
X131337500Y-133575000D02*
X131337500Y-131675000D01*
X131337500Y-135674998D02*
X131337500Y-133575000D01*
X131337500Y-131675000D02*
X131437500Y-131575000D01*
D89*
X173976400Y-81173601D02*
X175200000Y-79950001D01*
X173976400Y-82800000D02*
X173976400Y-81173601D01*
X173976400Y-84925500D02*
X174050900Y-85000000D01*
X173976400Y-82800000D02*
X173976400Y-84925500D01*
X174150900Y-84900000D02*
X174050900Y-85000000D01*
X176100000Y-84900000D02*
X174150900Y-84900000D01*
D92*
X88100000Y-117400000D02*
X88100000Y-119400000D01*
G04 #@! TA.AperFunction,Conductor*
G36*
X111282723Y-99601895D02*
G01*
X111368485Y-99618919D01*
X111404112Y-99633643D01*
X111468622Y-99676636D01*
X111495922Y-99703849D01*
X111539118Y-99768220D01*
X111553955Y-99803801D01*
X111571250Y-99889511D01*
X111573206Y-99908781D01*
X111599019Y-108089285D01*
X111597170Y-108108642D01*
X111580283Y-108194784D01*
X111565556Y-108230578D01*
X111522449Y-108295368D01*
X111495124Y-108322779D01*
X111430470Y-108366090D01*
X111394724Y-108380930D01*
X111332367Y-108393359D01*
X111308633Y-108398090D01*
X111289282Y-108400000D01*
X104824261Y-108400000D01*
X104709458Y-108422835D01*
X104612132Y-108487868D01*
X104612128Y-108487871D01*
X102994760Y-110105239D01*
X102979757Y-110117551D01*
X102906914Y-110166223D01*
X102871228Y-110181005D01*
X102806537Y-110193873D01*
X102785297Y-110198098D01*
X102765984Y-110200000D01*
X86299500Y-110200000D01*
X86241309Y-110181093D01*
X86205345Y-110131593D01*
X86200500Y-110101000D01*
X86200500Y-105950000D01*
X95244706Y-105950000D01*
X95263853Y-106193300D01*
X95320828Y-106430613D01*
X95320829Y-106430616D01*
X95414219Y-106656081D01*
X95414224Y-106656092D01*
X95541739Y-106864176D01*
X95541741Y-106864179D01*
X95700241Y-107049759D01*
X95885821Y-107208259D01*
X95885823Y-107208260D01*
X96093907Y-107335775D01*
X96093909Y-107335776D01*
X96093911Y-107335777D01*
X96319388Y-107429172D01*
X96556698Y-107486146D01*
X96800000Y-107505294D01*
X97043302Y-107486146D01*
X97280612Y-107429172D01*
X97506089Y-107335777D01*
X97714179Y-107208259D01*
X97899759Y-107049759D01*
X98058259Y-106864179D01*
X98185777Y-106656089D01*
X98279172Y-106430612D01*
X98336146Y-106193302D01*
X98355294Y-105950000D01*
X98336146Y-105706698D01*
X98279172Y-105469388D01*
X98185777Y-105243911D01*
X98058259Y-105035821D01*
X97899759Y-104850241D01*
X97899752Y-104850235D01*
X97899749Y-104850232D01*
X97714184Y-104691745D01*
X97714176Y-104691739D01*
X97506092Y-104564224D01*
X97506081Y-104564219D01*
X97280616Y-104470829D01*
X97280613Y-104470828D01*
X97043300Y-104413853D01*
X96800000Y-104394706D01*
X96556699Y-104413853D01*
X96319386Y-104470828D01*
X96319383Y-104470829D01*
X96093918Y-104564219D01*
X96093907Y-104564224D01*
X95885823Y-104691739D01*
X95885815Y-104691745D01*
X95700250Y-104850232D01*
X95700232Y-104850250D01*
X95541745Y-105035815D01*
X95541739Y-105035823D01*
X95414224Y-105243907D01*
X95414219Y-105243918D01*
X95320829Y-105469383D01*
X95320828Y-105469386D01*
X95263853Y-105706699D01*
X95244706Y-105950000D01*
X86200500Y-105950000D01*
X86200500Y-99699000D01*
X86219407Y-99640809D01*
X86268907Y-99604845D01*
X86299500Y-99600000D01*
X111263447Y-99600000D01*
X111282723Y-99601895D01*
G37*
G04 #@! TD.AperFunction*
G04 #@! TA.AperFunction,Conductor*
G36*
X170384571Y-73402381D02*
G01*
X170424946Y-73410412D01*
X170469643Y-73428927D01*
X170493513Y-73444877D01*
X170527722Y-73479086D01*
X170543672Y-73502956D01*
X170562188Y-73547655D01*
X170570217Y-73588020D01*
X170572600Y-73612210D01*
X170572600Y-73826909D01*
X170570217Y-73851102D01*
X170565100Y-73876824D01*
X170565100Y-75323173D01*
X170570217Y-75348896D01*
X170572600Y-75373090D01*
X170572600Y-76051824D01*
X170552915Y-76118863D01*
X170517491Y-76154926D01*
X170487599Y-76174898D01*
X170432233Y-76257760D01*
X170432232Y-76257764D01*
X170417700Y-76330821D01*
X170417700Y-77269178D01*
X170432232Y-77342235D01*
X170432233Y-77342239D01*
X170432234Y-77342240D01*
X170487599Y-77425101D01*
X170517489Y-77445073D01*
X170562295Y-77498683D01*
X170572600Y-77548175D01*
X170572600Y-79087789D01*
X170570217Y-79111982D01*
X170562188Y-79152344D01*
X170543672Y-79197043D01*
X170527722Y-79220913D01*
X170493513Y-79255122D01*
X170469643Y-79271072D01*
X170424944Y-79289588D01*
X170408441Y-79292870D01*
X170384578Y-79297617D01*
X170360389Y-79300000D01*
X169962478Y-79300000D01*
X169895439Y-79280315D01*
X169849684Y-79227511D01*
X169839740Y-79158353D01*
X169840861Y-79151808D01*
X169841399Y-79149098D01*
X169841400Y-79149098D01*
X169841400Y-79099999D01*
X168855000Y-79099999D01*
X168787961Y-79080314D01*
X168742206Y-79027510D01*
X168731000Y-78975999D01*
X168731000Y-78370599D01*
X169231000Y-78370599D01*
X169231000Y-78599999D01*
X169841400Y-78599999D01*
X169841400Y-78550900D01*
X169841399Y-78550896D01*
X169829797Y-78492565D01*
X169829796Y-78492564D01*
X169785591Y-78426407D01*
X169719434Y-78382202D01*
X169719433Y-78382201D01*
X169661102Y-78370599D01*
X169231000Y-78370599D01*
X168731000Y-78370599D01*
X168300897Y-78370599D01*
X168242566Y-78382201D01*
X168242565Y-78382202D01*
X168166254Y-78433192D01*
X168163897Y-78429664D01*
X168122958Y-78452019D01*
X168053266Y-78447035D01*
X167997333Y-78405163D01*
X167972916Y-78339699D01*
X167972600Y-78330853D01*
X167972600Y-77050000D01*
X168817200Y-77050000D01*
X168817200Y-77264202D01*
X168828802Y-77322533D01*
X168828803Y-77322534D01*
X168873008Y-77388691D01*
X168939165Y-77432896D01*
X168939166Y-77432897D01*
X168997497Y-77444499D01*
X168997501Y-77444500D01*
X169199000Y-77444500D01*
X169199000Y-77050000D01*
X169699000Y-77050000D01*
X169699000Y-77444500D01*
X169900499Y-77444500D01*
X169900502Y-77444499D01*
X169958833Y-77432897D01*
X169958834Y-77432896D01*
X170024991Y-77388691D01*
X170069196Y-77322534D01*
X170069197Y-77322533D01*
X170080799Y-77264202D01*
X170080800Y-77264199D01*
X170080800Y-77050000D01*
X169699000Y-77050000D01*
X169199000Y-77050000D01*
X168817200Y-77050000D01*
X167972600Y-77050000D01*
X167972600Y-76550000D01*
X168817200Y-76550000D01*
X169199000Y-76550000D01*
X169199000Y-76155500D01*
X169699000Y-76155500D01*
X169699000Y-76550000D01*
X170080800Y-76550000D01*
X170080800Y-76335801D01*
X170080799Y-76335797D01*
X170069197Y-76277466D01*
X170069196Y-76277465D01*
X170024991Y-76211308D01*
X169958834Y-76167103D01*
X169958833Y-76167102D01*
X169900502Y-76155500D01*
X169699000Y-76155500D01*
X169199000Y-76155500D01*
X168997497Y-76155500D01*
X168939166Y-76167102D01*
X168939165Y-76167103D01*
X168873008Y-76211308D01*
X168828803Y-76277465D01*
X168828802Y-76277466D01*
X168817200Y-76335797D01*
X168817200Y-76550000D01*
X167972600Y-76550000D01*
X167972600Y-74850000D01*
X168812200Y-74850000D01*
X168812200Y-75318202D01*
X168823802Y-75376533D01*
X168823803Y-75376534D01*
X168868008Y-75442691D01*
X168934165Y-75486896D01*
X168934166Y-75486897D01*
X168992497Y-75498499D01*
X168992501Y-75498500D01*
X169295600Y-75498500D01*
X169295600Y-74850000D01*
X169795600Y-74850000D01*
X169795600Y-75498500D01*
X170098699Y-75498500D01*
X170098702Y-75498499D01*
X170157033Y-75486897D01*
X170157034Y-75486896D01*
X170223191Y-75442691D01*
X170267396Y-75376534D01*
X170267397Y-75376533D01*
X170278999Y-75318202D01*
X170279000Y-75318199D01*
X170279000Y-74850000D01*
X169795600Y-74850000D01*
X169295600Y-74850000D01*
X168812200Y-74850000D01*
X167972600Y-74850000D01*
X167972600Y-74350000D01*
X168812200Y-74350000D01*
X169295600Y-74350000D01*
X169295600Y-73701500D01*
X169795600Y-73701500D01*
X169795600Y-74350000D01*
X170279000Y-74350000D01*
X170279000Y-73881801D01*
X170278999Y-73881797D01*
X170267397Y-73823466D01*
X170267396Y-73823465D01*
X170223191Y-73757308D01*
X170157034Y-73713103D01*
X170157033Y-73713102D01*
X170098702Y-73701500D01*
X169795600Y-73701500D01*
X169295600Y-73701500D01*
X168992497Y-73701500D01*
X168934166Y-73713102D01*
X168934165Y-73713103D01*
X168868008Y-73757308D01*
X168823803Y-73823465D01*
X168823802Y-73823466D01*
X168812200Y-73881797D01*
X168812200Y-74350000D01*
X167972600Y-74350000D01*
X167972600Y-73612210D01*
X167974981Y-73588029D01*
X167983012Y-73547651D01*
X168001527Y-73502956D01*
X168017477Y-73479086D01*
X168051686Y-73444877D01*
X168075556Y-73428927D01*
X168120253Y-73410412D01*
X168160627Y-73402381D01*
X168184811Y-73400000D01*
X170360389Y-73400000D01*
X170384571Y-73402381D01*
G37*
G04 #@! TD.AperFunction*
G04 #@! TA.AperFunction,Conductor*
G36*
X133481793Y-99676570D02*
G01*
X133529454Y-99686050D01*
X133565140Y-99700831D01*
X133597282Y-99722308D01*
X133624591Y-99749617D01*
X133645560Y-99780998D01*
X133646067Y-99781757D01*
X133660848Y-99817443D01*
X133670329Y-99865104D01*
X133672232Y-99884419D01*
X133672232Y-102681543D01*
X133670310Y-102700958D01*
X133660732Y-102748849D01*
X133645802Y-102784686D01*
X133618546Y-102825210D01*
X133606115Y-102840247D01*
X127965364Y-108435166D01*
X127950396Y-108447360D01*
X127910112Y-108474099D01*
X127874579Y-108488733D01*
X127834782Y-108496607D01*
X127827151Y-108498117D01*
X127807937Y-108500000D01*
X117281984Y-108500000D01*
X117262670Y-108498098D01*
X117246702Y-108494921D01*
X117215007Y-108488617D01*
X117179321Y-108473835D01*
X117178562Y-108473328D01*
X117147181Y-108452359D01*
X117119872Y-108425050D01*
X117098395Y-108392908D01*
X117083614Y-108357222D01*
X117074134Y-108309561D01*
X117072232Y-108290248D01*
X117072232Y-99884419D01*
X117074134Y-99865106D01*
X117083614Y-99817445D01*
X117098394Y-99781760D01*
X117119874Y-99749614D01*
X117147178Y-99722310D01*
X117179324Y-99700830D01*
X117215007Y-99686050D01*
X117240253Y-99681028D01*
X117262671Y-99676570D01*
X117281984Y-99674668D01*
X133462480Y-99674668D01*
X133481793Y-99676570D01*
G37*
G04 #@! TD.AperFunction*
G04 #@! TA.AperFunction,Conductor*
G36*
X166508059Y-61001061D02*
G01*
X166613223Y-61014906D01*
X166644491Y-61023284D01*
X166734918Y-61060740D01*
X166762952Y-61076925D01*
X166840602Y-61136509D01*
X166863491Y-61159398D01*
X166923074Y-61237048D01*
X166939259Y-61265081D01*
X166976715Y-61355508D01*
X166985093Y-61386775D01*
X166998939Y-61491939D01*
X167000000Y-61508125D01*
X167000000Y-79440063D01*
X166980315Y-79507102D01*
X166974378Y-79515547D01*
X166969138Y-79522375D01*
X166913671Y-79656287D01*
X166913670Y-79656291D01*
X166894750Y-79799999D01*
X166894750Y-79800000D01*
X166913670Y-79943708D01*
X166913671Y-79943712D01*
X166969137Y-80077623D01*
X166969139Y-80077625D01*
X166974373Y-80084447D01*
X166999570Y-80149613D01*
X167000000Y-80159935D01*
X167000000Y-80752955D01*
X166980315Y-80819994D01*
X166963681Y-80840636D01*
X166040636Y-81763681D01*
X165979313Y-81797166D01*
X165952955Y-81800000D01*
X153510545Y-81800000D01*
X153379256Y-81817544D01*
X153379244Y-81817548D01*
X153375501Y-81819124D01*
X153371992Y-81819521D01*
X153371293Y-81819712D01*
X153371263Y-81819604D01*
X153306075Y-81826992D01*
X153243417Y-81796077D01*
X153237196Y-81789932D01*
X153212558Y-81763817D01*
X153064488Y-81639572D01*
X152944813Y-81539152D01*
X152944805Y-81539146D01*
X152652796Y-81347088D01*
X152340458Y-81190226D01*
X152340452Y-81190223D01*
X152012012Y-81070681D01*
X152012009Y-81070680D01*
X151671915Y-80990077D01*
X151628519Y-80985004D01*
X151324759Y-80949500D01*
X150975241Y-80949500D01*
X150671480Y-80985004D01*
X150628085Y-80990077D01*
X150628083Y-80990077D01*
X150287990Y-81070680D01*
X150287987Y-81070681D01*
X149959547Y-81190223D01*
X149959541Y-81190226D01*
X149647203Y-81347088D01*
X149355194Y-81539146D01*
X149355186Y-81539152D01*
X149087442Y-81763817D01*
X149087440Y-81763819D01*
X148847589Y-82018044D01*
X148847584Y-82018050D01*
X148638870Y-82298402D01*
X148464113Y-82601091D01*
X148464107Y-82601104D01*
X148325674Y-82922027D01*
X148225430Y-83256865D01*
X148225428Y-83256872D01*
X148164739Y-83601061D01*
X148164738Y-83601072D01*
X148144415Y-83949996D01*
X148144415Y-83950003D01*
X148164738Y-84298927D01*
X148164739Y-84298938D01*
X148225428Y-84643127D01*
X148225430Y-84643134D01*
X148325674Y-84977972D01*
X148464107Y-85298895D01*
X148464113Y-85298908D01*
X148638870Y-85601597D01*
X148847584Y-85881949D01*
X148847589Y-85881955D01*
X149077200Y-86125328D01*
X149108888Y-86187599D01*
X149109977Y-86226366D01*
X149100000Y-86303308D01*
X149100000Y-92291874D01*
X149098939Y-92308060D01*
X149085093Y-92413224D01*
X149076715Y-92444491D01*
X149039259Y-92534918D01*
X149023074Y-92562951D01*
X148963491Y-92640601D01*
X148940601Y-92663491D01*
X148862951Y-92723074D01*
X148834918Y-92739259D01*
X148744491Y-92776715D01*
X148713224Y-92785093D01*
X148619398Y-92797446D01*
X148608058Y-92798939D01*
X148591874Y-92800000D01*
X123208126Y-92800000D01*
X123191941Y-92798939D01*
X123178917Y-92797224D01*
X123086775Y-92785093D01*
X123055508Y-92776715D01*
X122965081Y-92739259D01*
X122937048Y-92723074D01*
X122859398Y-92663491D01*
X122836508Y-92640601D01*
X122776925Y-92562951D01*
X122760740Y-92534918D01*
X122723284Y-92444491D01*
X122714906Y-92413223D01*
X122701061Y-92308059D01*
X122700000Y-92291874D01*
X122700000Y-88208125D01*
X122701061Y-88191940D01*
X122714906Y-88086776D01*
X122723284Y-88055508D01*
X122760740Y-87965081D01*
X122776923Y-87937050D01*
X122836513Y-87859392D01*
X122859392Y-87836513D01*
X122937050Y-87776923D01*
X122965079Y-87760740D01*
X123055509Y-87723283D01*
X123086775Y-87714906D01*
X123191941Y-87701061D01*
X123208126Y-87700000D01*
X142199993Y-87700000D01*
X142200000Y-87700000D01*
X142329410Y-87682963D01*
X142449995Y-87633015D01*
X142449996Y-87633015D01*
X142449996Y-87633014D01*
X142450000Y-87633013D01*
X142553553Y-87553553D01*
X142633013Y-87450000D01*
X142682963Y-87329410D01*
X142700000Y-87200000D01*
X142700000Y-84200000D01*
X145344750Y-84200000D01*
X145363670Y-84343708D01*
X145363671Y-84343712D01*
X145419137Y-84477622D01*
X145419138Y-84477624D01*
X145419139Y-84477625D01*
X145507379Y-84592621D01*
X145622375Y-84680861D01*
X145756291Y-84736330D01*
X145883280Y-84753048D01*
X145899999Y-84755250D01*
X145900000Y-84755250D01*
X145900001Y-84755250D01*
X145914977Y-84753278D01*
X146043709Y-84736330D01*
X146177625Y-84680861D01*
X146292621Y-84592621D01*
X146380861Y-84477625D01*
X146436330Y-84343709D01*
X146455250Y-84200000D01*
X146436330Y-84056291D01*
X146392305Y-83950003D01*
X146380862Y-83922377D01*
X146380861Y-83922376D01*
X146380861Y-83922375D01*
X146292621Y-83807379D01*
X146177625Y-83719139D01*
X146177624Y-83719138D01*
X146177622Y-83719137D01*
X146043712Y-83663671D01*
X146043710Y-83663670D01*
X146043709Y-83663670D01*
X145971854Y-83654210D01*
X145900001Y-83644750D01*
X145899999Y-83644750D01*
X145756291Y-83663670D01*
X145756287Y-83663671D01*
X145622377Y-83719137D01*
X145507379Y-83807379D01*
X145419137Y-83922377D01*
X145363671Y-84056287D01*
X145363670Y-84056291D01*
X145344750Y-84199999D01*
X145344750Y-84200000D01*
X142700000Y-84200000D01*
X142700000Y-77108125D01*
X142701061Y-77091940D01*
X142714906Y-76986776D01*
X142723284Y-76955508D01*
X142760740Y-76865081D01*
X142776923Y-76837050D01*
X142836513Y-76759392D01*
X142859392Y-76736513D01*
X142937050Y-76676923D01*
X142965079Y-76660740D01*
X143055509Y-76623283D01*
X143086775Y-76614906D01*
X143191941Y-76601061D01*
X143208126Y-76600000D01*
X156799993Y-76600000D01*
X156800000Y-76600000D01*
X156929410Y-76582963D01*
X157049995Y-76533015D01*
X157049996Y-76533015D01*
X157049996Y-76533014D01*
X157050000Y-76533013D01*
X157153553Y-76453553D01*
X157233013Y-76350000D01*
X157282963Y-76229410D01*
X157300000Y-76100000D01*
X157300000Y-61508125D01*
X157301061Y-61491940D01*
X157314906Y-61386776D01*
X157323284Y-61355508D01*
X157360740Y-61265081D01*
X157376923Y-61237050D01*
X157436513Y-61159392D01*
X157459392Y-61136513D01*
X157537050Y-61076923D01*
X157565079Y-61060740D01*
X157655509Y-61023283D01*
X157686775Y-61014906D01*
X157791941Y-61001061D01*
X157808126Y-61000000D01*
X166491874Y-61000000D01*
X166508059Y-61001061D01*
G37*
G04 #@! TD.AperFunction*
G04 #@! TA.AperFunction,Conductor*
G36*
X127059656Y-130893768D02*
G01*
X127081106Y-130899861D01*
X127124486Y-130912184D01*
X127170511Y-130940630D01*
X127215977Y-130990380D01*
X127231446Y-131012892D01*
X127722031Y-131994062D01*
X127729654Y-132014838D01*
X127742748Y-132068429D01*
X127743435Y-132112410D01*
X127732021Y-132166383D01*
X127725051Y-132187387D01*
X127227573Y-133265257D01*
X127218136Y-133281465D01*
X127190741Y-133319665D01*
X127163646Y-133345361D01*
X127132130Y-133365526D01*
X127097446Y-133379358D01*
X127057977Y-133386938D01*
X127051286Y-133388223D01*
X127032616Y-133390000D01*
X125707384Y-133390000D01*
X125688713Y-133388223D01*
X125680140Y-133386576D01*
X125642553Y-133379358D01*
X125607869Y-133365526D01*
X125576353Y-133345361D01*
X125549258Y-133319665D01*
X125521863Y-133281465D01*
X125512428Y-133265261D01*
X125014948Y-132187387D01*
X125007978Y-132166383D01*
X124996564Y-132112407D01*
X124997250Y-132068432D01*
X125010345Y-132014836D01*
X125017966Y-131994065D01*
X125508558Y-131012884D01*
X125524022Y-130990380D01*
X125569488Y-130940630D01*
X125615513Y-130912184D01*
X125646358Y-130903422D01*
X125680345Y-130893768D01*
X125707397Y-130890000D01*
X127032603Y-130890000D01*
X127059656Y-130893768D01*
G37*
G04 #@! TD.AperFunction*
G04 #@! TA.AperFunction,Conductor*
G36*
X126980624Y-70800080D02*
G01*
X126984725Y-70800227D01*
X126995486Y-70800613D01*
X127004378Y-70801254D01*
X127019181Y-70802857D01*
X127023591Y-70803414D01*
X141932000Y-72961210D01*
X141953487Y-72966308D01*
X142022756Y-72989426D01*
X142061355Y-73010538D01*
X142109417Y-73049315D01*
X142138216Y-73082582D01*
X142169708Y-73135700D01*
X142185077Y-73176935D01*
X142198032Y-73248789D01*
X142200000Y-73270791D01*
X142200000Y-75887789D01*
X142197617Y-75911980D01*
X142181976Y-75990612D01*
X142163462Y-76035311D01*
X142125836Y-76091623D01*
X142091623Y-76125836D01*
X142035311Y-76163462D01*
X141990612Y-76181976D01*
X141911980Y-76197617D01*
X141887789Y-76200000D01*
X124112211Y-76200000D01*
X124088020Y-76197617D01*
X124009387Y-76181976D01*
X123964689Y-76163462D01*
X123908373Y-76125833D01*
X123874166Y-76091626D01*
X123836535Y-76035308D01*
X123818024Y-75990618D01*
X123802381Y-75911971D01*
X123800000Y-75887789D01*
X123800000Y-72140301D01*
X123819685Y-72073262D01*
X123862940Y-72035780D01*
X123861985Y-72034351D01*
X123872139Y-72027566D01*
X123872140Y-72027566D01*
X123955001Y-71972201D01*
X124010366Y-71889340D01*
X124024900Y-71816274D01*
X124024900Y-70924000D01*
X124044585Y-70856961D01*
X124097389Y-70811206D01*
X124148900Y-70800000D01*
X126976177Y-70800000D01*
X126980624Y-70800080D01*
G37*
G04 #@! TD.AperFunction*
G04 #@! TA.AperFunction,Conductor*
G36*
X130681617Y-120593482D02*
G01*
X130708637Y-120640282D01*
X130709033Y-120665243D01*
X130701407Y-120718282D01*
X130721888Y-120860737D01*
X130781676Y-120991654D01*
X130781677Y-120991655D01*
X130818204Y-121033810D01*
X130831741Y-121069242D01*
X130848761Y-121086262D01*
X130868597Y-121093482D01*
X130873630Y-121098435D01*
X130875925Y-121100423D01*
X130875926Y-121100425D01*
X130997001Y-121178235D01*
X131135093Y-121218782D01*
X131279014Y-121218782D01*
X131279015Y-121218782D01*
X131417107Y-121178235D01*
X131538182Y-121100425D01*
X131538185Y-121100420D01*
X131542452Y-121096725D01*
X131543782Y-121098260D01*
X131583814Y-121075992D01*
X131596291Y-121075000D01*
X133558500Y-121075000D01*
X133609280Y-121093482D01*
X133636300Y-121140282D01*
X133637500Y-121154000D01*
X133637500Y-125546000D01*
X133619018Y-125596780D01*
X133572218Y-125623800D01*
X133558500Y-125625000D01*
X132870073Y-125625000D01*
X132819293Y-125606518D01*
X132798212Y-125578818D01*
X132774377Y-125526627D01*
X132680128Y-125417857D01*
X132559053Y-125340047D01*
X132420961Y-125299500D01*
X132277039Y-125299500D01*
X132138947Y-125340047D01*
X132138946Y-125340047D01*
X132017871Y-125417857D01*
X131923622Y-125526627D01*
X131899788Y-125578818D01*
X131861881Y-125617331D01*
X131827927Y-125625000D01*
X131137500Y-125625000D01*
X131137500Y-125845944D01*
X131119018Y-125896724D01*
X131114361Y-125901805D01*
X131031283Y-125984883D01*
X131021158Y-125992171D01*
X131021612Y-125992772D01*
X131015771Y-125997182D01*
X130983830Y-126032218D01*
X130981318Y-126034849D01*
X130972185Y-126043982D01*
X130967826Y-126048343D01*
X130967824Y-126048344D01*
X130965250Y-126050920D01*
X130963961Y-126049631D01*
X130922735Y-126073726D01*
X130908606Y-126075000D01*
X128716500Y-126075000D01*
X128665720Y-126056518D01*
X128638700Y-126009718D01*
X128637500Y-125996000D01*
X128637500Y-125154000D01*
X128655982Y-125103220D01*
X128702782Y-125076200D01*
X128716500Y-125075000D01*
X129715010Y-125075000D01*
X129748397Y-125082402D01*
X129853458Y-125131393D01*
X129853459Y-125131393D01*
X129853461Y-125131394D01*
X129903637Y-125138000D01*
X132896362Y-125137999D01*
X132896363Y-125137999D01*
X132896363Y-125137998D01*
X132946539Y-125131394D01*
X133051603Y-125082401D01*
X133084990Y-125075000D01*
X133137500Y-125075000D01*
X133137500Y-125022490D01*
X133144902Y-124989103D01*
X133193893Y-124884042D01*
X133193893Y-124884041D01*
X133193894Y-124884039D01*
X133200500Y-124833863D01*
X133200499Y-121841138D01*
X133193894Y-121790961D01*
X133144902Y-121685896D01*
X133137500Y-121652509D01*
X133137500Y-121575000D01*
X133031378Y-121575000D01*
X132997991Y-121567598D01*
X132946541Y-121543606D01*
X132896365Y-121537000D01*
X129966500Y-121537000D01*
X129915720Y-121518518D01*
X129888700Y-121471718D01*
X129887500Y-121458000D01*
X129887500Y-120654000D01*
X129905982Y-120603220D01*
X129952782Y-120576200D01*
X129966500Y-120575000D01*
X130630837Y-120575000D01*
X130681617Y-120593482D01*
G37*
G04 #@! TD.AperFunction*
G04 #@! TA.AperFunction,Conductor*
G36*
X174711971Y-73102381D02*
G01*
X174752346Y-73110412D01*
X174797043Y-73128927D01*
X174820913Y-73144877D01*
X174855122Y-73179086D01*
X174871072Y-73202956D01*
X174889588Y-73247655D01*
X174897617Y-73288020D01*
X174900000Y-73312210D01*
X174900000Y-76187789D01*
X174897617Y-76211982D01*
X174889588Y-76252344D01*
X174871072Y-76297043D01*
X174855122Y-76320913D01*
X174820913Y-76355122D01*
X174797043Y-76371072D01*
X174752344Y-76389588D01*
X174735841Y-76392870D01*
X174711978Y-76397617D01*
X174687789Y-76400000D01*
X174118500Y-76400000D01*
X174051461Y-76380315D01*
X174032827Y-76358810D01*
X174030819Y-76360819D01*
X173994500Y-76324500D01*
X172605500Y-76324500D01*
X172605500Y-76530928D01*
X172620003Y-76603840D01*
X172620005Y-76603844D01*
X172675259Y-76686539D01*
X172744890Y-76733064D01*
X172789696Y-76786676D01*
X172800000Y-76836167D01*
X172800000Y-76963230D01*
X172780315Y-77030269D01*
X172744891Y-77066332D01*
X172674899Y-77113098D01*
X172665269Y-77127511D01*
X172653656Y-77144891D01*
X172600046Y-77189695D01*
X172550555Y-77200000D01*
X171905800Y-77200000D01*
X171838761Y-77180315D01*
X171793006Y-77127511D01*
X171781800Y-77076000D01*
X171781800Y-77050000D01*
X170974000Y-77050000D01*
X170906961Y-77030315D01*
X170905752Y-77028920D01*
X170900000Y-77000000D01*
X170900000Y-76105500D01*
X171350000Y-76105500D01*
X171350000Y-76550000D01*
X171781800Y-76550000D01*
X171781800Y-76330873D01*
X171781799Y-76330871D01*
X171767296Y-76257959D01*
X171767294Y-76257955D01*
X171712039Y-76175260D01*
X171629344Y-76120005D01*
X171629340Y-76120003D01*
X171556427Y-76105500D01*
X171350000Y-76105500D01*
X170900000Y-76105500D01*
X170900000Y-75824500D01*
X172605500Y-75824500D01*
X173050000Y-75824500D01*
X173050000Y-75392700D01*
X173550000Y-75392700D01*
X173550000Y-75824500D01*
X173994500Y-75824500D01*
X173994500Y-75618073D01*
X173994499Y-75618071D01*
X173979996Y-75545159D01*
X173979994Y-75545155D01*
X173924739Y-75462460D01*
X173842044Y-75407205D01*
X173842040Y-75407203D01*
X173769127Y-75392700D01*
X173550000Y-75392700D01*
X173050000Y-75392700D01*
X172830873Y-75392700D01*
X172757959Y-75407203D01*
X172757955Y-75407205D01*
X172675260Y-75462460D01*
X172620005Y-75545155D01*
X172620003Y-75545159D01*
X172605500Y-75618071D01*
X172605500Y-75824500D01*
X170900000Y-75824500D01*
X170900000Y-75672500D01*
X170919685Y-75605461D01*
X170972489Y-75559706D01*
X171024000Y-75548500D01*
X171099000Y-75548500D01*
X171099000Y-74850000D01*
X171599000Y-74850000D01*
X171599000Y-75548500D01*
X171907026Y-75548500D01*
X171907028Y-75548499D01*
X171979940Y-75533996D01*
X171979944Y-75533994D01*
X172062639Y-75478739D01*
X172117894Y-75396044D01*
X172117896Y-75396040D01*
X172132399Y-75323128D01*
X172132400Y-75323126D01*
X172132400Y-74850000D01*
X171599000Y-74850000D01*
X171099000Y-74850000D01*
X171099000Y-73651500D01*
X171599000Y-73651500D01*
X171599000Y-74350000D01*
X172132400Y-74350000D01*
X172132400Y-73876873D01*
X172132399Y-73876871D01*
X172117896Y-73803959D01*
X172117894Y-73803955D01*
X172062639Y-73721260D01*
X171979944Y-73666005D01*
X171979940Y-73666003D01*
X171907027Y-73651500D01*
X171599000Y-73651500D01*
X171099000Y-73651500D01*
X171024000Y-73651500D01*
X170956961Y-73631815D01*
X170911206Y-73579011D01*
X170900000Y-73527500D01*
X170900000Y-73312210D01*
X170902381Y-73288029D01*
X170910412Y-73247651D01*
X170928927Y-73202956D01*
X170944877Y-73179086D01*
X170979086Y-73144877D01*
X171002956Y-73128927D01*
X171047653Y-73110412D01*
X171088027Y-73102381D01*
X171112211Y-73100000D01*
X174687789Y-73100000D01*
X174711971Y-73102381D01*
G37*
G04 #@! TD.AperFunction*
G04 #@! TA.AperFunction,Conductor*
G36*
X127539466Y-118701349D02*
G01*
X127553423Y-118703676D01*
X127579997Y-118708108D01*
X127610809Y-118718680D01*
X127646957Y-118738231D01*
X127660639Y-118747164D01*
X127932761Y-118958814D01*
X127941985Y-118966956D01*
X128470504Y-119495475D01*
X128498281Y-119549992D01*
X128499500Y-119565479D01*
X128499500Y-120312172D01*
X128499501Y-120312184D01*
X128514033Y-120385236D01*
X128514035Y-120385242D01*
X128569397Y-120468099D01*
X128569400Y-120468102D01*
X128622905Y-120503852D01*
X128652260Y-120523466D01*
X128707808Y-120534515D01*
X128725315Y-120537998D01*
X128725320Y-120537998D01*
X128725326Y-120538000D01*
X128725327Y-120538000D01*
X128874673Y-120538000D01*
X128874674Y-120538000D01*
X128947740Y-120523466D01*
X129030601Y-120468101D01*
X129085966Y-120385240D01*
X129100500Y-120312174D01*
X129100500Y-119602210D01*
X129119407Y-119544019D01*
X129168907Y-119508055D01*
X129230093Y-119508055D01*
X129279593Y-119544019D01*
X129296597Y-119582895D01*
X129297597Y-119587922D01*
X129299500Y-119607237D01*
X129299500Y-120368695D01*
X129297280Y-120382373D01*
X129298494Y-120382543D01*
X129297226Y-120391626D01*
X129299394Y-120438501D01*
X129299500Y-120443073D01*
X129299500Y-120461704D01*
X129299522Y-120461826D01*
X129301101Y-120475437D01*
X129302414Y-120503847D01*
X129302415Y-120503854D01*
X129306384Y-120512842D01*
X129313132Y-120534632D01*
X129314939Y-120544293D01*
X129323809Y-120558620D01*
X129329912Y-120568477D01*
X129336301Y-120580598D01*
X129347794Y-120606625D01*
X129354745Y-120613576D01*
X129368907Y-120631456D01*
X129374081Y-120639812D01*
X129396781Y-120656954D01*
X129407117Y-120665948D01*
X129608504Y-120867335D01*
X129636281Y-120921852D01*
X129637500Y-120937339D01*
X129637500Y-121701686D01*
X129628225Y-121743524D01*
X129606106Y-121790958D01*
X129606106Y-121790961D01*
X129599500Y-121841137D01*
X129599500Y-123321728D01*
X129599501Y-124770500D01*
X129580594Y-124828691D01*
X129531094Y-124864655D01*
X129500501Y-124869500D01*
X128736500Y-124869500D01*
X128678309Y-124850593D01*
X128642345Y-124801093D01*
X128637500Y-124770500D01*
X128637500Y-121100001D01*
X128637500Y-121100000D01*
X128622276Y-121023463D01*
X128578921Y-120958579D01*
X128578856Y-120958535D01*
X128570378Y-120952870D01*
X128543070Y-120925560D01*
X128530602Y-120906901D01*
X128530601Y-120906899D01*
X128489463Y-120879412D01*
X128447742Y-120851535D01*
X128447740Y-120851534D01*
X128447737Y-120851533D01*
X128447736Y-120851533D01*
X128374684Y-120837001D01*
X128374674Y-120837000D01*
X127550326Y-120837000D01*
X127550325Y-120837000D01*
X127550315Y-120837001D01*
X127477263Y-120851533D01*
X127477257Y-120851535D01*
X127429694Y-120883316D01*
X127374693Y-120900000D01*
X125309752Y-120900000D01*
X125290438Y-120898098D01*
X125274470Y-120894921D01*
X125242775Y-120888617D01*
X125207089Y-120873835D01*
X125197361Y-120867335D01*
X125174949Y-120852359D01*
X125147640Y-120825050D01*
X125126163Y-120792908D01*
X125111382Y-120757222D01*
X125101902Y-120709561D01*
X125100000Y-120690248D01*
X125100000Y-118909751D01*
X125101902Y-118890438D01*
X125111382Y-118842777D01*
X125126162Y-118807092D01*
X125147642Y-118774946D01*
X125174946Y-118747642D01*
X125207092Y-118726162D01*
X125242775Y-118711382D01*
X125268021Y-118706360D01*
X125290439Y-118701902D01*
X125309752Y-118700000D01*
X127523181Y-118700000D01*
X127539466Y-118701349D01*
G37*
G04 #@! TD.AperFunction*
G04 #@! TA.AperFunction,Conductor*
G36*
X159253027Y-129818907D02*
G01*
X159288991Y-129868407D01*
X159291934Y-129918314D01*
X159280300Y-129976799D01*
X159280300Y-130051299D01*
X159280301Y-130051300D01*
X161229699Y-130051300D01*
X161229700Y-130051299D01*
X161229700Y-129976802D01*
X161229699Y-129976799D01*
X161218066Y-129918314D01*
X161225258Y-129857553D01*
X161266790Y-129812623D01*
X161315164Y-129800000D01*
X167042302Y-129800000D01*
X167100493Y-129818907D01*
X167136457Y-129868407D01*
X167136457Y-129929593D01*
X167124617Y-129954002D01*
X167078203Y-130023463D01*
X167066600Y-130081799D01*
X167066600Y-130549999D01*
X167066601Y-130550000D01*
X167951000Y-130550000D01*
X168009191Y-130568907D01*
X168045155Y-130618407D01*
X168050000Y-130649000D01*
X168050000Y-130951000D01*
X168031093Y-131009191D01*
X167981593Y-131045155D01*
X167951000Y-131050000D01*
X167066601Y-131050000D01*
X167066600Y-131050001D01*
X167066600Y-131201000D01*
X167047693Y-131259191D01*
X166998193Y-131295155D01*
X166967600Y-131300000D01*
X166500900Y-131300000D01*
X166442709Y-131281093D01*
X166406745Y-131231593D01*
X166401900Y-131201000D01*
X166401900Y-131046601D01*
X166401899Y-131046600D01*
X164604899Y-131046600D01*
X164580372Y-131071127D01*
X164525855Y-131098904D01*
X164509751Y-131098587D01*
X164509751Y-131100000D01*
X157709752Y-131100000D01*
X157690438Y-131098098D01*
X157604508Y-131081005D01*
X157568821Y-131066223D01*
X157539454Y-131046601D01*
X157504238Y-131023070D01*
X157476929Y-130995761D01*
X157433775Y-130931177D01*
X157418994Y-130895491D01*
X157401902Y-130809562D01*
X157400000Y-130790248D01*
X157400000Y-130625800D01*
X159280300Y-130625800D01*
X159291903Y-130684136D01*
X159336106Y-130750289D01*
X159336110Y-130750293D01*
X159402263Y-130794496D01*
X159460599Y-130806099D01*
X159460603Y-130806100D01*
X160004999Y-130806100D01*
X160005000Y-130806099D01*
X160505000Y-130806099D01*
X160505001Y-130806100D01*
X161049397Y-130806100D01*
X161049400Y-130806099D01*
X161107736Y-130794496D01*
X161173889Y-130750293D01*
X161173893Y-130750289D01*
X161218096Y-130684136D01*
X161229699Y-130625800D01*
X161229700Y-130625797D01*
X161229700Y-130551301D01*
X161229699Y-130551300D01*
X160505001Y-130551300D01*
X160505000Y-130551301D01*
X160505000Y-130806099D01*
X160005000Y-130806099D01*
X160005000Y-130551301D01*
X160004999Y-130551300D01*
X159280301Y-130551300D01*
X159280300Y-130551301D01*
X159280300Y-130625800D01*
X157400000Y-130625800D01*
X157400000Y-130546599D01*
X164604900Y-130546599D01*
X164604901Y-130546600D01*
X165253399Y-130546600D01*
X165253400Y-130546599D01*
X165753400Y-130546599D01*
X165753401Y-130546600D01*
X166401899Y-130546600D01*
X166401900Y-130546599D01*
X166401900Y-130243502D01*
X166401899Y-130243499D01*
X166390296Y-130185163D01*
X166346093Y-130119010D01*
X166346089Y-130119006D01*
X166279936Y-130074803D01*
X166221600Y-130063200D01*
X165753401Y-130063200D01*
X165753400Y-130063201D01*
X165753400Y-130546599D01*
X165253400Y-130546599D01*
X165253400Y-130063201D01*
X165253399Y-130063200D01*
X164785199Y-130063200D01*
X164726863Y-130074803D01*
X164660710Y-130119006D01*
X164660706Y-130119010D01*
X164616503Y-130185163D01*
X164604900Y-130243499D01*
X164604900Y-130546599D01*
X157400000Y-130546599D01*
X157400000Y-130109751D01*
X157401902Y-130090437D01*
X157405012Y-130074803D01*
X157418994Y-130004506D01*
X157433774Y-129968824D01*
X157476931Y-129904235D01*
X157504235Y-129876931D01*
X157568824Y-129833774D01*
X157604507Y-129818994D01*
X157649341Y-129810076D01*
X157690439Y-129801902D01*
X157709752Y-129800000D01*
X159194836Y-129800000D01*
X159253027Y-129818907D01*
G37*
G04 #@! TD.AperFunction*
G04 #@! TA.AperFunction,Conductor*
G36*
X111307191Y-117963407D02*
G01*
X111343155Y-118012907D01*
X111348000Y-118043500D01*
X111348000Y-118138999D01*
X111348001Y-118139000D01*
X112677999Y-118139000D01*
X112678000Y-118138999D01*
X112678000Y-118043500D01*
X112696907Y-117985309D01*
X112746407Y-117949345D01*
X112777000Y-117944500D01*
X113106000Y-117944500D01*
X113164191Y-117963407D01*
X113200155Y-118012907D01*
X113205000Y-118043500D01*
X113205000Y-118105472D01*
X113205001Y-118105484D01*
X113219533Y-118178536D01*
X113219535Y-118178542D01*
X113274897Y-118261399D01*
X113274900Y-118261402D01*
X113357757Y-118316764D01*
X113357760Y-118316766D01*
X113413308Y-118327815D01*
X113430815Y-118331298D01*
X113430820Y-118331298D01*
X113430826Y-118331300D01*
X113430827Y-118331300D01*
X114369173Y-118331300D01*
X114369174Y-118331300D01*
X114442240Y-118316766D01*
X114525101Y-118261401D01*
X114580466Y-118178540D01*
X114595000Y-118105474D01*
X114595000Y-118098500D01*
X114613907Y-118040309D01*
X114663407Y-118004345D01*
X114694000Y-117999500D01*
X115056500Y-117999500D01*
X115114691Y-118018407D01*
X115150655Y-118067907D01*
X115155500Y-118098500D01*
X115155500Y-118249999D01*
X115155501Y-118250000D01*
X116444499Y-118250000D01*
X116444500Y-118249999D01*
X116444500Y-118098500D01*
X116463407Y-118040309D01*
X116512907Y-118004345D01*
X116543500Y-117999500D01*
X118394181Y-117999500D01*
X118452372Y-118018407D01*
X118464185Y-118028496D01*
X118971004Y-118535315D01*
X118998781Y-118589831D01*
X119000000Y-118605318D01*
X119000000Y-119890248D01*
X118998098Y-119909563D01*
X118981005Y-119995492D01*
X118966223Y-120031178D01*
X118923073Y-120095758D01*
X118895761Y-120123070D01*
X118881176Y-120132815D01*
X118826176Y-120149500D01*
X108646619Y-120149500D01*
X108626304Y-120147393D01*
X108614685Y-120144957D01*
X108595144Y-120147393D01*
X108584338Y-120148740D01*
X108572093Y-120149500D01*
X108570960Y-120149500D01*
X108551470Y-120152751D01*
X108547431Y-120153339D01*
X108498607Y-120159426D01*
X108491575Y-120161519D01*
X108484619Y-120163907D01*
X108441344Y-120187325D01*
X108437754Y-120189174D01*
X108436232Y-120189919D01*
X108392707Y-120200000D01*
X106491547Y-120200000D01*
X106433356Y-120181093D01*
X106397392Y-120131593D01*
X106394449Y-120081685D01*
X106402999Y-120038698D01*
X106403000Y-120038697D01*
X106403000Y-119809001D01*
X106402999Y-119809000D01*
X105362000Y-119809000D01*
X105303809Y-119790093D01*
X105300000Y-119784850D01*
X105300000Y-119583700D01*
X109448000Y-119583700D01*
X109459603Y-119642036D01*
X109503806Y-119708189D01*
X109503810Y-119708193D01*
X109569963Y-119752396D01*
X109628299Y-119763999D01*
X109628303Y-119764000D01*
X109862999Y-119764000D01*
X109863000Y-119763999D01*
X110363000Y-119763999D01*
X110363001Y-119764000D01*
X110597697Y-119764000D01*
X110597700Y-119763999D01*
X110656036Y-119752396D01*
X110657377Y-119751500D01*
X113255500Y-119751500D01*
X113267103Y-119809836D01*
X113311306Y-119875989D01*
X113311310Y-119875993D01*
X113377463Y-119920196D01*
X113435799Y-119931799D01*
X113435803Y-119931800D01*
X113649999Y-119931800D01*
X113650000Y-119931799D01*
X114150000Y-119931799D01*
X114150001Y-119931800D01*
X114364197Y-119931800D01*
X114364200Y-119931799D01*
X114422536Y-119920196D01*
X114488689Y-119875993D01*
X114488693Y-119875989D01*
X114532896Y-119809836D01*
X114544499Y-119751500D01*
X114544500Y-119751497D01*
X114544500Y-119550001D01*
X114544499Y-119550000D01*
X114150001Y-119550000D01*
X114150000Y-119550001D01*
X114150000Y-119931799D01*
X113650000Y-119931799D01*
X113650000Y-119550001D01*
X113649999Y-119550000D01*
X113255501Y-119550000D01*
X113255500Y-119550001D01*
X113255500Y-119751500D01*
X110657377Y-119751500D01*
X110722189Y-119708193D01*
X110722193Y-119708189D01*
X110766396Y-119642036D01*
X110777999Y-119583700D01*
X110778000Y-119583697D01*
X110778000Y-119369001D01*
X110777999Y-119369000D01*
X110363001Y-119369000D01*
X110363000Y-119369001D01*
X110363000Y-119763999D01*
X109863000Y-119763999D01*
X109863000Y-119369001D01*
X109862999Y-119369000D01*
X109448001Y-119369000D01*
X109448000Y-119369001D01*
X109448000Y-119583700D01*
X105300000Y-119583700D01*
X105300000Y-119318200D01*
X106988000Y-119318200D01*
X106999603Y-119376536D01*
X107043806Y-119442689D01*
X107043810Y-119442693D01*
X107109963Y-119486896D01*
X107168299Y-119498499D01*
X107168303Y-119498500D01*
X107662999Y-119498500D01*
X107663000Y-119498499D01*
X108163000Y-119498499D01*
X108163001Y-119498500D01*
X108657697Y-119498500D01*
X108657700Y-119498499D01*
X108716036Y-119486896D01*
X108782189Y-119442693D01*
X108782193Y-119442689D01*
X108826396Y-119376536D01*
X108837999Y-119318200D01*
X108838000Y-119318197D01*
X108838000Y-119073501D01*
X108837999Y-119073500D01*
X108163001Y-119073500D01*
X108163000Y-119073501D01*
X108163000Y-119498499D01*
X107663000Y-119498499D01*
X107663000Y-119073501D01*
X107662999Y-119073500D01*
X106988001Y-119073500D01*
X106988000Y-119073501D01*
X106988000Y-119318200D01*
X105300000Y-119318200D01*
X105300000Y-119308999D01*
X105763000Y-119308999D01*
X105763001Y-119309000D01*
X106402999Y-119309000D01*
X106403000Y-119308999D01*
X106403000Y-119079302D01*
X106402999Y-119079299D01*
X106397171Y-119049999D01*
X113255500Y-119049999D01*
X113255501Y-119050000D01*
X113649999Y-119050000D01*
X113650000Y-119049999D01*
X114150000Y-119049999D01*
X114150001Y-119050000D01*
X114544499Y-119050000D01*
X114544500Y-119049999D01*
X114544500Y-118951500D01*
X115155500Y-118951500D01*
X115167103Y-119009836D01*
X115211306Y-119075989D01*
X115211310Y-119075993D01*
X115277463Y-119120196D01*
X115335799Y-119131799D01*
X115335803Y-119131800D01*
X115549999Y-119131800D01*
X115550000Y-119131799D01*
X116050000Y-119131799D01*
X116050001Y-119131800D01*
X116264197Y-119131800D01*
X116264200Y-119131799D01*
X116322536Y-119120196D01*
X116388689Y-119075993D01*
X116388693Y-119075989D01*
X116432896Y-119009836D01*
X116444499Y-118951500D01*
X116444500Y-118951497D01*
X116444500Y-118750001D01*
X116444499Y-118750000D01*
X116050001Y-118750000D01*
X116050000Y-118750001D01*
X116050000Y-119131799D01*
X115550000Y-119131799D01*
X115550000Y-118750001D01*
X115549999Y-118750000D01*
X115155501Y-118750000D01*
X115155500Y-118750001D01*
X115155500Y-118951500D01*
X114544500Y-118951500D01*
X114544500Y-118848502D01*
X114544499Y-118848499D01*
X114532896Y-118790163D01*
X114488693Y-118724010D01*
X114488689Y-118724006D01*
X114422536Y-118679803D01*
X114364200Y-118668200D01*
X114150001Y-118668200D01*
X114150000Y-118668201D01*
X114150000Y-119049999D01*
X113650000Y-119049999D01*
X113650000Y-118668201D01*
X113649999Y-118668200D01*
X113435799Y-118668200D01*
X113377463Y-118679803D01*
X113311310Y-118724006D01*
X113311306Y-118724010D01*
X113267103Y-118790163D01*
X113255500Y-118848499D01*
X113255500Y-119049999D01*
X106397171Y-119049999D01*
X106391396Y-119020963D01*
X106347193Y-118954810D01*
X106347189Y-118954806D01*
X106281036Y-118910603D01*
X106222700Y-118899000D01*
X105763001Y-118899000D01*
X105763000Y-118899001D01*
X105763000Y-119308999D01*
X105300000Y-119308999D01*
X105300000Y-118868999D01*
X109448000Y-118868999D01*
X109448001Y-118869000D01*
X109862999Y-118869000D01*
X109863000Y-118868999D01*
X110363000Y-118868999D01*
X110363001Y-118869000D01*
X110777999Y-118869000D01*
X110778000Y-118868999D01*
X110778000Y-118853700D01*
X111348000Y-118853700D01*
X111359603Y-118912036D01*
X111403806Y-118978189D01*
X111403810Y-118978193D01*
X111469963Y-119022396D01*
X111528299Y-119033999D01*
X111528303Y-119034000D01*
X111762999Y-119034000D01*
X111763000Y-119033999D01*
X112263000Y-119033999D01*
X112263001Y-119034000D01*
X112497697Y-119034000D01*
X112497700Y-119033999D01*
X112556036Y-119022396D01*
X112622189Y-118978193D01*
X112622193Y-118978189D01*
X112666396Y-118912036D01*
X112677999Y-118853700D01*
X112678000Y-118853697D01*
X112678000Y-118639001D01*
X112677999Y-118639000D01*
X112263001Y-118639000D01*
X112263000Y-118639001D01*
X112263000Y-119033999D01*
X111763000Y-119033999D01*
X111763000Y-118639001D01*
X111762999Y-118639000D01*
X111348001Y-118639000D01*
X111348000Y-118639001D01*
X111348000Y-118853700D01*
X110778000Y-118853700D01*
X110778000Y-118654302D01*
X110777999Y-118654299D01*
X110766396Y-118595963D01*
X110722193Y-118529810D01*
X110722189Y-118529806D01*
X110656036Y-118485603D01*
X110597700Y-118474000D01*
X110363001Y-118474000D01*
X110363000Y-118474001D01*
X110363000Y-118868999D01*
X109863000Y-118868999D01*
X109863000Y-118474001D01*
X109862999Y-118474000D01*
X109628299Y-118474000D01*
X109569963Y-118485603D01*
X109503810Y-118529806D01*
X109503806Y-118529810D01*
X109459603Y-118595963D01*
X109448000Y-118654299D01*
X109448000Y-118868999D01*
X105300000Y-118868999D01*
X105300000Y-118573499D01*
X106988000Y-118573499D01*
X106988001Y-118573500D01*
X107662999Y-118573500D01*
X107663000Y-118573499D01*
X108163000Y-118573499D01*
X108163001Y-118573500D01*
X108837999Y-118573500D01*
X108838000Y-118573499D01*
X108838000Y-118328802D01*
X108837999Y-118328799D01*
X108826396Y-118270463D01*
X108782193Y-118204310D01*
X108782189Y-118204306D01*
X108716036Y-118160103D01*
X108657700Y-118148500D01*
X108163001Y-118148500D01*
X108163000Y-118148501D01*
X108163000Y-118573499D01*
X107663000Y-118573499D01*
X107663000Y-118148501D01*
X107662999Y-118148500D01*
X107168299Y-118148500D01*
X107109963Y-118160103D01*
X107043810Y-118204306D01*
X107043806Y-118204310D01*
X106999603Y-118270463D01*
X106988000Y-118328799D01*
X106988000Y-118573499D01*
X105300000Y-118573499D01*
X105300000Y-118458500D01*
X105318907Y-118400309D01*
X105368407Y-118364345D01*
X105399000Y-118359500D01*
X106227673Y-118359500D01*
X106227674Y-118359500D01*
X106300740Y-118344966D01*
X106383601Y-118289601D01*
X106438966Y-118206740D01*
X106453500Y-118133674D01*
X106453500Y-118048000D01*
X106472407Y-117989809D01*
X106521907Y-117953845D01*
X106552500Y-117949000D01*
X109298500Y-117949000D01*
X109356691Y-117967907D01*
X109392655Y-118017407D01*
X109396843Y-118043855D01*
X109397024Y-118043838D01*
X109397324Y-118046894D01*
X109397500Y-118048000D01*
X109397500Y-118048672D01*
X109397501Y-118048684D01*
X109412033Y-118121736D01*
X109412035Y-118121742D01*
X109467397Y-118204599D01*
X109467400Y-118204602D01*
X109550257Y-118259964D01*
X109550260Y-118259966D01*
X109603031Y-118270463D01*
X109623315Y-118274498D01*
X109623320Y-118274498D01*
X109623326Y-118274500D01*
X109623327Y-118274500D01*
X110602673Y-118274500D01*
X110602674Y-118274500D01*
X110675740Y-118259966D01*
X110758601Y-118204601D01*
X110813966Y-118121740D01*
X110828500Y-118048674D01*
X110828500Y-118043500D01*
X110847407Y-117985309D01*
X110896907Y-117949345D01*
X110927500Y-117944500D01*
X111249000Y-117944500D01*
X111307191Y-117963407D01*
G37*
G04 #@! TD.AperFunction*
G04 #@! TA.AperFunction,Conductor*
G36*
X114759191Y-126306907D02*
G01*
X114795155Y-126356407D01*
X114800000Y-126387000D01*
X114800000Y-126670047D01*
X114781093Y-126728238D01*
X114731593Y-126764202D01*
X114681685Y-126767145D01*
X114619122Y-126754700D01*
X114399999Y-126754700D01*
X114399998Y-126754701D01*
X114399998Y-127651000D01*
X114381091Y-127709191D01*
X114331591Y-127745155D01*
X114300998Y-127750000D01*
X113455499Y-127750000D01*
X113455498Y-127750001D01*
X113455498Y-127925659D01*
X113436591Y-127983850D01*
X113387091Y-128019814D01*
X113380159Y-128021769D01*
X113380070Y-128021814D01*
X113309058Y-128082494D01*
X113309057Y-128082495D01*
X113273346Y-128168806D01*
X113123155Y-129120016D01*
X113095403Y-129174546D01*
X113040900Y-129202350D01*
X113006053Y-129201674D01*
X112975529Y-129195602D01*
X112350001Y-129195602D01*
X112350000Y-129195603D01*
X112350000Y-129876002D01*
X112342203Y-129900000D01*
X111853801Y-129900000D01*
X111850000Y-129876002D01*
X111850000Y-129195603D01*
X111849999Y-129195602D01*
X111224470Y-129195602D01*
X111193946Y-129201674D01*
X111133185Y-129194482D01*
X111088255Y-129152949D01*
X111076845Y-129120019D01*
X110926654Y-128168807D01*
X110890942Y-128082494D01*
X110819928Y-128021813D01*
X110819926Y-128021812D01*
X110809485Y-128016491D01*
X110809969Y-128015541D01*
X110768210Y-127989941D01*
X110744806Y-127933409D01*
X110744502Y-127925659D01*
X110744502Y-127750001D01*
X110744501Y-127750000D01*
X109355503Y-127750000D01*
X109355502Y-127750001D01*
X109355502Y-127901000D01*
X109336595Y-127959191D01*
X109287095Y-127995155D01*
X109256502Y-128000000D01*
X107909752Y-128000000D01*
X107890438Y-127998098D01*
X107874470Y-127994921D01*
X107842775Y-127988617D01*
X107807089Y-127973835D01*
X107806330Y-127973328D01*
X107774949Y-127952359D01*
X107747640Y-127925050D01*
X107726163Y-127892908D01*
X107711382Y-127857222D01*
X107701902Y-127809561D01*
X107700000Y-127790248D01*
X107700000Y-127249999D01*
X109355502Y-127249999D01*
X109355503Y-127250000D01*
X109800001Y-127250000D01*
X109800002Y-127249999D01*
X110300002Y-127249999D01*
X110300003Y-127250000D01*
X110744501Y-127250000D01*
X110744502Y-127249999D01*
X113455498Y-127249999D01*
X113455499Y-127250000D01*
X113899997Y-127250000D01*
X113899998Y-127249999D01*
X113899998Y-126754701D01*
X113899997Y-126754700D01*
X113680873Y-126754700D01*
X113607951Y-126769206D01*
X113607949Y-126769207D01*
X113525260Y-126824458D01*
X113525256Y-126824462D01*
X113470005Y-126907151D01*
X113470004Y-126907153D01*
X113455498Y-126980075D01*
X113455498Y-127249999D01*
X110744502Y-127249999D01*
X110744502Y-126980077D01*
X110744501Y-126980075D01*
X110729995Y-126907153D01*
X110729994Y-126907151D01*
X110674743Y-126824462D01*
X110674739Y-126824458D01*
X110592050Y-126769207D01*
X110592048Y-126769206D01*
X110519126Y-126754700D01*
X110300003Y-126754700D01*
X110300002Y-126754701D01*
X110300002Y-127249999D01*
X109800002Y-127249999D01*
X109800002Y-126754701D01*
X109800001Y-126754700D01*
X109580877Y-126754700D01*
X109507955Y-126769206D01*
X109507953Y-126769207D01*
X109425264Y-126824458D01*
X109425260Y-126824462D01*
X109370009Y-126907151D01*
X109370008Y-126907153D01*
X109355502Y-126980075D01*
X109355502Y-127249999D01*
X107700000Y-127249999D01*
X107700000Y-126387000D01*
X107718907Y-126328809D01*
X107768407Y-126292845D01*
X107799000Y-126288000D01*
X114701000Y-126288000D01*
X114759191Y-126306907D01*
G37*
G04 #@! TD.AperFunction*
G04 #@! TA.AperFunction,Conductor*
G36*
X86970606Y-83994408D02*
G01*
X87152548Y-84023760D01*
X87164874Y-84026399D01*
X118596391Y-92447043D01*
X118656050Y-92483404D01*
X118669290Y-92500840D01*
X118670181Y-92502258D01*
X118670184Y-92502262D01*
X118697250Y-92529328D01*
X118706516Y-92539696D01*
X118730376Y-92569616D01*
X118730379Y-92569619D01*
X118730380Y-92569620D01*
X118752087Y-92586931D01*
X118760301Y-92593481D01*
X118770661Y-92602739D01*
X118797738Y-92629816D01*
X118830156Y-92650185D01*
X118841483Y-92658222D01*
X118871413Y-92682091D01*
X118871415Y-92682092D01*
X118871414Y-92682092D01*
X118905894Y-92698696D01*
X118918067Y-92705424D01*
X118931757Y-92714026D01*
X118950478Y-92725789D01*
X118975506Y-92734546D01*
X118986606Y-92738431D01*
X118999450Y-92743750D01*
X119030514Y-92758710D01*
X119033941Y-92760361D01*
X119071249Y-92768876D01*
X119084612Y-92772725D01*
X119120742Y-92785367D01*
X119120745Y-92785368D01*
X119158790Y-92789654D01*
X119172479Y-92791980D01*
X119209806Y-92800500D01*
X119248085Y-92800500D01*
X119261969Y-92801280D01*
X119299998Y-92805565D01*
X119300000Y-92805565D01*
X119300002Y-92805565D01*
X119338031Y-92801280D01*
X119351915Y-92800500D01*
X119390194Y-92800500D01*
X119427517Y-92791981D01*
X119441211Y-92789654D01*
X119479255Y-92785368D01*
X119515392Y-92772722D01*
X119528726Y-92768881D01*
X119566061Y-92760360D01*
X119596043Y-92745920D01*
X119664984Y-92734568D01*
X119681912Y-92737859D01*
X119705625Y-92744212D01*
X119747840Y-92764719D01*
X119779466Y-92788394D01*
X119779470Y-92788397D01*
X119914316Y-92838691D01*
X119940219Y-92841475D01*
X119973927Y-92845100D01*
X120065889Y-92845099D01*
X120097966Y-92849322D01*
X122145776Y-93397939D01*
X122156863Y-93401477D01*
X122316731Y-93460913D01*
X122337721Y-93471055D01*
X122478599Y-93556330D01*
X122497327Y-93570231D01*
X122619737Y-93680373D01*
X122635531Y-93697535D01*
X122735150Y-93828649D01*
X122747452Y-93848466D01*
X122820757Y-93995921D01*
X122829130Y-94017690D01*
X122873524Y-94176258D01*
X122877671Y-94199209D01*
X122892084Y-94369136D01*
X122892522Y-94380803D01*
X122859743Y-97803516D01*
X122859038Y-97815591D01*
X122840145Y-97991233D01*
X122835233Y-98014889D01*
X122784451Y-98177722D01*
X122775045Y-98199976D01*
X122693651Y-98349870D01*
X122680108Y-98369878D01*
X122571193Y-98501144D01*
X122554027Y-98518146D01*
X122421729Y-98625795D01*
X122401593Y-98639146D01*
X122250920Y-98719104D01*
X122228576Y-98728296D01*
X122065267Y-98777515D01*
X122041566Y-98782200D01*
X121883992Y-98797625D01*
X121865757Y-98799410D01*
X121853678Y-98800000D01*
X86906093Y-98800000D01*
X86893939Y-98799403D01*
X86717065Y-98781982D01*
X86693224Y-98777240D01*
X86529001Y-98727424D01*
X86506544Y-98718122D01*
X86355201Y-98637227D01*
X86334990Y-98623722D01*
X86245835Y-98550554D01*
X86206501Y-98492808D01*
X86200500Y-98454701D01*
X86200500Y-92450001D01*
X94944773Y-92450001D01*
X94963657Y-92714027D01*
X94963658Y-92714034D01*
X95019921Y-92972673D01*
X95112426Y-93220690D01*
X95112428Y-93220694D01*
X95239280Y-93453005D01*
X95239285Y-93453013D01*
X95397906Y-93664907D01*
X95397922Y-93664925D01*
X95585074Y-93852077D01*
X95585092Y-93852093D01*
X95796986Y-94010714D01*
X95796994Y-94010719D01*
X96029305Y-94137571D01*
X96029309Y-94137573D01*
X96029311Y-94137574D01*
X96277322Y-94230077D01*
X96277325Y-94230077D01*
X96277326Y-94230078D01*
X96472552Y-94272546D01*
X96535974Y-94286343D01*
X96779660Y-94303772D01*
X96799999Y-94305227D01*
X96800000Y-94305227D01*
X96800001Y-94305227D01*
X96818885Y-94303876D01*
X97064026Y-94286343D01*
X97322678Y-94230077D01*
X97570689Y-94137574D01*
X97803011Y-94010716D01*
X98014915Y-93852087D01*
X98202087Y-93664915D01*
X98360716Y-93453011D01*
X98487574Y-93220689D01*
X98580077Y-92972678D01*
X98636343Y-92714026D01*
X98655227Y-92450000D01*
X98653695Y-92428587D01*
X98638916Y-92221953D01*
X98636343Y-92185974D01*
X98580077Y-91927322D01*
X98487574Y-91679311D01*
X98360716Y-91446989D01*
X98303221Y-91370184D01*
X98202093Y-91235092D01*
X98202077Y-91235074D01*
X98014925Y-91047922D01*
X98014907Y-91047906D01*
X97803013Y-90889285D01*
X97803005Y-90889280D01*
X97570694Y-90762428D01*
X97570690Y-90762426D01*
X97322673Y-90669921D01*
X97064034Y-90613658D01*
X97064027Y-90613657D01*
X96800001Y-90594773D01*
X96799999Y-90594773D01*
X96535972Y-90613657D01*
X96535965Y-90613658D01*
X96277326Y-90669921D01*
X96029309Y-90762426D01*
X96029305Y-90762428D01*
X95796994Y-90889280D01*
X95796986Y-90889285D01*
X95585092Y-91047906D01*
X95585074Y-91047922D01*
X95397922Y-91235074D01*
X95397906Y-91235092D01*
X95239285Y-91446986D01*
X95239280Y-91446994D01*
X95112428Y-91679305D01*
X95112426Y-91679309D01*
X95019921Y-91927326D01*
X94963658Y-92185965D01*
X94963657Y-92185972D01*
X94944773Y-92449998D01*
X94944773Y-92450001D01*
X86200500Y-92450001D01*
X86200500Y-84334652D01*
X86220185Y-84267613D01*
X86249009Y-84236280D01*
X86364956Y-84147307D01*
X86386394Y-84134083D01*
X86546561Y-84056534D01*
X86570233Y-84047918D01*
X86742753Y-84004366D01*
X86767690Y-84000712D01*
X86945462Y-83992944D01*
X86970606Y-83994408D01*
G37*
G04 #@! TD.AperFunction*
G04 #@! TA.AperFunction,Conductor*
G36*
X130615600Y-130019962D02*
G01*
X130670138Y-130074500D01*
X130690100Y-130149000D01*
X130690100Y-130414468D01*
X130700026Y-130482593D01*
X130700026Y-130482594D01*
X130751400Y-130587681D01*
X130782460Y-130618741D01*
X130821024Y-130685536D01*
X130821024Y-130762664D01*
X130782460Y-130829459D01*
X130751401Y-130860517D01*
X130751400Y-130860518D01*
X130700026Y-130965605D01*
X130700026Y-130965606D01*
X130690100Y-131033731D01*
X130690100Y-132116268D01*
X130700026Y-132184391D01*
X130739696Y-132265538D01*
X130754481Y-132341236D01*
X130729438Y-132414185D01*
X130671275Y-132464839D01*
X130627321Y-132478421D01*
X130586105Y-132484427D01*
X130481018Y-132535800D01*
X130481017Y-132535801D01*
X130389572Y-132627247D01*
X130388723Y-132626398D01*
X130338769Y-132667533D01*
X130262692Y-132680222D01*
X130194272Y-132655805D01*
X130165535Y-132636604D01*
X130107198Y-132625000D01*
X129687500Y-132625000D01*
X129687500Y-134525000D01*
X130107198Y-134525000D01*
X130165536Y-134513395D01*
X130194270Y-134494196D01*
X130267304Y-134469402D01*
X130342951Y-134484448D01*
X130388859Y-134523465D01*
X130389572Y-134522753D01*
X130465874Y-134599055D01*
X130504438Y-134665850D01*
X130504438Y-134742978D01*
X130465874Y-134809773D01*
X130440527Y-134827870D01*
X130441066Y-134828625D01*
X130431017Y-134835799D01*
X130348300Y-134918516D01*
X130296926Y-135023603D01*
X130296926Y-135023604D01*
X130287000Y-135091729D01*
X130287000Y-136258266D01*
X130296926Y-136326391D01*
X130296926Y-136326392D01*
X130348300Y-136431479D01*
X130412294Y-136495473D01*
X130450858Y-136562268D01*
X130450858Y-136632350D01*
X130451967Y-136632571D01*
X130450858Y-136638146D01*
X130450858Y-136639396D01*
X130450257Y-136641167D01*
X130437500Y-136705301D01*
X130437500Y-137025000D01*
X131438500Y-137025000D01*
X131513000Y-137044962D01*
X131567538Y-137099500D01*
X131587500Y-137174000D01*
X131587500Y-138025000D01*
X132057198Y-138025000D01*
X132115535Y-138013395D01*
X132181691Y-137969192D01*
X132232426Y-137893261D01*
X132290414Y-137842407D01*
X132366060Y-137827359D01*
X132439095Y-137852150D01*
X132489949Y-137910138D01*
X132494207Y-137920830D01*
X132548300Y-138031481D01*
X132631018Y-138114199D01*
X132736105Y-138165573D01*
X132804231Y-138175499D01*
X132804237Y-138175499D01*
X132804240Y-138175500D01*
X132804241Y-138175500D01*
X134270759Y-138175500D01*
X134270760Y-138175500D01*
X134270763Y-138175499D01*
X134270768Y-138175499D01*
X134338893Y-138165573D01*
X134338894Y-138165573D01*
X134443981Y-138114199D01*
X134443981Y-138114198D01*
X134443983Y-138114198D01*
X134526698Y-138031483D01*
X134557150Y-137969192D01*
X134578073Y-137926394D01*
X134578073Y-137926393D01*
X134587999Y-137858268D01*
X134588000Y-137858258D01*
X134588000Y-136691741D01*
X134587999Y-136691731D01*
X134578073Y-136623606D01*
X134578073Y-136623605D01*
X134526699Y-136518518D01*
X134462705Y-136454524D01*
X134424141Y-136387729D01*
X134424141Y-136317647D01*
X134423033Y-136317427D01*
X134424141Y-136311856D01*
X134424141Y-136310601D01*
X134424744Y-136308824D01*
X134437500Y-136244696D01*
X134437500Y-135924998D01*
X133436500Y-135924998D01*
X133362000Y-135905036D01*
X133307462Y-135850498D01*
X133287500Y-135775998D01*
X133287500Y-135573998D01*
X133307462Y-135499498D01*
X133362000Y-135444960D01*
X133436500Y-135424998D01*
X134437500Y-135424998D01*
X134437500Y-135105299D01*
X134425895Y-135046962D01*
X134381692Y-134980806D01*
X134381691Y-134980805D01*
X134315534Y-134936601D01*
X134306211Y-134932739D01*
X134245022Y-134885786D01*
X134215507Y-134814528D01*
X134225576Y-134738060D01*
X134272529Y-134676871D01*
X134297789Y-134661223D01*
X134393983Y-134614198D01*
X134476698Y-134531483D01*
X134476698Y-134531482D01*
X134485428Y-134522753D01*
X134486277Y-134523602D01*
X134536215Y-134482473D01*
X134612291Y-134469775D01*
X134680728Y-134494195D01*
X134709463Y-134513395D01*
X134767802Y-134525000D01*
X135187500Y-134525000D01*
X135187500Y-132625000D01*
X134767802Y-132625000D01*
X134709464Y-132636603D01*
X134680726Y-132655806D01*
X134607691Y-132680597D01*
X134532045Y-132665549D01*
X134486140Y-132626534D01*
X134485428Y-132627247D01*
X134393981Y-132535800D01*
X134288894Y-132484426D01*
X134220768Y-132474500D01*
X134220760Y-132474500D01*
X133599500Y-132474500D01*
X133525000Y-132454538D01*
X133470462Y-132400000D01*
X133450500Y-132325500D01*
X133450500Y-130149000D01*
X133470462Y-130074500D01*
X133525000Y-130019962D01*
X133599500Y-130000000D01*
X134279439Y-130000000D01*
X134299184Y-130001314D01*
X134400959Y-130014921D01*
X134439057Y-130025292D01*
X134524472Y-130061277D01*
X134558503Y-130081291D01*
X134635788Y-130141836D01*
X134639336Y-130144616D01*
X134654069Y-130157827D01*
X135415409Y-130937737D01*
X136401073Y-131947441D01*
X136413566Y-131962008D01*
X136473404Y-132041634D01*
X136492288Y-132074956D01*
X136526196Y-132158232D01*
X136535961Y-132195270D01*
X136548264Y-132290191D01*
X136549500Y-132309343D01*
X136549500Y-132665254D01*
X136529538Y-132739754D01*
X136475000Y-132794292D01*
X136400500Y-132814254D01*
X136326000Y-132794292D01*
X136276611Y-132748034D01*
X136231692Y-132680808D01*
X136231691Y-132680807D01*
X136165535Y-132636604D01*
X136107198Y-132625000D01*
X135687500Y-132625000D01*
X135687500Y-134525000D01*
X136107198Y-134525000D01*
X136165535Y-134513395D01*
X136231691Y-134469192D01*
X136276610Y-134401966D01*
X136334598Y-134351111D01*
X136410244Y-134336064D01*
X136483279Y-134360855D01*
X136534134Y-134418843D01*
X136549500Y-134484745D01*
X136549500Y-137841672D01*
X136547724Y-137864609D01*
X136529877Y-137979163D01*
X136515922Y-138022863D01*
X136502623Y-138049460D01*
X136474713Y-138088182D01*
X136209074Y-138353821D01*
X136193115Y-138367662D01*
X133294227Y-140541829D01*
X133276758Y-140553116D01*
X133182293Y-140605190D01*
X133143517Y-140619967D01*
X133048617Y-140641627D01*
X133007271Y-140645138D01*
X132910074Y-140639787D01*
X132869363Y-140631758D01*
X132777413Y-140599810D01*
X132740496Y-140580868D01*
X132685088Y-140541829D01*
X132652307Y-140518732D01*
X132636192Y-140505602D01*
X129932544Y-137969191D01*
X129459066Y-137525000D01*
X130437500Y-137525000D01*
X130437500Y-137844698D01*
X130449104Y-137903035D01*
X130493307Y-137969191D01*
X130493308Y-137969192D01*
X130559464Y-138013395D01*
X130617802Y-138025000D01*
X131087500Y-138025000D01*
X131087500Y-137525000D01*
X130437500Y-137525000D01*
X129459066Y-137525000D01*
X128269634Y-136409141D01*
X128255524Y-136393923D01*
X128188017Y-136310086D01*
X128166783Y-136274542D01*
X128129035Y-136185043D01*
X128118402Y-136145030D01*
X128105480Y-136038174D01*
X128104429Y-136017449D01*
X128115714Y-135424998D01*
X128146190Y-133825000D01*
X128587500Y-133825000D01*
X128587500Y-134344698D01*
X128599104Y-134403035D01*
X128643307Y-134469191D01*
X128643308Y-134469192D01*
X128709464Y-134513395D01*
X128767802Y-134525000D01*
X129187500Y-134525000D01*
X129187500Y-133825000D01*
X128587500Y-133825000D01*
X128146190Y-133825000D01*
X128155714Y-133325000D01*
X128587500Y-133325000D01*
X129187500Y-133325000D01*
X129187500Y-132625000D01*
X128767802Y-132625000D01*
X128709464Y-132636604D01*
X128643308Y-132680807D01*
X128643307Y-132680808D01*
X128599104Y-132746964D01*
X128587500Y-132805301D01*
X128587500Y-133325000D01*
X128155714Y-133325000D01*
X128194333Y-131297503D01*
X128195971Y-131278140D01*
X128211012Y-131178363D01*
X128221741Y-131141082D01*
X128258113Y-131057581D01*
X128278107Y-131024328D01*
X128334806Y-130953047D01*
X128362708Y-130926087D01*
X128442822Y-130866726D01*
X128509320Y-130839110D01*
X128534287Y-130835348D01*
X128534294Y-130835344D01*
X128542461Y-130832825D01*
X128550468Y-130830024D01*
X128550468Y-130830023D01*
X128550472Y-130830023D01*
X128600642Y-130803505D01*
X128605548Y-130801029D01*
X128656642Y-130776425D01*
X128656644Y-130776422D01*
X128663695Y-130771616D01*
X128670535Y-130766568D01*
X128670535Y-130766567D01*
X128670538Y-130766566D01*
X128710651Y-130726451D01*
X128714640Y-130722610D01*
X128724313Y-130713635D01*
X128753287Y-130692617D01*
X129878484Y-130067508D01*
X129895510Y-130059415D01*
X129986514Y-130023033D01*
X130022976Y-130013585D01*
X130099578Y-130003821D01*
X130120181Y-130001196D01*
X130139019Y-130000000D01*
X130541100Y-130000000D01*
X130615600Y-130019962D01*
G37*
G04 #@! TD.AperFunction*
G04 #@! TA.AperFunction,Conductor*
G36*
X183809561Y-113601902D02*
G01*
X183857222Y-113611382D01*
X183892908Y-113626163D01*
X183925050Y-113647640D01*
X183952359Y-113674949D01*
X183973328Y-113706330D01*
X183973835Y-113707089D01*
X183988616Y-113742775D01*
X183998097Y-113790436D01*
X184000000Y-113809751D01*
X184000000Y-119090248D01*
X183998097Y-119109563D01*
X183988616Y-119157224D01*
X183973835Y-119192910D01*
X183952362Y-119225047D01*
X183925047Y-119252362D01*
X183892910Y-119273835D01*
X183857224Y-119288616D01*
X183809563Y-119298097D01*
X183790248Y-119300000D01*
X179494010Y-119300000D01*
X179435819Y-119281093D01*
X179411695Y-119256002D01*
X179391011Y-119225047D01*
X179364552Y-119185448D01*
X179364548Y-119185445D01*
X179298233Y-119141134D01*
X179298231Y-119141133D01*
X179298228Y-119141132D01*
X179298227Y-119141132D01*
X179239758Y-119129501D01*
X179239748Y-119129500D01*
X179239747Y-119129500D01*
X177999000Y-119129500D01*
X177940809Y-119110593D01*
X177904845Y-119061093D01*
X177900000Y-119030500D01*
X177900000Y-118619255D01*
X177918907Y-118561064D01*
X177968407Y-118525100D01*
X178018314Y-118522158D01*
X178035365Y-118525549D01*
X178060244Y-118530499D01*
X178060250Y-118530499D01*
X178060252Y-118530500D01*
X178060253Y-118530500D01*
X179239747Y-118530500D01*
X179239748Y-118530500D01*
X179298231Y-118518867D01*
X179330680Y-118497185D01*
X179385682Y-118480500D01*
X179554836Y-118480500D01*
X179568511Y-118482732D01*
X179568683Y-118481506D01*
X179577764Y-118482772D01*
X179577765Y-118482773D01*
X179577765Y-118482772D01*
X179577766Y-118482773D01*
X179624642Y-118480606D01*
X179629214Y-118480500D01*
X179647842Y-118480500D01*
X179647844Y-118480500D01*
X179647948Y-118480480D01*
X179661571Y-118478898D01*
X179689992Y-118477585D01*
X179698976Y-118473617D01*
X179720777Y-118466865D01*
X179730433Y-118465061D01*
X179754618Y-118450086D01*
X179766728Y-118443701D01*
X179792765Y-118432206D01*
X179799709Y-118425260D01*
X179817601Y-118411089D01*
X179825952Y-118405919D01*
X179843089Y-118383223D01*
X179852082Y-118372887D01*
X180495474Y-117729496D01*
X180549991Y-117701719D01*
X180565478Y-117700500D01*
X180671959Y-117700500D01*
X180671961Y-117700500D01*
X180810053Y-117659953D01*
X180931128Y-117582143D01*
X181025377Y-117473373D01*
X181085165Y-117342457D01*
X181101744Y-117227146D01*
X181105647Y-117200002D01*
X181105647Y-117199998D01*
X181101008Y-117167733D01*
X181100000Y-117153644D01*
X181100000Y-115946354D01*
X181101008Y-115932264D01*
X181105647Y-115900001D01*
X181105647Y-115899997D01*
X181085165Y-115757543D01*
X181025377Y-115626628D01*
X181025377Y-115626627D01*
X180931128Y-115517857D01*
X180931127Y-115517856D01*
X180931126Y-115517855D01*
X180810057Y-115440049D01*
X180810054Y-115440047D01*
X180810053Y-115440047D01*
X180810050Y-115440046D01*
X180671964Y-115399500D01*
X180671961Y-115399500D01*
X180565479Y-115399500D01*
X180507288Y-115380593D01*
X180495475Y-115370504D01*
X180138565Y-115013594D01*
X180130479Y-115002344D01*
X180129487Y-115003094D01*
X180123958Y-114995772D01*
X180089272Y-114964151D01*
X180085968Y-114960996D01*
X180072800Y-114947828D01*
X180072796Y-114947825D01*
X180072693Y-114947755D01*
X180061962Y-114939255D01*
X180040933Y-114920084D01*
X180031762Y-114916531D01*
X180011586Y-114905895D01*
X180003484Y-114900345D01*
X180003479Y-114900343D01*
X179975797Y-114893832D01*
X179962703Y-114889777D01*
X179936177Y-114879500D01*
X179936173Y-114879500D01*
X179926348Y-114879500D01*
X179903683Y-114876870D01*
X179894119Y-114874621D01*
X179894118Y-114874621D01*
X179865946Y-114878551D01*
X179852269Y-114879500D01*
X179519500Y-114879500D01*
X179461309Y-114860593D01*
X179425345Y-114811093D01*
X179420500Y-114780500D01*
X179420500Y-114510253D01*
X179420498Y-114510241D01*
X179417711Y-114496231D01*
X179408867Y-114451769D01*
X179364552Y-114385448D01*
X179364548Y-114385445D01*
X179298233Y-114341134D01*
X179298231Y-114341133D01*
X179298228Y-114341132D01*
X179298227Y-114341132D01*
X179239758Y-114329501D01*
X179239748Y-114329500D01*
X178060252Y-114329500D01*
X178060249Y-114329500D01*
X178018314Y-114337842D01*
X177957553Y-114330650D01*
X177912623Y-114289118D01*
X177900000Y-114240744D01*
X177900000Y-113829500D01*
X177918907Y-113771309D01*
X177968407Y-113735345D01*
X177999000Y-113730500D01*
X179239747Y-113730500D01*
X179239748Y-113730500D01*
X179298231Y-113718867D01*
X179364552Y-113674552D01*
X179384968Y-113643998D01*
X179433018Y-113606119D01*
X179467283Y-113600000D01*
X183790248Y-113600000D01*
X183809561Y-113601902D01*
G37*
G04 #@! TD.AperFunction*
G04 #@! TA.AperFunction,Conductor*
G36*
X150709561Y-61001902D02*
G01*
X150757222Y-61011382D01*
X150792908Y-61026163D01*
X150825050Y-61047640D01*
X150852359Y-61074949D01*
X150873328Y-61106330D01*
X150873835Y-61107089D01*
X150888616Y-61142775D01*
X150898097Y-61190436D01*
X150900000Y-61209751D01*
X150900000Y-67790248D01*
X150898097Y-67809563D01*
X150888616Y-67857224D01*
X150873835Y-67892910D01*
X150852362Y-67925047D01*
X150825047Y-67952362D01*
X150792910Y-67973835D01*
X150757224Y-67988616D01*
X150709563Y-67998097D01*
X150690248Y-68000000D01*
X131025000Y-68000000D01*
X130962500Y-68016747D01*
X130916745Y-68062502D01*
X130914399Y-68071261D01*
X130881075Y-68122575D01*
X130823953Y-68144501D01*
X130817029Y-68144411D01*
X130817029Y-68144500D01*
X130813139Y-68144500D01*
X130171085Y-68144500D01*
X130146045Y-68145730D01*
X130146030Y-68145731D01*
X130129879Y-68147322D01*
X130120177Y-68147799D01*
X128679823Y-68147799D01*
X128670121Y-68147322D01*
X128653969Y-68145731D01*
X128653957Y-68145730D01*
X128653955Y-68145730D01*
X128628915Y-68144500D01*
X128628907Y-68144500D01*
X123075847Y-68144500D01*
X123017656Y-68125593D01*
X122981692Y-68076093D01*
X122976847Y-68045500D01*
X122976847Y-67117627D01*
X122995754Y-67059436D01*
X123045254Y-67023472D01*
X123075291Y-67018629D01*
X126312393Y-67000491D01*
X126392545Y-66983236D01*
X126459039Y-66935272D01*
X131806172Y-61072842D01*
X131821501Y-61059196D01*
X131851265Y-61037790D01*
X131863184Y-61029219D01*
X131900558Y-61012723D01*
X131950785Y-61002131D01*
X131971213Y-61000000D01*
X150690248Y-61000000D01*
X150709561Y-61001902D01*
G37*
G04 #@! TD.AperFunction*
G04 #@! TA.AperFunction,Conductor*
G36*
X176665677Y-133519685D02*
G01*
X176686319Y-133536319D01*
X176700000Y-133550000D01*
X179800000Y-133550000D01*
X179813681Y-133536319D01*
X179875004Y-133502834D01*
X179901362Y-133500000D01*
X184391874Y-133500000D01*
X184408059Y-133501061D01*
X184513223Y-133514906D01*
X184544491Y-133523284D01*
X184634918Y-133560740D01*
X184662952Y-133576925D01*
X184740602Y-133636509D01*
X184763491Y-133659398D01*
X184823074Y-133737048D01*
X184839259Y-133765081D01*
X184876715Y-133855508D01*
X184885093Y-133886775D01*
X184898939Y-133991939D01*
X184900000Y-134008125D01*
X184900000Y-136977928D01*
X184880315Y-137044967D01*
X184827511Y-137090722D01*
X184758353Y-137100666D01*
X184707110Y-137081031D01*
X184678033Y-137061603D01*
X184678033Y-137061602D01*
X184619702Y-137050000D01*
X182950000Y-137050000D01*
X182950000Y-138276000D01*
X182930315Y-138343039D01*
X182877511Y-138388794D01*
X182826000Y-138400000D01*
X180600000Y-138400000D01*
X180600000Y-139069702D01*
X180611602Y-139128033D01*
X180611603Y-139128034D01*
X180662593Y-139204346D01*
X180659730Y-139206258D01*
X180683420Y-139249642D01*
X180678436Y-139319334D01*
X180636564Y-139375267D01*
X180571100Y-139399684D01*
X180562254Y-139400000D01*
X176308126Y-139400000D01*
X176291941Y-139398939D01*
X176278917Y-139397224D01*
X176186775Y-139385093D01*
X176155508Y-139376715D01*
X176065081Y-139339259D01*
X176037048Y-139323074D01*
X175959398Y-139263491D01*
X175936508Y-139240601D01*
X175876925Y-139162951D01*
X175860740Y-139134918D01*
X175823284Y-139044491D01*
X175814906Y-139013223D01*
X175801061Y-138908059D01*
X175800000Y-138891874D01*
X175800000Y-137900000D01*
X180600000Y-137900000D01*
X182450000Y-137900000D01*
X182450000Y-137050000D01*
X180780297Y-137050000D01*
X180721966Y-137061602D01*
X180721965Y-137061603D01*
X180655808Y-137105808D01*
X180611603Y-137171965D01*
X180611602Y-137171966D01*
X180600000Y-137230297D01*
X180600000Y-137900000D01*
X175800000Y-137900000D01*
X175800000Y-136050000D01*
X176700000Y-136050000D01*
X176700000Y-136319702D01*
X176711602Y-136378033D01*
X176711603Y-136378034D01*
X176755808Y-136444191D01*
X176821965Y-136488396D01*
X176821966Y-136488397D01*
X176880297Y-136499999D01*
X176880301Y-136500000D01*
X178000000Y-136500000D01*
X178000000Y-136050000D01*
X178500000Y-136050000D01*
X178500000Y-136500000D01*
X179619699Y-136500000D01*
X179619702Y-136499999D01*
X179678033Y-136488397D01*
X179678034Y-136488396D01*
X179744191Y-136444191D01*
X179788396Y-136378034D01*
X179788397Y-136378033D01*
X179799999Y-136319702D01*
X179800000Y-136319699D01*
X179800000Y-136050000D01*
X178500000Y-136050000D01*
X178000000Y-136050000D01*
X176700000Y-136050000D01*
X175800000Y-136050000D01*
X175800000Y-135550000D01*
X176700000Y-135550000D01*
X178000000Y-135550000D01*
X178000000Y-135100000D01*
X178500000Y-135100000D01*
X178500000Y-135550000D01*
X179800000Y-135550000D01*
X179800000Y-135280301D01*
X179799999Y-135280297D01*
X179788397Y-135221966D01*
X179788396Y-135221965D01*
X179744191Y-135155808D01*
X179678034Y-135111603D01*
X179678033Y-135111602D01*
X179619702Y-135100000D01*
X178500000Y-135100000D01*
X178000000Y-135100000D01*
X176880297Y-135100000D01*
X176821966Y-135111602D01*
X176821965Y-135111603D01*
X176755808Y-135155808D01*
X176711603Y-135221965D01*
X176711602Y-135221966D01*
X176700000Y-135280297D01*
X176700000Y-135550000D01*
X175800000Y-135550000D01*
X175800000Y-134050000D01*
X176700000Y-134050000D01*
X176700000Y-134319702D01*
X176711602Y-134378033D01*
X176711603Y-134378034D01*
X176755808Y-134444191D01*
X176821965Y-134488396D01*
X176821966Y-134488397D01*
X176880297Y-134499999D01*
X176880301Y-134500000D01*
X178000000Y-134500000D01*
X178000000Y-134050000D01*
X178500000Y-134050000D01*
X178500000Y-134500000D01*
X179619699Y-134500000D01*
X179619702Y-134499999D01*
X179678033Y-134488397D01*
X179678034Y-134488396D01*
X179744191Y-134444191D01*
X179788396Y-134378034D01*
X179788397Y-134378033D01*
X179799999Y-134319702D01*
X179800000Y-134319699D01*
X179800000Y-134050000D01*
X178500000Y-134050000D01*
X178000000Y-134050000D01*
X176700000Y-134050000D01*
X175800000Y-134050000D01*
X175800000Y-134008125D01*
X175801061Y-133991940D01*
X175814906Y-133886776D01*
X175823284Y-133855508D01*
X175860740Y-133765081D01*
X175876923Y-133737050D01*
X175936513Y-133659392D01*
X175959392Y-133636513D01*
X176037050Y-133576923D01*
X176065079Y-133560740D01*
X176155509Y-133523283D01*
X176186775Y-133514906D01*
X176291941Y-133501061D01*
X176308126Y-133500000D01*
X176598638Y-133500000D01*
X176665677Y-133519685D01*
G37*
G04 #@! TD.AperFunction*
G04 #@! TA.AperFunction,Conductor*
G36*
X185466111Y-85205498D02*
G01*
X185500295Y-85211296D01*
X185513126Y-85215382D01*
X185571032Y-85254481D01*
X185598607Y-85318679D01*
X185599500Y-85333536D01*
X185599500Y-98664990D01*
X185579815Y-98732029D01*
X185527011Y-98777784D01*
X185491686Y-98787929D01*
X185425551Y-98796636D01*
X185408058Y-98798939D01*
X185391874Y-98800000D01*
X165308126Y-98800000D01*
X165291941Y-98798939D01*
X165278917Y-98797224D01*
X165186775Y-98785093D01*
X165155508Y-98776715D01*
X165065081Y-98739259D01*
X165037048Y-98723074D01*
X164959398Y-98663491D01*
X164936508Y-98640601D01*
X164876925Y-98562951D01*
X164860740Y-98534918D01*
X164823284Y-98444491D01*
X164814906Y-98413223D01*
X164801061Y-98308059D01*
X164800000Y-98291874D01*
X164800000Y-94043090D01*
X164801341Y-94024902D01*
X164818818Y-93907037D01*
X164829374Y-93872228D01*
X164876351Y-93772864D01*
X164896551Y-93742619D01*
X164970344Y-93661161D01*
X164998456Y-93638077D01*
X165100649Y-93576776D01*
X165116909Y-93568584D01*
X167814391Y-92450001D01*
X174144773Y-92450001D01*
X174163657Y-92714027D01*
X174163658Y-92714034D01*
X174219921Y-92972673D01*
X174312426Y-93220690D01*
X174312428Y-93220694D01*
X174439280Y-93453005D01*
X174439285Y-93453013D01*
X174597906Y-93664907D01*
X174597922Y-93664925D01*
X174785074Y-93852077D01*
X174785092Y-93852093D01*
X174996986Y-94010714D01*
X174996994Y-94010719D01*
X175229305Y-94137571D01*
X175229309Y-94137573D01*
X175229311Y-94137574D01*
X175477322Y-94230077D01*
X175477325Y-94230077D01*
X175477326Y-94230078D01*
X175672552Y-94272546D01*
X175735974Y-94286343D01*
X175979660Y-94303772D01*
X175999999Y-94305227D01*
X176000000Y-94305227D01*
X176000001Y-94305227D01*
X176018885Y-94303876D01*
X176264026Y-94286343D01*
X176522678Y-94230077D01*
X176770689Y-94137574D01*
X177003011Y-94010716D01*
X177214915Y-93852087D01*
X177402087Y-93664915D01*
X177560716Y-93453011D01*
X177687574Y-93220689D01*
X177780077Y-92972678D01*
X177836343Y-92714026D01*
X177855227Y-92450000D01*
X177836343Y-92185974D01*
X177780077Y-91927322D01*
X177687574Y-91679311D01*
X177560716Y-91446989D01*
X177560714Y-91446986D01*
X177402093Y-91235092D01*
X177402077Y-91235074D01*
X177214925Y-91047922D01*
X177214907Y-91047906D01*
X177003013Y-90889285D01*
X177003005Y-90889280D01*
X176770694Y-90762428D01*
X176770690Y-90762426D01*
X176522673Y-90669921D01*
X176264034Y-90613658D01*
X176264027Y-90613657D01*
X176000001Y-90594773D01*
X175999999Y-90594773D01*
X175735972Y-90613657D01*
X175735965Y-90613658D01*
X175477326Y-90669921D01*
X175229309Y-90762426D01*
X175229305Y-90762428D01*
X174996994Y-90889280D01*
X174996986Y-90889285D01*
X174785092Y-91047906D01*
X174785074Y-91047922D01*
X174597922Y-91235074D01*
X174597906Y-91235092D01*
X174439285Y-91446986D01*
X174439280Y-91446994D01*
X174312428Y-91679305D01*
X174312426Y-91679309D01*
X174219921Y-91927326D01*
X174163658Y-92185965D01*
X174163657Y-92185972D01*
X174144773Y-92449998D01*
X174144773Y-92450001D01*
X167814391Y-92450001D01*
X185200432Y-85240413D01*
X185216908Y-85234899D01*
X185326900Y-85206484D01*
X185361347Y-85202591D01*
X185466111Y-85205498D01*
G37*
G04 #@! TD.AperFunction*
G04 #@! TA.AperFunction,Conductor*
G36*
X152462075Y-119252402D02*
G01*
X152507222Y-119261382D01*
X152542908Y-119276163D01*
X152575050Y-119297640D01*
X152602359Y-119324949D01*
X152623328Y-119356330D01*
X152623835Y-119357089D01*
X152638616Y-119392775D01*
X152648097Y-119440436D01*
X152650000Y-119459751D01*
X152650000Y-120750000D01*
X152665224Y-120826537D01*
X152708579Y-120891421D01*
X152773463Y-120934776D01*
X152850000Y-120950000D01*
X154240248Y-120950000D01*
X154259561Y-120951902D01*
X154307222Y-120961382D01*
X154342908Y-120976163D01*
X154375050Y-120997640D01*
X154402359Y-121024949D01*
X154423328Y-121056330D01*
X154423835Y-121057089D01*
X154438616Y-121092775D01*
X154448097Y-121140436D01*
X154450000Y-121159751D01*
X154450000Y-122290248D01*
X154448097Y-122309563D01*
X154438616Y-122357224D01*
X154423835Y-122392910D01*
X154402362Y-122425047D01*
X154375047Y-122452362D01*
X154342910Y-122473835D01*
X154307224Y-122488616D01*
X154259563Y-122498097D01*
X154240248Y-122500000D01*
X148959752Y-122500000D01*
X148940438Y-122498098D01*
X148924470Y-122494921D01*
X148892775Y-122488617D01*
X148857089Y-122473835D01*
X148856330Y-122473328D01*
X148824949Y-122452359D01*
X148797640Y-122425050D01*
X148776163Y-122392908D01*
X148761382Y-122357222D01*
X148751902Y-122309561D01*
X148750000Y-122290248D01*
X148750000Y-121159751D01*
X148751902Y-121140438D01*
X148761382Y-121092777D01*
X148776162Y-121057092D01*
X148797642Y-121024946D01*
X148824946Y-120997642D01*
X148857092Y-120976162D01*
X148892775Y-120961382D01*
X148918021Y-120956360D01*
X148940439Y-120951902D01*
X148959752Y-120950000D01*
X150349999Y-120950000D01*
X150350000Y-120950000D01*
X150426537Y-120934776D01*
X150491421Y-120891421D01*
X150534776Y-120826537D01*
X150550000Y-120750000D01*
X150550000Y-119459751D01*
X150551902Y-119440438D01*
X150561382Y-119392777D01*
X150576162Y-119357092D01*
X150597642Y-119324946D01*
X150624946Y-119297642D01*
X150657092Y-119276162D01*
X150692775Y-119261382D01*
X150720279Y-119255911D01*
X150737925Y-119252402D01*
X150757238Y-119250500D01*
X152442762Y-119250500D01*
X152462075Y-119252402D01*
G37*
G04 #@! TD.AperFunction*
G04 #@! TA.AperFunction,Conductor*
G36*
X168406433Y-125900847D02*
G01*
X168409259Y-125901219D01*
X168516489Y-125915336D01*
X168541447Y-125922023D01*
X168637960Y-125962000D01*
X168660336Y-125974918D01*
X168743216Y-126038515D01*
X168761484Y-126056783D01*
X168762608Y-126058247D01*
X168825079Y-126139660D01*
X168838001Y-126162042D01*
X168877975Y-126258548D01*
X168884664Y-126283512D01*
X168899153Y-126393566D01*
X168900000Y-126406488D01*
X168900000Y-126426000D01*
X168881093Y-126484191D01*
X168831593Y-126520155D01*
X168801000Y-126525000D01*
X168750001Y-126525000D01*
X168750000Y-126525001D01*
X168750000Y-128074999D01*
X168750001Y-128075000D01*
X168801000Y-128075000D01*
X168859191Y-128093907D01*
X168895155Y-128143407D01*
X168900000Y-128174000D01*
X168900000Y-129242209D01*
X168898781Y-129257696D01*
X168885323Y-129342667D01*
X168875752Y-129372125D01*
X168840275Y-129441752D01*
X168822069Y-129466811D01*
X168766811Y-129522069D01*
X168741752Y-129540275D01*
X168672125Y-129575752D01*
X168642667Y-129585323D01*
X168557697Y-129598781D01*
X168542210Y-129600000D01*
X168515875Y-129600000D01*
X168502219Y-129599053D01*
X168403644Y-129585323D01*
X168386040Y-129582871D01*
X168359768Y-129575407D01*
X168280066Y-129540275D01*
X168258767Y-129530886D01*
X168235535Y-129516528D01*
X168150542Y-129446098D01*
X168132121Y-129425941D01*
X168065685Y-129329256D01*
X168058731Y-129317464D01*
X167347349Y-127894700D01*
X168000000Y-127894700D01*
X168011603Y-127953036D01*
X168055806Y-128019189D01*
X168055810Y-128019193D01*
X168121963Y-128063396D01*
X168180299Y-128074999D01*
X168180303Y-128075000D01*
X168249999Y-128075000D01*
X168250000Y-128074999D01*
X168250000Y-127550001D01*
X168249999Y-127550000D01*
X168000001Y-127550000D01*
X168000000Y-127550001D01*
X168000000Y-127894700D01*
X167347349Y-127894700D01*
X166924999Y-127049999D01*
X168000000Y-127049999D01*
X168000001Y-127050000D01*
X168249999Y-127050000D01*
X168250000Y-127049999D01*
X168250000Y-126525001D01*
X168249999Y-126525000D01*
X168180299Y-126525000D01*
X168121963Y-126536603D01*
X168055810Y-126580806D01*
X168055806Y-126580810D01*
X168011603Y-126646963D01*
X168000000Y-126705299D01*
X168000000Y-127049999D01*
X166924999Y-127049999D01*
X166755356Y-126710713D01*
X166750829Y-126700174D01*
X166717304Y-126607679D01*
X166712043Y-126585394D01*
X166700664Y-126487668D01*
X166700000Y-126476218D01*
X166700000Y-126257790D01*
X166701219Y-126242304D01*
X166702549Y-126233902D01*
X166714677Y-126157328D01*
X166724245Y-126127879D01*
X166759726Y-126058242D01*
X166777927Y-126033191D01*
X166833191Y-125977927D01*
X166858242Y-125959726D01*
X166927879Y-125924245D01*
X166957328Y-125914677D01*
X167033902Y-125902549D01*
X167042304Y-125901219D01*
X167057790Y-125900000D01*
X168393512Y-125900000D01*
X168406433Y-125900847D01*
G37*
G04 #@! TD.AperFunction*
G04 #@! TA.AperFunction,Conductor*
G36*
X184735722Y-75402381D02*
G01*
X184776097Y-75410412D01*
X184820794Y-75428927D01*
X184844664Y-75444877D01*
X184878873Y-75479086D01*
X184894823Y-75502956D01*
X184913339Y-75547655D01*
X184921368Y-75588022D01*
X184923751Y-75612210D01*
X184923751Y-77487789D01*
X184921368Y-77511982D01*
X184913339Y-77552344D01*
X184894823Y-77597043D01*
X184878873Y-77620913D01*
X184844664Y-77655122D01*
X184820794Y-77671072D01*
X184776095Y-77689588D01*
X184759592Y-77692870D01*
X184735729Y-77697617D01*
X184711540Y-77700000D01*
X181776496Y-77700000D01*
X181709457Y-77680315D01*
X181663702Y-77627511D01*
X181653758Y-77558353D01*
X181661936Y-77528544D01*
X181662148Y-77528030D01*
X181673750Y-77469702D01*
X181673751Y-77469699D01*
X181673751Y-77400000D01*
X180497751Y-77400000D01*
X180430712Y-77380315D01*
X180423751Y-77372281D01*
X180423751Y-76650000D01*
X180873751Y-76650000D01*
X180873751Y-76900000D01*
X181673751Y-76900000D01*
X181673751Y-76830301D01*
X181673750Y-76830297D01*
X181662148Y-76771966D01*
X181662147Y-76771965D01*
X181617942Y-76705808D01*
X181551785Y-76661603D01*
X181551784Y-76661602D01*
X181493453Y-76650000D01*
X180873751Y-76650000D01*
X180423751Y-76650000D01*
X180423751Y-76150000D01*
X180873751Y-76150000D01*
X180873751Y-76400000D01*
X181493450Y-76400000D01*
X181493453Y-76399999D01*
X181551784Y-76388397D01*
X181551785Y-76388396D01*
X181617942Y-76344191D01*
X181662147Y-76278034D01*
X181662148Y-76278033D01*
X181673750Y-76219702D01*
X181673751Y-76219699D01*
X181673751Y-76150000D01*
X180873751Y-76150000D01*
X180423751Y-76150000D01*
X180423751Y-75680692D01*
X180446240Y-75661206D01*
X180497751Y-75650000D01*
X181673751Y-75650000D01*
X181673751Y-75580301D01*
X181673750Y-75580300D01*
X181667364Y-75548192D01*
X181673591Y-75478600D01*
X181716454Y-75423423D01*
X181782343Y-75400178D01*
X181788981Y-75400000D01*
X184711540Y-75400000D01*
X184735722Y-75402381D01*
G37*
G04 #@! TD.AperFunction*
G04 #@! TA.AperFunction,Conductor*
G36*
X156718192Y-61007535D02*
G01*
X156732825Y-61013596D01*
X156779351Y-61053333D01*
X156786401Y-61067170D01*
X156792463Y-61081805D01*
X156800000Y-61119691D01*
X156800000Y-75980308D01*
X156792463Y-76018197D01*
X156786402Y-76032828D01*
X156746663Y-76079352D01*
X156732830Y-76086401D01*
X156725448Y-76089458D01*
X156718197Y-76092462D01*
X156680309Y-76100000D01*
X142819691Y-76100000D01*
X142781805Y-76092463D01*
X142767170Y-76086401D01*
X142720647Y-76046663D01*
X142713597Y-76032828D01*
X142707534Y-76018190D01*
X142700000Y-75980308D01*
X142700000Y-72687794D01*
X142699998Y-72687786D01*
X142675150Y-72621819D01*
X142675149Y-72621818D01*
X142675149Y-72621817D01*
X142675148Y-72621816D01*
X142675147Y-72621815D01*
X142612947Y-72588633D01*
X127576992Y-70625339D01*
X127575629Y-70625151D01*
X127060235Y-70550555D01*
X127055586Y-70549925D01*
X127051199Y-70549371D01*
X127046707Y-70548844D01*
X127045233Y-70548684D01*
X127031885Y-70547239D01*
X127031856Y-70547236D01*
X127031834Y-70547234D01*
X127022776Y-70546416D01*
X127013836Y-70545772D01*
X127004648Y-70545277D01*
X126989823Y-70544745D01*
X126985210Y-70544620D01*
X126980768Y-70544540D01*
X126976183Y-70544500D01*
X126976177Y-70544500D01*
X124148900Y-70544500D01*
X124137050Y-70545774D01*
X124103013Y-70549433D01*
X124092432Y-70550000D01*
X122899999Y-70550000D01*
X122829290Y-70579288D01*
X122829288Y-70579290D01*
X122799998Y-70650003D01*
X122799057Y-70654735D01*
X122784276Y-70690420D01*
X122735534Y-70763367D01*
X122735532Y-70763372D01*
X122723901Y-70821841D01*
X122723900Y-70821853D01*
X122723900Y-71701000D01*
X122704993Y-71759191D01*
X122655493Y-71795155D01*
X122624900Y-71800000D01*
X122573900Y-71800000D01*
X122515709Y-71781093D01*
X122479745Y-71731593D01*
X122474900Y-71701000D01*
X122474900Y-70821853D01*
X122474898Y-70821841D01*
X122472111Y-70807831D01*
X122463267Y-70763369D01*
X122463265Y-70763366D01*
X122416233Y-70692978D01*
X122401450Y-70657288D01*
X122400000Y-70650000D01*
X122370711Y-70579290D01*
X122370711Y-70579289D01*
X122370709Y-70579288D01*
X122300001Y-70550000D01*
X122300000Y-70550000D01*
X121669691Y-70550000D01*
X121631805Y-70542463D01*
X121617170Y-70536401D01*
X121570647Y-70496663D01*
X121563597Y-70482828D01*
X121557534Y-70468190D01*
X121550000Y-70430308D01*
X121550000Y-69254286D01*
X121520711Y-69183577D01*
X121520711Y-69183576D01*
X121520709Y-69183575D01*
X121450001Y-69154287D01*
X121450000Y-69154287D01*
X113999547Y-69154287D01*
X114250000Y-68750000D01*
X114399999Y-68750000D01*
X115388536Y-68750000D01*
X115443535Y-68766683D01*
X115461769Y-68778867D01*
X115506231Y-68787711D01*
X115520241Y-68790498D01*
X115520246Y-68790498D01*
X115520252Y-68790500D01*
X116395181Y-68790500D01*
X116444678Y-68803762D01*
X116462804Y-68814227D01*
X116470080Y-68818861D01*
X116501916Y-68841153D01*
X116503366Y-68841541D01*
X116527249Y-68851434D01*
X116528555Y-68852188D01*
X116566834Y-68858937D01*
X116575258Y-68860805D01*
X116612793Y-68870863D01*
X116651497Y-68867477D01*
X116660125Y-68867100D01*
X120183718Y-68867100D01*
X120238720Y-68883785D01*
X120271169Y-68905467D01*
X120315631Y-68914311D01*
X120329641Y-68917098D01*
X120329646Y-68917098D01*
X120329652Y-68917100D01*
X120329653Y-68917100D01*
X121319147Y-68917100D01*
X121319148Y-68917100D01*
X121377631Y-68905467D01*
X121443952Y-68861152D01*
X121488267Y-68794831D01*
X121492757Y-68772258D01*
X121519853Y-68721568D01*
X121520707Y-68720712D01*
X121520711Y-68720711D01*
X121550000Y-68650000D01*
X121550000Y-67070105D01*
X121557567Y-67032144D01*
X121563650Y-67017496D01*
X121603423Y-66971009D01*
X121617425Y-66963905D01*
X121632116Y-66957867D01*
X121670102Y-66950439D01*
X122602067Y-66953850D01*
X122639836Y-66961487D01*
X122654441Y-66967584D01*
X122700856Y-67007445D01*
X122707804Y-67021142D01*
X122713846Y-67035767D01*
X122721347Y-67073568D01*
X122721347Y-68300000D01*
X122750636Y-68370711D01*
X122785991Y-68385355D01*
X122821346Y-68400000D01*
X122821347Y-68400000D01*
X128628915Y-68400000D01*
X128648229Y-68401902D01*
X128650236Y-68402301D01*
X128655253Y-68403299D01*
X128655254Y-68403299D01*
X130144746Y-68403299D01*
X130144747Y-68403299D01*
X130150286Y-68402197D01*
X130151771Y-68401902D01*
X130171085Y-68400000D01*
X130813139Y-68400000D01*
X130871330Y-68418907D01*
X130904602Y-68461112D01*
X130914643Y-68485352D01*
X130914644Y-68485353D01*
X130914645Y-68485355D01*
X130950000Y-68500000D01*
X130950001Y-68500000D01*
X151300000Y-68500000D01*
X151300001Y-68500000D01*
X151323570Y-68490237D01*
X151370711Y-68470711D01*
X151400000Y-68400000D01*
X151400000Y-61119691D01*
X151407534Y-61081810D01*
X151413596Y-61067173D01*
X151453331Y-61020650D01*
X151467166Y-61013599D01*
X151481810Y-61007534D01*
X151519691Y-61000000D01*
X156680309Y-61000000D01*
X156718192Y-61007535D01*
G37*
G04 #@! TD.AperFunction*
G04 #@! TA.AperFunction,Conductor*
G36*
X173109561Y-82601902D02*
G01*
X173157222Y-82611382D01*
X173192908Y-82626163D01*
X173225050Y-82647640D01*
X173252359Y-82674949D01*
X173273328Y-82706330D01*
X173273835Y-82707089D01*
X173288616Y-82742772D01*
X173292197Y-82760771D01*
X173294100Y-82780089D01*
X173294100Y-83269174D01*
X173298098Y-83289272D01*
X173300000Y-83308585D01*
X173300000Y-86990248D01*
X173298097Y-87009563D01*
X173288616Y-87057224D01*
X173273835Y-87092910D01*
X173252362Y-87125047D01*
X173225047Y-87152362D01*
X173192910Y-87173835D01*
X173157224Y-87188616D01*
X173109563Y-87198097D01*
X173090248Y-87200000D01*
X165709752Y-87200000D01*
X165690438Y-87198098D01*
X165674470Y-87194921D01*
X165642775Y-87188617D01*
X165607089Y-87173835D01*
X165606330Y-87173328D01*
X165574949Y-87152359D01*
X165547640Y-87125050D01*
X165526163Y-87092908D01*
X165511382Y-87057222D01*
X165501902Y-87009561D01*
X165500000Y-86990248D01*
X165500000Y-85749624D01*
X171325900Y-85749624D01*
X171340406Y-85822546D01*
X171340407Y-85822548D01*
X171395658Y-85905237D01*
X171395662Y-85905241D01*
X171478351Y-85960492D01*
X171478353Y-85960493D01*
X171551275Y-85974999D01*
X171551277Y-85975000D01*
X171800899Y-85975000D01*
X171800900Y-85974999D01*
X172300900Y-85974999D01*
X172300901Y-85975000D01*
X172550523Y-85975000D01*
X172550524Y-85974999D01*
X172623446Y-85960493D01*
X172623448Y-85960492D01*
X172706137Y-85905241D01*
X172706141Y-85905237D01*
X172761392Y-85822548D01*
X172761393Y-85822546D01*
X172775899Y-85749624D01*
X172775900Y-85749622D01*
X172775900Y-85250001D01*
X172775899Y-85250000D01*
X172300901Y-85250000D01*
X172300900Y-85250001D01*
X172300900Y-85974999D01*
X171800900Y-85974999D01*
X171800900Y-85250001D01*
X171800899Y-85250000D01*
X171325901Y-85250000D01*
X171325900Y-85250001D01*
X171325900Y-85749624D01*
X165500000Y-85749624D01*
X165500000Y-85459724D01*
X166827900Y-85459724D01*
X166842406Y-85532646D01*
X166842407Y-85532648D01*
X166897658Y-85615337D01*
X166897662Y-85615341D01*
X166980351Y-85670592D01*
X166980353Y-85670593D01*
X167053275Y-85685099D01*
X167053277Y-85685100D01*
X167526399Y-85685100D01*
X167526400Y-85685099D01*
X168026400Y-85685099D01*
X168026401Y-85685100D01*
X168499523Y-85685100D01*
X168499524Y-85685099D01*
X168572446Y-85670593D01*
X168572448Y-85670592D01*
X168655137Y-85615341D01*
X168655141Y-85615337D01*
X168710392Y-85532648D01*
X168710393Y-85532646D01*
X168724899Y-85459724D01*
X168724900Y-85459722D01*
X168724900Y-85181924D01*
X169281900Y-85181924D01*
X169296406Y-85254846D01*
X169296407Y-85254848D01*
X169351658Y-85337537D01*
X169351662Y-85337541D01*
X169434351Y-85392792D01*
X169434353Y-85392793D01*
X169507275Y-85407299D01*
X169507277Y-85407300D01*
X169726399Y-85407300D01*
X169726400Y-85407299D01*
X170226400Y-85407299D01*
X170226401Y-85407300D01*
X170445523Y-85407300D01*
X170445524Y-85407299D01*
X170518446Y-85392793D01*
X170518448Y-85392792D01*
X170601137Y-85337541D01*
X170601141Y-85337537D01*
X170656392Y-85254848D01*
X170656393Y-85254846D01*
X170670899Y-85181924D01*
X170670900Y-85181922D01*
X170670900Y-84975501D01*
X170670899Y-84975500D01*
X170226401Y-84975500D01*
X170226400Y-84975501D01*
X170226400Y-85407299D01*
X169726400Y-85407299D01*
X169726400Y-84975501D01*
X169726399Y-84975500D01*
X169281901Y-84975500D01*
X169281900Y-84975501D01*
X169281900Y-85181924D01*
X168724900Y-85181924D01*
X168724900Y-85151701D01*
X168724899Y-85151700D01*
X168026401Y-85151700D01*
X168026400Y-85151701D01*
X168026400Y-85685099D01*
X167526400Y-85685099D01*
X167526400Y-85151701D01*
X167526399Y-85151700D01*
X166827901Y-85151700D01*
X166827900Y-85151701D01*
X166827900Y-85459724D01*
X165500000Y-85459724D01*
X165500000Y-84749999D01*
X171325900Y-84749999D01*
X171325901Y-84750000D01*
X171800899Y-84750000D01*
X171800900Y-84749999D01*
X172300900Y-84749999D01*
X172300901Y-84750000D01*
X172775899Y-84750000D01*
X172775900Y-84749999D01*
X172775900Y-84250377D01*
X172775899Y-84250375D01*
X172761393Y-84177453D01*
X172761392Y-84177451D01*
X172706141Y-84094762D01*
X172706137Y-84094758D01*
X172623448Y-84039507D01*
X172623446Y-84039506D01*
X172550524Y-84025000D01*
X172300901Y-84025000D01*
X172300900Y-84025001D01*
X172300900Y-84749999D01*
X171800900Y-84749999D01*
X171800900Y-84025001D01*
X171800899Y-84025000D01*
X171551275Y-84025000D01*
X171478353Y-84039506D01*
X171478351Y-84039507D01*
X171395662Y-84094758D01*
X171395658Y-84094762D01*
X171340407Y-84177451D01*
X171340406Y-84177453D01*
X171325900Y-84250375D01*
X171325900Y-84749999D01*
X165500000Y-84749999D01*
X165500000Y-84651699D01*
X166827900Y-84651699D01*
X166827901Y-84651700D01*
X167526399Y-84651700D01*
X167526400Y-84651699D01*
X168026400Y-84651699D01*
X168026401Y-84651700D01*
X168724899Y-84651700D01*
X168724900Y-84651699D01*
X168724900Y-84475499D01*
X169281900Y-84475499D01*
X169281901Y-84475500D01*
X169726399Y-84475500D01*
X169726400Y-84475499D01*
X170226400Y-84475499D01*
X170226401Y-84475500D01*
X170670899Y-84475500D01*
X170670900Y-84475499D01*
X170670900Y-84269077D01*
X170670899Y-84269075D01*
X170656393Y-84196153D01*
X170656392Y-84196151D01*
X170601141Y-84113462D01*
X170601137Y-84113458D01*
X170518448Y-84058207D01*
X170518446Y-84058206D01*
X170445524Y-84043700D01*
X170226401Y-84043700D01*
X170226400Y-84043701D01*
X170226400Y-84475499D01*
X169726400Y-84475499D01*
X169726400Y-84043701D01*
X169726399Y-84043700D01*
X169507275Y-84043700D01*
X169434353Y-84058206D01*
X169434351Y-84058207D01*
X169351662Y-84113458D01*
X169351658Y-84113462D01*
X169296407Y-84196151D01*
X169296406Y-84196153D01*
X169281900Y-84269075D01*
X169281900Y-84475499D01*
X168724900Y-84475499D01*
X168724900Y-84343677D01*
X168724899Y-84343675D01*
X168710393Y-84270753D01*
X168710392Y-84270751D01*
X168655141Y-84188062D01*
X168655137Y-84188058D01*
X168572448Y-84132807D01*
X168572446Y-84132806D01*
X168499524Y-84118300D01*
X168026401Y-84118300D01*
X168026400Y-84118301D01*
X168026400Y-84651699D01*
X167526400Y-84651699D01*
X167526400Y-84118301D01*
X167526399Y-84118300D01*
X167053275Y-84118300D01*
X166980353Y-84132806D01*
X166980351Y-84132807D01*
X166897662Y-84188058D01*
X166897658Y-84188062D01*
X166842407Y-84270751D01*
X166842406Y-84270753D01*
X166827900Y-84343675D01*
X166827900Y-84651699D01*
X165500000Y-84651699D01*
X165500000Y-83849500D01*
X165518907Y-83791309D01*
X165568407Y-83755345D01*
X165599000Y-83750500D01*
X166803089Y-83750500D01*
X166861280Y-83769407D01*
X166885402Y-83794496D01*
X166897299Y-83812301D01*
X166980160Y-83867666D01*
X167035708Y-83878715D01*
X167053215Y-83882198D01*
X167053220Y-83882198D01*
X167053226Y-83882200D01*
X167053227Y-83882200D01*
X168499573Y-83882200D01*
X168499574Y-83882200D01*
X168572640Y-83867666D01*
X168655501Y-83812301D01*
X168710866Y-83729440D01*
X168713253Y-83717438D01*
X168715791Y-83704684D01*
X168745689Y-83651300D01*
X168801254Y-83625686D01*
X168812888Y-83625000D01*
X169257022Y-83625000D01*
X169315213Y-83643907D01*
X169339338Y-83669000D01*
X169351298Y-83686901D01*
X169414964Y-83729440D01*
X169434160Y-83742266D01*
X169489708Y-83753315D01*
X169507215Y-83756798D01*
X169507220Y-83756798D01*
X169507226Y-83756800D01*
X169507227Y-83756800D01*
X170445573Y-83756800D01*
X170445574Y-83756800D01*
X170518640Y-83742266D01*
X170601501Y-83686901D01*
X170622353Y-83655693D01*
X170630167Y-83643999D01*
X170678216Y-83606119D01*
X170712483Y-83600000D01*
X170999999Y-83600000D01*
X171000000Y-83600000D01*
X171076537Y-83584776D01*
X171141421Y-83541421D01*
X171184776Y-83476537D01*
X171200000Y-83400000D01*
X171200000Y-83269124D01*
X171643600Y-83269124D01*
X171658106Y-83342046D01*
X171658107Y-83342048D01*
X171713358Y-83424737D01*
X171713362Y-83424741D01*
X171796051Y-83479992D01*
X171796053Y-83479993D01*
X171868975Y-83494499D01*
X171868977Y-83494500D01*
X172075399Y-83494500D01*
X172075400Y-83494499D01*
X172575400Y-83494499D01*
X172575401Y-83494500D01*
X172781823Y-83494500D01*
X172781824Y-83494499D01*
X172854746Y-83479993D01*
X172854748Y-83479992D01*
X172937437Y-83424741D01*
X172937441Y-83424737D01*
X172992692Y-83342048D01*
X172992693Y-83342046D01*
X173007199Y-83269124D01*
X173007200Y-83269122D01*
X173007200Y-83050001D01*
X173007199Y-83050000D01*
X172575401Y-83050000D01*
X172575400Y-83050001D01*
X172575400Y-83494499D01*
X172075400Y-83494499D01*
X172075400Y-83050001D01*
X172075399Y-83050000D01*
X171643601Y-83050000D01*
X171643600Y-83050001D01*
X171643600Y-83269124D01*
X171200000Y-83269124D01*
X171200000Y-82809751D01*
X171201902Y-82790438D01*
X171202595Y-82786949D01*
X171211382Y-82742775D01*
X171226162Y-82707092D01*
X171247642Y-82674946D01*
X171274946Y-82647642D01*
X171307092Y-82626162D01*
X171342775Y-82611382D01*
X171368021Y-82606360D01*
X171390439Y-82601902D01*
X171409752Y-82600000D01*
X171600599Y-82600000D01*
X173050201Y-82600000D01*
X173090248Y-82600000D01*
X173109561Y-82601902D01*
G37*
G04 #@! TD.AperFunction*
G04 #@! TA.AperFunction,Conductor*
G36*
X185408058Y-99601061D02*
G01*
X185435080Y-99604618D01*
X185491685Y-99612070D01*
X185555581Y-99640336D01*
X185594053Y-99698660D01*
X185599500Y-99735009D01*
X185599500Y-110364990D01*
X185579815Y-110432029D01*
X185527011Y-110477784D01*
X185491686Y-110487929D01*
X185425551Y-110496636D01*
X185408058Y-110498939D01*
X185391874Y-110500000D01*
X167605561Y-110500000D01*
X167588963Y-110498884D01*
X167540130Y-110492287D01*
X167481162Y-110484322D01*
X167449153Y-110475513D01*
X167356821Y-110436169D01*
X167328297Y-110419184D01*
X167249709Y-110356750D01*
X167226713Y-110332805D01*
X167167510Y-110251762D01*
X167151692Y-110222574D01*
X167113132Y-110120862D01*
X167108291Y-110104945D01*
X167083929Y-110000000D01*
X166143750Y-105950001D01*
X174144773Y-105950001D01*
X174163657Y-106214027D01*
X174163658Y-106214034D01*
X174219921Y-106472673D01*
X174312426Y-106720690D01*
X174312428Y-106720694D01*
X174439280Y-106953005D01*
X174439285Y-106953013D01*
X174597906Y-107164907D01*
X174597922Y-107164925D01*
X174785074Y-107352077D01*
X174785092Y-107352093D01*
X174996986Y-107510714D01*
X174996994Y-107510719D01*
X175229305Y-107637571D01*
X175229309Y-107637573D01*
X175229311Y-107637574D01*
X175477322Y-107730077D01*
X175477325Y-107730077D01*
X175477326Y-107730078D01*
X175672552Y-107772546D01*
X175735974Y-107786343D01*
X175979660Y-107803772D01*
X175999999Y-107805227D01*
X176000000Y-107805227D01*
X176000001Y-107805227D01*
X176018885Y-107803876D01*
X176264026Y-107786343D01*
X176522678Y-107730077D01*
X176770689Y-107637574D01*
X177003011Y-107510716D01*
X177214915Y-107352087D01*
X177402087Y-107164915D01*
X177560716Y-106953011D01*
X177687574Y-106720689D01*
X177780077Y-106472678D01*
X177836343Y-106214026D01*
X177855227Y-105950000D01*
X177836343Y-105685974D01*
X177780077Y-105427322D01*
X177687574Y-105179311D01*
X177563620Y-104952308D01*
X177560719Y-104946994D01*
X177560714Y-104946986D01*
X177402093Y-104735092D01*
X177402077Y-104735074D01*
X177214925Y-104547922D01*
X177214907Y-104547906D01*
X177003013Y-104389285D01*
X177003005Y-104389280D01*
X176770694Y-104262428D01*
X176770690Y-104262426D01*
X176522673Y-104169921D01*
X176264034Y-104113658D01*
X176264027Y-104113657D01*
X176000001Y-104094773D01*
X175999999Y-104094773D01*
X175735972Y-104113657D01*
X175735965Y-104113658D01*
X175477326Y-104169921D01*
X175229309Y-104262426D01*
X175229305Y-104262428D01*
X174996994Y-104389280D01*
X174996986Y-104389285D01*
X174785092Y-104547906D01*
X174785074Y-104547922D01*
X174597922Y-104735074D01*
X174597906Y-104735092D01*
X174439285Y-104946986D01*
X174439280Y-104946994D01*
X174312428Y-105179305D01*
X174312426Y-105179309D01*
X174219921Y-105427326D01*
X174163658Y-105685965D01*
X174163657Y-105685972D01*
X174144773Y-105949998D01*
X174144773Y-105950001D01*
X166143750Y-105950001D01*
X165913748Y-104959224D01*
X165912349Y-104952308D01*
X165904452Y-104906597D01*
X165902845Y-104892575D01*
X165900200Y-104846230D01*
X165900000Y-104839198D01*
X165900000Y-100108125D01*
X165901061Y-100091940D01*
X165914906Y-99986776D01*
X165923284Y-99955508D01*
X165960740Y-99865081D01*
X165976923Y-99837050D01*
X166036513Y-99759392D01*
X166059392Y-99736513D01*
X166137050Y-99676923D01*
X166165079Y-99660740D01*
X166255509Y-99623283D01*
X166286775Y-99614906D01*
X166391941Y-99601061D01*
X166408126Y-99600000D01*
X185391874Y-99600000D01*
X185408058Y-99601061D01*
G37*
G04 #@! TD.AperFunction*
G04 #@! TA.AperFunction,Conductor*
G36*
X176651809Y-125119685D02*
G01*
X176697564Y-125172489D01*
X176707508Y-125241647D01*
X176706387Y-125248192D01*
X176700000Y-125280300D01*
X176700000Y-125550000D01*
X179800000Y-125550000D01*
X179800000Y-125280301D01*
X179799999Y-125280300D01*
X179793613Y-125248192D01*
X179799840Y-125178600D01*
X179842703Y-125123423D01*
X179908592Y-125100178D01*
X179915230Y-125100000D01*
X183887789Y-125100000D01*
X183911971Y-125102381D01*
X183952346Y-125110412D01*
X183997043Y-125128927D01*
X184020913Y-125144877D01*
X184055122Y-125179086D01*
X184071072Y-125202956D01*
X184089588Y-125247655D01*
X184097617Y-125288020D01*
X184100000Y-125312210D01*
X184100000Y-128287789D01*
X184097617Y-128311982D01*
X184089588Y-128352344D01*
X184071072Y-128397043D01*
X184055122Y-128420913D01*
X184020913Y-128455122D01*
X183997043Y-128471072D01*
X183952344Y-128489588D01*
X183935841Y-128492870D01*
X183911978Y-128497617D01*
X183887789Y-128500000D01*
X179915230Y-128500000D01*
X179848191Y-128480315D01*
X179802436Y-128427511D01*
X179792492Y-128358353D01*
X179793613Y-128351808D01*
X179799999Y-128319699D01*
X179800000Y-128319699D01*
X179800000Y-128050000D01*
X176700000Y-128050000D01*
X176700000Y-128319699D01*
X176706387Y-128351808D01*
X176700160Y-128421400D01*
X176657297Y-128476577D01*
X176591408Y-128499822D01*
X176584770Y-128500000D01*
X175912211Y-128500000D01*
X175888020Y-128497617D01*
X175872744Y-128494578D01*
X175847656Y-128489588D01*
X175802956Y-128471072D01*
X175779086Y-128455122D01*
X175744877Y-128420913D01*
X175728927Y-128397043D01*
X175710412Y-128352346D01*
X175702381Y-128311971D01*
X175700000Y-128287789D01*
X175700000Y-127550000D01*
X176700000Y-127550000D01*
X178000000Y-127550000D01*
X178000000Y-127100000D01*
X178500000Y-127100000D01*
X178500000Y-127550000D01*
X179800000Y-127550000D01*
X179800000Y-127280301D01*
X179799999Y-127280297D01*
X179788397Y-127221966D01*
X179788396Y-127221965D01*
X179744191Y-127155808D01*
X179678034Y-127111603D01*
X179678033Y-127111602D01*
X179619702Y-127100000D01*
X178500000Y-127100000D01*
X178000000Y-127100000D01*
X176880297Y-127100000D01*
X176821966Y-127111602D01*
X176821965Y-127111603D01*
X176755808Y-127155808D01*
X176711603Y-127221965D01*
X176711602Y-127221966D01*
X176700000Y-127280297D01*
X176700000Y-127550000D01*
X175700000Y-127550000D01*
X175700000Y-127524841D01*
X175719685Y-127457802D01*
X175748511Y-127426467D01*
X175792621Y-127392621D01*
X175880861Y-127277625D01*
X175936330Y-127143709D01*
X175955250Y-127000000D01*
X175936330Y-126856291D01*
X175880861Y-126722375D01*
X175792621Y-126607379D01*
X175792619Y-126607377D01*
X175792618Y-126607376D01*
X175748513Y-126573533D01*
X175707310Y-126517105D01*
X175700000Y-126475158D01*
X175700000Y-126050000D01*
X176700000Y-126050000D01*
X176700000Y-126319702D01*
X176711602Y-126378033D01*
X176711603Y-126378034D01*
X176755808Y-126444191D01*
X176821965Y-126488396D01*
X176821966Y-126488397D01*
X176880297Y-126499999D01*
X176880301Y-126500000D01*
X178000000Y-126500000D01*
X178000000Y-126050000D01*
X178500000Y-126050000D01*
X178500000Y-126500000D01*
X179619699Y-126500000D01*
X179619702Y-126499999D01*
X179678033Y-126488397D01*
X179678034Y-126488396D01*
X179744191Y-126444191D01*
X179788396Y-126378034D01*
X179788397Y-126378033D01*
X179799999Y-126319702D01*
X179800000Y-126319699D01*
X179800000Y-126050000D01*
X178500000Y-126050000D01*
X178000000Y-126050000D01*
X176700000Y-126050000D01*
X175700000Y-126050000D01*
X175700000Y-125312210D01*
X175702381Y-125288029D01*
X175710412Y-125247651D01*
X175728927Y-125202956D01*
X175744877Y-125179086D01*
X175779086Y-125144877D01*
X175802956Y-125128927D01*
X175847653Y-125110412D01*
X175888027Y-125102381D01*
X175912211Y-125100000D01*
X176584770Y-125100000D01*
X176651809Y-125119685D01*
G37*
G04 #@! TD.AperFunction*
G04 #@! TA.AperFunction,Conductor*
G36*
X134096691Y-120593907D02*
G01*
X134132655Y-120643407D01*
X134137500Y-120674000D01*
X134137500Y-125976000D01*
X134118593Y-126034191D01*
X134069093Y-126070155D01*
X134038500Y-126075000D01*
X131414206Y-126075000D01*
X131356015Y-126056093D01*
X131320051Y-126006593D01*
X131320051Y-125945407D01*
X131321176Y-125942142D01*
X131330604Y-125916236D01*
X131330607Y-125916228D01*
X131331299Y-125912305D01*
X131360026Y-125858282D01*
X131415020Y-125831463D01*
X131428794Y-125830500D01*
X131827921Y-125830500D01*
X131827927Y-125830500D01*
X131873202Y-125825451D01*
X131907156Y-125817782D01*
X131931289Y-125810755D01*
X132008339Y-125761485D01*
X132046246Y-125722972D01*
X132084185Y-125667861D01*
X132132756Y-125630653D01*
X132165730Y-125625000D01*
X132531707Y-125625000D01*
X132589898Y-125643907D01*
X132616645Y-125673143D01*
X132634683Y-125703271D01*
X132634685Y-125703274D01*
X132634686Y-125703275D01*
X132655767Y-125730975D01*
X132672179Y-125750003D01*
X132672180Y-125750003D01*
X132672183Y-125750007D01*
X132749009Y-125799625D01*
X132799789Y-125818107D01*
X132870073Y-125830500D01*
X132870074Y-125830500D01*
X133558498Y-125830500D01*
X133558500Y-125830500D01*
X133565663Y-125830187D01*
X133576411Y-125829718D01*
X133580149Y-125829390D01*
X133590126Y-125828518D01*
X133674968Y-125801768D01*
X133721768Y-125774748D01*
X133741493Y-125759806D01*
X133762505Y-125743892D01*
X133762507Y-125743890D01*
X133812121Y-125667071D01*
X133812121Y-125667068D01*
X133812125Y-125667064D01*
X133830607Y-125616284D01*
X133843000Y-125546000D01*
X133843000Y-121154000D01*
X133842218Y-121136092D01*
X133841018Y-121122374D01*
X133814268Y-121037532D01*
X133787248Y-120990732D01*
X133786512Y-120989760D01*
X133756392Y-120949994D01*
X133756390Y-120949992D01*
X133679571Y-120900378D01*
X133679566Y-120900376D01*
X133679564Y-120900375D01*
X133628784Y-120881893D01*
X133558502Y-120869500D01*
X133558500Y-120869500D01*
X131596291Y-120869500D01*
X131596287Y-120869500D01*
X131580016Y-120870145D01*
X131567524Y-120871138D01*
X131483914Y-120896407D01*
X131460351Y-120909515D01*
X131452852Y-120910984D01*
X131424219Y-120929385D01*
X131418825Y-120932614D01*
X131417850Y-120933156D01*
X131413121Y-120936517D01*
X131342831Y-120981688D01*
X131317202Y-120993392D01*
X131263126Y-121009271D01*
X131235233Y-121013282D01*
X131178874Y-121013282D01*
X131150981Y-121009271D01*
X131096901Y-120993391D01*
X131071271Y-120981686D01*
X131021957Y-120949994D01*
X131012112Y-120943667D01*
X130980696Y-120911238D01*
X130973511Y-120899237D01*
X130965653Y-120890168D01*
X130950420Y-120866465D01*
X130927003Y-120815190D01*
X130919064Y-120788153D01*
X130911044Y-120732367D01*
X130911044Y-120704195D01*
X130912441Y-120694489D01*
X130914142Y-120667718D01*
X130936703Y-120610846D01*
X130988384Y-120578094D01*
X131012943Y-120575000D01*
X134038500Y-120575000D01*
X134096691Y-120593907D01*
G37*
G04 #@! TD.AperFunction*
G04 #@! TA.AperFunction,Conductor*
G36*
X114259191Y-60969407D02*
G01*
X114295155Y-61018907D01*
X114300000Y-61049500D01*
X114300000Y-64575471D01*
X114300000Y-64805196D01*
X114281093Y-64863387D01*
X114271004Y-64875200D01*
X114246202Y-64900002D01*
X114246202Y-66499998D01*
X114271004Y-66524800D01*
X114298781Y-66579317D01*
X114300000Y-66594804D01*
X114300000Y-66933993D01*
X114281093Y-66992184D01*
X114271004Y-67003997D01*
X114265000Y-67010001D01*
X114265000Y-68789999D01*
X114265001Y-68790000D01*
X114270273Y-68790000D01*
X114019285Y-69127728D01*
X114004610Y-69155962D01*
X113999547Y-69187377D01*
X113999547Y-69254287D01*
X113999547Y-71093001D01*
X113999547Y-71384452D01*
X113991997Y-71422372D01*
X113985929Y-71437006D01*
X113946175Y-71483517D01*
X113932283Y-71490584D01*
X113917640Y-71496634D01*
X113879711Y-71504136D01*
X113122775Y-71503181D01*
X113064608Y-71484200D01*
X113028707Y-71434655D01*
X113023900Y-71404181D01*
X113023900Y-71081401D01*
X113023899Y-71081400D01*
X111176101Y-71081400D01*
X111176100Y-71081401D01*
X111176100Y-71401601D01*
X111157193Y-71459792D01*
X111107693Y-71495756D01*
X111076975Y-71500601D01*
X110719549Y-71500150D01*
X110681702Y-71492578D01*
X110667082Y-71486506D01*
X110620594Y-71446726D01*
X110613578Y-71432934D01*
X110607524Y-71418305D01*
X110600000Y-71380449D01*
X110600000Y-70869700D01*
X113350000Y-70869700D01*
X113361603Y-70928036D01*
X113405806Y-70994189D01*
X113405810Y-70994193D01*
X113471963Y-71038396D01*
X113530299Y-71049999D01*
X113530303Y-71050000D01*
X113724999Y-71050000D01*
X113725000Y-71049999D01*
X113725000Y-70375001D01*
X113724999Y-70375000D01*
X113350001Y-70375000D01*
X113350000Y-70375001D01*
X113350000Y-70869700D01*
X110600000Y-70869700D01*
X110600000Y-70731399D01*
X111176100Y-70731399D01*
X111176101Y-70731400D01*
X111924999Y-70731400D01*
X111925000Y-70731399D01*
X112275000Y-70731399D01*
X112275001Y-70731400D01*
X113023899Y-70731400D01*
X113023900Y-70731399D01*
X113023900Y-70327902D01*
X113023899Y-70327899D01*
X113012296Y-70269563D01*
X112968093Y-70203410D01*
X112968089Y-70203406D01*
X112901936Y-70159203D01*
X112843600Y-70147600D01*
X112275001Y-70147600D01*
X112275000Y-70147601D01*
X112275000Y-70731399D01*
X111925000Y-70731399D01*
X111925000Y-70147601D01*
X111924999Y-70147600D01*
X111356399Y-70147600D01*
X111298063Y-70159203D01*
X111231910Y-70203406D01*
X111231906Y-70203410D01*
X111187703Y-70269563D01*
X111176100Y-70327899D01*
X111176100Y-70731399D01*
X110600000Y-70731399D01*
X110600000Y-70024999D01*
X113350000Y-70024999D01*
X113350001Y-70025000D01*
X113724999Y-70025000D01*
X113725000Y-70024999D01*
X113725000Y-69350001D01*
X113724999Y-69350000D01*
X113530299Y-69350000D01*
X113471963Y-69361603D01*
X113405810Y-69405806D01*
X113405806Y-69405810D01*
X113361603Y-69471963D01*
X113350000Y-69530299D01*
X113350000Y-70024999D01*
X110600000Y-70024999D01*
X110600000Y-68609700D01*
X113430000Y-68609700D01*
X113441603Y-68668036D01*
X113485806Y-68734189D01*
X113485810Y-68734193D01*
X113551963Y-68778396D01*
X113610299Y-68789999D01*
X113610303Y-68790000D01*
X113914999Y-68790000D01*
X113915000Y-68789999D01*
X113915000Y-68075001D01*
X113914999Y-68075000D01*
X113430001Y-68075000D01*
X113430000Y-68075001D01*
X113430000Y-68609700D01*
X110600000Y-68609700D01*
X110600000Y-67724999D01*
X113430000Y-67724999D01*
X113430001Y-67725000D01*
X113914999Y-67725000D01*
X113915000Y-67724999D01*
X113915000Y-67010001D01*
X113914999Y-67010000D01*
X113610299Y-67010000D01*
X113551963Y-67021603D01*
X113485810Y-67065806D01*
X113485806Y-67065810D01*
X113441603Y-67131963D01*
X113430000Y-67190299D01*
X113430000Y-67724999D01*
X110600000Y-67724999D01*
X110600000Y-66319699D01*
X113368402Y-66319699D01*
X113380005Y-66378035D01*
X113424208Y-66444188D01*
X113424212Y-66444192D01*
X113490365Y-66488395D01*
X113548701Y-66499998D01*
X113548705Y-66499999D01*
X113896201Y-66499999D01*
X113896202Y-66499998D01*
X113896202Y-65875001D01*
X113896201Y-65875000D01*
X113368403Y-65875000D01*
X113368402Y-65875001D01*
X113368402Y-66319699D01*
X110600000Y-66319699D01*
X110600000Y-65524999D01*
X113368402Y-65524999D01*
X113368403Y-65525000D01*
X113896201Y-65525000D01*
X113896202Y-65524999D01*
X113896202Y-64900002D01*
X113896201Y-64900001D01*
X113548701Y-64900001D01*
X113490365Y-64911604D01*
X113424212Y-64955807D01*
X113424208Y-64955811D01*
X113380005Y-65021964D01*
X113368402Y-65080300D01*
X113368402Y-65524999D01*
X110600000Y-65524999D01*
X110600000Y-64200003D01*
X110830331Y-64200003D01*
X110848961Y-64389168D01*
X110848962Y-64389170D01*
X110904144Y-64571079D01*
X110904145Y-64571081D01*
X110993747Y-64738714D01*
X111002783Y-64749726D01*
X111334115Y-64418393D01*
X111410605Y-64537413D01*
X111521438Y-64633451D01*
X111585005Y-64662480D01*
X111250271Y-64997215D01*
X111261280Y-65006249D01*
X111261283Y-65006251D01*
X111428918Y-65095854D01*
X111428920Y-65095855D01*
X111610829Y-65151037D01*
X111610831Y-65151038D01*
X111799997Y-65169669D01*
X111800003Y-65169669D01*
X111989168Y-65151038D01*
X111989170Y-65151037D01*
X112171079Y-65095855D01*
X112171081Y-65095854D01*
X112338713Y-65006252D01*
X112338723Y-65006246D01*
X112349727Y-64997215D01*
X112014993Y-64662481D01*
X112078562Y-64633451D01*
X112189395Y-64537413D01*
X112265883Y-64418395D01*
X112597215Y-64749727D01*
X112606246Y-64738723D01*
X112606252Y-64738713D01*
X112695854Y-64571081D01*
X112695855Y-64571079D01*
X112751037Y-64389170D01*
X112751038Y-64389168D01*
X112754561Y-64353400D01*
X113501800Y-64353400D01*
X113513403Y-64411736D01*
X113557606Y-64477889D01*
X113557610Y-64477893D01*
X113623763Y-64522096D01*
X113682099Y-64533699D01*
X113682103Y-64533700D01*
X113971799Y-64533700D01*
X113971800Y-64533699D01*
X113971800Y-64043701D01*
X113971799Y-64043700D01*
X113501801Y-64043700D01*
X113501800Y-64043701D01*
X113501800Y-64353400D01*
X112754561Y-64353400D01*
X112769669Y-64200003D01*
X112769669Y-64199996D01*
X112751038Y-64010831D01*
X112751037Y-64010829D01*
X112695855Y-63828920D01*
X112695854Y-63828918D01*
X112623578Y-63693699D01*
X113501800Y-63693699D01*
X113501801Y-63693700D01*
X113971799Y-63693700D01*
X113971800Y-63693699D01*
X113971800Y-63203701D01*
X113971799Y-63203700D01*
X113682099Y-63203700D01*
X113623763Y-63215303D01*
X113557610Y-63259506D01*
X113557606Y-63259510D01*
X113513403Y-63325663D01*
X113501800Y-63383999D01*
X113501800Y-63693699D01*
X112623578Y-63693699D01*
X112606251Y-63661283D01*
X112606249Y-63661280D01*
X112597215Y-63650271D01*
X112265882Y-63981603D01*
X112189395Y-63862587D01*
X112078562Y-63766549D01*
X112014992Y-63737517D01*
X112349727Y-63402783D01*
X112338714Y-63393747D01*
X112171081Y-63304145D01*
X112171079Y-63304144D01*
X111989170Y-63248962D01*
X111989168Y-63248961D01*
X111800003Y-63230331D01*
X111799997Y-63230331D01*
X111610831Y-63248961D01*
X111610829Y-63248962D01*
X111428920Y-63304144D01*
X111428918Y-63304145D01*
X111261285Y-63393746D01*
X111261280Y-63393749D01*
X111250271Y-63402783D01*
X111585006Y-63737518D01*
X111521438Y-63766549D01*
X111410605Y-63862587D01*
X111334116Y-63981604D01*
X111002783Y-63650271D01*
X110993749Y-63661280D01*
X110993746Y-63661285D01*
X110904145Y-63828918D01*
X110904144Y-63828920D01*
X110848962Y-64010829D01*
X110848961Y-64010831D01*
X110830331Y-64199996D01*
X110830331Y-64200003D01*
X110600000Y-64200003D01*
X110600000Y-63749885D01*
X110601814Y-63731020D01*
X110603601Y-63721814D01*
X110617728Y-63686806D01*
X110622839Y-63678927D01*
X110634621Y-63664096D01*
X111692921Y-62566600D01*
X113437000Y-62566600D01*
X113448603Y-62624936D01*
X113492806Y-62691089D01*
X113492810Y-62691093D01*
X113558963Y-62735296D01*
X113617299Y-62746899D01*
X113617303Y-62746900D01*
X113969999Y-62746900D01*
X113970000Y-62746899D01*
X113970000Y-62125001D01*
X113969999Y-62125000D01*
X113437001Y-62125000D01*
X113437000Y-62125001D01*
X113437000Y-62566600D01*
X111692921Y-62566600D01*
X112456250Y-61774999D01*
X113437000Y-61774999D01*
X113437001Y-61775000D01*
X113969999Y-61775000D01*
X113970000Y-61774999D01*
X113970000Y-61153101D01*
X113969999Y-61153100D01*
X113617299Y-61153100D01*
X113558963Y-61164703D01*
X113492810Y-61208906D01*
X113492806Y-61208910D01*
X113448603Y-61275063D01*
X113437000Y-61333399D01*
X113437000Y-61774999D01*
X112456250Y-61774999D01*
X113222104Y-60980780D01*
X113276106Y-60952017D01*
X113293368Y-60950500D01*
X114201000Y-60950500D01*
X114259191Y-60969407D01*
G37*
G04 #@! TD.AperFunction*
G04 #@! TA.AperFunction,Conductor*
G36*
X155537117Y-130499531D02*
G01*
X155541528Y-130499564D01*
X155550335Y-130500022D01*
X155590303Y-130503894D01*
X155607625Y-130507149D01*
X155620544Y-130510791D01*
X155646270Y-130518046D01*
X155654619Y-130520807D01*
X156733903Y-130931963D01*
X157235577Y-131123077D01*
X157276859Y-131152784D01*
X157291313Y-131170396D01*
X157296263Y-131176427D01*
X157323572Y-131203736D01*
X157362290Y-131235510D01*
X157369079Y-131240046D01*
X157426868Y-131278660D01*
X157426870Y-131278661D01*
X157426873Y-131278663D01*
X157471046Y-131302274D01*
X157506733Y-131317056D01*
X157506737Y-131317057D01*
X157506739Y-131317058D01*
X157525904Y-131322871D01*
X157554661Y-131331595D01*
X157640591Y-131348688D01*
X157660048Y-131351574D01*
X157665363Y-131352363D01*
X157665373Y-131352364D01*
X157665398Y-131352368D01*
X157684712Y-131354270D01*
X157709752Y-131355500D01*
X157709768Y-131355500D01*
X164298713Y-131355500D01*
X164356904Y-131374407D01*
X164392868Y-131423907D01*
X164394340Y-131428876D01*
X164400000Y-131449999D01*
X164399999Y-131449999D01*
X164420095Y-131524997D01*
X164420096Y-131525000D01*
X164475000Y-131579904D01*
X164550000Y-131600000D01*
X167040365Y-131600000D01*
X167098556Y-131618907D01*
X167115147Y-131636163D01*
X167115154Y-131636157D01*
X167122045Y-131643048D01*
X167122048Y-131643052D01*
X167188369Y-131687367D01*
X167232831Y-131696211D01*
X167246841Y-131698998D01*
X167246846Y-131698998D01*
X167246852Y-131699000D01*
X167246853Y-131699000D01*
X168066654Y-131699000D01*
X168124845Y-131717907D01*
X168148968Y-131742997D01*
X168166224Y-131768822D01*
X168181005Y-131804507D01*
X168195664Y-131878203D01*
X168198098Y-131890436D01*
X168200000Y-131909751D01*
X168200000Y-132949194D01*
X168181093Y-133007385D01*
X168131593Y-133043349D01*
X168070407Y-133043349D01*
X168055371Y-133036989D01*
X167929093Y-132992802D01*
X167929094Y-132992802D01*
X167903400Y-132990392D01*
X167903400Y-134001000D01*
X167884493Y-134059191D01*
X167834993Y-134095155D01*
X167804400Y-134100000D01*
X166918401Y-134100000D01*
X166918400Y-134100001D01*
X166918400Y-134201000D01*
X166899493Y-134259191D01*
X166849993Y-134295155D01*
X166819400Y-134300000D01*
X157735222Y-134300000D01*
X157723616Y-134300679D01*
X157700243Y-134302046D01*
X157700236Y-134302047D01*
X157665747Y-134308155D01*
X155638275Y-134790887D01*
X155632436Y-134792091D01*
X155626168Y-134793190D01*
X155605636Y-134796787D01*
X155593784Y-134798134D01*
X155566619Y-134799571D01*
X155560650Y-134799706D01*
X145022549Y-134721063D01*
X143908215Y-134712747D01*
X143368260Y-134708717D01*
X143310213Y-134689377D01*
X143274620Y-134639610D01*
X143270000Y-134609721D01*
X143270000Y-134300001D01*
X143269999Y-134300000D01*
X142409000Y-134300000D01*
X142350809Y-134281093D01*
X142324804Y-134245300D01*
X152828700Y-134245300D01*
X152840303Y-134303636D01*
X152884506Y-134369789D01*
X152884510Y-134369793D01*
X152950663Y-134413996D01*
X153008999Y-134425599D01*
X153009003Y-134425600D01*
X153503399Y-134425600D01*
X153503400Y-134425599D01*
X154103400Y-134425599D01*
X154103401Y-134425600D01*
X154597797Y-134425600D01*
X154597800Y-134425599D01*
X154656136Y-134413996D01*
X154722289Y-134369793D01*
X154722293Y-134369789D01*
X154766496Y-134303636D01*
X154778099Y-134245300D01*
X154778100Y-134245297D01*
X154778100Y-133499999D01*
X166918400Y-133499999D01*
X166918401Y-133500000D01*
X167303399Y-133500000D01*
X167303400Y-133499999D01*
X167303400Y-132990392D01*
X167303399Y-132990392D01*
X167277705Y-132992802D01*
X167151796Y-133036860D01*
X167044474Y-133116067D01*
X167044467Y-133116074D01*
X166965260Y-133223396D01*
X166921203Y-133349301D01*
X166921202Y-133349308D01*
X166918400Y-133379188D01*
X166918400Y-133499999D01*
X154778100Y-133499999D01*
X154778100Y-133153100D01*
X164604900Y-133153100D01*
X164616503Y-133211436D01*
X164660706Y-133277589D01*
X164660710Y-133277593D01*
X164726863Y-133321796D01*
X164785199Y-133333399D01*
X164785203Y-133333400D01*
X165203399Y-133333400D01*
X165203400Y-133333399D01*
X165803400Y-133333399D01*
X165803401Y-133333400D01*
X166221597Y-133333400D01*
X166221600Y-133333399D01*
X166279936Y-133321796D01*
X166346089Y-133277593D01*
X166346093Y-133277589D01*
X166390296Y-133211436D01*
X166401899Y-133153100D01*
X166401900Y-133153097D01*
X166401900Y-132900001D01*
X166401899Y-132900000D01*
X165803401Y-132900000D01*
X165803400Y-132900001D01*
X165803400Y-133333399D01*
X165203400Y-133333399D01*
X165203400Y-132900001D01*
X165203399Y-132900000D01*
X164604901Y-132900000D01*
X164604900Y-132900001D01*
X164604900Y-133153100D01*
X154778100Y-133153100D01*
X154778100Y-132924500D01*
X159280300Y-132924500D01*
X159291903Y-132982836D01*
X159336106Y-133048989D01*
X159336110Y-133048993D01*
X159402263Y-133093196D01*
X159460599Y-133104799D01*
X159460603Y-133104800D01*
X159954999Y-133104800D01*
X159955000Y-133104799D01*
X160555000Y-133104799D01*
X160555001Y-133104800D01*
X161049397Y-133104800D01*
X161049400Y-133104799D01*
X161107736Y-133093196D01*
X161173889Y-133048993D01*
X161173893Y-133048989D01*
X161218096Y-132982836D01*
X161229699Y-132924500D01*
X161229700Y-132924497D01*
X161229700Y-132900001D01*
X161229699Y-132900000D01*
X160555001Y-132900000D01*
X160555000Y-132900001D01*
X160555000Y-133104799D01*
X159955000Y-133104799D01*
X159955000Y-132900001D01*
X159954999Y-132900000D01*
X159280301Y-132900000D01*
X159280300Y-132900001D01*
X159280300Y-132924500D01*
X154778100Y-132924500D01*
X154778100Y-132900001D01*
X154778099Y-132900000D01*
X154103401Y-132900000D01*
X154103400Y-132900001D01*
X154103400Y-134425599D01*
X153503400Y-134425599D01*
X153503400Y-132900001D01*
X153503399Y-132900000D01*
X152828701Y-132900000D01*
X152828700Y-132900001D01*
X152828700Y-134245300D01*
X142324804Y-134245300D01*
X142314845Y-134231593D01*
X142310000Y-134201000D01*
X142310000Y-133699999D01*
X142910000Y-133699999D01*
X142910001Y-133700000D01*
X143269999Y-133700000D01*
X143270000Y-133699999D01*
X143270000Y-133462282D01*
X149061980Y-133462282D01*
X149215001Y-133499999D01*
X149215009Y-133500000D01*
X149384991Y-133500000D01*
X149384995Y-133499999D01*
X149538016Y-133462281D01*
X149299999Y-133224264D01*
X149061980Y-133462282D01*
X143270000Y-133462282D01*
X143270000Y-133290302D01*
X143269999Y-133290299D01*
X143258396Y-133231963D01*
X143214193Y-133165810D01*
X143214189Y-133165806D01*
X143148036Y-133121603D01*
X143089700Y-133110000D01*
X142910001Y-133110000D01*
X142910000Y-133110001D01*
X142910000Y-133699999D01*
X142310000Y-133699999D01*
X142310000Y-133110001D01*
X142309999Y-133110000D01*
X142299000Y-133110000D01*
X142240809Y-133091093D01*
X142204845Y-133041593D01*
X142200000Y-133011000D01*
X142200000Y-132800001D01*
X148594859Y-132800001D01*
X148615348Y-132968749D01*
X148615349Y-132968750D01*
X148640546Y-133035188D01*
X148875735Y-132800000D01*
X148875734Y-132799999D01*
X149724264Y-132799999D01*
X149959453Y-133035188D01*
X149984650Y-132968753D01*
X150005141Y-132800001D01*
X150005141Y-132799998D01*
X149984650Y-132631246D01*
X149959453Y-132564809D01*
X149724264Y-132799999D01*
X148875734Y-132799999D01*
X148640546Y-132564811D01*
X148615349Y-132631249D01*
X148615348Y-132631250D01*
X148594859Y-132799998D01*
X148594859Y-132800001D01*
X142200000Y-132800001D01*
X142200000Y-132409700D01*
X142740000Y-132409700D01*
X142751603Y-132468036D01*
X142795806Y-132534189D01*
X142795810Y-132534193D01*
X142861963Y-132578396D01*
X142920299Y-132589999D01*
X142920303Y-132590000D01*
X143099999Y-132590000D01*
X143100000Y-132589999D01*
X143700000Y-132589999D01*
X143700001Y-132590000D01*
X143879697Y-132590000D01*
X143879700Y-132589999D01*
X143938036Y-132578396D01*
X144004189Y-132534193D01*
X144004193Y-132534189D01*
X144020355Y-132510002D01*
X150654353Y-132510002D01*
X150674834Y-132652456D01*
X150701846Y-132711603D01*
X150734623Y-132783373D01*
X150765429Y-132818925D01*
X150828873Y-132892144D01*
X150949942Y-132969950D01*
X150949947Y-132969953D01*
X151056403Y-133001211D01*
X151088035Y-133010499D01*
X151088036Y-133010499D01*
X151088039Y-133010500D01*
X151088041Y-133010500D01*
X151231959Y-133010500D01*
X151231961Y-133010500D01*
X151370053Y-132969953D01*
X151491128Y-132892143D01*
X151585377Y-132783373D01*
X151645165Y-132652457D01*
X151655813Y-132578396D01*
X151658458Y-132560000D01*
X162145395Y-132560000D01*
X162147804Y-132585697D01*
X162191860Y-132711603D01*
X162271067Y-132818925D01*
X162271074Y-132818932D01*
X162378396Y-132898139D01*
X162504301Y-132942196D01*
X162504308Y-132942197D01*
X162534188Y-132944999D01*
X162534192Y-132945000D01*
X162654999Y-132945000D01*
X162655000Y-132944999D01*
X163255000Y-132944999D01*
X163255001Y-132945000D01*
X163375808Y-132945000D01*
X163375811Y-132944999D01*
X163405691Y-132942197D01*
X163405698Y-132942196D01*
X163531603Y-132898139D01*
X163638925Y-132818932D01*
X163638932Y-132818925D01*
X163718139Y-132711603D01*
X163762195Y-132585697D01*
X163764605Y-132560000D01*
X163255001Y-132560000D01*
X163255000Y-132560001D01*
X163255000Y-132944999D01*
X162655000Y-132944999D01*
X162655000Y-132560001D01*
X162654999Y-132560000D01*
X162145395Y-132560000D01*
X151658458Y-132560000D01*
X151665647Y-132510002D01*
X151665647Y-132509997D01*
X151645165Y-132367543D01*
X151614318Y-132299999D01*
X152828700Y-132299999D01*
X152828701Y-132300000D01*
X153503399Y-132300000D01*
X153503400Y-132299999D01*
X154103400Y-132299999D01*
X154103401Y-132300000D01*
X154778099Y-132300000D01*
X154778100Y-132299999D01*
X159280300Y-132299999D01*
X159280301Y-132300000D01*
X159954999Y-132300000D01*
X159955000Y-132299999D01*
X160555000Y-132299999D01*
X160555001Y-132300000D01*
X161229699Y-132300000D01*
X161229700Y-132299999D01*
X164604900Y-132299999D01*
X164604901Y-132300000D01*
X165203399Y-132300000D01*
X165203400Y-132299999D01*
X165803400Y-132299999D01*
X165803401Y-132300000D01*
X166401899Y-132300000D01*
X166401900Y-132299999D01*
X166401900Y-132046902D01*
X166401899Y-132046899D01*
X166390296Y-131988563D01*
X166346093Y-131922410D01*
X166346089Y-131922406D01*
X166279936Y-131878203D01*
X166221600Y-131866600D01*
X165803401Y-131866600D01*
X165803400Y-131866601D01*
X165803400Y-132299999D01*
X165203400Y-132299999D01*
X165203400Y-131866601D01*
X165203399Y-131866600D01*
X164785199Y-131866600D01*
X164726863Y-131878203D01*
X164660710Y-131922406D01*
X164660706Y-131922410D01*
X164616503Y-131988563D01*
X164604900Y-132046899D01*
X164604900Y-132299999D01*
X161229700Y-132299999D01*
X161229700Y-132275502D01*
X161229699Y-132275499D01*
X161218096Y-132217163D01*
X161173893Y-132151010D01*
X161173889Y-132151006D01*
X161107736Y-132106803D01*
X161049400Y-132095200D01*
X160555001Y-132095200D01*
X160555000Y-132095201D01*
X160555000Y-132299999D01*
X159955000Y-132299999D01*
X159955000Y-132095201D01*
X159954999Y-132095200D01*
X159460599Y-132095200D01*
X159402263Y-132106803D01*
X159336110Y-132151006D01*
X159336106Y-132151010D01*
X159291903Y-132217163D01*
X159280300Y-132275499D01*
X159280300Y-132299999D01*
X154778100Y-132299999D01*
X154778100Y-131960000D01*
X162145395Y-131960000D01*
X162654999Y-131960000D01*
X162655000Y-131959999D01*
X163255000Y-131959999D01*
X163255001Y-131960000D01*
X163764605Y-131960000D01*
X163762195Y-131934302D01*
X163718139Y-131808396D01*
X163638932Y-131701074D01*
X163638925Y-131701067D01*
X163531603Y-131621860D01*
X163405698Y-131577803D01*
X163405691Y-131577802D01*
X163375811Y-131575000D01*
X163255001Y-131575000D01*
X163255000Y-131575001D01*
X163255000Y-131959999D01*
X162655000Y-131959999D01*
X162655000Y-131575001D01*
X162654999Y-131575000D01*
X162534188Y-131575000D01*
X162504308Y-131577802D01*
X162504301Y-131577803D01*
X162378396Y-131621860D01*
X162271074Y-131701067D01*
X162271067Y-131701074D01*
X162191860Y-131808396D01*
X162147804Y-131934302D01*
X162145395Y-131960000D01*
X154778100Y-131960000D01*
X154778100Y-130954702D01*
X154778099Y-130954699D01*
X154766496Y-130896363D01*
X154722293Y-130830210D01*
X154722289Y-130830206D01*
X154656136Y-130786003D01*
X154597800Y-130774400D01*
X154103401Y-130774400D01*
X154103400Y-130774401D01*
X154103400Y-132299999D01*
X153503400Y-132299999D01*
X153503400Y-130774401D01*
X153503399Y-130774400D01*
X153008999Y-130774400D01*
X152950663Y-130786003D01*
X152884510Y-130830206D01*
X152884506Y-130830210D01*
X152840303Y-130896363D01*
X152828700Y-130954699D01*
X152828700Y-132299999D01*
X151614318Y-132299999D01*
X151585377Y-132236627D01*
X151491128Y-132127857D01*
X151491127Y-132127856D01*
X151491126Y-132127855D01*
X151370057Y-132050049D01*
X151370054Y-132050047D01*
X151370053Y-132050047D01*
X151370050Y-132050046D01*
X151231964Y-132009500D01*
X151231961Y-132009500D01*
X151088039Y-132009500D01*
X151088035Y-132009500D01*
X150949949Y-132050046D01*
X150949942Y-132050049D01*
X150828873Y-132127855D01*
X150734622Y-132236628D01*
X150674834Y-132367543D01*
X150654353Y-132509997D01*
X150654353Y-132510002D01*
X144020355Y-132510002D01*
X144048396Y-132468036D01*
X144059999Y-132409700D01*
X144060000Y-132409697D01*
X144060000Y-132000001D01*
X144059999Y-132000000D01*
X143700001Y-132000000D01*
X143700000Y-132000001D01*
X143700000Y-132589999D01*
X143100000Y-132589999D01*
X143100000Y-132000001D01*
X143099999Y-132000000D01*
X142740001Y-132000000D01*
X142740000Y-132000001D01*
X142740000Y-132409700D01*
X142200000Y-132409700D01*
X142200000Y-131700002D01*
X146894353Y-131700002D01*
X146914834Y-131842456D01*
X146968515Y-131959999D01*
X146974623Y-131973373D01*
X147038333Y-132046899D01*
X147068873Y-132082144D01*
X147155345Y-132137716D01*
X147189947Y-132159953D01*
X147296403Y-132191211D01*
X147328035Y-132200499D01*
X147328036Y-132200499D01*
X147328039Y-132200500D01*
X147328041Y-132200500D01*
X147471959Y-132200500D01*
X147471961Y-132200500D01*
X147610053Y-132159953D01*
X147644655Y-132137716D01*
X149061981Y-132137716D01*
X149300000Y-132375735D01*
X149538017Y-132137717D01*
X149538017Y-132137716D01*
X149384997Y-132100000D01*
X149215002Y-132100000D01*
X149061981Y-132137716D01*
X147644655Y-132137716D01*
X147731128Y-132082143D01*
X147825377Y-131973373D01*
X147885165Y-131842457D01*
X147899465Y-131742997D01*
X147905647Y-131700002D01*
X147905647Y-131699997D01*
X147885165Y-131557543D01*
X147870303Y-131525000D01*
X147825377Y-131426627D01*
X147731128Y-131317857D01*
X147731127Y-131317856D01*
X147731126Y-131317855D01*
X147610057Y-131240049D01*
X147610054Y-131240047D01*
X147610053Y-131240047D01*
X147594605Y-131235511D01*
X147471964Y-131199500D01*
X147471961Y-131199500D01*
X147328039Y-131199500D01*
X147328035Y-131199500D01*
X147189949Y-131240046D01*
X147189942Y-131240049D01*
X147068873Y-131317855D01*
X146974622Y-131426628D01*
X146914834Y-131557543D01*
X146894353Y-131699997D01*
X146894353Y-131700002D01*
X142200000Y-131700002D01*
X142200000Y-131399999D01*
X142740000Y-131399999D01*
X142740001Y-131400000D01*
X143099999Y-131400000D01*
X143100000Y-131399999D01*
X143700000Y-131399999D01*
X143700001Y-131400000D01*
X144059999Y-131400000D01*
X144060000Y-131399999D01*
X144060000Y-130990302D01*
X144059999Y-130990299D01*
X144048396Y-130931963D01*
X144004193Y-130865810D01*
X144004189Y-130865806D01*
X143938036Y-130821603D01*
X143879700Y-130810000D01*
X143700001Y-130810000D01*
X143700000Y-130810001D01*
X143700000Y-131399999D01*
X143100000Y-131399999D01*
X143100000Y-130810001D01*
X143099999Y-130810000D01*
X142920299Y-130810000D01*
X142861963Y-130821603D01*
X142795810Y-130865806D01*
X142795806Y-130865810D01*
X142751603Y-130931963D01*
X142740000Y-130990299D01*
X142740000Y-131399999D01*
X142200000Y-131399999D01*
X142200000Y-130563097D01*
X142203405Y-130537356D01*
X142213200Y-130500980D01*
X142239055Y-130456455D01*
X142256167Y-130439471D01*
X142300874Y-130413954D01*
X142337333Y-130404427D01*
X142363086Y-130401216D01*
X155537117Y-130499531D01*
G37*
G04 #@! TD.AperFunction*
M02*
