G04 #@! TF.GenerationSoftware,KiCad,Pcbnew,7.0.10*
G04 #@! TF.CreationDate,2025-07-14T05:46:52-04:00*
G04 #@! TF.ProjectId,bms-board,626d732d-626f-4617-9264-2e6b69636164,rev?*
G04 #@! TF.SameCoordinates,Original*
G04 #@! TF.FileFunction,Soldermask,Bot*
G04 #@! TF.FilePolarity,Negative*
%FSLAX46Y46*%
G04 Gerber Fmt 4.6, Leading zero omitted, Abs format (unit mm)*
G04 Created by KiCad (PCBNEW 7.0.10) date 2025-07-14 05:46:52*
%MOMM*%
%LPD*%
G01*
G04 APERTURE LIST*
G04 Aperture macros list*
%AMRoundRect*
0 Rectangle with rounded corners*
0 $1 Rounding radius*
0 $2 $3 $4 $5 $6 $7 $8 $9 X,Y pos of 4 corners*
0 Add a 4 corners polygon primitive as box body*
4,1,4,$2,$3,$4,$5,$6,$7,$8,$9,$2,$3,0*
0 Add four circle primitives for the rounded corners*
1,1,$1+$1,$2,$3*
1,1,$1+$1,$4,$5*
1,1,$1+$1,$6,$7*
1,1,$1+$1,$8,$9*
0 Add four rect primitives between the rounded corners*
20,1,$1+$1,$2,$3,$4,$5,0*
20,1,$1+$1,$4,$5,$6,$7,0*
20,1,$1+$1,$6,$7,$8,$9,0*
20,1,$1+$1,$8,$9,$2,$3,0*%
%AMFreePoly0*
4,1,19,-3.850000,3.850000,3.850000,3.850000,3.850000,-3.080000,3.834092,-3.235708,3.777857,-3.405416,3.684000,-3.557581,3.557581,-3.684000,3.405416,-3.777857,3.235708,-3.834092,3.080000,-3.850000,-3.080000,-3.850000,-3.235708,-3.834092,-3.405416,-3.777857,-3.557581,-3.684000,-3.684000,-3.557581,-3.777857,-3.405416,-3.834092,-3.235708,-3.850000,-3.080000,-3.850000,3.850000,-3.850000,3.850000,
$1*%
G04 Aperture macros list end*
%ADD10C,1.600000*%
%ADD11C,1.750000*%
%ADD12R,1.700000X1.700000*%
%ADD13C,1.700000*%
%ADD14C,1.400000*%
%ADD15R,1.400000X1.400000*%
%ADD16C,1.854200*%
%ADD17C,1.752600*%
%ADD18R,4.050000X4.050000*%
%ADD19C,4.050000*%
%ADD20C,2.700000*%
%ADD21R,2.700000X1.000000*%
%ADD22R,3.800000X1.800000*%
%ADD23R,1.140000X0.600000*%
%ADD24R,1.140000X0.300000*%
%ADD25O,2.004000X1.204000*%
%ADD26O,2.404000X1.204000*%
%ADD27C,5.500000*%
%ADD28C,0.800000*%
%ADD29FreePoly0,90.000000*%
%ADD30O,1.700000X1.700000*%
%ADD31C,1.734000*%
%ADD32FreePoly0,270.000000*%
%ADD33R,1.300000X0.700000*%
%ADD34R,1.193800X1.016000*%
%ADD35R,1.600000X0.855600*%
%ADD36R,12.192000X3.022600*%
%ADD37R,1.066800X2.489200*%
%ADD38R,0.889000X0.863600*%
%ADD39C,1.000000*%
%ADD40R,1.524000X0.533400*%
%ADD41R,0.863600X0.889000*%
%ADD42RoundRect,0.102000X-0.690000X0.460000X-0.690000X-0.460000X0.690000X-0.460000X0.690000X0.460000X0*%
%ADD43R,2.489200X1.066800*%
%ADD44RoundRect,0.102000X0.735000X-0.580000X0.735000X0.580000X-0.735000X0.580000X-0.735000X-0.580000X0*%
%ADD45R,1.016000X1.193800*%
%ADD46RoundRect,0.500000X-29.650000X-1.650000X29.650000X-1.650000X29.650000X1.650000X-29.650000X1.650000X0*%
%ADD47R,0.977900X0.558800*%
%ADD48R,1.549400X0.609600*%
%ADD49R,1.549400X3.251200*%
%ADD50RoundRect,0.242500X-0.242500X-0.367500X0.242500X-0.367500X0.242500X0.367500X-0.242500X0.367500X0*%
%ADD51R,1.244600X0.863600*%
%ADD52RoundRect,0.102000X0.650000X0.750000X-0.650000X0.750000X-0.650000X-0.750000X0.650000X-0.750000X0*%
%ADD53R,1.066800X1.397000*%
%ADD54R,5.200000X8.750000*%
%ADD55RoundRect,0.102000X-0.600000X0.600000X-0.600000X-0.600000X0.600000X-0.600000X0.600000X0.600000X0*%
%ADD56C,1.404000*%
%ADD57R,1.447800X1.117600*%
%ADD58R,1.397000X1.066800*%
%ADD59R,1.700000X0.600000*%
%ADD60RoundRect,0.102000X0.465000X-0.445000X0.465000X0.445000X-0.465000X0.445000X-0.465000X-0.445000X0*%
%ADD61RoundRect,0.102000X-0.555000X-0.735000X0.555000X-0.735000X0.555000X0.735000X-0.555000X0.735000X0*%
%ADD62RoundRect,0.102000X-0.465000X0.445000X-0.465000X-0.445000X0.465000X-0.445000X0.465000X0.445000X0*%
%ADD63RoundRect,0.102000X0.460000X0.690000X-0.460000X0.690000X-0.460000X-0.690000X0.460000X-0.690000X0*%
%ADD64R,0.700000X1.300000*%
%ADD65RoundRect,0.102000X0.690000X-0.460000X0.690000X0.460000X-0.690000X0.460000X-0.690000X-0.460000X0*%
%ADD66R,1.449997X1.305598*%
%ADD67R,1.450000X0.950000*%
%ADD68RoundRect,0.242500X0.367500X-0.242500X0.367500X0.242500X-0.367500X0.242500X-0.367500X-0.242500X0*%
%ADD69R,1.400000X1.100000*%
%ADD70R,0.939800X1.244600*%
%ADD71RoundRect,0.102000X-0.460000X-0.690000X0.460000X-0.690000X0.460000X0.690000X-0.460000X0.690000X0*%
%ADD72RoundRect,0.102000X0.445000X0.465000X-0.445000X0.465000X-0.445000X-0.465000X0.445000X-0.465000X0*%
%ADD73R,0.600000X1.150000*%
%ADD74RoundRect,0.050000X0.387500X0.050000X-0.387500X0.050000X-0.387500X-0.050000X0.387500X-0.050000X0*%
%ADD75RoundRect,0.050000X0.050000X0.387500X-0.050000X0.387500X-0.050000X-0.387500X0.050000X-0.387500X0*%
%ADD76RoundRect,0.144000X1.456000X1.456000X-1.456000X1.456000X-1.456000X-1.456000X1.456000X-1.456000X0*%
%ADD77R,0.609600X1.320800*%
%ADD78R,0.889000X0.990600*%
%ADD79R,1.701800X0.558800*%
%ADD80R,1.005599X1.199998*%
%ADD81R,1.397000X0.863600*%
%ADD82RoundRect,0.102000X-0.650000X-0.750000X0.650000X-0.750000X0.650000X0.750000X-0.650000X0.750000X0*%
%ADD83R,1.320800X0.558800*%
%ADD84RoundRect,0.102000X-0.445000X-0.465000X0.445000X-0.465000X0.445000X0.465000X-0.445000X0.465000X0*%
%ADD85R,0.950000X1.450000*%
%ADD86R,0.350000X0.950000*%
%ADD87R,0.950000X0.350000*%
%ADD88R,1.350000X0.300000*%
%ADD89R,1.100000X3.400000*%
%ADD90R,2.700000X1.100000*%
%ADD91R,2.700000X1.520000*%
%ADD92R,1.730000X2.100000*%
%ADD93R,0.558800X1.320800*%
%ADD94RoundRect,0.500000X21.250000X1.650000X-21.250000X1.650000X-21.250000X-1.650000X21.250000X-1.650000X0*%
G04 APERTURE END LIST*
G36*
X154933700Y-134251000D02*
G01*
X152673100Y-134251000D01*
X152673100Y-130949000D01*
X154933700Y-130949000D01*
X154933700Y-134251000D01*
G37*
D10*
X145375750Y-52520000D03*
D11*
X147875750Y-52520000D03*
D12*
X147875750Y-59700000D03*
D13*
X145375750Y-59700000D03*
D10*
X123900000Y-52500000D03*
D11*
X126400000Y-52500000D03*
D12*
X126400000Y-59680000D03*
D13*
X123900000Y-59680000D03*
D14*
X95250000Y-54700000D03*
X95250000Y-57200000D03*
X95250000Y-59700000D03*
X95250000Y-62200000D03*
X95250000Y-64700000D03*
X95250000Y-67200000D03*
X95250000Y-69700000D03*
X95250000Y-72200000D03*
X95250000Y-74700000D03*
X95250000Y-77200000D03*
X95250000Y-79700000D03*
X95250000Y-82200000D03*
D15*
X95250000Y-84700000D03*
D16*
X89158098Y-133400000D03*
X89178097Y-125900000D03*
D17*
X98858098Y-125900000D03*
X98858098Y-128400000D03*
X98858098Y-130900000D03*
X98858098Y-133400000D03*
X96358098Y-125900000D03*
X96358098Y-128400000D03*
X96358098Y-130900000D03*
X96358098Y-133400000D03*
D18*
X106200000Y-140500000D03*
D19*
X113400000Y-140500000D03*
D20*
X103050000Y-146500000D03*
X116550000Y-146500000D03*
D10*
X126400000Y-145900000D03*
D11*
X123900000Y-145900000D03*
D12*
X123900000Y-138720000D03*
D13*
X126400000Y-138720000D03*
X147975750Y-138740000D03*
D12*
X145475750Y-138740000D03*
D11*
X145475750Y-145920000D03*
D10*
X147975750Y-145920000D03*
D20*
X168750000Y-146457500D03*
X155250000Y-146457500D03*
D19*
X165600000Y-140457500D03*
D18*
X158400000Y-140457500D03*
D21*
X178250000Y-125800000D03*
X178250000Y-127800000D03*
X178250000Y-129800000D03*
X178250000Y-131800000D03*
X178250000Y-133800000D03*
X178250000Y-135800000D03*
D22*
X182700000Y-123450000D03*
X182700000Y-138150000D03*
D23*
X178650000Y-113230000D03*
X178650000Y-114030000D03*
D24*
X178650000Y-115180000D03*
X178650000Y-116180000D03*
X178650000Y-116680000D03*
X178650000Y-117680000D03*
D23*
X178650000Y-119630000D03*
X178650000Y-118830000D03*
D24*
X178650000Y-118180000D03*
X178650000Y-117180000D03*
X178650000Y-115680000D03*
X178650000Y-114680000D03*
D25*
X179230000Y-112110000D03*
X179230000Y-120750000D03*
D26*
X183230000Y-112110000D03*
X183230000Y-120750000D03*
D10*
X182600000Y-64400000D03*
D11*
X182600000Y-69400000D03*
D12*
X175420000Y-69400000D03*
D13*
X175420000Y-66900000D03*
X175420000Y-64400000D03*
D20*
X155150000Y-51920000D03*
X168650000Y-51920000D03*
D19*
X158300000Y-57920000D03*
D18*
X165500000Y-57920000D03*
X113400000Y-57900000D03*
D19*
X106200000Y-57900000D03*
D20*
X116550000Y-51900000D03*
X103050000Y-51900000D03*
D27*
X151150000Y-114450000D03*
D28*
X86900000Y-107700000D03*
X88200000Y-107700000D03*
X89500000Y-107700000D03*
X90800000Y-107700000D03*
X92100000Y-107700000D03*
X93400000Y-107700000D03*
X86900000Y-106400000D03*
X88200000Y-106400000D03*
X89500000Y-106400000D03*
X90800000Y-106400000D03*
X92100000Y-106400000D03*
X93400000Y-106400000D03*
X86900000Y-105100000D03*
X88200000Y-105100000D03*
X89500000Y-105100000D03*
X90800000Y-105100000D03*
X92100000Y-105100000D03*
X93400000Y-105100000D03*
D29*
X90200000Y-104450000D03*
D28*
X86900000Y-103800000D03*
X88200000Y-103800000D03*
X89500000Y-103800000D03*
X90800000Y-103800000D03*
X92100000Y-103800000D03*
X93400000Y-103800000D03*
D18*
X102800000Y-102800000D03*
D28*
X86900000Y-102500000D03*
X88200000Y-102500000D03*
X89500000Y-102500000D03*
X90800000Y-102500000D03*
X92100000Y-102500000D03*
X93400000Y-102500000D03*
X86900000Y-101200000D03*
X88200000Y-101200000D03*
X89500000Y-101200000D03*
X90800000Y-101200000D03*
X92100000Y-101200000D03*
X93400000Y-101200000D03*
X86900000Y-97200000D03*
X88200000Y-97200000D03*
X89500000Y-97200000D03*
X90800000Y-97200000D03*
X92100000Y-97200000D03*
X93400000Y-97200000D03*
X86900000Y-95900000D03*
X88200000Y-95900000D03*
X89500000Y-95900000D03*
X90800000Y-95900000D03*
X92100000Y-95900000D03*
X93400000Y-95900000D03*
D19*
X102800000Y-95600000D03*
D28*
X86900000Y-94600000D03*
X88200000Y-94600000D03*
X89500000Y-94600000D03*
X90800000Y-94600000D03*
X92100000Y-94600000D03*
X93400000Y-94600000D03*
D29*
X90200000Y-93950000D03*
D28*
X86900000Y-93300000D03*
X88200000Y-93300000D03*
X89500000Y-93300000D03*
X90800000Y-93300000D03*
X92100000Y-93300000D03*
X93400000Y-93300000D03*
X86900000Y-92000000D03*
X88200000Y-92000000D03*
X89500000Y-92000000D03*
X90800000Y-92000000D03*
X92100000Y-92000000D03*
X93400000Y-92000000D03*
X86900000Y-90700000D03*
X88200000Y-90700000D03*
X89500000Y-90700000D03*
X90800000Y-90700000D03*
X92100000Y-90700000D03*
X93400000Y-90700000D03*
D20*
X96800000Y-92450000D03*
X96800000Y-105950000D03*
D27*
X180800000Y-54300000D03*
X120650000Y-83950000D03*
X151150000Y-83950000D03*
X180800000Y-144100000D03*
X91000000Y-144100000D03*
X120650000Y-114450000D03*
D12*
X131900000Y-145675000D03*
D30*
X131900000Y-143135000D03*
X134440000Y-145675000D03*
X134440000Y-143135000D03*
X136980000Y-145675000D03*
X136980000Y-143135000D03*
X139520000Y-145675000D03*
X139520000Y-143135000D03*
D31*
X150200000Y-72500000D03*
D28*
X185000000Y-89800000D03*
X183700000Y-89800000D03*
X182400000Y-89800000D03*
X181100000Y-89800000D03*
X179800000Y-89800000D03*
X178500000Y-89800000D03*
X185000000Y-91100000D03*
X183700000Y-91100000D03*
X182400000Y-91100000D03*
X181100000Y-91100000D03*
X179800000Y-91100000D03*
X178500000Y-91100000D03*
X185000000Y-92400000D03*
X183700000Y-92400000D03*
X182400000Y-92400000D03*
X181100000Y-92400000D03*
X179800000Y-92400000D03*
X178500000Y-92400000D03*
D32*
X181700000Y-93050000D03*
D28*
X185000000Y-93700000D03*
X183700000Y-93700000D03*
X182400000Y-93700000D03*
X181100000Y-93700000D03*
X179800000Y-93700000D03*
X178500000Y-93700000D03*
X185000000Y-95000000D03*
X183700000Y-95000000D03*
X182400000Y-95000000D03*
X181100000Y-95000000D03*
X179800000Y-95000000D03*
X178500000Y-95000000D03*
D18*
X170000000Y-95600000D03*
D28*
X185000000Y-96300000D03*
X183700000Y-96300000D03*
X182400000Y-96300000D03*
X181100000Y-96300000D03*
X179800000Y-96300000D03*
X178500000Y-96300000D03*
X185000000Y-102100000D03*
X183700000Y-102100000D03*
X182400000Y-102100000D03*
X181100000Y-102100000D03*
X179800000Y-102100000D03*
X178500000Y-102100000D03*
D19*
X170000000Y-102800000D03*
D28*
X185000000Y-103400000D03*
X183700000Y-103400000D03*
X182400000Y-103400000D03*
X181100000Y-103400000D03*
X179800000Y-103400000D03*
X178500000Y-103400000D03*
X185000000Y-104700000D03*
X183700000Y-104700000D03*
X182400000Y-104700000D03*
X181100000Y-104700000D03*
X179800000Y-104700000D03*
X178500000Y-104700000D03*
D32*
X181700000Y-105350000D03*
D28*
X185000000Y-106000000D03*
X183700000Y-106000000D03*
X182400000Y-106000000D03*
X181100000Y-106000000D03*
X179800000Y-106000000D03*
X178500000Y-106000000D03*
X185000000Y-107300000D03*
X183700000Y-107300000D03*
X182400000Y-107300000D03*
X181100000Y-107300000D03*
X179800000Y-107300000D03*
X178500000Y-107300000D03*
X185000000Y-108600000D03*
X183700000Y-108600000D03*
X182400000Y-108600000D03*
X181100000Y-108600000D03*
X179800000Y-108600000D03*
X178500000Y-108600000D03*
D20*
X176000000Y-92450000D03*
X176000000Y-105950000D03*
D33*
X123000000Y-126900000D03*
X123000000Y-128800000D03*
D34*
X115900000Y-79500000D03*
X115900000Y-81201800D03*
D12*
X111020000Y-132100000D03*
D30*
X113560000Y-132100000D03*
X116100000Y-132100000D03*
D35*
X134121800Y-69759400D03*
X134121800Y-66703798D03*
D36*
X133400000Y-74700000D03*
X133400000Y-89254200D03*
D33*
X142700000Y-118500000D03*
X142700000Y-120400000D03*
D37*
X155600000Y-63100000D03*
X158444800Y-63100000D03*
D38*
X127421800Y-69201000D03*
X127421800Y-67550000D03*
D39*
X131100000Y-59700000D03*
D40*
X145700000Y-111860000D03*
X145700000Y-113130000D03*
X145700000Y-114400000D03*
X145700000Y-115670000D03*
X138410200Y-115670000D03*
X138410200Y-114400000D03*
X138410200Y-113130000D03*
X138410200Y-111860000D03*
D41*
X136300000Y-111800000D03*
X134649000Y-111800000D03*
D37*
X155600000Y-70100000D03*
X158444800Y-70100000D03*
D42*
X116900000Y-124900000D03*
X116900000Y-126810000D03*
D41*
X126037500Y-120175000D03*
X124386500Y-120175000D03*
D43*
X147900000Y-75055200D03*
X147900000Y-77900000D03*
D44*
X118421800Y-76600000D03*
X118421800Y-74840000D03*
D45*
X177801800Y-84900000D03*
X176100000Y-84900000D03*
D43*
X151400000Y-75055200D03*
X151400000Y-77900000D03*
D46*
X136437500Y-95650000D03*
D47*
X174500000Y-129849999D03*
X174500000Y-130800000D03*
X174500000Y-131750001D03*
X171769500Y-131750001D03*
X171769500Y-130800000D03*
X171769500Y-129849999D03*
D39*
X153900000Y-128900000D03*
D48*
X160255000Y-130301300D03*
X160255000Y-132600000D03*
D49*
X153803400Y-132600000D03*
D48*
X160255000Y-134898700D03*
D31*
X126000000Y-107500000D03*
D39*
X176400000Y-114000000D03*
D42*
X133200000Y-59645000D03*
X133200000Y-61555000D03*
D50*
X167603400Y-133800000D03*
X170883400Y-133800000D03*
D37*
X120555200Y-91100000D03*
X123400000Y-91100000D03*
D51*
X115900000Y-82974700D03*
X115900000Y-84828900D03*
D38*
X135000000Y-113874500D03*
X135000000Y-115525500D03*
X113900000Y-119300000D03*
X113900000Y-117649000D03*
D52*
X135437500Y-133575000D03*
X133537500Y-133575000D03*
D53*
X169603400Y-130800000D03*
X167800000Y-130800000D03*
D54*
X109000000Y-104000000D03*
X119800000Y-104000000D03*
D55*
X145500000Y-65100000D03*
D56*
X145500000Y-70100000D03*
D35*
X136521800Y-69759400D03*
X136521800Y-66703798D03*
D51*
X113825000Y-79418400D03*
X113825000Y-81272600D03*
D41*
X172325400Y-82800000D03*
X173976400Y-82800000D03*
D45*
X114145000Y-61950000D03*
X115846800Y-61950000D03*
D57*
X112100000Y-70906400D03*
X112100000Y-72700000D03*
D33*
X147600000Y-123600000D03*
X147600000Y-121700000D03*
D37*
X155600000Y-66600000D03*
X158444800Y-66600000D03*
D58*
X167776400Y-84901700D03*
X167776400Y-83098300D03*
D33*
X159900000Y-85405500D03*
X159900000Y-83505500D03*
D39*
X125400000Y-128400000D03*
D59*
X180623751Y-75900000D03*
X180623751Y-77150000D03*
X180623751Y-78400000D03*
X180623751Y-79650000D03*
X180623751Y-80900000D03*
X180623751Y-82150000D03*
D21*
X183823751Y-74050000D03*
X183823751Y-84000000D03*
D60*
X110113000Y-119119000D03*
X110113000Y-117579000D03*
D34*
X112651600Y-74934900D03*
X112651600Y-76636700D03*
D45*
X146551800Y-117950000D03*
X144850000Y-117950000D03*
D61*
X120521800Y-74100000D03*
X122321800Y-74100000D03*
D62*
X128737500Y-116035000D03*
X128737500Y-117575000D03*
D39*
X145100000Y-123000000D03*
D41*
X140249000Y-127500000D03*
X141900000Y-127500000D03*
D45*
X117745000Y-61950000D03*
X119446800Y-61950000D03*
D38*
X173300000Y-76074500D03*
X173300000Y-77725500D03*
X115800000Y-118500000D03*
X115800000Y-116849000D03*
D63*
X140955000Y-59300000D03*
X139045000Y-59300000D03*
D39*
X111400000Y-124300000D03*
D35*
X131721800Y-69751000D03*
X131721800Y-66695398D03*
D38*
X133000000Y-114525500D03*
X133000000Y-112874500D03*
D37*
X150400000Y-91000000D03*
X147555200Y-91000000D03*
D43*
X144400000Y-75055200D03*
X144400000Y-77900000D03*
D39*
X161000000Y-107200000D03*
D34*
X129200000Y-113750900D03*
X129200000Y-112049100D03*
D64*
X113900000Y-70200000D03*
X115800000Y-70200000D03*
D33*
X157800000Y-85400000D03*
X157800000Y-83500000D03*
D64*
X169400000Y-121900000D03*
X167500000Y-121900000D03*
D39*
X140800000Y-136900000D03*
X165500000Y-135500000D03*
D60*
X92700000Y-122700000D03*
X92700000Y-121160000D03*
D63*
X137155000Y-59300000D03*
X135245000Y-59300000D03*
D39*
X152200000Y-127400000D03*
D53*
X171349000Y-74600000D03*
X169545600Y-74600000D03*
D60*
X112013000Y-118389000D03*
X112013000Y-116849000D03*
D33*
X162000000Y-85400000D03*
X162000000Y-83500000D03*
D65*
X105513000Y-119559000D03*
X105513000Y-117649000D03*
D41*
X138037500Y-120175000D03*
X139688500Y-120175000D03*
X171100000Y-76800000D03*
X169449000Y-76800000D03*
D66*
X129400000Y-69155598D03*
X129400000Y-67550000D03*
D67*
X107913000Y-118823500D03*
X107913000Y-116823500D03*
D68*
X162955000Y-135540000D03*
X162955000Y-132260000D03*
D34*
X107873900Y-113321700D03*
X107873900Y-115023500D03*
D41*
X149951000Y-88300000D03*
X148300000Y-88300000D03*
D38*
X121434400Y-62866100D03*
X121434400Y-64517100D03*
D41*
X124449000Y-123900000D03*
X126100000Y-123900000D03*
D69*
X133537500Y-137275000D03*
X131337500Y-137275000D03*
X131337500Y-135674998D03*
X133537500Y-135674998D03*
D70*
X168400002Y-66623200D03*
X171700000Y-66623200D03*
X171700000Y-71500000D03*
X168400002Y-71500000D03*
D39*
X163500000Y-106100000D03*
D71*
X114090000Y-67900000D03*
X116000000Y-67900000D03*
D47*
X177930500Y-78049999D03*
X177930500Y-79000000D03*
X177930500Y-79950001D03*
X175200000Y-79950001D03*
X175200000Y-79000000D03*
X175200000Y-78049999D03*
X174165250Y-115449999D03*
X174165250Y-116400000D03*
X174165250Y-117350001D03*
X171434750Y-117350001D03*
X171434750Y-116400000D03*
X171434750Y-115449999D03*
D72*
X115686800Y-63868700D03*
X114146800Y-63868700D03*
D39*
X149300000Y-132800000D03*
D38*
X169976400Y-84725500D03*
X169976400Y-83074500D03*
D31*
X111800000Y-64200000D03*
D73*
X167550000Y-125000000D03*
X169450000Y-125000000D03*
X168500000Y-127300000D03*
D74*
X134837500Y-120737500D03*
X134837500Y-121137500D03*
X134837500Y-121537500D03*
X134837500Y-121937500D03*
X134837500Y-122337500D03*
X134837500Y-122737500D03*
X134837500Y-123137500D03*
X134837500Y-123537500D03*
X134837500Y-123937500D03*
X134837500Y-124337500D03*
X134837500Y-124737500D03*
X134837500Y-125137500D03*
X134837500Y-125537500D03*
X134837500Y-125937500D03*
D75*
X134000000Y-126775000D03*
X133600000Y-126775000D03*
X133200000Y-126775000D03*
X132800000Y-126775000D03*
X132400000Y-126775000D03*
X132000000Y-126775000D03*
X131600000Y-126775000D03*
X131200000Y-126775000D03*
X130800000Y-126775000D03*
X130400000Y-126775000D03*
X130000000Y-126775000D03*
X129600000Y-126775000D03*
X129200000Y-126775000D03*
X128800000Y-126775000D03*
D74*
X127962500Y-125937500D03*
X127962500Y-125537500D03*
X127962500Y-125137500D03*
X127962500Y-124737500D03*
X127962500Y-124337500D03*
X127962500Y-123937500D03*
X127962500Y-123537500D03*
X127962500Y-123137500D03*
X127962500Y-122737500D03*
X127962500Y-122337500D03*
X127962500Y-121937500D03*
X127962500Y-121537500D03*
X127962500Y-121137500D03*
X127962500Y-120737500D03*
D75*
X128800000Y-119900000D03*
X129200000Y-119900000D03*
X129600000Y-119900000D03*
X130000000Y-119900000D03*
X130400000Y-119900000D03*
X130800000Y-119900000D03*
X131200000Y-119900000D03*
X131600000Y-119900000D03*
X132000000Y-119900000D03*
X132400000Y-119900000D03*
X132800000Y-119900000D03*
X133200000Y-119900000D03*
X133600000Y-119900000D03*
X134000000Y-119900000D03*
D76*
X131400000Y-123337500D03*
D65*
X114100000Y-124310000D03*
X114100000Y-122400000D03*
D77*
X94849999Y-120384800D03*
X96750001Y-120384800D03*
X95800000Y-122415200D03*
D58*
X165503400Y-130796600D03*
X165503400Y-132600000D03*
D39*
X146700000Y-129100000D03*
X100600000Y-122100000D03*
D67*
X88100000Y-115400000D03*
X88100000Y-117400000D03*
D42*
X119600000Y-125890000D03*
X119600000Y-127800000D03*
D34*
X131637500Y-131575000D03*
X131637500Y-129873200D03*
D33*
X155650000Y-85400000D03*
X155650000Y-83500000D03*
D78*
X110050002Y-129100002D03*
X114149998Y-129100002D03*
X110050002Y-127500000D03*
X114149998Y-127500000D03*
D79*
X112100000Y-129725002D03*
D80*
X114071202Y-65700000D03*
X115776800Y-65700000D03*
D39*
X152200000Y-123900000D03*
D81*
X111425000Y-81457100D03*
X111425000Y-79399700D03*
D71*
X141490000Y-131700000D03*
X143400000Y-131700000D03*
D34*
X131100000Y-113750900D03*
X131100000Y-112049100D03*
D43*
X154900000Y-75050400D03*
X154900000Y-77895200D03*
D82*
X129437500Y-133575000D03*
X131337500Y-133575000D03*
D34*
X114596800Y-74936700D03*
X114596800Y-76638500D03*
D71*
X140700000Y-134000000D03*
X142610000Y-134000000D03*
D39*
X153900000Y-125900000D03*
D83*
X171571800Y-78849999D03*
X171571800Y-79800000D03*
X171571800Y-80750001D03*
X168981000Y-80750001D03*
X168981000Y-79800000D03*
X168981000Y-78849999D03*
D39*
X105900000Y-123200000D03*
D38*
X125324400Y-63140600D03*
X125324400Y-64791600D03*
D84*
X125260000Y-118000000D03*
X126800000Y-118000000D03*
D67*
X88100000Y-119400000D03*
X88100000Y-121400000D03*
D85*
X172050900Y-85000000D03*
X174050900Y-85000000D03*
D78*
X153650000Y-120199998D03*
X149550004Y-120199998D03*
X153650000Y-121800000D03*
X149550004Y-121800000D03*
D79*
X151600002Y-119574998D03*
D86*
X121649400Y-66266600D03*
X122299400Y-66266600D03*
X122949400Y-66266600D03*
X123599400Y-66266600D03*
X124599400Y-66266600D03*
X125099400Y-66266600D03*
D87*
X125874400Y-67271600D03*
X125874400Y-67921600D03*
X125874400Y-69051600D03*
X125874400Y-69551600D03*
X125874400Y-70051600D03*
D86*
X125249400Y-71316600D03*
X124749400Y-71316600D03*
X124249400Y-71316600D03*
D88*
X124749400Y-70991600D03*
D86*
X123599400Y-71316600D03*
X123099400Y-71316600D03*
X122599400Y-71316600D03*
X122099400Y-71316600D03*
X121599400Y-71316600D03*
D87*
X120824400Y-70541600D03*
X120824400Y-70041600D03*
X120824400Y-69541600D03*
X120824400Y-69041600D03*
X120824400Y-68541600D03*
X120824400Y-68041600D03*
X120824400Y-67541600D03*
X120824400Y-67041600D03*
D89*
X122149400Y-68791600D03*
D90*
X124349400Y-67591600D03*
D91*
X124349400Y-69201600D03*
D92*
X124834400Y-69491600D03*
D65*
X105513000Y-115749000D03*
X105513000Y-113839000D03*
D39*
X144600000Y-89400000D03*
D45*
X125498200Y-111600000D03*
X127200000Y-111600000D03*
D39*
X152200000Y-136200000D03*
D93*
X124949999Y-113784000D03*
X126850001Y-113784000D03*
X125900000Y-115682650D03*
D60*
X123824400Y-64791600D03*
X123824400Y-63163600D03*
D94*
X144987500Y-102650000D03*
D68*
X173600000Y-122680000D03*
X173600000Y-119400000D03*
M02*
