%TF.GenerationSoftware,KiCad,Pcbnew,7.0.10*%
%TF.CreationDate,2025-07-14T05:47:37-04:00*%
%TF.ProjectId,bms-board,626d732d-626f-4617-9264-2e6b69636164,rev?*%
%TF.SameCoordinates,Original*%
%TF.FileFunction,Drillmap*%
%TF.FilePolarity,Positive*%
%FSLAX45Y45*%
G04 Gerber Fmt 4.5, Leading zero omitted, Abs format (unit mm)*
G04 Created by KiCad (PCBNEW 7.0.10) date 2025-07-14 05:47:37*
%MOMM*%
%LPD*%
G01*
G04 APERTURE LIST*
%ADD10C,0.100000*%
%ADD11C,0.200000*%
%ADD12C,0.160000*%
%ADD13C,0.175000*%
%ADD14C,0.185420*%
G04 APERTURE END LIST*
D10*
X8590000Y-14620000D02*
X8590000Y-5220000D01*
X8889933Y-4919999D02*
G75*
G03*
X8589933Y-5219933I-4J-299996D01*
G01*
X18290000Y-14920000D02*
G75*
G03*
X18590000Y-14620000I0J300000D01*
G01*
X18290000Y-14920000D02*
X8890000Y-14920000D01*
X18590000Y-5220000D02*
X18590000Y-14620000D01*
X8590000Y-14620000D02*
G75*
G03*
X8890000Y-14920000I300000J0D01*
G01*
X18590000Y-5220000D02*
G75*
G03*
X18290000Y-4920000I-300000J0D01*
G01*
X8889933Y-4920000D02*
X18290000Y-4920000D01*
D11*
D12*
X12310000Y-5170000D02*
X12470000Y-5330000D01*
X12470000Y-5170000D02*
X12310000Y-5330000D01*
X12560000Y-14510000D02*
X12720000Y-14670000D01*
X12720000Y-14510000D02*
X12560000Y-14670000D01*
X14457575Y-5172000D02*
X14617575Y-5332000D01*
X14617575Y-5172000D02*
X14457575Y-5332000D01*
X14717575Y-14512000D02*
X14877575Y-14672000D01*
X14877575Y-14512000D02*
X14717575Y-14672000D01*
X18180000Y-6360000D02*
X18340000Y-6520000D01*
X18340000Y-6360000D02*
X18180000Y-6520000D01*
D13*
X12477500Y-14590000D02*
G75*
G03*
X12302500Y-14590000I-87500J0D01*
G01*
X12302500Y-14590000D02*
G75*
G03*
X12477500Y-14590000I87500J0D01*
G01*
X12727500Y-5250000D02*
G75*
G03*
X12552500Y-5250000I-87500J0D01*
G01*
X12552500Y-5250000D02*
G75*
G03*
X12727500Y-5250000I87500J0D01*
G01*
X14635075Y-14592000D02*
G75*
G03*
X14460075Y-14592000I-87500J0D01*
G01*
X14460075Y-14592000D02*
G75*
G03*
X14635075Y-14592000I87500J0D01*
G01*
X14875075Y-5252000D02*
G75*
G03*
X14700075Y-5252000I-87500J0D01*
G01*
X14700075Y-5252000D02*
G75*
G03*
X14875075Y-5252000I87500J0D01*
G01*
X18347500Y-6940000D02*
G75*
G03*
X18172500Y-6940000I-87500J0D01*
G01*
X18172500Y-6940000D02*
G75*
G03*
X18347500Y-6940000I87500J0D01*
G01*
D14*
X8915810Y-13247290D02*
X8915810Y-13432710D01*
X8823100Y-13340000D02*
X9008520Y-13340000D01*
X8917810Y-12497290D02*
X8917810Y-12682710D01*
X8825100Y-12590000D02*
X9010520Y-12590000D01*
D11*
X8845710Y-15236484D02*
X8845710Y-15036484D01*
X8845710Y-15036484D02*
X8893329Y-15036484D01*
X8893329Y-15036484D02*
X8921901Y-15046008D01*
X8921901Y-15046008D02*
X8940948Y-15065055D01*
X8940948Y-15065055D02*
X8950472Y-15084103D01*
X8950472Y-15084103D02*
X8959996Y-15122198D01*
X8959996Y-15122198D02*
X8959996Y-15150769D01*
X8959996Y-15150769D02*
X8950472Y-15188865D01*
X8950472Y-15188865D02*
X8940948Y-15207912D01*
X8940948Y-15207912D02*
X8921901Y-15226960D01*
X8921901Y-15226960D02*
X8893329Y-15236484D01*
X8893329Y-15236484D02*
X8845710Y-15236484D01*
X9045710Y-15236484D02*
X9045710Y-15103150D01*
X9045710Y-15141246D02*
X9055234Y-15122198D01*
X9055234Y-15122198D02*
X9064758Y-15112674D01*
X9064758Y-15112674D02*
X9083805Y-15103150D01*
X9083805Y-15103150D02*
X9102853Y-15103150D01*
X9169520Y-15236484D02*
X9169520Y-15103150D01*
X9169520Y-15036484D02*
X9159996Y-15046008D01*
X9159996Y-15046008D02*
X9169520Y-15055531D01*
X9169520Y-15055531D02*
X9179044Y-15046008D01*
X9179044Y-15046008D02*
X9169520Y-15036484D01*
X9169520Y-15036484D02*
X9169520Y-15055531D01*
X9293329Y-15236484D02*
X9274282Y-15226960D01*
X9274282Y-15226960D02*
X9264758Y-15207912D01*
X9264758Y-15207912D02*
X9264758Y-15036484D01*
X9398091Y-15236484D02*
X9379044Y-15226960D01*
X9379044Y-15226960D02*
X9369520Y-15207912D01*
X9369520Y-15207912D02*
X9369520Y-15036484D01*
X9626663Y-15236484D02*
X9626663Y-15036484D01*
X9626663Y-15036484D02*
X9693329Y-15179341D01*
X9693329Y-15179341D02*
X9759996Y-15036484D01*
X9759996Y-15036484D02*
X9759996Y-15236484D01*
X9940948Y-15236484D02*
X9940948Y-15131722D01*
X9940948Y-15131722D02*
X9931425Y-15112674D01*
X9931425Y-15112674D02*
X9912377Y-15103150D01*
X9912377Y-15103150D02*
X9874282Y-15103150D01*
X9874282Y-15103150D02*
X9855234Y-15112674D01*
X9940948Y-15226960D02*
X9921901Y-15236484D01*
X9921901Y-15236484D02*
X9874282Y-15236484D01*
X9874282Y-15236484D02*
X9855234Y-15226960D01*
X9855234Y-15226960D02*
X9845710Y-15207912D01*
X9845710Y-15207912D02*
X9845710Y-15188865D01*
X9845710Y-15188865D02*
X9855234Y-15169817D01*
X9855234Y-15169817D02*
X9874282Y-15160293D01*
X9874282Y-15160293D02*
X9921901Y-15160293D01*
X9921901Y-15160293D02*
X9940948Y-15150769D01*
X10036186Y-15103150D02*
X10036186Y-15303150D01*
X10036186Y-15112674D02*
X10055234Y-15103150D01*
X10055234Y-15103150D02*
X10093329Y-15103150D01*
X10093329Y-15103150D02*
X10112377Y-15112674D01*
X10112377Y-15112674D02*
X10121901Y-15122198D01*
X10121901Y-15122198D02*
X10131425Y-15141246D01*
X10131425Y-15141246D02*
X10131425Y-15198388D01*
X10131425Y-15198388D02*
X10121901Y-15217436D01*
X10121901Y-15217436D02*
X10112377Y-15226960D01*
X10112377Y-15226960D02*
X10093329Y-15236484D01*
X10093329Y-15236484D02*
X10055234Y-15236484D01*
X10055234Y-15236484D02*
X10036186Y-15226960D01*
X10217139Y-15217436D02*
X10226663Y-15226960D01*
X10226663Y-15226960D02*
X10217139Y-15236484D01*
X10217139Y-15236484D02*
X10207615Y-15226960D01*
X10207615Y-15226960D02*
X10217139Y-15217436D01*
X10217139Y-15217436D02*
X10217139Y-15236484D01*
X10217139Y-15112674D02*
X10226663Y-15122198D01*
X10226663Y-15122198D02*
X10217139Y-15131722D01*
X10217139Y-15131722D02*
X10207615Y-15122198D01*
X10207615Y-15122198D02*
X10217139Y-15112674D01*
X10217139Y-15112674D02*
X10217139Y-15131722D01*
D12*
X8424933Y-15485000D02*
X8584933Y-15645000D01*
X8584933Y-15485000D02*
X8424933Y-15645000D01*
D11*
X8950472Y-15656484D02*
X8836186Y-15656484D01*
X8893329Y-15656484D02*
X8893329Y-15456484D01*
X8893329Y-15456484D02*
X8874282Y-15485055D01*
X8874282Y-15485055D02*
X8855234Y-15504103D01*
X8855234Y-15504103D02*
X8836186Y-15513627D01*
X9036186Y-15637436D02*
X9045710Y-15646960D01*
X9045710Y-15646960D02*
X9036186Y-15656484D01*
X9036186Y-15656484D02*
X9026663Y-15646960D01*
X9026663Y-15646960D02*
X9036186Y-15637436D01*
X9036186Y-15637436D02*
X9036186Y-15656484D01*
X9217139Y-15456484D02*
X9179044Y-15456484D01*
X9179044Y-15456484D02*
X9159996Y-15466008D01*
X9159996Y-15466008D02*
X9150472Y-15475531D01*
X9150472Y-15475531D02*
X9131425Y-15504103D01*
X9131425Y-15504103D02*
X9121901Y-15542198D01*
X9121901Y-15542198D02*
X9121901Y-15618388D01*
X9121901Y-15618388D02*
X9131425Y-15637436D01*
X9131425Y-15637436D02*
X9140948Y-15646960D01*
X9140948Y-15646960D02*
X9159996Y-15656484D01*
X9159996Y-15656484D02*
X9198091Y-15656484D01*
X9198091Y-15656484D02*
X9217139Y-15646960D01*
X9217139Y-15646960D02*
X9226663Y-15637436D01*
X9226663Y-15637436D02*
X9236186Y-15618388D01*
X9236186Y-15618388D02*
X9236186Y-15570769D01*
X9236186Y-15570769D02*
X9226663Y-15551722D01*
X9226663Y-15551722D02*
X9217139Y-15542198D01*
X9217139Y-15542198D02*
X9198091Y-15532674D01*
X9198091Y-15532674D02*
X9159996Y-15532674D01*
X9159996Y-15532674D02*
X9140948Y-15542198D01*
X9140948Y-15542198D02*
X9131425Y-15551722D01*
X9131425Y-15551722D02*
X9121901Y-15570769D01*
X9359996Y-15456484D02*
X9379044Y-15456484D01*
X9379044Y-15456484D02*
X9398091Y-15466008D01*
X9398091Y-15466008D02*
X9407615Y-15475531D01*
X9407615Y-15475531D02*
X9417139Y-15494579D01*
X9417139Y-15494579D02*
X9426663Y-15532674D01*
X9426663Y-15532674D02*
X9426663Y-15580293D01*
X9426663Y-15580293D02*
X9417139Y-15618388D01*
X9417139Y-15618388D02*
X9407615Y-15637436D01*
X9407615Y-15637436D02*
X9398091Y-15646960D01*
X9398091Y-15646960D02*
X9379044Y-15656484D01*
X9379044Y-15656484D02*
X9359996Y-15656484D01*
X9359996Y-15656484D02*
X9340948Y-15646960D01*
X9340948Y-15646960D02*
X9331425Y-15637436D01*
X9331425Y-15637436D02*
X9321901Y-15618388D01*
X9321901Y-15618388D02*
X9312377Y-15580293D01*
X9312377Y-15580293D02*
X9312377Y-15532674D01*
X9312377Y-15532674D02*
X9321901Y-15494579D01*
X9321901Y-15494579D02*
X9331425Y-15475531D01*
X9331425Y-15475531D02*
X9340948Y-15466008D01*
X9340948Y-15466008D02*
X9359996Y-15456484D01*
X9550472Y-15456484D02*
X9569520Y-15456484D01*
X9569520Y-15456484D02*
X9588567Y-15466008D01*
X9588567Y-15466008D02*
X9598091Y-15475531D01*
X9598091Y-15475531D02*
X9607615Y-15494579D01*
X9607615Y-15494579D02*
X9617139Y-15532674D01*
X9617139Y-15532674D02*
X9617139Y-15580293D01*
X9617139Y-15580293D02*
X9607615Y-15618388D01*
X9607615Y-15618388D02*
X9598091Y-15637436D01*
X9598091Y-15637436D02*
X9588567Y-15646960D01*
X9588567Y-15646960D02*
X9569520Y-15656484D01*
X9569520Y-15656484D02*
X9550472Y-15656484D01*
X9550472Y-15656484D02*
X9531425Y-15646960D01*
X9531425Y-15646960D02*
X9521901Y-15637436D01*
X9521901Y-15637436D02*
X9512377Y-15618388D01*
X9512377Y-15618388D02*
X9502853Y-15580293D01*
X9502853Y-15580293D02*
X9502853Y-15532674D01*
X9502853Y-15532674D02*
X9512377Y-15494579D01*
X9512377Y-15494579D02*
X9521901Y-15475531D01*
X9521901Y-15475531D02*
X9531425Y-15466008D01*
X9531425Y-15466008D02*
X9550472Y-15456484D01*
X9702853Y-15656484D02*
X9702853Y-15523150D01*
X9702853Y-15542198D02*
X9712377Y-15532674D01*
X9712377Y-15532674D02*
X9731425Y-15523150D01*
X9731425Y-15523150D02*
X9759996Y-15523150D01*
X9759996Y-15523150D02*
X9779044Y-15532674D01*
X9779044Y-15532674D02*
X9788567Y-15551722D01*
X9788567Y-15551722D02*
X9788567Y-15656484D01*
X9788567Y-15551722D02*
X9798091Y-15532674D01*
X9798091Y-15532674D02*
X9817139Y-15523150D01*
X9817139Y-15523150D02*
X9845710Y-15523150D01*
X9845710Y-15523150D02*
X9864758Y-15532674D01*
X9864758Y-15532674D02*
X9874282Y-15551722D01*
X9874282Y-15551722D02*
X9874282Y-15656484D01*
X9969520Y-15656484D02*
X9969520Y-15523150D01*
X9969520Y-15542198D02*
X9979044Y-15532674D01*
X9979044Y-15532674D02*
X9998091Y-15523150D01*
X9998091Y-15523150D02*
X10026663Y-15523150D01*
X10026663Y-15523150D02*
X10045710Y-15532674D01*
X10045710Y-15532674D02*
X10055234Y-15551722D01*
X10055234Y-15551722D02*
X10055234Y-15656484D01*
X10055234Y-15551722D02*
X10064758Y-15532674D01*
X10064758Y-15532674D02*
X10083806Y-15523150D01*
X10083806Y-15523150D02*
X10112377Y-15523150D01*
X10112377Y-15523150D02*
X10131425Y-15532674D01*
X10131425Y-15532674D02*
X10140948Y-15551722D01*
X10140948Y-15551722D02*
X10140948Y-15656484D01*
X10531425Y-15446960D02*
X10359996Y-15704103D01*
X10788568Y-15456484D02*
X10807615Y-15456484D01*
X10807615Y-15456484D02*
X10826663Y-15466008D01*
X10826663Y-15466008D02*
X10836187Y-15475531D01*
X10836187Y-15475531D02*
X10845710Y-15494579D01*
X10845710Y-15494579D02*
X10855234Y-15532674D01*
X10855234Y-15532674D02*
X10855234Y-15580293D01*
X10855234Y-15580293D02*
X10845710Y-15618388D01*
X10845710Y-15618388D02*
X10836187Y-15637436D01*
X10836187Y-15637436D02*
X10826663Y-15646960D01*
X10826663Y-15646960D02*
X10807615Y-15656484D01*
X10807615Y-15656484D02*
X10788568Y-15656484D01*
X10788568Y-15656484D02*
X10769520Y-15646960D01*
X10769520Y-15646960D02*
X10759996Y-15637436D01*
X10759996Y-15637436D02*
X10750472Y-15618388D01*
X10750472Y-15618388D02*
X10740949Y-15580293D01*
X10740949Y-15580293D02*
X10740949Y-15532674D01*
X10740949Y-15532674D02*
X10750472Y-15494579D01*
X10750472Y-15494579D02*
X10759996Y-15475531D01*
X10759996Y-15475531D02*
X10769520Y-15466008D01*
X10769520Y-15466008D02*
X10788568Y-15456484D01*
X10940949Y-15637436D02*
X10950472Y-15646960D01*
X10950472Y-15646960D02*
X10940949Y-15656484D01*
X10940949Y-15656484D02*
X10931425Y-15646960D01*
X10931425Y-15646960D02*
X10940949Y-15637436D01*
X10940949Y-15637436D02*
X10940949Y-15656484D01*
X11074282Y-15456484D02*
X11093330Y-15456484D01*
X11093330Y-15456484D02*
X11112377Y-15466008D01*
X11112377Y-15466008D02*
X11121901Y-15475531D01*
X11121901Y-15475531D02*
X11131425Y-15494579D01*
X11131425Y-15494579D02*
X11140949Y-15532674D01*
X11140949Y-15532674D02*
X11140949Y-15580293D01*
X11140949Y-15580293D02*
X11131425Y-15618388D01*
X11131425Y-15618388D02*
X11121901Y-15637436D01*
X11121901Y-15637436D02*
X11112377Y-15646960D01*
X11112377Y-15646960D02*
X11093330Y-15656484D01*
X11093330Y-15656484D02*
X11074282Y-15656484D01*
X11074282Y-15656484D02*
X11055234Y-15646960D01*
X11055234Y-15646960D02*
X11045710Y-15637436D01*
X11045710Y-15637436D02*
X11036187Y-15618388D01*
X11036187Y-15618388D02*
X11026663Y-15580293D01*
X11026663Y-15580293D02*
X11026663Y-15532674D01*
X11026663Y-15532674D02*
X11036187Y-15494579D01*
X11036187Y-15494579D02*
X11045710Y-15475531D01*
X11045710Y-15475531D02*
X11055234Y-15466008D01*
X11055234Y-15466008D02*
X11074282Y-15456484D01*
X11312377Y-15456484D02*
X11274282Y-15456484D01*
X11274282Y-15456484D02*
X11255234Y-15466008D01*
X11255234Y-15466008D02*
X11245710Y-15475531D01*
X11245710Y-15475531D02*
X11226663Y-15504103D01*
X11226663Y-15504103D02*
X11217139Y-15542198D01*
X11217139Y-15542198D02*
X11217139Y-15618388D01*
X11217139Y-15618388D02*
X11226663Y-15637436D01*
X11226663Y-15637436D02*
X11236187Y-15646960D01*
X11236187Y-15646960D02*
X11255234Y-15656484D01*
X11255234Y-15656484D02*
X11293329Y-15656484D01*
X11293329Y-15656484D02*
X11312377Y-15646960D01*
X11312377Y-15646960D02*
X11321901Y-15637436D01*
X11321901Y-15637436D02*
X11331425Y-15618388D01*
X11331425Y-15618388D02*
X11331425Y-15570769D01*
X11331425Y-15570769D02*
X11321901Y-15551722D01*
X11321901Y-15551722D02*
X11312377Y-15542198D01*
X11312377Y-15542198D02*
X11293329Y-15532674D01*
X11293329Y-15532674D02*
X11255234Y-15532674D01*
X11255234Y-15532674D02*
X11236187Y-15542198D01*
X11236187Y-15542198D02*
X11226663Y-15551722D01*
X11226663Y-15551722D02*
X11217139Y-15570769D01*
X11398091Y-15456484D02*
X11521901Y-15456484D01*
X11521901Y-15456484D02*
X11455234Y-15532674D01*
X11455234Y-15532674D02*
X11483806Y-15532674D01*
X11483806Y-15532674D02*
X11502853Y-15542198D01*
X11502853Y-15542198D02*
X11512377Y-15551722D01*
X11512377Y-15551722D02*
X11521901Y-15570769D01*
X11521901Y-15570769D02*
X11521901Y-15618388D01*
X11521901Y-15618388D02*
X11512377Y-15637436D01*
X11512377Y-15637436D02*
X11502853Y-15646960D01*
X11502853Y-15646960D02*
X11483806Y-15656484D01*
X11483806Y-15656484D02*
X11426663Y-15656484D01*
X11426663Y-15656484D02*
X11407615Y-15646960D01*
X11407615Y-15646960D02*
X11398091Y-15637436D01*
X11645710Y-15456484D02*
X11664758Y-15456484D01*
X11664758Y-15456484D02*
X11683806Y-15466008D01*
X11683806Y-15466008D02*
X11693329Y-15475531D01*
X11693329Y-15475531D02*
X11702853Y-15494579D01*
X11702853Y-15494579D02*
X11712377Y-15532674D01*
X11712377Y-15532674D02*
X11712377Y-15580293D01*
X11712377Y-15580293D02*
X11702853Y-15618388D01*
X11702853Y-15618388D02*
X11693329Y-15637436D01*
X11693329Y-15637436D02*
X11683806Y-15646960D01*
X11683806Y-15646960D02*
X11664758Y-15656484D01*
X11664758Y-15656484D02*
X11645710Y-15656484D01*
X11645710Y-15656484D02*
X11626663Y-15646960D01*
X11626663Y-15646960D02*
X11617139Y-15637436D01*
X11617139Y-15637436D02*
X11607615Y-15618388D01*
X11607615Y-15618388D02*
X11598091Y-15580293D01*
X11598091Y-15580293D02*
X11598091Y-15532674D01*
X11598091Y-15532674D02*
X11607615Y-15494579D01*
X11607615Y-15494579D02*
X11617139Y-15475531D01*
X11617139Y-15475531D02*
X11626663Y-15466008D01*
X11626663Y-15466008D02*
X11645710Y-15456484D01*
X11788568Y-15456484D02*
X11788568Y-15494579D01*
X11864758Y-15456484D02*
X11864758Y-15494579D01*
X12159996Y-15732674D02*
X12150472Y-15723150D01*
X12150472Y-15723150D02*
X12131425Y-15694579D01*
X12131425Y-15694579D02*
X12121901Y-15675531D01*
X12121901Y-15675531D02*
X12112377Y-15646960D01*
X12112377Y-15646960D02*
X12102853Y-15599341D01*
X12102853Y-15599341D02*
X12102853Y-15561246D01*
X12102853Y-15561246D02*
X12112377Y-15513627D01*
X12112377Y-15513627D02*
X12121901Y-15485055D01*
X12121901Y-15485055D02*
X12131425Y-15466008D01*
X12131425Y-15466008D02*
X12150472Y-15437436D01*
X12150472Y-15437436D02*
X12159996Y-15427912D01*
X12331425Y-15456484D02*
X12236187Y-15456484D01*
X12236187Y-15456484D02*
X12226663Y-15551722D01*
X12226663Y-15551722D02*
X12236187Y-15542198D01*
X12236187Y-15542198D02*
X12255234Y-15532674D01*
X12255234Y-15532674D02*
X12302853Y-15532674D01*
X12302853Y-15532674D02*
X12321901Y-15542198D01*
X12321901Y-15542198D02*
X12331425Y-15551722D01*
X12331425Y-15551722D02*
X12340949Y-15570769D01*
X12340949Y-15570769D02*
X12340949Y-15618388D01*
X12340949Y-15618388D02*
X12331425Y-15637436D01*
X12331425Y-15637436D02*
X12321901Y-15646960D01*
X12321901Y-15646960D02*
X12302853Y-15656484D01*
X12302853Y-15656484D02*
X12255234Y-15656484D01*
X12255234Y-15656484D02*
X12236187Y-15646960D01*
X12236187Y-15646960D02*
X12226663Y-15637436D01*
X12579044Y-15656484D02*
X12579044Y-15456484D01*
X12664758Y-15656484D02*
X12664758Y-15551722D01*
X12664758Y-15551722D02*
X12655234Y-15532674D01*
X12655234Y-15532674D02*
X12636187Y-15523150D01*
X12636187Y-15523150D02*
X12607615Y-15523150D01*
X12607615Y-15523150D02*
X12588568Y-15532674D01*
X12588568Y-15532674D02*
X12579044Y-15542198D01*
X12788568Y-15656484D02*
X12769520Y-15646960D01*
X12769520Y-15646960D02*
X12759996Y-15637436D01*
X12759996Y-15637436D02*
X12750472Y-15618388D01*
X12750472Y-15618388D02*
X12750472Y-15561246D01*
X12750472Y-15561246D02*
X12759996Y-15542198D01*
X12759996Y-15542198D02*
X12769520Y-15532674D01*
X12769520Y-15532674D02*
X12788568Y-15523150D01*
X12788568Y-15523150D02*
X12817139Y-15523150D01*
X12817139Y-15523150D02*
X12836187Y-15532674D01*
X12836187Y-15532674D02*
X12845711Y-15542198D01*
X12845711Y-15542198D02*
X12855234Y-15561246D01*
X12855234Y-15561246D02*
X12855234Y-15618388D01*
X12855234Y-15618388D02*
X12845711Y-15637436D01*
X12845711Y-15637436D02*
X12836187Y-15646960D01*
X12836187Y-15646960D02*
X12817139Y-15656484D01*
X12817139Y-15656484D02*
X12788568Y-15656484D01*
X12969520Y-15656484D02*
X12950472Y-15646960D01*
X12950472Y-15646960D02*
X12940949Y-15627912D01*
X12940949Y-15627912D02*
X12940949Y-15456484D01*
X13121901Y-15646960D02*
X13102853Y-15656484D01*
X13102853Y-15656484D02*
X13064758Y-15656484D01*
X13064758Y-15656484D02*
X13045711Y-15646960D01*
X13045711Y-15646960D02*
X13036187Y-15627912D01*
X13036187Y-15627912D02*
X13036187Y-15551722D01*
X13036187Y-15551722D02*
X13045711Y-15532674D01*
X13045711Y-15532674D02*
X13064758Y-15523150D01*
X13064758Y-15523150D02*
X13102853Y-15523150D01*
X13102853Y-15523150D02*
X13121901Y-15532674D01*
X13121901Y-15532674D02*
X13131425Y-15551722D01*
X13131425Y-15551722D02*
X13131425Y-15570769D01*
X13131425Y-15570769D02*
X13036187Y-15589817D01*
X13207615Y-15646960D02*
X13226663Y-15656484D01*
X13226663Y-15656484D02*
X13264758Y-15656484D01*
X13264758Y-15656484D02*
X13283806Y-15646960D01*
X13283806Y-15646960D02*
X13293330Y-15627912D01*
X13293330Y-15627912D02*
X13293330Y-15618388D01*
X13293330Y-15618388D02*
X13283806Y-15599341D01*
X13283806Y-15599341D02*
X13264758Y-15589817D01*
X13264758Y-15589817D02*
X13236187Y-15589817D01*
X13236187Y-15589817D02*
X13217139Y-15580293D01*
X13217139Y-15580293D02*
X13207615Y-15561246D01*
X13207615Y-15561246D02*
X13207615Y-15551722D01*
X13207615Y-15551722D02*
X13217139Y-15532674D01*
X13217139Y-15532674D02*
X13236187Y-15523150D01*
X13236187Y-15523150D02*
X13264758Y-15523150D01*
X13264758Y-15523150D02*
X13283806Y-15532674D01*
X13359996Y-15732674D02*
X13369520Y-15723150D01*
X13369520Y-15723150D02*
X13388568Y-15694579D01*
X13388568Y-15694579D02*
X13398092Y-15675531D01*
X13398092Y-15675531D02*
X13407615Y-15646960D01*
X13407615Y-15646960D02*
X13417139Y-15599341D01*
X13417139Y-15599341D02*
X13417139Y-15561246D01*
X13417139Y-15561246D02*
X13407615Y-15513627D01*
X13407615Y-15513627D02*
X13398092Y-15485055D01*
X13398092Y-15485055D02*
X13388568Y-15466008D01*
X13388568Y-15466008D02*
X13369520Y-15437436D01*
X13369520Y-15437436D02*
X13359996Y-15427912D01*
X13721901Y-15732674D02*
X13712377Y-15723150D01*
X13712377Y-15723150D02*
X13693330Y-15694579D01*
X13693330Y-15694579D02*
X13683806Y-15675531D01*
X13683806Y-15675531D02*
X13674282Y-15646960D01*
X13674282Y-15646960D02*
X13664758Y-15599341D01*
X13664758Y-15599341D02*
X13664758Y-15561246D01*
X13664758Y-15561246D02*
X13674282Y-15513627D01*
X13674282Y-15513627D02*
X13683806Y-15485055D01*
X13683806Y-15485055D02*
X13693330Y-15466008D01*
X13693330Y-15466008D02*
X13712377Y-15437436D01*
X13712377Y-15437436D02*
X13721901Y-15427912D01*
X13798092Y-15523150D02*
X13798092Y-15656484D01*
X13798092Y-15542198D02*
X13807615Y-15532674D01*
X13807615Y-15532674D02*
X13826663Y-15523150D01*
X13826663Y-15523150D02*
X13855234Y-15523150D01*
X13855234Y-15523150D02*
X13874282Y-15532674D01*
X13874282Y-15532674D02*
X13883806Y-15551722D01*
X13883806Y-15551722D02*
X13883806Y-15656484D01*
X14007615Y-15656484D02*
X13988568Y-15646960D01*
X13988568Y-15646960D02*
X13979044Y-15637436D01*
X13979044Y-15637436D02*
X13969520Y-15618388D01*
X13969520Y-15618388D02*
X13969520Y-15561246D01*
X13969520Y-15561246D02*
X13979044Y-15542198D01*
X13979044Y-15542198D02*
X13988568Y-15532674D01*
X13988568Y-15532674D02*
X14007615Y-15523150D01*
X14007615Y-15523150D02*
X14036187Y-15523150D01*
X14036187Y-15523150D02*
X14055234Y-15532674D01*
X14055234Y-15532674D02*
X14064758Y-15542198D01*
X14064758Y-15542198D02*
X14074282Y-15561246D01*
X14074282Y-15561246D02*
X14074282Y-15618388D01*
X14074282Y-15618388D02*
X14064758Y-15637436D01*
X14064758Y-15637436D02*
X14055234Y-15646960D01*
X14055234Y-15646960D02*
X14036187Y-15656484D01*
X14036187Y-15656484D02*
X14007615Y-15656484D01*
X14131425Y-15523150D02*
X14207615Y-15523150D01*
X14159996Y-15456484D02*
X14159996Y-15627912D01*
X14159996Y-15627912D02*
X14169520Y-15646960D01*
X14169520Y-15646960D02*
X14188568Y-15656484D01*
X14188568Y-15656484D02*
X14207615Y-15656484D01*
X14426663Y-15523150D02*
X14426663Y-15723150D01*
X14426663Y-15532674D02*
X14445711Y-15523150D01*
X14445711Y-15523150D02*
X14483806Y-15523150D01*
X14483806Y-15523150D02*
X14502854Y-15532674D01*
X14502854Y-15532674D02*
X14512377Y-15542198D01*
X14512377Y-15542198D02*
X14521901Y-15561246D01*
X14521901Y-15561246D02*
X14521901Y-15618388D01*
X14521901Y-15618388D02*
X14512377Y-15637436D01*
X14512377Y-15637436D02*
X14502854Y-15646960D01*
X14502854Y-15646960D02*
X14483806Y-15656484D01*
X14483806Y-15656484D02*
X14445711Y-15656484D01*
X14445711Y-15656484D02*
X14426663Y-15646960D01*
X14636187Y-15656484D02*
X14617139Y-15646960D01*
X14617139Y-15646960D02*
X14607615Y-15627912D01*
X14607615Y-15627912D02*
X14607615Y-15456484D01*
X14798092Y-15656484D02*
X14798092Y-15551722D01*
X14798092Y-15551722D02*
X14788568Y-15532674D01*
X14788568Y-15532674D02*
X14769520Y-15523150D01*
X14769520Y-15523150D02*
X14731425Y-15523150D01*
X14731425Y-15523150D02*
X14712377Y-15532674D01*
X14798092Y-15646960D02*
X14779044Y-15656484D01*
X14779044Y-15656484D02*
X14731425Y-15656484D01*
X14731425Y-15656484D02*
X14712377Y-15646960D01*
X14712377Y-15646960D02*
X14702854Y-15627912D01*
X14702854Y-15627912D02*
X14702854Y-15608865D01*
X14702854Y-15608865D02*
X14712377Y-15589817D01*
X14712377Y-15589817D02*
X14731425Y-15580293D01*
X14731425Y-15580293D02*
X14779044Y-15580293D01*
X14779044Y-15580293D02*
X14798092Y-15570769D01*
X14864758Y-15523150D02*
X14940949Y-15523150D01*
X14893330Y-15456484D02*
X14893330Y-15627912D01*
X14893330Y-15627912D02*
X14902854Y-15646960D01*
X14902854Y-15646960D02*
X14921901Y-15656484D01*
X14921901Y-15656484D02*
X14940949Y-15656484D01*
X15083806Y-15646960D02*
X15064758Y-15656484D01*
X15064758Y-15656484D02*
X15026663Y-15656484D01*
X15026663Y-15656484D02*
X15007615Y-15646960D01*
X15007615Y-15646960D02*
X14998092Y-15627912D01*
X14998092Y-15627912D02*
X14998092Y-15551722D01*
X14998092Y-15551722D02*
X15007615Y-15532674D01*
X15007615Y-15532674D02*
X15026663Y-15523150D01*
X15026663Y-15523150D02*
X15064758Y-15523150D01*
X15064758Y-15523150D02*
X15083806Y-15532674D01*
X15083806Y-15532674D02*
X15093330Y-15551722D01*
X15093330Y-15551722D02*
X15093330Y-15570769D01*
X15093330Y-15570769D02*
X14998092Y-15589817D01*
X15264758Y-15656484D02*
X15264758Y-15456484D01*
X15264758Y-15646960D02*
X15245711Y-15656484D01*
X15245711Y-15656484D02*
X15207615Y-15656484D01*
X15207615Y-15656484D02*
X15188568Y-15646960D01*
X15188568Y-15646960D02*
X15179044Y-15637436D01*
X15179044Y-15637436D02*
X15169520Y-15618388D01*
X15169520Y-15618388D02*
X15169520Y-15561246D01*
X15169520Y-15561246D02*
X15179044Y-15542198D01*
X15179044Y-15542198D02*
X15188568Y-15532674D01*
X15188568Y-15532674D02*
X15207615Y-15523150D01*
X15207615Y-15523150D02*
X15245711Y-15523150D01*
X15245711Y-15523150D02*
X15264758Y-15532674D01*
X15340949Y-15732674D02*
X15350473Y-15723150D01*
X15350473Y-15723150D02*
X15369520Y-15694579D01*
X15369520Y-15694579D02*
X15379044Y-15675531D01*
X15379044Y-15675531D02*
X15388568Y-15646960D01*
X15388568Y-15646960D02*
X15398092Y-15599341D01*
X15398092Y-15599341D02*
X15398092Y-15561246D01*
X15398092Y-15561246D02*
X15388568Y-15513627D01*
X15388568Y-15513627D02*
X15379044Y-15485055D01*
X15379044Y-15485055D02*
X15369520Y-15466008D01*
X15369520Y-15466008D02*
X15350473Y-15437436D01*
X15350473Y-15437436D02*
X15340949Y-15427912D01*
D13*
X8584933Y-15845000D02*
G75*
G03*
X8409933Y-15845000I-87500J0D01*
G01*
X8409933Y-15845000D02*
G75*
G03*
X8584933Y-15845000I87500J0D01*
G01*
D11*
X8950472Y-15936484D02*
X8836186Y-15936484D01*
X8893329Y-15936484D02*
X8893329Y-15736484D01*
X8893329Y-15736484D02*
X8874282Y-15765055D01*
X8874282Y-15765055D02*
X8855234Y-15784103D01*
X8855234Y-15784103D02*
X8836186Y-15793627D01*
X9036186Y-15917436D02*
X9045710Y-15926960D01*
X9045710Y-15926960D02*
X9036186Y-15936484D01*
X9036186Y-15936484D02*
X9026663Y-15926960D01*
X9026663Y-15926960D02*
X9036186Y-15917436D01*
X9036186Y-15917436D02*
X9036186Y-15936484D01*
X9112377Y-15736484D02*
X9245710Y-15736484D01*
X9245710Y-15736484D02*
X9159996Y-15936484D01*
X9417139Y-15736484D02*
X9321901Y-15736484D01*
X9321901Y-15736484D02*
X9312377Y-15831722D01*
X9312377Y-15831722D02*
X9321901Y-15822198D01*
X9321901Y-15822198D02*
X9340948Y-15812674D01*
X9340948Y-15812674D02*
X9388567Y-15812674D01*
X9388567Y-15812674D02*
X9407615Y-15822198D01*
X9407615Y-15822198D02*
X9417139Y-15831722D01*
X9417139Y-15831722D02*
X9426663Y-15850769D01*
X9426663Y-15850769D02*
X9426663Y-15898388D01*
X9426663Y-15898388D02*
X9417139Y-15917436D01*
X9417139Y-15917436D02*
X9407615Y-15926960D01*
X9407615Y-15926960D02*
X9388567Y-15936484D01*
X9388567Y-15936484D02*
X9340948Y-15936484D01*
X9340948Y-15936484D02*
X9321901Y-15926960D01*
X9321901Y-15926960D02*
X9312377Y-15917436D01*
X9550472Y-15736484D02*
X9569520Y-15736484D01*
X9569520Y-15736484D02*
X9588567Y-15746008D01*
X9588567Y-15746008D02*
X9598091Y-15755531D01*
X9598091Y-15755531D02*
X9607615Y-15774579D01*
X9607615Y-15774579D02*
X9617139Y-15812674D01*
X9617139Y-15812674D02*
X9617139Y-15860293D01*
X9617139Y-15860293D02*
X9607615Y-15898388D01*
X9607615Y-15898388D02*
X9598091Y-15917436D01*
X9598091Y-15917436D02*
X9588567Y-15926960D01*
X9588567Y-15926960D02*
X9569520Y-15936484D01*
X9569520Y-15936484D02*
X9550472Y-15936484D01*
X9550472Y-15936484D02*
X9531425Y-15926960D01*
X9531425Y-15926960D02*
X9521901Y-15917436D01*
X9521901Y-15917436D02*
X9512377Y-15898388D01*
X9512377Y-15898388D02*
X9502853Y-15860293D01*
X9502853Y-15860293D02*
X9502853Y-15812674D01*
X9502853Y-15812674D02*
X9512377Y-15774579D01*
X9512377Y-15774579D02*
X9521901Y-15755531D01*
X9521901Y-15755531D02*
X9531425Y-15746008D01*
X9531425Y-15746008D02*
X9550472Y-15736484D01*
X9702853Y-15936484D02*
X9702853Y-15803150D01*
X9702853Y-15822198D02*
X9712377Y-15812674D01*
X9712377Y-15812674D02*
X9731425Y-15803150D01*
X9731425Y-15803150D02*
X9759996Y-15803150D01*
X9759996Y-15803150D02*
X9779044Y-15812674D01*
X9779044Y-15812674D02*
X9788567Y-15831722D01*
X9788567Y-15831722D02*
X9788567Y-15936484D01*
X9788567Y-15831722D02*
X9798091Y-15812674D01*
X9798091Y-15812674D02*
X9817139Y-15803150D01*
X9817139Y-15803150D02*
X9845710Y-15803150D01*
X9845710Y-15803150D02*
X9864758Y-15812674D01*
X9864758Y-15812674D02*
X9874282Y-15831722D01*
X9874282Y-15831722D02*
X9874282Y-15936484D01*
X9969520Y-15936484D02*
X9969520Y-15803150D01*
X9969520Y-15822198D02*
X9979044Y-15812674D01*
X9979044Y-15812674D02*
X9998091Y-15803150D01*
X9998091Y-15803150D02*
X10026663Y-15803150D01*
X10026663Y-15803150D02*
X10045710Y-15812674D01*
X10045710Y-15812674D02*
X10055234Y-15831722D01*
X10055234Y-15831722D02*
X10055234Y-15936484D01*
X10055234Y-15831722D02*
X10064758Y-15812674D01*
X10064758Y-15812674D02*
X10083806Y-15803150D01*
X10083806Y-15803150D02*
X10112377Y-15803150D01*
X10112377Y-15803150D02*
X10131425Y-15812674D01*
X10131425Y-15812674D02*
X10140948Y-15831722D01*
X10140948Y-15831722D02*
X10140948Y-15936484D01*
X10531425Y-15726960D02*
X10359996Y-15984103D01*
X10788568Y-15736484D02*
X10807615Y-15736484D01*
X10807615Y-15736484D02*
X10826663Y-15746008D01*
X10826663Y-15746008D02*
X10836187Y-15755531D01*
X10836187Y-15755531D02*
X10845710Y-15774579D01*
X10845710Y-15774579D02*
X10855234Y-15812674D01*
X10855234Y-15812674D02*
X10855234Y-15860293D01*
X10855234Y-15860293D02*
X10845710Y-15898388D01*
X10845710Y-15898388D02*
X10836187Y-15917436D01*
X10836187Y-15917436D02*
X10826663Y-15926960D01*
X10826663Y-15926960D02*
X10807615Y-15936484D01*
X10807615Y-15936484D02*
X10788568Y-15936484D01*
X10788568Y-15936484D02*
X10769520Y-15926960D01*
X10769520Y-15926960D02*
X10759996Y-15917436D01*
X10759996Y-15917436D02*
X10750472Y-15898388D01*
X10750472Y-15898388D02*
X10740949Y-15860293D01*
X10740949Y-15860293D02*
X10740949Y-15812674D01*
X10740949Y-15812674D02*
X10750472Y-15774579D01*
X10750472Y-15774579D02*
X10759996Y-15755531D01*
X10759996Y-15755531D02*
X10769520Y-15746008D01*
X10769520Y-15746008D02*
X10788568Y-15736484D01*
X10940949Y-15917436D02*
X10950472Y-15926960D01*
X10950472Y-15926960D02*
X10940949Y-15936484D01*
X10940949Y-15936484D02*
X10931425Y-15926960D01*
X10931425Y-15926960D02*
X10940949Y-15917436D01*
X10940949Y-15917436D02*
X10940949Y-15936484D01*
X11074282Y-15736484D02*
X11093330Y-15736484D01*
X11093330Y-15736484D02*
X11112377Y-15746008D01*
X11112377Y-15746008D02*
X11121901Y-15755531D01*
X11121901Y-15755531D02*
X11131425Y-15774579D01*
X11131425Y-15774579D02*
X11140949Y-15812674D01*
X11140949Y-15812674D02*
X11140949Y-15860293D01*
X11140949Y-15860293D02*
X11131425Y-15898388D01*
X11131425Y-15898388D02*
X11121901Y-15917436D01*
X11121901Y-15917436D02*
X11112377Y-15926960D01*
X11112377Y-15926960D02*
X11093330Y-15936484D01*
X11093330Y-15936484D02*
X11074282Y-15936484D01*
X11074282Y-15936484D02*
X11055234Y-15926960D01*
X11055234Y-15926960D02*
X11045710Y-15917436D01*
X11045710Y-15917436D02*
X11036187Y-15898388D01*
X11036187Y-15898388D02*
X11026663Y-15860293D01*
X11026663Y-15860293D02*
X11026663Y-15812674D01*
X11026663Y-15812674D02*
X11036187Y-15774579D01*
X11036187Y-15774579D02*
X11045710Y-15755531D01*
X11045710Y-15755531D02*
X11055234Y-15746008D01*
X11055234Y-15746008D02*
X11074282Y-15736484D01*
X11312377Y-15736484D02*
X11274282Y-15736484D01*
X11274282Y-15736484D02*
X11255234Y-15746008D01*
X11255234Y-15746008D02*
X11245710Y-15755531D01*
X11245710Y-15755531D02*
X11226663Y-15784103D01*
X11226663Y-15784103D02*
X11217139Y-15822198D01*
X11217139Y-15822198D02*
X11217139Y-15898388D01*
X11217139Y-15898388D02*
X11226663Y-15917436D01*
X11226663Y-15917436D02*
X11236187Y-15926960D01*
X11236187Y-15926960D02*
X11255234Y-15936484D01*
X11255234Y-15936484D02*
X11293329Y-15936484D01*
X11293329Y-15936484D02*
X11312377Y-15926960D01*
X11312377Y-15926960D02*
X11321901Y-15917436D01*
X11321901Y-15917436D02*
X11331425Y-15898388D01*
X11331425Y-15898388D02*
X11331425Y-15850769D01*
X11331425Y-15850769D02*
X11321901Y-15831722D01*
X11321901Y-15831722D02*
X11312377Y-15822198D01*
X11312377Y-15822198D02*
X11293329Y-15812674D01*
X11293329Y-15812674D02*
X11255234Y-15812674D01*
X11255234Y-15812674D02*
X11236187Y-15822198D01*
X11236187Y-15822198D02*
X11226663Y-15831722D01*
X11226663Y-15831722D02*
X11217139Y-15850769D01*
X11445710Y-15822198D02*
X11426663Y-15812674D01*
X11426663Y-15812674D02*
X11417139Y-15803150D01*
X11417139Y-15803150D02*
X11407615Y-15784103D01*
X11407615Y-15784103D02*
X11407615Y-15774579D01*
X11407615Y-15774579D02*
X11417139Y-15755531D01*
X11417139Y-15755531D02*
X11426663Y-15746008D01*
X11426663Y-15746008D02*
X11445710Y-15736484D01*
X11445710Y-15736484D02*
X11483806Y-15736484D01*
X11483806Y-15736484D02*
X11502853Y-15746008D01*
X11502853Y-15746008D02*
X11512377Y-15755531D01*
X11512377Y-15755531D02*
X11521901Y-15774579D01*
X11521901Y-15774579D02*
X11521901Y-15784103D01*
X11521901Y-15784103D02*
X11512377Y-15803150D01*
X11512377Y-15803150D02*
X11502853Y-15812674D01*
X11502853Y-15812674D02*
X11483806Y-15822198D01*
X11483806Y-15822198D02*
X11445710Y-15822198D01*
X11445710Y-15822198D02*
X11426663Y-15831722D01*
X11426663Y-15831722D02*
X11417139Y-15841246D01*
X11417139Y-15841246D02*
X11407615Y-15860293D01*
X11407615Y-15860293D02*
X11407615Y-15898388D01*
X11407615Y-15898388D02*
X11417139Y-15917436D01*
X11417139Y-15917436D02*
X11426663Y-15926960D01*
X11426663Y-15926960D02*
X11445710Y-15936484D01*
X11445710Y-15936484D02*
X11483806Y-15936484D01*
X11483806Y-15936484D02*
X11502853Y-15926960D01*
X11502853Y-15926960D02*
X11512377Y-15917436D01*
X11512377Y-15917436D02*
X11521901Y-15898388D01*
X11521901Y-15898388D02*
X11521901Y-15860293D01*
X11521901Y-15860293D02*
X11512377Y-15841246D01*
X11512377Y-15841246D02*
X11502853Y-15831722D01*
X11502853Y-15831722D02*
X11483806Y-15822198D01*
X11617139Y-15936484D02*
X11655234Y-15936484D01*
X11655234Y-15936484D02*
X11674282Y-15926960D01*
X11674282Y-15926960D02*
X11683806Y-15917436D01*
X11683806Y-15917436D02*
X11702853Y-15888865D01*
X11702853Y-15888865D02*
X11712377Y-15850769D01*
X11712377Y-15850769D02*
X11712377Y-15774579D01*
X11712377Y-15774579D02*
X11702853Y-15755531D01*
X11702853Y-15755531D02*
X11693329Y-15746008D01*
X11693329Y-15746008D02*
X11674282Y-15736484D01*
X11674282Y-15736484D02*
X11636187Y-15736484D01*
X11636187Y-15736484D02*
X11617139Y-15746008D01*
X11617139Y-15746008D02*
X11607615Y-15755531D01*
X11607615Y-15755531D02*
X11598091Y-15774579D01*
X11598091Y-15774579D02*
X11598091Y-15822198D01*
X11598091Y-15822198D02*
X11607615Y-15841246D01*
X11607615Y-15841246D02*
X11617139Y-15850769D01*
X11617139Y-15850769D02*
X11636187Y-15860293D01*
X11636187Y-15860293D02*
X11674282Y-15860293D01*
X11674282Y-15860293D02*
X11693329Y-15850769D01*
X11693329Y-15850769D02*
X11702853Y-15841246D01*
X11702853Y-15841246D02*
X11712377Y-15822198D01*
X11788568Y-15736484D02*
X11788568Y-15774579D01*
X11864758Y-15736484D02*
X11864758Y-15774579D01*
X12159996Y-16012674D02*
X12150472Y-16003150D01*
X12150472Y-16003150D02*
X12131425Y-15974579D01*
X12131425Y-15974579D02*
X12121901Y-15955531D01*
X12121901Y-15955531D02*
X12112377Y-15926960D01*
X12112377Y-15926960D02*
X12102853Y-15879341D01*
X12102853Y-15879341D02*
X12102853Y-15841246D01*
X12102853Y-15841246D02*
X12112377Y-15793627D01*
X12112377Y-15793627D02*
X12121901Y-15765055D01*
X12121901Y-15765055D02*
X12131425Y-15746008D01*
X12131425Y-15746008D02*
X12150472Y-15717436D01*
X12150472Y-15717436D02*
X12159996Y-15707912D01*
X12331425Y-15736484D02*
X12236187Y-15736484D01*
X12236187Y-15736484D02*
X12226663Y-15831722D01*
X12226663Y-15831722D02*
X12236187Y-15822198D01*
X12236187Y-15822198D02*
X12255234Y-15812674D01*
X12255234Y-15812674D02*
X12302853Y-15812674D01*
X12302853Y-15812674D02*
X12321901Y-15822198D01*
X12321901Y-15822198D02*
X12331425Y-15831722D01*
X12331425Y-15831722D02*
X12340949Y-15850769D01*
X12340949Y-15850769D02*
X12340949Y-15898388D01*
X12340949Y-15898388D02*
X12331425Y-15917436D01*
X12331425Y-15917436D02*
X12321901Y-15926960D01*
X12321901Y-15926960D02*
X12302853Y-15936484D01*
X12302853Y-15936484D02*
X12255234Y-15936484D01*
X12255234Y-15936484D02*
X12236187Y-15926960D01*
X12236187Y-15926960D02*
X12226663Y-15917436D01*
X12579044Y-15936484D02*
X12579044Y-15736484D01*
X12664758Y-15936484D02*
X12664758Y-15831722D01*
X12664758Y-15831722D02*
X12655234Y-15812674D01*
X12655234Y-15812674D02*
X12636187Y-15803150D01*
X12636187Y-15803150D02*
X12607615Y-15803150D01*
X12607615Y-15803150D02*
X12588568Y-15812674D01*
X12588568Y-15812674D02*
X12579044Y-15822198D01*
X12788568Y-15936484D02*
X12769520Y-15926960D01*
X12769520Y-15926960D02*
X12759996Y-15917436D01*
X12759996Y-15917436D02*
X12750472Y-15898388D01*
X12750472Y-15898388D02*
X12750472Y-15841246D01*
X12750472Y-15841246D02*
X12759996Y-15822198D01*
X12759996Y-15822198D02*
X12769520Y-15812674D01*
X12769520Y-15812674D02*
X12788568Y-15803150D01*
X12788568Y-15803150D02*
X12817139Y-15803150D01*
X12817139Y-15803150D02*
X12836187Y-15812674D01*
X12836187Y-15812674D02*
X12845711Y-15822198D01*
X12845711Y-15822198D02*
X12855234Y-15841246D01*
X12855234Y-15841246D02*
X12855234Y-15898388D01*
X12855234Y-15898388D02*
X12845711Y-15917436D01*
X12845711Y-15917436D02*
X12836187Y-15926960D01*
X12836187Y-15926960D02*
X12817139Y-15936484D01*
X12817139Y-15936484D02*
X12788568Y-15936484D01*
X12969520Y-15936484D02*
X12950472Y-15926960D01*
X12950472Y-15926960D02*
X12940949Y-15907912D01*
X12940949Y-15907912D02*
X12940949Y-15736484D01*
X13121901Y-15926960D02*
X13102853Y-15936484D01*
X13102853Y-15936484D02*
X13064758Y-15936484D01*
X13064758Y-15936484D02*
X13045711Y-15926960D01*
X13045711Y-15926960D02*
X13036187Y-15907912D01*
X13036187Y-15907912D02*
X13036187Y-15831722D01*
X13036187Y-15831722D02*
X13045711Y-15812674D01*
X13045711Y-15812674D02*
X13064758Y-15803150D01*
X13064758Y-15803150D02*
X13102853Y-15803150D01*
X13102853Y-15803150D02*
X13121901Y-15812674D01*
X13121901Y-15812674D02*
X13131425Y-15831722D01*
X13131425Y-15831722D02*
X13131425Y-15850769D01*
X13131425Y-15850769D02*
X13036187Y-15869817D01*
X13207615Y-15926960D02*
X13226663Y-15936484D01*
X13226663Y-15936484D02*
X13264758Y-15936484D01*
X13264758Y-15936484D02*
X13283806Y-15926960D01*
X13283806Y-15926960D02*
X13293330Y-15907912D01*
X13293330Y-15907912D02*
X13293330Y-15898388D01*
X13293330Y-15898388D02*
X13283806Y-15879341D01*
X13283806Y-15879341D02*
X13264758Y-15869817D01*
X13264758Y-15869817D02*
X13236187Y-15869817D01*
X13236187Y-15869817D02*
X13217139Y-15860293D01*
X13217139Y-15860293D02*
X13207615Y-15841246D01*
X13207615Y-15841246D02*
X13207615Y-15831722D01*
X13207615Y-15831722D02*
X13217139Y-15812674D01*
X13217139Y-15812674D02*
X13236187Y-15803150D01*
X13236187Y-15803150D02*
X13264758Y-15803150D01*
X13264758Y-15803150D02*
X13283806Y-15812674D01*
X13359996Y-16012674D02*
X13369520Y-16003150D01*
X13369520Y-16003150D02*
X13388568Y-15974579D01*
X13388568Y-15974579D02*
X13398092Y-15955531D01*
X13398092Y-15955531D02*
X13407615Y-15926960D01*
X13407615Y-15926960D02*
X13417139Y-15879341D01*
X13417139Y-15879341D02*
X13417139Y-15841246D01*
X13417139Y-15841246D02*
X13407615Y-15793627D01*
X13407615Y-15793627D02*
X13398092Y-15765055D01*
X13398092Y-15765055D02*
X13388568Y-15746008D01*
X13388568Y-15746008D02*
X13369520Y-15717436D01*
X13369520Y-15717436D02*
X13359996Y-15707912D01*
X13721901Y-16012674D02*
X13712377Y-16003150D01*
X13712377Y-16003150D02*
X13693330Y-15974579D01*
X13693330Y-15974579D02*
X13683806Y-15955531D01*
X13683806Y-15955531D02*
X13674282Y-15926960D01*
X13674282Y-15926960D02*
X13664758Y-15879341D01*
X13664758Y-15879341D02*
X13664758Y-15841246D01*
X13664758Y-15841246D02*
X13674282Y-15793627D01*
X13674282Y-15793627D02*
X13683806Y-15765055D01*
X13683806Y-15765055D02*
X13693330Y-15746008D01*
X13693330Y-15746008D02*
X13712377Y-15717436D01*
X13712377Y-15717436D02*
X13721901Y-15707912D01*
X13798092Y-15803150D02*
X13798092Y-15936484D01*
X13798092Y-15822198D02*
X13807615Y-15812674D01*
X13807615Y-15812674D02*
X13826663Y-15803150D01*
X13826663Y-15803150D02*
X13855234Y-15803150D01*
X13855234Y-15803150D02*
X13874282Y-15812674D01*
X13874282Y-15812674D02*
X13883806Y-15831722D01*
X13883806Y-15831722D02*
X13883806Y-15936484D01*
X14007615Y-15936484D02*
X13988568Y-15926960D01*
X13988568Y-15926960D02*
X13979044Y-15917436D01*
X13979044Y-15917436D02*
X13969520Y-15898388D01*
X13969520Y-15898388D02*
X13969520Y-15841246D01*
X13969520Y-15841246D02*
X13979044Y-15822198D01*
X13979044Y-15822198D02*
X13988568Y-15812674D01*
X13988568Y-15812674D02*
X14007615Y-15803150D01*
X14007615Y-15803150D02*
X14036187Y-15803150D01*
X14036187Y-15803150D02*
X14055234Y-15812674D01*
X14055234Y-15812674D02*
X14064758Y-15822198D01*
X14064758Y-15822198D02*
X14074282Y-15841246D01*
X14074282Y-15841246D02*
X14074282Y-15898388D01*
X14074282Y-15898388D02*
X14064758Y-15917436D01*
X14064758Y-15917436D02*
X14055234Y-15926960D01*
X14055234Y-15926960D02*
X14036187Y-15936484D01*
X14036187Y-15936484D02*
X14007615Y-15936484D01*
X14131425Y-15803150D02*
X14207615Y-15803150D01*
X14159996Y-15736484D02*
X14159996Y-15907912D01*
X14159996Y-15907912D02*
X14169520Y-15926960D01*
X14169520Y-15926960D02*
X14188568Y-15936484D01*
X14188568Y-15936484D02*
X14207615Y-15936484D01*
X14426663Y-15803150D02*
X14426663Y-16003150D01*
X14426663Y-15812674D02*
X14445711Y-15803150D01*
X14445711Y-15803150D02*
X14483806Y-15803150D01*
X14483806Y-15803150D02*
X14502854Y-15812674D01*
X14502854Y-15812674D02*
X14512377Y-15822198D01*
X14512377Y-15822198D02*
X14521901Y-15841246D01*
X14521901Y-15841246D02*
X14521901Y-15898388D01*
X14521901Y-15898388D02*
X14512377Y-15917436D01*
X14512377Y-15917436D02*
X14502854Y-15926960D01*
X14502854Y-15926960D02*
X14483806Y-15936484D01*
X14483806Y-15936484D02*
X14445711Y-15936484D01*
X14445711Y-15936484D02*
X14426663Y-15926960D01*
X14636187Y-15936484D02*
X14617139Y-15926960D01*
X14617139Y-15926960D02*
X14607615Y-15907912D01*
X14607615Y-15907912D02*
X14607615Y-15736484D01*
X14798092Y-15936484D02*
X14798092Y-15831722D01*
X14798092Y-15831722D02*
X14788568Y-15812674D01*
X14788568Y-15812674D02*
X14769520Y-15803150D01*
X14769520Y-15803150D02*
X14731425Y-15803150D01*
X14731425Y-15803150D02*
X14712377Y-15812674D01*
X14798092Y-15926960D02*
X14779044Y-15936484D01*
X14779044Y-15936484D02*
X14731425Y-15936484D01*
X14731425Y-15936484D02*
X14712377Y-15926960D01*
X14712377Y-15926960D02*
X14702854Y-15907912D01*
X14702854Y-15907912D02*
X14702854Y-15888865D01*
X14702854Y-15888865D02*
X14712377Y-15869817D01*
X14712377Y-15869817D02*
X14731425Y-15860293D01*
X14731425Y-15860293D02*
X14779044Y-15860293D01*
X14779044Y-15860293D02*
X14798092Y-15850769D01*
X14864758Y-15803150D02*
X14940949Y-15803150D01*
X14893330Y-15736484D02*
X14893330Y-15907912D01*
X14893330Y-15907912D02*
X14902854Y-15926960D01*
X14902854Y-15926960D02*
X14921901Y-15936484D01*
X14921901Y-15936484D02*
X14940949Y-15936484D01*
X15083806Y-15926960D02*
X15064758Y-15936484D01*
X15064758Y-15936484D02*
X15026663Y-15936484D01*
X15026663Y-15936484D02*
X15007615Y-15926960D01*
X15007615Y-15926960D02*
X14998092Y-15907912D01*
X14998092Y-15907912D02*
X14998092Y-15831722D01*
X14998092Y-15831722D02*
X15007615Y-15812674D01*
X15007615Y-15812674D02*
X15026663Y-15803150D01*
X15026663Y-15803150D02*
X15064758Y-15803150D01*
X15064758Y-15803150D02*
X15083806Y-15812674D01*
X15083806Y-15812674D02*
X15093330Y-15831722D01*
X15093330Y-15831722D02*
X15093330Y-15850769D01*
X15093330Y-15850769D02*
X14998092Y-15869817D01*
X15264758Y-15936484D02*
X15264758Y-15736484D01*
X15264758Y-15926960D02*
X15245711Y-15936484D01*
X15245711Y-15936484D02*
X15207615Y-15936484D01*
X15207615Y-15936484D02*
X15188568Y-15926960D01*
X15188568Y-15926960D02*
X15179044Y-15917436D01*
X15179044Y-15917436D02*
X15169520Y-15898388D01*
X15169520Y-15898388D02*
X15169520Y-15841246D01*
X15169520Y-15841246D02*
X15179044Y-15822198D01*
X15179044Y-15822198D02*
X15188568Y-15812674D01*
X15188568Y-15812674D02*
X15207615Y-15803150D01*
X15207615Y-15803150D02*
X15245711Y-15803150D01*
X15245711Y-15803150D02*
X15264758Y-15812674D01*
X15340949Y-16012674D02*
X15350473Y-16003150D01*
X15350473Y-16003150D02*
X15369520Y-15974579D01*
X15369520Y-15974579D02*
X15379044Y-15955531D01*
X15379044Y-15955531D02*
X15388568Y-15926960D01*
X15388568Y-15926960D02*
X15398092Y-15879341D01*
X15398092Y-15879341D02*
X15398092Y-15841246D01*
X15398092Y-15841246D02*
X15388568Y-15793627D01*
X15388568Y-15793627D02*
X15379044Y-15765055D01*
X15379044Y-15765055D02*
X15369520Y-15746008D01*
X15369520Y-15746008D02*
X15350473Y-15717436D01*
X15350473Y-15717436D02*
X15340949Y-15707912D01*
D14*
X8492223Y-16047290D02*
X8492223Y-16232710D01*
X8399513Y-16140000D02*
X8584933Y-16140000D01*
D11*
X8950472Y-16231484D02*
X8836186Y-16231484D01*
X8893329Y-16231484D02*
X8893329Y-16031484D01*
X8893329Y-16031484D02*
X8874282Y-16060055D01*
X8874282Y-16060055D02*
X8855234Y-16079103D01*
X8855234Y-16079103D02*
X8836186Y-16088627D01*
X9036186Y-16212436D02*
X9045710Y-16221960D01*
X9045710Y-16221960D02*
X9036186Y-16231484D01*
X9036186Y-16231484D02*
X9026663Y-16221960D01*
X9026663Y-16221960D02*
X9036186Y-16212436D01*
X9036186Y-16212436D02*
X9036186Y-16231484D01*
X9159996Y-16117198D02*
X9140948Y-16107674D01*
X9140948Y-16107674D02*
X9131425Y-16098150D01*
X9131425Y-16098150D02*
X9121901Y-16079103D01*
X9121901Y-16079103D02*
X9121901Y-16069579D01*
X9121901Y-16069579D02*
X9131425Y-16050531D01*
X9131425Y-16050531D02*
X9140948Y-16041008D01*
X9140948Y-16041008D02*
X9159996Y-16031484D01*
X9159996Y-16031484D02*
X9198091Y-16031484D01*
X9198091Y-16031484D02*
X9217139Y-16041008D01*
X9217139Y-16041008D02*
X9226663Y-16050531D01*
X9226663Y-16050531D02*
X9236186Y-16069579D01*
X9236186Y-16069579D02*
X9236186Y-16079103D01*
X9236186Y-16079103D02*
X9226663Y-16098150D01*
X9226663Y-16098150D02*
X9217139Y-16107674D01*
X9217139Y-16107674D02*
X9198091Y-16117198D01*
X9198091Y-16117198D02*
X9159996Y-16117198D01*
X9159996Y-16117198D02*
X9140948Y-16126722D01*
X9140948Y-16126722D02*
X9131425Y-16136246D01*
X9131425Y-16136246D02*
X9121901Y-16155293D01*
X9121901Y-16155293D02*
X9121901Y-16193388D01*
X9121901Y-16193388D02*
X9131425Y-16212436D01*
X9131425Y-16212436D02*
X9140948Y-16221960D01*
X9140948Y-16221960D02*
X9159996Y-16231484D01*
X9159996Y-16231484D02*
X9198091Y-16231484D01*
X9198091Y-16231484D02*
X9217139Y-16221960D01*
X9217139Y-16221960D02*
X9226663Y-16212436D01*
X9226663Y-16212436D02*
X9236186Y-16193388D01*
X9236186Y-16193388D02*
X9236186Y-16155293D01*
X9236186Y-16155293D02*
X9226663Y-16136246D01*
X9226663Y-16136246D02*
X9217139Y-16126722D01*
X9217139Y-16126722D02*
X9198091Y-16117198D01*
X9417139Y-16031484D02*
X9321901Y-16031484D01*
X9321901Y-16031484D02*
X9312377Y-16126722D01*
X9312377Y-16126722D02*
X9321901Y-16117198D01*
X9321901Y-16117198D02*
X9340948Y-16107674D01*
X9340948Y-16107674D02*
X9388567Y-16107674D01*
X9388567Y-16107674D02*
X9407615Y-16117198D01*
X9407615Y-16117198D02*
X9417139Y-16126722D01*
X9417139Y-16126722D02*
X9426663Y-16145769D01*
X9426663Y-16145769D02*
X9426663Y-16193388D01*
X9426663Y-16193388D02*
X9417139Y-16212436D01*
X9417139Y-16212436D02*
X9407615Y-16221960D01*
X9407615Y-16221960D02*
X9388567Y-16231484D01*
X9388567Y-16231484D02*
X9340948Y-16231484D01*
X9340948Y-16231484D02*
X9321901Y-16221960D01*
X9321901Y-16221960D02*
X9312377Y-16212436D01*
X9598091Y-16098150D02*
X9598091Y-16231484D01*
X9550472Y-16021960D02*
X9502853Y-16164817D01*
X9502853Y-16164817D02*
X9626663Y-16164817D01*
X9702853Y-16231484D02*
X9702853Y-16098150D01*
X9702853Y-16117198D02*
X9712377Y-16107674D01*
X9712377Y-16107674D02*
X9731425Y-16098150D01*
X9731425Y-16098150D02*
X9759996Y-16098150D01*
X9759996Y-16098150D02*
X9779044Y-16107674D01*
X9779044Y-16107674D02*
X9788567Y-16126722D01*
X9788567Y-16126722D02*
X9788567Y-16231484D01*
X9788567Y-16126722D02*
X9798091Y-16107674D01*
X9798091Y-16107674D02*
X9817139Y-16098150D01*
X9817139Y-16098150D02*
X9845710Y-16098150D01*
X9845710Y-16098150D02*
X9864758Y-16107674D01*
X9864758Y-16107674D02*
X9874282Y-16126722D01*
X9874282Y-16126722D02*
X9874282Y-16231484D01*
X9969520Y-16231484D02*
X9969520Y-16098150D01*
X9969520Y-16117198D02*
X9979044Y-16107674D01*
X9979044Y-16107674D02*
X9998091Y-16098150D01*
X9998091Y-16098150D02*
X10026663Y-16098150D01*
X10026663Y-16098150D02*
X10045710Y-16107674D01*
X10045710Y-16107674D02*
X10055234Y-16126722D01*
X10055234Y-16126722D02*
X10055234Y-16231484D01*
X10055234Y-16126722D02*
X10064758Y-16107674D01*
X10064758Y-16107674D02*
X10083806Y-16098150D01*
X10083806Y-16098150D02*
X10112377Y-16098150D01*
X10112377Y-16098150D02*
X10131425Y-16107674D01*
X10131425Y-16107674D02*
X10140948Y-16126722D01*
X10140948Y-16126722D02*
X10140948Y-16231484D01*
X10531425Y-16021960D02*
X10359996Y-16279103D01*
X10788568Y-16031484D02*
X10807615Y-16031484D01*
X10807615Y-16031484D02*
X10826663Y-16041008D01*
X10826663Y-16041008D02*
X10836187Y-16050531D01*
X10836187Y-16050531D02*
X10845710Y-16069579D01*
X10845710Y-16069579D02*
X10855234Y-16107674D01*
X10855234Y-16107674D02*
X10855234Y-16155293D01*
X10855234Y-16155293D02*
X10845710Y-16193388D01*
X10845710Y-16193388D02*
X10836187Y-16212436D01*
X10836187Y-16212436D02*
X10826663Y-16221960D01*
X10826663Y-16221960D02*
X10807615Y-16231484D01*
X10807615Y-16231484D02*
X10788568Y-16231484D01*
X10788568Y-16231484D02*
X10769520Y-16221960D01*
X10769520Y-16221960D02*
X10759996Y-16212436D01*
X10759996Y-16212436D02*
X10750472Y-16193388D01*
X10750472Y-16193388D02*
X10740949Y-16155293D01*
X10740949Y-16155293D02*
X10740949Y-16107674D01*
X10740949Y-16107674D02*
X10750472Y-16069579D01*
X10750472Y-16069579D02*
X10759996Y-16050531D01*
X10759996Y-16050531D02*
X10769520Y-16041008D01*
X10769520Y-16041008D02*
X10788568Y-16031484D01*
X10940949Y-16212436D02*
X10950472Y-16221960D01*
X10950472Y-16221960D02*
X10940949Y-16231484D01*
X10940949Y-16231484D02*
X10931425Y-16221960D01*
X10931425Y-16221960D02*
X10940949Y-16212436D01*
X10940949Y-16212436D02*
X10940949Y-16231484D01*
X11074282Y-16031484D02*
X11093330Y-16031484D01*
X11093330Y-16031484D02*
X11112377Y-16041008D01*
X11112377Y-16041008D02*
X11121901Y-16050531D01*
X11121901Y-16050531D02*
X11131425Y-16069579D01*
X11131425Y-16069579D02*
X11140949Y-16107674D01*
X11140949Y-16107674D02*
X11140949Y-16155293D01*
X11140949Y-16155293D02*
X11131425Y-16193388D01*
X11131425Y-16193388D02*
X11121901Y-16212436D01*
X11121901Y-16212436D02*
X11112377Y-16221960D01*
X11112377Y-16221960D02*
X11093330Y-16231484D01*
X11093330Y-16231484D02*
X11074282Y-16231484D01*
X11074282Y-16231484D02*
X11055234Y-16221960D01*
X11055234Y-16221960D02*
X11045710Y-16212436D01*
X11045710Y-16212436D02*
X11036187Y-16193388D01*
X11036187Y-16193388D02*
X11026663Y-16155293D01*
X11026663Y-16155293D02*
X11026663Y-16107674D01*
X11026663Y-16107674D02*
X11036187Y-16069579D01*
X11036187Y-16069579D02*
X11045710Y-16050531D01*
X11045710Y-16050531D02*
X11055234Y-16041008D01*
X11055234Y-16041008D02*
X11074282Y-16031484D01*
X11207615Y-16031484D02*
X11340948Y-16031484D01*
X11340948Y-16031484D02*
X11255234Y-16231484D01*
X11398091Y-16031484D02*
X11521901Y-16031484D01*
X11521901Y-16031484D02*
X11455234Y-16107674D01*
X11455234Y-16107674D02*
X11483806Y-16107674D01*
X11483806Y-16107674D02*
X11502853Y-16117198D01*
X11502853Y-16117198D02*
X11512377Y-16126722D01*
X11512377Y-16126722D02*
X11521901Y-16145769D01*
X11521901Y-16145769D02*
X11521901Y-16193388D01*
X11521901Y-16193388D02*
X11512377Y-16212436D01*
X11512377Y-16212436D02*
X11502853Y-16221960D01*
X11502853Y-16221960D02*
X11483806Y-16231484D01*
X11483806Y-16231484D02*
X11426663Y-16231484D01*
X11426663Y-16231484D02*
X11407615Y-16221960D01*
X11407615Y-16221960D02*
X11398091Y-16212436D01*
X11645710Y-16031484D02*
X11664758Y-16031484D01*
X11664758Y-16031484D02*
X11683806Y-16041008D01*
X11683806Y-16041008D02*
X11693329Y-16050531D01*
X11693329Y-16050531D02*
X11702853Y-16069579D01*
X11702853Y-16069579D02*
X11712377Y-16107674D01*
X11712377Y-16107674D02*
X11712377Y-16155293D01*
X11712377Y-16155293D02*
X11702853Y-16193388D01*
X11702853Y-16193388D02*
X11693329Y-16212436D01*
X11693329Y-16212436D02*
X11683806Y-16221960D01*
X11683806Y-16221960D02*
X11664758Y-16231484D01*
X11664758Y-16231484D02*
X11645710Y-16231484D01*
X11645710Y-16231484D02*
X11626663Y-16221960D01*
X11626663Y-16221960D02*
X11617139Y-16212436D01*
X11617139Y-16212436D02*
X11607615Y-16193388D01*
X11607615Y-16193388D02*
X11598091Y-16155293D01*
X11598091Y-16155293D02*
X11598091Y-16107674D01*
X11598091Y-16107674D02*
X11607615Y-16069579D01*
X11607615Y-16069579D02*
X11617139Y-16050531D01*
X11617139Y-16050531D02*
X11626663Y-16041008D01*
X11626663Y-16041008D02*
X11645710Y-16031484D01*
X11788568Y-16031484D02*
X11788568Y-16069579D01*
X11864758Y-16031484D02*
X11864758Y-16069579D01*
X12159996Y-16307674D02*
X12150472Y-16298150D01*
X12150472Y-16298150D02*
X12131425Y-16269579D01*
X12131425Y-16269579D02*
X12121901Y-16250531D01*
X12121901Y-16250531D02*
X12112377Y-16221960D01*
X12112377Y-16221960D02*
X12102853Y-16174341D01*
X12102853Y-16174341D02*
X12102853Y-16136246D01*
X12102853Y-16136246D02*
X12112377Y-16088627D01*
X12112377Y-16088627D02*
X12121901Y-16060055D01*
X12121901Y-16060055D02*
X12131425Y-16041008D01*
X12131425Y-16041008D02*
X12150472Y-16012436D01*
X12150472Y-16012436D02*
X12159996Y-16002912D01*
X12226663Y-16050531D02*
X12236187Y-16041008D01*
X12236187Y-16041008D02*
X12255234Y-16031484D01*
X12255234Y-16031484D02*
X12302853Y-16031484D01*
X12302853Y-16031484D02*
X12321901Y-16041008D01*
X12321901Y-16041008D02*
X12331425Y-16050531D01*
X12331425Y-16050531D02*
X12340949Y-16069579D01*
X12340949Y-16069579D02*
X12340949Y-16088627D01*
X12340949Y-16088627D02*
X12331425Y-16117198D01*
X12331425Y-16117198D02*
X12217139Y-16231484D01*
X12217139Y-16231484D02*
X12340949Y-16231484D01*
X12579044Y-16231484D02*
X12579044Y-16031484D01*
X12664758Y-16231484D02*
X12664758Y-16126722D01*
X12664758Y-16126722D02*
X12655234Y-16107674D01*
X12655234Y-16107674D02*
X12636187Y-16098150D01*
X12636187Y-16098150D02*
X12607615Y-16098150D01*
X12607615Y-16098150D02*
X12588568Y-16107674D01*
X12588568Y-16107674D02*
X12579044Y-16117198D01*
X12788568Y-16231484D02*
X12769520Y-16221960D01*
X12769520Y-16221960D02*
X12759996Y-16212436D01*
X12759996Y-16212436D02*
X12750472Y-16193388D01*
X12750472Y-16193388D02*
X12750472Y-16136246D01*
X12750472Y-16136246D02*
X12759996Y-16117198D01*
X12759996Y-16117198D02*
X12769520Y-16107674D01*
X12769520Y-16107674D02*
X12788568Y-16098150D01*
X12788568Y-16098150D02*
X12817139Y-16098150D01*
X12817139Y-16098150D02*
X12836187Y-16107674D01*
X12836187Y-16107674D02*
X12845711Y-16117198D01*
X12845711Y-16117198D02*
X12855234Y-16136246D01*
X12855234Y-16136246D02*
X12855234Y-16193388D01*
X12855234Y-16193388D02*
X12845711Y-16212436D01*
X12845711Y-16212436D02*
X12836187Y-16221960D01*
X12836187Y-16221960D02*
X12817139Y-16231484D01*
X12817139Y-16231484D02*
X12788568Y-16231484D01*
X12969520Y-16231484D02*
X12950472Y-16221960D01*
X12950472Y-16221960D02*
X12940949Y-16202912D01*
X12940949Y-16202912D02*
X12940949Y-16031484D01*
X13121901Y-16221960D02*
X13102853Y-16231484D01*
X13102853Y-16231484D02*
X13064758Y-16231484D01*
X13064758Y-16231484D02*
X13045711Y-16221960D01*
X13045711Y-16221960D02*
X13036187Y-16202912D01*
X13036187Y-16202912D02*
X13036187Y-16126722D01*
X13036187Y-16126722D02*
X13045711Y-16107674D01*
X13045711Y-16107674D02*
X13064758Y-16098150D01*
X13064758Y-16098150D02*
X13102853Y-16098150D01*
X13102853Y-16098150D02*
X13121901Y-16107674D01*
X13121901Y-16107674D02*
X13131425Y-16126722D01*
X13131425Y-16126722D02*
X13131425Y-16145769D01*
X13131425Y-16145769D02*
X13036187Y-16164817D01*
X13207615Y-16221960D02*
X13226663Y-16231484D01*
X13226663Y-16231484D02*
X13264758Y-16231484D01*
X13264758Y-16231484D02*
X13283806Y-16221960D01*
X13283806Y-16221960D02*
X13293330Y-16202912D01*
X13293330Y-16202912D02*
X13293330Y-16193388D01*
X13293330Y-16193388D02*
X13283806Y-16174341D01*
X13283806Y-16174341D02*
X13264758Y-16164817D01*
X13264758Y-16164817D02*
X13236187Y-16164817D01*
X13236187Y-16164817D02*
X13217139Y-16155293D01*
X13217139Y-16155293D02*
X13207615Y-16136246D01*
X13207615Y-16136246D02*
X13207615Y-16126722D01*
X13207615Y-16126722D02*
X13217139Y-16107674D01*
X13217139Y-16107674D02*
X13236187Y-16098150D01*
X13236187Y-16098150D02*
X13264758Y-16098150D01*
X13264758Y-16098150D02*
X13283806Y-16107674D01*
X13359996Y-16307674D02*
X13369520Y-16298150D01*
X13369520Y-16298150D02*
X13388568Y-16269579D01*
X13388568Y-16269579D02*
X13398092Y-16250531D01*
X13398092Y-16250531D02*
X13407615Y-16221960D01*
X13407615Y-16221960D02*
X13417139Y-16174341D01*
X13417139Y-16174341D02*
X13417139Y-16136246D01*
X13417139Y-16136246D02*
X13407615Y-16088627D01*
X13407615Y-16088627D02*
X13398092Y-16060055D01*
X13398092Y-16060055D02*
X13388568Y-16041008D01*
X13388568Y-16041008D02*
X13369520Y-16012436D01*
X13369520Y-16012436D02*
X13359996Y-16002912D01*
X13721901Y-16307674D02*
X13712377Y-16298150D01*
X13712377Y-16298150D02*
X13693330Y-16269579D01*
X13693330Y-16269579D02*
X13683806Y-16250531D01*
X13683806Y-16250531D02*
X13674282Y-16221960D01*
X13674282Y-16221960D02*
X13664758Y-16174341D01*
X13664758Y-16174341D02*
X13664758Y-16136246D01*
X13664758Y-16136246D02*
X13674282Y-16088627D01*
X13674282Y-16088627D02*
X13683806Y-16060055D01*
X13683806Y-16060055D02*
X13693330Y-16041008D01*
X13693330Y-16041008D02*
X13712377Y-16012436D01*
X13712377Y-16012436D02*
X13721901Y-16002912D01*
X13798092Y-16098150D02*
X13798092Y-16231484D01*
X13798092Y-16117198D02*
X13807615Y-16107674D01*
X13807615Y-16107674D02*
X13826663Y-16098150D01*
X13826663Y-16098150D02*
X13855234Y-16098150D01*
X13855234Y-16098150D02*
X13874282Y-16107674D01*
X13874282Y-16107674D02*
X13883806Y-16126722D01*
X13883806Y-16126722D02*
X13883806Y-16231484D01*
X14007615Y-16231484D02*
X13988568Y-16221960D01*
X13988568Y-16221960D02*
X13979044Y-16212436D01*
X13979044Y-16212436D02*
X13969520Y-16193388D01*
X13969520Y-16193388D02*
X13969520Y-16136246D01*
X13969520Y-16136246D02*
X13979044Y-16117198D01*
X13979044Y-16117198D02*
X13988568Y-16107674D01*
X13988568Y-16107674D02*
X14007615Y-16098150D01*
X14007615Y-16098150D02*
X14036187Y-16098150D01*
X14036187Y-16098150D02*
X14055234Y-16107674D01*
X14055234Y-16107674D02*
X14064758Y-16117198D01*
X14064758Y-16117198D02*
X14074282Y-16136246D01*
X14074282Y-16136246D02*
X14074282Y-16193388D01*
X14074282Y-16193388D02*
X14064758Y-16212436D01*
X14064758Y-16212436D02*
X14055234Y-16221960D01*
X14055234Y-16221960D02*
X14036187Y-16231484D01*
X14036187Y-16231484D02*
X14007615Y-16231484D01*
X14131425Y-16098150D02*
X14207615Y-16098150D01*
X14159996Y-16031484D02*
X14159996Y-16202912D01*
X14159996Y-16202912D02*
X14169520Y-16221960D01*
X14169520Y-16221960D02*
X14188568Y-16231484D01*
X14188568Y-16231484D02*
X14207615Y-16231484D01*
X14426663Y-16098150D02*
X14426663Y-16298150D01*
X14426663Y-16107674D02*
X14445711Y-16098150D01*
X14445711Y-16098150D02*
X14483806Y-16098150D01*
X14483806Y-16098150D02*
X14502854Y-16107674D01*
X14502854Y-16107674D02*
X14512377Y-16117198D01*
X14512377Y-16117198D02*
X14521901Y-16136246D01*
X14521901Y-16136246D02*
X14521901Y-16193388D01*
X14521901Y-16193388D02*
X14512377Y-16212436D01*
X14512377Y-16212436D02*
X14502854Y-16221960D01*
X14502854Y-16221960D02*
X14483806Y-16231484D01*
X14483806Y-16231484D02*
X14445711Y-16231484D01*
X14445711Y-16231484D02*
X14426663Y-16221960D01*
X14636187Y-16231484D02*
X14617139Y-16221960D01*
X14617139Y-16221960D02*
X14607615Y-16202912D01*
X14607615Y-16202912D02*
X14607615Y-16031484D01*
X14798092Y-16231484D02*
X14798092Y-16126722D01*
X14798092Y-16126722D02*
X14788568Y-16107674D01*
X14788568Y-16107674D02*
X14769520Y-16098150D01*
X14769520Y-16098150D02*
X14731425Y-16098150D01*
X14731425Y-16098150D02*
X14712377Y-16107674D01*
X14798092Y-16221960D02*
X14779044Y-16231484D01*
X14779044Y-16231484D02*
X14731425Y-16231484D01*
X14731425Y-16231484D02*
X14712377Y-16221960D01*
X14712377Y-16221960D02*
X14702854Y-16202912D01*
X14702854Y-16202912D02*
X14702854Y-16183865D01*
X14702854Y-16183865D02*
X14712377Y-16164817D01*
X14712377Y-16164817D02*
X14731425Y-16155293D01*
X14731425Y-16155293D02*
X14779044Y-16155293D01*
X14779044Y-16155293D02*
X14798092Y-16145769D01*
X14864758Y-16098150D02*
X14940949Y-16098150D01*
X14893330Y-16031484D02*
X14893330Y-16202912D01*
X14893330Y-16202912D02*
X14902854Y-16221960D01*
X14902854Y-16221960D02*
X14921901Y-16231484D01*
X14921901Y-16231484D02*
X14940949Y-16231484D01*
X15083806Y-16221960D02*
X15064758Y-16231484D01*
X15064758Y-16231484D02*
X15026663Y-16231484D01*
X15026663Y-16231484D02*
X15007615Y-16221960D01*
X15007615Y-16221960D02*
X14998092Y-16202912D01*
X14998092Y-16202912D02*
X14998092Y-16126722D01*
X14998092Y-16126722D02*
X15007615Y-16107674D01*
X15007615Y-16107674D02*
X15026663Y-16098150D01*
X15026663Y-16098150D02*
X15064758Y-16098150D01*
X15064758Y-16098150D02*
X15083806Y-16107674D01*
X15083806Y-16107674D02*
X15093330Y-16126722D01*
X15093330Y-16126722D02*
X15093330Y-16145769D01*
X15093330Y-16145769D02*
X14998092Y-16164817D01*
X15264758Y-16231484D02*
X15264758Y-16031484D01*
X15264758Y-16221960D02*
X15245711Y-16231484D01*
X15245711Y-16231484D02*
X15207615Y-16231484D01*
X15207615Y-16231484D02*
X15188568Y-16221960D01*
X15188568Y-16221960D02*
X15179044Y-16212436D01*
X15179044Y-16212436D02*
X15169520Y-16193388D01*
X15169520Y-16193388D02*
X15169520Y-16136246D01*
X15169520Y-16136246D02*
X15179044Y-16117198D01*
X15179044Y-16117198D02*
X15188568Y-16107674D01*
X15188568Y-16107674D02*
X15207615Y-16098150D01*
X15207615Y-16098150D02*
X15245711Y-16098150D01*
X15245711Y-16098150D02*
X15264758Y-16107674D01*
X15340949Y-16307674D02*
X15350473Y-16298150D01*
X15350473Y-16298150D02*
X15369520Y-16269579D01*
X15369520Y-16269579D02*
X15379044Y-16250531D01*
X15379044Y-16250531D02*
X15388568Y-16221960D01*
X15388568Y-16221960D02*
X15398092Y-16174341D01*
X15398092Y-16174341D02*
X15398092Y-16136246D01*
X15398092Y-16136246D02*
X15388568Y-16088627D01*
X15388568Y-16088627D02*
X15379044Y-16060055D01*
X15379044Y-16060055D02*
X15369520Y-16041008D01*
X15369520Y-16041008D02*
X15350473Y-16012436D01*
X15350473Y-16012436D02*
X15340949Y-16002912D01*
M02*
