G04 #@! TF.GenerationSoftware,KiCad,Pcbnew,7.0.10*
G04 #@! TF.CreationDate,2026-05-07T02:49:43-04:00*
G04 #@! TF.ProjectId,bms-board,626d732d-626f-4617-9264-2e6b69636164,B*
G04 #@! TF.SameCoordinates,Original*
G04 #@! TF.FileFunction,Paste,Bot*
G04 #@! TF.FilePolarity,Positive*
%FSLAX46Y46*%
G04 Gerber Fmt 4.6, Leading zero omitted, Abs format (unit mm)*
G04 Created by KiCad (PCBNEW 7.0.10) date 2026-05-07 02:49:43*
%MOMM*%
%LPD*%
G01*
G04 APERTURE LIST*
G04 Aperture macros list*
%AMRoundRect*
0 Rectangle with rounded corners*
0 $1 Rounding radius*
0 $2 $3 $4 $5 $6 $7 $8 $9 X,Y pos of 4 corners*
0 Add a 4 corners polygon primitive as box body*
4,1,4,$2,$3,$4,$5,$6,$7,$8,$9,$2,$3,0*
0 Add four circle primitives for the rounded corners*
1,1,$1+$1,$2,$3*
1,1,$1+$1,$4,$5*
1,1,$1+$1,$6,$7*
1,1,$1+$1,$8,$9*
0 Add four rect primitives between the rounded corners*
20,1,$1+$1,$2,$3,$4,$5,0*
20,1,$1+$1,$4,$5,$6,$7,0*
20,1,$1+$1,$6,$7,$8,$9,0*
20,1,$1+$1,$8,$9,$2,$3,0*%
G04 Aperture macros list end*
%ADD10R,0.558800X1.320800*%
%ADD11R,1.300000X0.700000*%
%ADD12R,1.600000X0.855600*%
%ADD13R,12.192000X3.022600*%
%ADD14R,2.489200X1.066800*%
%ADD15R,0.950000X0.800000*%
%ADD16R,1.066800X2.489200*%
%ADD17R,0.889000X0.863600*%
%ADD18R,1.524000X0.533400*%
%ADD19R,0.863600X0.889000*%
%ADD20R,1.150000X0.600000*%
%ADD21R,1.380000X0.920000*%
%ADD22R,1.470000X1.160000*%
%ADD23R,1.016000X1.193800*%
%ADD24R,1.549400X0.609600*%
%ADD25R,1.549400X3.251200*%
%ADD26RoundRect,0.593023X-29.556977X-1.956977X29.556977X-1.956977X29.556977X1.956977X-29.556977X1.956977X0*%
%ADD27R,0.850900X0.355600*%
%ADD28R,0.700000X1.300000*%
%ADD29R,2.450000X5.550000*%
%ADD30RoundRect,0.242500X-0.242500X-0.367500X0.242500X-0.367500X0.242500X0.367500X-0.242500X0.367500X0*%
%ADD31R,1.244600X0.863600*%
%ADD32R,1.470000X1.110000*%
%ADD33R,1.300000X1.500000*%
%ADD34R,5.200000X8.750000*%
%ADD35R,1.447800X1.117600*%
%ADD36R,1.397000X1.066800*%
%ADD37R,2.700000X1.000000*%
%ADD38R,1.700000X0.600000*%
%ADD39R,0.930000X0.890000*%
%ADD40R,1.193800X1.016000*%
%ADD41R,1.110000X1.470000*%
%ADD42R,0.920000X1.380000*%
%ADD43R,1.066800X1.397000*%
%ADD44R,1.449997X1.305598*%
%ADD45R,1.450000X0.950000*%
%ADD46RoundRect,0.242500X0.367500X-0.242500X0.367500X0.242500X-0.367500X0.242500X-0.367500X-0.242500X0*%
%ADD47R,0.800000X0.950000*%
%ADD48R,1.400000X1.100000*%
%ADD49R,3.800000X1.800000*%
%ADD50R,0.977900X0.558800*%
%ADD51R,0.890000X0.930000*%
%ADD52RoundRect,0.050000X0.050000X0.387500X-0.050000X0.387500X-0.050000X-0.387500X0.050000X-0.387500X0*%
%ADD53RoundRect,0.050000X0.387500X0.050000X-0.387500X0.050000X-0.387500X-0.050000X0.387500X-0.050000X0*%
%ADD54RoundRect,0.250000X0.292217X0.292217X-0.292217X0.292217X-0.292217X-0.292217X0.292217X-0.292217X0*%
%ADD55R,0.609600X1.320800*%
%ADD56R,1.005599X1.199998*%
%ADD57R,1.397000X0.863600*%
%ADD58R,1.140000X0.300000*%
%ADD59R,1.140000X0.600000*%
%ADD60R,1.320800X0.558800*%
%ADD61R,0.950000X1.450000*%
%ADD62R,1.730000X2.100000*%
%ADD63R,2.700000X1.520000*%
%ADD64R,2.700000X1.100000*%
%ADD65R,1.100000X3.400000*%
%ADD66R,0.950000X0.350000*%
%ADD67R,0.350000X0.950000*%
%ADD68R,1.350000X0.300000*%
%ADD69RoundRect,0.593023X21.156977X1.956977X-21.156977X1.956977X-21.156977X-1.956977X21.156977X-1.956977X0*%
G04 APERTURE END LIST*
G36*
X154748900Y-134225600D02*
G01*
X153199500Y-134225600D01*
X153199500Y-130974400D01*
X154748900Y-130974400D01*
X154748900Y-134225600D01*
G37*
D10*
X125149999Y-113784000D03*
X127050001Y-113784000D03*
X126100000Y-115682650D03*
D11*
X123000000Y-128800000D03*
X123000000Y-126900000D03*
D12*
X134121800Y-66703798D03*
X134121800Y-69759400D03*
D13*
X133400000Y-89254200D03*
X133400000Y-74700000D03*
D11*
X142700000Y-120400000D03*
X142700000Y-118500000D03*
D14*
X163950000Y-88477600D03*
X163950000Y-91322400D03*
X160150000Y-88477600D03*
X160150000Y-91322400D03*
D15*
X174900000Y-132000000D03*
X174900000Y-130400000D03*
D16*
X161822400Y-62900000D03*
X158977600Y-62900000D03*
D17*
X127421800Y-67550000D03*
X127421800Y-69201000D03*
D18*
X138410200Y-111860000D03*
X138410200Y-113130000D03*
X138410200Y-114400000D03*
X138410200Y-115670000D03*
X145700000Y-115670000D03*
X145700000Y-114400000D03*
X145700000Y-113130000D03*
X145700000Y-111860000D03*
D19*
X134649000Y-111800000D03*
X136300000Y-111800000D03*
D16*
X161822400Y-69700000D03*
X158977600Y-69700000D03*
D20*
X167325000Y-119086649D03*
X165025000Y-118136649D03*
X165025000Y-120036649D03*
D21*
X116900000Y-126810000D03*
X116900000Y-124900000D03*
D19*
X124386500Y-120175000D03*
X126037500Y-120175000D03*
D14*
X156100000Y-82122400D03*
X156100000Y-79277600D03*
D22*
X118421800Y-74840000D03*
X118421800Y-76600000D03*
D23*
X176100000Y-84900000D03*
X177801800Y-84900000D03*
D16*
X161822400Y-76500000D03*
X158977600Y-76500000D03*
D24*
X160425800Y-134898700D03*
D25*
X153974200Y-132600000D03*
D24*
X160425800Y-132600000D03*
X160425800Y-130301300D03*
D26*
X136437500Y-95587500D03*
D15*
X178500000Y-81400000D03*
X178500000Y-79800000D03*
D27*
X163801700Y-114686651D03*
X163801700Y-115336650D03*
X163801700Y-115986649D03*
X166075000Y-115986649D03*
X166075000Y-115336650D03*
X166075000Y-114686651D03*
D28*
X165150000Y-112800000D03*
X163250000Y-112800000D03*
D29*
X150700000Y-74900000D03*
X150700000Y-65100000D03*
D21*
X133200000Y-61555000D03*
X133200000Y-59645000D03*
D30*
X170883400Y-133800000D03*
X167603400Y-133800000D03*
D16*
X123400000Y-90700000D03*
X120555200Y-90700000D03*
D31*
X115900000Y-84828900D03*
X115900000Y-82974700D03*
D17*
X135000000Y-115525500D03*
X135000000Y-113874500D03*
D32*
X165400000Y-132500000D03*
X165400000Y-130700000D03*
D17*
X113900000Y-117649000D03*
X113900000Y-119300000D03*
D33*
X133537500Y-133575000D03*
X135437500Y-133575000D03*
D34*
X119800000Y-104000000D03*
X109000000Y-104000000D03*
D21*
X117000000Y-131445000D03*
X117000000Y-133355000D03*
D15*
X141100000Y-140300000D03*
X141100000Y-138700000D03*
D12*
X136521800Y-66703798D03*
X136521800Y-69759400D03*
D31*
X113825000Y-81272600D03*
X113825000Y-79418400D03*
D19*
X173976400Y-82800000D03*
X172325400Y-82800000D03*
D23*
X115846800Y-61950000D03*
X114145000Y-61950000D03*
D27*
X166038350Y-121736650D03*
X166038350Y-122386649D03*
X166038350Y-123036648D03*
X168311650Y-123036648D03*
X168311650Y-122386649D03*
X168311650Y-121736650D03*
D35*
X112100000Y-72700000D03*
X112100000Y-70906400D03*
D11*
X147600000Y-121700000D03*
X147600000Y-123600000D03*
D16*
X161822400Y-66300000D03*
X158977600Y-66300000D03*
D36*
X167776400Y-83098300D03*
X167776400Y-84901700D03*
D37*
X183823751Y-84000000D03*
X183823751Y-74050000D03*
D38*
X180623751Y-82150000D03*
X180623751Y-80900000D03*
X180623751Y-79650000D03*
X180623751Y-78400000D03*
X180623751Y-77150000D03*
X180623751Y-75900000D03*
D15*
X174900000Y-128800000D03*
X174900000Y-127200000D03*
D39*
X110113000Y-117579000D03*
X110113000Y-119119000D03*
D15*
X141600000Y-59800000D03*
X141600000Y-58200000D03*
D40*
X112651600Y-76636700D03*
X112651600Y-74934900D03*
D23*
X144850000Y-117950000D03*
X146551800Y-117950000D03*
D41*
X122321800Y-74100000D03*
X120521800Y-74100000D03*
D39*
X128900000Y-117575000D03*
X128900000Y-116035000D03*
D40*
X115900000Y-81250900D03*
X115900000Y-79549100D03*
D19*
X141900000Y-127500000D03*
X140249000Y-127500000D03*
D23*
X119446800Y-61950000D03*
X117745000Y-61950000D03*
D17*
X173300000Y-77725500D03*
X173300000Y-76074500D03*
X115800000Y-116849000D03*
X115800000Y-118500000D03*
D21*
X139200000Y-59455000D03*
X139200000Y-57545000D03*
D40*
X114700000Y-76650900D03*
X114700000Y-74949100D03*
D12*
X131721800Y-66695398D03*
X131721800Y-69751000D03*
D23*
X115650900Y-68000000D03*
X113949100Y-68000000D03*
D21*
X119800000Y-131445000D03*
X119800000Y-133355000D03*
D17*
X133000000Y-112874500D03*
X133000000Y-114525500D03*
D16*
X154305200Y-90800000D03*
X157150000Y-90800000D03*
D14*
X144500000Y-82222400D03*
X144500000Y-79377600D03*
D28*
X171925000Y-119586649D03*
X170025000Y-119586649D03*
D40*
X129200000Y-112049100D03*
X129200000Y-113750900D03*
D28*
X115800000Y-70200000D03*
X113900000Y-70200000D03*
D39*
X92700000Y-121160000D03*
X92700000Y-122700000D03*
D42*
X135245000Y-59300000D03*
X137155000Y-59300000D03*
D15*
X130900000Y-58400000D03*
X130900000Y-60000000D03*
D43*
X169545600Y-74600000D03*
X171349000Y-74600000D03*
D39*
X112013000Y-116849000D03*
X112013000Y-118389000D03*
D21*
X105513000Y-117649000D03*
X105513000Y-119559000D03*
D19*
X139688500Y-120175000D03*
X138037500Y-120175000D03*
X169449000Y-76800000D03*
X171100000Y-76800000D03*
D39*
X170700000Y-121260000D03*
X170700000Y-122800000D03*
D44*
X129400000Y-67550000D03*
X129400000Y-69155598D03*
D45*
X107913000Y-116823500D03*
X107913000Y-118823500D03*
D46*
X162955000Y-132260000D03*
X162955000Y-135540000D03*
D40*
X107873900Y-115023500D03*
X107873900Y-113321700D03*
D19*
X123425500Y-88300000D03*
X121774500Y-88300000D03*
D17*
X121434400Y-64517100D03*
X121434400Y-62866100D03*
D47*
X170500000Y-124900000D03*
X168900000Y-124900000D03*
D19*
X126100000Y-123900000D03*
X124449000Y-123900000D03*
D48*
X133537500Y-135674998D03*
X131337500Y-135674998D03*
X131337500Y-137275000D03*
X133537500Y-137275000D03*
D49*
X182700000Y-138150000D03*
X182700000Y-123450000D03*
D37*
X178250000Y-135800000D03*
X178250000Y-133800000D03*
X178250000Y-131800000D03*
X178250000Y-129800000D03*
X178250000Y-127800000D03*
X178250000Y-125800000D03*
D41*
X167800000Y-130600000D03*
X169600000Y-130600000D03*
D50*
X171434750Y-115449999D03*
X171434750Y-116400000D03*
X171434750Y-117350001D03*
X174165250Y-117350001D03*
X174165250Y-116400000D03*
X174165250Y-115449999D03*
D51*
X114146800Y-63868700D03*
X115686800Y-63868700D03*
D17*
X169976400Y-83074500D03*
X169976400Y-84725500D03*
D52*
X134000000Y-119900000D03*
X133600000Y-119900000D03*
X133200000Y-119900000D03*
X132800000Y-119900000D03*
X132400000Y-119900000D03*
X132000000Y-119900000D03*
X131600000Y-119900000D03*
X131200000Y-119900000D03*
X130800000Y-119900000D03*
X130400000Y-119900000D03*
X130000000Y-119900000D03*
X129600000Y-119900000D03*
X129200000Y-119900000D03*
X128800000Y-119900000D03*
D53*
X127962500Y-120737500D03*
X127962500Y-121137500D03*
X127962500Y-121537500D03*
X127962500Y-121937500D03*
X127962500Y-122337500D03*
X127962500Y-122737500D03*
X127962500Y-123137500D03*
X127962500Y-123537500D03*
X127962500Y-123937500D03*
X127962500Y-124337500D03*
X127962500Y-124737500D03*
X127962500Y-125137500D03*
X127962500Y-125537500D03*
X127962500Y-125937500D03*
D52*
X128800000Y-126775000D03*
X129200000Y-126775000D03*
X129600000Y-126775000D03*
X130000000Y-126775000D03*
X130400000Y-126775000D03*
X130800000Y-126775000D03*
X131200000Y-126775000D03*
X131600000Y-126775000D03*
X132000000Y-126775000D03*
X132400000Y-126775000D03*
X132800000Y-126775000D03*
X133200000Y-126775000D03*
X133600000Y-126775000D03*
X134000000Y-126775000D03*
D53*
X134837500Y-125937500D03*
X134837500Y-125537500D03*
X134837500Y-125137500D03*
X134837500Y-124737500D03*
X134837500Y-124337500D03*
X134837500Y-123937500D03*
X134837500Y-123537500D03*
X134837500Y-123137500D03*
X134837500Y-122737500D03*
X134837500Y-122337500D03*
X134837500Y-121937500D03*
X134837500Y-121537500D03*
X134837500Y-121137500D03*
X134837500Y-120737500D03*
D54*
X130762500Y-122700000D03*
X130762500Y-123975000D03*
X132037500Y-122700000D03*
X132037500Y-123975000D03*
D21*
X114100000Y-122400000D03*
X114100000Y-124310000D03*
D55*
X95800000Y-122415200D03*
X96750001Y-120384800D03*
X94849999Y-120384800D03*
D15*
X172200000Y-66200000D03*
X172200000Y-67800000D03*
D45*
X89000000Y-117400000D03*
X89000000Y-115400000D03*
D21*
X119600000Y-127800000D03*
X119600000Y-125890000D03*
D47*
X126000000Y-135900000D03*
X124400000Y-135900000D03*
D40*
X131637500Y-129873200D03*
X131637500Y-131575000D03*
D56*
X115776800Y-65700000D03*
X114071202Y-65700000D03*
D20*
X161650000Y-117600000D03*
X159350000Y-116650000D03*
X159350000Y-118550000D03*
D15*
X176000000Y-76800000D03*
X176000000Y-78400000D03*
D57*
X111425000Y-79399700D03*
X111425000Y-81457100D03*
D42*
X143400000Y-131700000D03*
X141490000Y-131700000D03*
D40*
X131100000Y-112049100D03*
X131100000Y-113750900D03*
D16*
X161822400Y-73100000D03*
X158977600Y-73100000D03*
D33*
X131337500Y-133575000D03*
X129437500Y-133575000D03*
D58*
X178650000Y-114680000D03*
X178650000Y-115680000D03*
X178650000Y-117180000D03*
X178650000Y-118180000D03*
D59*
X178650000Y-118830000D03*
X178650000Y-119630000D03*
D58*
X178650000Y-117680000D03*
X178650000Y-116680000D03*
X178650000Y-116180000D03*
X178650000Y-115180000D03*
D59*
X178650000Y-114030000D03*
X178650000Y-113230000D03*
D42*
X142610000Y-134000000D03*
X140700000Y-134000000D03*
D60*
X168981000Y-78849999D03*
X168981000Y-79800000D03*
X168981000Y-80750001D03*
X171571800Y-80750001D03*
X171571800Y-79800000D03*
X171571800Y-78849999D03*
D39*
X168200000Y-114260000D03*
X168200000Y-115800000D03*
D17*
X125324400Y-64791600D03*
X125324400Y-63140600D03*
D21*
X114100000Y-133355000D03*
X114100000Y-131445000D03*
D51*
X125260000Y-118000000D03*
X126800000Y-118000000D03*
D45*
X89000000Y-121400000D03*
X89000000Y-119400000D03*
D15*
X178500000Y-74700000D03*
X178500000Y-76300000D03*
D61*
X174050900Y-85000000D03*
X172050900Y-85000000D03*
D62*
X124834400Y-69491600D03*
D63*
X124349400Y-69201600D03*
D64*
X124349400Y-67591600D03*
D65*
X122149400Y-68791600D03*
D66*
X120824400Y-67041600D03*
X120824400Y-67541600D03*
X120824400Y-68041600D03*
X120824400Y-68541600D03*
X120824400Y-69041600D03*
X120824400Y-69541600D03*
X120824400Y-70041600D03*
X120824400Y-70541600D03*
D67*
X121599400Y-71316600D03*
X122099400Y-71316600D03*
X122599400Y-71316600D03*
X123099400Y-71316600D03*
X123599400Y-71316600D03*
D68*
X124749400Y-70991600D03*
D67*
X124249400Y-71316600D03*
X124749400Y-71316600D03*
X125249400Y-71316600D03*
D66*
X125874400Y-70051600D03*
X125874400Y-69551600D03*
X125874400Y-69051600D03*
X125874400Y-67921600D03*
X125874400Y-67271600D03*
D67*
X125099400Y-66266600D03*
X124599400Y-66266600D03*
X123599400Y-66266600D03*
X122949400Y-66266600D03*
X122299400Y-66266600D03*
X121649400Y-66266600D03*
D21*
X105513000Y-113839000D03*
X105513000Y-115749000D03*
D28*
X125250000Y-111800000D03*
X127150000Y-111800000D03*
D39*
X123824400Y-63163600D03*
X123824400Y-64791600D03*
D15*
X174900000Y-133700000D03*
X174900000Y-135300000D03*
D69*
X144987500Y-102812500D03*
M02*
