M48
; DRILL file {KiCad 7.0.10} date Mon Jul 14 05:47:30 2025
; FORMAT={-:-/ absolute / metric / decimal}
; #@! TF.CreationDate,2025-07-14T05:47:30-04:00
; #@! TF.GenerationSoftware,Kicad,Pcbnew,7.0.10
; #@! TF.FileFunction,Plated,1,6,PTH
FMAT,2
METRIC
; #@! TA.AperFunction,Plated,PTH,ViaDrill
T1C0.350
; #@! TA.AperFunction,Plated,PTH,ComponentDrill
T2C0.350
; #@! TA.AperFunction,Plated,PTH,ComponentDrill
T3C0.500
; #@! TA.AperFunction,Plated,PTH,ComponentDrill
T4C0.600
; #@! TA.AperFunction,Plated,PTH,ComponentDrill
T5C0.850
; #@! TA.AperFunction,Plated,PTH,ComponentDrill
T6C0.900
; #@! TA.AperFunction,Plated,PTH,ComponentDrill
T7C1.000
; #@! TA.AperFunction,Plated,PTH,ComponentDrill
T8C1.020
; #@! TA.AperFunction,Plated,PTH,ComponentDrill
T9C1.200
; #@! TA.AperFunction,Plated,PTH,ComponentDrill
T10C1.245
; #@! TA.AperFunction,Plated,PTH,ComponentDrill
T11C1.800
; #@! TA.AperFunction,Plated,PTH,ComponentDrill
T12C2.700
; #@! TA.AperFunction,Plated,PTH,ComponentDrill
T13C3.200
%
G90
G05
T1
X87.1Y-53.0
X87.1Y-55.0
X87.1Y-57.0
X87.1Y-59.0
X87.1Y-61.0
X87.1Y-63.0
X87.1Y-65.0
X87.1Y-67.0
X87.1Y-69.0
X87.1Y-71.0
X87.1Y-73.0
X87.1Y-75.0
X87.1Y-77.0
X87.1Y-79.0
X87.1Y-81.0
X87.1Y-83.0
X87.1Y-85.2
X87.1Y-87.2
X87.1Y-89.2
X87.1Y-109.3
X87.1Y-111.0
X87.1Y-113.0
X87.1Y-123.0
X87.1Y-125.0
X87.1Y-127.0
X87.1Y-129.0
X87.1Y-131.0
X87.1Y-133.0
X87.1Y-135.0
X87.1Y-137.0
X87.1Y-139.0
X87.1Y-141.0
X87.1Y-143.0
X87.1Y-145.0
X87.5Y-50.8
X87.6Y-147.5
X88.1Y-114.1
X89.1Y-85.2
X89.1Y-87.2
X89.1Y-89.2
X89.1Y-109.3
X89.7Y-50.4
X90.1Y-148.0
X90.3Y-114.3
X90.855Y-115.6
X91.1Y-87.2
X91.1Y-89.2
X91.1Y-109.3
X91.4Y-116.9
X91.7Y-50.4
X92.1Y-148.0
X92.7Y-123.9
X93.1Y-87.2
X93.1Y-89.2
X93.1Y-109.3
X93.7Y-50.4
X94.1Y-148.0
X95.1Y-87.2
X95.1Y-89.2
X95.1Y-95.2
X95.1Y-97.2
X95.1Y-101.3
X95.1Y-103.3
X95.1Y-107.3
X95.1Y-109.3
X95.7Y-50.4
X95.9Y-123.9
X96.1Y-148.0
X97.1Y-87.2
X97.1Y-89.2
X97.1Y-95.2
X97.1Y-97.2
X97.1Y-101.3
X97.1Y-103.3
X97.1Y-109.3
X97.7Y-50.4
X98.1Y-148.0
X99.1Y-89.2
X99.1Y-91.2
X99.1Y-93.2
X99.1Y-95.2
X99.1Y-97.2
X99.1Y-101.3
X99.1Y-103.3
X99.1Y-105.3
X99.1Y-107.3
X99.1Y-109.3
X99.7Y-50.4
X100.1Y-148.0
X100.4Y-113.0
X100.6Y-122.1
X101.1Y-91.2
X101.1Y-93.2
X101.1Y-107.3
X101.1Y-111.9
X103.1Y-107.3
X105.1Y-93.2
X105.1Y-105.3
X105.1Y-107.3
X105.125Y-111.125
X105.7Y-50.4
X105.9Y-112.8
X106.1Y-148.0
X106.9Y-85.9
X107.0Y-122.1
X107.6Y-96.0
X107.6Y-96.0
X107.7Y-50.4
X107.83Y-119.85
X108.1Y-101.3
X108.1Y-102.8
X108.1Y-104.3
X108.1Y-105.8
X108.1Y-107.3
X108.1Y-148.0
X108.55Y-127.5
X108.9Y-97.3
X108.9Y-97.3
X109.1Y-122.8
X109.4Y-112.9
X109.6Y-81.7
X109.6Y-101.3
X109.6Y-102.8
X109.6Y-104.3
X109.6Y-105.8
X109.6Y-107.3
X109.7Y-50.4
X110.1Y-148.0
X111.1Y-101.3
X111.1Y-102.8
X111.1Y-104.3
X111.1Y-105.8
X111.1Y-107.3
X111.2Y-121.9
X111.4Y-78.2
X111.7Y-50.4
X112.0Y-119.8
X112.05Y-127.6
X112.1Y-148.0
X112.3Y-67.6
X112.624Y-81.7
X113.2Y-71.2
X113.4Y-105.0
X113.6Y-95.7
X113.7Y-50.4
X114.1Y-148.0
X114.3Y-85.172
X114.9Y-104.0
X115.8Y-119.8
X117.7Y-103.3
X117.7Y-105.3
X117.7Y-107.3
X118.0Y-95.7
X118.0Y-132.1
X118.0Y-137.3
X118.53Y-64.13
X118.6Y-106.3
X119.2Y-122.7
X119.3Y-92.0
X119.7Y-50.4
X119.7Y-107.3
X120.1Y-148.0
X120.5Y-96.0
X120.5Y-96.0
X120.5Y-96.0
X120.6Y-104.2
X120.75Y-72.65
X120.8Y-142.8
X121.0Y-66.0
X121.565Y-61.25
X121.7Y-103.3
X121.7Y-105.3
X121.8Y-94.7
X122.1Y-148.0
X122.5Y-77.4
X123.9Y-95.8
X124.1Y-148.0
X124.4Y-119.4
X124.4Y-120.938
X124.4Y-126.8
X124.449Y-123.9
X124.6Y-117.2
X125.0Y-102.0
X125.2Y-97.1
X125.77Y-131.49
X125.77Y-132.69
X126.026Y-120.187
X126.1Y-104.2
X126.1Y-123.9
X126.1Y-148.0
X126.9Y-126.9
X126.97Y-131.49
X126.97Y-132.69
X127.2Y-111.6
X127.6Y-116.8
X127.65Y-115.55
X128.1Y-148.0
X128.5Y-104.2
X129.1Y-121.22
X129.1Y-124.3
X129.4Y-132.0
X129.7Y-136.9
X130.1Y-148.0
X130.537Y-125.625
X131.207Y-120.718
X132.0Y-64.1
X132.0Y-101.2
X132.0Y-115.15
X132.147Y-112.853
X132.349Y-125.8
X133.0Y-139.3
X133.6Y-64.1
X133.8Y-101.0
X133.8Y-110.85
X133.992Y-112.65
X134.0Y-130.375
X135.0Y-136.525
X135.45Y-132.05
X135.5Y-94.7
X135.85Y-120.137
X135.902Y-115.225
X136.1Y-123.737
X136.1Y-148.0
X136.3Y-111.8
X136.9Y-120.3
X137.4Y-71.4
X138.1Y-94.7
X138.1Y-104.2
X138.1Y-148.0
X138.7Y-101.05
X138.7Y-127.4
X139.4Y-63.45
X139.4Y-65.5
X139.4Y-67.4
X139.4Y-69.426
X139.4Y-71.426
X139.4Y-95.85
X140.5Y-102.5
X140.7Y-94.7
X140.7Y-97.3
X140.9Y-122.0
X141.1Y-120.2
X141.4Y-63.4
X141.4Y-65.4
X141.4Y-67.4
X141.4Y-69.4
X141.4Y-71.4
X141.5Y-129.125
X141.649Y-124.601
X141.7Y-50.4
X142.1Y-148.0
X142.2Y-59.3
X142.61Y-134.325
X142.8Y-101.3
X142.9Y-103.7
X143.4Y-63.4
X143.4Y-65.4
X143.4Y-67.4
X143.4Y-69.4
X143.4Y-71.4
X143.4Y-73.4
X143.4Y-131.7
X143.6Y-94.7
X143.6Y-97.3
X143.7Y-50.4
X143.8Y-122.0
X144.075Y-115.6
X144.1Y-148.0
X144.2Y-134.375
X144.3Y-120.25
X144.3Y-127.5
X145.2Y-101.5
X145.2Y-103.7
X145.3Y-131.7
X145.4Y-63.4
X145.4Y-67.4
X145.4Y-71.4
X145.4Y-73.4
X145.6Y-120.25
X145.7Y-50.4
X145.9Y-80.2
X145.9Y-82.2
X145.9Y-82.2
X145.9Y-84.2
X146.1Y-148.0
X146.2Y-94.7
X146.2Y-97.3
X146.3Y-122.0
X146.3Y-124.5
X147.4Y-61.4
X147.4Y-65.4
X147.4Y-67.4
X147.4Y-69.4
X147.4Y-71.4
X147.4Y-73.4
X147.4Y-127.3
X147.4Y-131.7
X147.5Y-96.0
X147.7Y-50.4
X147.9Y-80.2
X148.1Y-148.0
X149.25Y-67.5
X149.4Y-61.4
X149.4Y-63.4
X149.4Y-69.4
X149.7Y-50.4
X149.7Y-103.7
X149.9Y-80.2
X149.9Y-87.4
X150.1Y-148.0
X150.6Y-127.3
X150.7Y-121.9
X151.16Y-132.51
X151.3Y-101.3
X151.31Y-89.25
X151.4Y-71.4
X151.4Y-73.4
X151.6Y-94.7
X151.6Y-97.3
X151.6Y-120.25
X151.7Y-50.4
X151.9Y-80.2
X152.1Y-148.0
X152.2Y-121.9
X152.3Y-103.7
X152.9Y-96.0
X153.375Y-87.675
X153.4Y-61.4
X153.4Y-63.4
X153.4Y-65.4
X153.4Y-67.4
X153.4Y-73.4
X153.5Y-101.3
X153.9Y-80.2
X154.3Y-90.55
X154.7Y-103.7
X155.7Y-82.5
X155.9Y-80.2
X155.9Y-101.3
X156.7Y-89.3
X156.95Y-97.4
X157.05Y-90.6
X157.2Y-103.7
X157.7Y-50.4
X157.8Y-82.5
X157.8Y-123.5
X157.9Y-72.2
X157.9Y-78.2
X157.9Y-80.2
X157.9Y-125.9
X158.0Y-130.5
X158.1Y-148.0
X158.2Y-101.3
X158.6Y-94.7
X159.1Y-87.6
X159.1Y-124.3
X159.6Y-108.2
X159.7Y-50.4
X159.7Y-123.4
X159.9Y-62.2
X159.9Y-68.2
X159.9Y-70.2
X159.9Y-72.2
X159.9Y-74.2
X159.9Y-74.2
X159.9Y-80.2
X159.9Y-82.5
X160.1Y-148.0
X160.5Y-90.9
X160.5Y-122.1
X160.6Y-101.3
X161.0Y-88.1
X161.0Y-103.671
X161.2Y-94.7
X161.263Y-124.989
X161.313Y-124.19
X161.5Y-122.1
X161.5Y-122.1
X161.6Y-127.0
X161.7Y-50.4
X161.7Y-138.1
X161.9Y-62.2
X161.9Y-64.2
X161.9Y-70.2
X161.9Y-72.2
X161.9Y-74.2
X161.9Y-74.2
X162.0Y-82.5
X162.06Y-106.78
X162.1Y-148.0
X162.2Y-90.925
X162.5Y-122.7
X162.6Y-126.9
X162.934Y-130.766
X163.0Y-138.1
X163.1Y-101.3
X163.2Y-123.3
X163.5Y-103.671
X163.7Y-50.4
X163.8Y-94.7
X163.8Y-97.3
X163.9Y-62.2
X163.9Y-64.2
X163.9Y-66.2
X163.9Y-72.2
X163.9Y-74.2
X164.1Y-128.4
X164.1Y-130.8
X164.1Y-148.0
X164.6Y-127.8
X164.9Y-105.5
X165.7Y-50.4
X165.9Y-62.2
X165.9Y-64.2
X165.9Y-66.2
X165.9Y-68.2
X165.9Y-74.2
X165.9Y-82.4
X166.0Y-84.9
X166.0Y-86.6
X166.1Y-148.0
X167.45Y-79.8
X167.5Y-127.3
X167.6Y-85.95
X168.3Y-129.01
X168.4Y-69.8
X168.6Y-100.2
X168.6Y-106.2
X168.6Y-108.2
X168.8Y-123.2
X169.449Y-76.725
X169.546Y-74.6
X170.0Y-86.4
X170.5Y-120.7
X170.6Y-92.2
X170.6Y-106.2
X170.6Y-108.2
X170.9Y-135.5
X171.5Y-121.4
X171.7Y-50.4
X171.7Y-69.9
X172.0Y-86.4
X172.1Y-148.0
X172.3Y-82.8
X172.6Y-74.6
X172.6Y-92.2
X172.6Y-92.2
X172.6Y-98.2
X172.6Y-100.2
X172.6Y-104.2
X172.6Y-106.2
X172.6Y-108.2
X172.7Y-117.4
X172.8Y-126.0
X172.9Y-130.8
X173.1Y-79.8
X173.4Y-74.9
X173.7Y-50.4
X173.724Y-79.0
X174.1Y-148.0
X174.4Y-73.6
X174.6Y-90.2
X174.6Y-94.2
X174.6Y-96.2
X174.6Y-98.2
X174.6Y-100.2
X174.6Y-102.2
X174.6Y-108.2
X175.4Y-127.0
X175.7Y-50.4
X175.935Y-130.8
X176.1Y-148.0
X176.5Y-138.7
X176.6Y-90.2
X176.6Y-96.2
X176.6Y-98.2
X176.6Y-100.2
X176.6Y-102.2
X176.6Y-108.2
X177.1Y-112.8
X177.1Y-120.0
X177.5Y-137.7
X177.7Y-50.4
X178.1Y-148.0
X178.5Y-138.7
X178.6Y-98.2
X178.6Y-100.2
X179.024Y-79.0
X179.1Y-84.9
X179.2Y-123.45
X179.5Y-137.7
X179.7Y-50.4
X180.1Y-148.0
X180.4Y-125.8
X180.4Y-127.8
X180.6Y-88.2
X180.6Y-98.2
X180.6Y-100.2
X180.6Y-115.9
X180.6Y-117.2
X181.15Y-112.11
X181.25Y-120.8
X181.3Y-134.1
X181.3Y-136.1
X181.4Y-126.8
X181.604Y-83.98
X181.624Y-74.0
X181.7Y-50.4
X182.1Y-148.0
X182.3Y-135.1
X182.324Y-76.1
X182.324Y-77.1
X182.4Y-125.8
X182.4Y-127.8
X182.43Y-80.887
X182.43Y-82.137
X182.6Y-88.2
X182.6Y-88.2
X182.6Y-98.2
X182.6Y-100.2
X183.3Y-134.1
X183.3Y-136.1
X183.324Y-76.1
X183.324Y-77.1
X183.4Y-126.8
X184.1Y-51.0
X184.3Y-135.1
X184.3Y-147.6
X184.324Y-76.1
X184.324Y-77.1
X184.6Y-86.2
X184.6Y-88.2
X184.6Y-98.2
X184.6Y-100.2
X184.6Y-115.9
X184.6Y-117.1
X184.7Y-53.4
X184.7Y-55.4
X184.7Y-57.4
X184.7Y-59.4
X184.7Y-61.4
X184.7Y-63.4
X184.7Y-65.4
X184.7Y-67.4
X184.7Y-69.4
X184.7Y-71.4
X184.7Y-79.4
X184.7Y-81.4
X184.7Y-111.4
X184.7Y-121.4
X184.7Y-125.4
X184.7Y-127.4
X184.7Y-129.4
X184.7Y-131.4
X184.7Y-141.4
X184.7Y-143.4
X184.7Y-145.4
T2
X130.125Y-122.062
X130.125Y-123.337
X130.125Y-124.612
X131.4Y-122.062
X131.4Y-123.337
X131.4Y-124.612
X132.675Y-122.062
X132.675Y-123.337
X132.675Y-124.612
T3
X86.9Y-90.7
X86.9Y-92.0
X86.9Y-93.3
X86.9Y-94.6
X86.9Y-95.9
X86.9Y-97.2
X86.9Y-101.2
X86.9Y-102.5
X86.9Y-103.8
X86.9Y-105.1
X86.9Y-106.4
X86.9Y-107.7
X88.2Y-90.7
X88.2Y-92.0
X88.2Y-93.3
X88.2Y-94.6
X88.2Y-95.9
X88.2Y-97.2
X88.2Y-101.2
X88.2Y-102.5
X88.2Y-103.8
X88.2Y-105.1
X88.2Y-106.4
X88.2Y-107.7
X89.5Y-90.7
X89.5Y-92.0
X89.5Y-93.3
X89.5Y-94.6
X89.5Y-95.9
X89.5Y-97.2
X89.5Y-101.2
X89.5Y-102.5
X89.5Y-103.8
X89.5Y-105.1
X89.5Y-106.4
X89.5Y-107.7
X90.8Y-90.7
X90.8Y-92.0
X90.8Y-93.3
X90.8Y-94.6
X90.8Y-95.9
X90.8Y-97.2
X90.8Y-101.2
X90.8Y-102.5
X90.8Y-103.8
X90.8Y-105.1
X90.8Y-106.4
X90.8Y-107.7
X92.1Y-90.7
X92.1Y-92.0
X92.1Y-93.3
X92.1Y-94.6
X92.1Y-95.9
X92.1Y-97.2
X92.1Y-101.2
X92.1Y-102.5
X92.1Y-103.8
X92.1Y-105.1
X92.1Y-106.4
X92.1Y-107.7
X93.4Y-90.7
X93.4Y-92.0
X93.4Y-93.3
X93.4Y-94.6
X93.4Y-95.9
X93.4Y-97.2
X93.4Y-101.2
X93.4Y-102.5
X93.4Y-103.8
X93.4Y-105.1
X93.4Y-106.4
X93.4Y-107.7
X178.5Y-89.8
X178.5Y-91.1
X178.5Y-92.4
X178.5Y-93.7
X178.5Y-95.0
X178.5Y-96.3
X178.5Y-102.1
X178.5Y-103.4
X178.5Y-104.7
X178.5Y-106.0
X178.5Y-107.3
X178.5Y-108.6
X179.8Y-89.8
X179.8Y-91.1
X179.8Y-92.4
X179.8Y-93.7
X179.8Y-95.0
X179.8Y-96.3
X179.8Y-102.1
X179.8Y-103.4
X179.8Y-104.7
X179.8Y-106.0
X179.8Y-107.3
X179.8Y-108.6
X181.1Y-89.8
X181.1Y-91.1
X181.1Y-92.4
X181.1Y-93.7
X181.1Y-95.0
X181.1Y-96.3
X181.1Y-102.1
X181.1Y-103.4
X181.1Y-104.7
X181.1Y-106.0
X181.1Y-107.3
X181.1Y-108.6
X182.4Y-89.8
X182.4Y-91.1
X182.4Y-92.4
X182.4Y-93.7
X182.4Y-95.0
X182.4Y-96.3
X182.4Y-102.1
X182.4Y-103.4
X182.4Y-104.7
X182.4Y-106.0
X182.4Y-107.3
X182.4Y-108.6
X183.7Y-89.8
X183.7Y-91.1
X183.7Y-92.4
X183.7Y-93.7
X183.7Y-95.0
X183.7Y-96.3
X183.7Y-102.1
X183.7Y-103.4
X183.7Y-104.7
X183.7Y-106.0
X183.7Y-107.3
X183.7Y-108.6
X185.0Y-89.8
X185.0Y-91.1
X185.0Y-92.4
X185.0Y-93.7
X185.0Y-95.0
X185.0Y-96.3
X185.0Y-102.1
X185.0Y-103.4
X185.0Y-104.7
X185.0Y-106.0
X185.0Y-107.3
X185.0Y-108.6
T5
X145.5Y-65.1
X145.5Y-70.1
T6
X95.25Y-54.7
X95.25Y-57.2
X95.25Y-59.7
X95.25Y-62.2
X95.25Y-64.7
X95.25Y-67.2
X95.25Y-69.7
X95.25Y-72.2
X95.25Y-74.7
X95.25Y-77.2
X95.25Y-79.7
X95.25Y-82.2
X95.25Y-84.7
T7
X111.02Y-132.1
X113.56Y-132.1
X116.1Y-132.1
X131.9Y-143.135
X131.9Y-145.675
X134.44Y-143.135
X134.44Y-145.675
X136.98Y-143.135
X136.98Y-145.675
X139.52Y-143.135
X139.52Y-145.675
T8
X111.8Y-64.2
X126.0Y-107.5
X150.2Y-72.5
T9
X123.9Y-59.68
X123.9Y-138.72
X126.4Y-59.68
X126.4Y-138.72
X145.376Y-59.7
X145.476Y-138.74
X147.876Y-59.7
X147.976Y-138.74
X175.42Y-64.4
X175.42Y-66.9
X175.42Y-69.4
T10
X96.358Y-125.9
X96.358Y-128.4
X96.358Y-130.9
X96.358Y-133.4
X98.858Y-125.9
X98.858Y-128.4
X98.858Y-130.9
X98.858Y-133.4
T11
X96.8Y-92.45
X96.8Y-105.95
X103.05Y-51.9
X103.05Y-146.5
X116.55Y-51.9
X116.55Y-146.5
X155.15Y-51.92
X155.25Y-146.457
X168.65Y-51.92
X168.75Y-146.457
X176.0Y-92.45
X176.0Y-105.95
T12
X102.8Y-95.6
X102.8Y-102.8
X106.2Y-57.9
X106.2Y-140.5
X113.4Y-57.9
X113.4Y-140.5
X158.3Y-57.92
X158.4Y-140.457
X165.5Y-57.92
X165.6Y-140.457
X170.0Y-95.6
X170.0Y-102.8
T13
X91.0Y-144.1
X120.65Y-83.95
X120.65Y-114.45
X151.15Y-83.95
X151.15Y-114.45
X180.8Y-54.3
X180.8Y-144.1
T4
X179.63Y-112.11G85X178.83Y-112.11
G05
X179.63Y-120.75G85X178.83Y-120.75
G05
X183.83Y-112.11G85X182.63Y-112.11
G05
X183.83Y-120.75G85X182.63Y-120.75
G05
M30
