G04 #@! TF.GenerationSoftware,KiCad,Pcbnew,7.0.10*
G04 #@! TF.CreationDate,2026-05-07T02:49:43-04:00*
G04 #@! TF.ProjectId,bms-board,626d732d-626f-4617-9264-2e6b69636164,B*
G04 #@! TF.SameCoordinates,Original*
G04 #@! TF.FileFunction,Paste,Top*
G04 #@! TF.FilePolarity,Positive*
%FSLAX46Y46*%
G04 Gerber Fmt 4.6, Leading zero omitted, Abs format (unit mm)*
G04 Created by KiCad (PCBNEW 7.0.10) date 2026-05-07 02:49:43*
%MOMM*%
%LPD*%
G01*
G04 APERTURE LIST*
G04 Aperture macros list*
%AMRoundRect*
0 Rectangle with rounded corners*
0 $1 Rounding radius*
0 $2 $3 $4 $5 $6 $7 $8 $9 X,Y pos of 4 corners*
0 Add a 4 corners polygon primitive as box body*
4,1,4,$2,$3,$4,$5,$6,$7,$8,$9,$2,$3,0*
0 Add four circle primitives for the rounded corners*
1,1,$1+$1,$2,$3*
1,1,$1+$1,$4,$5*
1,1,$1+$1,$6,$7*
1,1,$1+$1,$8,$9*
0 Add four rect primitives between the rounded corners*
20,1,$1+$1,$2,$3,$4,$5,0*
20,1,$1+$1,$4,$5,$6,$7,0*
20,1,$1+$1,$6,$7,$8,$9,0*
20,1,$1+$1,$8,$9,$2,$3,0*%
G04 Aperture macros list end*
%ADD10R,1.397000X0.863600*%
%ADD11R,1.409700X0.355600*%
%ADD12R,1.003300X0.558800*%
%ADD13R,1.450000X0.950000*%
%ADD14R,0.700000X1.300000*%
%ADD15R,0.863600X1.397000*%
%ADD16R,0.950000X1.450000*%
%ADD17R,3.352800X0.903200*%
%ADD18R,0.700000X0.600000*%
%ADD19R,1.016000X1.193800*%
%ADD20R,1.475000X0.300000*%
%ADD21R,0.300000X1.475000*%
%ADD22R,0.863600X1.244600*%
%ADD23R,1.397000X1.066800*%
%ADD24R,1.346200X0.965200*%
%ADD25R,0.800000X0.900000*%
%ADD26R,1.244600X0.863600*%
%ADD27R,1.000000X1.400000*%
%ADD28R,0.889000X0.863600*%
%ADD29R,0.900000X0.800000*%
%ADD30R,0.920000X1.380000*%
%ADD31R,0.863600X0.889000*%
%ADD32RoundRect,0.242500X-0.242500X-0.367500X0.242500X-0.367500X0.242500X0.367500X-0.242500X0.367500X0*%
%ADD33R,1.470000X1.110000*%
%ADD34R,1.066800X2.489200*%
%ADD35R,1.300000X0.700000*%
%ADD36R,0.930000X0.890000*%
%ADD37R,0.965200X1.346200*%
%ADD38R,1.449997X1.305598*%
%ADD39RoundRect,0.242500X0.367500X-0.242500X0.367500X0.242500X-0.367500X0.242500X-0.367500X-0.242500X0*%
%ADD40R,0.939800X1.244600*%
%ADD41R,0.950000X0.800000*%
%ADD42R,1.193800X1.016000*%
%ADD43R,1.041400X0.660400*%
%ADD44R,1.854200X3.403600*%
%ADD45R,0.855600X1.600000*%
%ADD46R,1.305598X1.449997*%
%ADD47R,1.761200X3.150799*%
%ADD48R,1.761200X0.850800*%
%ADD49R,1.470000X1.020000*%
G04 APERTURE END LIST*
D10*
X153500000Y-104700000D03*
X153500000Y-102642600D03*
D11*
X158505500Y-89250002D03*
X158505500Y-89900003D03*
X158505500Y-90550002D03*
X158505500Y-91200003D03*
X158505500Y-91850002D03*
X158505500Y-92500000D03*
X158505500Y-93150002D03*
X158505500Y-93800000D03*
X152600000Y-93800000D03*
X152600000Y-93149999D03*
X152600000Y-92500000D03*
X152600000Y-91849999D03*
X152600000Y-91200000D03*
X152600000Y-90550002D03*
X152600000Y-89900000D03*
X152600000Y-89250002D03*
D12*
X172652550Y-71150001D03*
X172652550Y-70200000D03*
X172652550Y-69249999D03*
X169947450Y-69249999D03*
X169947450Y-70200000D03*
X169947450Y-71150001D03*
D13*
X139300000Y-120600000D03*
X139300000Y-122600000D03*
D10*
X148500000Y-104700000D03*
X148500000Y-102642600D03*
D14*
X173350000Y-114200000D03*
X171450000Y-114200000D03*
D15*
X163100000Y-109171300D03*
X161042600Y-109171300D03*
D16*
X165300000Y-77200000D03*
X163300000Y-77200000D03*
D13*
X139401800Y-85900000D03*
X139401800Y-87900000D03*
D16*
X143400000Y-118800000D03*
X141400000Y-118800000D03*
D17*
X107400000Y-75744200D03*
X107400000Y-77000000D03*
D18*
X132850900Y-106400000D03*
X132850900Y-107800000D03*
D19*
X135000000Y-78400000D03*
X136701800Y-78400000D03*
D20*
X164588000Y-121412000D03*
X164588000Y-121912000D03*
X164588000Y-122412000D03*
X164588000Y-122912000D03*
X164588000Y-123412000D03*
X164588000Y-123912000D03*
X164588000Y-124412000D03*
X164588000Y-124912000D03*
X164588000Y-125412000D03*
X164588000Y-125912000D03*
X164588000Y-126412000D03*
X164588000Y-126912000D03*
D21*
X163100000Y-128400000D03*
X162600000Y-128400000D03*
X162100000Y-128400000D03*
X161600000Y-128400000D03*
X161100000Y-128400000D03*
X160600000Y-128400000D03*
X160100000Y-128400000D03*
X159600000Y-128400000D03*
X159100000Y-128400000D03*
X158600000Y-128400000D03*
X158100000Y-128400000D03*
X157600000Y-128400000D03*
D20*
X156112000Y-126912000D03*
X156112000Y-126412000D03*
X156112000Y-125912000D03*
X156112000Y-125412000D03*
X156112000Y-124912000D03*
X156112000Y-124412000D03*
X156112000Y-123912000D03*
X156112000Y-123412000D03*
X156112000Y-122912000D03*
X156112000Y-122412000D03*
X156112000Y-121912000D03*
X156112000Y-121412000D03*
D21*
X157600000Y-119924000D03*
X158100000Y-119924000D03*
X158600000Y-119924000D03*
X159100000Y-119924000D03*
X159600000Y-119924000D03*
X160100000Y-119924000D03*
X160600000Y-119924000D03*
X161100000Y-119924000D03*
X161600000Y-119924000D03*
X162100000Y-119924000D03*
X162600000Y-119924000D03*
X163100000Y-119924000D03*
D22*
X157972900Y-135800000D03*
X159827100Y-135800000D03*
D16*
X145300000Y-125700000D03*
X147300000Y-125700000D03*
D13*
X175800000Y-78000000D03*
X175800000Y-76000000D03*
D23*
X177700000Y-68101700D03*
X177700000Y-66298300D03*
D17*
X170600000Y-118372100D03*
X170600000Y-119627900D03*
D15*
X144242600Y-100400000D03*
X146300000Y-100400000D03*
D17*
X103400000Y-61772100D03*
X103400000Y-63027900D03*
X117300000Y-93272100D03*
X117300000Y-94527900D03*
D24*
X119900000Y-131472900D03*
X119900000Y-133327100D03*
D17*
X113300000Y-79300000D03*
X113300000Y-80555800D03*
D25*
X130101800Y-110000000D03*
X131052000Y-112000000D03*
X129151600Y-112000000D03*
D26*
X153900000Y-134000000D03*
X153900000Y-132145800D03*
D27*
X136800000Y-104600000D03*
X135000000Y-104600000D03*
D28*
X142300000Y-120974500D03*
X142300000Y-122625500D03*
D17*
X115200000Y-86172100D03*
X115200000Y-87427900D03*
D29*
X102600000Y-117600000D03*
X104600000Y-116649800D03*
X104600000Y-118550200D03*
D30*
X181845000Y-114200000D03*
X183755000Y-114200000D03*
D15*
X147300000Y-97900000D03*
X149357400Y-97900000D03*
D31*
X124786500Y-121775000D03*
X126437500Y-121775000D03*
D17*
X111300000Y-72272100D03*
X111300000Y-73527900D03*
D13*
X139401800Y-103400000D03*
X139401800Y-105400000D03*
D32*
X174940000Y-112000000D03*
X171660000Y-112000000D03*
D16*
X165300000Y-74500000D03*
X163300000Y-74500000D03*
D26*
X140100000Y-128854200D03*
X140100000Y-127000000D03*
D15*
X148157400Y-109171300D03*
X146100000Y-109171300D03*
D10*
X165100000Y-136628700D03*
X165100000Y-134571300D03*
D27*
X136800000Y-110400000D03*
X135000000Y-110400000D03*
D13*
X139401800Y-80051000D03*
X139401800Y-82051000D03*
D19*
X107798200Y-118300000D03*
X109500000Y-118300000D03*
D24*
X114100000Y-131472900D03*
X114100000Y-133327100D03*
D28*
X145000000Y-96549000D03*
X145000000Y-98200000D03*
D10*
X151000000Y-104700000D03*
X151000000Y-102642600D03*
D28*
X150400000Y-93374500D03*
X150400000Y-95025500D03*
D16*
X144700000Y-79400000D03*
X142700000Y-79400000D03*
D33*
X156300000Y-132500000D03*
X156300000Y-130700000D03*
D18*
X132850900Y-112200000D03*
X132850900Y-113600000D03*
D26*
X149700000Y-130945800D03*
X149700000Y-132800000D03*
D13*
X139401800Y-109200000D03*
X139401800Y-111200000D03*
D19*
X135000000Y-119125000D03*
X136701800Y-119125000D03*
D17*
X109400000Y-82800000D03*
X109400000Y-84055800D03*
D28*
X148500000Y-91600000D03*
X148500000Y-93251000D03*
D27*
X136800000Y-75551000D03*
X135000000Y-75551000D03*
D15*
X165600000Y-106771300D03*
X163542600Y-106771300D03*
D16*
X165300000Y-71800000D03*
X163300000Y-71800000D03*
D19*
X135000000Y-84200000D03*
X136701800Y-84200000D03*
D27*
X136800000Y-51600000D03*
X135000000Y-51600000D03*
D30*
X181845000Y-118800000D03*
X183755000Y-118800000D03*
D31*
X176125500Y-71900000D03*
X174474500Y-71900000D03*
D15*
X150600000Y-106771300D03*
X148542600Y-106771300D03*
D18*
X132850900Y-118025000D03*
X132850900Y-119425000D03*
D10*
X158500000Y-104700000D03*
X158500000Y-102642600D03*
D13*
X141900000Y-86500000D03*
X141900000Y-88500000D03*
X170500000Y-125700000D03*
X170500000Y-123700000D03*
X139401800Y-62451000D03*
X139401800Y-64451000D03*
D19*
X135000000Y-113300000D03*
X136701800Y-113300000D03*
D34*
X123727600Y-141800000D03*
X126572400Y-141800000D03*
D17*
X104400000Y-65272100D03*
X104400000Y-66527900D03*
D25*
X130101800Y-115925000D03*
X131052000Y-117925000D03*
X129151600Y-117925000D03*
D17*
X108400000Y-79300000D03*
X108400000Y-80555800D03*
D26*
X147400000Y-134427100D03*
X147400000Y-132572900D03*
D32*
X174240000Y-116300000D03*
X170960000Y-116300000D03*
D35*
X159100000Y-79050000D03*
X159100000Y-80950000D03*
D28*
X150900000Y-125351000D03*
X150900000Y-123700000D03*
D27*
X136800000Y-81351000D03*
X135000000Y-81351000D03*
D10*
X146000000Y-104700000D03*
X146000000Y-102642600D03*
D34*
X148000000Y-57000000D03*
X145155200Y-57000000D03*
D35*
X161600000Y-79050000D03*
X161600000Y-80950000D03*
D27*
X136801800Y-116225000D03*
X135001800Y-116225000D03*
X136800000Y-69651000D03*
X135000000Y-69651000D03*
D17*
X114400000Y-82800000D03*
X114400000Y-84055800D03*
D25*
X130101800Y-57151000D03*
X131052000Y-59151000D03*
X129151600Y-59151000D03*
D19*
X135000000Y-101700000D03*
X136701800Y-101700000D03*
D13*
X139401800Y-68451000D03*
X139401800Y-70451000D03*
D15*
X158200000Y-109171300D03*
X156142600Y-109171300D03*
D36*
X166600000Y-132570000D03*
X166600000Y-131030000D03*
D16*
X164400000Y-117200000D03*
X166400000Y-117200000D03*
D17*
X112400000Y-93272100D03*
X112400000Y-94527900D03*
D28*
X145200000Y-117449000D03*
X145200000Y-119100000D03*
D31*
X128837500Y-125575000D03*
X127186500Y-125575000D03*
D13*
X139401800Y-97600000D03*
X139401800Y-99600000D03*
D37*
X104527100Y-114200000D03*
X102672900Y-114200000D03*
D17*
X106400000Y-72272100D03*
X106400000Y-73527900D03*
D19*
X135000000Y-54700000D03*
X136701800Y-54700000D03*
D38*
X167900000Y-125802799D03*
X167900000Y-124197201D03*
D16*
X143700000Y-83700000D03*
X141700000Y-83700000D03*
D15*
X155600000Y-106771300D03*
X153542600Y-106771300D03*
D25*
X130101800Y-104200000D03*
X131052000Y-106200000D03*
X129151600Y-106200000D03*
D31*
X176125500Y-81900000D03*
X174474500Y-81900000D03*
D36*
X162200000Y-90925500D03*
X162200000Y-89385500D03*
D13*
X142100000Y-92700000D03*
X142100000Y-94700000D03*
D19*
X135000000Y-66700000D03*
X136701800Y-66700000D03*
X135000000Y-107500000D03*
X136701800Y-107500000D03*
D25*
X130101800Y-92600000D03*
X131052000Y-94600000D03*
X129151600Y-94600000D03*
D31*
X172600000Y-85500000D03*
X170949000Y-85500000D03*
D35*
X156400000Y-84350000D03*
X156400000Y-82450000D03*
D19*
X93898200Y-121900000D03*
X95600000Y-121900000D03*
D31*
X174400000Y-83700000D03*
X172749000Y-83700000D03*
D25*
X130101800Y-69151000D03*
X131052000Y-71151000D03*
X129151600Y-71151000D03*
X130101800Y-74951000D03*
X131052000Y-76951000D03*
X129151600Y-76951000D03*
D19*
X135000000Y-95900000D03*
X136701800Y-95900000D03*
D17*
X112300000Y-75744200D03*
X112300000Y-77000000D03*
D27*
X136801800Y-92900000D03*
X135001800Y-92900000D03*
D15*
X145600000Y-106771300D03*
X143542600Y-106771300D03*
D35*
X159100000Y-84350000D03*
X159100000Y-82450000D03*
D13*
X139401800Y-74151000D03*
X139401800Y-76151000D03*
D16*
X145100000Y-115200000D03*
X143100000Y-115200000D03*
D17*
X116272100Y-89672100D03*
X116272100Y-90927900D03*
D27*
X136701800Y-63651000D03*
X134901800Y-63651000D03*
D17*
X111372100Y-89672100D03*
X111372100Y-90927900D03*
D18*
X132850900Y-71451000D03*
X132850900Y-72851000D03*
D28*
X149100000Y-122149000D03*
X149100000Y-123800000D03*
D17*
X118300000Y-96772100D03*
X118300000Y-98027900D03*
D39*
X158300000Y-73460000D03*
X158300000Y-76740000D03*
D40*
X167750001Y-61861600D03*
X171049999Y-61861600D03*
X171049999Y-66738400D03*
X167750001Y-66738400D03*
D38*
X153000000Y-123600000D03*
X153000000Y-125205598D03*
D35*
X161600000Y-84350000D03*
X161600000Y-82450000D03*
D17*
X114277600Y-100197857D03*
X114277600Y-101453657D03*
D25*
X130101800Y-86700000D03*
X131052000Y-88700000D03*
X129151600Y-88700000D03*
D24*
X117000000Y-131472900D03*
X117000000Y-133327100D03*
D28*
X144700000Y-88174500D03*
X144700000Y-89825500D03*
D41*
X173300000Y-65400000D03*
X173300000Y-67000000D03*
D13*
X139401800Y-50400000D03*
X139401800Y-52400000D03*
D25*
X130101800Y-98400000D03*
X131052000Y-100400000D03*
X129151600Y-100400000D03*
D13*
X139401800Y-56451000D03*
X139401800Y-58451000D03*
D19*
X135000000Y-72600000D03*
X136701800Y-72600000D03*
D17*
X109300000Y-65272100D03*
X109300000Y-66527900D03*
D28*
X143900000Y-102717100D03*
X143900000Y-104368100D03*
D42*
X161745800Y-134200000D03*
X161745800Y-135901800D03*
D43*
X104725000Y-125525001D03*
X108875000Y-125525001D03*
X104725000Y-127674999D03*
X108875000Y-127674999D03*
D13*
X141800000Y-102742600D03*
X141800000Y-104742600D03*
D17*
X105400000Y-68772100D03*
X105400000Y-70027900D03*
X108300000Y-61772100D03*
X108300000Y-63027900D03*
D35*
X156400000Y-79050000D03*
X156400000Y-80950000D03*
D26*
X143000000Y-129527100D03*
X143000000Y-127672900D03*
D15*
X153200000Y-109171300D03*
X151142600Y-109171300D03*
D27*
X136801800Y-87100000D03*
X135001800Y-87100000D03*
D44*
X90854600Y-115600000D03*
X98500000Y-115600000D03*
D45*
X172027801Y-121600000D03*
X168972199Y-121600000D03*
D34*
X161122400Y-68200000D03*
X158277600Y-68200000D03*
D18*
X132850900Y-88900000D03*
X132850900Y-90300000D03*
D16*
X145300000Y-123300000D03*
X147300000Y-123300000D03*
D28*
X149100000Y-126851000D03*
X149100000Y-125200000D03*
D17*
X110300000Y-68772100D03*
X110300000Y-70027900D03*
D18*
X132850900Y-59451000D03*
X132850900Y-60851000D03*
D17*
X110300000Y-86172100D03*
X110300000Y-87427900D03*
D25*
X130101800Y-80851000D03*
X131052000Y-82851000D03*
X129151600Y-82851000D03*
D35*
X145900000Y-86100000D03*
X145900000Y-84200000D03*
D28*
X160500000Y-90925500D03*
X160500000Y-89274500D03*
D13*
X139401800Y-115025000D03*
X139401800Y-117025000D03*
D19*
X135000000Y-60700000D03*
X136701800Y-60700000D03*
D45*
X164372199Y-114600000D03*
X167427801Y-114600000D03*
D17*
X119200000Y-100171457D03*
X119200000Y-101427257D03*
D15*
X150257400Y-100400000D03*
X148200000Y-100400000D03*
D46*
X164597201Y-112100000D03*
X166202799Y-112100000D03*
D10*
X156000000Y-104700000D03*
X156000000Y-102642600D03*
D25*
X130101800Y-63151000D03*
X131052000Y-65151000D03*
X129151600Y-65151000D03*
D10*
X166000000Y-104700000D03*
X166000000Y-102642600D03*
D13*
X142100000Y-96600000D03*
X142100000Y-98600000D03*
D34*
X145377600Y-141800000D03*
X148222400Y-141800000D03*
D18*
X132850900Y-65451000D03*
X132850900Y-66851000D03*
D39*
X164300000Y-86060000D03*
X164300000Y-89340000D03*
D28*
X147000000Y-120825500D03*
X147000000Y-119174500D03*
D31*
X134000000Y-125800000D03*
X132349000Y-125800000D03*
D13*
X139401800Y-91800000D03*
X139401800Y-93800000D03*
D31*
X177825500Y-80100000D03*
X176174500Y-80100000D03*
D36*
X163800000Y-131030000D03*
X163800000Y-132570000D03*
D43*
X100675000Y-141774999D03*
X96525000Y-141774999D03*
X100675000Y-139625001D03*
X96525000Y-139625001D03*
D25*
X130101800Y-51075300D03*
X131052000Y-53075300D03*
X129151600Y-53075300D03*
D27*
X136800000Y-57651000D03*
X135000000Y-57651000D03*
D10*
X163500000Y-104700000D03*
X163500000Y-102642600D03*
D18*
X132850900Y-83151000D03*
X132850900Y-84551000D03*
X132850900Y-77351000D03*
X132850900Y-78751000D03*
D15*
X160600000Y-106771300D03*
X158542600Y-106771300D03*
D19*
X135000000Y-90000000D03*
X136701800Y-90000000D03*
D35*
X163900000Y-79050000D03*
X163900000Y-80950000D03*
D28*
X146600000Y-89874500D03*
X146600000Y-91525500D03*
D10*
X161000000Y-104700000D03*
X161000000Y-102642600D03*
D47*
X177325000Y-129800000D03*
D48*
X171275000Y-132100000D03*
X171275000Y-129800000D03*
X171275000Y-127500000D03*
D27*
X136801800Y-98800000D03*
X135001800Y-98800000D03*
D18*
X132850900Y-53400000D03*
X132850900Y-54800000D03*
D17*
X113400000Y-96772100D03*
X113400000Y-98027900D03*
D31*
X133920302Y-121075000D03*
X132269302Y-121075000D03*
D28*
X168200000Y-69074500D03*
X168200000Y-70725500D03*
D18*
X132850900Y-94700000D03*
X132850900Y-96100000D03*
X132850900Y-100600000D03*
X132850900Y-102000000D03*
D16*
X107500000Y-114200000D03*
X109500000Y-114200000D03*
D49*
X168800000Y-130000000D03*
X168800000Y-128400000D03*
M02*
